<svg xmlns="http://www.w3.org/2000/svg" xmlns:xlink="http://www.w3.org/1999/xlink" xmlns:inkscape="http://www.inkscape.org/namespaces/inkscape" version="1.1" width="198" height="165" viewBox="0 0 198 165">
<defs>
<path id="font_1_1" d="M.6589966 .23046875C.6759949 .23046875 .69400027 .23046875 .69400027 .25045777 .69400027 .27046205 .6759949 .27046205 .6589966 .27046205H.117996219C.100997928 .27046205 .08299255 .27046205 .08299255 .25045777 .08299255 .23046875 .100997928 .23046875 .117996219 .23046875H.6589966Z"/>
<path id="font_2_3" d="M.13198853 .327713V.35173036C.13198853 .6047821 .2559967 .64100649 .30699159 .64100649 .33099366 .64100649 .37298585 .634964 .394989 .6007538 .37998963 .6007538 .33999635 .6007538 .33999635 .5557556 .33999635 .524765 .3639984 .5097656 .38598634 .5097656 .4019928 .5097656 .43199159 .51875308 .43199159 .5577545 .43199159 .6178589 .3880005 .6660156 .30499269 .6660156 .1769867 .6660156 .041992189 .5367584 .041992189 .31570436 .041992189 .048553468 .1579895-.022460938 .25099183-.022460938 .3619995-.022460938 .45700074 .07156372 .45700074 .2036438 .45700074 .33070375 .36799623 .4267578 .25698854 .4267578 .18899536 .4267578 .1519928 .37573243 .13198853 .327713M.25099183 .0055389406C.18798828 .0055389406 .1579895 .06556702 .1519928 .080566409 .13398743 .127594 .13398743 .2076416 .13398743 .22564698 .13398743 .30369569 .1659851 .40374757 .2559967 .40374757 .27198792 .40374757 .31799317 .40374757 .34899903 .34172059 .36698915 .30470277 .36698915 .2536621 .36698915 .20463562 .36698915 .15661621 .36698915 .10658264 .34999085 .0705719 .31999208 .010528564 .27398683 .0055389406 .25099183 .0055389406Z"/>
<path id="font_2_2" d="M.2939911 .16503906V.07800293C.2939911 .041992189 .2919922 .0309906 .21798706 .0309906H.19699097V0C.23799134 .0029907227 .2899933 .0029907227 .33198548 .0029907227 .37399293 .0029907227 .4269867 .0029907227 .46798707 0V.0309906H.44699098C.37298585 .0309906 .37098695 .041992189 .37098695 .07800293V.16503906H.47099305V.19602967H.37098695V.65075686C.37098695 .67074587 .37098695 .6767578 .35499574 .6767578 .34599305 .6767578 .34298707 .6767578 .33499146 .66474917L.027999878 .19602967V.16503906H.2939911M.2999878 .19602967H.055999757L.2999878 .5688019V.19602967Z"/>
<path id="font_2_1" d="M.1269989 .07699585 .23298645 .18003845C.3889923 .31811524 .44898988 .3721466 .44898988 .47216798 .44898988 .5860901 .35899354 .6660156 .23699951 .6660156 .12399292 .6660156 .049987794 .57411196 .049987794 .48516847 .049987794 .4291687 .099990848 .4291687 .102996829 .4291687 .11999512 .4291687 .15499878 .44117738 .15499878 .48217774 .15499878 .5081787 .13699341 .5341797 .101989749 .5341797 .09399414 .5341797 .09199524 .5341797 .08898926 .5331726 .11199951 .59806826 .1659851 .63500979 .22399903 .63500979 .31498719 .63500979 .35798646 .5541382 .35798646 .47216798 .35798646 .39215089 .30799867 .31311036 .25299073 .25108338L.06098938 .036987306C.049987794 .025985718 .049987794 .023986817 .049987794 0H.42099L.44898988 .17404175H.42399598C.4189911 .14402771 .4119873 .1000061 .4019928 .084991458 .394989 .07699585 .32899476 .07699585 .30699159 .07699585H.1269989Z"/>
<clipPath id="clip_3">
<path transform="matrix(1.00003,0,0,-1.00006,2.0964967,163.19083)" d="M0 0H194.26912V161.3842H0Z"/>
</clipPath>
<path id="font_4_1" d="M.33399964 .30233766C.33999635 .32835389 .36299134 .42037965 .43299867 .42037965 .43798829 .42037965 .46199037 .42037965 .48298646 .40734864 .45498658 .402359 .43499757 .37734986 .43499757 .35334779 .43499757 .33735658 .44599916 .31835938 .47299195 .31835938 .49499513 .31835938 .5269928 .3363495 .5269928 .37635804 .5269928 .42837525 .46798707 .4423828 .43399049 .4423828 .37599183 .4423828 .34098817 .38935853 .32899476 .36634828 .3039856 .43237306 .25 .4423828 .22099304 .4423828 .116989139 .4423828 .05999756 .3133545 .05999756 .28834535 .05999756 .27833558 .069992069 .27833558 .07199097 .27833558 .07998657 .27833558 .08299255 .28033448 .084991458 .28933717 .11898804 .39535523 .18499756 .42037965 .21899414 .42037965 .23799134 .42037965 .272995 .4113617 .272995 .35334779 .272995 .32235719 .2559967 .25532533 .21899414 .11528015 .20298767 .053268434 .16799927 .011245728 .12399292 .011245728 .117996219 .011245728 .09498596 .011245728 .07398987 .024276734 .09899902 .029266358 .12098694 .05027771 .12098694 .07827759 .12098694 .105270389 .09899902 .11328125 .083999637 .11328125 .053985597 .11328125 .0289917 .08728027 .0289917 .055267335 .0289917 .009246826 .07899475-.0107421879 .12298584-.0107421879 .18899536-.0107421879 .22499085 .059280397 .22799683 .0652771 .23999024 .028274537 .27598573-.0107421879 .33599855-.0107421879 .43899537-.0107421879 .49598695 .118270877 .49598695 .14328003 .49598695 .1532898 .4869995 .1532898 .48399354 .1532898 .47499085 .1532898 .47299195 .14929199 .47099305 .14228821 .43798829 .03527832 .36999513 .011245728 .33799745 .011245728 .29899598 .011245728 .2829895 .043273927 .2829895 .07727051 .2829895 .09927368 .2889862 .121276859 .2999878 .16529846L.33399964 .30233766Z"/>
<path id="font_4_2" d="M.48599244 .38136292C.48999024 .39537049 .48999024 .39736939 .48999024 .40437318 .48999024 .42237855 .47599793 .43138124 .46099855 .43138124 .45098878 .43138124 .43499757 .42536927 .42599488 .41036988 .42399598 .405365 .41600038 .37435914 .4119873 .35635377 .40499879 .33035279 .397995 .30334474 .3919983 .27633668L.34700013 .09628296C.34298707 .08126831 .2999878 .011245728 .23399353 .011245728 .18299866 .011245728 .17199707 .055267335 .17199707 .0922699 .17199707 .1382904 .18899536 .20030213 .22299195 .28833009 .23899842 .3293457 .24299622 .3403473 .24299622 .36035157 .24299622 .405365 .21099854 .4423828 .16099549 .4423828 .06599426 .4423828 .0289917 .29733277 .0289917 .28833009 .0289917 .27833558 .038986207 .27833558 .040985109 .27833558 .050994874 .27833558 .051986696 .28033448 .056991579 .29634095 .083999637 .3903656 .12399292 .42037965 .1579895 .42037965 .1659851 .42037965 .18299866 .42037965 .18299866 .3883667 .18299866 .36335755 .17298889 .3373413 .1659851 .31834413 .12599182 .21231079 .10798645 .1552887 .10798645 .10827637 .10798645 .019256592 .17098999-.0107421879 .22999573-.0107421879 .2689972-.0107421879 .30299378 .0062561037 .33099366 .03425598 .31799317-.017745972 .30599977-.06674194 .2659912-.11973572 .23999024-.15385437 .20199585-.18309021 .1559906-.18309021 .14199829-.18309021 .09700012-.18005371 .07998657-.14074707 .09599304-.14074707 .10899353-.14074707 .12298584-.1287384 .1329956-.11973572 .14299011-.10673523 .14299011-.08773804 .14299011-.056747438 .115997318-.052734376 .10598755-.052734376 .08299255-.052734376 .049987794-.068740848 .049987794-.11773682 .049987794-.16796875 .09399414-.20507813 .1559906-.20507813 .25898744-.20507813 .3619995-.11373901 .3899994-.00074768069L.48599244 .38136292Z"/>
</defs>
<path transform="matrix(1.00003,0,0,-1.00006,2.0964967,163.19083)" stroke-width=".3985" stroke-linecap="butt" stroke-miterlimit="10" stroke-linejoin="miter" fill="none" stroke="#404040" d="M0 0H194.26912V161.3842H0Z"/>
<path transform="matrix(1.00003,0,0,-1.00006,2.0964967,163.19083)" stroke-width=".3985" stroke-linecap="butt" stroke-miterlimit="10" stroke-linejoin="miter" fill="none" stroke="#bfbfbf" d="M12.14182 0V161.3842M36.42545 0V161.3842M60.70909 0V161.3842M84.99274 0V161.3842M109.27637 0V161.3842M133.56002 0V161.3842M157.84366 0V161.3842M182.12729 0V161.3842"/>
<path transform="matrix(1.00003,0,0,-1.00006,2.0964967,163.19083)" stroke-width=".3985" stroke-linecap="butt" stroke-miterlimit="10" stroke-linejoin="miter" fill="none" stroke="#bfbfbf" d="M24.28363 0V161.3842M48.56728 0V161.3842M72.8509 0V161.3842M121.4182 0V161.3842M145.70183 0V161.3842M169.98548 0V161.3842"/>
<path transform="matrix(1.00003,0,0,-1.00006,2.0964967,163.19083)" stroke-width=".3985" stroke-linecap="butt" stroke-miterlimit="10" stroke-linejoin="miter" fill="none" stroke="#bfbfbf" d="M0 10.0865H194.26912M0 30.25954H194.26912M0 50.43256H194.26912M0 70.60558H194.26912M0 90.77861H194.26912M0 110.95163H194.26912M0 131.12467H194.26912M0 151.29769H194.26912"/>
<path transform="matrix(1.00003,0,0,-1.00006,2.0964967,163.19083)" stroke-width=".3985" stroke-linecap="butt" stroke-miterlimit="10" stroke-linejoin="miter" fill="none" stroke="#bfbfbf" d="M0 20.17302H194.26912M0 40.34604H194.26912M0 60.51907H194.26912M0 100.86511H194.26912M0 121.03815H194.26912M0 141.21117H194.26912"/>
<path transform="matrix(1.00003,0,0,-1.00006,2.0964967,163.19083)" stroke-width=".19925" stroke-linecap="butt" stroke-miterlimit="10" stroke-linejoin="miter" fill="none" stroke="#7f807f" d="M12.14182 79.27461V82.10957M36.42545 79.27461V82.10957M60.70909 79.27461V82.10957M84.99274 79.27461V82.10957M109.27637 79.27461V82.10957M133.56002 79.27461V82.10957M157.84366 79.27461V82.10957M182.12729 79.27461V82.10957"/>
<path transform="matrix(1.00003,0,0,-1.00006,2.0964967,163.19083)" stroke-width=".19925" stroke-linecap="butt" stroke-miterlimit="10" stroke-linejoin="miter" fill="none" stroke="#7f807f" d="M24.28363 78.56609V82.81808M48.56728 78.56609V82.81808M72.8509 78.56609V82.81808M121.4182 78.56609V82.81808M145.70183 78.56609V82.81808M169.98548 78.56609V82.81808"/>
<path transform="matrix(1.00003,0,0,-1.00006,2.0964967,163.19083)" stroke-width=".19925" stroke-linecap="butt" stroke-miterlimit="10" stroke-linejoin="miter" fill="none" stroke="#7f807f" d="M95.7171 10.0865H98.552M95.7171 30.25954H98.552M95.7171 50.43256H98.552M95.7171 70.60558H98.552M95.7171 90.77861H98.552M95.7171 110.95163H98.552M95.7171 131.12467H98.552M95.7171 151.29769H98.552"/>
<path transform="matrix(1.00003,0,0,-1.00006,2.0964967,163.19083)" stroke-width=".19925" stroke-linecap="butt" stroke-miterlimit="10" stroke-linejoin="miter" fill="none" stroke="#7f807f" d="M95.0086 20.17302H99.26048M95.0086 40.34604H99.26048M95.0086 60.51907H99.26048M95.0086 100.86511H99.26048M95.0086 121.03815H99.26048M95.0086 141.21117H99.26048"/>
<path transform="matrix(1.00003,0,0,-1.00006,2.0964967,163.19083)" stroke-width=".3985" stroke-linecap="butt" stroke-miterlimit="10" stroke-linejoin="miter" fill="none" stroke="#000000" d="M0 80.6921H192.2766"/>
<path transform="matrix(1.00003,0,0,-1.00006,194.37888,82.49389)" d="M1.99252 0-1.19551 1.59401 0 0-1.19551-1.59401"/>
<path transform="matrix(1.00003,0,0,-1.00006,2.0964967,163.19083)" stroke-width=".3985" stroke-linecap="butt" stroke-miterlimit="10" stroke-linejoin="miter" fill="none" stroke="#000000" d="M97.13455 0V159.39168"/>
<path transform="matrix(0,-1.00006,-1.00003,-0,99.23396,3.7895966)" d="M1.99252 0-1.19551 1.59401 0 0-1.19551-1.59401"/>
<use data-text="&#x2212;" xlink:href="#font_1_1" transform="matrix(9.962899,0,0,-9.963197,20.016037,94.560718)"/>
<use data-text="6" xlink:href="#font_2_3" transform="matrix(9.962899,0,0,-9.963197,27.765267,94.560718)"/>
<use data-text="&#x2212;" xlink:href="#font_1_1" transform="matrix(9.962899,0,0,-9.963197,44.299764,94.560718)"/>
<use data-text="4" xlink:href="#font_2_2" transform="matrix(9.962899,0,0,-9.963197,52.048994,94.560718)"/>
<use data-text="&#x2212;" xlink:href="#font_1_1" transform="matrix(9.962899,0,0,-9.963197,68.584499,94.560718)"/>
<use data-text="2" xlink:href="#font_2_1" transform="matrix(9.962899,0,0,-9.963197,76.333728,94.560718)"/>
<use data-text="2" xlink:href="#font_2_1" transform="matrix(9.962899,0,0,-9.963197,121.02707,94.560718)"/>
<use data-text="4" xlink:href="#font_2_2" transform="matrix(9.962899,0,0,-9.963197,145.3118,94.560718)"/>
<use data-text="6" xlink:href="#font_2_3" transform="matrix(9.962899,0,0,-9.963197,169.59653,94.560718)"/>
<use data-text="&#x2212;" xlink:href="#font_1_1" transform="matrix(9.962899,0,0,-9.963197,80.857868,145.81179)"/>
<use data-text="6" xlink:href="#font_2_3" transform="matrix(9.962899,0,0,-9.963197,88.60709,145.81179)"/>
<use data-text="&#x2212;" xlink:href="#font_1_1" transform="matrix(9.962899,0,0,-9.963197,80.857868,125.63757)"/>
<use data-text="4" xlink:href="#font_2_2" transform="matrix(9.962899,0,0,-9.963197,88.60709,125.63757)"/>
<use data-text="&#x2212;" xlink:href="#font_1_1" transform="matrix(9.962899,0,0,-9.963197,80.857868,105.46336)"/>
<use data-text="2" xlink:href="#font_2_1" transform="matrix(9.962899,0,0,-9.963197,88.60709,105.46336)"/>
<use data-text="2" xlink:href="#font_2_1" transform="matrix(9.962899,0,0,-9.963197,88.6061,65.52997)"/>
<use data-text="4" xlink:href="#font_2_2" transform="matrix(9.962899,0,0,-9.963197,88.6061,45.35576)"/>
<use data-text="6" xlink:href="#font_2_3" transform="matrix(9.962899,0,0,-9.963197,88.6061,25.18155)"/>
<g clip-path="url(#clip_3)">
<path transform="matrix(1.00003,0,0,-1.00006,2.0964967,163.19083)" stroke-width="1.49442" stroke-linecap="butt" stroke-miterlimit="10" stroke-linejoin="miter" fill="none" stroke="#000000" d="M72.8509 90.77861 73.15521 92.3756 73.45952 93.03647 73.76384 93.54492 74.06813 93.97269 74.37245 94.35004 74.67676 94.69005 74.98106 95.00385 75.28537 95.29535 75.58969 95.56969 75.894 95.82912 76.1983 96.07524 76.50261 96.31125 76.80693 96.53719 77.11122 96.75424 77.41554 96.96405 77.71985 97.16689 78.02415 97.36357 78.32846 97.55421 78.63277 97.73991 78.93709 97.92146 79.24138 98.09798 79.5457 98.26965 79.85 98.4381 80.15433 98.60251 80.45862 98.76399 80.76294 98.92235 81.06725 99.07758 81.37155 99.22908 81.67586 99.37936 81.98018 99.52673 82.28448 99.66986 82.58879 99.81308 82.8931 99.9533 83.1974 100.09158 83.50171 100.22684 83.80602 100.36108 84.11034 100.49313 84.41464 100.62444 84.71895 100.75244 85.02325 100.87772 85.32758 101.0032 85.63187 101.12695 85.93619 101.2493 86.2405 101.37054 86.54482 101.49026 86.8491 101.60847 87.15343 101.7255 87.45773 101.84138 87.76204 101.95586 88.06635 102.06964 88.37065 102.18211 88.67497 102.29306 88.97926 102.4033 89.28358 102.51224 89.58789 102.62057 89.89221 102.72789 90.1965 102.83359 90.50082 102.9393 90.80513 103.0435 91.10945 103.14668 91.41374 103.24945 91.71806 103.35124 92.02237 103.4521 92.32669 103.55246 92.63098 103.65161 92.9353 103.75046 93.23961 103.84871 93.5439 103.94524 93.84822 104.04166 94.15253 104.13718 94.45685 104.2325 94.76114 104.3276 95.06546 104.42061 95.36977 104.514 95.67409 104.6065 95.97838 104.6977 96.2827 104.78926 96.587 104.87955 96.89133 104.96971 97.19562 105.0605 97.49994 105.14946 97.80424 105.23763 98.10857 105.32587 98.41286 105.41313 98.71716 105.50006 99.02148 105.58641 99.32578 105.67194 99.6301 105.75757 99.9344 105.84201 100.23872 105.92673 100.54301 106.01074 100.84734 106.09386 101.15164 106.17737 101.45596 106.25978 101.76025 106.34178 102.06458 106.42339 102.36888 106.50488 102.6732 106.58537 102.9775 106.66638 103.28181 106.74625 103.58612 106.82564 103.89044 106.9049 104.19473 106.98369 104.49904 107.06236 104.80336 107.14055 105.10765 107.2184 105.41197 107.29558 105.71628 107.37202 106.0206 107.44919 106.32489 107.52502 106.62921 107.6014 106.93352 107.67703 107.23784 107.7524 107.54213 107.82681 107.84645 107.90196 108.15076 107.9758 108.45508 108.04984 108.75937 108.12357 109.06369 108.1971 109.368 108.26993 109.6723 108.34224 109.97661 108.41476 110.28091 108.48698 110.58524 108.5584 110.88953 108.63072 111.19385 108.70163 111.49815 108.77234 111.80246 108.84343 112.10677 108.91405 112.41109 108.98334 112.7154 109.05396 113.0197 109.12355 113.324 109.19244 113.62833 109.26244 113.93262 109.33092 114.23694 109.3988 114.54124 109.46669 114.84555 109.53568 115.14986 109.60295 115.45416 109.67033 115.75848 109.738 116.06277 109.805 116.3671 109.87146 116.6714 109.93904 116.97572 110.00551 117.28001 110.07047 117.58434 110.13774 117.88864 110.20291 118.19295 110.26825 118.49725 110.33371 118.80157 110.39828 119.10588 110.46324 119.41019 110.52759 119.7145 110.59305 120.0188 110.65639 120.3231 110.72005 120.62741 110.7849 120.93173 110.84764 121.23604 110.91037 121.54034 110.97594 121.84465 111.03888 122.14897 111.10211 122.45326 111.16435 122.75758 111.22699 123.06189 111.28911 123.36621 111.35104 123.6705 111.41318 123.97482 111.47491 124.27913 111.53613 124.58344 111.59746 124.88774 111.65839 125.19205 111.71951 125.49635 111.77992 125.80066 111.84094 126.10498 111.90138 126.40929 111.96169 126.7136 112.0218 127.0179 112.08191 127.32222 112.14163 127.62651 112.20134 127.93083 112.26076 128.23514 112.31935 128.53946 112.37888 128.84375 112.43817 129.14807 112.49638 129.45238 112.55537 129.75669 112.61317 130.06099 112.67218 130.3653 112.73009 130.66962 112.78818 130.9739 112.84587 131.27823 112.90376 131.58254 112.96106 131.88684 113.01875 132.19115 113.07645 132.49547 113.13313 132.79978 113.19023 133.10408 113.2465 133.40839 113.3038 133.7127 113.36008 134.017 113.41597 134.32132 113.47235 134.62563 113.52873 134.92995 113.5845 135.23424 113.6407 135.53856 113.69626 135.84287 113.75104 136.14716 113.80722 136.45148 113.86229 136.75579 113.91777 137.0601 113.97263 137.3644 114.02802 137.66872 114.08168 137.97303 114.13675 138.27733 114.19121 138.58164 114.24557 138.88596 114.30025 139.19026 114.35391 139.49457 114.40778 139.79888 114.46173 140.1032 114.5164 140.40749 114.56935 140.7118 114.62282 141.01612 114.67699 141.3204 114.72963 141.62473 114.78288 141.92903 114.83594 142.23336 114.88779 142.53765 114.94185 142.84197 114.99481 143.14627 115.04675 143.45058 115.09929 143.75489 115.15115 144.0592 115.2038 144.36351 115.25615 144.66782 115.30737 144.97212 115.35944 145.27645 115.41096 145.58074 115.46281 145.88506 115.51436 146.18936 115.5664 146.49367 115.61713 146.79798 115.66888 147.10228 115.72012 147.4066 115.77097 147.71089 115.8224 148.01522 115.87283 148.31952 115.92346 148.62384 115.9741 148.92813 116.02534 149.23246 116.07475 149.53676 116.1252 149.84107 116.17635 150.14537 116.22586 150.44969 116.27629 150.754 116.32622 151.0583 116.37544 151.36261 116.42538 151.66692 116.4754 151.97122 116.52441 152.27553 116.57384 152.57985 116.62297 152.88416 116.6727 153.18846 116.72212 153.49277 116.77135 153.79709 116.81985 154.10138 116.86838 154.4057 116.91881 154.71 116.966 155.01432 117.01514 155.31862 117.06253 155.62294 117.11195 155.92725 117.16057 156.23155 117.20747 156.53586 117.2563 156.84017 117.3043 157.14447 117.35193 157.44878 117.40054 157.7531 117.44865 158.0574 117.49486 158.36171 117.54446 158.66602 117.59167 158.97034 117.63818 159.27463 117.68588 159.57895 117.73471 159.88326 117.7802 160.18758 117.82759 160.49187 117.8755 160.79619 117.9216 161.1005 117.96901 161.4048 118.01602 161.7091 118.0617 162.01342 118.10973 162.31774 118.15622 162.62203 118.2019 162.92635 118.24881 163.23065 118.29642 163.53496 118.341 163.83927 118.3878 164.14359 118.4342 164.44789 118.47879 164.7522 118.52498 165.0565 118.5732 165.36083 118.61687 165.66512 118.66316 165.96944 118.70715 166.27375 118.75334 166.57807 118.79994 166.88236 118.84431 167.18668 118.8893 167.49098 118.93591 167.79528 118.97978 168.0996 119.02568 168.4039 119.07138 168.7082 119.11494 169.01251 119.16064 169.31684 119.20662 169.62114 119.2493 169.92545 119.29529 170.22975 119.34209 170.53408 119.38626 170.83837 119.43074 171.14269 119.47534 171.44699 119.52032 171.75131 119.5645 172.0556 119.60837 172.35993 119.65295 172.66423 119.69621 172.96852 119.7402 173.27285 119.78459 173.57715 119.82886 173.88147 119.87244 174.18576 119.91582 174.49008 119.95969 174.79439 120.00325 175.0987 120.04694 175.403 120.09071 175.70732 120.13388 176.01163 120.17746 176.31594 120.22093 176.62024 120.2641 176.92456 120.30727 177.22885 120.35094 177.53318 120.3937 177.83748 120.43668 178.14179 120.47935 178.44609 120.52211 178.7504 120.56508 179.05472 120.60855 179.35901 120.65042 179.66333 120.69318 179.96764 120.73524 180.27196 120.7785 180.57625 120.82037 180.88057 120.86375 181.18488 120.90529 181.48918 120.94806 181.79349 120.99043 182.09781 121.03279 182.4021 121.07434 182.70642 121.11691 183.01073 121.15897 183.31504 121.20084 183.61934 121.24219 183.92365 121.28464 184.22797 121.3261 184.53226 121.36766 184.83658 121.40962 185.14089 121.45047 185.4452 121.49265 185.7495 121.5333 186.05382 121.57544 186.35813 121.6167 186.66243 121.65775 186.96674 121.6992 187.27106 121.74046 187.57537 121.78181 187.87967 121.82367 188.18398 121.86342 188.48828 121.90457 188.79259 121.94572 189.0969 121.98648 189.40122 122.02744 189.70552 122.06828 190.00983 122.10893 190.31414 122.14937 190.61846 122.19032 190.92275 122.23077 191.22707 122.27112 191.53137 122.31186 191.8357 122.35109 192.13999 122.39204 192.4443 122.4331 192.74861 122.47273 193.05292 122.5134 193.35723 122.55363 193.66153 122.59317 193.96585 122.63373 193.13709 122.5228"/>
<path transform="matrix(.9911298,-.13268796,-.13268398,-.99115946,195.23938,40.660699)" stroke-width="1.19553" stroke-linecap="round" stroke-linejoin="round" fill="none" stroke="#000000" d="M-2.18182 2.9091C-2 1.81818 0 .18181 .54544 0 0-.18181-2-1.81818-2.18182-2.9091"/>
<path transform="matrix(1.00003,0,0,-1.00006,2.0964967,163.19083)" stroke-width="1.49442" stroke-linecap="butt" stroke-miterlimit="10" stroke-linejoin="miter" fill="none" stroke="#000000" d="M1.12717 66.26389 .18257 66.10426 .36514 66.13564 .54773 66.16591 .73032 66.19777 .91289 66.22842 1.09547 66.2597 1.27805 66.29158 1.46063 66.32182 1.64322 66.35411 1.82579 66.38496 2.00838 66.41624 2.19096 66.44801 2.37354 66.47897 2.55612 66.51105 2.73871 66.5424 2.92128 66.5737 3.10387 66.60536 3.28645 66.63693 3.46902 66.6694 3.65161 66.70009 3.83418 66.73216 4.01677 66.76422 4.19936 66.79568 4.38193 66.82758 4.56451 66.85915 4.7471 66.89111 4.92967 66.9243 5.11226 66.95576 5.29485 66.98784 5.47742 67.01984 5.66 67.0525 5.84259 67.08498 6.02516 67.11705 6.20775 67.14923 6.39032 67.1817 6.5729 67.2141 6.7555 67.24637 6.93806 67.27943 7.12065 67.31181 7.30324 67.34471 7.48581 67.37718 7.6684 67.40875 7.85098 67.44235 8.03355 67.47552 8.21614 67.5079 8.39873 67.54068 8.5813 67.57317 8.76389 67.60696 8.94646 67.64014 9.12904 67.67252 9.31163 67.7057 9.4942 67.73888 9.6768 67.77257 9.85938 67.80615 10.04195 67.83885 10.22453 67.87234 10.40712 67.90562 10.58969 67.9394 10.77228 67.97269 10.95486 68.00577 11.13744 68.03998 11.32002 68.07336 11.5026 68.10733 11.68518 68.14124 11.86777 68.17432 12.05034 68.2086 12.23294 68.2422 12.41551 68.2765 12.59808 68.31067 12.78067 68.34468 12.96326 68.37868 13.14583 68.41226 13.32841 68.44717 13.51099 68.48116 13.69357 68.51555 13.87616 68.55025 14.05873 68.58423 14.24132 68.61873 14.4239 68.65343 14.60648 68.68813 14.78906 68.72292 14.97165 68.75772 15.15422 68.79202 15.3368 68.82753 15.5194 68.8618 15.70197 68.89693 15.88455 68.93211 16.06712 68.96703 16.24971 69.0021 16.4323 69.03693 16.61487 69.07233 16.79745 69.10762 16.98004 69.14331 17.16261 69.17834 17.3452 69.21362 17.52779 69.24934 17.71036 69.28485 17.89294 69.32045 18.07553 69.35585 18.2581 69.39197 18.44069 69.42758 18.62326 69.46338 18.80585 69.49959 18.98843 69.53539 19.171 69.57172 19.3536 69.60721 19.53618 69.64381 19.71875 69.67993 19.90134 69.71625 20.08392 69.75275 20.2665 69.78908 20.44908 69.82538 20.63167 69.86198 20.81424 69.8988 20.99683 69.93542 21.1794 69.97165 21.36198 70.00935 21.54457 70.04567 21.72714 70.08247 21.90974 70.1194 22.09232 70.15692 22.27489 70.19383 22.45747 70.23126 22.64006 70.26848 22.82263 70.3056 23.00522 70.34282 23.1878 70.38043 23.37038 70.41806 23.55296 70.45508 23.73553 70.49321 23.91812 70.53093 24.10071 70.56876 24.28328 70.60637 24.46588 70.64682 24.64845 70.68405 24.83102 70.72197 25.01361 70.75919 25.1962 70.79782 25.37877 70.83716 25.56136 70.87547 25.74394 70.91371 25.92651 70.95155 26.1091 70.98987 26.29167 71.02962 26.47427 71.06804 26.65685 71.10658 26.83942 71.1458 27.022 71.18393 27.20459 71.22346 27.38716 71.2631 27.56975 71.30235 27.75233 71.34068 27.9349 71.38023 28.1175 71.41945 28.30006 71.4595 28.48265 71.49905 28.66524 71.53899 28.84781 71.57841 29.03041 71.61816 29.21298 71.6589 29.39555 71.69844 29.57814 71.7387 29.76073 71.77853 29.9433 71.81918 30.12589 71.85902 30.30847 71.89948 30.49104 71.94092 30.67363 71.98117 30.8562 72.02151 31.03879 72.06168 31.22137 72.10373 31.40395 72.14445 31.58655 72.1853 31.76912 72.22626 31.95169 72.26733 32.13428 72.30928 32.31686 72.35085 32.49944 72.39241 32.68202 72.43365 32.86461 72.47562 33.04718 72.51758 33.22977 72.55933 33.41234 72.6015 33.59492 72.64305 33.77751 72.68532 33.96008 72.72739 34.14268 72.77095 34.32526 72.81291 34.50783 72.85556 34.69041 72.89804 34.873 72.941 35.05557 72.98418 35.23816 73.02715 35.42075 73.07022 35.60332 73.11337 35.7859 73.15675 35.96848 73.19983 36.15108 73.24391 36.33365 73.2873 36.51622 73.33095 36.69882 73.37514 36.8814 73.4189 37.06396 73.46349 37.24655 73.50737 37.42914 73.55194 37.61171 73.59583 37.7943 73.6403 37.97688 73.68529 38.15945 73.73038 38.34204 73.77525 38.52461 73.82025 38.70721 73.86523 38.88979 73.91011 39.07236 73.95581 39.25494 74.0019 39.43753 74.0468 39.6201 74.09279 39.80269 74.13817 39.98528 74.18518 40.16785 74.23106 40.35043 74.27747 40.533 74.32347 40.71559 74.37036 40.89818 74.41666 41.08075 74.46365 41.26335 74.51038 41.44592 74.55777 41.6285 74.60487 41.81108 74.65207 41.99367 74.6998 42.17624 74.7471 42.35883 74.7951 42.54141 74.84282 42.72398 74.89084 42.90657 74.93965 43.08914 74.98776 43.27173 75.03607 43.45432 75.08498 43.63689 75.13371 43.81949 75.18262 44.00206 75.23175 44.18463 75.28098 44.36722 75.3304 44.5498 75.37961 44.73238 75.42986 44.91496 75.47969 45.09755 75.5295 45.28012 75.57983 45.4627 75.63039 45.64528 75.68079 45.82788 75.73195 46.01045 75.78236 46.19302 75.83412 46.37563 75.88484 46.5582 75.93651 46.74077 75.98804 46.92336 76.03987 47.10594 76.09193 47.28851 76.14378 47.4711 76.19632 47.65369 76.24878 47.83626 76.30151 48.01884 76.35468 48.20142 76.40773 48.38402 76.461 48.56659 76.51425 48.74916 76.56953 48.93176 76.6229 49.11433 76.67664 49.2969 76.73203 49.47949 76.78578 49.66208 76.84106 49.84465 76.89594 50.02724 76.95068 50.20982 77.00677 50.3924 77.06155 50.57498 77.11713 50.75755 77.1739 50.94016 77.22958 51.12273 77.28719 51.3053 77.34315 51.4879 77.39995 51.67047 77.45773 51.85304 77.51514 52.03563 77.57263 52.21822 77.63083 52.40079 77.68893 52.58337 77.74814 52.76595 77.80675 52.94855 77.86543 53.13112 77.92517 53.31369 77.98456 53.49629 78.04428 53.67886 78.1049 53.86143 78.1654 54.04402 78.22592 54.22661 78.28726 54.40918 78.34839 54.59177 78.41022 54.77435 78.47224 54.95692 78.53429 55.13951 78.59692 55.32208 78.65985 55.50468 78.7234 55.68726 78.78674 55.86983 78.85059 56.05243 78.91504 56.235 78.9797 56.41757 79.04436 56.60016 79.10992 56.78275 79.17567 56.96532 79.24194 57.1479 79.30832 57.33049 79.375 57.51306 79.44217 57.69565 79.50995 57.87822 79.57814 58.06082 79.64671 58.2434 79.7155 58.42596 79.78479 58.60857 79.8547 58.79114 79.9248 58.97371 79.9956 59.1563 80.06673 59.33888 80.13844 59.52145 80.21056 59.70404 80.28328 59.88663 80.35641 60.0692 80.42984 60.25179 80.50418 60.43436 80.57881 60.61696 80.65405 60.79953 80.72809 60.9821 80.80475 61.1647 80.88141 61.34727 80.95908 61.52985 81.03685 61.71243 81.11551 61.89502 81.1952 62.07759 81.2759 62.26018 81.35669 62.44276 81.43819 62.62535 81.52008 62.80792 81.60391 62.9905 81.68762 63.1731 81.77226 63.35567 81.858 63.53824 81.94382 63.72084 82.03046 63.90341 82.11832 64.08598 82.20708 64.26857 82.29684 64.45116 82.38763 64.63373 82.47961 64.81631 82.57242 64.99889 82.66612 65.18149 82.76093 65.36406 82.85675 65.54663 82.95358 65.72923 83.05254 65.9118 83.15138 66.09438 83.25325 66.27696 83.35513 66.45955 83.45921 66.64212 83.56403 66.8247 83.67093 67.0073 83.77997 67.18987 83.89001 67.37245 84.00186 67.55502 84.11597 67.73763 84.23195 67.9202 84.35005 68.10277 84.4701 68.28537 84.59213 68.46794 84.71721 68.65051 84.8453 68.8331 84.97552 69.01569 85.10866 69.19826 85.24594 69.38084 85.38504 69.56343 85.52937 69.746 85.67674 69.92859 85.82915 70.11116 85.98639 70.29376 86.1489 70.47633 86.31732 70.6589 86.49283 70.8415 86.6745 71.02408 86.86604 71.20665 87.06586 71.38924 87.27888 71.57182 87.50482 71.7544 87.74689 71.93698 88.01135 72.11957 88.30286 72.30215 88.6337 72.48473 89.02728 72.6673 89.53876 72.8499 90.68626"/>
<path transform="matrix(-.98598966,.16664,.166635,.98601916,3.2237006,96.92295)" stroke-width="1.19553" stroke-linecap="round" stroke-linejoin="round" fill="none" stroke="#000000" d="M-2.18182 2.9091C-2 1.81818 0 .18181 .54544 0 0-.18181-2-1.81818-2.18182-2.9091"/>
<path transform="matrix(1.00003,0,0,-1.00006,2.0964967,163.19083)" stroke-width="1.49442" stroke-linecap="butt" stroke-miterlimit="10" stroke-linejoin="miter" fill="none" stroke="#000000" d="M72.8509 90.57687V90.98033"/>
</g>
<use data-text="x" xlink:href="#font_4_1" transform="matrix(9.962899,0,0,-9.963197,187.19205,78.95978)"/>
<use data-text="y" xlink:href="#font_4_2" transform="matrix(9.962899,0,0,-9.963197,102.77552,9.583603)"/>
</svg>
