<svg xmlns="http://www.w3.org/2000/svg" xmlns:xlink="http://www.w3.org/1999/xlink" xmlns:inkscape="http://www.inkscape.org/namespaces/inkscape" version="1.1" width="198" height="165" viewBox="0 0 198 165">
<defs>
<path id="font_1_1" d="M.6589966 .23046875C.6759949 .23046875 .69400027 .23046875 .69400027 .25045777 .69400027 .27046205 .6759949 .27046205 .6589966 .27046205H.117996219C.100997928 .27046205 .08299255 .27046205 .08299255 .25045777 .08299255 .23046875 .100997928 .23046875 .117996219 .23046875H.6589966Z"/>
<path id="font_2_3" d="M.13198853 .327713V.35173036C.13198853 .6047821 .2559967 .64100649 .30699159 .64100649 .33099366 .64100649 .37298585 .634964 .394989 .6007538 .37998963 .6007538 .33999635 .6007538 .33999635 .5557556 .33999635 .524765 .3639984 .5097656 .38598634 .5097656 .4019928 .5097656 .43199159 .51875308 .43199159 .5577545 .43199159 .6178589 .3880005 .6660156 .30499269 .6660156 .1769867 .6660156 .041992189 .5367584 .041992189 .31570436 .041992189 .048553468 .1579895-.022460938 .25099183-.022460938 .3619995-.022460938 .45700074 .07156372 .45700074 .2036438 .45700074 .33070375 .36799623 .4267578 .25698854 .4267578 .18899536 .4267578 .1519928 .37573243 .13198853 .327713M.25099183 .0055389406C.18798828 .0055389406 .1579895 .06556702 .1519928 .080566409 .13398743 .127594 .13398743 .2076416 .13398743 .22564698 .13398743 .30369569 .1659851 .40374757 .2559967 .40374757 .27198792 .40374757 .31799317 .40374757 .34899903 .34172059 .36698915 .30470277 .36698915 .2536621 .36698915 .20463562 .36698915 .15661621 .36698915 .10658264 .34999085 .0705719 .31999208 .010528564 .27398683 .0055389406 .25099183 .0055389406Z"/>
<path id="font_2_2" d="M.2939911 .16503906V.07800293C.2939911 .041992189 .2919922 .0309906 .21798706 .0309906H.19699097V0C.23799134 .0029907227 .2899933 .0029907227 .33198548 .0029907227 .37399293 .0029907227 .4269867 .0029907227 .46798707 0V.0309906H.44699098C.37298585 .0309906 .37098695 .041992189 .37098695 .07800293V.16503906H.47099305V.19602967H.37098695V.65075686C.37098695 .67074587 .37098695 .6767578 .35499574 .6767578 .34599305 .6767578 .34298707 .6767578 .33499146 .66474917L.027999878 .19602967V.16503906H.2939911M.2999878 .19602967H.055999757L.2999878 .5688019V.19602967Z"/>
<path id="font_2_1" d="M.1269989 .07699585 .23298645 .18003845C.3889923 .31811524 .44898988 .3721466 .44898988 .47216798 .44898988 .5860901 .35899354 .6660156 .23699951 .6660156 .12399292 .6660156 .049987794 .57411196 .049987794 .48516847 .049987794 .4291687 .099990848 .4291687 .102996829 .4291687 .11999512 .4291687 .15499878 .44117738 .15499878 .48217774 .15499878 .5081787 .13699341 .5341797 .101989749 .5341797 .09399414 .5341797 .09199524 .5341797 .08898926 .5331726 .11199951 .59806826 .1659851 .63500979 .22399903 .63500979 .31498719 .63500979 .35798646 .5541382 .35798646 .47216798 .35798646 .39215089 .30799867 .31311036 .25299073 .25108338L.06098938 .036987306C.049987794 .025985718 .049987794 .023986817 .049987794 0H.42099L.44898988 .17404175H.42399598C.4189911 .14402771 .4119873 .1000061 .4019928 .084991458 .394989 .07699585 .32899476 .07699585 .30699159 .07699585H.1269989Z"/>
<clipPath id="clip_3">
<path transform="matrix(1.00003,0,0,-1.00006,2.0964967,163.19083)" d="M0 0H194.26912V161.3842H0Z"/>
</clipPath>
<path id="font_4_1" d="M.33399964 .30233766C.33999635 .32835389 .36299134 .42037965 .43299867 .42037965 .43798829 .42037965 .46199037 .42037965 .48298646 .40734864 .45498658 .402359 .43499757 .37734986 .43499757 .35334779 .43499757 .33735658 .44599916 .31835938 .47299195 .31835938 .49499513 .31835938 .5269928 .3363495 .5269928 .37635804 .5269928 .42837525 .46798707 .4423828 .43399049 .4423828 .37599183 .4423828 .34098817 .38935853 .32899476 .36634828 .3039856 .43237306 .25 .4423828 .22099304 .4423828 .116989139 .4423828 .05999756 .3133545 .05999756 .28834535 .05999756 .27833558 .069992069 .27833558 .07199097 .27833558 .07998657 .27833558 .08299255 .28033448 .084991458 .28933717 .11898804 .39535523 .18499756 .42037965 .21899414 .42037965 .23799134 .42037965 .272995 .4113617 .272995 .35334779 .272995 .32235719 .2559967 .25532533 .21899414 .11528015 .20298767 .053268434 .16799927 .011245728 .12399292 .011245728 .117996219 .011245728 .09498596 .011245728 .07398987 .024276734 .09899902 .029266358 .12098694 .05027771 .12098694 .07827759 .12098694 .105270389 .09899902 .11328125 .083999637 .11328125 .053985597 .11328125 .0289917 .08728027 .0289917 .055267335 .0289917 .009246826 .07899475-.0107421879 .12298584-.0107421879 .18899536-.0107421879 .22499085 .059280397 .22799683 .0652771 .23999024 .028274537 .27598573-.0107421879 .33599855-.0107421879 .43899537-.0107421879 .49598695 .118270877 .49598695 .14328003 .49598695 .1532898 .4869995 .1532898 .48399354 .1532898 .47499085 .1532898 .47299195 .14929199 .47099305 .14228821 .43798829 .03527832 .36999513 .011245728 .33799745 .011245728 .29899598 .011245728 .2829895 .043273927 .2829895 .07727051 .2829895 .09927368 .2889862 .121276859 .2999878 .16529846L.33399964 .30233766Z"/>
<path id="font_4_2" d="M.48599244 .38136292C.48999024 .39537049 .48999024 .39736939 .48999024 .40437318 .48999024 .42237855 .47599793 .43138124 .46099855 .43138124 .45098878 .43138124 .43499757 .42536927 .42599488 .41036988 .42399598 .405365 .41600038 .37435914 .4119873 .35635377 .40499879 .33035279 .397995 .30334474 .3919983 .27633668L.34700013 .09628296C.34298707 .08126831 .2999878 .011245728 .23399353 .011245728 .18299866 .011245728 .17199707 .055267335 .17199707 .0922699 .17199707 .1382904 .18899536 .20030213 .22299195 .28833009 .23899842 .3293457 .24299622 .3403473 .24299622 .36035157 .24299622 .405365 .21099854 .4423828 .16099549 .4423828 .06599426 .4423828 .0289917 .29733277 .0289917 .28833009 .0289917 .27833558 .038986207 .27833558 .040985109 .27833558 .050994874 .27833558 .051986696 .28033448 .056991579 .29634095 .083999637 .3903656 .12399292 .42037965 .1579895 .42037965 .1659851 .42037965 .18299866 .42037965 .18299866 .3883667 .18299866 .36335755 .17298889 .3373413 .1659851 .31834413 .12599182 .21231079 .10798645 .1552887 .10798645 .10827637 .10798645 .019256592 .17098999-.0107421879 .22999573-.0107421879 .2689972-.0107421879 .30299378 .0062561037 .33099366 .03425598 .31799317-.017745972 .30599977-.06674194 .2659912-.11973572 .23999024-.15385437 .20199585-.18309021 .1559906-.18309021 .14199829-.18309021 .09700012-.18005371 .07998657-.14074707 .09599304-.14074707 .10899353-.14074707 .12298584-.1287384 .1329956-.11973572 .14299011-.10673523 .14299011-.08773804 .14299011-.056747438 .115997318-.052734376 .10598755-.052734376 .08299255-.052734376 .049987794-.068740848 .049987794-.11773682 .049987794-.16796875 .09399414-.20507813 .1559906-.20507813 .25898744-.20507813 .3619995-.11373901 .3899994-.00074768069L.48599244 .38136292Z"/>
</defs>
<path transform="matrix(1.00003,0,0,-1.00006,2.0964967,163.19083)" stroke-width=".3985" stroke-linecap="butt" stroke-miterlimit="10" stroke-linejoin="miter" fill="none" stroke="#404040" d="M0 0H194.26912V161.3842H0Z"/>
<path transform="matrix(1.00003,0,0,-1.00006,2.0964967,163.19083)" stroke-width=".3985" stroke-linecap="butt" stroke-miterlimit="10" stroke-linejoin="miter" fill="none" stroke="#bfbfbf" d="M12.14182 0V161.3842M36.42545 0V161.3842M60.70909 0V161.3842M84.99274 0V161.3842M109.27637 0V161.3842M133.56002 0V161.3842M157.84366 0V161.3842M182.12729 0V161.3842"/>
<path transform="matrix(1.00003,0,0,-1.00006,2.0964967,163.19083)" stroke-width=".3985" stroke-linecap="butt" stroke-miterlimit="10" stroke-linejoin="miter" fill="none" stroke="#bfbfbf" d="M24.28363 0V161.3842M48.56728 0V161.3842M72.8509 0V161.3842M121.4182 0V161.3842M145.70183 0V161.3842M169.98548 0V161.3842"/>
<path transform="matrix(1.00003,0,0,-1.00006,2.0964967,163.19083)" stroke-width=".3985" stroke-linecap="butt" stroke-miterlimit="10" stroke-linejoin="miter" fill="none" stroke="#bfbfbf" d="M0 10.0865H194.26912M0 30.25954H194.26912M0 50.43256H194.26912M0 70.60558H194.26912M0 90.77861H194.26912M0 110.95163H194.26912M0 131.12467H194.26912M0 151.29769H194.26912"/>
<path transform="matrix(1.00003,0,0,-1.00006,2.0964967,163.19083)" stroke-width=".3985" stroke-linecap="butt" stroke-miterlimit="10" stroke-linejoin="miter" fill="none" stroke="#bfbfbf" d="M0 20.17302H194.26912M0 40.34604H194.26912M0 60.51907H194.26912M0 100.86511H194.26912M0 121.03815H194.26912M0 141.21117H194.26912"/>
<path transform="matrix(1.00003,0,0,-1.00006,2.0964967,163.19083)" stroke-width=".19925" stroke-linecap="butt" stroke-miterlimit="10" stroke-linejoin="miter" fill="none" stroke="#7f807f" d="M12.14182 79.27461V82.10957M36.42545 79.27461V82.10957M60.70909 79.27461V82.10957M84.99274 79.27461V82.10957M109.27637 79.27461V82.10957M133.56002 79.27461V82.10957M157.84366 79.27461V82.10957M182.12729 79.27461V82.10957"/>
<path transform="matrix(1.00003,0,0,-1.00006,2.0964967,163.19083)" stroke-width=".19925" stroke-linecap="butt" stroke-miterlimit="10" stroke-linejoin="miter" fill="none" stroke="#7f807f" d="M24.28363 78.56609V82.81808M48.56728 78.56609V82.81808M72.8509 78.56609V82.81808M121.4182 78.56609V82.81808M145.70183 78.56609V82.81808M169.98548 78.56609V82.81808"/>
<path transform="matrix(1.00003,0,0,-1.00006,2.0964967,163.19083)" stroke-width=".19925" stroke-linecap="butt" stroke-miterlimit="10" stroke-linejoin="miter" fill="none" stroke="#7f807f" d="M95.7171 10.0865H98.552M95.7171 30.25954H98.552M95.7171 50.43256H98.552M95.7171 70.60558H98.552M95.7171 90.77861H98.552M95.7171 110.95163H98.552M95.7171 131.12467H98.552M95.7171 151.29769H98.552"/>
<path transform="matrix(1.00003,0,0,-1.00006,2.0964967,163.19083)" stroke-width=".19925" stroke-linecap="butt" stroke-miterlimit="10" stroke-linejoin="miter" fill="none" stroke="#7f807f" d="M95.0086 20.17302H99.26048M95.0086 40.34604H99.26048M95.0086 60.51907H99.26048M95.0086 100.86511H99.26048M95.0086 121.03815H99.26048M95.0086 141.21117H99.26048"/>
<path transform="matrix(1.00003,0,0,-1.00006,2.0964967,163.19083)" stroke-width=".3985" stroke-linecap="butt" stroke-miterlimit="10" stroke-linejoin="miter" fill="none" stroke="#000000" d="M0 80.6921H192.2766"/>
<path transform="matrix(1.00003,0,0,-1.00006,194.37888,82.49389)" d="M1.99252 0-1.19551 1.59401 0 0-1.19551-1.59401"/>
<path transform="matrix(1.00003,0,0,-1.00006,2.0964967,163.19083)" stroke-width=".3985" stroke-linecap="butt" stroke-miterlimit="10" stroke-linejoin="miter" fill="none" stroke="#000000" d="M97.13455 0V159.39168"/>
<path transform="matrix(0,-1.00006,-1.00003,-0,99.23396,3.7895966)" d="M1.99252 0-1.19551 1.59401 0 0-1.19551-1.59401"/>
<use data-text="&#x2212;" xlink:href="#font_1_1" transform="matrix(9.962899,0,0,-9.963197,20.016037,94.560718)"/>
<use data-text="6" xlink:href="#font_2_3" transform="matrix(9.962899,0,0,-9.963197,27.765267,94.560718)"/>
<use data-text="&#x2212;" xlink:href="#font_1_1" transform="matrix(9.962899,0,0,-9.963197,44.299764,94.560718)"/>
<use data-text="4" xlink:href="#font_2_2" transform="matrix(9.962899,0,0,-9.963197,52.048994,94.560718)"/>
<use data-text="&#x2212;" xlink:href="#font_1_1" transform="matrix(9.962899,0,0,-9.963197,68.584499,94.560718)"/>
<use data-text="2" xlink:href="#font_2_1" transform="matrix(9.962899,0,0,-9.963197,76.333728,94.560718)"/>
<use data-text="2" xlink:href="#font_2_1" transform="matrix(9.962899,0,0,-9.963197,121.02707,94.560718)"/>
<use data-text="4" xlink:href="#font_2_2" transform="matrix(9.962899,0,0,-9.963197,145.3118,94.560718)"/>
<use data-text="6" xlink:href="#font_2_3" transform="matrix(9.962899,0,0,-9.963197,169.59653,94.560718)"/>
<use data-text="&#x2212;" xlink:href="#font_1_1" transform="matrix(9.962899,0,0,-9.963197,80.857868,145.81179)"/>
<use data-text="6" xlink:href="#font_2_3" transform="matrix(9.962899,0,0,-9.963197,88.60709,145.81179)"/>
<use data-text="&#x2212;" xlink:href="#font_1_1" transform="matrix(9.962899,0,0,-9.963197,80.857868,125.63757)"/>
<use data-text="4" xlink:href="#font_2_2" transform="matrix(9.962899,0,0,-9.963197,88.60709,125.63757)"/>
<use data-text="&#x2212;" xlink:href="#font_1_1" transform="matrix(9.962899,0,0,-9.963197,80.857868,105.46336)"/>
<use data-text="2" xlink:href="#font_2_1" transform="matrix(9.962899,0,0,-9.963197,88.60709,105.46336)"/>
<use data-text="2" xlink:href="#font_2_1" transform="matrix(9.962899,0,0,-9.963197,88.6061,65.52997)"/>
<use data-text="4" xlink:href="#font_2_2" transform="matrix(9.962899,0,0,-9.963197,88.6061,45.35576)"/>
<use data-text="6" xlink:href="#font_2_3" transform="matrix(9.962899,0,0,-9.963197,88.6061,25.18155)"/>
<g clip-path="url(#clip_3)">
<path transform="matrix(1.00003,0,0,-1.00006,2.0964967,163.19083)" stroke-width="1.49442" stroke-linecap="butt" stroke-miterlimit="10" stroke-linejoin="miter" fill="none" stroke="#000000" d="M72.8509 90.77861 73.15521 92.3756 73.45952 93.03647 73.76384 93.54492 74.06813 93.97269 74.37245 94.35004 74.67676 94.69005 74.98106 95.00385 75.28537 95.29535 75.58969 95.56969 75.894 95.82912 76.1983 96.07524 76.50261 96.31125 76.80693 96.53719 77.11122 96.75424 77.41554 96.96405 77.71985 97.16689 78.02415 97.36357 78.32846 97.55421 78.63277 97.73991 78.93709 97.92146 79.24138 98.09798 79.5457 98.26965 79.85 98.4381 80.15433 98.60251 80.45862 98.76399 80.76294 98.92235 81.06725 99.07758 81.37155 99.22908 81.67586 99.37936 81.98018 99.52673 82.28448 99.66986 82.58879 99.81308 82.8931 99.9533 83.1974 100.09158 83.50171 100.22684 83.80602 100.36108 84.11034 100.49313 84.41464 100.62444 84.71895 100.75244 85.02325 100.87772 85.32758 101.0032 85.63187 101.12695 85.93619 101.2493 86.2405 101.37054 86.54482 101.49026 86.8491 101.60847 87.15343 101.7255 87.45773 101.84138 87.76204 101.95586 88.06635 102.06964 88.37065 102.18211 88.67497 102.29306 88.97926 102.4033 89.28358 102.51224 89.58789 102.62057 89.89221 102.72789 90.1965 102.83359 90.50082 102.9393 90.80513 103.0435 91.10945 103.14668 91.41374 103.24945 91.71806 103.35124 92.02237 103.4521 92.32669 103.55246 92.63098 103.65161 92.9353 103.75046 93.23961 103.84871 93.5439 103.94524 93.84822 104.04166 94.15253 104.13718 94.45685 104.2325 94.76114 104.3276 95.06546 104.42061 95.36977 104.514 95.67409 104.6065 95.97838 104.6977 96.2827 104.78926 96.587 104.87955 96.89133 104.96971 97.19562 105.0605 97.49994 105.14946 97.80424 105.23763 98.10857 105.32587 98.41286 105.41313 98.71716 105.50006 99.02148 105.58641 99.32578 105.67194 99.6301 105.75757 99.9344 105.84201 100.23872 105.92673 100.54301 106.01074 100.84734 106.09386 101.15164 106.17737 101.45596 106.25978 101.76025 106.34178 102.06458 106.42339 102.36888 106.50488 102.6732 106.58537 102.9775 106.66638 103.28181 106.74625 103.58612 106.82564 103.89044 106.9049 104.19473 106.98369 104.49904 107.06236 104.80336 107.14055 105.10765 107.2184 105.41197 107.29558 105.71628 107.37202 106.0206 107.44919 106.32489 107.52502 106.62921 107.6014 106.93352 107.67703 107.23784 107.7524 107.54213 107.82681 107.84645 107.90196 108.15076 107.9758 108.45508 108.04984 108.75937 108.12357 109.06369 108.1971 109.368 108.26993 109.6723 108.34224 109.97661 108.41476 110.28091 108.48698 110.58524 108.5584 110.88953 108.63072 111.19385 108.70163 111.49815 108.77234 111.80246 108.84343 112.10677 108.91405 112.41109 108.98334 112.7154 109.05396 113.0197 109.12355 113.324 109.19244 113.62833 109.26244 113.93262 109.33092 114.23694 109.3988 114.54124 109.46669 114.84555 109.53568 115.14986 109.60295 115.45416 109.67033 115.75848 109.738 116.06277 109.805 116.3671 109.87146 116.6714 109.93904 116.97572 110.00551 117.28001 110.07047 117.58434 110.13774 117.88864 110.20291 118.19295 110.26825 118.49725 110.33371 118.80157 110.39828 119.10588 110.46324 119.41019 110.52759 119.7145 110.59305 120.0188 110.65639 120.3231 110.72005 120.62741 110.7849 120.93173 110.84764 121.23604 110.91037 121.54034 110.97594 121.84465 111.03888 122.14897 111.10211 122.45326 111.16435 122.75758 111.22699 123.06189 111.28911 123.36621 111.35104 123.6705 111.41318 123.97482 111.47491 124.27913 111.53613 124.58344 111.59746 124.88774 111.65839 125.19205 111.71951 125.49635 111.77992 125.80066 111.84094 126.10498 111.90138 126.40929 111.96169 126.7136 112.0218 127.0179 112.08191 127.32222 112.14163 127.62651 112.20134 127.93083 112.26076 128.23514 112.31935 128.53946 112.37888 128.84375 112.43817 129.14807 112.49638 129.45238 112.55537 129.75669 112.61317 130.06099 112.67218 130.3653 112.73009 130.66962 112.78818 130.9739 112.84587 131.27823 112.90376 131.58254 112.96106 131.88684 113.01875 132.19115 113.07645 132.49547 113.13313 132.79978 113.19023 133.10408 113.2465 133.40839 113.3038 133.7127 113.36008 134.017 113.41597 134.32132 113.47235 134.62563 113.52873 134.92995 113.5845 135.23424 113.6407 135.53856 113.69626 135.84287 113.75104 136.14716 113.80722 136.45148 113.86229 136.75579 113.91777 137.0601 113.97263 137.3644 114.02802 137.66872 114.08168 137.97303 114.13675 138.27733 114.19121 138.58164 114.24557 138.88596 114.30025 139.19026 114.35391 139.49457 114.40778 139.79888 114.46173 140.1032 114.5164 140.40749 114.56935 140.7118 114.62282 141.01612 114.67699 141.3204 114.72963 141.62473 114.78288 141.92903 114.83594 142.23336 114.88779 142.53765 114.94185 142.84197 114.99481 143.14627 115.04675 143.45058 115.09929 143.75489 115.15115 144.0592 115.2038 144.36351 115.25615 144.66782 115.30737 144.97212 115.35944 145.27645 115.41096 145.58074 115.46281 145.88506 115.51436 146.18936 115.5664 146.49367 115.61713 146.79798 115.66888 147.10228 115.72012 147.4066 115.77097 147.71089 115.8224 148.01522 115.87283 148.31952 115.92346 148.62384 115.9741 148.92813 116.02534 149.23246 116.07475 149.53676 116.1252 149.84107 116.17635 150.14537 116.22586 150.44969 116.27629 150.754 116.32622 151.0583 116.37544 151.36261 116.42538 151.66692 116.4754 151.97122 116.52441 152.27553 116.57384 152.57985 116.62297 152.88416 116.6727 153.18846 116.72212 153.49277 116.77135 153.79709 116.81985 154.10138 116.86838 154.4057 116.91881 154.71 116.966 155.01432 117.01514 155.31862 117.06253 155.62294 117.11195 155.92725 117.16057 156.23155 117.20747 156.53586 117.2563 156.84017 117.3043 157.14447 117.35193 157.44878 117.40054 157.7531 117.44865 158.0574 117.49486 158.36171 117.54446 158.66602 117.59167 158.97034 117.63818 159.27463 117.68588 159.57895 117.73471 159.88326 117.7802 160.18758 117.82759 160.49187 117.8755 160.79619 117.9216 161.1005 117.96901 161.4048 118.01602 161.7091 118.0617 162.01342 118.10973 162.31774 118.15622 162.62203 118.2019 162.92635 118.24881 163.23065 118.29642 163.53496 118.341 163.83927 118.3878 164.14359 118.4342 164.44789 118.47879 164.7522 118.52498 165.0565 118.5732 165.36083 118.61687 165.66512 118.66316 165.96944 118.70715 166.27375 118.75334 166.57807 118.79994 166.88236 118.84431 167.18668 118.8893 167.49098 118.93591 167.79528 118.97978 168.0996 119.02568 168.4039 119.07138 168.7082 119.11494 169.01251 119.16064 169.31684 119.20662 169.62114 119.2493 169.92545 119.29529 170.22975 119.34209 170.53408 119.38626 170.83837 119.43074 171.14269 119.47534 171.44699 119.52032 171.75131 119.5645 172.0556 119.60837 172.35993 119.65295 172.66423 119.69621 172.96852 119.7402 173.27285 119.78459 173.57715 119.82886 173.88147 119.87244 174.18576 119.91582 174.49008 119.95969 174.79439 120.00325 175.0987 120.04694 175.403 120.09071 175.70732 120.13388 176.01163 120.17746 176.31594 120.22093 176.62024 120.2641 176.92456 120.30727 177.22885 120.35094 177.53318 120.3937 177.83748 120.43668 178.14179 120.47935 178.44609 120.52211 178.7504 120.56508 179.05472 120.60855 179.35901 120.65042 179.66333 120.69318 179.96764 120.73524 180.27196 120.7785 180.57625 120.82037 180.88057 120.86375 181.18488 120.90529 181.48918 120.94806 181.79349 120.99043 182.09781 121.03279 182.4021 121.07434 182.70642 121.11691 183.01073 121.15897 183.31504 121.20084 183.61934 121.24219 183.92365 121.28464 184.22797 121.3261 184.53226 121.36766 184.83658 121.40962 185.14089 121.45047 185.4452 121.49265 185.7495 121.5333 186.05382 121.57544 186.35813 121.6167 186.66243 121.65775 186.96674 121.6992 187.27106 121.74046 187.57537 121.78181 187.87967 121.82367 188.18398 121.86342 188.48828 121.90457 188.79259 121.94572 189.0969 121.98648 189.40122 122.02744 189.70552 122.06828 190.00983 122.10893 190.31414 122.14937 190.61846 122.19032 190.92275 122.23077 191.22707 122.27112 191.53137 122.31186 191.8357 122.35109 192.13999 122.39204 192.4443 122.4331 192.74861 122.47273 193.05292 122.5134 193.35723 122.55363 193.66153 122.59317 193.96585 122.63373 193.13709 122.5228"/>
<path transform="matrix(.9911298,-.13268796,-.13268398,-.99115946,195.23938,40.660699)" stroke-width="1.19553" stroke-linecap="round" stroke-linejoin="round" fill="none" stroke="#000000" d="M-2.18182 2.9091C-2 1.81818 0 .18181 .54544 0 0-.18181-2-1.81818-2.18182-2.9091"/>
<path transform="matrix(1.00003,0,0,-1.00006,2.0964967,163.19083)" stroke-width="1.49442" stroke-linecap="butt" stroke-miterlimit="10" stroke-linejoin="miter" fill="none" stroke="#000000" d="M72.8509 90.77861 73.15521 89.18161 73.45952 88.52074 73.76384 88.01227 74.06813 87.5845 74.37245 87.20715 74.67676 86.86716 74.98106 86.55336 75.28537 86.26186 75.58969 85.9875 75.894 85.72809 76.1983 85.48196 76.50261 85.24594 76.80693 85.02 77.11122 84.80295 77.41554 84.59315 77.71985 84.3903 78.02415 84.19362 78.32846 84.00298 78.63277 83.81729 78.93709 83.63573 79.24138 83.45921 79.5457 83.28754 79.85 83.11911 80.15433 82.9547 80.45862 82.7932 80.76294 82.63484 81.06725 82.47961 81.37155 82.32811 81.67586 82.17783 81.98018 82.03046 82.28448 81.88733 82.58879 81.74411 82.8931 81.60391 83.1974 81.46562 83.50171 81.33037 83.80602 81.19612 84.11034 81.06407 84.41464 80.93275 84.71895 80.80475 85.02325 80.67947 85.32758 80.554 85.63187 80.43024 85.93619 80.30788 86.2405 80.18666 86.54482 80.06693 86.8491 79.94872 87.15343 79.83171 87.45773 79.71582 87.76204 79.60132 88.06635 79.48755 88.37065 79.3751 88.67497 79.26414 88.97926 79.1539 89.28358 79.04495 89.58789 78.93663 89.89221 78.8293 90.1965 78.7236 90.50082 78.6179 90.80513 78.51372 91.10945 78.41052 91.41374 78.30772 91.71806 78.20596 92.02237 78.1051 92.32669 78.00473 92.63098 77.90558 92.9353 77.80675 93.23961 77.70851 93.5439 77.61197 93.84822 77.51553 94.15253 77.42001 94.45685 77.3247 94.76114 77.22958 95.06546 77.1366 95.36977 77.0432 95.67409 76.95068 95.97838 76.85953 96.2827 76.76793 96.587 76.67766 96.89133 76.58748 97.19562 76.49672 97.49994 76.40773 97.80424 76.31958 98.10857 76.23134 98.41286 76.14407 98.71716 76.05713 99.02148 75.97078 99.32578 75.88525 99.6301 75.79962 99.9344 75.7152 100.23872 75.63048 100.54301 75.54645 100.84734 75.46335 101.15164 75.37982 101.45596 75.29741 101.76025 75.21541 102.06458 75.1338 102.36888 75.0523 102.6732 74.97182 102.9775 74.89084 103.28181 74.81093 103.58612 74.73157 103.89044 74.65227 104.19473 74.57352 104.49904 74.49483 104.80336 74.41666 105.10765 74.33879 105.41197 74.26163 105.71628 74.18518 106.0206 74.10802 106.32489 74.03217 106.62921 73.95581 106.93352 73.88016 107.23784 73.80481 107.54213 73.73038 107.84645 73.65523 108.15076 73.5814 108.45508 73.50737 108.75937 73.43364 109.06369 73.36009 109.368 73.2873 109.6723 73.21495 109.97661 73.14244 110.28091 73.07022 110.58524 72.9988 110.88953 72.92648 111.19385 72.85556 111.49815 72.78487 111.80246 72.71376 112.10677 72.64314 112.41109 72.57385 112.7154 72.50325 113.0197 72.43365 113.324 72.36476 113.62833 72.29477 113.93262 72.22626 114.23694 72.1584 114.54124 72.09052 114.84555 72.02151 115.14986 71.95424 115.45416 71.88687 115.75848 71.81918 116.06277 71.75221 116.3671 71.68575 116.6714 71.61816 116.97572 71.5517 117.28001 71.48674 117.58434 71.41945 117.88864 71.3543 118.19295 71.28894 118.49725 71.22346 118.80157 71.15892 119.10588 71.09398 119.41019 71.02962 119.7145 70.96416 120.0188 70.9008 120.3231 70.83716 120.62741 70.77231 120.93173 70.70956 121.23604 70.64682 121.54034 70.58127 121.84465 70.51833 122.14897 70.45508 122.45326 70.39284 122.75758 70.33022 123.06189 70.26808 123.36621 70.20615 123.6705 70.14401 123.97482 70.08229 124.27913 70.02107 124.58344 69.95973 124.88774 69.8988 125.19205 69.83768 125.49635 69.77727 125.80066 69.71625 126.10498 69.65582 126.40929 69.5955 126.7136 69.53539 127.0179 69.47527 127.32222 69.41557 127.62651 69.35585 127.93083 69.29645 128.23514 69.23784 128.53946 69.17834 128.84375 69.11902 129.14807 69.06084 129.45238 69.00182 129.75669 68.94403 130.06099 68.88503 130.3653 68.82712 130.66962 68.76901 130.9739 68.71132 131.27823 68.65343 131.58254 68.59613 131.88684 68.53845 132.19115 68.48076 132.49547 68.42407 132.79978 68.36697 133.10408 68.31067 133.40839 68.25339 133.7127 68.19711 134.017 68.14124 134.32132 68.08485 134.62563 68.02849 134.92995 67.97269 135.23424 67.9165 135.53856 67.86095 135.84287 67.80615 136.14716 67.74998 136.45148 67.69492 136.75579 67.63943 137.0601 67.58455 137.3644 67.52919 137.66872 67.47552 137.97303 67.42044 138.27733 67.36598 138.58164 67.31161 138.88596 67.25694 139.19026 67.20331 139.49457 67.14943 139.79888 67.09547 140.1032 67.0408 140.40749 66.98784 140.7118 66.93439 141.01612 66.88022 141.3204 66.82758 141.62473 66.77432 141.92903 66.72127 142.23336 66.6694 142.53765 66.61536 142.84197 66.56241 143.14627 66.51045 143.45058 66.45789 143.75489 66.40605 144.0592 66.35341 144.36351 66.30107 144.66782 66.2498 144.97212 66.19777 145.27645 66.14624 145.58074 66.09438 145.88506 66.04283 146.18936 65.9908 146.49367 65.94005 146.79798 65.88832 147.10228 65.83707 147.4066 65.78624 147.71089 65.7348 148.01522 65.68437 148.31952 65.63373 148.62384 65.58308 148.92813 65.53186 149.23246 65.48244 149.53676 65.43199 149.84107 65.38086 150.14537 65.33133 150.44969 65.28088 150.754 65.23097 151.0583 65.18175 151.36261 65.13182 151.66692 65.0818 151.97122 65.03278 152.27553 64.98334 152.57985 64.93423 152.88416 64.8845 153.18846 64.8351 153.49277 64.78586 153.79709 64.73735 154.10138 64.68883 154.4057 64.6384 154.71 64.59119 155.01432 64.54205 155.31862 64.49466 155.62294 64.44524 155.92725 64.39662 156.23155 64.34972 156.53586 64.3009 156.84017 64.25288 157.14447 64.20528 157.44878 64.15666 157.7531 64.10855 158.0574 64.06235 158.36171 64.01273 158.66602 63.96553 158.97034 63.91902 159.27463 63.87132 159.57895 63.8225 159.88326 63.77701 160.18758 63.72958 160.49187 63.68169 160.79619 63.63559 161.1005 63.58818 161.4048 63.54118 161.7091 63.4955 162.01342 63.44748 162.31774 63.40097 162.62203 63.35529 162.92635 63.3084 163.23065 63.26077 163.53496 63.21619 163.83927 63.16939 164.14359 63.123 164.44789 63.07841 164.7522 63.03221 165.0565 62.98401 165.36083 62.94034 165.66512 62.89403 165.96944 62.85007 166.27375 62.80385 166.57807 62.75726 166.88236 62.71288 167.18668 62.6679 167.49098 62.62129 167.79528 62.57742 168.0996 62.53152 168.4039 62.48584 168.7082 62.44226 169.01251 62.39658 169.31684 62.35057 169.62114 62.3079 169.92545 62.26192 170.22975 62.2151 170.53408 62.17093 170.83837 62.12645 171.14269 62.08186 171.44699 62.03688 171.75131 61.9927 172.0556 61.9488 172.35993 61.90424 172.66423 61.86096 172.96852 61.817 173.27285 61.77261 173.57715 61.72833 173.88147 61.68475 174.18576 61.64139 174.49008 61.59752 174.79439 61.55394 175.0987 61.51025 175.403 61.46649 175.70732 61.42331 176.01163 61.37975 176.31594 61.33627 176.62024 61.29309 176.92456 61.24992 177.22885 61.20625 177.53318 61.1635 177.83748 61.12051 178.14179 61.07785 178.44609 61.03508 178.7504 60.99211 179.05472 60.94864 179.35901 60.90678 179.66333 60.86401 179.96764 60.82195 180.27196 60.77869 180.57625 60.73682 180.88057 60.69345 181.18488 60.6519 181.48918 60.60913 181.79349 60.56677 182.09781 60.5244 182.4021 60.48285 182.70642 60.44029 183.01073 60.39822 183.31504 60.35637 183.61934 60.31502 183.92365 60.27255 184.22797 60.23108 184.53226 60.18953 184.83658 60.14758 185.14089 60.10674 185.4452 60.06456 185.7495 60.02391 186.05382 59.98175 186.35813 59.9405 186.66243 59.89943 186.96674 59.858 187.27106 59.81674 187.57537 59.77538 187.87967 59.73354 188.18398 59.69377 188.48828 59.65263 188.79259 59.61148 189.0969 59.57072 189.40122 59.52977 189.70552 59.48892 190.00983 59.44827 190.31414 59.40784 190.61846 59.36688 190.92275 59.32643 191.22707 59.28609 191.53137 59.24535 191.8357 59.2061 192.13999 59.16515 192.4443 59.1241 192.74861 59.08446 193.05292 59.04381 193.35723 59.00356 193.66153 58.96404 193.96585 58.92348 193.13709 59.03445"/>
<path transform="matrix(.9911298,.13272795,.13272399,-.99115946,195.23938,104.15283)" stroke-width="1.19553" stroke-linecap="round" stroke-linejoin="round" fill="none" stroke="#000000" d="M-2.18182 2.9091C-2 1.81818 0 .18181 .54544 0 0-.18181-2-1.81818-2.18182-2.9091"/>
<path transform="matrix(1.00003,0,0,-1.00006,2.0964967,163.19083)" stroke-width="1.49442" stroke-linecap="butt" stroke-miterlimit="10" stroke-linejoin="miter" fill="none" stroke="#000000" d="M72.8509 90.57687V90.98033"/>
<path transform="matrix(1.00003,0,0,-1.00006,2.0964967,163.19083)" stroke-width=".99628" stroke-linecap="butt" stroke-miterlimit="10" stroke-linejoin="miter" fill="none" stroke="#7f807f" d="M121.4182 160.55229V.8319"/>
<path transform="matrix(0,-1.00006,-1.00003,-0,123.51834,2.6289063)" stroke-width=".79701" stroke-linecap="round" stroke-linejoin="round" fill="none" stroke="#7f807f" d="M-1.73352 2.31136C-1.58905 1.4446 0 .14444 .43336 0 0-.14444-1.58905-1.4446-1.73352-2.31136"/>
<path transform="matrix(0,1.00006,1.00003,0,123.51834,162.35887)" stroke-width=".79701" stroke-linecap="round" stroke-linejoin="round" fill="none" stroke="#7f807f" d="M-1.73352 2.31136C-1.58905 1.4446 0 .14444 .43336 0 0-.14444-1.58905-1.4446-1.73352-2.31136"/>
<path transform="matrix(1.00003,0,0,-1.00006,2.0964967,163.19083)" stroke-width=".24907" stroke-linecap="butt" stroke-miterlimit="10" stroke-linejoin="miter" fill="none" stroke="#7f807f" d="M121.4182 110.95163"/>
<path transform="matrix(1.00003,0,0,-1.00006,2.0964967,163.19083)" stroke-width=".24907" stroke-linecap="butt" stroke-miterlimit="10" stroke-linejoin="miter" fill="none" stroke="#7f807f" d="M121.4182 70.60558"/>
</g>
<path transform="matrix(1.00003,0,0,-1.00006,2.0964967,163.19083)" d="M123.41075 110.95163C123.41075 112.05211 122.51866 112.94418 121.4182 112.94418 120.31772 112.94418 119.42564 112.05211 119.42564 110.95163 119.42564 109.85117 120.31772 108.95908 121.4182 108.95908 122.51866 108.95908 123.41075 109.85117 123.41075 110.95163ZM121.4182 110.95163" fill="#7f807f"/>
<path transform="matrix(1.00003,0,0,-1.00006,2.0964967,163.19083)" stroke-width=".24907" stroke-linecap="butt" stroke-miterlimit="10" stroke-linejoin="miter" fill="none" stroke="#7f807f" d="M123.41075 110.95163C123.41075 112.05211 122.51866 112.94418 121.4182 112.94418 120.31772 112.94418 119.42564 112.05211 119.42564 110.95163 119.42564 109.85117 120.31772 108.95908 121.4182 108.95908 122.51866 108.95908 123.41075 109.85117 123.41075 110.95163ZM121.4182 110.95163"/>
<path transform="matrix(1.00003,0,0,-1.00006,2.0964967,163.19083)" stroke-width=".24907" stroke-linecap="butt" stroke-miterlimit="10" stroke-linejoin="miter" fill="none" stroke="#7f807f" d=""/>
<path transform="matrix(1.00003,0,0,-1.00006,2.0964967,163.19083)" d="M123.41075 70.60558C123.41075 71.70605 122.51866 72.59813 121.4182 72.59813 120.31772 72.59813 119.42564 71.70605 119.42564 70.60558 119.42564 69.50511 120.31772 68.61302 121.4182 68.61302 122.51866 68.61302 123.41075 69.50511 123.41075 70.60558ZM121.4182 70.60558" fill="#7f807f"/>
<path transform="matrix(1.00003,0,0,-1.00006,2.0964967,163.19083)" stroke-width=".24907" stroke-linecap="butt" stroke-miterlimit="10" stroke-linejoin="miter" fill="none" stroke="#7f807f" d="M123.41075 70.60558C123.41075 71.70605 122.51866 72.59813 121.4182 72.59813 120.31772 72.59813 119.42564 71.70605 119.42564 70.60558 119.42564 69.50511 120.31772 68.61302 121.4182 68.61302 122.51866 68.61302 123.41075 69.50511 123.41075 70.60558ZM121.4182 70.60558"/>
<path transform="matrix(1.00003,0,0,-1.00006,2.0964967,163.19083)" stroke-width=".24907" stroke-linecap="butt" stroke-miterlimit="10" stroke-linejoin="miter" fill="none" stroke="#7f807f" d=""/>
<use data-text="x" xlink:href="#font_4_1" transform="matrix(9.962899,0,0,-9.963197,187.19205,78.95978)"/>
<use data-text="y" xlink:href="#font_4_2" transform="matrix(9.962899,0,0,-9.963197,102.77552,9.583603)"/>
</svg>
