<svg xmlns="http://www.w3.org/2000/svg" xmlns:xlink="http://www.w3.org/1999/xlink" xmlns:inkscape="http://www.inkscape.org/namespaces/inkscape" version="1.1" width="198" height="165" viewBox="0 0 198 165">
<defs>
<path id="font_1_1" d="M.6589966 .23046875C.6759949 .23046875 .69400027 .23046875 .69400027 .25045777 .69400027 .27046205 .6759949 .27046205 .6589966 .27046205H.117996219C.100997928 .27046205 .08299255 .27046205 .08299255 .25045777 .08299255 .23046875 .100997928 .23046875 .117996219 .23046875H.6589966Z"/>
<path id="font_2_3" d="M.13198853 .327713V.35173036C.13198853 .6047821 .2559967 .64100649 .30699159 .64100649 .33099366 .64100649 .37298585 .634964 .394989 .6007538 .37998963 .6007538 .33999635 .6007538 .33999635 .5557556 .33999635 .524765 .3639984 .5097656 .38598634 .5097656 .4019928 .5097656 .43199159 .51875308 .43199159 .5577545 .43199159 .6178589 .3880005 .6660156 .30499269 .6660156 .1769867 .6660156 .041992189 .5367584 .041992189 .31570436 .041992189 .048553468 .1579895-.022460938 .25099183-.022460938 .3619995-.022460938 .45700074 .07156372 .45700074 .2036438 .45700074 .33070375 .36799623 .4267578 .25698854 .4267578 .18899536 .4267578 .1519928 .37573243 .13198853 .327713M.25099183 .0055389406C.18798828 .0055389406 .1579895 .06556702 .1519928 .080566409 .13398743 .127594 .13398743 .2076416 .13398743 .22564698 .13398743 .30369569 .1659851 .40374757 .2559967 .40374757 .27198792 .40374757 .31799317 .40374757 .34899903 .34172059 .36698915 .30470277 .36698915 .2536621 .36698915 .20463562 .36698915 .15661621 .36698915 .10658264 .34999085 .0705719 .31999208 .010528564 .27398683 .0055389406 .25099183 .0055389406Z"/>
<path id="font_2_2" d="M.2939911 .16503906V.07800293C.2939911 .041992189 .2919922 .0309906 .21798706 .0309906H.19699097V0C.23799134 .0029907227 .2899933 .0029907227 .33198548 .0029907227 .37399293 .0029907227 .4269867 .0029907227 .46798707 0V.0309906H.44699098C.37298585 .0309906 .37098695 .041992189 .37098695 .07800293V.16503906H.47099305V.19602967H.37098695V.65075686C.37098695 .67074587 .37098695 .6767578 .35499574 .6767578 .34599305 .6767578 .34298707 .6767578 .33499146 .66474917L.027999878 .19602967V.16503906H.2939911M.2999878 .19602967H.055999757L.2999878 .5688019V.19602967Z"/>
<path id="font_2_1" d="M.1269989 .07699585 .23298645 .18003845C.3889923 .31811524 .44898988 .3721466 .44898988 .47216798 .44898988 .5860901 .35899354 .6660156 .23699951 .6660156 .12399292 .6660156 .049987794 .57411196 .049987794 .48516847 .049987794 .4291687 .099990848 .4291687 .102996829 .4291687 .11999512 .4291687 .15499878 .44117738 .15499878 .48217774 .15499878 .5081787 .13699341 .5341797 .101989749 .5341797 .09399414 .5341797 .09199524 .5341797 .08898926 .5331726 .11199951 .59806826 .1659851 .63500979 .22399903 .63500979 .31498719 .63500979 .35798646 .5541382 .35798646 .47216798 .35798646 .39215089 .30799867 .31311036 .25299073 .25108338L.06098938 .036987306C.049987794 .025985718 .049987794 .023986817 .049987794 0H.42099L.44898988 .17404175H.42399598C.4189911 .14402771 .4119873 .1000061 .4019928 .084991458 .394989 .07699585 .32899476 .07699585 .30699159 .07699585H.1269989Z"/>
<clipPath id="clip_3">
<path transform="matrix(1.00003,0,0,-1.00006,2.0964967,163.19083)" d="M0 0H194.26912V161.3842H0Z"/>
</clipPath>
<path id="font_4_28" d="M.6349945 .090148929V.14515686H.59298709V.09214783C.59298709 .08213806 .59298709 .038131715 .5529938 .038131715 .5130005 .038131715 .5130005 .08213806 .5130005 .09214783V.2972107C.5130005 .39323426 .4119873 .4482422 .28799439 .4482422 .22698975 .4482422 .11099243 .4452362 .11099243 .36021424 .11099243 .32321168 .13899231 .30619813 .1639862 .30619813 .19099427 .30619813 .21699524 .32521058 .21699524 .3592224 .21699524 .3832245 .20298767 .39822389 .19400025 .40423585 .22698975 .41523744 .2749939 .41523744 .28599549 .41523744 .37098695 .41523744 .42399598 .3682251 .42399598 .2962036V.27020265C.32699586 .26519776 .272995 .26219178 .19599915 .23518372 .12998963 .21217346 .07199097 .17016602 .07199097 .105148319 .07199097 .011245728 .18798828-.0107421879 .2679901-.0107421879 .34498597-.0107421879 .40499879 .020248414 .43598939 .071243289 .43998719 .036132814 .46299745-.005859375 .5139923-.005859375 .5209961-.005859375 .6349945-.005859375 .6349945 .09013367V.090148929M.42399598 .14213562C.42399598 .03224182 .3039856 .022247315 .2789917 .022247315 .21998596 .022247315 .1639862 .053253175 .1639862 .10523987 .1639862 .13824463 .18499756 .23022461 .42399598 .24023438V.14213562Z"/>
<path id="font_4_35" d="M.6769867 .2163086C.6769867 .3363495 .56599429 .4423828 .4149933 .4423828 .36099244 .4423828 .2979889 .42837525 .24398804 .3863678V.69433596L.07598877 .68333438V.639328C.1499939 .639328 .15899658 .6323242 .15899658 .5833435V.00024414063H.20098877C.20899964 .013244629 .21699524 .027252198 .22399903 .040252687 .22698975 .04626465 .23098755 .053253175 .23498535 .059265138 .27799989 .013244629 .33898927-.0107421879 .4019928-.0107421879 .55400088-.0107421879 .6769867 .091278079 .6769867 .2163086M.57699587 .2163086C.57699587 .15829468 .56399539 .107284549 .5249939 .07026672 .49299623 .040252687 .44400025 .022247315 .3959961 .022247315 .32798768 .022247315 .27598573 .060256959 .24798584 .106277469V.3343506C.28199769 .38336183 .34799195 .40937806 .4079895 .40937806 .526001 .40937806 .57699587 .32234193 .57699587 .2163086Z"/>
<path id="font_4_98" d="M.47799684 .12625122C.47799684 .17124939 .45298768 .20423889 .4149933 .22824097 .375 .25323487 .34498597 .25723268 .26098634 .27023316 .19699097 .28024293 .11999512 .29223634 .11999512 .3452301 .11999512 .38023377 .15899658 .41822816 .2679901 .41822816 .35099793 .41822816 .39898683 .38523866 .40499879 .3162384 .4059906 .301239 .40699769 .2952423 .42599488 .2952423 .44699098 .2952423 .44699098 .30223084 .44699098 .3232422V.42022706C.44699098 .4372406 .44699098 .4482422 .43099977 .4482422 .42599488 .4482422 .42199708 .4472351 .4139862 .4412384 .4099884 .4372406 .3919983 .42123414 .3880005 .42123414 .3880005 .42123414 .3849945 .42123414 .3789978 .42523194 .35598756 .43823243 .31900025 .4482422 .2689972 .4482422 .10398865 .4482422 .069992069 .37223817 .069992069 .3262329 .069992069 .23223877 .18598938 .21424866 .27799989 .20024109 .33599855 .1912384 .42799378 .1772461 .42799378 .10925293 .42799378 .07424927 .39898683 .022247315 .27799989 .022247315 .20999146 .022247315 .14399719 .04725647 .11399841 .15324402 .10899353 .17124939 .10798645 .17424011 .09098816 .17424011 .069992069 .17424011 .069992069 .1662445 .069992069 .14524842V.01725769C.069992069 .00024414063 .069992069-.0107421879 .085998538-.0107421879 .09399414-.0107421879 .09498596-.009750366 .11399841 .009246826L.13999939 .03425598C.18998719-.009750366 .25299073-.0107421879 .27799989-.0107421879 .44499208-.0107421879 .47799684 .07624817 .47799684 .12625122Z"/>
<path id="font_4_81" d="M.61499026 .21324158C.61499026 .33824159 .49699403 .4482422 .33999635 .4482422 .18299866 .4482422 .06498718 .33824159 .06498718 .21324158 .06498718 .09324646 .18399048-.0107421879 .33999635-.0107421879 .49699403-.0107421879 .61499026 .09324646 .61499026 .21324158M.5149994 .22323609C.5149994 .17424011 .5149994 .025253296 .33999635 .025253296 .16499329 .025253296 .16499329 .17424011 .16499329 .22323609 .16499329 .26823426 .16499329 .41523744 .33999635 .41523744 .5149994 .41523744 .5149994 .26823426 .5149994 .22323609Z"/>
<path id="font_4_72" d="M.33399964 0V.04399109H.31599427C.25099183 .04399109 .25099183 .052993776 .25099183 .08401489V.69433596L.08299255 .6826172V.63861086C.15699768 .63861086 .1659851 .6316223 .1659851 .5826416V.083969119C.1659851 .052993776 .1659851 .04399109 .100997928 .04399109H.08299255V0C.125 .0029907227 .1659851 .0039978029 .20799256 .0039978029 .25 .0039978029 .2919922 .0029907227 .33399964 0Z"/>
<path id="font_4_109" d="M.68299868 .00024414063V.04425049C.60899356 .04425049 .59999087 .051254274 .59999087 .1002655V.4423828L.42799378 .43138124V.38737489C.5019989 .38737489 .5109863 .3803711 .5109863 .33135987V.16828919C.5109863 .07626343 .44198609 .022247315 .3600006 .022247315 .2579956 .022247315 .2539978 .06326294 .2539978 .11427307V.4423828L.08198547 .43138124V.38737489C.15899658 .38737489 .16499329 .379364 .16499329 .32835389V.11027527C.17399597-.0017547608 .2869873-.0107421879 .35198976-.0107421879 .43598939-.0107421879 .4850006 .027252198 .5149994 .07426453V-.0107421879L.68299868 .00024414063Z"/>
<path id="font_4_105" d="M.44400025 .12608338V.18099976H.4019928V.1290741C.4019928 .05419922 .35798646 .025253296 .32299806 .025253296 .24598694 .025253296 .24598694 .1051178 .24598694 .12608338V.3866577H.4229889V.43066407H.24598694V.6142578H.20399475C.20298767 .52046206 .15299988 .4226532 .050994874 .41966249V.3866577H.15699768V.12608338C.15699768 .012252808 .25099183-.0107421879 .31298829-.0107421879 .3880005-.011001587 .44400025 .04399109 .44400025 .12599182V.12608338Z"/>
<path id="font_4_50" d="M.5469971 .119155887C.5469971 .13623047 .5309906 .13623047 .526001 .13623047 .5109863 .13623047 .5089874 .1322174 .5029907 .11816406 .47499085 .049209596 .40098573 .025253296 .34498597 .025253296 .2639923 .025253296 .21899414 .07017517 .20399475 .0871582 .16499329 .13522339 .16499329 .19847107 .16499329 .22558594H.5169983C.5379944 .22558594 .5469971 .22558594 .5469971 .24957276 .5469971 .31645204 .5109863 .4482422 .32398988 .4482422 .17199707 .4482422 .06498718 .3390503 .06498718 .21984864 .06498718 .09310913 .18699646-.0107421879 .33898927-.0107421879 .49798585-.0107421879 .5469971 .100097659 .5469971 .11906433V.119155887M.46998597 .25585938H.16699219C.1789856 .38816834 .27598573 .41523744 .32299806 .41523744 .46199037 .41523744 .46899415 .28492738 .46998597 .25585938Z"/>
<path id="font_4_75" d="M1.0309906 0V.04399109H1.0130005C.94799807 .04399109 .94799807 .052978517 .94799807 .08395386V.3017578C.94799807 .42536927 .85398867 .4423828 .7789917 .4423828 .68099978 .4423828 .6239929 .39328004 .59599307 .34902955 .57099917 .44137574 .46899415 .4423828 .43199159 .4423828 .32899476 .4423828 .2709961 .3872528 .24598694 .34399415V.4423828L.08198547 .43066407V.3866577C.1559906 .3866577 .16499329 .3796692 .16499329 .330719V.08395386C.16499329 .052978517 .16499329 .04399109 .099990848 .04399109H.08198547V0C.125 .0029907227 .16699219 .0039978029 .20999146 .0039978029 .2519989 .0039978029 .29499818 .0029907227 .33699037 0V.04399109H.31900025C.2539978 .04399109 .2539978 .052978517 .2539978 .08395386V.25775147C.2539978 .36914063 .35598756 .40937806 .42099 .40937806 .49398805 .40937806 .5119934 .36813355 .5119934 .30274964V.08395386C.5119934 .052978517 .5119934 .04399109 .44699098 .04399109H.42900086V0C.47200013 .0029907227 .5139923 .0039978029 .5569916 .0039978029 .598999 .0039978029 .6419983 .0029907227 .6839905 0V.04399109H.66600039C.6009979 .04399109 .6009979 .052978517 .6009979 .08395386V.25775147C.6009979 .36914063 .7029877 .40937806 .7679901 .40937806 .84098818 .40937806 .85899356 .36813355 .85899356 .30274964V.08395386C.85899356 .052978517 .85899356 .04399109 .7939911 .04399109H.776001V0C.81900027 .0029907227 .86099246 .0039978029 .9039917 .0039978029 .94599917 .0039978029 .9889984 .0029907227 1.0309906 0Z"/>
<path id="font_4_116" d="M.6629944 0V.04399109H.6439972C.58898928 .04399109 .5779877 .051986696 .56599429 .0599823 .55599978 .066970828 .43998719 .18685913 .394989 .23280335 .5179901 .35968019 .5439911 .38565064 .6409912 .3866577V.43066407C.6119995 .4286499 .58399966 .426651 .54499819 .426651 .5099945 .426651 .46899415 .42765809 .43399049 .43066407V.3866577C.45199586 .3846588 .45298768 .36767579 .45298768 .36767579 .45298768 .34968568 .44299317 .33970643 .4149933 .31173707L.36499024 .2637787C.31900025 .30773927 .2669983 .35868836 .2669983 .3686676 .2669983 .38565064 .2889862 .3866577 .29299928 .3866577V.43066407C.2519989 .42765809 .17399597 .426651 .16899109 .426651 .1289978 .426651 .099990848 .426651 .057998659 .43066407V.3866577H.07699585C.13999939 .3866577 .14099121 .3846588 .19499207 .33070375L.31298829 .21182251C.30599977 .20584107 .21899414 .11791992 .20399475 .10493469 .17599488 .07896423 .13899231 .04499817 .051986696 .04399109V0C.08099365 .0019989014 .10899353 .0039978029 .147995 .0039978029 .18299866 .0039978029 .22399903 .0029907227 .25898744 0V.04399109C.24398804 .04598999 .24099732 .05697632 .24099732 .06297302 .24099732 .079956058 .25498963 .094940189 .25898744 .09893799L.34199525 .18086243C.3769989 .14689636 .41999818 .10493469 .44499208 .07696533 .45298768 .066970828 .45399476 .066970828 .45399476 .0619812 .45399476 .04499817 .43199159 .04399109 .42799378 .04399109V0C.46899415 .0029907227 .5469971 .0039978029 .5519867 .0039978029 .59199526 .0039978029 .62098696 .0039978029 .6629944 0Z"/>
<path id="font_4_66" d="M.32598878 0V.04399109C.25898744 .04399109 .25099183 .04399109 .25099183 .08403015V.4423828L.08699036 .43066407V.3866577C.1579895 .3866577 .1659851 .3796692 .1659851 .33070375V.08395386C.1659851 .052978517 .1659851 .04399109 .100997928 .04399109H.08299255V0C.12399292 .0029907227 .1659851 .0039978029 .20698548 .0039978029 .24499512 .0039978029 .2889862 .0029907227 .32598878 0M.2619934 .6000519C.2619934 .63404849 .23498535 .6610565 .20098877 .6610565 .16799927 .6610565 .13999939 .63404849 .13999939 .6000519 .13999939 .5660553 .16699219 .5390625 .20098877 .5390625 .23399353 .5390625 .2619934 .5660553 .2619934 .6000519Z"/>
<path id="font_4_77" d="M.68299868 0V.04399109H.6649933C.59999087 .04399109 .59999087 .052978517 .59999087 .08395386V.3017578C.59999087 .41236878 .5249939 .4423828 .43199159 .4423828 .32499696 .4423828 .2689972 .3832245 .24598694 .34399415V.4423828L.08198547 .43066407V.3866577C.1559906 .3866577 .16499329 .3796692 .16499329 .330719V.08395386C.16499329 .052978517 .16499329 .04399109 .099990848 .04399109H.08198547V0C.125 .0029907227 .16699219 .0039978029 .20999146 .0039978029 .2519989 .0039978029 .29499818 .0029907227 .33699037 0V.04399109H.31900025C.2539978 .04399109 .2539978 .052978517 .2539978 .08395386V.25775147C.2539978 .3713379 .35798646 .40937806 .41999818 .40937806 .49398805 .40937806 .5109863 .36732484 .5109863 .30326844V.08403015C.5109863 .053009035 .5109863 .04399109 .44599916 .04399109H.42799378V0C.47099305 .0029907227 .5130005 .0039978029 .55599978 .0039978029 .59799197 .0039978029 .6409912 .0029907227 .68299868 0Z"/>
<path id="font_5_1" d="M.33399964 .30233766C.33999635 .32835389 .36299134 .42037965 .43299867 .42037965 .43798829 .42037965 .46199037 .42037965 .48298646 .40734864 .45498658 .402359 .43499757 .37734986 .43499757 .35334779 .43499757 .33735658 .44599916 .31835938 .47299195 .31835938 .49499513 .31835938 .5269928 .3363495 .5269928 .37635804 .5269928 .42837525 .46798707 .4423828 .43399049 .4423828 .37599183 .4423828 .34098817 .38935853 .32899476 .36634828 .3039856 .43237306 .25 .4423828 .22099304 .4423828 .116989139 .4423828 .05999756 .3133545 .05999756 .28834535 .05999756 .27833558 .069992069 .27833558 .07199097 .27833558 .07998657 .27833558 .08299255 .28033448 .084991458 .28933717 .11898804 .39535523 .18499756 .42037965 .21899414 .42037965 .23799134 .42037965 .272995 .4113617 .272995 .35334779 .272995 .32235719 .2559967 .25532533 .21899414 .11528015 .20298767 .053268434 .16799927 .011245728 .12399292 .011245728 .117996219 .011245728 .09498596 .011245728 .07398987 .024276734 .09899902 .029266358 .12098694 .05027771 .12098694 .07827759 .12098694 .105270389 .09899902 .11328125 .083999637 .11328125 .053985597 .11328125 .0289917 .08728027 .0289917 .055267335 .0289917 .009246826 .07899475-.0107421879 .12298584-.0107421879 .18899536-.0107421879 .22499085 .059280397 .22799683 .0652771 .23999024 .028274537 .27598573-.0107421879 .33599855-.0107421879 .43899537-.0107421879 .49598695 .118270877 .49598695 .14328003 .49598695 .1532898 .4869995 .1532898 .48399354 .1532898 .47499085 .1532898 .47299195 .14929199 .47099305 .14228821 .43798829 .03527832 .36999513 .011245728 .33799745 .011245728 .29899598 .011245728 .2829895 .043273927 .2829895 .07727051 .2829895 .09927368 .2889862 .121276859 .2999878 .16529846L.33399964 .30233766Z"/>
<path id="font_5_2" d="M.48599244 .38136292C.48999024 .39537049 .48999024 .39736939 .48999024 .40437318 .48999024 .42237855 .47599793 .43138124 .46099855 .43138124 .45098878 .43138124 .43499757 .42536927 .42599488 .41036988 .42399598 .405365 .41600038 .37435914 .4119873 .35635377 .40499879 .33035279 .397995 .30334474 .3919983 .27633668L.34700013 .09628296C.34298707 .08126831 .2999878 .011245728 .23399353 .011245728 .18299866 .011245728 .17199707 .055267335 .17199707 .0922699 .17199707 .1382904 .18899536 .20030213 .22299195 .28833009 .23899842 .3293457 .24299622 .3403473 .24299622 .36035157 .24299622 .405365 .21099854 .4423828 .16099549 .4423828 .06599426 .4423828 .0289917 .29733277 .0289917 .28833009 .0289917 .27833558 .038986207 .27833558 .040985109 .27833558 .050994874 .27833558 .051986696 .28033448 .056991579 .29634095 .083999637 .3903656 .12399292 .42037965 .1579895 .42037965 .1659851 .42037965 .18299866 .42037965 .18299866 .3883667 .18299866 .36335755 .17298889 .3373413 .1659851 .31834413 .12599182 .21231079 .10798645 .1552887 .10798645 .10827637 .10798645 .019256592 .17098999-.0107421879 .22999573-.0107421879 .2689972-.0107421879 .30299378 .0062561037 .33099366 .03425598 .31799317-.017745972 .30599977-.06674194 .2659912-.11973572 .23999024-.15385437 .20199585-.18309021 .1559906-.18309021 .14199829-.18309021 .09700012-.18005371 .07998657-.14074707 .09599304-.14074707 .10899353-.14074707 .12298584-.1287384 .1329956-.11973572 .14299011-.10673523 .14299011-.08773804 .14299011-.056747438 .115997318-.052734376 .10598755-.052734376 .08299255-.052734376 .049987794-.068740848 .049987794-.11773682 .049987794-.16796875 .09399414-.20507813 .1559906-.20507813 .25898744-.20507813 .3619995-.11373901 .3899994-.00074768069L.48599244 .38136292Z"/>
</defs>
<path transform="matrix(1.00003,0,0,-1.00006,2.0964967,163.19083)" stroke-width=".3985" stroke-linecap="butt" stroke-miterlimit="10" stroke-linejoin="miter" fill="none" stroke="#404040" d="M0 0H194.26912V161.3842H0Z"/>
<path transform="matrix(1.00003,0,0,-1.00006,2.0964967,163.19083)" stroke-width=".3985" stroke-linecap="butt" stroke-miterlimit="10" stroke-linejoin="miter" fill="none" stroke="#bfbfbf" d="M12.14182 0V161.3842M36.42545 0V161.3842M60.70909 0V161.3842M84.99274 0V161.3842M109.27637 0V161.3842M133.56002 0V161.3842M157.84366 0V161.3842M182.12729 0V161.3842"/>
<path transform="matrix(1.00003,0,0,-1.00006,2.0964967,163.19083)" stroke-width=".3985" stroke-linecap="butt" stroke-miterlimit="10" stroke-linejoin="miter" fill="none" stroke="#bfbfbf" d="M24.28363 0V161.3842M48.56728 0V161.3842M72.8509 0V161.3842M121.4182 0V161.3842M145.70183 0V161.3842M169.98548 0V161.3842"/>
<path transform="matrix(1.00003,0,0,-1.00006,2.0964967,163.19083)" stroke-width=".3985" stroke-linecap="butt" stroke-miterlimit="10" stroke-linejoin="miter" fill="none" stroke="#bfbfbf" d="M0 10.0865H194.26912M0 20.17302H194.26912M0 30.25954H194.26912M0 40.34604H194.26912M0 50.43256H194.26912M0 60.51907H194.26912M0 70.60558H194.26912M0 80.6921H194.26912M0 90.77861H194.26912M0 100.86511H194.26912M0 110.95163H194.26912M0 121.03815H194.26912M0 131.12467H194.26912M0 141.21117H194.26912M0 151.29769H194.26912"/>
<path transform="matrix(1.00003,0,0,-1.00006,2.0964967,163.19083)" stroke-width=".3985" stroke-linecap="butt" stroke-miterlimit="10" stroke-linejoin="miter" fill="none" stroke="#bfbfbf" d="M0 20.17302H194.26912M0 40.34604H194.26912M0 60.51907H194.26912M0 100.86511H194.26912M0 141.21117H194.26912"/>
<path transform="matrix(1.00003,0,0,-1.00006,2.0964967,163.19083)" stroke-width=".19925" stroke-linecap="butt" stroke-miterlimit="10" stroke-linejoin="miter" fill="none" stroke="#7f807f" d="M12.14182 79.27461V82.10957M36.42545 79.27461V82.10957M60.70909 79.27461V82.10957M84.99274 79.27461V82.10957M109.27637 79.27461V82.10957M133.56002 79.27461V82.10957M157.84366 79.27461V82.10957M182.12729 79.27461V82.10957"/>
<path transform="matrix(1.00003,0,0,-1.00006,2.0964967,163.19083)" stroke-width=".19925" stroke-linecap="butt" stroke-miterlimit="10" stroke-linejoin="miter" fill="none" stroke="#7f807f" d="M24.28363 78.56609V82.81808M48.56728 78.56609V82.81808M72.8509 78.56609V82.81808M121.4182 78.56609V82.81808M145.70183 78.56609V82.81808M169.98548 78.56609V82.81808"/>
<path transform="matrix(1.00003,0,0,-1.00006,2.0964967,163.19083)" stroke-width=".19925" stroke-linecap="butt" stroke-miterlimit="10" stroke-linejoin="miter" fill="none" stroke="#7f807f" d="M95.7171 10.0865H98.552M95.7171 20.17302H98.552M95.7171 30.25954H98.552M95.7171 40.34604H98.552M95.7171 50.43256H98.552M95.7171 60.51907H98.552M95.7171 70.60558H98.552M95.7171 80.6921H98.552M95.7171 90.77861H98.552M95.7171 100.86511H98.552M95.7171 110.95163H98.552M95.7171 121.03815H98.552M95.7171 131.12467H98.552M95.7171 141.21117H98.552M95.7171 151.29769H98.552"/>
<path transform="matrix(1.00003,0,0,-1.00006,2.0964967,163.19083)" stroke-width=".19925" stroke-linecap="butt" stroke-miterlimit="10" stroke-linejoin="miter" fill="none" stroke="#7f807f" d="M95.0086 20.17302H99.26048M95.0086 40.34604H99.26048M95.0086 60.51907H99.26048M95.0086 100.86511H99.26048M95.0086 141.21117H99.26048"/>
<path transform="matrix(1.00003,0,0,-1.00006,2.0964967,163.19083)" stroke-width=".3985" stroke-linecap="butt" stroke-miterlimit="10" stroke-linejoin="miter" fill="none" stroke="#000000" d="M0 80.6921H192.2766"/>
<path transform="matrix(1.00003,0,0,-1.00006,194.37888,82.49389)" d="M1.99252 0-1.19551 1.59401 0 0-1.19551-1.59401"/>
<path transform="matrix(1.00003,0,0,-1.00006,2.0964967,163.19083)" stroke-width=".3985" stroke-linecap="butt" stroke-miterlimit="10" stroke-linejoin="miter" fill="none" stroke="#000000" d="M97.13455 0V159.39168"/>
<path transform="matrix(0,-1.00006,-1.00003,-0,99.23396,3.7895966)" d="M1.99252 0-1.19551 1.59401 0 0-1.19551-1.59401"/>
<use data-text="&#x2212;" xlink:href="#font_1_1" transform="matrix(9.962899,0,0,-9.963197,20.016037,94.560718)"/>
<use data-text="6" xlink:href="#font_2_3" transform="matrix(9.962899,0,0,-9.963197,27.765267,94.560718)"/>
<use data-text="&#x2212;" xlink:href="#font_1_1" transform="matrix(9.962899,0,0,-9.963197,44.299764,94.560718)"/>
<use data-text="4" xlink:href="#font_2_2" transform="matrix(9.962899,0,0,-9.963197,52.048994,94.560718)"/>
<use data-text="&#x2212;" xlink:href="#font_1_1" transform="matrix(9.962899,0,0,-9.963197,68.584499,94.560718)"/>
<use data-text="2" xlink:href="#font_2_1" transform="matrix(9.962899,0,0,-9.963197,76.333728,94.560718)"/>
<use data-text="2" xlink:href="#font_2_1" transform="matrix(9.962899,0,0,-9.963197,121.02707,94.560718)"/>
<use data-text="4" xlink:href="#font_2_2" transform="matrix(9.962899,0,0,-9.963197,145.3118,94.560718)"/>
<use data-text="6" xlink:href="#font_2_3" transform="matrix(9.962899,0,0,-9.963197,169.59653,94.560718)"/>
<use data-text="&#x2212;" xlink:href="#font_1_1" transform="matrix(9.962899,0,0,-9.963197,80.857868,145.81179)"/>
<use data-text="6" xlink:href="#font_2_3" transform="matrix(9.962899,0,0,-9.963197,88.60709,145.81179)"/>
<use data-text="&#x2212;" xlink:href="#font_1_1" transform="matrix(9.962899,0,0,-9.963197,80.857868,125.63757)"/>
<use data-text="4" xlink:href="#font_2_2" transform="matrix(9.962899,0,0,-9.963197,88.60709,125.63757)"/>
<use data-text="&#x2212;" xlink:href="#font_1_1" transform="matrix(9.962899,0,0,-9.963197,80.857868,105.46336)"/>
<use data-text="2" xlink:href="#font_2_1" transform="matrix(9.962899,0,0,-9.963197,88.60709,105.46336)"/>
<use data-text="2" xlink:href="#font_2_1" transform="matrix(9.962899,0,0,-9.963197,88.6061,65.52997)"/>
<use data-text="6" xlink:href="#font_2_3" transform="matrix(9.962899,0,0,-9.963197,88.6061,25.18155)"/>
<g clip-path="url(#clip_3)">
<path transform="matrix(1.00003,0,0,-1.00006,2.0964967,163.19083)" stroke-width="1.49442" stroke-linecap="butt" stroke-miterlimit="10" stroke-linejoin="miter" fill="none" stroke="#1414cc" d="M48.56728 127.76476 48.99437 124.65501 49.42148 121.70932 49.84857 118.92337 50.27567 116.293 50.70277 113.81398 51.12987 111.48235 51.55698 109.29333 51.98407 107.2433 52.41116 105.32823 52.83827 103.54382 53.26537 101.88643 53.69247 100.35197 54.11957 98.93687 54.54666 97.63684 54.97377 96.44868 55.40086 95.3681 55.82797 94.39174 56.25507 93.51613 56.68216 92.7373 57.10927 92.052 57.53636 91.45663 57.96347 90.94765 58.39056 90.52185 58.81766 90.17596 59.24477 89.90651 59.67186 89.7102 60.09897 89.58395 60.52606 89.52449 60.95316 89.5288 61.38026 89.59377 61.80736 89.71635 62.23447 89.89357 62.66156 90.12256 63.08865 90.40036 63.51576 90.72417 63.94286 91.0912 64.36996 91.4987 64.79706 91.94392 65.22415 92.42436 65.65126 92.93724 66.07835 93.48007 66.50546 94.05032 66.93256 94.64558 67.35965 95.26338 67.78676 95.90132 68.21385 96.55711 68.64096 97.22849 69.06805 97.91316 69.49515 98.60898 69.92226 99.31378 70.34935 100.02553 70.77646 100.74203 71.20355 101.46144 71.63065 102.18172 72.05777 102.90096 72.48486 103.61726 72.91196 104.3289 73.33907 105.03407 73.76616 105.731 74.19327 106.41805 74.62036 107.09357 75.04745 107.75597 75.47456 108.40372 75.90166 109.03531 76.32877 109.6493 76.75586 110.2443 77.18295 110.81895 77.61006 111.37192 78.03716 111.90198 78.46426 112.40788 78.89136 112.88849 79.31845 113.34265 79.74556 113.7693 80.17265 114.16739 80.59976 114.53592 81.02686 114.87401 81.45395 115.18073 81.88106 115.45525 82.30815 115.69676 82.73526 115.90451 83.16235 116.07779 83.58945 116.21593 84.01656 116.31833 84.44365 116.38443 84.87076 116.41367 85.29785 116.4056 85.72495 116.35982 86.15205 116.27588 86.57915 116.1535 87.00626 115.99239 87.43335 115.79227 87.86044 115.55293 88.28757 115.27429 88.71466 114.95619 89.14177 114.59859 89.56886 114.20148 89.99596 113.76488 90.42307 113.28888 90.85016 112.77359 91.27727 112.21922 91.70436 111.62596 92.13145 110.99408 92.55856 110.3239 92.98566 109.61577 93.41277 108.8701 93.83986 108.08736 94.26695 107.26799 94.69408 106.4126 95.12117 105.52174 95.54828 104.59607 95.97537 103.63625 96.40247 102.64302 96.82957 101.61716 97.25667 100.55948 97.68378 99.47087 98.11087 98.35222 98.53796 97.2045 98.96507 96.02872 99.39217 94.82594 99.81927 93.59723 100.24637 92.34377 100.67346 91.06674 101.10059 89.76736 101.52768 88.44696 101.95479 87.10683 102.38188 85.74838 102.80898 84.373 103.23608 82.98216 103.66318 81.57742 104.09029 80.16031 104.51738 78.73245 104.94447 77.29549 105.37158 75.85114 105.79868 74.40112 106.22578 72.94725 106.65288 71.49138 107.07997 70.03539 107.5071 68.58119 107.93419 67.13078 108.3613 65.68619 108.78839 64.2495 109.21548 62.8228 109.6426 61.40828 110.06969 60.00813 110.4968 58.62465 110.92389 57.26009 111.35098 55.91682 111.77809 54.5973 112.20518 53.30388 112.6323 52.0391 113.05939 50.80545 113.48648 49.60556 113.91359 48.44202 114.34068 47.31755 114.76779 46.23483 115.19489 45.19666 115.62198 44.20584 116.04909 43.26526 116.47618 42.37778 116.90327 41.54634 117.33038 40.77399 117.75748 40.06375 118.18459 39.41872 118.61168 38.84206 119.03877 38.33687 119.46588 37.9065 119.89297 37.55414 120.32008 37.28313 120.74718 37.09688 121.17427 36.99875 121.60138 36.99223 122.02847 37.08084 122.45558 37.26813 122.88268 37.55766 123.30978 37.95317 123.7369 38.45825 124.16399 39.07674 124.5911 39.81227 125.01819 40.66885 125.44528 41.65028 125.87239 42.76051 126.29948 44.00346 126.7266 45.3832 127.15369 46.9038 127.58078 48.56927 128.00789 50.38393 128.43498 52.35187 128.86209 54.47728 129.28919 56.76465 129.71628 59.21822 130.14339 61.84238 130.57048 64.64153 130.99759 67.6202 131.42469 70.78288 131.85178 74.13423 132.27889 77.67877 132.70598 81.4212 133.13309 85.36613 133.56018 89.51848"/>
<path transform="matrix(1.00003,0,0,-1.00006,2.0964967,163.19083)" stroke-width=".24907" stroke-linecap="butt" stroke-miterlimit="10" stroke-linejoin="miter" fill="none" stroke="#1414cc" d="M48.56728 127.76584"/>
<use data-text="a" xlink:href="#font_4_28" transform="matrix(4.9814498,0,0,-4.9815986,38.293584,25.68959)" fill="#1414cc"/>
<use data-text="b" xlink:href="#font_4_35" transform="matrix(4.9814498,0,0,-4.9815986,41.685949,25.68959)" fill="#1414cc"/>
<use data-text="s" xlink:href="#font_4_98" transform="matrix(4.9814498,0,0,-4.9815986,45.42204,25.68959)" fill="#1414cc"/>
<use data-text="o" xlink:href="#font_4_81" transform="matrix(4.9814498,0,0,-4.9815986,48.156858,25.68959)" fill="#1414cc"/>
<use data-text="l" xlink:href="#font_4_72" transform="matrix(4.9814498,0,0,-4.9815986,51.54922,25.68959)" fill="#1414cc"/>
<use data-text="u" xlink:href="#font_4_109" transform="matrix(4.9814498,0,0,-4.9815986,53.556745,25.68959)" fill="#1414cc"/>
<use data-text="t" xlink:href="#font_4_105" transform="matrix(4.9814498,0,0,-4.9815986,57.292837,25.68959)" fill="#1414cc"/>
<use data-text="e" xlink:href="#font_4_50" transform="matrix(4.9814498,0,0,-4.9815986,59.99278,25.68959)" fill="#1414cc"/>
<use data-text="m" xlink:href="#font_4_75" transform="matrix(4.9814498,0,0,-4.9815986,44.455774,31.128907)" fill="#1414cc"/>
<use data-text="a" xlink:href="#font_4_28" transform="matrix(4.9814498,0,0,-4.9815986,49.920419,31.128907)" fill="#1414cc"/>
<use data-text="x" xlink:href="#font_4_116" transform="matrix(4.9814498,0,0,-4.9815986,53.31279,31.128907)" fill="#1414cc"/>
<path transform="matrix(1.00003,0,0,-1.00006,2.0964967,163.19083)" stroke-width=".24907" stroke-linecap="butt" stroke-miterlimit="10" stroke-linejoin="miter" fill="none" stroke="#1414cc" d="M133.56002 89.50266"/>
<path transform="matrix(1.00003,0,0,-1.00006,2.0964967,163.19083)" stroke-width=".24907" stroke-linecap="butt" stroke-miterlimit="10" stroke-linejoin="miter" fill="none" stroke="#1414cc" d="M121.4182 36.98723"/>
<use data-text="a" xlink:href="#font_4_28" transform="matrix(4.9814498,0,0,-4.9815986,140.79366,132.61299)" fill="#1414cc"/>
<use data-text="b" xlink:href="#font_4_35" transform="matrix(4.9814498,0,0,-4.9815986,144.18602,132.61299)" fill="#1414cc"/>
<use data-text="s" xlink:href="#font_4_98" transform="matrix(4.9814498,0,0,-4.9815986,147.92212,132.61299)" fill="#1414cc"/>
<use data-text="o" xlink:href="#font_4_81" transform="matrix(4.9814498,0,0,-4.9815986,150.65692,132.61299)" fill="#1414cc"/>
<use data-text="l" xlink:href="#font_4_72" transform="matrix(4.9814498,0,0,-4.9815986,154.04929,132.61299)" fill="#1414cc"/>
<use data-text="u" xlink:href="#font_4_109" transform="matrix(4.9814498,0,0,-4.9815986,156.05683,132.61299)" fill="#1414cc"/>
<use data-text="t" xlink:href="#font_4_105" transform="matrix(4.9814498,0,0,-4.9815986,159.79291,132.61299)" fill="#1414cc"/>
<use data-text="e" xlink:href="#font_4_50" transform="matrix(4.9814498,0,0,-4.9815986,162.49286,132.61299)" fill="#1414cc"/>
<use data-text="m" xlink:href="#font_4_75" transform="matrix(4.9814498,0,0,-4.9815986,167.88776,132.61299)" fill="#1414cc"/>
<use data-text="i" xlink:href="#font_4_66" transform="matrix(4.9814498,0,0,-4.9815986,173.35242,132.61299)" fill="#1414cc"/>
<use data-text="n" xlink:href="#font_4_77" transform="matrix(4.9814498,0,0,-4.9815986,175.35993,132.61299)" fill="#1414cc"/>
</g>
<path transform="matrix(1.00003,0,0,-1.00006,2.0964967,163.19083)" d="M50.55983 127.76584C50.55983 128.86632 49.66774 129.75839 48.56728 129.75839 47.4668 129.75839 46.57472 128.86632 46.57472 127.76584 46.57472 126.66537 47.4668 125.77328 48.56728 125.77328 49.66774 125.77328 50.55983 126.66537 50.55983 127.76584ZM48.56728 127.76584" fill="#1414cc"/>
<path transform="matrix(1.00003,0,0,-1.00006,2.0964967,163.19083)" stroke-width=".24907" stroke-linecap="butt" stroke-miterlimit="10" stroke-linejoin="miter" fill="none" stroke="#1414cc" d="M50.55983 127.76584C50.55983 128.86632 49.66774 129.75839 48.56728 129.75839 47.4668 129.75839 46.57472 128.86632 46.57472 127.76584 46.57472 126.66537 47.4668 125.77328 48.56728 125.77328 49.66774 125.77328 50.55983 126.66537 50.55983 127.76584ZM48.56728 127.76584"/>
<path transform="matrix(1.00003,0,0,-1.00006,2.0964967,163.19083)" stroke-width=".24907" stroke-linecap="butt" stroke-miterlimit="10" stroke-linejoin="miter" fill="none" stroke="#1414cc" d=""/>
<path transform="matrix(1.00003,0,0,-1.00006,2.0964967,163.19083)" d="M135.55257 89.50266C135.55257 90.60313 134.66049 91.49521 133.56002 91.49521 132.45955 91.49521 131.56746 90.60313 131.56746 89.50266 131.56746 88.40219 132.45955 87.5101 133.56002 87.5101 134.66049 87.5101 135.55257 88.40219 135.55257 89.50266ZM133.56002 89.50266" fill="#1414cc"/>
<path transform="matrix(1.00003,0,0,-1.00006,2.0964967,163.19083)" stroke-width=".24907" stroke-linecap="butt" stroke-miterlimit="10" stroke-linejoin="miter" fill="none" stroke="#1414cc" d="M135.55257 89.50266C135.55257 90.60313 134.66049 91.49521 133.56002 91.49521 132.45955 91.49521 131.56746 90.60313 131.56746 89.50266 131.56746 88.40219 132.45955 87.5101 133.56002 87.5101 134.66049 87.5101 135.55257 88.40219 135.55257 89.50266ZM133.56002 89.50266"/>
<path transform="matrix(1.00003,0,0,-1.00006,2.0964967,163.19083)" stroke-width=".24907" stroke-linecap="butt" stroke-miterlimit="10" stroke-linejoin="miter" fill="none" stroke="#1414cc" d=""/>
<path transform="matrix(1.00003,0,0,-1.00006,2.0964967,163.19083)" d="M123.41075 36.98723C123.41075 38.08769 122.51866 38.97978 121.4182 38.97978 120.31772 38.97978 119.42564 38.08769 119.42564 36.98723 119.42564 35.88675 120.31772 34.99467 121.4182 34.99467 122.51866 34.99467 123.41075 35.88675 123.41075 36.98723ZM121.4182 36.98723" fill="#1414cc"/>
<path transform="matrix(1.00003,0,0,-1.00006,2.0964967,163.19083)" stroke-width=".24907" stroke-linecap="butt" stroke-miterlimit="10" stroke-linejoin="miter" fill="none" stroke="#1414cc" d="M123.41075 36.98723C123.41075 38.08769 122.51866 38.97978 121.4182 38.97978 120.31772 38.97978 119.42564 38.08769 119.42564 36.98723 119.42564 35.88675 120.31772 34.99467 121.4182 34.99467 122.51866 34.99467 123.41075 35.88675 123.41075 36.98723ZM121.4182 36.98723"/>
<path transform="matrix(1.00003,0,0,-1.00006,2.0964967,163.19083)" stroke-width=".24907" stroke-linecap="butt" stroke-miterlimit="10" stroke-linejoin="miter" fill="none" stroke="#1414cc" d=""/>
<use data-text="x" xlink:href="#font_5_1" transform="matrix(9.962899,0,0,-9.963197,187.19205,78.95978)"/>
<use data-text="y" xlink:href="#font_5_2" transform="matrix(9.962899,0,0,-9.963197,102.77552,9.583603)"/>
</svg>
