<svg xmlns="http://www.w3.org/2000/svg" xmlns:xlink="http://www.w3.org/1999/xlink" xmlns:inkscape="http://www.inkscape.org/namespaces/inkscape" version="1.1" width="115" height="114" viewBox="0 0 115 114">
<defs>
<path id="font_1_1" d="M.6589966 .23046875C.6759949 .23046875 .69400027 .23046875 .69400027 .25045777 .69400027 .27046205 .6759949 .27046205 .6589966 .27046205H.117996219C.100997928 .27046205 .08299255 .27046205 .08299255 .25045777 .08299255 .23046875 .100997928 .23046875 .117996219 .23046875H.6589966Z"/>
<path id="font_2_3" d="M.13198853 .327713V.35173036C.13198853 .6047821 .2559967 .64100649 .30699159 .64100649 .33099366 .64100649 .37298585 .634964 .394989 .6007538 .37998963 .6007538 .33999635 .6007538 .33999635 .5557556 .33999635 .524765 .3639984 .5097656 .38598634 .5097656 .4019928 .5097656 .43199159 .51875308 .43199159 .5577545 .43199159 .6178589 .3880005 .6660156 .30499269 .6660156 .1769867 .6660156 .041992189 .5367584 .041992189 .31570436 .041992189 .048553468 .1579895-.022460938 .25099183-.022460938 .3619995-.022460938 .45700074 .07156372 .45700074 .2036438 .45700074 .33070375 .36799623 .4267578 .25698854 .4267578 .18899536 .4267578 .1519928 .37573243 .13198853 .327713M.25099183 .0055389406C.18798828 .0055389406 .1579895 .06556702 .1519928 .080566409 .13398743 .127594 .13398743 .2076416 .13398743 .22564698 .13398743 .30369569 .1659851 .40374757 .2559967 .40374757 .27198792 .40374757 .31799317 .40374757 .34899903 .34172059 .36698915 .30470277 .36698915 .2536621 .36698915 .20463562 .36698915 .15661621 .36698915 .10658264 .34999085 .0705719 .31999208 .010528564 .27398683 .0055389406 .25099183 .0055389406Z"/>
<path id="font_2_2" d="M.2939911 .16503906V.07800293C.2939911 .041992189 .2919922 .0309906 .21798706 .0309906H.19699097V0C.23799134 .0029907227 .2899933 .0029907227 .33198548 .0029907227 .37399293 .0029907227 .4269867 .0029907227 .46798707 0V.0309906H.44699098C.37298585 .0309906 .37098695 .041992189 .37098695 .07800293V.16503906H.47099305V.19602967H.37098695V.65075686C.37098695 .67074587 .37098695 .6767578 .35499574 .6767578 .34599305 .6767578 .34298707 .6767578 .33499146 .66474917L.027999878 .19602967V.16503906H.2939911M.2999878 .19602967H.055999757L.2999878 .5688019V.19602967Z"/>
<path id="font_2_1" d="M.1269989 .07699585 .23298645 .18003845C.3889923 .31811524 .44898988 .3721466 .44898988 .47216798 .44898988 .5860901 .35899354 .6660156 .23699951 .6660156 .12399292 .6660156 .049987794 .57411196 .049987794 .48516847 .049987794 .4291687 .099990848 .4291687 .102996829 .4291687 .11999512 .4291687 .15499878 .44117738 .15499878 .48217774 .15499878 .5081787 .13699341 .5341797 .101989749 .5341797 .09399414 .5341797 .09199524 .5341797 .08898926 .5331726 .11199951 .59806826 .1659851 .63500979 .22399903 .63500979 .31498719 .63500979 .35798646 .5541382 .35798646 .47216798 .35798646 .39215089 .30799867 .31311036 .25299073 .25108338L.06098938 .036987306C.049987794 .025985718 .049987794 .023986817 .049987794 0H.42099L.44898988 .17404175H.42399598C.4189911 .14402771 .4119873 .1000061 .4019928 .084991458 .394989 .07699585 .32899476 .07699585 .30699159 .07699585H.1269989Z"/>
<clipPath id="clip_3">
<path transform="matrix(1,0,0,-1.00006,2.0960007,112.863819)" d="M0 0H111.05957V111.05957H0Z"/>
</clipPath>
<path id="font_4_1" d="M.6619873 .3733673C.66600039 .3883667 .66600039 .39537049 .66600039 .39637757 .66600039 .41838075 .647995 .43138124 .6289978 .43138124 .58898928 .43138124 .58099368 .39637757 .57398989 .3693695L.5529938 .28633119 .5219879 .16130066C.5179901 .14828491 .5130005 .12728882 .5119934 .121276859 .5109863 .11727905 .45700074 .023254395 .37199403 .023254395 .32598878 .023254395 .2899933 .04525757 .2899933 .10928345 .2899933 .16429138 .31999208 .23731995 .34899903 .30934144 .35398866 .3213501 .36099244 .33735658 .36099244 .35435487 .36099244 .40338136 .31399537 .4423828 .2519989 .4423828 .14698792 .4423828 .09098816 .3143463 .09098816 .28733827 .09098816 .2733307 .10699463 .2733307 .11199951 .2733307 .1289978 .2733307 .12998963 .27833558 .1349945 .29333497 .1559906 .36236573 .20298767 .40837098 .24798584 .40837098 .2669983 .40837098 .27799989 .39736939 .27799989 .37036134 .27799989 .35035707 .27198792 .3363495 .2649994 .31834413 .21598816 .1993103 .20698548 .16329956 .20698548 .123291019 .20698548 .012252808 .2999878-.0107421879 .36698915-.0107421879 .42399598-.0107421879 .46598817 .01725769 .4909973 .038253786 .47698976-.01777649 .46598817-.061904909 .4189911-.10990906 .3959961-.13290406 .34899903-.17108155 .2869873-.17108155 .2689972-.17108155 .23199463-.1680603 .20899964-.14691162 .2539978-.13591004 .25898744-.09690857 .25898744-.0868988 .25898744-.057907106 .23599243-.045898439 .21499634-.045898439 .18598938-.045898439 .1519928-.06990051 .1519928-.11590576 .1519928-.16604615 .20298767-.20507813 .2869873-.20507813 .40098573-.20507813 .5359955-.12890625 .56799319-.00074768069L.6619873 .3733673Z"/>
<path id="font_5_52" d="M.9299927 .3688202C.9299927 .39682008 .901001 .39682008 .8860016 .39682008H.14099121C.12599182 .39682008 .09700012 .39682008 .09700012 .3688202 .09700012 .3408203 .12298584 .3408203 .13598633 .3408203H.8909912C.9049988 .3408203 .9299927 .3408203 .9299927 .3688202M.9299927 .13116455C.9299927 .15917969 .9049988 .15917969 .8909912 .15917969H.13598633C.12199402 .15917969 .09700012 .15917969 .09700012 .13116455 .09700012 .10316467 .12599182 .10316467 .14099121 .10316467H.8860016C.901001 .10316467 .9299927 .10316467 .9299927 .13116455Z"/>
<path id="font_6_1" d="M.8799896 .2223053C.8959961 .2223053 .9229889 .2223053 .9229889 .25030519 .9229889 .2783203 .8959961 .2783203 .8799896 .2783203H.20298767C.18699646 .2783203 .1599884 .2783203 .1599884 .25030519 .1599884 .2223053 .18699646 .2223053 .20298767 .2223053H.8799896Z"/>
<path id="font_7_1" d="M.58898928 .19296265H.5469971C.5439911 .17396546 .5339966 .11198425 .5179901 .101989749 .5099945 .09599304 .42599488 .09599304 .41099549 .09599304H.21499634C.2809906 .14497376 .35499574 .20095825 .4149933 .24093628 .5049896 .30291749 .58898928 .36090089 .58898928 .46687318 .58898928 .59495547 .46798707 .6660156 .32499696 .6660156 .18998719 .6660156 .09098816 .58795168 .09098816 .48986817 .09098816 .4378662 .1349945 .42886354 .14898682 .42886354 .17599488 .42886354 .20799256 .4468689 .20799256 .48786927 .20799256 .52386477 .18199158 .543869 .15098572 .546875 .1789856 .59194949 .23699951 .6220093 .3039856 .6220093 .40098573 .6220093 .48199464 .5639038 .48199464 .4658661 .48199464 .3818817 .42399598 .31791688 .34700013 .2529297L.102996829 .04598999C.09298706 .036987306 .09199524 .036987306 .09098816 .02999878V0H.55599978L.58898928 .19296265Z"/>
<path id="font_8_1" d="M.33399964 .30233766C.33999635 .32835389 .36299134 .42037965 .43299867 .42037965 .43798829 .42037965 .46199037 .42037965 .48298646 .40734864 .45498658 .402359 .43499757 .37734986 .43499757 .35334779 .43499757 .33735658 .44599916 .31835938 .47299195 .31835938 .49499513 .31835938 .5269928 .3363495 .5269928 .37635804 .5269928 .42837525 .46798707 .4423828 .43399049 .4423828 .37599183 .4423828 .34098817 .38935853 .32899476 .36634828 .3039856 .43237306 .25 .4423828 .22099304 .4423828 .116989139 .4423828 .05999756 .3133545 .05999756 .28834535 .05999756 .27833558 .069992069 .27833558 .07199097 .27833558 .07998657 .27833558 .08299255 .28033448 .084991458 .28933717 .11898804 .39535523 .18499756 .42037965 .21899414 .42037965 .23799134 .42037965 .272995 .4113617 .272995 .35334779 .272995 .32235719 .2559967 .25532533 .21899414 .11528015 .20298767 .053268434 .16799927 .011245728 .12399292 .011245728 .117996219 .011245728 .09498596 .011245728 .07398987 .024276734 .09899902 .029266358 .12098694 .05027771 .12098694 .07827759 .12098694 .105270389 .09899902 .11328125 .083999637 .11328125 .053985597 .11328125 .0289917 .08728027 .0289917 .055267335 .0289917 .009246826 .07899475-.0107421879 .12298584-.0107421879 .18899536-.0107421879 .22499085 .059280397 .22799683 .0652771 .23999024 .028274537 .27598573-.0107421879 .33599855-.0107421879 .43899537-.0107421879 .49598695 .118270877 .49598695 .14328003 .49598695 .1532898 .4869995 .1532898 .48399354 .1532898 .47499085 .1532898 .47299195 .14929199 .47099305 .14228821 .43798829 .03527832 .36999513 .011245728 .33799745 .011245728 .29899598 .011245728 .2829895 .043273927 .2829895 .07727051 .2829895 .09927368 .2889862 .121276859 .2999878 .16529846L.33399964 .30233766Z"/>
<path id="font_8_2" d="M.48599244 .38136292C.48999024 .39537049 .48999024 .39736939 .48999024 .40437318 .48999024 .42237855 .47599793 .43138124 .46099855 .43138124 .45098878 .43138124 .43499757 .42536927 .42599488 .41036988 .42399598 .405365 .41600038 .37435914 .4119873 .35635377 .40499879 .33035279 .397995 .30334474 .3919983 .27633668L.34700013 .09628296C.34298707 .08126831 .2999878 .011245728 .23399353 .011245728 .18299866 .011245728 .17199707 .055267335 .17199707 .0922699 .17199707 .1382904 .18899536 .20030213 .22299195 .28833009 .23899842 .3293457 .24299622 .3403473 .24299622 .36035157 .24299622 .405365 .21099854 .4423828 .16099549 .4423828 .06599426 .4423828 .0289917 .29733277 .0289917 .28833009 .0289917 .27833558 .038986207 .27833558 .040985109 .27833558 .050994874 .27833558 .051986696 .28033448 .056991579 .29634095 .083999637 .3903656 .12399292 .42037965 .1579895 .42037965 .1659851 .42037965 .18299866 .42037965 .18299866 .3883667 .18299866 .36335755 .17298889 .3373413 .1659851 .31834413 .12599182 .21231079 .10798645 .1552887 .10798645 .10827637 .10798645 .019256592 .17098999-.0107421879 .22999573-.0107421879 .2689972-.0107421879 .30299378 .0062561037 .33099366 .03425598 .31799317-.017745972 .30599977-.06674194 .2659912-.11973572 .23999024-.15385437 .20199585-.18309021 .1559906-.18309021 .14199829-.18309021 .09700012-.18005371 .07998657-.14074707 .09599304-.14074707 .10899353-.14074707 .12298584-.1287384 .1329956-.11973572 .14299011-.10673523 .14299011-.08773804 .14299011-.056747438 .115997318-.052734376 .10598755-.052734376 .08299255-.052734376 .049987794-.068740848 .049987794-.11773682 .049987794-.16796875 .09399414-.20507813 .1559906-.20507813 .25898744-.20507813 .3619995-.11373901 .3899994-.00074768069L.48599244 .38136292Z"/>
</defs>
<path transform="matrix(1,0,0,-1.00006,2.0960007,112.863819)" stroke-width=".3985" stroke-linecap="butt" stroke-miterlimit="10" stroke-linejoin="miter" fill="none" stroke="#404040" d="M0 0H111.05957V111.05957H0Z"/>
<path transform="matrix(1,0,0,-1.00006,2.0960007,112.863819)" stroke-width=".3985" stroke-linecap="butt" stroke-miterlimit="10" stroke-linejoin="miter" fill="none" stroke="#bfbfbf" d="M6.94122 0V111.05957M20.82367 0V111.05957M34.70612 0V111.05957M48.58856 0V111.05957M62.47101 0V111.05957M76.35345 0V111.05957M90.2359 0V111.05957M104.11835 0V111.05957"/>
<path transform="matrix(1,0,0,-1.00006,2.0960007,112.863819)" stroke-width=".3985" stroke-linecap="butt" stroke-miterlimit="10" stroke-linejoin="miter" fill="none" stroke="#bfbfbf" d="M13.88245 0V111.05957M27.7649 0V111.05957M41.64734 0V111.05957M69.41223 0V111.05957M83.29468 0V111.05957M97.17712 0V111.05957"/>
<path transform="matrix(1,0,0,-1.00006,2.0960007,112.863819)" stroke-width=".3985" stroke-linecap="butt" stroke-miterlimit="10" stroke-linejoin="miter" fill="none" stroke="#bfbfbf" d="M0 6.94122H111.05957M0 20.82367H111.05957M0 34.70612H111.05957M0 48.58856H111.05957M0 62.47101H111.05957M0 76.35345H111.05957M0 90.2359H111.05957M0 104.11835H111.05957"/>
<path transform="matrix(1,0,0,-1.00006,2.0960007,112.863819)" stroke-width=".3985" stroke-linecap="butt" stroke-miterlimit="10" stroke-linejoin="miter" fill="none" stroke="#bfbfbf" d="M0 13.88245H111.05957M0 27.7649H111.05957M0 41.64734H111.05957M0 69.41223H111.05957M0 83.29468H111.05957M0 97.17712H111.05957"/>
<path transform="matrix(1,0,0,-1.00006,2.0960007,112.863819)" stroke-width=".19925" stroke-linecap="butt" stroke-miterlimit="10" stroke-linejoin="miter" fill="none" stroke="#7f807f" d="M6.94122 54.11232V56.94724M20.82367 54.11232V56.94724M34.70612 54.11232V56.94724M48.58856 54.11232V56.94724M62.47101 54.11232V56.94724M76.35345 54.11232V56.94724M90.2359 54.11232V56.94724M104.11835 54.11232V56.94724"/>
<path transform="matrix(1,0,0,-1.00006,2.0960007,112.863819)" stroke-width=".19925" stroke-linecap="butt" stroke-miterlimit="10" stroke-linejoin="miter" fill="none" stroke="#7f807f" d="M13.88245 53.4038V57.65575M27.7649 53.4038V57.65575M41.64734 53.4038V57.65575M69.41223 53.4038V57.65575M83.29468 53.4038V57.65575M97.17712 53.4038V57.65575"/>
<path transform="matrix(1,0,0,-1.00006,2.0960007,112.863819)" stroke-width=".19925" stroke-linecap="butt" stroke-miterlimit="10" stroke-linejoin="miter" fill="none" stroke="#7f807f" d="M54.11232 6.94122H56.94724M54.11232 20.82367H56.94724M54.11232 34.70612H56.94724M54.11232 48.58856H56.94724M54.11232 62.47101H56.94724M54.11232 76.35345H56.94724M54.11232 90.2359H56.94724M54.11232 104.11835H56.94724"/>
<path transform="matrix(1,0,0,-1.00006,2.0960007,112.863819)" stroke-width=".19925" stroke-linecap="butt" stroke-miterlimit="10" stroke-linejoin="miter" fill="none" stroke="#7f807f" d="M53.4038 13.88245H57.65575M53.4038 27.7649H57.65575M53.4038 41.64734H57.65575M53.4038 69.41223H57.65575M53.4038 83.29468H57.65575M53.4038 97.17712H57.65575"/>
<path transform="matrix(1,0,0,-1.00006,2.0960007,112.863819)" stroke-width=".3985" stroke-linecap="butt" stroke-miterlimit="10" stroke-linejoin="miter" fill="none" stroke="#000000" d="M0 55.52979H109.06705"/>
<path transform="matrix(1,0,0,-1.00006,111.16305,57.330698)" d="M1.99252 0-1.19551 1.59401 0 0-1.19551-1.59401"/>
<path transform="matrix(1,0,0,-1.00006,2.0960007,112.863819)" stroke-width=".3985" stroke-linecap="butt" stroke-miterlimit="10" stroke-linejoin="miter" fill="none" stroke="#000000" d="M55.52979 0V109.06705"/>
<path transform="matrix(0,-1.00006,-1,-0,57.62579,3.7902299)" d="M1.99252 0-1.19551 1.59401 0 0-1.19551-1.59401"/>
<use data-text="&#x2212;" xlink:href="#font_1_1" transform="matrix(9.9626,0,0,-9.963197,9.612999,69.39721)"/>
<use data-text="6" xlink:href="#font_2_3" transform="matrix(9.9626,0,0,-9.963197,17.362,69.39721)"/>
<use data-text="&#x2212;" xlink:href="#font_1_1" transform="matrix(9.9626,0,0,-9.963197,23.496003,69.39721)"/>
<use data-text="4" xlink:href="#font_2_2" transform="matrix(9.9626,0,0,-9.963197,31.245003,69.39721)"/>
<use data-text="&#x2212;" xlink:href="#font_1_1" transform="matrix(9.9626,0,0,-9.963197,37.378004,69.39721)"/>
<use data-text="2" xlink:href="#font_2_1" transform="matrix(9.9626,0,0,-9.963197,45.127004,69.39721)"/>
<use data-text="2" xlink:href="#font_2_1" transform="matrix(9.9626,0,0,-9.963197,69.018,69.39721)"/>
<use data-text="4" xlink:href="#font_2_2" transform="matrix(9.9626,0,0,-9.963197,82.9,69.39721)"/>
<use data-text="6" xlink:href="#font_2_3" transform="matrix(9.9626,0,0,-9.963197,96.782,69.39721)"/>
<use data-text="&#x2212;" xlink:href="#font_1_1" transform="matrix(9.9626,0,0,-9.963197,39.25,101.77615)"/>
<use data-text="6" xlink:href="#font_2_3" transform="matrix(9.9626,0,0,-9.963197,46.999,101.77615)"/>
<use data-text="&#x2212;" xlink:href="#font_1_1" transform="matrix(9.9626,0,0,-9.963197,39.25,87.89232)"/>
<use data-text="4" xlink:href="#font_2_2" transform="matrix(9.9626,0,0,-9.963197,46.999,87.89232)"/>
<use data-text="&#x2212;" xlink:href="#font_1_1" transform="matrix(9.9626,0,0,-9.963197,39.25,74.00948)"/>
<use data-text="2" xlink:href="#font_2_1" transform="matrix(9.9626,0,0,-9.963197,46.999,74.00948)"/>
<use data-text="2" xlink:href="#font_2_1" transform="matrix(9.9626,0,0,-9.963197,46.999,46.657846)"/>
<use data-text="4" xlink:href="#font_2_2" transform="matrix(9.9626,0,0,-9.963197,46.999,32.775018)"/>
<use data-text="6" xlink:href="#font_2_3" transform="matrix(9.9626,0,0,-9.963197,46.999,18.891175)"/>
<g clip-path="url(#clip_3)">
<path transform="matrix(1,0,0,-1.00006,2.0960007,112.863819)" stroke-width="1.49442" stroke-linecap="butt" stroke-miterlimit="10" stroke-linejoin="miter" fill="none" stroke="#1414cc" d="M14.81264 109.94032 14.75395 110.22728 14.9244 109.39854 15.09485 108.57394 15.2653 107.75359 15.43575 106.93741 15.60619 106.12537 15.77666 105.31755 15.9471 104.51387 16.11755 103.71443 16.288 102.91916 16.45845 102.12804 16.6289 101.34116 16.79935 100.55844 16.9698 99.7799 17.14026 99.00557 17.3107 98.2354 17.48116 97.46944 17.6516 96.70766 17.82207 95.95003 17.99251 95.19667 18.16295 94.44737 18.3334 93.70238 18.50386 92.96149 18.67432 92.22481 18.84476 91.49236 19.0152 90.76402 19.18567 90.0399 19.35611 89.31999 19.52657 88.60422 19.697 87.89268 19.86746 87.18529 20.03792 86.48212 20.20836 85.78308 20.37881 85.08827 20.54927 84.39767 20.71971 83.71118 20.89017 83.02893 21.06062 82.35086 21.23108 81.67699 21.40152 81.00728 21.57196 80.34172 21.74243 79.68039 21.91287 79.02328 22.08333 78.37033 22.25377 77.72154 22.42422 77.07689 22.59468 76.43652 22.76512 75.8003 22.93556 75.16826 23.10603 74.54045 23.27647 73.91676 23.44693 73.29727 23.61737 72.68202 23.78783 72.07088 23.95828 71.46399 24.12872 70.86124 24.29918 70.26265 24.46964 69.66832 24.64008 69.07816 24.81053 68.49214 24.98097 67.91034 25.15144 67.33269 25.32188 66.75926 25.49232 66.19003 25.66278 65.62497 25.83324 65.06406 26.0037 64.50742 26.17413 63.95491 26.34457 63.40659 26.51505 62.86246 26.68549 62.32246 26.85594 61.78671 27.02638 61.25513 27.19684 60.72775 27.3673 60.20456 27.53773 59.6855 27.70819 59.17067 27.87865 58.66003 28.04909 58.15356 28.21954 57.65129 28.38998 57.15317 28.56046 56.65927 28.7309 56.16956 28.90134 55.68402 29.0718 55.20268 29.24225 54.7255 29.41269 54.2525 29.58315 53.78372 29.75359 53.31912 29.92406 52.8587 30.0945 52.40245 30.26494 51.9504 30.43541 51.50253 30.60585 51.05887 30.7763 50.61937 30.94675 50.18404 31.1172 49.75291 31.28766 49.32599 31.4581 48.90324 31.62856 48.48468 31.79901 48.07028 31.96945 47.6601 32.13991 47.25407 32.31035 46.85226 32.48082 46.45462 32.65126 46.06116 32.8217 45.67189 32.99216 45.28682 33.16261 44.90593 33.33307 44.52922 33.50351 44.15668 33.67395 43.78833 33.84442 43.42418 34.01486 43.06422 34.18532 42.70845 34.35576 42.35683 34.52621 42.00943 34.69667 41.6662 34.86711 41.32718 35.03757 40.99231 35.20802 40.66164 35.37846 40.33516 35.54892 40.01286 35.71936 39.69475 35.88982 39.38083 36.06027 39.07108 36.23071 38.76552 36.40117 38.46416 36.57162 38.16698 36.74207 37.874 36.91252 37.58516 37.08296 37.30054 37.25343 37.0201 37.42387 36.74384 37.59431 36.47177 37.76477 36.20389 37.93523 35.94017 38.10568 35.68068 38.27612 35.42534 38.44656 35.17421 38.61703 34.92723 38.78748 34.68448 38.95793 34.44589 39.12837 34.2115 39.29883 33.98128 39.46928 33.75523 39.63972 33.5334 39.8102 33.31575 39.98064 33.10228 40.15108 32.893 40.32153 32.6879 40.49199 32.48697 40.66245 32.29025 40.83289 32.0977 41.00333 31.90936 41.1738 31.72517 41.34424 31.5452 41.5147 31.3694 41.68513 31.19778 41.85559 31.03035 42.02605 30.86711 42.19649 30.70805 42.36693 30.55318 42.5374 30.4025 42.70784 30.25598 42.8783 30.11366 43.04874 29.97554 43.2192 29.8416 43.38965 29.71184 43.56009 29.58626 43.73055 29.46487 43.901 29.34769 44.07144 29.23466 44.2419 29.12582 44.41234 29.0212 44.58281 28.92072 44.75325 28.82445 44.92369 28.73238 45.09415 28.64445 45.2646 28.56076 45.43506 28.48122 45.6055 28.40588 45.77594 28.33472 45.94641 28.26773 46.11685 28.20496 46.28731 28.14635 46.45775 28.09192 46.6282 28.0417 46.79866 27.99565 46.9691 27.95378 47.13956 27.91612 47.31001 27.88263 47.48045 27.85333 47.65091 27.8282 47.82135 27.80727 47.99182 27.79053 48.16226 27.77797 48.3327 27.76959 48.50316 27.7654H48.67361L48.84407 27.76958 49.01451 27.77794 49.18497 27.7905 49.35542 27.80724 49.52586 27.82816 49.69632 27.85327 49.86678 27.88257 50.03722 27.91606 50.20767 27.95372 50.37811 27.99557 50.54858 28.04161 50.71902 28.09183 50.88947 28.14624 51.05992 28.20483 51.23038 28.26761 51.40083 28.33458 51.57127 28.40575 51.74171 28.48106 51.91219 28.56061 52.08263 28.6443 52.25308 28.73221 52.42352 28.82428 52.59398 28.92055 52.76443 29.021 52.93488 29.12563 53.10533 29.23447 53.27579 29.34746 53.44623 29.46466 53.61668 29.58604 53.78712 29.71161 53.9576 29.84135 54.12804 29.97528 54.29848 30.1134 54.46893 30.25572 54.63939 30.40222 54.80984 30.5529 54.98029 30.70776 55.15073 30.8668 55.3212 31.03004 55.49164 31.19746 55.6621 31.36906 55.83253 31.54486 56.00299 31.72484 56.17345 31.90901 56.34389 32.09735 56.51434 32.28989 56.6848 32.4866 56.85524 32.68753 57.0257 32.89262 57.19614 33.10188 57.36661 33.31535 57.53705 33.533 57.70749 33.75485 57.87796 33.98087 58.0484 34.21106 58.21886 34.44545 58.3893 34.68402 58.55975 34.9268 58.73021 35.17375 58.90065 35.42488 59.0711 35.68019 59.24156 35.93968 59.412 36.2034 59.58246 36.47127 59.7529 36.74333 59.92337 37.01958 60.09381 37.30002 60.26427 37.58464 60.43471 37.87344 60.60516 38.16643 60.77562 38.4636 60.94606 38.76497 61.1165 39.07053 61.28697 39.38025 61.45741 39.69417 61.62787 40.01227 61.79831 40.33456 61.96878 40.66104 62.13922 40.9917 62.30966 41.32654 62.48012 41.66557 62.65057 42.0088 62.82103 42.3562 62.99147 42.7078 63.16191 43.06357 63.33238 43.42352 63.50282 43.78767 63.67326 44.156 63.84372 44.52852 64.01418 44.90523 64.18463 45.28612 64.35507 45.6712 64.52551 46.06046 64.69598 46.45389 64.86642 46.85152 65.03688 47.25336 65.20732 47.65935 65.37778 48.06953 65.54823 48.4839 65.71867 48.90247 65.88913 49.3252 66.05959 49.75215 66.23003 50.18326 66.40048 50.61855 66.57092 51.05804 66.7414 51.50171 66.91183 51.94958 67.08228 52.40163 67.25275 52.85785 67.42319 53.31825 67.59364 53.78288 67.76408 54.25168 67.93454 54.72464 68.105 55.20178 68.27544 55.68312 68.44589 56.16864 68.61635 56.65839 68.78679 57.15227 68.95724 57.65036 69.12769 58.15262 69.29816 58.65907 69.4686 59.16974 69.63904 59.68457 69.8095 60.20358 69.97995 60.72678 70.15039 61.2542 70.32085 61.78574 70.49129 62.32149 70.66176 62.86145 70.8322 63.40553 71.00264 63.9539 71.1731 64.50641 71.34355 65.06305 71.514 65.6239 71.68445 66.18896 71.85489 66.75821 72.02536 67.33168 72.1958 67.90929 72.36626 68.49107 72.5367 69.07706 72.70715 69.6672 72.87761 70.26161 73.04805 70.86012 73.2185 71.46283 73.38896 72.06978 73.5594 72.68091 73.72986 73.29616 73.9003 73.9156 74.07077 74.53928 74.24121 75.16708 74.41165 75.79913 74.5821 76.43538 74.75256 77.07579 74.92302 77.72032 75.09346 78.36911 75.2639 79.02202 75.43437 79.67921 75.60481 80.34055 75.77527 81.00601 75.94571 81.6757 76.11617 82.34964 76.28662 83.02771 76.45706 83.70996 76.62752 84.3964 76.79797 85.087 76.96841 85.78186 77.13887 86.48083 77.30933 87.184 77.47977 87.89136 77.65022 88.6029 77.82066 89.3186 77.99113 90.03862 78.16158 90.76271 78.33202 91.49097 78.50247 92.22348 78.67293 92.96011 78.84338 93.70099 79.01382 94.44606 79.18427 95.19524 79.35474 95.94867 79.52518 96.70627 79.69563 97.46805 79.86607 98.23404 80.03653 99.00414 80.20699 99.77849 80.37743 100.55705 80.54788 101.33977 80.71834 102.1266 80.88878 102.9177 81.05923 103.71295 81.22968 104.51239 81.40015 105.31607 81.57059 106.12389 81.74103 106.93588 81.91148 107.75206 82.08194 108.57242 82.2524 109.39706 82.42284 110.2258 82.36414 109.93875"/>
<path transform="matrix(-.20044,-.97971877,-.97966,.20045203,16.90865,2.9169236)" stroke-width="1.19553" stroke-linecap="round" stroke-linejoin="round" fill="none" stroke="#1414cc" d="M-2.18182 2.9091C-2 1.81818 0 .18181 .54544 0 0-.18181-2-1.81818-2.18182-2.9091"/>
<path transform="matrix(.20045,-.9796988,-.97964,-.20046203,84.460147,2.9184724)" stroke-width="1.19553" stroke-linecap="round" stroke-linejoin="round" fill="none" stroke="#1414cc" d="M-2.18182 2.9091C-2 1.81818 0 .18181 .54544 0 0-.18181-2-1.81818-2.18182-2.9091"/>
<path transform="matrix(1,0,0,-1.00006,2.0960007,112.863819)" stroke-width=".74721" stroke-linecap="butt" stroke-miterlimit="10" stroke-linejoin="miter" fill="none" stroke="#ff801a" d="M.67622 41.64734H110.38333"/>
<path transform="matrix(-1,-0,0,1.00006,2.7722207,71.213977)" stroke-width=".59775" stroke-linecap="round" stroke-linejoin="round" fill="none" stroke="#ff801a" d="M-1.50932 2.01244C-1.38354 1.25775 0 .12576 .37732 0 0-.12576-1.38354-1.25775-1.50932-2.01244"/>
<path transform="matrix(1,0,0,-1.00006,112.47933,71.213977)" stroke-width=".59775" stroke-linecap="round" stroke-linejoin="round" fill="none" stroke="#ff801a" d="M-1.50932 2.01244C-1.38354 1.25775 0 .12576 .37732 0 0-.12576-1.38354-1.25775-1.50932-2.01244"/>
<use data-text="y" xlink:href="#font_4_1" transform="matrix(4.9813,0,0,-4.9815986,82.639,75.860599)" fill="#ff801a"/>
<use data-text="=" xlink:href="#font_5_52" transform="matrix(4.9813,0,0,-4.9815986,87.287,75.860599)" fill="#ff801a"/>
<use data-text="&#x2212;" xlink:href="#font_6_1" transform="matrix(4.9813,0,0,-4.9815986,93.239009,75.860599)" fill="#ff801a"/>
<use data-text="2" xlink:href="#font_7_1" transform="matrix(4.9813,0,0,-4.9815986,98.635,75.860599)" fill="#ff801a"/>
<path transform="matrix(1,0,0,-1.00006,2.0960007,112.863819)" stroke-width=".24907" stroke-linecap="butt" stroke-miterlimit="10" stroke-linejoin="miter" fill="none" stroke="#ff801a" d="M34.70612 41.64734"/>
<path transform="matrix(1,0,0,-1.00006,2.0960007,112.863819)" stroke-width=".24907" stroke-linecap="butt" stroke-miterlimit="10" stroke-linejoin="miter" fill="none" stroke="#ff801a" d="M62.47101 41.64734"/>
</g>
<path transform="matrix(1,0,0,-1.00006,2.0960007,112.863819)" d="M36.69867 41.64734C36.69867 42.7478 35.80658 43.6399 34.70612 43.6399 33.60564 43.6399 32.71356 42.7478 32.71356 41.64734 32.71356 40.54686 33.60564 39.65479 34.70612 39.65479 35.80658 39.65479 36.69867 40.54686 36.69867 41.64734ZM34.70612 41.64734" fill="#ff801a"/>
<path transform="matrix(1,0,0,-1.00006,2.0960007,112.863819)" stroke-width=".24907" stroke-linecap="butt" stroke-miterlimit="10" stroke-linejoin="miter" fill="none" stroke="#ff801a" d="M36.69867 41.64734C36.69867 42.7478 35.80658 43.6399 34.70612 43.6399 33.60564 43.6399 32.71356 42.7478 32.71356 41.64734 32.71356 40.54686 33.60564 39.65479 34.70612 39.65479 35.80658 39.65479 36.69867 40.54686 36.69867 41.64734ZM34.70612 41.64734"/>
<path transform="matrix(1,0,0,-1.00006,2.0960007,112.863819)" stroke-width=".24907" stroke-linecap="butt" stroke-miterlimit="10" stroke-linejoin="miter" fill="none" stroke="#ff801a" d=""/>
<path transform="matrix(1,0,0,-1.00006,2.0960007,112.863819)" d="M64.46356 41.64734C64.46356 42.7478 63.57147 43.6399 62.47101 43.6399 61.37053 43.6399 60.47845 42.7478 60.47845 41.64734 60.47845 40.54686 61.37053 39.65479 62.47101 39.65479 63.57147 39.65479 64.46356 40.54686 64.46356 41.64734ZM62.47101 41.64734" fill="#ff801a"/>
<path transform="matrix(1,0,0,-1.00006,2.0960007,112.863819)" stroke-width=".24907" stroke-linecap="butt" stroke-miterlimit="10" stroke-linejoin="miter" fill="none" stroke="#ff801a" d="M64.46356 41.64734C64.46356 42.7478 63.57147 43.6399 62.47101 43.6399 61.37053 43.6399 60.47845 42.7478 60.47845 41.64734 60.47845 40.54686 61.37053 39.65479 62.47101 39.65479 63.57147 39.65479 64.46356 40.54686 64.46356 41.64734ZM62.47101 41.64734"/>
<path transform="matrix(1,0,0,-1.00006,2.0960007,112.863819)" stroke-width=".24907" stroke-linecap="butt" stroke-miterlimit="10" stroke-linejoin="miter" fill="none" stroke="#ff801a" d=""/>
<use data-text="x" xlink:href="#font_8_1" transform="matrix(9.9626,0,0,-9.963197,103.965007,53.799276)"/>
<use data-text="y" xlink:href="#font_8_2" transform="matrix(9.9626,0,0,-9.963197,61.156003,9.585617)"/>
</svg>
