<svg xmlns="http://www.w3.org/2000/svg" xmlns:xlink="http://www.w3.org/1999/xlink" xmlns:inkscape="http://www.inkscape.org/namespaces/inkscape" version="1.1" width="211" height="139" viewBox="0 0 211 139">
<defs>
<clipPath id="clip_1">
<path transform="matrix(1.00006,0,0,-1,2.0959855,136.955)" d="M0 0H207.16648V135.15775H0Z"/>
</clipPath>
<path id="font_2_1" d="M.644989 .68193057C.6409912 .70692446 .6359863 .7109375 .61099246 .7109375 .58898928 .7109375 .58099368 .70692446 .5669861 .68592837L.17399597 .08502197C.1619873 .06600952 .1499939 .04798889 .07699585 .04699707 .06298828 .04699707 .04499817 .04699707 .04499817 .017990113 .04499817 .009994507 .051986696 0 .06399536 0 .09399414 0 .12799073 .0029907227 .15899658 .0029907227 .19599915 .0029907227 .23399353 0 .269989 0 .2769928 0 .29699708 0 .29699708 .0289917 .29699708 .04699707 .2789917 .04699707 .2709961 .04699707 .2630005 .04699707 .23498535 .04699707 .21299744 .057998659L.30499269 .19810486H.57499697L.59799197 .052001954C.57899478 .04798889 .5479889 .04699707 .5329895 .04699707 .5130005 .04699707 .49598695 .04699707 .49598695 .017990113 .49598695 .004989624 .5069885 0 .5179901 0 .5509949 0 .6339874 .0029907227 .6669922 .0029907227 .6899872 .0029907227 .71299746 .0019989014 .73599246 .0019989014 .7589874 .0019989014 .7829895 0 .80599978 0 .8149872 0 .83399966 0 .83399966 .0289917 .83399966 .04699707 .81900027 .04699707 .7939911 .04699707 .7799988 .04699707 .7689972 .04699707 .7549896 .04798889 .7429962 .04899597 .74198916 .049987794 .7389984 .06700134L.644989 .68193057M.5239868 .5329895 .56799319 .24511719H.33599855L.5239868 .5329895Z"/>
<path id="font_2_2" d="M.16299439 .066986087C.15899658 .050994874 .1579895 .049987794 .13999939 .04798889 .12298584 .04699707 .102996829 .04699707 .08699036 .04699707 .06098938 .04699707 .05899048 .04699707 .054992677 .04499817 .042999269 .037994386 .042999269 .021987915 .042999269 .017990113 .042999269 0 .06098938 0 .07699585 0H.5009918C.70999148 0 .80400088 .13195801 .80400088 .22091675 .80400088 .3068695 .72898867 .34985353 .6369934 .35786439 .7969971 .38684083 .85398867 .47973634 .85398867 .5466461 .85398867 .6285553 .7819977 .6855469 .6409912 .6855469H.23999024C.21998596 .6855469 .20298767 .6855469 .20298767 .6565399 .20298767 .63853457 .21598816 .63853457 .24499512 .63853457 .2659912 .63853457 .2849884 .6375427 .30599977 .63653567L.16299439 .066986087M.43099977 .6205597C.43499757 .6355438 .43598939 .63653567 .44198609 .6375427 .45098878 .63853457 .45799256 .63853457 .46899415 .63853457H.6179962C.6380005 .63853457 .71899417 .63853457 .71899417 .551651 .71899417 .48173524 .6629944 .37486268 .5269928 .37486268H.36898805L.43099977 .6205597M.31199647 .04699707C.29699708 .04699707 .29499818 .04699707 .28799439 .04798889L.3600006 .3388672H.5549927C.58099368 .3388672 .6649933 .3388672 .6649933 .23690796 .6649933 .15994263 .6139984 .04699707 .47200013 .04699707H.31199647Z"/>
<path id="font_2_3" d="M.85198977 .67311099C.8529968 .67811587 .8549957 .6831207 .8549957 .68911746 .8549957 .703125 .84098818 .703125 .8299866 .703125L.7369995 .63113406C.69099429 .68211367 .6230011 .703125 .55400088 .703125 .23199463 .703125 .054992677 .45820619 .054992677 .2532959 .054992677 .06437683 .20599365-.016601563 .3809967-.016601563 .46499635-.016601563 .5499878 .009384155 .6259918 .06536865 .72299197 .13734436 .7409973 .22930908 .7409973 .2342987 .7409973 .24829102 .72698977 .24829102 .71798709 .24829102 .69898989 .24829102 .69799807 .24629212 .69299319 .22930908 .6519928 .10235596 .5219879 .030395508 .4079895 .030395508 .34700013 .030395508 .29299928 .044387819 .2519989 .07637024 .19799805 .11735535 .19400025 .185318 .19400025 .21231079 .19400025 .24130249 .20999146 .42822267 .30899049 .5441742 .36299134 .60813906 .45999146 .6561127 .56999209 .6561127 .69200137 .6561127 .7429962 .5641632 .7429962 .4761963 .7429962 .46520997 .73999026 .4512024 .73999026 .4412079 .73999026 .42622376 .7529907 .42622376 .7669983 .42622376 .78900149 .42622376 .7899933 .42721559 .79499819 .44821168L.85198977 .67311099Z"/>
<path id="font_2_4" d="M.16299439 .066970828C.15899658 .050994874 .1579895 .049987794 .13999939 .04798889 .12298584 .04699707 .102996829 .04699707 .08699036 .04699707 .06098938 .04699707 .05899048 .04699707 .054992677 .04499817 .042999269 .037994386 .042999269 .021987915 .042999269 .017990113 .042999269 0 .06098938 0 .07699585 0H.46798707C.7549896 0 .9149933 .23583985 .9149933 .4386902 .9149933 .611557 .7879944 .6855469 .6389923 .6855469H.23999024C.21998596 .6855469 .20298767 .6855469 .20298767 .6565399 .20298767 .63853457 .21598816 .63853457 .24499512 .63853457 .2659912 .63853457 .2849884 .6375427 .30599977 .63653567L.16299439 .066970828M.43598939 .62054446C.43998719 .6355438 .44099427 .63653567 .44699098 .6375427 .45599366 .63853457 .46299745 .63853457 .47399903 .63853457H.58799746C.61698916 .63853457 .6839905 .6355438 .7319946 .5975647 .7819977 .555603 .7819977 .49664308 .7819977 .47366334 .7819977 .40371705 .7449951 .26582337 .71798709 .20986939 .6599884 .09295654 .55599978 .04699707 .44099427 .04699707H.31698609C.3019867 .04699707 .2999878 .04699707 .29299928 .04798889L.43598939 .62054446Z"/>
<path id="font_3_1" d="M.33399964 .30233766C.33999635 .32835389 .36299134 .42037965 .43299867 .42037965 .43798829 .42037965 .46199037 .42037965 .48298646 .40734864 .45498658 .402359 .43499757 .37734986 .43499757 .35334779 .43499757 .33735658 .44599916 .31835938 .47299195 .31835938 .49499513 .31835938 .5269928 .3363495 .5269928 .37635804 .5269928 .42837525 .46798707 .4423828 .43399049 .4423828 .37599183 .4423828 .34098817 .38935853 .32899476 .36634828 .3039856 .43237306 .25 .4423828 .22099304 .4423828 .116989139 .4423828 .05999756 .3133545 .05999756 .28834535 .05999756 .27833558 .069992069 .27833558 .07199097 .27833558 .07998657 .27833558 .08299255 .28033448 .084991458 .28933717 .11898804 .39535523 .18499756 .42037965 .21899414 .42037965 .23799134 .42037965 .272995 .4113617 .272995 .35334779 .272995 .32235719 .2559967 .25532533 .21899414 .11528015 .20298767 .053268434 .16799927 .011245728 .12399292 .011245728 .117996219 .011245728 .09498596 .011245728 .07398987 .024276734 .09899902 .029266358 .12098694 .05027771 .12098694 .07827759 .12098694 .105270389 .09899902 .11328125 .083999637 .11328125 .053985597 .11328125 .0289917 .08728027 .0289917 .055267335 .0289917 .009246826 .07899475-.0107421879 .12298584-.0107421879 .18899536-.0107421879 .22499085 .059280397 .22799683 .0652771 .23999024 .028274537 .27598573-.0107421879 .33599855-.0107421879 .43899537-.0107421879 .49598695 .118270877 .49598695 .14328003 .49598695 .1532898 .4869995 .1532898 .48399354 .1532898 .47499085 .1532898 .47299195 .14929199 .47099305 .14228821 .43798829 .03527832 .36999513 .011245728 .33799745 .011245728 .29899598 .011245728 .2829895 .043273927 .2829895 .07727051 .2829895 .09927368 .2889862 .121276859 .2999878 .16529846L.33399964 .30233766Z"/>
<path id="font_3_2" d="M.48599244 .38136292C.48999024 .39537049 .48999024 .39736939 .48999024 .40437318 .48999024 .42237855 .47599793 .43138124 .46099855 .43138124 .45098878 .43138124 .43499757 .42536927 .42599488 .41036988 .42399598 .405365 .41600038 .37435914 .4119873 .35635377 .40499879 .33035279 .397995 .30334474 .3919983 .27633668L.34700013 .09628296C.34298707 .08126831 .2999878 .011245728 .23399353 .011245728 .18299866 .011245728 .17199707 .055267335 .17199707 .0922699 .17199707 .1382904 .18899536 .20030213 .22299195 .28833009 .23899842 .3293457 .24299622 .3403473 .24299622 .36035157 .24299622 .405365 .21099854 .4423828 .16099549 .4423828 .06599426 .4423828 .0289917 .29733277 .0289917 .28833009 .0289917 .27833558 .038986207 .27833558 .040985109 .27833558 .050994874 .27833558 .051986696 .28033448 .056991579 .29634095 .083999637 .3903656 .12399292 .42037965 .1579895 .42037965 .1659851 .42037965 .18299866 .42037965 .18299866 .3883667 .18299866 .36335755 .17298889 .3373413 .1659851 .31834413 .12599182 .21231079 .10798645 .1552887 .10798645 .10827637 .10798645 .019256592 .17098999-.0107421879 .22999573-.0107421879 .2689972-.0107421879 .30299378 .0062561037 .33099366 .03425598 .31799317-.017745972 .30599977-.06674194 .2659912-.11973572 .23999024-.15385437 .20199585-.18309021 .1559906-.18309021 .14199829-.18309021 .09700012-.18005371 .07998657-.14074707 .09599304-.14074707 .10899353-.14074707 .12298584-.1287384 .1329956-.11973572 .14299011-.10673523 .14299011-.08773804 .14299011-.056747438 .115997318-.052734376 .10598755-.052734376 .08299255-.052734376 .049987794-.068740848 .049987794-.11773682 .049987794-.16796875 .09399414-.20507813 .1559906-.20507813 .25898744-.20507813 .3619995-.11373901 .3899994-.00074768069L.48599244 .38136292Z"/>
</defs>
<path transform="matrix(1.00006,0,0,-1,2.0959855,136.955)" stroke-width=".3985" stroke-linecap="butt" stroke-miterlimit="10" stroke-linejoin="miter" fill="none" stroke="#404040" d="M0 0H207.16648V135.15775H0Z"/>
<path transform="matrix(1.00006,0,0,-1,2.0959855,136.955)" stroke-width=".3985" stroke-linecap="butt" stroke-miterlimit="10" stroke-linejoin="miter" fill="none" stroke="#bfbfbf" d=""/>
<path transform="matrix(1.00006,0,0,-1,2.0959855,136.955)" stroke-width=".3985" stroke-linecap="butt" stroke-miterlimit="10" stroke-linejoin="miter" fill="none" stroke="#bfbfbf" d=""/>
<path transform="matrix(1.00006,0,0,-1,2.0959855,136.955)" stroke-width=".19925" stroke-linecap="butt" stroke-miterlimit="10" stroke-linejoin="miter" fill="none" stroke="#7f807f" d=""/>
<path transform="matrix(1.00006,0,0,-1,2.0959855,136.955)" stroke-width=".19925" stroke-linecap="butt" stroke-miterlimit="10" stroke-linejoin="miter" fill="none" stroke="#7f807f" d=""/>
<path transform="matrix(1.00006,0,0,-1,2.0959855,136.955)" stroke-width=".3985" stroke-linecap="butt" stroke-miterlimit="10" stroke-linejoin="miter" fill="none" stroke="#000000" d="M0 67.57887H205.17395"/>
<path transform="matrix(1.00006,0,0,-1,207.28223,69.37613)" d="M1.99252 0-1.19551 1.59401 0 0-1.19551-1.59401"/>
<path transform="matrix(1.00006,0,0,-1,2.0959855,136.955)" stroke-width=".3985" stroke-linecap="butt" stroke-miterlimit="10" stroke-linejoin="miter" fill="none" stroke="#000000" d="M29.5952 0V133.16522"/>
<path transform="matrix(0,-1,-1.00006,-0,31.692959,3.7897797)" d="M1.99252 0-1.19551 1.59401 0 0-1.19551-1.59401"/>
<g clip-path="url(#clip_1)">
<path transform="matrix(1.00006,0,0,-1,2.0959855,136.955)" stroke-width=".99628" stroke-linecap="butt" stroke-miterlimit="10" stroke-linejoin="miter" fill="none" stroke="#1414cc" d="M29.65128 1.0393 30.08156 25.45773 30.52649 32.11752 30.97144 36.1219 31.41637 38.99345 31.8613 41.23346 32.30623 43.07285 32.75116 44.63065 33.1961 45.98302 33.64104 47.17725 34.08597 48.24702 34.5309 49.21509 34.97585 50.09947 35.42079 50.91345 35.86572 51.66966 36.31065 52.37271 36.75558 53.03003 37.20052 53.64803 37.64546 54.23091 38.09038 54.78258 38.53532 55.30563 38.98026 55.8037 39.42519 56.2782 39.87012 56.73143 40.31505 57.16664 40.76 57.58353 41.20493 57.98389 41.64986 58.37039 42.09479 58.74194 42.53972 59.10046 42.98466 59.44698 43.4296 59.78247 43.87453 60.10674 44.31946 60.42148 44.76439 60.7265 45.20932 61.023 45.65427 61.31088 46.0992 61.59117 46.54413 61.86389 46.98906 62.12932 47.43399 62.3882 47.87894 62.64072 48.32387 62.88739 48.7688 63.128 49.21373 63.36351 49.65868 63.59326 50.10362 63.81747 50.54855 64.0376 50.99348 64.25299 51.43842 64.4636 51.88335 64.67006 52.32828 64.87325 52.77322 65.07146 53.21815 65.26675 53.66309 65.45929 54.10802 65.6468 54.55295 65.83125 54.9979 66.0124 55.44283 66.19029 55.88776 66.36539 56.33269 66.53743 56.77762 66.7069 57.22256 66.87329 57.6675 67.03712 58.11243 67.1984 58.55736 67.35721 59.00229 67.51346 59.44722 67.66743 59.89215 67.81877 60.33708 67.96825 60.78201 68.11557 61.22694 68.26074 61.67188 68.40419 62.1168 68.54535 62.56174 68.68488 63.00667 68.82227 63.4516 68.9577 63.89653 69.09158 64.34148 69.22385 64.7864 69.35428 65.23134 69.48323 65.67627 69.61024 66.1212 69.73584 66.56613 69.86021 67.01106 69.98254 67.456 70.10391 67.90091 70.22377 68.34584 70.34187 68.79077 70.45915 69.2357 70.5746 69.68063 70.68922 70.12556 70.80261 70.5705 70.91415 71.01543 71.02458 71.46036 71.13438 71.90529 71.24261 72.35022 71.35028 72.79515 71.45631 73.24008 71.56096 73.68501 71.66513 74.12994 71.76797 74.57487 71.86978 75.0198 71.97118 75.46474 72.07074 75.90967 72.16934 76.35458 72.26747 76.79951 72.36446 77.24445 72.46135 77.68938 72.55608 78.13431 72.6504 78.57925 72.7441 79.02419 72.8366 79.46912 72.92824 79.91405 73.0203 80.35898 73.10991 80.80391 73.19878 81.24884 73.2882 81.69377 73.37564 82.1387 73.4634 82.58363 73.5493 83.02856 73.63492 83.4735 73.72034 83.91843 73.8043 84.36336 73.88715 84.80827 73.9709 85.2532 74.0524 85.69814 74.13556 86.14307 74.21562 86.588 74.29541 87.03293 74.37659 87.47786 74.45512 87.92279 74.53284 88.36772 74.61186 88.81265 74.6899 89.25758 74.7665 89.70251 74.84265 90.14745 74.91823 90.59238 74.99318 91.03731 75.0677 91.48224 75.1416 91.92717 75.21513 92.3721 75.28802 92.81705 75.36029 93.26196 75.43257 93.7069 75.50394 94.15182 75.57455 94.59676 75.645 95.04169 75.71513 95.48662 75.78453 95.93155 75.85365 96.37648 75.92201 96.82141 75.9901 97.26634 76.05766 97.71127 76.12492 98.1562 76.19185 98.60114 76.25812 99.04607 76.32391 99.491 76.38954 99.93593 76.45422 100.38086 76.51913 100.82579 76.58351 101.27072 76.64706 101.71564 76.71065 102.16057 76.77357 102.6055 76.83624 103.05043 76.89886 103.49536 76.96048 103.94029 77.02231 104.38522 77.08342 104.83015 77.1441 105.27509 77.20479 105.72002 77.26477 106.16495 77.32455 106.60988 77.38402 107.05482 77.44296 107.49976 77.5014 107.94469 77.55994 108.38962 77.61797 108.83455 77.6757 109.27948 77.733 109.7244 77.7899 110.16933 77.84691 110.61426 77.90367 111.05919 77.9592 111.50412 78.01518 111.94905 78.07048 112.39398 78.1259 112.83891 78.18097 113.28384 78.23582 113.72878 78.29 114.1737 78.34418 114.61864 78.39778 115.06357 78.45174 115.5085 78.50468 115.95343 78.55772 116.39836 78.61021 116.84329 78.66202 117.28822 78.71428 117.73315 78.7671 118.17807 78.81847 118.623 78.86948 119.06793 78.92052 119.51286 78.9712 119.9578 79.02267 120.40273 79.07268 120.84766 79.12279 121.2926 79.17247 121.73753 79.22202 122.18246 79.27101 122.6274 79.32103 123.07233 79.36946 123.51726 79.41812 123.96219 79.4662 124.40712 79.5144 124.85205 79.56319 125.29698 79.61072 125.74191 79.65813 126.18684 79.70522 126.63176 79.75206 127.07669 79.79892 127.52162 79.846 127.96655 79.89275 128.41149 79.93903 128.85642 79.98442 129.30135 80.03082 129.74628 80.07645 130.19121 80.1224 130.63614 80.16711 131.08107 80.21194 131.526 80.25667 131.97093 80.30194 132.41587 80.34665 132.8608 80.39069 133.30573 80.43427 133.75066 80.47797 134.19559 80.52158 134.64052 80.56583 135.08544 80.60896 135.53038 80.65222 135.97531 80.69444 136.42024 80.73726 136.86518 80.78107 137.3101 80.82286 137.75504 80.8652 138.19997 80.90643 138.6449 80.94855 139.08983 80.98955 139.53476 81.03258 139.97969 81.0729 140.42462 81.1149 140.86956 81.15558 141.31449 81.19601 141.75942 81.23767 142.20435 81.27834 142.64928 81.31833 143.09421 81.3582 143.53913 81.39761 143.98406 81.43782 144.42899 81.47926 144.87392 81.51768 145.31885 81.55687 145.76378 81.59642 146.20871 81.63481 146.65364 81.6757 147.09857 81.71411 147.5435 81.75262 147.98844 81.79251 148.43337 81.83102 148.8783 81.8692 149.32323 81.90738 149.76818 81.94534 150.2131 81.98352 150.65804 82.02092 151.10297 82.05853 151.54788 82.09627 151.99282 82.13332 152.43775 82.17061 152.88268 82.20755 153.3276 82.24472 153.77254 82.28143 154.21747 82.31804 154.6624 82.35464 155.10733 82.39102 155.55226 82.42717 155.9972 82.46333 156.44213 82.49915 156.88706 82.53554 157.33199 82.57112 157.77692 82.6066 158.22185 82.64207 158.66678 82.67767 159.11171 82.71303 159.55664 82.74808 160.00156 82.7831 160.44649 82.81822 160.89142 82.85281 161.33635 82.8876 161.78128 82.92197 162.22621 82.95677 162.67115 82.99089 163.11608 83.02492 163.561 83.05891 164.00595 83.0934 164.45088 83.12718 164.89582 83.16086 165.34075 83.19453 165.78568 83.2281 166.2306 83.26167 166.67554 83.29512 167.12047 83.32811 167.5654 83.36134 168.01033 83.39445 168.45525 83.42723 168.90018 83.46011 169.34511 83.49289 169.79004 83.52545 170.23497 83.55777 170.6799 83.59044 171.12483 83.62265 171.56977 83.65474 172.0147 83.68686 172.45963 83.71872 172.90456 83.75072 173.34949 83.78214 173.79442 83.81412 174.23935 83.84555 174.68428 83.87708 175.12921 83.90851 175.57415 83.93971 176.01908 83.9709 176.464 84.00221 176.90892 84.03308 177.35385 84.06404 177.79878 84.09491 178.24373 84.12578 178.68866 84.15652 179.13359 84.18658 179.57852 84.21745 180.02346 84.24753 180.46839 84.27783 180.91332 84.30823 181.35825 84.3382 181.80318 84.36804 182.24811 84.398 182.69304 84.42784 183.13797 84.45758 183.5829 84.48753 184.02783 84.51704 184.47277 84.54655 184.9177 84.57562 185.36261 84.60503 185.80754 84.63443 186.25247 84.6637 186.6974 84.69254 187.14234 84.72171 187.58727 84.75066 188.0322 84.77937 188.47713 84.80832 188.92206 84.8366 189.36699 84.86542 189.81192 84.8938 190.25685 84.92253 190.70178 84.95102 191.14672 84.97873 191.59165 85.00699 192.03658 85.03493 192.4815 85.06322 192.92646 85.09091 193.37139 85.11906 193.8163 85.14711 194.26123 85.17448 194.70616 85.2023 195.1511 85.22957 195.59603 85.25749 196.04096 85.28508 196.48589 85.31224 196.93082 85.33937 197.37575 85.36652 197.82068 85.39389 198.26561 85.42104 198.71054 85.44783 199.15547 85.47488 199.6004 85.5019 200.04534 85.52849 200.49027 85.5553 200.9352 85.58154 201.38013 85.60857 201.82505 85.63481 202.26998 85.66127 202.7149 85.68797 203.15984 85.71387 203.60477 85.74034 204.0497 85.76636 204.49463 85.7925 204.93956 85.81818 205.38449 85.8443 205.82942 85.87067 206.27436 85.89644 206.71929 85.92236 206.33371 85.90053"/>
<path transform="matrix(-.017611057,.99983,.99988999,.01761,31.749054,135.91568)" stroke-width=".79701" stroke-linecap="round" stroke-linejoin="round" fill="none" stroke="#1414cc" d="M-1.73352 2.31136C-1.58905 1.4446 0 .14444 .43336 0 0-.14444-1.58905-1.4446-1.73352-2.31136"/>
<path transform="matrix(.99840989,-.05656,-.05656339,-.99835,208.44205,51.05449)" stroke-width=".79701" stroke-linecap="round" stroke-linejoin="round" fill="none" stroke="#1414cc" d="M-1.73352 2.31136C-1.58905 1.4446 0 .14444 .43336 0 0-.14444-1.58905-1.4446-1.73352-2.31136"/>
<path transform="matrix(1.00006,0,0,-1,2.0959855,136.955)" stroke-width=".99628" stroke-linecap="butt" stroke-miterlimit="10" stroke-linejoin="miter" fill="none" stroke="#1414cc" d="M30.895 1.10811 31.28012 6.7331 31.72205 11.67987 32.16397 15.68842 32.6059 19.05835 33.04782 21.9665 33.48973 24.52211 33.93166 26.80515 34.3736 28.86404 34.81552 30.74162 35.25745 32.46713 35.69936 34.06424 36.1413 35.54648 36.58322 36.9341 37.02515 38.23724 37.46706 39.46379 37.90898 40.62277 38.3509 41.72205 38.79285 42.76727 39.23476 43.76407 39.67668 44.71468 40.1186 45.62698 40.56053 46.49797 41.00247 47.33437 41.44438 48.14577 41.8863 48.92259 42.32823 49.67294 42.77016 50.39728 43.21208 51.09761 43.654 51.77577 44.09593 52.43286 44.53786 53.07013 44.97977 53.68915 45.4217 54.28981 45.86363 54.87415 46.30556 55.44305 46.74747 55.9965 47.18939 56.53703 47.63133 57.06314 48.07326 57.5773 48.51518 58.07884 48.95709 58.57037 49.39902 59.05017 49.84094 59.5167 50.28288 59.97478 50.7248 60.42282 51.16672 60.8622 51.60864 61.29391 52.05058 61.71516 52.4925 62.12895 52.93442 62.53185 53.37634 62.93506 53.81827 63.32578 54.2602 63.70918 54.70212 64.08684 55.14404 64.45694 55.58597 64.82085 56.0279 65.17947 56.46982 65.53122 56.91174 65.87749 57.35367 66.21823 57.7956 66.55344 58.2375 66.884 58.67943 67.20859 59.12135 67.52855 59.5633 67.84424 60.00522 68.15524 60.44713 68.46118 60.88905 68.76349 61.33098 69.06071 61.7729 69.35475 62.21483 69.64369 62.65675 69.93016 63.09868 70.2123 63.5406 70.49016 63.98251 70.76486 64.42444 71.03586 64.86636 71.30357 65.30829 71.5676 65.7502 71.82935 66.19212 72.08661 66.63406 72.34181 67.07599 72.59344 67.51791 72.84213 67.95982 73.0889 68.40175 73.33174 68.84367 73.57153 69.2856 73.80963 69.72751 74.04446 70.16943 74.27682 70.61137 74.50659 71.0533 74.73376 71.49521 74.95915 71.93713 75.18214 72.37906 75.40169 72.82098 75.61961 73.26291 75.83563 73.70482 76.05032 74.14674 76.26184 74.58867 76.47202 75.03061 76.67914 75.47252 76.88414 75.91444 77.08777 76.35637 77.28903 76.7983 77.48863 77.2402 77.68697 77.68213 77.88216 78.12405 78.07611 78.56598 78.26904 79.00792 78.4594 79.44983 78.64917 79.89175 78.83649 80.33368 79.02222 80.7756 79.20671 81.21751 79.3878 81.65944 79.57005 82.10136 79.7479 82.54329 79.92552 82.98521 80.10246 83.42714 80.27727 83.86906 80.44981 84.31099 80.62146 84.75291 80.79526 85.19482 80.96454 85.63675 81.13135 86.07867 81.29805 86.5206 81.46373 86.96251 81.62682 87.40445 81.7907 87.84637 81.95221 88.2883 82.1117 88.73021 82.26994 89.17213 82.43236 89.61406 82.58914 90.05598 82.74434 90.4979 82.89943 90.93982 83.05296 91.38176 83.20525 91.82368 83.35617 92.26561 83.50653 92.70752 83.65587 93.14944 83.80388 93.59137 83.95097 94.0333 84.09705 94.4752 84.24223 94.91713 84.3864 95.35905 84.52943 95.801 84.6718 96.2429 84.8135 96.68483 84.95338 97.12675 85.09305 97.56868 85.23158 98.0106 85.369 98.45251 85.50595 98.89444 85.64134 99.33636 85.77628 99.7783 85.91052 100.22021 86.04366 100.66214 86.17622 101.10406 86.30768 101.54599 86.43901 101.9879 86.5684 102.42982 86.6976 102.87175 86.826 103.31367 86.95338 103.75562 87.08087 104.19753 87.20703 104.63945 87.33217 105.08138 87.45673 105.5233 87.58052 105.96521 87.7035 106.40714 87.82628 106.84906 87.9478 107.29099 88.0699 107.7329 88.18974 108.17484 88.3098 108.61676 88.4293 109.05869 88.54689 109.50061 88.66481 109.94252 88.78174 110.38445 88.89886 110.82637 89.01262 111.2683 89.12863 111.7102 89.24353 112.15215 89.35728 112.59407 89.47104 113.036 89.58255 113.4779 89.6963 113.91983 89.80782 114.36176 89.91705 114.80368 90.02744 115.24559 90.13782 115.68752 90.24707 116.12944 90.35518 116.57138 90.46445 117.0133 90.57257 117.45522 90.67957 117.89714 90.78545 118.33907 90.89244 118.78099 90.9972 119.2229 91.10194 119.66483 91.2067 120.10675 91.31032 120.54869 91.41393 120.9906 91.51529 121.43253 91.61891 121.87445 91.72255 122.31638 91.82166 122.7583 91.92302 123.20021 92.0244 123.64214 92.12463 124.08406 92.22263 124.52599 92.32175 124.96791 92.42198 125.40984 92.51996 125.85176 92.6157 126.29369 92.71144 126.7356 92.80943 127.17752 92.9063 127.61945 93.00203 128.06137 93.09665 128.5033 93.19125 128.94522 93.28587 129.38715 93.38048 129.82907 93.47621 130.271 93.56969 130.7129 93.66206 131.15483 93.75441 131.59676 93.8479 132.03868 93.93913 132.48059 94.03035 132.92253 94.12158 133.36446 94.21283 133.80638 94.3018 134.2483 94.39078 134.69022 94.48088 135.13214 94.56985 135.57407 94.65883 136.01599 94.74669 136.4579 94.83453 136.89983 94.9224 137.34177 95.01024 137.78369 95.09584 138.2256 95.18144 138.66753 95.2693 139.10945 95.3549 139.55138 95.43938 139.99329 95.52498 140.43521 95.60945 140.87714 95.6973 141.31908 95.77953 141.761 95.864 142.20291 95.94621 142.64484 96.03069 143.08676 96.11179 143.52869 96.194 143.9706 96.27623 144.41252 96.35844 144.85445 96.43954 145.29637 96.52063 145.7383 96.60175 146.18022 96.6817 146.62215 96.76166 147.06407 96.84164 147.506 96.92273 147.9479 97.00159 148.38983 97.0838 148.83176 97.16263 149.27368 97.24036 149.7156 97.3192 150.15753 97.39691 150.59946 97.47575 151.04138 97.55121 151.48329 97.62894 151.92522 97.70665 152.36714 97.78212 152.80907 97.8587 153.25099 97.93529 153.69292 98.01076 154.13484 98.08621 154.57677 98.16168 155.01869 98.23601 155.4606 98.31148 155.90253 98.38469 156.34445 98.45903 156.78638 98.53337 157.22829 98.60658 157.67021 98.68091 158.11215 98.753 158.55408 98.82733 158.99599 98.89941 159.43791 98.9715 159.87984 99.0436 160.32176 99.11568 160.76369 99.18774 161.2056 99.25984 161.64752 99.32855 162.08946 99.40062 162.53139 99.47159 162.9733 99.54143 163.41522 99.61237 163.85715 99.6822 164.29907 99.7509 164.74098 99.82187 165.1829 99.89056 165.62483 99.95927 166.06676 100.02797 166.5087 100.0967 166.9506 100.16539 167.39253 100.2341 167.83446 100.3028 168.27639 100.37039 168.71829 100.43683 169.16022 100.50441 169.60214 100.57088 170.04407 100.63844 170.486 100.7049 170.92792 100.77135 171.36985 100.8378 171.81177 100.90425 172.2537 100.96959 172.6956 101.03491 173.13753 101.10023 173.57946 101.16556 174.02138 101.2309 174.46329 101.29622 174.90523 101.36154 175.34716 101.4246 175.78908 101.49106 176.23099 101.55301 176.67292 101.61833 177.11484 101.68143 177.55677 101.74449 177.99869 101.80757 178.4406 101.87064 178.88254 101.93372 179.32447 101.99567 179.76639 102.05986 180.2083 102.12181 180.65023 102.18375 181.09215 102.2457 181.53408 102.3065 181.97599 102.37184 182.41791 102.4304 182.85985 102.49236 183.30178 102.5543 183.74369 102.61513 184.18561 102.67482 184.62754 102.73453 185.06946 102.79535 185.51139 102.85503 185.9533 102.91698 186.39522 102.97556 186.83715 103.03525 187.27909 103.09607 187.721 103.15575 188.16292 103.21432 188.60485 103.2729 189.04677 103.33145 189.48868 103.39116 189.9306 103.44972 190.37253 103.5083 190.81446 103.5646 191.2564 103.62543 191.6983 103.68175 192.14023 103.74031 192.58216 103.79663 193.02408 103.8552 193.46599 103.91602 193.90792 103.97008 194.34984 104.0264 194.79177 104.08383 195.23368 104.14128 195.67562 104.1976 196.11754 104.25166 196.55947 104.3091 197.00139 104.36542 197.4433 104.42061 197.88523 104.47693 198.32715 104.53323 198.76908 104.58955 199.21099 104.64249 199.65293 104.69882 200.09485 104.754 200.53678 104.80917 200.97869 104.86438 201.42061 104.91956 201.86254 104.9725 202.30446 105.0277 202.74639 105.08063 203.1883 105.13582 203.63024 105.18877 204.07216 105.24281 204.51409 105.29575 204.956 105.35095 205.39792 105.40388 205.83985 105.45682 206.28177 105.5109 206.72368 105.56383 206.33919 105.51973"/>
<path transform="matrix(-.0683041,.99763,.99768987,.0683,32.99286,135.8469)" stroke-width=".79701" stroke-linecap="round" stroke-linejoin="round" fill="none" stroke="#1414cc" d="M-1.73352 2.31136C-1.58905 1.4446 0 .14444 .43336 0 0-.14444-1.58905-1.4446-1.73352-2.31136"/>
<path transform="matrix(.9934995,-.11392,-.113926839,-.99344,208.44754,31.435273)" stroke-width=".79701" stroke-linecap="round" stroke-linejoin="round" fill="none" stroke="#1414cc" d="M-1.73352 2.31136C-1.58905 1.4446 0 .14444 .43336 0 0-.14444-1.58905-1.4446-1.73352-2.31136"/>
<path transform="matrix(1.00006,0,0,-1,2.0959855,136.955)" stroke-width=".99628" stroke-linecap="butt" stroke-miterlimit="10" stroke-linejoin="miter" fill="none" stroke="#1414cc" d="M30.10303 133.94028 30.51257 124.02637 30.95642 117.61314 31.40027 113.02902 31.84412 109.45636 32.28798 106.52795 32.73183 104.04893 33.17567 101.89767 33.61954 100.00095 34.06339 98.30133 34.50723 96.76166 34.9511 95.35715 35.39494 94.06415 35.83878 92.8635 36.28262 91.74731 36.72649 90.70209 37.17033 89.7222 37.61418 88.7975 38.05804 87.92235 38.50189 87.09227 38.94574 86.30159 39.3896 85.54695 39.83345 84.82724 40.2773 84.13907 40.72115 83.47903 41.16501 82.84145 41.60884 82.2285 42.05269 81.6392 42.49655 81.07042 42.9404 80.52078 43.38425 79.98915 43.8281 79.47409 44.27196 78.97504 44.7158 78.49127 45.15965 78.02103 45.60352 77.56488 46.04735 77.12033 46.4912 76.68839 46.93506 76.26636 47.3789 75.85559 47.82275 75.45564 48.2666 75.06479 48.71046 74.68253 49.15431 74.31017 49.59816 73.94547 50.04202 73.58786 50.48587 73.24051 50.92972 72.89902 51.37358 72.56325 51.81741 72.23718 52.26126 71.91563 52.70511 71.59991 53.14897 71.2931 53.59282 70.98596 54.03667 70.68805 54.48053 70.396 54.92438 70.10878 55.36823 69.82642 55.81207 69.54912 56.25594 69.27599 56.69978 69.0078 57.14363 68.74391 57.5875 68.48393 58.03133 68.2285 58.47517 67.97662 58.91904 67.72884 59.36288 67.48445 59.80673 67.24446 60.25056 67.00739 60.69443 66.77357 61.13828 66.5438 61.5821 66.31664 62.02597 66.09274 62.46982 65.8716 62.91365 65.65364 63.3575 65.43864 63.80136 65.22621 64.2452 65.01672 64.68904 64.81004 65.1329 64.60619 65.57674 64.404 66.02058 64.20453 66.46443 64.00787 66.90828 63.81404 67.35213 63.62144 67.79596 63.43176 68.23982 63.24413 68.68367 63.05896 69.1275 62.87503 69.57137 62.69347 70.01521 62.51495 70.45905 62.33699 70.90291 62.16139 71.34676 61.98807 71.79059 61.8163 72.23444 61.64589 72.6783 61.47762 73.12213 61.31137 73.56598 61.14659 74.00984 60.98328 74.45367 60.8212 74.89752 60.66217 75.34138 60.5038 75.78522 60.34624 76.22906 60.19046 76.67291 60.03717 77.11676 59.88501 77.56061 59.73296 78.00444 59.58406 78.4483 59.4364 78.89215 59.28941 79.33598 59.14265 79.77983 58.9986 80.2237 58.856 80.66753 58.7141 81.11137 58.57285 81.55524 58.43352 81.99907 58.2969 82.44292 58.15825 82.88678 58.02287 83.33061 57.88838 83.77446 57.75558 84.2183 57.62134 84.66216 57.49147 85.106 57.36127 85.54985 57.23254 85.9937 57.10243 86.43755 56.97618 86.8814 56.8497 87.32524 56.72546 87.76909 56.59944 88.21292 56.47644 88.65677 56.35356 89.10063 56.23 89.54446 56.10915 89.98831 55.98953 90.43217 55.87025 90.876 55.75233 91.31985 55.63496 91.7637 55.51872 92.20755 55.40329 92.6514 55.28818 93.09525 55.17442 93.5391 55.06076 93.98294 54.94893 94.42679 54.83698 94.87064 54.72636 95.31448 54.61633 95.75833 54.50674 96.20216 54.39795 96.64603 54.28992 97.08987 54.18292 97.5337 54.07639 97.97757 53.97072 98.42142 53.86586 98.86525 53.76123 99.30911 53.6575 99.75294 53.55388 100.1968 53.45161 100.64064 53.34935 101.08449 53.2483 101.52834 53.14774 101.97218 53.0485 102.41603 52.94928 102.85988 52.84982 103.30373 52.75183 103.74756 52.65417 104.19142 52.5571 104.63527 52.46101 105.0791 52.36528 105.52296 52.27011 105.96681 52.17538 106.41064 52.08089 106.8545 51.98706 107.29836 51.89436 107.74219 51.80179 108.18604 51.70976 108.6299 51.61842 109.07373 51.5273 109.51758 51.43652 109.96143 51.34686 110.40527 51.25743 110.84912 51.16846 111.29297 51.0806 111.73682 50.99275 112.18066 50.90489 112.6245 50.81705 113.06836 50.72919 113.5122 50.64359 113.95604 50.55913 114.3999 50.47353 114.84375 50.38905 115.28758 50.30457 115.73143 50.22124 116.1753 50.13675 116.61913 50.0534 117.06297 49.97119 117.50684 49.88896 117.95067 49.80786 118.39452 49.72565 118.83838 49.64455 119.28221 49.56459 119.72606 49.48349 120.16989 49.40465 120.61375 49.3258 121.0576 49.24585 121.50143 49.16699 121.9453 49.09041 122.38914 49.01044 122.83298 48.93385 123.27684 48.85612 123.72069 48.77841 124.16452 48.70183 124.60837 48.62749 125.05223 48.55203 125.49606 48.47656 125.93991 48.4011 126.38377 48.32677 126.8276 48.2513 127.27145 48.17696 127.71532 48.10487 128.15915 48.03168 128.603 47.95734 129.04685 47.88525 129.49069 47.81316 129.93454 47.74107 130.37839 47.669 130.82224 47.59804 131.26609 47.5282 131.70992 47.45499 132.15377 47.38629 132.59763 47.31645 133.04146 47.24551 133.4853 47.17567 133.92917 47.10696 134.373 47.03825 134.81685 46.96956 135.26071 46.89972 135.70455 46.83327 136.14839 46.76682 136.59224 46.69699 137.03609 46.62941 137.47994 46.56183 137.92378 46.4965 138.36763 46.43118 138.81148 46.36472 139.25533 46.2994 139.69918 46.23407 140.14302 46.1665 140.58687 46.10117 141.0307 46.03809 141.47457 45.97276 141.9184 45.90857 142.36225 45.84549 142.8061 45.7813 143.24994 45.71823 143.69379 45.6529 144.13764 45.58868 144.58148 45.52673 145.02533 45.46593 145.46918 45.40399 145.91303 45.34204 146.35688 45.28122 146.80072 45.2159 147.24457 45.15619 147.68842 45.09424 148.13227 45.0323 148.5761 44.97035 149.01996 44.91064 149.4638 44.84982 149.90764 44.79015 150.3515 44.72932 150.79535 44.67188 151.23918 44.61105 151.68305 44.55249 152.12689 44.4928 152.57073 44.43422 153.01457 44.37564 153.45842 44.3171 153.90227 44.26077 154.34612 44.20221 154.78997 44.14363 155.23381 44.08731 155.67766 44.02875 156.12149 43.9713 156.56536 43.915 157.0092 43.85867 157.45304 43.80237 157.8969 43.74492 158.34075 43.68973 158.78458 43.6334 159.22844 43.57823 159.67229 43.52303 160.11612 43.46785 160.55997 43.41153 161.00383 43.35634 161.44766 43.30116 161.89151 43.24821 162.33538 43.19415 162.7792 43.13785 163.22306 43.08488 163.6669 43.03195 164.11075 42.97678 164.5546 42.92383 164.99843 42.86977 165.44229 42.81683 165.88614 42.7639 166.32997 42.71208 166.77384 42.65915 167.21768 42.60509 167.66152 42.5544 168.10538 42.50035 168.54923 42.44966 168.99306 42.39784 169.4369 42.34602 169.88077 42.29422 170.3246 42.24242 170.76845 42.19173 171.21231 42.14105 171.65615 42.09036 172.09999 42.03967 172.54384 41.99013 172.98769 41.93831 173.43154 41.88875 173.87538 41.8392 174.31923 41.78964 174.76308 41.73895 175.20691 41.68939 175.65077 41.63983 176.09462 41.59029 176.53845 41.54184 176.9823 41.4923 177.42617 41.44385 177.87 41.39542 178.31385 41.34586 178.7577 41.29742 179.20154 41.25014 179.64539 41.2017 180.08925 41.15327 180.53308 41.10483 180.97693 41.05865 181.42078 41.01022 181.86463 40.96292 182.30847 40.91449 182.75232 40.8683 183.19617 40.82213 183.64002 40.77483 184.08386 40.72752 184.5277 40.6802 184.97156 40.63403 185.41539 40.58786 185.85924 40.5428 186.3031 40.4955 186.74694 40.45045 187.19078 40.40427 187.63465 40.35808 188.07848 40.31303 188.52233 40.26797 188.96617 40.2218 189.41002 40.17676 189.85387 40.13281 190.29772 40.08778 190.74156 40.0416 191.18541 39.9988 191.62926 39.95149 192.0731 39.90868 192.51696 39.86476 192.9608 39.82198 193.40464 39.77692 193.8485 39.73186 194.29235 39.68906 194.73618 39.644 195.18004 39.60121 195.62387 39.55615 196.06772 39.51561 196.51157 39.47055 196.95542 39.42775 197.39926 39.38496 197.84311 39.34215 198.28696 39.29936 198.7308 39.25655 199.17465 39.21263 199.6185 39.17209 200.06235 39.12816 200.5062 39.08536 200.95003 39.0448 201.39389 39.002 201.83774 38.96034 202.28157 38.91866 202.72544 38.87585 203.16928 38.83644 203.61312 38.79362 204.05698 38.75197 204.50083 38.71143 204.94466 38.66974 205.3885 38.6292 205.83237 38.58752 206.2762 38.54811 206.72005 38.50642 206.3353 38.54056"/>
<path transform="matrix(-.041242474,-.9991,-.99915996,.04124,32.20082,3.01474)" stroke-width=".79701" stroke-linecap="round" stroke-linejoin="round" fill="none" stroke="#1414cc" d="M-1.73352 2.31136C-1.58905 1.4446 0 .14444 .43336 0 0-.14444-1.58905-1.4446-1.73352-2.31136"/>
<path transform="matrix(.9961097,.08844,.088445309,-.99605,208.44364,98.41443)" stroke-width=".79701" stroke-linecap="round" stroke-linejoin="round" fill="none" stroke="#1414cc" d="M-1.73352 2.31136C-1.58905 1.4446 0 .14444 .43336 0 0-.14444-1.58905-1.4446-1.73352-2.31136"/>
<path transform="matrix(1.00006,0,0,-1,2.0959855,136.955)" stroke-width=".99628" stroke-linecap="butt" stroke-miterlimit="10" stroke-linejoin="miter" fill="none" stroke="#1414cc" d="M35.93251 1.40172 36.14917 2.85857 36.48814 5.02335 36.82712 7.0845 37.16609 9.05106 37.50507 10.93199 37.84404 12.73297 38.18301 14.45961 38.52199 16.12206 38.86096 17.72368 39.19994 19.26335 39.53891 20.75458 39.87788 22.19064 40.21686 23.58163 40.55583 24.9312 40.8948 26.23795 41.23378 27.50954 41.57275 28.74466 41.91173 29.94193 42.2507 31.10756 42.58968 32.2413 42.92865 33.34723 43.26764 34.42567 43.60661 35.47743 43.94559 36.50462 44.28456 37.50513 44.62352 38.48639 44.96251 39.44328 45.30148 40.37994 45.64046 41.29564 45.97943 42.19342 46.3184 43.07082 46.65738 43.9329 46.99635 44.77866 47.33533 45.60323 47.67429 46.41675 48.01326 47.21622 48.35223 47.99968 48.69121 48.76569 49.03018 49.52167 49.36916 50.26628 49.70813 50.99275 50.0471 51.7102 50.38608 52.41945 50.72507 53.10965 51.06403 53.79175 51.403 54.46721 51.74197 55.1261 52.08095 55.77869 52.41994 56.4226 52.75891 57.05661 53.09789 57.6745 53.43686 58.2978 53.77583 58.90398 54.1148 59.5007 54.45378 60.091 54.79276 60.67139 55.13173 61.24492 55.4707 61.81122 55.80968 62.37054 56.14865 62.92223 56.48763 63.46616 56.8266 64.00406 57.16557 64.53511 57.50455 65.06015 57.84352 65.57832 58.1825 66.09004 58.52147 66.59618 58.86044 67.09676 59.19942 67.59131 59.53839 68.08072 59.87737 68.56282 60.21634 69.0402 60.55531 69.51329 60.89427 69.9808 61.23325 70.44359 61.57222 70.9008 61.9112 71.35413 62.25015 71.80191 62.58913 72.24496 62.9281 72.68456 63.26707 73.11807 63.60605 73.54834 63.945 73.97385 64.28398 74.39531 64.62296 74.8125 64.96193 75.22743 65.30089 75.63606 65.63986 76.04199 65.97884 76.44319 66.3178 76.84155 66.65675 77.23509 66.99573 77.6275 67.3347 78.01485 67.67368 78.39722 68.01265 78.77759 68.35161 79.15579 68.69058 79.52928 69.02956 79.89984 69.36853 80.26814 69.70749 80.63173 70.04646 80.99237 70.38544 81.35054 70.72441 81.70589 71.06339 82.0592 71.40234 82.4069 71.74132 82.7546 72.08029 83.09846 72.41927 83.4395 72.75822 83.7764 73.0972 84.11247 73.43617 84.4461 73.77515 84.7768 74.11412 85.10431 74.45308 85.4314 74.79205 85.75374 75.13103 86.07306 75.47 86.39429 75.80896 86.70987 76.14793 87.02199 76.48691 87.33228 76.82588 87.6436 77.16486 87.95016 77.50381 88.25462 77.84279 88.56064 78.18176 88.8572 78.52074 89.15567 78.8597 89.45145 79.19867 89.75014 79.53764 90.04039 79.87662 90.32748 80.21559 90.61694 80.55455 90.90617 80.89352 91.18788 81.2325 91.46957 81.57147 91.7542 81.91043 92.03227 82.2494 92.30788 82.58838 92.5827 82.92735 92.85956 83.26631 93.12953 83.60529 93.39873 83.94426 93.67006 84.28323 93.93541 84.62221 94.19975 84.96117 94.4605 85.30013 94.72653 85.6391 94.98727 85.97807 95.24385 86.31703 95.49773 86.656 95.7596 86.99498 96.01154 87.33395 96.2626 87.67293 96.51625 88.01189 96.76707 88.35086 97.0117 88.68983 97.25906 89.02881 97.51157 89.36777 97.75485 89.70674 97.99792 90.04572 98.23918 90.38469 98.47954 90.72366 98.71785 91.06262 98.95573 91.4016 99.19101 91.74057 99.4254 92.07954 99.65935 92.4185 99.89113 92.75748 100.12248 93.09645 100.35225 93.43542 100.58101 93.7744 100.80806 94.11336 101.03468 94.45233 101.25972 94.7913 101.48296 95.13028 101.70619 95.46924 101.92773 95.80821 102.14781 96.14719 102.36768 96.48616 102.58539 96.82513 102.80176 97.1641 103.01767 97.50307 103.23312 97.84204 103.44748 98.18102 103.65956 98.51997 103.87198 98.85895 104.08148 99.19792 104.29097 99.5369 104.50012 99.87585 104.70793 100.21483 104.91394 100.5538 105.12004 100.89278 105.32436 101.23175 105.52867 101.57071 105.72961 101.90968 105.93257 102.24866 106.1326 102.58763 106.33354 102.92659 106.53189 103.26556 106.72932 103.60454 106.9269 103.94351 107.1231 104.28247 107.31885 104.62143 107.51256 104.9604 107.70653 105.29938 107.89923 105.63835 108.09128 105.97731 108.28264 106.31628 108.47195 106.65526 108.66039 106.99423 108.84894 107.3332 109.03693 107.67216 109.22446 108.01114 109.41008 108.35011 109.59378 108.68909 109.7787 109.02805 109.96118 109.36702 110.14409 109.706 110.3261 110.04497 110.50835 110.38394 110.6908 110.7229 110.86765 111.06187 111.04672 111.40085 111.22693 111.73982 111.40375 112.07878 111.5806 112.41776 111.75743 112.75673 111.93314 113.0957 112.10658 113.43468 112.28003 113.77364 112.45348 114.11261 112.62581 114.45158 112.79701 114.79056 112.96935 115.12952 113.1394 115.46849 113.3095 115.80746 113.47842 116.14644 113.64626 116.4854 113.81294 116.82437 113.97964 117.16335 114.14859 117.50232 114.31528 117.8413 114.47972 118.18025 114.64304 118.51923 114.80861 118.8582 114.96854 119.19717 115.13298 119.53613 115.29292 119.8751 115.45848 120.21408 115.61955 120.55305 115.7795 120.89203 115.93718 121.23099 116.09598 121.56996 116.25368 121.90894 116.41136 122.24791 116.57016 122.58687 116.72784 122.92584 116.8844 123.2648 117.03871 123.60378 117.19302 123.94275 117.34619 124.28171 117.50163 124.62068 117.65593 124.95966 117.81023 125.29863 117.96228 125.63759 118.11322 125.97656 118.26414 126.31554 118.41396 126.65451 118.56488 126.99348 118.71692 127.33244 118.86447 127.67142 119.01427 128.01039 119.15956 128.34937 119.30711 128.68833 119.45354 129.0273 119.60107 129.36627 119.75087 129.70525 119.89392 130.04422 120.03809 130.38318 120.18225 130.72216 120.32642 131.06113 120.4706 131.4001 120.6125 131.73906 120.75443 132.07804 120.89859 132.417 121.04164 132.75598 121.18242 133.09494 121.32208 133.43392 121.46288 133.77289 121.60028 134.11186 121.73994 134.45084 121.88074 134.7898 122.01816 135.12877 122.15894 135.46775 122.29298 135.80672 122.43039 136.14568 122.56554 136.48465 122.70407 136.82363 122.8426 137.1626 122.9789 137.50157 123.11293 137.84053 123.2447 138.1795 123.37874 138.51848 123.51164 138.85746 123.6468 139.19641 123.78197 139.53539 123.91486 139.87436 124.04439 140.21334 124.17505 140.5523 124.30908 140.89127 124.43523 141.23024 124.567 141.56922 124.69539 141.90819 124.83168 142.24713 124.96234 142.5861 125.08736 142.92508 125.21239 143.26406 125.34303 143.60303 125.46692 143.94199 125.59758 144.28096 125.7271 144.61994 125.85437 144.95891 125.97827 145.29787 126.10217 145.63684 126.23056 145.97582 126.35446 146.31479 126.4761 146.65377 126.60675 146.99272 126.73177 147.3317 126.85454 147.67067 126.9762 148.00965 127.10458 148.3486 127.22736 148.68758 127.349 149.02655 127.47063 149.36553 127.5934 149.70449 127.7128 150.04346 127.83556 150.38243 127.95609 150.7214 128.07547 151.06038 128.19712 151.39934 128.3165 151.73831 128.43364 152.07729 128.55416 152.41626 128.67241 152.75522 128.78955 153.0942 128.9078 153.43317 129.02608 153.77214 129.14322 154.11112 129.26035 154.45008 129.37749 154.78905 129.4935 155.12802 129.60951 155.467 129.72551 155.80596 129.84154 156.14493 129.95642 156.4839 130.07129 156.82288 130.18506 157.16185 130.29994 157.50081 130.4137 157.83979 130.52632 158.17876 130.64009 158.51773 130.75385 158.85669 130.86536 159.19567 130.98024 159.53464 131.09062 159.87361 131.20212 160.21259 131.31362 160.55155 131.42513 160.89052 131.5355 161.22948 131.64702 161.56845 131.7574 161.90741 131.86779 162.24639 131.97702 162.58536 132.0874 162.92433 132.19553 163.2633 132.30591 163.60227 132.41403 163.94124 132.52329 164.28022 132.6303 164.61919 132.7384 164.95815 132.84654 165.29712 132.95354 165.6361 133.06166 165.97507 133.16867 166.31403 133.27454 166.653 133.38155 166.99198 133.48741 167.33095 133.59215 167.66992 133.69803 168.00888 133.80278 168.34786 133.90753 168.68683 134.01227 169.0258 134.11814 169.36476 134.22177 169.70374 134.3265 170.04271 134.43013 170.38169 134.53264 170.72066 134.63625 170.26337 134.49799"/>
<path transform="matrix(-.14703882,.98907,.9891293,.14703,38.03065,135.55329)" stroke-width=".79701" stroke-linecap="round" stroke-linejoin="round" fill="none" stroke="#1414cc" d="M-1.73352 2.31136C-1.58905 1.4446 0 .14444 .43336 0 0-.14444-1.58905-1.4446-1.73352-2.31136"/>
<path transform="matrix(.9572074,-.28941,-.28942735,-.95715,172.36954,2.457016)" stroke-width=".79701" stroke-linecap="round" stroke-linejoin="round" fill="none" stroke="#1414cc" d="M-1.73352 2.31136C-1.58905 1.4446 0 .14444 .43336 0 0-.14444-1.58905-1.4446-1.73352-2.31136"/>
<use data-text="A" xlink:href="#font_2_1" transform="matrix(9.963197,0,0,-9.9626,175.34638,10.847)"/>
<use data-text="B" xlink:href="#font_2_2" transform="matrix(9.963197,0,0,-9.9626,189.91925,30.557)"/>
<use data-text="C" xlink:href="#font_2_3" transform="matrix(9.963197,0,0,-9.9626,190.05927,61.531)"/>
<use data-text="D" xlink:href="#font_2_4" transform="matrix(9.963197,0,0,-9.9626,189.64423,106.583)"/>
</g>
<use data-text="x" xlink:href="#font_3_1" transform="matrix(9.963197,0,0,-9.9626,200.09986,65.843)"/>
<use data-text="y" xlink:href="#font_3_2" transform="matrix(9.963197,0,0,-9.9626,35.21897,9.587006)"/>
</svg>
