<svg xmlns="http://www.w3.org/2000/svg" xmlns:xlink="http://www.w3.org/1999/xlink" xmlns:inkscape="http://www.inkscape.org/namespaces/inkscape" version="1.1" width="157" height="157" viewBox="0 0 157 157">
<defs>
<path id="font_1_1" d="M.6589966 .23046875C.6759949 .23046875 .69400027 .23046875 .69400027 .25045777 .69400027 .27046205 .6759949 .27046205 .6589966 .27046205H.117996219C.100997928 .27046205 .08299255 .27046205 .08299255 .25045777 .08299255 .23046875 .100997928 .23046875 .117996219 .23046875H.6589966Z"/>
<path id="font_2_3" d="M.13198853 .327713V.35173036C.13198853 .6047821 .2559967 .64100649 .30699159 .64100649 .33099366 .64100649 .37298585 .634964 .394989 .6007538 .37998963 .6007538 .33999635 .6007538 .33999635 .5557556 .33999635 .524765 .3639984 .5097656 .38598634 .5097656 .4019928 .5097656 .43199159 .51875308 .43199159 .5577545 .43199159 .6178589 .3880005 .6660156 .30499269 .6660156 .1769867 .6660156 .041992189 .5367584 .041992189 .31570436 .041992189 .048553468 .1579895-.022460938 .25099183-.022460938 .3619995-.022460938 .45700074 .07156372 .45700074 .2036438 .45700074 .33070375 .36799623 .4267578 .25698854 .4267578 .18899536 .4267578 .1519928 .37573243 .13198853 .327713M.25099183 .0055389406C.18798828 .0055389406 .1579895 .06556702 .1519928 .080566409 .13398743 .127594 .13398743 .2076416 .13398743 .22564698 .13398743 .30369569 .1659851 .40374757 .2559967 .40374757 .27198792 .40374757 .31799317 .40374757 .34899903 .34172059 .36698915 .30470277 .36698915 .2536621 .36698915 .20463562 .36698915 .15661621 .36698915 .10658264 .34999085 .0705719 .31999208 .010528564 .27398683 .0055389406 .25099183 .0055389406Z"/>
<path id="font_2_2" d="M.2939911 .16503906V.07800293C.2939911 .041992189 .2919922 .0309906 .21798706 .0309906H.19699097V0C.23799134 .0029907227 .2899933 .0029907227 .33198548 .0029907227 .37399293 .0029907227 .4269867 .0029907227 .46798707 0V.0309906H.44699098C.37298585 .0309906 .37098695 .041992189 .37098695 .07800293V.16503906H.47099305V.19602967H.37098695V.65075686C.37098695 .67074587 .37098695 .6767578 .35499574 .6767578 .34599305 .6767578 .34298707 .6767578 .33499146 .66474917L.027999878 .19602967V.16503906H.2939911M.2999878 .19602967H.055999757L.2999878 .5688019V.19602967Z"/>
<path id="font_2_1" d="M.1269989 .07699585 .23298645 .18003845C.3889923 .31811524 .44898988 .3721466 .44898988 .47216798 .44898988 .5860901 .35899354 .6660156 .23699951 .6660156 .12399292 .6660156 .049987794 .57411196 .049987794 .48516847 .049987794 .4291687 .099990848 .4291687 .102996829 .4291687 .11999512 .4291687 .15499878 .44117738 .15499878 .48217774 .15499878 .5081787 .13699341 .5341797 .101989749 .5341797 .09399414 .5341797 .09199524 .5341797 .08898926 .5331726 .11199951 .59806826 .1659851 .63500979 .22399903 .63500979 .31498719 .63500979 .35798646 .5541382 .35798646 .47216798 .35798646 .39215089 .30799867 .31311036 .25299073 .25108338L.06098938 .036987306C.049987794 .025985718 .049987794 .023986817 .049987794 0H.42099L.44898988 .17404175H.42399598C.4189911 .14402771 .4119873 .1000061 .4019928 .084991458 .394989 .07699585 .32899476 .07699585 .30699159 .07699585H.1269989Z"/>
<clipPath id="clip_3">
<path transform="matrix(1.00003,0,0,-1.00002,2.0964967,155.3758)" d="M0 0H153.57646V153.57646H0Z"/>
</clipPath>
<path id="font_4_1" d="M.33399964 .30233766C.33999635 .32835389 .36299134 .42037965 .43299867 .42037965 .43798829 .42037965 .46199037 .42037965 .48298646 .40734864 .45498658 .402359 .43499757 .37734986 .43499757 .35334779 .43499757 .33735658 .44599916 .31835938 .47299195 .31835938 .49499513 .31835938 .5269928 .3363495 .5269928 .37635804 .5269928 .42837525 .46798707 .4423828 .43399049 .4423828 .37599183 .4423828 .34098817 .38935853 .32899476 .36634828 .3039856 .43237306 .25 .4423828 .22099304 .4423828 .116989139 .4423828 .05999756 .3133545 .05999756 .28834535 .05999756 .27833558 .069992069 .27833558 .07199097 .27833558 .07998657 .27833558 .08299255 .28033448 .084991458 .28933717 .11898804 .39535523 .18499756 .42037965 .21899414 .42037965 .23799134 .42037965 .272995 .4113617 .272995 .35334779 .272995 .32235719 .2559967 .25532533 .21899414 .11528015 .20298767 .053268434 .16799927 .011245728 .12399292 .011245728 .117996219 .011245728 .09498596 .011245728 .07398987 .024276734 .09899902 .029266358 .12098694 .05027771 .12098694 .07827759 .12098694 .105270389 .09899902 .11328125 .083999637 .11328125 .053985597 .11328125 .0289917 .08728027 .0289917 .055267335 .0289917 .009246826 .07899475-.0107421879 .12298584-.0107421879 .18899536-.0107421879 .22499085 .059280397 .22799683 .0652771 .23999024 .028274537 .27598573-.0107421879 .33599855-.0107421879 .43899537-.0107421879 .49598695 .118270877 .49598695 .14328003 .49598695 .1532898 .4869995 .1532898 .48399354 .1532898 .47499085 .1532898 .47299195 .14929199 .47099305 .14228821 .43798829 .03527832 .36999513 .011245728 .33799745 .011245728 .29899598 .011245728 .2829895 .043273927 .2829895 .07727051 .2829895 .09927368 .2889862 .121276859 .2999878 .16529846L.33399964 .30233766Z"/>
<path id="font_4_2" d="M.48599244 .38136292C.48999024 .39537049 .48999024 .39736939 .48999024 .40437318 .48999024 .42237855 .47599793 .43138124 .46099855 .43138124 .45098878 .43138124 .43499757 .42536927 .42599488 .41036988 .42399598 .405365 .41600038 .37435914 .4119873 .35635377 .40499879 .33035279 .397995 .30334474 .3919983 .27633668L.34700013 .09628296C.34298707 .08126831 .2999878 .011245728 .23399353 .011245728 .18299866 .011245728 .17199707 .055267335 .17199707 .0922699 .17199707 .1382904 .18899536 .20030213 .22299195 .28833009 .23899842 .3293457 .24299622 .3403473 .24299622 .36035157 .24299622 .405365 .21099854 .4423828 .16099549 .4423828 .06599426 .4423828 .0289917 .29733277 .0289917 .28833009 .0289917 .27833558 .038986207 .27833558 .040985109 .27833558 .050994874 .27833558 .051986696 .28033448 .056991579 .29634095 .083999637 .3903656 .12399292 .42037965 .1579895 .42037965 .1659851 .42037965 .18299866 .42037965 .18299866 .3883667 .18299866 .36335755 .17298889 .3373413 .1659851 .31834413 .12599182 .21231079 .10798645 .1552887 .10798645 .10827637 .10798645 .019256592 .17098999-.0107421879 .22999573-.0107421879 .2689972-.0107421879 .30299378 .0062561037 .33099366 .03425598 .31799317-.017745972 .30599977-.06674194 .2659912-.11973572 .23999024-.15385437 .20199585-.18309021 .1559906-.18309021 .14199829-.18309021 .09700012-.18005371 .07998657-.14074707 .09599304-.14074707 .10899353-.14074707 .12298584-.1287384 .1329956-.11973572 .14299011-.10673523 .14299011-.08773804 .14299011-.056747438 .115997318-.052734376 .10598755-.052734376 .08299255-.052734376 .049987794-.068740848 .049987794-.11773682 .049987794-.16796875 .09399414-.20507813 .1559906-.20507813 .25898744-.20507813 .3619995-.11373901 .3899994-.00074768069L.48599244 .38136292Z"/>
</defs>
<path transform="matrix(1.00003,0,0,-1.00002,2.0964967,155.3758)" stroke-width=".3985" stroke-linecap="butt" stroke-miterlimit="10" stroke-linejoin="miter" fill="none" stroke="#404040" d="M0 0H153.57646V153.57646H0Z"/>
<path transform="matrix(1.00003,0,0,-1.00002,2.0964967,155.3758)" stroke-width=".3985" stroke-linecap="butt" stroke-miterlimit="10" stroke-linejoin="miter" fill="none" stroke="#bfbfbf" d="M9.59853 0V153.57646M28.79558 0V153.57646M47.99265 0V153.57646M67.1897 0V153.57646M86.38675 0V153.57646M105.58382 0V153.57646M124.78087 0V153.57646M143.97794 0V153.57646"/>
<path transform="matrix(1.00003,0,0,-1.00002,2.0964967,155.3758)" stroke-width=".3985" stroke-linecap="butt" stroke-miterlimit="10" stroke-linejoin="miter" fill="none" stroke="#bfbfbf" d="M19.19705 0V153.57646M38.3941 0V153.57646M57.59117 0V153.57646M95.98529 0V153.57646M115.18234 0V153.57646M134.3794 0V153.57646"/>
<path transform="matrix(1.00003,0,0,-1.00002,2.0964967,155.3758)" stroke-width=".3985" stroke-linecap="butt" stroke-miterlimit="10" stroke-linejoin="miter" fill="none" stroke="#bfbfbf" d="M0 9.59853H153.57646M0 28.79558H153.57646M0 47.99265H153.57646M0 67.1897H153.57646M0 86.38675H153.57646M0 105.58382H153.57646M0 124.78087H153.57646M0 143.97794H153.57646"/>
<path transform="matrix(1.00003,0,0,-1.00002,2.0964967,155.3758)" stroke-width=".3985" stroke-linecap="butt" stroke-miterlimit="10" stroke-linejoin="miter" fill="none" stroke="#bfbfbf" d="M0 19.19705H153.57646M0 38.3941H153.57646M0 57.59117H153.57646M0 95.98529H153.57646M0 115.18234H153.57646M0 134.3794H153.57646"/>
<path transform="matrix(1.00003,0,0,-1.00002,2.0964967,155.3758)" stroke-width=".19925" stroke-linecap="butt" stroke-miterlimit="10" stroke-linejoin="miter" fill="none" stroke="#7f807f" d="M9.59853 75.37073V78.20572M28.79558 75.37073V78.20572M47.99265 75.37073V78.20572M67.1897 75.37073V78.20572M86.38675 75.37073V78.20572M105.58382 75.37073V78.20572M124.78087 75.37073V78.20572M143.97794 75.37073V78.20572"/>
<path transform="matrix(1.00003,0,0,-1.00002,2.0964967,155.3758)" stroke-width=".19925" stroke-linecap="butt" stroke-miterlimit="10" stroke-linejoin="miter" fill="none" stroke="#7f807f" d="M19.19705 74.6622V78.91423M38.3941 74.6622V78.91423M57.59117 74.6622V78.91423M95.98529 74.6622V78.91423M115.18234 74.6622V78.91423M134.3794 74.6622V78.91423"/>
<path transform="matrix(1.00003,0,0,-1.00002,2.0964967,155.3758)" stroke-width=".19925" stroke-linecap="butt" stroke-miterlimit="10" stroke-linejoin="miter" fill="none" stroke="#7f807f" d="M75.37073 9.59853H78.20572M75.37073 28.79558H78.20572M75.37073 47.99265H78.20572M75.37073 67.1897H78.20572M75.37073 86.38675H78.20572M75.37073 105.58382H78.20572M75.37073 124.78087H78.20572M75.37073 143.97794H78.20572"/>
<path transform="matrix(1.00003,0,0,-1.00002,2.0964967,155.3758)" stroke-width=".19925" stroke-linecap="butt" stroke-miterlimit="10" stroke-linejoin="miter" fill="none" stroke="#7f807f" d="M74.6622 19.19705H78.91423M74.6622 38.3941H78.91423M74.6622 57.59117H78.91423M74.6622 95.98529H78.91423M74.6622 115.18234H78.91423M74.6622 134.3794H78.91423"/>
<path transform="matrix(1.00003,0,0,-1.00002,2.0964967,155.3758)" stroke-width=".3985" stroke-linecap="butt" stroke-miterlimit="10" stroke-linejoin="miter" fill="none" stroke="#000000" d="M0 76.78822H151.58394"/>
<path transform="matrix(1.00003,0,0,-1.00002,153.68498,78.58603)" d="M1.99252 0-1.19551 1.59401 0 0-1.19551-1.59401"/>
<path transform="matrix(1.00003,0,0,-1.00002,2.0964967,155.3758)" stroke-width=".3985" stroke-linecap="butt" stroke-miterlimit="10" stroke-linejoin="miter" fill="none" stroke="#000000" d="M76.78822 0V151.58394"/>
<path transform="matrix(0,-1.00002,-1.00003,-0,78.887027,3.7888184)" d="M1.99252 0-1.19551 1.59401 0 0-1.19551-1.59401"/>
<use data-text="&#x2212;" xlink:href="#font_1_1" transform="matrix(9.962899,0,0,-9.962799,14.928879,90.6525)"/>
<use data-text="6" xlink:href="#font_2_3" transform="matrix(9.962899,0,0,-9.962799,22.678109,90.6525)"/>
<use data-text="&#x2212;" xlink:href="#font_1_1" transform="matrix(9.962899,0,0,-9.962799,34.126459,90.6525)"/>
<use data-text="4" xlink:href="#font_2_2" transform="matrix(9.962899,0,0,-9.962799,41.875688,90.6525)"/>
<use data-text="&#x2212;" xlink:href="#font_1_1" transform="matrix(9.962899,0,0,-9.962799,53.324037,90.6525)"/>
<use data-text="2" xlink:href="#font_2_1" transform="matrix(9.962899,0,0,-9.962799,61.073266,90.6525)"/>
<use data-text="2" xlink:href="#font_2_1" transform="matrix(9.962899,0,0,-9.962799,95.59431,90.6525)"/>
<use data-text="4" xlink:href="#font_2_2" transform="matrix(9.962899,0,0,-9.962799,114.791889,90.6525)"/>
<use data-text="6" xlink:href="#font_2_3" transform="matrix(9.962899,0,0,-9.962799,133.98947,90.6525)"/>
<use data-text="&#x2212;" xlink:href="#font_1_1" transform="matrix(9.962899,0,0,-9.962799,60.51025,138.97347)"/>
<use data-text="6" xlink:href="#font_2_3" transform="matrix(9.962899,0,0,-9.962799,68.259479,138.97347)"/>
<use data-text="&#x2212;" xlink:href="#font_1_1" transform="matrix(9.962899,0,0,-9.962799,60.51025,119.77608)"/>
<use data-text="4" xlink:href="#font_2_2" transform="matrix(9.962899,0,0,-9.962799,68.259479,119.77608)"/>
<use data-text="&#x2212;" xlink:href="#font_1_1" transform="matrix(9.962899,0,0,-9.962799,60.51025,100.57869)"/>
<use data-text="2" xlink:href="#font_2_1" transform="matrix(9.962899,0,0,-9.962799,68.259479,100.57869)"/>
<use data-text="2" xlink:href="#font_2_1" transform="matrix(9.962899,0,0,-9.962799,68.25949,62.59893)"/>
<use data-text="4" xlink:href="#font_2_2" transform="matrix(9.962899,0,0,-9.962799,68.25949,43.40155)"/>
<use data-text="6" xlink:href="#font_2_3" transform="matrix(9.962899,0,0,-9.962799,68.25949,24.204163)"/>
<g clip-path="url(#clip_3)">
<path transform="matrix(1.00003,0,0,-1.00002,2.0964967,155.3758)" stroke-width="1.49442" stroke-linecap="butt" stroke-miterlimit="10" stroke-linejoin="miter" fill="none" stroke="#1414cc" d="M3.56735 152.47274 3.29408 153.29267 3.38228 153.0281 3.47047 152.76355 3.55865 152.49897 3.64684 152.23439 3.73505 151.9698 3.82323 151.70526 3.91142 151.4407 3.9996 151.1761 4.0878 150.91153 4.176 150.64694 4.26418 150.3824 4.35237 150.11785 4.44057 149.85324 4.52875 149.58869 4.61694 149.32408 4.70512 149.05954 4.79333 148.79499 4.88152 148.53038 4.9697 148.26583 5.05789 148.00122 5.14609 147.73668 5.23428 147.47212 5.32246 147.20754 5.41064 146.94297 5.49886 146.67838 5.58704 146.41382 5.67523 146.14926 5.76343 145.88468 5.85161 145.6201 5.9398 145.35552 6.02798 145.09096 6.1162 144.8264 6.20438 144.56182 6.29256 144.29726 6.38075 144.03266 6.46895 143.7681 6.55714 143.50356 6.64532 143.23896 6.7335 142.9744 6.82172 142.7098 6.9099 142.44524 6.9981 142.1807 7.08627 141.91609 7.17447 141.65154 7.26266 141.38694 7.35085 141.12239 7.43904 140.85784 7.52724 140.59323 7.61542 140.32868 7.70361 140.06407 7.7918 139.79953 7.88 139.53498 7.96819 139.27039 8.05637 139.00582 8.14456 138.74121 8.23276 138.47667 8.32095 138.21212 8.40913 137.94753 8.49731 137.68296 8.58553 137.41837 8.6737 137.15381 8.7619 136.88925 8.8501 136.62467 8.93828 136.36009 9.02647 136.0955 9.11465 135.83095 9.20287 135.56639 9.29105 135.30179 9.37923 135.03723 9.46742 134.77265 9.55562 134.50809 9.64381 134.24355 9.732 133.97893 9.82018 133.71439 9.90839 133.44979 9.99657 133.18523 10.08476 132.92069 10.17294 132.65607 10.26114 132.39153 10.34933 132.12693 10.43752 131.86238 10.52571 131.59783 10.6139 131.3332 10.70209 131.06867 10.79028 130.80406 10.87846 130.53952 10.96667 130.27497 11.05486 130.01036 11.14304 129.7458 11.23123 129.4812 11.31943 129.21666 11.40762 128.9521 11.4958 128.6875 11.584 128.42295 11.6722 128.15836 11.76038 127.8938 11.84857 127.62924 11.93677 127.36464 12.02495 127.10008 12.11314 126.8355 12.20132 126.57094 12.28954 126.30638 12.37772 126.04178 12.4659 125.77722 12.5541 125.51263 12.64229 125.24808 12.73048 124.98354 12.81866 124.71892 12.90685 124.45436 12.99506 124.18977 13.08324 123.92522 13.17143 123.66068 13.25961 123.39606 13.34781 123.13152 13.436 122.86691 13.52419 122.60237 13.61238 122.33781 13.70058 122.0732 13.78876 121.80865 13.87695 121.54405 13.96513 121.27951 14.05334 121.01495 14.14153 120.75035 14.2297 120.4858 14.3179 120.22119 14.4061 119.95665 14.4943 119.69208 14.58247 119.42749 14.67067 119.16293 14.75887 118.89835 14.84705 118.63379 14.93524 118.36922 15.02344 118.10463 15.11162 117.84007 15.19981 117.57549 15.288 117.31093 15.3762 117.04636 15.46439 116.78177 15.55257 116.51721 15.64076 116.25262 15.72896 115.98807 15.81715 115.72351 15.90533 115.45891 15.99352 115.19435 16.08173 114.92976 16.1699 114.6652 16.2581 114.40065 16.34628 114.13605 16.43448 113.8715 16.52267 113.6069 16.61086 113.34236 16.69905 113.07779 16.78725 112.81319 16.87544 112.54865 16.96362 112.28404 17.0518 112.0195 17.14001 111.75493 17.2282 111.49034 17.31639 111.22578 17.40457 110.96118 17.49277 110.69664 17.58096 110.43207 17.66914 110.16748 17.75735 109.90292 17.84554 109.63834 17.93372 109.37378 18.02191 109.1092 18.1101 108.84462 18.1983 108.58006 18.28648 108.31548 18.37466 108.05092 18.46288 107.78635 18.55106 107.52176 18.63925 107.2572 18.72743 106.99261 18.81563 106.72806 18.90382 106.4635 18.992 106.1989 19.0802 105.93434 19.1684 105.66975 19.25658 105.4052 19.34477 105.14064 19.43295 104.87604 19.52116 104.6115 19.60934 104.3469 19.69753 104.08234 19.78572 103.81778 19.87392 103.55318 19.96211 103.28864 20.0503 103.02403 20.13847 102.75948 20.22668 102.49492 20.31487 102.23033 20.40306 101.96577 20.49124 101.70117 20.57944 101.43661 20.66763 101.17206 20.75581 100.90747 20.84402 100.64291 20.9322 100.37833 21.02039 100.11375 21.10858 99.8492 21.19678 99.58461 21.28497 99.32005 21.37315 99.05547 21.46133 98.7909 21.54955 98.52634 21.63773 98.26175 21.72592 97.9972 21.8141 97.7326 21.9023 97.46803 21.9905 97.20349 22.07867 96.93889 22.16687 96.67433 22.25507 96.40974 22.34325 96.14517 22.43144 95.88063 22.51962 95.61603 22.60783 95.35149 22.69601 95.08688 22.7842 94.82231 22.87239 94.55777 22.96059 94.29317 23.04878 94.02863 23.13696 93.76402 23.22514 93.49947 23.31335 93.23491 23.40154 92.9703 23.48973 92.70576 23.57791 92.44116 23.6661 92.1766 23.7543 91.91205 23.84248 91.64746 23.9307 91.3829 24.01888 91.11832 24.10706 90.85374 24.19525 90.58919 24.28345 90.3246 24.37164 90.06004 24.45982 89.79546 24.548 89.53088 24.63622 89.26633 24.7244 89.00174 24.81259 88.73718 24.90077 88.4726 24.98897 88.20802 25.07716 87.94348 25.16534 87.67888 25.25354 87.41432 25.34174 87.14972 25.42992 86.88516 25.51811 86.62062 25.6063 86.35602 25.6945 86.09148 25.78268 85.82686 25.87086 85.5623 25.95906 85.29776 26.04726 85.03316 26.13545 84.76862 26.22363 84.504 26.31181 84.23946 26.40002 83.9749 26.4882 83.7103 26.5764 83.44576 26.66458 83.18114 26.75278 82.9166 26.84097 82.65204 26.92915 82.38745 27.01736 82.1229 27.10555 81.85829 27.19373 81.59373 27.28192 81.32918 27.37012 81.06459 27.45831 80.80003 27.5465 80.53543 27.63467 80.27087 27.72289 80.00632 27.81107 79.74173 27.89926 79.47717 27.98744 79.21257 28.07564 78.94801 28.16383 78.68347 28.25201 78.41887 28.34021 78.15431 28.4284 77.88971 28.51659 77.62515 28.60478 77.36061 28.69296 77.09601 28.78117 76.83147 28.86935 76.56686 28.95753 76.30229 29.04573 76.03773 29.13393 75.77316 29.22212 75.50859 29.3103 75.244 29.39848 74.97945 29.4867 74.71487 29.57487 74.4503 29.66307 74.18573 29.75125 73.92116 29.83945 73.65659 29.92764 73.39201 30.01582 73.12744 30.10403 72.86287 30.19221 72.5983 30.2804 72.33372 30.36859 72.06915 30.45679 71.80458 30.54498 71.54002 30.63316 71.27544 30.72134 71.01086 30.80956 70.74629 30.89774 70.48172 30.98593 70.21715 31.07411 69.95258 31.16231 69.688 31.2505 69.42343 31.33868 69.15887 31.42688 68.89429 31.51508 68.62971 31.60326 68.36514 31.69145 68.10059 31.77963 67.83601 31.86784 67.57143 31.95602 67.30685 32.0442 67.04228 32.1324 66.77773 32.2206 66.51315 32.30879 66.24857 32.39697 65.984 32.48515 65.71944 32.57336 65.45486 32.66154 65.19029 32.74974 64.9257 32.83794 64.66113 32.92613 64.39658 33.01431 64.132 33.1025 63.86743 33.1907 63.60284 33.27888 63.33829 33.36708 63.07372 33.45526 62.80914 33.54346 62.54457 33.63165 62.28 33.71983 62.01543 33.80803 61.75085 33.89622 61.48628 33.9844 61.22171 34.0726 60.95714 34.16078 60.69257 34.249 60.428 34.33717 60.16342 34.42535 59.89886 34.51355 59.63428 34.60175 59.3697 34.68994 59.10513 34.77812 58.84058 34.8663 58.576 34.95451 58.31142 35.0427 58.04684 35.13089 57.78227 35.21907 57.51772 35.30727 57.25314 35.39546 56.98856 35.48364 56.72398 35.57184 56.45943 35.66003 56.19485 35.74821 55.93028 35.83641 55.6657 35.9246 55.40112 36.0128 55.13657 36.10098 54.872 36.18916 54.6074 36.27737 54.34283 36.36555 54.07828 36.45375 53.8137 36.54193 53.54913 36.63013 53.28455 36.71832 53.01999 36.8065 52.75542 36.8947 52.49084 36.9829 52.22627 37.07108 51.96169 37.15927 51.69713 37.24745 51.43256 37.33566 51.16798 37.42384 50.90341 37.51202 50.63884 37.60022 50.37427 37.68842 50.1097 37.77661 49.84512 37.86479 49.58057 37.95297 49.31598 38.04118 49.0514 38.12936 48.78683 38.21756 48.52228 38.30574 48.2577 38.39394 47.99312"/>
<path transform="matrix(-.3161895,-.948669,-.9486785,.3161863,5.663954,2.9000245)" stroke-width="1.19553" stroke-linecap="round" stroke-linejoin="round" fill="none" stroke="#1414cc" d="M-2.18182 2.9091C-2 1.81818 0 .18181 .54544 0 0-.18181-2-1.81818-2.18182-2.9091"/>
<path transform="matrix(1.00003,0,0,-1.00002,2.0964967,155.3758)" d="M38.3941 47.99265" fill="#1414cc"/>
<path transform="matrix(1.00003,0,0,-1.00002,2.0964967,155.3758)" stroke-width=".99628" stroke-linecap="butt" stroke-miterlimit="10" stroke-linejoin="miter" fill="none" stroke="#1414cc" d="M38.3941 47.99265"/>
<path transform="matrix(1.00003,0,0,-1.00002,2.0964967,155.3758)" d="M38.3941 86.38675" fill="#ffffff"/>
<path transform="matrix(1.00003,0,0,-1.00002,2.0964967,155.3758)" stroke-width=".99628" stroke-linecap="butt" stroke-miterlimit="10" stroke-linejoin="miter" fill="none" stroke="#1414cc" d="M38.3941 86.38675"/>
<path transform="matrix(1.00003,0,0,-1.00002,2.0964967,155.3758)" stroke-width="1.49442" stroke-linecap="butt" stroke-miterlimit="10" stroke-linejoin="miter" fill="none" stroke="#1414cc" d="M38.3941 86.38675 38.53844 86.495 38.68279 86.60324 38.8271 86.7115 38.97145 86.81975 39.1158 86.92801 39.26012 87.03625 39.40446 87.14452 39.5488 87.25276 39.69313 87.36102 39.83748 87.46927 39.9818 87.57753 40.12614 87.68578 40.27048 87.79404 40.41481 87.90228 40.55916 88.01054 40.70349 88.11879 40.84782 88.22705 40.99216 88.3353 41.1365 88.44356 41.28084 88.5518 41.42517 88.66005 41.56952 88.7683 41.71384 88.87656 41.85818 88.9848 42.00253 89.09306 42.14685 89.20131 42.2912 89.30957 42.43553 89.41782 42.57986 89.52608 42.72421 89.63432 42.86853 89.74257 43.01288 89.85083 43.15721 89.95908 43.30154 90.06734 43.44589 90.17558 43.59023 90.28384 43.73456 90.39209 43.87889 90.50035 44.02324 90.6086 44.16757 90.71686 44.3119 90.8251 44.45625 90.93335 44.60057 91.0416 44.74492 91.14986 44.88927 91.2581 45.03358 91.36636 45.17793 91.47461 45.32228 91.58287 45.4666 91.69112 45.61095 91.79938 45.75526 91.90762 45.89961 92.01588 46.04396 92.12413 46.18828 92.23239 46.33263 92.34064 46.47696 92.4489 46.62129 92.55714 46.76564 92.6654 46.90997 92.77365 47.0543 92.88191 47.19864 92.99016 47.34299 93.09842 47.48732 93.20667 47.63165 93.31493 47.776 93.42316 47.92032 93.53142 48.06467 93.63966 48.20901 93.74792 48.35333 93.85617 48.49768 93.96442 48.642 94.07268 48.78635 94.18092 48.9307 94.28918 49.07501 94.39743 49.21936 94.50569 49.3637 94.61394 49.50803 94.7222 49.65237 94.83044 49.7967 94.9387 49.94104 95.04695 50.08537 95.15521 50.22972 95.26346 50.37405 95.37172 50.51839 95.47997 50.66273 95.58821 50.80705 95.69646 50.9514 95.80472 51.09575 95.91296 51.24007 96.02122 51.38441 96.12947 51.52873 96.23773 51.67308 96.34598 51.81743 96.45424 51.96175 96.56248 52.1061 96.67075 52.25044 96.77899 52.39476 96.88725 52.53911 96.9955 52.68344 97.10376 52.82777 97.212 52.97212 97.32027 53.11646 97.42851 53.26079 97.53677 53.40512 97.64502 53.54947 97.75327 53.6938 97.86151 53.83813 97.96977 53.98248 98.07802 54.1268 98.18628 54.27115 98.29453 54.4155 98.40277 54.55981 98.51103 54.70416 98.61928 54.84848 98.72755 54.99283 98.83578 55.13718 98.94405 55.2815 99.05229 55.42584 99.16055 55.57018 99.2688 55.71451 99.37706 55.85886 99.4853 56.00319 99.59357 56.14752 99.70181 56.29185 99.81007 56.4362 99.9183 56.58054 100.02657 56.72487 100.13481 56.86922 100.24307 57.01353 100.35132 57.15788 100.45958 57.30223 100.56783 57.44655 100.6761 57.5909 100.78433 57.73521 100.8926 57.87956 101.00084 58.02391 101.1091 58.16823 101.21735 58.31258 101.3256 58.45691 101.43385 58.60124 101.54211 58.74559 101.65036 58.88992 101.75862 59.03426 101.86687 59.1786 101.97513 59.32294 102.08337 59.46727 102.19162 59.6116 102.29987 59.75595 102.40813 59.90028 102.51637 60.04462 102.62463 60.18896 102.7329 60.33328 102.84114 60.47763 102.9494 60.62196 103.05765 60.7663 103.1659 60.91064 103.27414 61.05496 103.3824 61.19931 103.49065 61.34366 103.5989 61.48798 103.70715 61.63232 103.81541 61.77666 103.92366 61.92099 104.03192 62.06534 104.14017 62.20967 104.24843 62.354 104.35666 62.49834 104.46492 62.64268 104.57318 62.78702 104.68144 62.93135 104.78967 63.0757 104.89795 63.22002 105.0062 63.36436 105.11446 63.5087 105.2227 63.65303 105.33095 63.79738 105.4392 63.9417 105.54745 64.08604 105.6557 64.2304 105.76396 64.37471 105.87221 64.51906 105.98047 64.66339 106.08871 64.80772 106.19698 64.95207 106.30522 65.0964 106.41347 65.24074 106.52171 65.38509 106.62999 65.52942 106.73824 65.67375 106.8465 65.81808 106.95474 65.96243 107.063 66.10677 107.17125 66.2511 107.2795 66.39543 107.38776 66.53976 107.496 66.68411 107.60425 66.82845 107.7125 66.97278 107.82076 67.11713 107.929 67.26144 108.03726 67.40579 108.14551 67.55014 108.25377 67.69446 108.36201 67.8388 108.47028 67.98314 108.57852 68.12747 108.68678 68.27182 108.79503 68.41615 108.90329 68.56049 109.01154 68.70482 109.1198 68.84917 109.22804 68.9935 109.3363 69.13783 109.44455 69.28217 109.55281 69.42651 109.66106 69.57085 109.76932 69.71518 109.87755 69.85951 109.98581 70.00386 110.09406 70.1482 110.20232 70.29253 110.31056 70.43687 110.41882 70.58119 110.52707 70.72554 110.63533 70.86989 110.74358 71.0142 110.85184 71.15855 110.96008 71.3029 111.06834 71.44722 111.17659 71.59157 111.28485 71.7359 111.3931 71.88023 111.50134 72.02458 111.6096 72.1689 111.71785 72.31325 111.82611 72.45758 111.93436 72.60191 112.04262 72.74626 112.15086 72.8906 112.25912 73.03493 112.36736 73.17928 112.47562 73.32361 112.58386 73.46794 112.69212 73.61227 112.80037 73.75662 112.90863 73.90096 113.01688 74.04529 113.12514 74.18964 113.23338 74.33395 113.34166 74.4783 113.4499 74.62265 113.55815 74.76697 113.6664 74.91132 113.77466 75.05563 113.8829 75.19998 113.99117 75.34433 114.09941 75.48865 114.20767 75.633 114.31592 75.77734 114.42418 75.92166 114.53242 76.06601 114.64069 76.21034 114.74893 76.35468 114.85718 76.49902 114.96542 76.64336 115.0737 76.78769 115.18193 76.93204 115.29019 77.07637 115.39845 77.2207 115.50671 77.36504 115.61496 77.50938 115.72322 77.65372 115.83145 77.79805 115.9397 77.94238 116.04796 78.08672 116.1562 78.23106 116.26447 78.3754 116.37271 78.51973 116.48097 78.66408 116.58922 78.8084 116.69748 78.95274 116.80573 79.09709 116.91399 79.24141 117.02222 79.38576 117.1305 79.5301 117.23874 79.67442 117.347 79.81877 117.45525 79.9631 117.5635 80.10744 117.67175 80.25179 117.78001 80.39612 117.88826 80.54045 117.99652 80.68478 118.10477 80.82912 118.21303 80.97346 118.32126 81.1178 118.42952 81.26213 118.53777 81.40648 118.64603 81.55081 118.75427 81.69514 118.86253 81.83948 118.97078 81.98383 119.07904 82.12816 119.18729 82.27249 119.29555 82.41684 119.4038 82.56116 119.51205 82.7055 119.6203 82.84985 119.72856 82.99417 119.8368 83.13852 119.94507 83.28285 120.05331 83.42719 120.16158 83.57153 120.26982 83.71585 120.37807 83.8602 120.48633 84.00455 120.59456 84.14886 120.70282 84.29321 120.81107 84.43755 120.91933 84.58188 121.02757 84.72623 121.13583 84.87056 121.24408 85.0149 121.35234 85.15923 121.46059 85.30357 121.56885 85.4479 121.6771 85.59224 121.78535 85.73659 121.8936 85.88092 122.00186 86.02525 122.1101 86.1696 122.21837 86.31392 122.32661 86.45827 122.43488 86.6026 122.54312 86.74693 122.65138 86.89128 122.75963 87.0356 122.86789 87.17995 122.97614 87.3243 123.08438 87.46861 123.19263 87.61296 123.30089 87.7573 123.40913 87.90163 123.5174 88.04597 123.62564 88.1903 123.7339 88.33464 123.84216 88.47897 123.95041 88.62332 124.05865 88.76765 124.16692 88.91199 124.27516 89.05634 124.38342 89.20065 124.49167 89.345 124.59993 89.48933 124.70818 89.63367 124.81642 89.77802 124.92468 89.92233 125.03293 90.06668 125.14119 90.21103 125.24942 90.35535 125.35768 90.4997 125.46593 90.64404 125.57419 90.78836 125.68243 90.93271 125.7907 91.07704 125.89896 91.22137 126.00722 91.36572 126.11546 91.51006 126.22371 91.65439 126.33195 91.79872 126.44022 91.94307 126.54846 92.0874 126.65672 92.23174 126.76497 92.37608 126.87323 92.5204 126.98148 92.66475 127.08974 92.80908 127.19798 92.95341 127.30623 93.09776 127.41447 93.24208 127.52274 93.38643 127.63098 93.53078 127.73926 93.6751 127.8475 93.81944 127.95575 93.96378 128.06401 94.10811 128.17227 94.25246 128.28052 94.39679 128.38878 94.54112 128.49701 94.68546 128.60527 94.8298 128.71352 94.97414 128.82178 95.11847 128.93003 95.26282 129.03827 95.40714 129.14653 95.55148 129.25478 95.69582 129.36304 95.84015 129.47129 95.9845 129.57953"/>
<path transform="matrix(1.00003,0,0,-1.00002,2.0964967,155.3758)" d="M95.98529 129.58014" fill="#ffffff"/>
<path transform="matrix(1.00003,0,0,-1.00002,2.0964967,155.3758)" stroke-width=".99628" stroke-linecap="butt" stroke-miterlimit="10" stroke-linejoin="miter" fill="none" stroke="#1414cc" d="M95.98529 129.58014"/>
<path transform="matrix(1.00003,0,0,-1.00002,2.0964967,155.3758)" d="M105.58382 105.58382" fill="#1414cc"/>
<path transform="matrix(1.00003,0,0,-1.00002,2.0964967,155.3758)" stroke-width=".99628" stroke-linecap="butt" stroke-miterlimit="10" stroke-linejoin="miter" fill="none" stroke="#1414cc" d="M105.58382 105.58382"/>
<path transform="matrix(1.00003,0,0,-1.00002,2.0964967,155.3758)" stroke-width="1.49442" stroke-linecap="butt" stroke-miterlimit="10" stroke-linejoin="miter" fill="none" stroke="#1414cc" d="M105.58382 105.58382 105.70409 105.46352 105.82437 105.34325 105.94464 105.22296 106.06494 105.10269 106.18521 104.98239 106.3055 104.86212 106.42578 104.74184 106.54607 104.62154 106.66635 104.50127 106.78662 104.38098 106.9069 104.26071 107.02719 104.14041 107.14748 104.02014 107.26775 103.89986 107.38803 103.77959 107.50832 103.65929 107.6286 103.53902 107.74889 103.41873 107.86916 103.29845 107.98946 103.17816 108.10973 103.05788 108.23001 102.9376 108.35028 102.81732 108.47058 102.69704 108.59085 102.57675 108.71114 102.45648 108.8314 102.3362 108.9517 102.21591 109.07198 102.09563 109.19226 101.97536 109.31255 101.85507 109.43283 101.73477 109.55312 101.6145 109.67339 101.49422 109.79367 101.37395 109.91396 101.25365 110.03424 101.13338 110.15451 101.01309 110.2748 100.89282 110.39508 100.77252 110.51537 100.65225 110.63565 100.53197 110.75592 100.41168 110.87622 100.2914 110.99649 100.17111 111.11678 100.05084 111.23705 99.93056 111.35735 99.81027 111.47762 99.68999 111.5979 99.56972 111.71817 99.44943 111.83847 99.32915 111.95874 99.20886 112.07903 99.0886 112.19931 98.9683 112.3196 98.848 112.43988 98.72774 112.56015 98.60745 112.68044 98.48718 112.80072 98.36688 112.921 98.24661 113.04128 98.12633 113.16156 98.00606 113.28185 97.88576 113.40213 97.76549 113.52242 97.6452 113.64268 97.52492 113.76299 97.40463 113.88326 97.28435 114.00354 97.16408 114.12381 97.0438 114.24411 96.92351 114.36438 96.80322 114.48466 96.68295 114.60493 96.56267 114.72523 96.44238 114.8455 96.3221 114.96579 96.20183 115.08607 96.08154 115.20636 95.96124 115.32664 95.84099 115.44691 95.72069 115.5672 95.6004 115.68748 95.48012 115.80777 95.35986 115.92804 95.23956 116.04832 95.1193 116.16861 94.999 116.2889 94.87872 116.40918 94.75844 116.52945 94.63815 116.64975 94.51787 116.77002 94.39758 116.8903 94.27731 117.01057 94.15703 117.13087 94.03674 117.25114 93.91647 117.37143 93.79619 117.4917 93.67589 117.612 93.55562 117.73227 93.43535 117.85255 93.31506 117.97284 93.19476 118.09312 93.07448 118.21341 92.95421 118.33368 92.83392 118.45396 92.71365 118.57425 92.59335 118.69453 92.47308 118.8148 92.3528 118.93509 92.23253 119.05537 92.11223 119.17566 91.99196 119.29594 91.87167 119.41621 91.75137 119.53651 91.6311 119.65678 91.51083 119.77707 91.39055 119.89734 91.27025 120.01764 91.14998 120.13791 91.0297 120.2582 90.90942 120.37846 90.78914 120.49876 90.66885 120.61903 90.54858 120.73932 90.4283 120.8596 90.30801 120.97989 90.18771 121.10017 90.06744 121.22044 89.94716 121.34073 89.82689 121.46101 89.70659 121.5813 89.58633 121.70157 89.46603 121.82185 89.34575 121.94214 89.22546 122.06242 89.10521 122.18271 88.98491 122.30298 88.86462 122.42328 88.74434 122.54355 88.62405 122.66383 88.50378 122.7841 88.3835 122.9044 88.26321 123.02467 88.14293 123.14496 88.02266 123.26523 87.90237 123.38553 87.78209 123.5058 87.6618 123.62608 87.54153 123.74637 87.42123 123.86665 87.30095 123.98694 87.1807 124.10721 87.0604 124.2275 86.94011 124.34778 86.81982 124.46806 86.69957 124.58833 86.57927 124.70862 86.459 124.8289 86.3387 124.94919 86.21843 125.06947 86.09814 125.18974 85.97787 125.31004 85.85757 125.43031 85.73729 125.5506 85.61702 125.67087 85.49673 125.79117 85.37645 125.91144 85.25618 126.03172 85.1359 126.152 85.0156 126.2723 84.89532 126.39256 84.77505 126.51285 84.65477 126.63313 84.53447 126.75342 84.41418 126.8737 84.29391 126.99397 84.17363 127.11426 84.05336 127.23454 83.93306 127.35483 83.81279 127.4751 83.6925 127.59538 83.57224 127.71567 83.45193 127.83595 83.33167 127.95624 83.21138 128.0765 83.0911 128.19681 82.97081 128.31708 82.85054 128.43737 82.73026 128.55764 82.60995 128.67794 82.48969 128.7982 82.36942 128.91849 82.24913 129.03876 82.12885 129.15906 82.00856 129.27933 81.88828 129.39962 81.768 129.5199 81.64772 129.64019 81.52742 129.76047 81.40715 129.88074 81.28687 130.00102 81.16658 130.1213 81.0463 130.2416 80.92604 130.36186 80.80574 130.48215 80.68547 130.60243 80.56517 130.72272 80.44492 130.84299 80.32462 130.96327 80.20433 131.08358 80.08405 131.20384 79.96376 131.32413 79.84349 131.4444 79.7232 131.5647 79.60292 131.68497 79.48264 131.80525 79.36237 131.92552 79.24208 132.04582 79.1218 132.16609 79.00151 132.28638 78.88124 132.40666 78.76094 132.52695 78.64066 132.64723 78.5204 132.7675 78.4001 132.88779 78.27982 133.00807 78.15953 133.12836 78.03928 133.24863 77.91898 133.36891 77.79869 133.4892 77.6784 133.60948 77.55814 133.72975 77.43785 133.85004 77.31758 133.97034 77.19728 134.0906 77.077 134.21089 76.95673 134.33116 76.83644 134.45146 76.71616 134.57173 76.59589 134.69202 76.4756 134.81229 76.3553 134.93259 76.23503 135.05286 76.11476 135.17314 75.99448 135.29343 75.87418 135.41371 75.75389 135.534 75.63364 135.65427 75.51334 135.77455 75.39307 135.89484 75.27277 136.01512 75.1525 136.13539 75.03221 136.25568 74.91194 136.37596 74.79164 136.49625 74.67137 136.61652 74.55109 136.7368 74.4308 136.8571 74.31052 136.97737 74.19025 137.09766 74.06996 137.21793 73.94966 137.33823 73.82939 137.4585 73.70912 137.57878 73.58884 137.69905 73.46854 137.81935 73.34827 137.93962 73.22798 138.0599 73.10771 138.18019 72.98743 138.30048 72.86713 138.42076 72.74686 138.54103 72.62657 138.66132 72.5063 138.7816 72.386 138.90189 72.26575 139.02216 72.14545 139.14244 72.02516 139.26273 71.90488 139.38301 71.78462 139.50328 71.66432 139.62357 71.54404 139.74387 71.42375 139.86414 71.30347 139.98442 71.1832 140.10469 71.06291 140.22499 70.94263 140.34526 70.82236 140.46555 70.70207 140.58582 70.58179 140.70612 70.4615 140.82639 70.34122 140.94667 70.22095 141.06696 70.10065 141.18724 69.98036 141.30753 69.8601 141.4278 69.7398 141.54808 69.61952 141.66837 69.49924 141.78865 69.37898 141.90892 69.25868 142.0292 69.1384 142.14949 69.01811 142.26978 68.89784 142.39005 68.77756 142.51033 68.65729 142.63063 68.53699 142.7509 68.4167 142.87119 68.29643 142.99146 68.17615 143.11176 68.05586 143.23203 67.9356 143.35231 67.8153 143.47258 67.695 143.59288 67.57474 143.71315 67.45445 143.83344 67.33418 143.95372 67.21388 144.074 67.0936 144.19429 66.97334 144.31456 66.85304 144.43485 66.73277 144.55513 66.61247 144.67542 66.4922 144.79569 66.37192 144.91597 66.25165 145.03626 66.13135 145.15654 66.01108 145.27681 65.8908 145.3971 65.77051 145.5174 65.65022 145.63767 65.52995 145.75795 65.40967 145.87822 65.28937 145.99852 65.1691 146.11879 65.04883 146.23908 64.92854 146.35935 64.80824 146.47965 64.68797 146.59992 64.56769 146.7202 64.44742 146.84049 64.32713 146.96077 64.20683 147.08106 64.08656 147.20133 63.96628 147.32161 63.84601 147.4419 63.72571 147.56218 63.60545 147.68245 63.48515 147.80274 63.36487 147.92302 63.24458 148.0433 63.12433 148.16358 63.00403 148.28386 62.88374 148.40416 62.76346 148.52443 62.64319 148.64472 62.5229 148.76499 62.40262 148.88529 62.28233 149.00556 62.16205 149.12584 62.04178 149.24611 61.9215 149.36641 61.80121 149.48668 61.68092 149.60697 61.56065 149.72725 61.44035 149.84754 61.32007 149.96782 61.19981 150.08809 61.07951 150.20838 60.95924 150.32866 60.83894 150.44895 60.71869 150.56922 60.59839 150.6895 60.4781 150.80979 60.35782 150.93007 60.23755 151.05034 60.11726 151.17063 59.997 151.29093 59.8767 151.4112 59.75641 151.53148 59.63614 151.65175 59.51585 151.77205 59.39557 151.89232 59.27528 152.0126 59.15501 152.13288 59.03471 152.25318 58.91444 152.37345 58.79417 152.49373 58.67389 152.61402 58.55359 152.7343 58.4333 152.85459 58.31305 152.97486 58.19275 153.09514 58.07248 153.21543 57.95218 153.33571 57.83191 153.45598 57.71162 152.76793 58.39975"/>
<path transform="matrix(.7070812,.7071542,.70716127,-.70707419,154.86902,96.97485)" stroke-width="1.19553" stroke-linecap="round" stroke-linejoin="round" fill="none" stroke="#1414cc" d="M-2.18182 2.9091C-2 1.81818 0 .18181 .54544 0 0-.18181-2-1.81818-2.18182-2.9091"/>
</g>
<path transform="matrix(1.00003,0,0,-1.00002,2.0964967,155.3758)" d="M40.38666 47.99265C40.38666 49.09311 39.49458 49.9852 38.3941 49.9852 37.29364 49.9852 36.40155 49.09311 36.40155 47.99265 36.40155 46.89217 37.29364 46.00009 38.3941 46.00009 39.49458 46.00009 40.38666 46.89217 40.38666 47.99265ZM38.3941 47.99265" fill="#1414cc"/>
<path transform="matrix(1.00003,0,0,-1.00002,2.0964967,155.3758)" stroke-width=".99628" stroke-linecap="butt" stroke-miterlimit="10" stroke-linejoin="miter" fill="none" stroke="#1414cc" d="M40.38666 47.99265C40.38666 49.09311 39.49458 49.9852 38.3941 49.9852 37.29364 49.9852 36.40155 49.09311 36.40155 47.99265 36.40155 46.89217 37.29364 46.00009 38.3941 46.00009 39.49458 46.00009 40.38666 46.89217 40.38666 47.99265ZM38.3941 47.99265"/>
<path transform="matrix(1.00003,0,0,-1.00002,2.0964967,155.3758)" d="" fill="#1414cc"/>
<path transform="matrix(1.00003,0,0,-1.00002,2.0964967,155.3758)" stroke-width=".99628" stroke-linecap="butt" stroke-miterlimit="10" stroke-linejoin="miter" fill="none" stroke="#1414cc" d=""/>
<path transform="matrix(1.00003,0,0,-1.00002,2.0964967,155.3758)" d="M40.38666 86.38675C40.38666 87.48723 39.49458 88.3793 38.3941 88.3793 37.29364 88.3793 36.40155 87.48723 36.40155 86.38675 36.40155 85.28629 37.29364 84.3942 38.3941 84.3942 39.49458 84.3942 40.38666 85.28629 40.38666 86.38675ZM38.3941 86.38675" fill="#ffffff"/>
<path transform="matrix(1.00003,0,0,-1.00002,2.0964967,155.3758)" stroke-width=".99628" stroke-linecap="butt" stroke-miterlimit="10" stroke-linejoin="miter" fill="none" stroke="#1414cc" d="M40.38666 86.38675C40.38666 87.48723 39.49458 88.3793 38.3941 88.3793 37.29364 88.3793 36.40155 87.48723 36.40155 86.38675 36.40155 85.28629 37.29364 84.3942 38.3941 84.3942 39.49458 84.3942 40.38666 85.28629 40.38666 86.38675ZM38.3941 86.38675"/>
<path transform="matrix(1.00003,0,0,-1.00002,2.0964967,155.3758)" d="" fill="#ffffff"/>
<path transform="matrix(1.00003,0,0,-1.00002,2.0964967,155.3758)" stroke-width=".99628" stroke-linecap="butt" stroke-miterlimit="10" stroke-linejoin="miter" fill="none" stroke="#1414cc" d=""/>
<path transform="matrix(1.00003,0,0,-1.00002,2.0964967,155.3758)" d="M97.97784 129.58014C97.97784 130.6806 97.08575 131.5727 95.98529 131.5727 94.88481 131.5727 93.99274 130.6806 93.99274 129.58014 93.99274 128.47966 94.88481 127.58759 95.98529 127.58759 97.08575 127.58759 97.97784 128.47966 97.97784 129.58014ZM95.98529 129.58014" fill="#ffffff"/>
<path transform="matrix(1.00003,0,0,-1.00002,2.0964967,155.3758)" stroke-width=".99628" stroke-linecap="butt" stroke-miterlimit="10" stroke-linejoin="miter" fill="none" stroke="#1414cc" d="M97.97784 129.58014C97.97784 130.6806 97.08575 131.5727 95.98529 131.5727 94.88481 131.5727 93.99274 130.6806 93.99274 129.58014 93.99274 128.47966 94.88481 127.58759 95.98529 127.58759 97.08575 127.58759 97.97784 128.47966 97.97784 129.58014ZM95.98529 129.58014"/>
<path transform="matrix(1.00003,0,0,-1.00002,2.0964967,155.3758)" d="" fill="#ffffff"/>
<path transform="matrix(1.00003,0,0,-1.00002,2.0964967,155.3758)" stroke-width=".99628" stroke-linecap="butt" stroke-miterlimit="10" stroke-linejoin="miter" fill="none" stroke="#1414cc" d=""/>
<path transform="matrix(1.00003,0,0,-1.00002,2.0964967,155.3758)" d="M107.57637 105.58382C107.57637 106.68428 106.68428 107.57637 105.58382 107.57637 104.48334 107.57637 103.59126 106.68428 103.59126 105.58382 103.59126 104.48334 104.48334 103.59126 105.58382 103.59126 106.68428 103.59126 107.57637 104.48334 107.57637 105.58382ZM105.58382 105.58382" fill="#1414cc"/>
<path transform="matrix(1.00003,0,0,-1.00002,2.0964967,155.3758)" stroke-width=".99628" stroke-linecap="butt" stroke-miterlimit="10" stroke-linejoin="miter" fill="none" stroke="#1414cc" d="M107.57637 105.58382C107.57637 106.68428 106.68428 107.57637 105.58382 107.57637 104.48334 107.57637 103.59126 106.68428 103.59126 105.58382 103.59126 104.48334 104.48334 103.59126 105.58382 103.59126 106.68428 103.59126 107.57637 104.48334 107.57637 105.58382ZM105.58382 105.58382"/>
<path transform="matrix(1.00003,0,0,-1.00002,2.0964967,155.3758)" d="" fill="#1414cc"/>
<path transform="matrix(1.00003,0,0,-1.00002,2.0964967,155.3758)" stroke-width=".99628" stroke-linecap="butt" stroke-miterlimit="10" stroke-linejoin="miter" fill="none" stroke="#1414cc" d=""/>
<use data-text="x" xlink:href="#font_4_1" transform="matrix(9.962899,0,0,-9.962799,146.48883,75.053188)"/>
<use data-text="y" xlink:href="#font_4_2" transform="matrix(9.962899,0,0,-9.962799,82.422908,9.572876)"/>
</svg>
