<svg xmlns="http://www.w3.org/2000/svg" xmlns:xlink="http://www.w3.org/1999/xlink" xmlns:inkscape="http://www.inkscape.org/namespaces/inkscape" version="1.1" width="101" height="100" viewBox="0 0 101 100">
<defs>
<clipPath id="clip_1">
<path transform="matrix(1,0,0,-1.00006,2.0960007,98.68896)" d="M0 0H96.88524V96.88524H0Z"/>
</clipPath>
<path id="font_2_1" d="M.44099427 .7259979C.44099427 .72698977 .44400025 .73098757 .44400025 .73599246 .44400025 .73999026 .44198609 .75 .4269867 .75 .40699769 .75 .1499939 .58999636 .1499939 .25 .1499939-.08900452 .40699769-.25 .4269867-.25 .44198609-.25 .44400025-.2400055 .44400025-.23600769 .44400025-.2290039 .43998719-.22601319 .43598939-.2230072 .25898744-.08200073 .22698975 .12098694 .22698975 .25 .22698975 .49499513 .33999635 .6559906 .44099427 .7259979Z"/>
<path id="font_2_4" d="M.397995 .63591006C.397995 .6660156 .394989 .6660156 .3619995 .6660156 .29100038 .6016083 .17999268 .6016083 .1599884 .6016083H.14299011V.5576172H.1599884C.18299866 .5576172 .24798584 .5606079 .30599977 .58561709V.08596802C.30599977 .054977418 .30599977 .04399109 .19999695 .04399109H.1499939V0C.20498657 .0039978029 .2939911 .0039978029 .35198976 .0039978029 .4099884 .0039978029 .49899293 .0039978029 .55400088 0V.04399109H.5039978C.397995 .04399109 .397995 .054977418 .397995 .08596802V.63591006Z"/>
<path id="font_3_1" d="M.269989 .01399231C.269989-.08216858 .21798706-.13726807 .19099427-.15931702 .18099976-.16732788 .1789856-.16934204 .1789856-.17634583 .1789856-.18234253 .18798828-.19433594 .19699097-.19433594 .20999146-.19433594 .3039856-.1162262 .3039856 .008987427 .3039856 .07699585 .27398683 .12199402 .22898865 .12199402 .19099427 .12199402 .16799927 .09199524 .16799927 .06098938 .16799927 .0289917 .19099427 0 .22898865 0 .24398804 0 .25898744 .0039978029 .269989 .01399231Z"/>
<path id="font_2_3" d="M.6009979 .31976319C.6009979 .3918152 .6009979 .6660156 .33999635 .6660156 .07899475 .6660156 .07899475 .3918152 .07899475 .31976319 .07899475 .2467041 .07899475-.022460938 .33999635-.022460938 .6009979-.022460938 .6009979 .2467041 .6009979 .31976319M.33999635 .010528564C.30299378 .010528564 .21899414 .023544312 .19400025 .12461853 .17999268 .17866516 .1789856 .24971009 .1789856 .33177186 .1789856 .405838 .1789856 .47488404 .19499207 .5319214 .21998596 .6159973 .29699708 .63301089 .33999635 .63301089 .4139862 .63301089 .46699525 .5949707 .4869995 .5249176 .5009918 .47387696 .5009918 .39082337 .5009918 .33177186 .5009918 .26371766 .5009918 .18266297 .48599244 .12261963 .45999146 .025543213 .37998963 .010528564 .33999635 .010528564Z"/>
<path id="font_2_2" d="M.3909912 .25C.3909912 .58898928 .13398743 .75 .11399841 .75 .09799194 .75 .09799194 .73799136 .09799194 .73599246 .09799194 .73498538 .09799194 .72898867 .10398865 .72299197 .2539978 .60398867 .31399537 .42999269 .31399537 .25 .31399537 .1599884 .29699708 .06599426 .2630005-.01600647 .21499634-.13000489 .1519928-.18501282 .102996829-.2250061 .099990848-.227005 .09799194-.23200989 .09799194-.23600769 .09799194-.23800659 .09799194-.25 .11399841-.25 .13398743-.25 .3909912-.0900116 .3909912 .25Z"/>
<path id="font_3_2" d="M.31498719 .6563263C.31900025 .67033389 .31900025 .67233279 .31900025 .6773224 .31900025 .69433596 .3039856 .69433596 .28799439 .69332888L.16499329 .6843262C.147995 .68333438 .1459961 .6823273 .14099121 .67832949 .13699341 .6733246 .13398743 .6613312 .13398743 .6553345 .13398743 .6383209 .1499939 .6383209 .1639862 .6383209 .16499329 .6383209 .18299866 .6383209 .19799805 .636322 .21699524 .6343231 .21798706 .6313324 .21798706 .6233368 .21798706 .6173401 .20799256 .5783386 .20199585 .5563507L.11898804 .22131348C.11399841 .20030213 .11099243 .18431092 .11099243 .16229248 .11099243 .058258058 .18499756-.0107421879 .2809906-.0107421879 .42599488-.0107421879 .5629883 .12928772 .5629883 .2683258 .5629883 .3673706 .4909973 .4423828 .3880005 .4423828 .34599305 .4423828 .29699708 .42637635 .24798584 .3883667L.31498719 .6563263M.2829895 .023254395C.23999024 .023254395 .19099427 .04925537 .19099427 .13027954 .19099427 .16229248 .19898987 .19430542 .20698548 .22831726 .20999146 .24032593 .22698975 .30534364 .22799683 .31134034 .23098755 .3213501 .30099488 .40837098 .3849945 .40837098 .42799378 .40837098 .47299195 .38237 .47299195 .3063507 .47299195 .2693329 .45399476 .17530823 .42199708 .11727905 .3880005 .058258058 .33198548 .023254395 .2829895 .023254395Z"/>
<path id="font_4_1" d="M.33399964 .30233766C.33999635 .32835389 .36299134 .42037965 .43299867 .42037965 .43798829 .42037965 .46199037 .42037965 .48298646 .40734864 .45498658 .402359 .43499757 .37734986 .43499757 .35334779 .43499757 .33735658 .44599916 .31835938 .47299195 .31835938 .49499513 .31835938 .5269928 .3363495 .5269928 .37635804 .5269928 .42837525 .46798707 .4423828 .43399049 .4423828 .37599183 .4423828 .34098817 .38935853 .32899476 .36634828 .3039856 .43237306 .25 .4423828 .22099304 .4423828 .116989139 .4423828 .05999756 .3133545 .05999756 .28834535 .05999756 .27833558 .069992069 .27833558 .07199097 .27833558 .07998657 .27833558 .08299255 .28033448 .084991458 .28933717 .11898804 .39535523 .18499756 .42037965 .21899414 .42037965 .23799134 .42037965 .272995 .4113617 .272995 .35334779 .272995 .32235719 .2559967 .25532533 .21899414 .11528015 .20298767 .053268434 .16799927 .011245728 .12399292 .011245728 .117996219 .011245728 .09498596 .011245728 .07398987 .024276734 .09899902 .029266358 .12098694 .05027771 .12098694 .07827759 .12098694 .105270389 .09899902 .11328125 .083999637 .11328125 .053985597 .11328125 .0289917 .08728027 .0289917 .055267335 .0289917 .009246826 .07899475-.0107421879 .12298584-.0107421879 .18899536-.0107421879 .22499085 .059280397 .22799683 .0652771 .23999024 .028274537 .27598573-.0107421879 .33599855-.0107421879 .43899537-.0107421879 .49598695 .118270877 .49598695 .14328003 .49598695 .1532898 .4869995 .1532898 .48399354 .1532898 .47499085 .1532898 .47299195 .14929199 .47099305 .14228821 .43798829 .03527832 .36999513 .011245728 .33799745 .011245728 .29899598 .011245728 .2829895 .043273927 .2829895 .07727051 .2829895 .09927368 .2889862 .121276859 .2999878 .16529846L.33399964 .30233766Z"/>
<path id="font_4_2" d="M.48599244 .38136292C.48999024 .39537049 .48999024 .39736939 .48999024 .40437318 .48999024 .42237855 .47599793 .43138124 .46099855 .43138124 .45098878 .43138124 .43499757 .42536927 .42599488 .41036988 .42399598 .405365 .41600038 .37435914 .4119873 .35635377 .40499879 .33035279 .397995 .30334474 .3919983 .27633668L.34700013 .09628296C.34298707 .08126831 .2999878 .011245728 .23399353 .011245728 .18299866 .011245728 .17199707 .055267335 .17199707 .0922699 .17199707 .1382904 .18899536 .20030213 .22299195 .28833009 .23899842 .3293457 .24299622 .3403473 .24299622 .36035157 .24299622 .405365 .21099854 .4423828 .16099549 .4423828 .06599426 .4423828 .0289917 .29733277 .0289917 .28833009 .0289917 .27833558 .038986207 .27833558 .040985109 .27833558 .050994874 .27833558 .051986696 .28033448 .056991579 .29634095 .083999637 .3903656 .12399292 .42037965 .1579895 .42037965 .1659851 .42037965 .18299866 .42037965 .18299866 .3883667 .18299866 .36335755 .17298889 .3373413 .1659851 .31834413 .12599182 .21231079 .10798645 .1552887 .10798645 .10827637 .10798645 .019256592 .17098999-.0107421879 .22999573-.0107421879 .2689972-.0107421879 .30299378 .0062561037 .33099366 .03425598 .31799317-.017745972 .30599977-.06674194 .2659912-.11973572 .23999024-.15385437 .20199585-.18309021 .1559906-.18309021 .14199829-.18309021 .09700012-.18005371 .07998657-.14074707 .09599304-.14074707 .10899353-.14074707 .12298584-.1287384 .1329956-.11973572 .14299011-.10673523 .14299011-.08773804 .14299011-.056747438 .115997318-.052734376 .10598755-.052734376 .08299255-.052734376 .049987794-.068740848 .049987794-.11773682 .049987794-.16796875 .09399414-.20507813 .1559906-.20507813 .25898744-.20507813 .3619995-.11373901 .3899994-.00074768069L.48599244 .38136292Z"/>
</defs>
<path transform="matrix(1,0,0,-1.00006,2.0960007,98.68896)" stroke-width=".3985" stroke-linecap="butt" stroke-miterlimit="10" stroke-linejoin="miter" fill="none" stroke="#404040" d="M0 0H96.88524V96.88524H0Z"/>
<path transform="matrix(1,0,0,-1.00006,2.0960007,98.68896)" stroke-width=".3985" stroke-linecap="butt" stroke-miterlimit="10" stroke-linejoin="miter" fill="none" stroke="#bfbfbf" d=""/>
<path transform="matrix(1,0,0,-1.00006,2.0960007,98.68896)" stroke-width=".3985" stroke-linecap="butt" stroke-miterlimit="10" stroke-linejoin="miter" fill="none" stroke="#bfbfbf" d=""/>
<path transform="matrix(1,0,0,-1.00006,2.0960007,98.68896)" stroke-width=".3985" stroke-linecap="butt" stroke-miterlimit="10" stroke-linejoin="miter" fill="none" stroke="#bfbfbf" d=""/>
<path transform="matrix(1,0,0,-1.00006,2.0960007,98.68896)" stroke-width=".3985" stroke-linecap="butt" stroke-miterlimit="10" stroke-linejoin="miter" fill="none" stroke="#bfbfbf" d=""/>
<path transform="matrix(1,0,0,-1.00006,2.0960007,98.68896)" stroke-width=".19925" stroke-linecap="butt" stroke-miterlimit="10" stroke-linejoin="miter" fill="none" stroke="#7f807f" d=""/>
<path transform="matrix(1,0,0,-1.00006,2.0960007,98.68896)" stroke-width=".19925" stroke-linecap="butt" stroke-miterlimit="10" stroke-linejoin="miter" fill="none" stroke="#7f807f" d=""/>
<path transform="matrix(1,0,0,-1.00006,2.0960007,98.68896)" stroke-width=".19925" stroke-linecap="butt" stroke-miterlimit="10" stroke-linejoin="miter" fill="none" stroke="#7f807f" d=""/>
<path transform="matrix(1,0,0,-1.00006,2.0960007,98.68896)" stroke-width=".19925" stroke-linecap="butt" stroke-miterlimit="10" stroke-linejoin="miter" fill="none" stroke="#7f807f" d=""/>
<path transform="matrix(1,0,0,-1.00006,2.0960007,98.68896)" stroke-width=".3985" stroke-linecap="butt" stroke-miterlimit="10" stroke-linejoin="miter" fill="none" stroke="#000000" d="M0 48.44261H94.89272"/>
<path transform="matrix(1,0,0,-1.00006,96.98872,50.243444)" d="M1.99252 0-1.19551 1.59401 0 0-1.19551-1.59401"/>
<path transform="matrix(1,0,0,-1.00006,2.0960007,98.68896)" stroke-width=".3985" stroke-linecap="butt" stroke-miterlimit="10" stroke-linejoin="miter" fill="none" stroke="#000000" d="M48.44261 0V94.89272"/>
<path transform="matrix(0,-1.00006,-1,-0,50.538614,3.7905427)" d="M1.99252 0-1.19551 1.59401 0 0-1.19551-1.59401"/>
<g clip-path="url(#clip_1)">
<path transform="matrix(1,0,0,-1.00006,2.0960007,98.68896)" stroke-width="1.49442" stroke-linecap="butt" stroke-miterlimit="10" stroke-linejoin="miter" fill="none" stroke="#1414cc" d="M48.5943 1.41261 48.81456 12.59023 49.05736 18.4421 49.30013 22.31992 49.54291 25.22406 49.78569 27.54607 50.02847 29.48135 50.27124 31.14212 50.51404 32.5946 50.75682 33.8856 50.99959 35.04741 51.24239 36.10426 51.48515 37.07135 51.72794 37.96738 51.97072 38.79784 52.2135 39.57326 52.45627 40.30061 52.69907 40.98471 52.94183 41.63052 53.18462 42.24228 53.4274 42.82375 53.67018 43.37793 53.91296 43.90724 54.15575 44.41339 54.39853 44.89645 54.6413 45.3615 54.8841 45.80927 55.12686 46.2421 55.36964 46.65773 55.61243 47.05933 55.85521 47.44714 56.09798 47.82227 56.34077 48.18631 56.58356 48.53896 56.82632 48.88135 57.06912 49.2138 57.31189 49.53687 57.55467 49.85188 57.79745 50.15837 58.04024 50.4566 58.283 50.74783 58.52579 51.03154 58.76857 51.30904 59.01135 51.57942 59.25412 51.84409 59.49692 52.10262 59.7397 52.35556 59.98247 52.60335 60.22525 52.84589 60.46803 53.0835 60.71082 53.31561 60.95358 53.54427 61.19637 53.76848 61.43915 53.98816 61.68193 54.20293 61.9247 54.41495 62.1675 54.6231 62.41026 54.82727 62.65305 55.02766 62.89583 55.22514 63.13861 55.41948 63.3814 55.61043 63.62416 55.797 63.86696 55.9819 64.10973 56.16428 64.35251 56.34328 64.59528 56.52107 64.83807 56.69489 65.08084 56.86589 65.32362 57.03488 65.5664 57.20111 65.80919 57.36485 66.05197 57.52681 66.29474 57.68651 66.53754 57.84355 66.7803 57.99913 67.02309 58.15228 67.26585 58.30342 67.50865 58.45279 67.75142 58.60014 67.9942 58.74586 68.23698 58.88966 68.47977 59.03177 68.72255 59.17184 68.96532 59.31032 69.20811 59.44731 69.45088 59.58311 69.69366 59.71683 69.93643 59.84842 70.17923 59.97995 70.422 60.1092 70.66478 60.23758 70.90756 60.36273 71.15034 60.48868 71.39311 60.61302 71.6359 60.73492 71.8787 60.85603 72.12146 60.97633 72.36424 61.09502 72.60703 61.21289 72.84981 61.32834 73.09258 61.44461 73.33536 61.55927 73.57814 61.67148 73.82092 61.7837 74.06369 61.89432 74.30647 62.00412 74.54927 62.11392 74.79204 62.2205 75.03482 62.32788 75.2776 62.43446 75.52039 62.5386 75.76315 62.64355 76.00594 62.7469 76.24872 62.84782 76.4915 62.94795 76.73427 63.04968 76.97707 63.14818 77.21983 63.24829 77.46262 63.34598 77.7054 63.44206 77.94818 63.53894 78.19096 63.63422 78.43373 63.72868 78.67651 63.82234 78.9193 63.91519 79.16208 64.00883 79.40485 64.09927 79.64764 64.19049 79.89041 64.28172 80.1332 64.37054 80.37596 64.45937 80.61876 64.54977 80.86154 64.63698 81.10431 64.72256 81.3471 64.80894 81.58987 64.89534 81.83266 64.98012 82.07542 65.06569 82.31822 65.14886 82.56099 65.23201 82.80377 65.31436 83.04654 65.39671 83.28934 65.47827 83.5321 65.5582 83.77489 65.63976 84.01768 65.71967 84.26045 65.7988 84.50323 65.8771 84.746 65.9546 84.9888 66.03212 85.23157 66.11044 85.47435 66.18634 85.71713 66.26303 85.95992 66.33813 86.20268 66.41321 86.44547 66.4883 86.68826 66.56258 86.93103 66.63605 87.17381 66.70871 87.41658 66.78137 87.65938 66.85403 87.90215 66.9259 88.14493 66.99693 88.38771 67.0696 88.6305 67.13904 88.87326 67.20927 89.11604 67.27872 89.35883 67.34814 89.60161 67.41759 89.84439 67.4862 90.08717 67.55403 90.32996 67.62186 90.57272 67.68967 90.8155 67.75587 91.05829 67.82289 91.30107 67.8891 91.54384 67.9545 91.78664 68.0199 92.0294 68.0853 92.27219 68.1507 92.51495 68.21446 92.75775 68.27745 93.00053 68.34123 93.2433 68.405 93.48608 68.46799 93.72887 68.53094 93.97165 68.59232 94.21442 68.65448 94.45721 68.71585 94.69998 68.7772 94.94276 68.83856 95.18553 68.89912 95.42833 68.95967 95.67111 69.02023 95.91388 69.07916 96.15668 69.1381 96.39944 69.19704 96.64223 69.25679 95.77243 69.05142"/>
<path transform="matrix(-.0197,.99982997,.99977,.019701181,50.69031,97.27626)" stroke-width="1.19553" stroke-linecap="round" stroke-linejoin="round" fill="none" stroke="#1414cc" d="M-2.18182 2.9091C-2 1.81818 0 .18181 .54544 0 0-.18181-2-1.81818-2.18182-2.9091"/>
<path transform="matrix(.97319,-.22979379,-.22978,-.97324839,97.86842,29.633393)" stroke-width="1.19553" stroke-linecap="round" stroke-linejoin="round" fill="none" stroke="#1414cc" d="M-2.18182 2.9091C-2 1.81818 0 .18181 .54544 0 0-.18181-2-1.81818-2.18182-2.9091"/>
<path transform="matrix(1,0,0,-1.00006,2.0960007,98.68896)" stroke-width=".99628" stroke-linecap="butt" stroke-miterlimit="10" stroke-linejoin="miter" fill="none" stroke="#1414cc" d="M56.51639 48.44261"/>
<use data-text="(" xlink:href="#font_2_1" transform="matrix(4.9813,0,0,-4.9815986,56.827,57.54449)"/>
<use data-text="1" xlink:href="#font_2_4" transform="matrix(4.9813,0,0,-4.9815986,59.521886,57.54449)"/>
<use data-text="," xlink:href="#font_3_1" transform="matrix(4.9813,0,0,-4.9815986,62.915998,57.54449)"/>
<use data-text="0" xlink:href="#font_2_3" transform="matrix(4.9813,0,0,-4.9815986,66.42099,57.54449)"/>
<use data-text=")" xlink:href="#font_2_2" transform="matrix(4.9813,0,0,-4.9815986,69.80827,57.54449)"/>
<path transform="matrix(1,0,0,-1.00006,2.0960007,98.68896)" stroke-width="1.49442" stroke-linecap="butt" stroke-miterlimit="10" stroke-linejoin="miter" fill="none" stroke="#1414cc" d="M64.59016 56.51639"/>
<use data-text="(" xlink:href="#font_2_1" transform="matrix(4.9813,0,0,-4.9815986,54.926004,37.35928)"/>
<use data-text="b" xlink:href="#font_3_2" transform="matrix(4.9813,0,0,-4.9815986,57.624,37.35928)"/>
<use data-text="," xlink:href="#font_3_1" transform="matrix(4.9813,0,0,-4.9815986,60.77716,37.35928)"/>
<use data-text="1" xlink:href="#font_2_4" transform="matrix(4.9813,0,0,-4.9815986,64.285,37.35928)"/>
<use data-text=")" xlink:href="#font_2_2" transform="matrix(4.9813,0,0,-4.9815986,67.67229,37.35928)"/>
</g>
<path transform="matrix(1,0,0,-1.00006,2.0960007,98.68896)" d="M58.50894 48.44261C58.50894 49.54309 57.61685 50.43517 56.51639 50.43517 55.41591 50.43517 54.52383 49.54309 54.52383 48.44261 54.52383 47.34215 55.41591 46.45006 56.51639 46.45006 57.61685 46.45006 58.50894 47.34215 58.50894 48.44261ZM56.51639 48.44261" fill="#1414cc"/>
<path transform="matrix(1,0,0,-1.00006,2.0960007,98.68896)" stroke-width=".99628" stroke-linecap="butt" stroke-miterlimit="10" stroke-linejoin="miter" fill="none" stroke="#1414cc" d="M58.50894 48.44261C58.50894 49.54309 57.61685 50.43517 56.51639 50.43517 55.41591 50.43517 54.52383 49.54309 54.52383 48.44261 54.52383 47.34215 55.41591 46.45006 56.51639 46.45006 57.61685 46.45006 58.50894 47.34215 58.50894 48.44261ZM56.51639 48.44261"/>
<path transform="matrix(1,0,0,-1.00006,2.0960007,98.68896)" stroke-width=".99628" stroke-linecap="butt" stroke-miterlimit="10" stroke-linejoin="miter" fill="none" stroke="#1414cc" d=""/>
<path transform="matrix(1,0,0,-1.00006,2.0960007,98.68896)" d="M66.58272 56.51639C66.58272 57.61685 65.69063 58.50894 64.59016 58.50894 63.48969 58.50894 62.59761 57.61685 62.59761 56.51639 62.59761 55.41591 63.48969 54.52383 64.59016 54.52383 65.69063 54.52383 66.58272 55.41591 66.58272 56.51639ZM64.59016 56.51639" fill="#1414cc"/>
<path transform="matrix(1,0,0,-1.00006,2.0960007,98.68896)" stroke-width="1.49442" stroke-linecap="butt" stroke-miterlimit="10" stroke-linejoin="miter" fill="none" stroke="#1414cc" d="M66.58272 56.51639C66.58272 57.61685 65.69063 58.50894 64.59016 58.50894 63.48969 58.50894 62.59761 57.61685 62.59761 56.51639 62.59761 55.41591 63.48969 54.52383 64.59016 54.52383 65.69063 54.52383 66.58272 55.41591 66.58272 56.51639ZM64.59016 56.51639"/>
<path transform="matrix(1,0,0,-1.00006,2.0960007,98.68896)" stroke-width="1.49442" stroke-linecap="butt" stroke-miterlimit="10" stroke-linejoin="miter" fill="none" stroke="#1414cc" d=""/>
<use data-text="x" xlink:href="#font_4_1" transform="matrix(9.9626,0,0,-9.963197,89.788,46.71384)"/>
<use data-text="y" xlink:href="#font_4_2" transform="matrix(9.9626,0,0,-9.963197,54.067,9.590614)"/>
</svg>
