<svg xmlns="http://www.w3.org/2000/svg" xmlns:xlink="http://www.w3.org/1999/xlink" xmlns:inkscape="http://www.inkscape.org/namespaces/inkscape" version="1.1" width="157" height="157" viewBox="0 0 157 157">
<defs>
<path id="font_1_1" d="M.6589966 .23046875C.6759949 .23046875 .69400027 .23046875 .69400027 .25045777 .69400027 .27046205 .6759949 .27046205 .6589966 .27046205H.117996219C.100997928 .27046205 .08299255 .27046205 .08299255 .25045777 .08299255 .23046875 .100997928 .23046875 .117996219 .23046875H.6589966Z"/>
<path id="font_2_5" d="M.13198853 .327713V.35173036C.13198853 .6047821 .2559967 .64100649 .30699159 .64100649 .33099366 .64100649 .37298585 .634964 .394989 .6007538 .37998963 .6007538 .33999635 .6007538 .33999635 .5557556 .33999635 .524765 .3639984 .5097656 .38598634 .5097656 .4019928 .5097656 .43199159 .51875308 .43199159 .5577545 .43199159 .6178589 .3880005 .6660156 .30499269 .6660156 .1769867 .6660156 .041992189 .5367584 .041992189 .31570436 .041992189 .048553468 .1579895-.022460938 .25099183-.022460938 .3619995-.022460938 .45700074 .07156372 .45700074 .2036438 .45700074 .33070375 .36799623 .4267578 .25698854 .4267578 .18899536 .4267578 .1519928 .37573243 .13198853 .327713M.25099183 .0055389406C.18798828 .0055389406 .1579895 .06556702 .1519928 .080566409 .13398743 .127594 .13398743 .2076416 .13398743 .22564698 .13398743 .30369569 .1659851 .40374757 .2559967 .40374757 .27198792 .40374757 .31799317 .40374757 .34899903 .34172059 .36698915 .30470277 .36698915 .2536621 .36698915 .20463562 .36698915 .15661621 .36698915 .10658264 .34999085 .0705719 .31999208 .010528564 .27398683 .0055389406 .25099183 .0055389406Z"/>
<path id="font_2_4" d="M.2939911 .16503906V.07800293C.2939911 .041992189 .2919922 .0309906 .21798706 .0309906H.19699097V0C.23799134 .0029907227 .2899933 .0029907227 .33198548 .0029907227 .37399293 .0029907227 .4269867 .0029907227 .46798707 0V.0309906H.44699098C.37298585 .0309906 .37098695 .041992189 .37098695 .07800293V.16503906H.47099305V.19602967H.37098695V.65075686C.37098695 .67074587 .37098695 .6767578 .35499574 .6767578 .34599305 .6767578 .34298707 .6767578 .33499146 .66474917L.027999878 .19602967V.16503906H.2939911M.2999878 .19602967H.055999757L.2999878 .5688019V.19602967Z"/>
<path id="font_2_3" d="M.1269989 .07699585 .23298645 .18003845C.3889923 .31811524 .44898988 .3721466 .44898988 .47216798 .44898988 .5860901 .35899354 .6660156 .23699951 .6660156 .12399292 .6660156 .049987794 .57411196 .049987794 .48516847 .049987794 .4291687 .099990848 .4291687 .102996829 .4291687 .11999512 .4291687 .15499878 .44117738 .15499878 .48217774 .15499878 .5081787 .13699341 .5341797 .101989749 .5341797 .09399414 .5341797 .09199524 .5341797 .08898926 .5331726 .11199951 .59806826 .1659851 .63500979 .22399903 .63500979 .31498719 .63500979 .35798646 .5541382 .35798646 .47216798 .35798646 .39215089 .30799867 .31311036 .25299073 .25108338L.06098938 .036987306C.049987794 .025985718 .049987794 .023986817 .049987794 0H.42099L.44898988 .17404175H.42399598C.4189911 .14402771 .4119873 .1000061 .4019928 .084991458 .394989 .07699585 .32899476 .07699585 .30699159 .07699585H.1269989Z"/>
<path id="font_2_6" d="M.16299439 .4569702C.116989139 .486969 .11299133 .52098086 .11299133 .5379791 .11299133 .598999 .17799378 .64100649 .24899292 .64100649 .32199098 .64100649 .38598634 .58898928 .38598634 .51698306 .38598634 .45996095 .34700013 .4119568 .2869873 .37695313L.16299439 .4569702M.30899049 .36193849C.3809967 .3989563 .42999269 .45095826 .42999269 .51698306 .42999269 .6090088 .34098817 .6660156 .25 .6660156 .1499939 .6660156 .068984989 .59199526 .068984989 .49897767 .068984989 .4809723 .070999149 .43595887 .11299133 .38894654 .12399292 .37695313 .16099549 .35194398 .18598938 .33494569 .12799073 .30592347 .041992189 .24984741 .041992189 .15072632 .041992189 .04458618 .14399719-.022460938 .24899292-.022460938 .3619995-.022460938 .45700074 .06060791 .45700074 .16773987 .45700074 .20379639 .44599916 .24885559 .4079895 .2909088 .3889923 .31193543 .37298585 .3219452 .30899049 .36193849M.20899964 .3199463 .33198548 .24183655C.3600006 .2228241 .40699769 .19277954 .40699769 .13169861 .40699769 .05760193 .33198548 .0055389406 .25 .0055389406 .1639862 .0055389406 .09199524 .067611698 .09199524 .15072632 .09199524 .20880127 .12399292 .27288819 .20899964 .3199463Z"/>
<path id="font_2_1" d="M.45999146 .31976319C.45999146 .39982606 .45498658 .47988893 .41999818 .5539398 .37399293 .65000918 .2919922 .6660156 .25 .6660156 .18998719 .6660156 .116989139 .64001467 .07598877 .54693606 .04399109 .47789 .038986207 .39982606 .038986207 .31976319 .038986207 .24472046 .042999269 .15464783 .083999637 .07859802 .1269989-.0024719239 .19999695-.022460938 .24899292-.022460938 .30299378-.022460938 .3789978-.0014648438 .4229889 .09359741 .45498658 .16265869 .45999146 .2407074 .45999146 .31976319M.24899292-.00047302247C.20999146-.00047302247 .15098572 .024551392 .1329956 .12062073 .12199402 .18066406 .12199402 .2727356 .12199402 .3317871 .12199402 .39582826 .12199402 .46188355 .12998963 .5159149 .14898682 .63500979 .22399903 .64401248 .24899292 .64401248 .28199769 .64401248 .34799195 .6259918 .36698915 .52693179 .3769989 .47088624 .3769989 .39482118 .3769989 .3317871 .3769989 .25672914 .3769989 .18867493 .3659973 .12461853 .35099793 .029556275 .2939911-.00047302247 .24899292-.00047302247Z"/>
<path id="font_2_2" d="M.2939911 .64004519C.2939911 .66400149 .2939911 .6660156 .2709961 .6660156 .20899964 .60227969 .12098694 .60227969 .08898926 .60227969V.57128909C.10899353 .57128909 .16799927 .57128909 .21998596 .5972748V.07902527C.21998596 .042999269 .21699524 .0309906 .1269989 .0309906H.09498596V0C.12998963 .0029907227 .21699524 .0029907227 .25698854 .0029907227 .29699708 .0029907227 .38398744 .0029907227 .4189911 0V.0309906H.3869934C.29699708 .0309906 .2939911 .041992189 .2939911 .07902527V.64004519Z"/>
<clipPath id="clip_3">
<path transform="matrix(1.00003,0,0,-1.00008,2.0964967,155.39516)" d="M0 0H153.57646V153.58618H0Z"/>
</clipPath>
<path id="font_4_1" d="M.33399964 .30233766C.33999635 .32835389 .36299134 .42037965 .43299867 .42037965 .43798829 .42037965 .46199037 .42037965 .48298646 .40734864 .45498658 .402359 .43499757 .37734986 .43499757 .35334779 .43499757 .33735658 .44599916 .31835938 .47299195 .31835938 .49499513 .31835938 .5269928 .3363495 .5269928 .37635804 .5269928 .42837525 .46798707 .4423828 .43399049 .4423828 .37599183 .4423828 .34098817 .38935853 .32899476 .36634828 .3039856 .43237306 .25 .4423828 .22099304 .4423828 .116989139 .4423828 .05999756 .3133545 .05999756 .28834535 .05999756 .27833558 .069992069 .27833558 .07199097 .27833558 .07998657 .27833558 .08299255 .28033448 .084991458 .28933717 .11898804 .39535523 .18499756 .42037965 .21899414 .42037965 .23799134 .42037965 .272995 .4113617 .272995 .35334779 .272995 .32235719 .2559967 .25532533 .21899414 .11528015 .20298767 .053268434 .16799927 .011245728 .12399292 .011245728 .117996219 .011245728 .09498596 .011245728 .07398987 .024276734 .09899902 .029266358 .12098694 .05027771 .12098694 .07827759 .12098694 .105270389 .09899902 .11328125 .083999637 .11328125 .053985597 .11328125 .0289917 .08728027 .0289917 .055267335 .0289917 .009246826 .07899475-.0107421879 .12298584-.0107421879 .18899536-.0107421879 .22499085 .059280397 .22799683 .0652771 .23999024 .028274537 .27598573-.0107421879 .33599855-.0107421879 .43899537-.0107421879 .49598695 .118270877 .49598695 .14328003 .49598695 .1532898 .4869995 .1532898 .48399354 .1532898 .47499085 .1532898 .47299195 .14929199 .47099305 .14228821 .43798829 .03527832 .36999513 .011245728 .33799745 .011245728 .29899598 .011245728 .2829895 .043273927 .2829895 .07727051 .2829895 .09927368 .2889862 .121276859 .2999878 .16529846L.33399964 .30233766Z"/>
<path id="font_4_2" d="M.48599244 .38136292C.48999024 .39537049 .48999024 .39736939 .48999024 .40437318 .48999024 .42237855 .47599793 .43138124 .46099855 .43138124 .45098878 .43138124 .43499757 .42536927 .42599488 .41036988 .42399598 .405365 .41600038 .37435914 .4119873 .35635377 .40499879 .33035279 .397995 .30334474 .3919983 .27633668L.34700013 .09628296C.34298707 .08126831 .2999878 .011245728 .23399353 .011245728 .18299866 .011245728 .17199707 .055267335 .17199707 .0922699 .17199707 .1382904 .18899536 .20030213 .22299195 .28833009 .23899842 .3293457 .24299622 .3403473 .24299622 .36035157 .24299622 .405365 .21099854 .4423828 .16099549 .4423828 .06599426 .4423828 .0289917 .29733277 .0289917 .28833009 .0289917 .27833558 .038986207 .27833558 .040985109 .27833558 .050994874 .27833558 .051986696 .28033448 .056991579 .29634095 .083999637 .3903656 .12399292 .42037965 .1579895 .42037965 .1659851 .42037965 .18299866 .42037965 .18299866 .3883667 .18299866 .36335755 .17298889 .3373413 .1659851 .31834413 .12599182 .21231079 .10798645 .1552887 .10798645 .10827637 .10798645 .019256592 .17098999-.0107421879 .22999573-.0107421879 .2689972-.0107421879 .30299378 .0062561037 .33099366 .03425598 .31799317-.017745972 .30599977-.06674194 .2659912-.11973572 .23999024-.15385437 .20199585-.18309021 .1559906-.18309021 .14199829-.18309021 .09700012-.18005371 .07998657-.14074707 .09599304-.14074707 .10899353-.14074707 .12298584-.1287384 .1329956-.11973572 .14299011-.10673523 .14299011-.08773804 .14299011-.056747438 .115997318-.052734376 .10598755-.052734376 .08299255-.052734376 .049987794-.068740848 .049987794-.11773682 .049987794-.16796875 .09399414-.20507813 .1559906-.20507813 .25898744-.20507813 .3619995-.11373901 .3899994-.00074768069L.48599244 .38136292Z"/>
</defs>
<path transform="matrix(1.00003,0,0,-1.00008,2.0964967,155.39516)" stroke-width=".3985" stroke-linecap="butt" stroke-miterlimit="10" stroke-linejoin="miter" fill="none" stroke="#404040" d="M0 0H153.57646V153.58618H0Z"/>
<path transform="matrix(1.00003,0,0,-1.00008,2.0964967,155.39516)" stroke-width=".3985" stroke-linecap="butt" stroke-miterlimit="10" stroke-linejoin="miter" fill="none" stroke="#bfbfbf" d="M9.59853 0V153.58618M28.79558 0V153.58618M47.99265 0V153.58618M67.1897 0V153.58618M86.38675 0V153.58618M105.58382 0V153.58618M124.78087 0V153.58618M143.97794 0V153.58618"/>
<path transform="matrix(1.00003,0,0,-1.00008,2.0964967,155.39516)" stroke-width=".3985" stroke-linecap="butt" stroke-miterlimit="10" stroke-linejoin="miter" fill="none" stroke="#bfbfbf" d="M19.19705 0V153.58618M38.3941 0V153.58618M57.59117 0V153.58618M95.98529 0V153.58618M115.18234 0V153.58618M134.3794 0V153.58618"/>
<path transform="matrix(1.00003,0,0,-1.00008,2.0964967,155.39516)" stroke-width=".3985" stroke-linecap="butt" stroke-miterlimit="10" stroke-linejoin="miter" fill="none" stroke="#bfbfbf" d="M0 9.59914H153.57646M0 19.19827H153.57646M0 28.79741H153.57646M0 38.39655H153.57646M0 47.99568H153.57646M0 57.59482H153.57646M0 67.19395H153.57646M0 86.39223H153.57646M0 95.99136H153.57646M0 105.5905H153.57646M0 115.18964H153.57646M0 124.78877H153.57646M0 134.38791H153.57646M0 143.98705H153.57646"/>
<path transform="matrix(1.00003,0,0,-1.00008,2.0964967,155.39516)" stroke-width=".19925" stroke-linecap="butt" stroke-miterlimit="10" stroke-linejoin="miter" fill="none" stroke="#7f807f" d="M9.59853 75.3757V78.21048M28.79558 75.3757V78.21048M47.99265 75.3757V78.21048M67.1897 75.3757V78.21048M86.38675 75.3757V78.21048M105.58382 75.3757V78.21048M124.78087 75.3757V78.21048M143.97794 75.3757V78.21048"/>
<path transform="matrix(1.00003,0,0,-1.00008,2.0964967,155.39516)" stroke-width=".19925" stroke-linecap="butt" stroke-miterlimit="10" stroke-linejoin="miter" fill="none" stroke="#7f807f" d="M19.19705 74.66722V78.91895M38.3941 74.66722V78.91895M57.59117 74.66722V78.91895M95.98529 74.66722V78.91895M115.18234 74.66722V78.91895M134.3794 74.66722V78.91895"/>
<path transform="matrix(1.00003,0,0,-1.00008,2.0964967,155.39516)" stroke-width=".19925" stroke-linecap="butt" stroke-miterlimit="10" stroke-linejoin="miter" fill="none" stroke="#7f807f" d="M74.6622 9.59914H78.91423M74.6622 19.19827H78.91423M74.6622 28.79741H78.91423M74.6622 38.39655H78.91423M74.6622 47.99568H78.91423M74.6622 57.59482H78.91423M74.6622 67.19395H78.91423M74.6622 86.39223H78.91423M74.6622 95.99136H78.91423M74.6622 105.5905H78.91423M74.6622 115.18964H78.91423M74.6622 124.78877H78.91423M74.6622 134.38791H78.91423M74.6622 143.98705H78.91423"/>
<path transform="matrix(1.00003,0,0,-1.00008,2.0964967,155.39516)" stroke-width=".3985" stroke-linecap="butt" stroke-miterlimit="10" stroke-linejoin="miter" fill="none" stroke="#000000" d="M0 76.79309H151.58394"/>
<path transform="matrix(1.00003,0,0,-1.00008,153.68498,78.595928)" d="M1.99252 0-1.19551 1.59401 0 0-1.19551-1.59401"/>
<path transform="matrix(1.00003,0,0,-1.00008,2.0964967,155.39516)" stroke-width=".3985" stroke-linecap="butt" stroke-miterlimit="10" stroke-linejoin="miter" fill="none" stroke="#000000" d="M76.78822 0V151.59366"/>
<path transform="matrix(0,-1.00008,-1.00003,-0,78.887027,3.7893677)" d="M1.99252 0-1.19551 1.59401 0 0-1.19551-1.59401"/>
<use data-text="&#x2212;" xlink:href="#font_1_1" transform="matrix(9.962899,0,0,-9.963397,14.928879,90.66298)"/>
<use data-text="6" xlink:href="#font_2_5" transform="matrix(9.962899,0,0,-9.963397,22.678109,90.66298)"/>
<use data-text="&#x2212;" xlink:href="#font_1_1" transform="matrix(9.962899,0,0,-9.963397,34.126459,90.66298)"/>
<use data-text="4" xlink:href="#font_2_4" transform="matrix(9.962899,0,0,-9.963397,41.875688,90.66298)"/>
<use data-text="&#x2212;" xlink:href="#font_1_1" transform="matrix(9.962899,0,0,-9.963397,53.324037,90.66298)"/>
<use data-text="2" xlink:href="#font_2_3" transform="matrix(9.962899,0,0,-9.963397,61.073266,90.66298)"/>
<use data-text="2" xlink:href="#font_2_3" transform="matrix(9.962899,0,0,-9.963397,95.59431,90.66298)"/>
<use data-text="4" xlink:href="#font_2_4" transform="matrix(9.962899,0,0,-9.963397,114.791889,90.66298)"/>
<use data-text="6" xlink:href="#font_2_5" transform="matrix(9.962899,0,0,-9.963397,133.98947,90.66298)"/>
<use data-text="&#x2212;" xlink:href="#font_1_1" transform="matrix(9.962899,0,0,-9.963397,55.529104,148.5906)"/>
<use data-text="2" xlink:href="#font_2_3" transform="matrix(9.962899,0,0,-9.963397,63.27833,148.5906)"/>
<use data-text="8" xlink:href="#font_2_6" transform="matrix(9.962899,0,0,-9.963397,68.25978,148.5906)"/>
<use data-text="&#x2212;" xlink:href="#font_1_1" transform="matrix(9.962899,0,0,-9.963397,55.529104,138.99085)"/>
<use data-text="2" xlink:href="#font_2_3" transform="matrix(9.962899,0,0,-9.963397,63.27833,138.99085)"/>
<use data-text="4" xlink:href="#font_2_4" transform="matrix(9.962899,0,0,-9.963397,68.25978,138.99085)"/>
<use data-text="&#x2212;" xlink:href="#font_1_1" transform="matrix(9.962899,0,0,-9.963397,55.529104,129.39109)"/>
<use data-text="2" xlink:href="#font_2_3" transform="matrix(9.962899,0,0,-9.963397,63.27833,129.39109)"/>
<use data-text="0" xlink:href="#font_2_1" transform="matrix(9.962899,0,0,-9.963397,68.25978,129.39109)"/>
<use data-text="&#x2212;" xlink:href="#font_1_1" transform="matrix(9.962899,0,0,-9.963397,55.529104,119.791309)"/>
<use data-text="1" xlink:href="#font_2_2" transform="matrix(9.962899,0,0,-9.963397,63.27833,119.791309)"/>
<use data-text="6" xlink:href="#font_2_5" transform="matrix(9.962899,0,0,-9.963397,68.25978,119.791309)"/>
<use data-text="&#x2212;" xlink:href="#font_1_1" transform="matrix(9.962899,0,0,-9.963397,55.529104,110.19054)"/>
<use data-text="1" xlink:href="#font_2_2" transform="matrix(9.962899,0,0,-9.963397,63.27833,110.19054)"/>
<use data-text="2" xlink:href="#font_2_3" transform="matrix(9.962899,0,0,-9.963397,68.25978,110.19054)"/>
<use data-text="&#x2212;" xlink:href="#font_1_1" transform="matrix(9.962899,0,0,-9.963397,60.51025,100.590778)"/>
<use data-text="8" xlink:href="#font_2_6" transform="matrix(9.962899,0,0,-9.963397,68.259479,100.590778)"/>
<use data-text="&#x2212;" xlink:href="#font_1_1" transform="matrix(9.962899,0,0,-9.963397,60.51025,90.991008)"/>
<use data-text="4" xlink:href="#font_2_4" transform="matrix(9.962899,0,0,-9.963397,68.259479,90.991008)"/>
<use data-text="4" xlink:href="#font_2_4" transform="matrix(9.962899,0,0,-9.963397,68.25949,72.206508)"/>
<use data-text="8" xlink:href="#font_2_6" transform="matrix(9.962899,0,0,-9.963397,68.25949,62.606737)"/>
<use data-text="1" xlink:href="#font_2_2" transform="matrix(9.962899,0,0,-9.963397,63.278337,53.006975)"/>
<use data-text="2" xlink:href="#font_2_3" transform="matrix(9.962899,0,0,-9.963397,68.25979,53.006975)"/>
<use data-text="1" xlink:href="#font_2_2" transform="matrix(9.962899,0,0,-9.963397,63.278337,43.407205)"/>
<use data-text="6" xlink:href="#font_2_5" transform="matrix(9.962899,0,0,-9.963397,68.25979,43.407205)"/>
<use data-text="2" xlink:href="#font_2_3" transform="matrix(9.962899,0,0,-9.963397,63.278337,33.806428)"/>
<use data-text="0" xlink:href="#font_2_1" transform="matrix(9.962899,0,0,-9.963397,68.25979,33.806428)"/>
<use data-text="2" xlink:href="#font_2_3" transform="matrix(9.962899,0,0,-9.963397,63.278337,24.206665)"/>
<use data-text="4" xlink:href="#font_2_4" transform="matrix(9.962899,0,0,-9.963397,68.25979,24.206665)"/>
<use data-text="2" xlink:href="#font_2_3" transform="matrix(9.962899,0,0,-9.963397,63.278337,14.606903)"/>
<use data-text="8" xlink:href="#font_2_6" transform="matrix(9.962899,0,0,-9.963397,68.25979,14.606903)"/>
<g clip-path="url(#clip_3)">
<path transform="matrix(1.00003,0,0,-1.00008,2.0964967,155.39516)" stroke-width="1.24535" stroke-linecap="butt" stroke-miterlimit="10" stroke-linejoin="miter" fill="none" stroke="#1414cc" d="M24.10199 .99063 24.32751 5.61363 24.60112 11.06534 24.87474 16.36226 25.14835 21.507 25.42197 26.50208 25.69559 31.35022 25.9692 36.054 26.24281 40.61594 26.51642 45.03859 26.79004 49.32437 27.06366 53.47589 27.33727 57.4955 27.61089 61.38565 27.88449 65.14874 28.15811 68.78712 28.43173 72.30315 28.70534 75.69913 28.97896 78.97736 29.25256 82.14012 29.52618 85.18964 29.7998 88.12814 30.07341 90.95781 30.34703 93.68082 30.62064 96.29929 30.89426 98.81537 31.16788 101.23112 31.44148 103.54866 31.7151 105.76997 31.98871 107.8971 32.26233 109.93204 32.53595 111.87679 32.80956 113.73326 33.08318 115.50339 33.35678 117.18907 33.6304 118.79222 33.90402 120.31462 34.17763 121.7582 34.45125 123.12466 34.72485 124.41585 34.99847 125.63358 35.2721 126.77943 35.5457 127.85533 35.81932 128.86281 36.09293 129.80358 36.36655 130.6794 36.64017 131.4917 36.91377 132.24231 37.1874 132.93268 37.461 133.56438 37.73462 134.13896 38.00824 134.65799 38.28185 135.12293 38.55547 135.53524 38.82907 135.89643 39.10269 136.20792 39.37631 136.47116 39.64992 136.68744 39.92354 136.85828 40.19714 136.98493 40.47076 137.06876 40.74438 137.11109 41.01799 137.1133 41.29161 137.07648 41.56522 137.00197 41.83884 136.89112 42.11246 136.74506 42.38606 136.56487 42.65968 136.35193 42.93329 136.10733 43.20691 135.83217 43.48053 135.52759 43.75414 135.19483 44.02776 134.83473 44.30136 134.44853 44.57498 134.0372 44.8486 133.60186 45.12221 133.14348 45.39583 132.66307 45.66943 132.16155 45.94305 131.6399 46.21666 131.09908 46.49026 130.54009 46.76389 129.96375 47.03749 129.37093 47.31111 128.76265 47.58473 128.1396 47.85834 127.50273 48.13196 126.85283 48.40556 126.19066 48.67918 125.51714 48.9528 124.8329 49.22641 124.1388 49.50003 123.43555 49.77364 122.72388 50.04726 122.00456 50.32088 121.27821 50.59448 120.54558 50.8681 119.8073 51.14171 119.06396 51.41533 118.31633 51.68893 117.56494 51.96255 116.81049 52.23618 116.05344 52.50978 115.29446 52.7834 114.5341 53.057 113.7729 53.33063 113.01149 53.60425 112.25021 53.87785 111.48964 54.15147 110.73041 54.42508 109.97282 54.6987 109.21751 54.97232 108.46477 55.24593 107.7151 55.51955 106.96901 55.79315 106.22679 56.06677 105.48897 56.3404 104.75586 56.614 104.0278 56.88762 103.30528 57.16122 102.58855 57.43484 101.87804 57.70847 101.17398 57.98207 100.47675 58.25569 99.78667 58.5293 99.10399 58.80292 98.42903 59.07654 97.76202 59.35014 97.10327 59.62376 96.45302 59.89737 95.81148 60.17099 95.17891 60.44461 94.55548 60.71822 93.94145 60.99184 93.33704 61.26544 92.74232 61.53906 92.15761 61.81268 91.58296 62.08629 91.01859 62.35991 90.46465 62.63351 89.9212 62.90714 89.38847 63.18076 88.86652 63.45436 88.35545 63.72798 87.85544 64.00159 87.36646 64.2752 86.88867 64.54883 86.42213 64.82243 85.96689 65.09605 85.52304 65.36966 85.09058 65.64328 84.6696 65.9169 84.26006 66.1905 83.86205 66.46413 83.47556 66.73773 83.1006 67.01135 82.73717 67.28497 82.38525 67.55858 82.04486 67.8322 81.71594 68.1058 81.39848 68.37943 81.09244 68.65305 80.79778 68.92665 80.51445 69.20027 80.24237 69.47389 79.98152 69.7475 79.73181 70.0211 79.49316 70.29471 79.26549 70.56833 79.04874 70.84195 78.84277 71.11555 78.64752 71.38918 78.46288 71.6628 78.28873 71.9364 78.12494 72.21002 77.97142 72.48363 77.82803 72.75725 77.69467 73.03087 77.57117 73.30447 77.4574 73.5781 77.35323 73.8517 77.25848 74.12532 77.17303 74.39894 77.09674 74.67255 77.02939 74.94617 76.97086 75.21979 76.92099 75.4934 76.87956 75.76701 76.84645 76.04062 76.82146 76.31424 76.80438 76.58786 76.79507 76.86147 76.79335 77.13509 76.799 77.4087 76.8118 77.68231 76.83163 77.95593 76.85823 78.22954 76.89142 78.50316 76.931 78.77678 76.97678 79.05038 77.02852 79.324 77.08604 79.59763 77.14914 79.87123 77.21756 80.14485 77.29114 80.41846 77.36964 80.69208 77.45285 80.9657 77.54056 81.2393 77.63254 81.51292 77.72859 81.78654 77.82846 82.06015 77.93199 82.33377 78.03891 82.60738 78.14902 82.881 78.26208 83.15462 78.37791 83.42822 78.49626 83.70184 78.61693 83.97545 78.73969 84.24907 78.86432 84.52269 78.9906 84.7963 79.11833 85.06992 79.2473 85.34354 79.37726 85.61714 79.50804 85.89076 79.63939 86.16437 79.77113 86.43799 79.90302 86.71161 80.0349 86.98521 80.16652 87.25883 80.29768 87.53244 80.4282 87.80606 80.55789 88.07968 80.68652 88.35329 80.81392 88.6269 80.93988 88.90051 81.06424 89.17413 81.18678 89.44775 81.30734 89.72136 81.42574 89.99498 81.5418 90.26859 81.65533 90.5422 81.76619 90.81583 81.8742 91.08943 81.97919 91.36305 82.081 91.63666 82.17949 91.91028 82.27449 92.1839 82.3659 92.4575 82.45354 92.73112 82.53726 93.00473 82.61697 93.27835 82.6925 93.55197 82.76378 93.82558 82.83063 94.09918 82.89297 94.37279 82.95071 94.64641 83.00372 94.92003 83.05193 95.19363 83.09521 95.46725 83.13351 95.74086 83.16676 96.01448 83.19484 96.2881 83.21773 96.5617 83.23537 96.83533 83.24767 97.10893 83.25461 97.38255 83.25615 97.65617 83.25224 97.92978 83.24287 98.2034 83.22803 98.477 83.20767 98.75063 83.18184 99.02425 83.1505 99.29785 83.11368 99.57147 83.07138 99.84508 83.02367 100.1187 82.97054 100.39232 82.91203 100.66592 82.84824 100.93954 82.77919 101.21315 82.70496 101.48677 82.62561 101.76039 82.54123 102.034 82.45195 102.30762 82.35785 102.58122 82.25902 102.85484 82.15562 103.12846 82.04776 103.40207 81.93558 103.67569 81.81923 103.9493 81.69888 104.22292 81.5747 104.49654 81.44687 104.77014 81.31558 105.04376 81.18105 105.31737 81.04344 105.59099 80.903 105.86461 80.76 106.13821 80.61462 106.41183 80.46716 106.68544 80.31789 106.95906 80.16704 107.23268 80.01494 107.50629 79.86188 107.7799 79.70818 108.05351 79.55414 108.32713 79.4001 108.60075 79.24644 108.87436 79.09349 109.14798 78.94162 109.42159 78.79124 109.6952 78.64272 109.96883 78.49648 110.24243 78.35294 110.51605 78.21254 110.78966 78.07573 111.06328 77.94296 111.3369 77.81473 111.6105 77.6915 111.88412 77.57379 112.15773 77.4621 112.43135 77.35698 112.70497 77.25894 112.97858 77.16858 113.2522 77.08644 113.5258 77.01314 113.79942 76.94925 114.07304 76.89539 114.34665 76.85217 114.62027 76.8203 114.89388 76.80037 115.1675 76.7931 115.44112 76.79915 115.71472 76.81927 115.98834 76.85413 116.26195 76.90448 116.53557 76.97108 116.80919 77.05472 117.0828 77.15614 117.35641 77.27618 117.63002 77.41562 117.90364 77.57533 118.17725 77.75615 118.45085 77.95894 118.72447 78.18457 118.99808 78.43398 119.2717 78.70804 119.54532 79.00772 119.81892 79.33394 120.09254 79.6877 120.36615 80.06996 120.63977 80.48177 120.91339 80.9241 121.187 81.39801 121.46062 81.90457 121.73422 82.44487 122.00784 83.01994 122.28146 83.63097 122.55507 84.27905 122.82869 84.96532 123.1023 85.691 123.37592 86.45721 123.64954 87.26521 123.92314 88.11624 124.19676 89.0115 124.47037 89.95229 124.74399 90.93985 125.01761 91.97556 125.29121 93.0607 125.56483 94.19656 125.83844 95.38463 126.11206 96.62616 126.38568 97.92268 126.65929 99.27557 126.9329 100.68623 127.20651 102.15622 127.48013 103.68692 127.75375 105.27995 128.02736 106.9368 128.30098 108.6589 128.57459 110.44804 128.8482 112.30571 129.12183 114.23352 129.39543 116.23317 129.66905 118.30612 129.94266 120.45435 130.21628 122.67926 130.4899 124.98296 130.7635 127.36693 131.03713 129.83284 131.31073 132.38277 131.58435 135.01828 131.85797 137.74144 132.13158 140.55416 132.4052 143.45792 132.6788 146.45502 132.95243 149.54712 133.14167 151.7526"/>
<path transform="matrix(-.048691464,.99883988,.99878999,.04869389,26.199212,154.40444)" stroke-width=".99628" stroke-linecap="round" stroke-linejoin="round" fill="none" stroke="#1414cc" d="M-1.95767 2.61023C-1.79453 1.6314 0 .16313 .48941 0 0-.16313-1.79453-1.6314-1.95767-2.61023"/>
<path transform="matrix(.08545257,-.9963797,-.9963299,-.08545683,135.24214,3.6304169)" stroke-width=".99628" stroke-linecap="round" stroke-linejoin="round" fill="none" stroke="#1414cc" d="M-1.95767 2.61023C-1.79453 1.6314 0 .16313 .48941 0 0-.16313-1.79453-1.6314-1.95767-2.61023"/>
<path transform="matrix(1.00003,0,0,-1.00008,2.0964967,155.39516)" stroke-width=".3985" stroke-linecap="butt" stroke-miterlimit="10" stroke-linejoin="miter" fill="none" stroke="#1414cc" d="M47.99265 127.18857"/>
</g>
<path transform="matrix(1.00003,0,0,-1.00008,2.0964967,155.39516)" d="M49.9852 127.18857C49.9852 128.28903 49.09311 129.18112 47.99265 129.18112 46.89217 129.18112 46.00009 128.28903 46.00009 127.18857 46.00009 126.08809 46.89217 125.19601 47.99265 125.19601 49.09311 125.19601 49.9852 126.08809 49.9852 127.18857ZM47.99265 127.18857" fill="#1414cc"/>
<path transform="matrix(1.00003,0,0,-1.00008,2.0964967,155.39516)" stroke-width=".3985" stroke-linecap="butt" stroke-miterlimit="10" stroke-linejoin="miter" fill="none" stroke="#1414cc" d="M49.9852 127.18857C49.9852 128.28903 49.09311 129.18112 47.99265 129.18112 46.89217 129.18112 46.00009 128.28903 46.00009 127.18857 46.00009 126.08809 46.89217 125.19601 47.99265 125.19601 49.09311 125.19601 49.9852 126.08809 49.9852 127.18857ZM47.99265 127.18857"/>
<path transform="matrix(1.00003,0,0,-1.00008,2.0964967,155.39516)" stroke-width=".3985" stroke-linecap="butt" stroke-miterlimit="10" stroke-linejoin="miter" fill="none" stroke="#1414cc" d=""/>
<use data-text="x" xlink:href="#font_4_1" transform="matrix(9.962899,0,0,-9.963397,146.48484,75.065738)"/>
<use data-text="y" xlink:href="#font_4_2" transform="matrix(9.962899,0,0,-9.963397,82.41991,9.573502)"/>
</svg>
