<svg xmlns="http://www.w3.org/2000/svg" xmlns:xlink="http://www.w3.org/1999/xlink" xmlns:inkscape="http://www.inkscape.org/namespaces/inkscape" version="1.1" width="129" height="129" viewBox="0 0 129 129">
<defs>
<path id="font_1_1" d="M.6589966 .23046875C.6759949 .23046875 .69400027 .23046875 .69400027 .25045777 .69400027 .27046205 .6759949 .27046205 .6589966 .27046205H.117996219C.100997928 .27046205 .08299255 .27046205 .08299255 .25045777 .08299255 .23046875 .100997928 .23046875 .117996219 .23046875H.6589966Z"/>
<path id="font_2_3" d="M.13198853 .327713V.35173036C.13198853 .6047821 .2559967 .64100649 .30699159 .64100649 .33099366 .64100649 .37298585 .634964 .394989 .6007538 .37998963 .6007538 .33999635 .6007538 .33999635 .5557556 .33999635 .524765 .3639984 .5097656 .38598634 .5097656 .4019928 .5097656 .43199159 .51875308 .43199159 .5577545 .43199159 .6178589 .3880005 .6660156 .30499269 .6660156 .1769867 .6660156 .041992189 .5367584 .041992189 .31570436 .041992189 .048553468 .1579895-.022460938 .25099183-.022460938 .3619995-.022460938 .45700074 .07156372 .45700074 .2036438 .45700074 .33070375 .36799623 .4267578 .25698854 .4267578 .18899536 .4267578 .1519928 .37573243 .13198853 .327713M.25099183 .0055389406C.18798828 .0055389406 .1579895 .06556702 .1519928 .080566409 .13398743 .127594 .13398743 .2076416 .13398743 .22564698 .13398743 .30369569 .1659851 .40374757 .2559967 .40374757 .27198792 .40374757 .31799317 .40374757 .34899903 .34172059 .36698915 .30470277 .36698915 .2536621 .36698915 .20463562 .36698915 .15661621 .36698915 .10658264 .34999085 .0705719 .31999208 .010528564 .27398683 .0055389406 .25099183 .0055389406Z"/>
<path id="font_2_2" d="M.2939911 .16503906V.07800293C.2939911 .041992189 .2919922 .0309906 .21798706 .0309906H.19699097V0C.23799134 .0029907227 .2899933 .0029907227 .33198548 .0029907227 .37399293 .0029907227 .4269867 .0029907227 .46798707 0V.0309906H.44699098C.37298585 .0309906 .37098695 .041992189 .37098695 .07800293V.16503906H.47099305V.19602967H.37098695V.65075686C.37098695 .67074587 .37098695 .6767578 .35499574 .6767578 .34599305 .6767578 .34298707 .6767578 .33499146 .66474917L.027999878 .19602967V.16503906H.2939911M.2999878 .19602967H.055999757L.2999878 .5688019V.19602967Z"/>
<path id="font_2_1" d="M.1269989 .07699585 .23298645 .18003845C.3889923 .31811524 .44898988 .3721466 .44898988 .47216798 .44898988 .5860901 .35899354 .6660156 .23699951 .6660156 .12399292 .6660156 .049987794 .57411196 .049987794 .48516847 .049987794 .4291687 .099990848 .4291687 .102996829 .4291687 .11999512 .4291687 .15499878 .44117738 .15499878 .48217774 .15499878 .5081787 .13699341 .5341797 .101989749 .5341797 .09399414 .5341797 .09199524 .5341797 .08898926 .5331726 .11199951 .59806826 .1659851 .63500979 .22399903 .63500979 .31498719 .63500979 .35798646 .5541382 .35798646 .47216798 .35798646 .39215089 .30799867 .31311036 .25299073 .25108338L.06098938 .036987306C.049987794 .025985718 .049987794 .023986817 .049987794 0H.42099L.44898988 .17404175H.42399598C.4189911 .14402771 .4119873 .1000061 .4019928 .084991458 .394989 .07699585 .32899476 .07699585 .30699159 .07699585H.1269989Z"/>
<clipPath id="clip_3">
<path transform="matrix(1,0,0,-1.00005,2.0960007,127.04256)" d="M0 0H125.23997V125.23997H0Z"/>
</clipPath>
<path id="font_4_1" d="M.33399964 .30233766C.33999635 .32835389 .36299134 .42037965 .43299867 .42037965 .43798829 .42037965 .46199037 .42037965 .48298646 .40734864 .45498658 .402359 .43499757 .37734986 .43499757 .35334779 .43499757 .33735658 .44599916 .31835938 .47299195 .31835938 .49499513 .31835938 .5269928 .3363495 .5269928 .37635804 .5269928 .42837525 .46798707 .4423828 .43399049 .4423828 .37599183 .4423828 .34098817 .38935853 .32899476 .36634828 .3039856 .43237306 .25 .4423828 .22099304 .4423828 .116989139 .4423828 .05999756 .3133545 .05999756 .28834535 .05999756 .27833558 .069992069 .27833558 .07199097 .27833558 .07998657 .27833558 .08299255 .28033448 .084991458 .28933717 .11898804 .39535523 .18499756 .42037965 .21899414 .42037965 .23799134 .42037965 .272995 .4113617 .272995 .35334779 .272995 .32235719 .2559967 .25532533 .21899414 .11528015 .20298767 .053268434 .16799927 .011245728 .12399292 .011245728 .117996219 .011245728 .09498596 .011245728 .07398987 .024276734 .09899902 .029266358 .12098694 .05027771 .12098694 .07827759 .12098694 .105270389 .09899902 .11328125 .083999637 .11328125 .053985597 .11328125 .0289917 .08728027 .0289917 .055267335 .0289917 .009246826 .07899475-.0107421879 .12298584-.0107421879 .18899536-.0107421879 .22499085 .059280397 .22799683 .0652771 .23999024 .028274537 .27598573-.0107421879 .33599855-.0107421879 .43899537-.0107421879 .49598695 .118270877 .49598695 .14328003 .49598695 .1532898 .4869995 .1532898 .48399354 .1532898 .47499085 .1532898 .47299195 .14929199 .47099305 .14228821 .43798829 .03527832 .36999513 .011245728 .33799745 .011245728 .29899598 .011245728 .2829895 .043273927 .2829895 .07727051 .2829895 .09927368 .2889862 .121276859 .2999878 .16529846L.33399964 .30233766Z"/>
<path id="font_4_2" d="M.48599244 .38136292C.48999024 .39537049 .48999024 .39736939 .48999024 .40437318 .48999024 .42237855 .47599793 .43138124 .46099855 .43138124 .45098878 .43138124 .43499757 .42536927 .42599488 .41036988 .42399598 .405365 .41600038 .37435914 .4119873 .35635377 .40499879 .33035279 .397995 .30334474 .3919983 .27633668L.34700013 .09628296C.34298707 .08126831 .2999878 .011245728 .23399353 .011245728 .18299866 .011245728 .17199707 .055267335 .17199707 .0922699 .17199707 .1382904 .18899536 .20030213 .22299195 .28833009 .23899842 .3293457 .24299622 .3403473 .24299622 .36035157 .24299622 .405365 .21099854 .4423828 .16099549 .4423828 .06599426 .4423828 .0289917 .29733277 .0289917 .28833009 .0289917 .27833558 .038986207 .27833558 .040985109 .27833558 .050994874 .27833558 .051986696 .28033448 .056991579 .29634095 .083999637 .3903656 .12399292 .42037965 .1579895 .42037965 .1659851 .42037965 .18299866 .42037965 .18299866 .3883667 .18299866 .36335755 .17298889 .3373413 .1659851 .31834413 .12599182 .21231079 .10798645 .1552887 .10798645 .10827637 .10798645 .019256592 .17098999-.0107421879 .22999573-.0107421879 .2689972-.0107421879 .30299378 .0062561037 .33099366 .03425598 .31799317-.017745972 .30599977-.06674194 .2659912-.11973572 .23999024-.15385437 .20199585-.18309021 .1559906-.18309021 .14199829-.18309021 .09700012-.18005371 .07998657-.14074707 .09599304-.14074707 .10899353-.14074707 .12298584-.1287384 .1329956-.11973572 .14299011-.10673523 .14299011-.08773804 .14299011-.056747438 .115997318-.052734376 .10598755-.052734376 .08299255-.052734376 .049987794-.068740848 .049987794-.11773682 .049987794-.16796875 .09399414-.20507813 .1559906-.20507813 .25898744-.20507813 .3619995-.11373901 .3899994-.00074768069L.48599244 .38136292Z"/>
</defs>
<path transform="matrix(1,0,0,-1.00005,2.0960007,127.04256)" stroke-width=".3985" stroke-linecap="butt" stroke-miterlimit="10" stroke-linejoin="miter" fill="none" stroke="#404040" d="M0 0H125.23997V125.23997H0Z"/>
<path transform="matrix(1,0,0,-1.00005,2.0960007,127.04256)" stroke-width=".3985" stroke-linecap="butt" stroke-miterlimit="10" stroke-linejoin="miter" fill="none" stroke="#bfbfbf" d="M7.82748 0V125.23997M23.48248 0V125.23997M39.13748 0V125.23997M54.79248 0V125.23997M70.44748 0V125.23997M86.10248 0V125.23997M101.75748 0V125.23997M117.41248 0V125.23997"/>
<path transform="matrix(1,0,0,-1.00005,2.0960007,127.04256)" stroke-width=".3985" stroke-linecap="butt" stroke-miterlimit="10" stroke-linejoin="miter" fill="none" stroke="#bfbfbf" d="M15.65498 0V125.23997M31.30998 0V125.23997M46.96498 0V125.23997M78.27498 0V125.23997M93.92998 0V125.23997M109.58498 0V125.23997"/>
<path transform="matrix(1,0,0,-1.00005,2.0960007,127.04256)" stroke-width=".3985" stroke-linecap="butt" stroke-miterlimit="10" stroke-linejoin="miter" fill="none" stroke="#bfbfbf" d="M0 7.82748H125.23997M0 23.48248H125.23997M0 39.13748H125.23997M0 54.79248H125.23997M0 70.44748H125.23997M0 86.10248H125.23997M0 101.75748H125.23997M0 117.41248H125.23997"/>
<path transform="matrix(1,0,0,-1.00005,2.0960007,127.04256)" stroke-width=".3985" stroke-linecap="butt" stroke-miterlimit="10" stroke-linejoin="miter" fill="none" stroke="#bfbfbf" d="M0 15.65498H125.23997M0 31.30998H125.23997M0 46.96498H125.23997M0 78.27498H125.23997M0 93.92998H125.23997M0 109.58498H125.23997"/>
<path transform="matrix(1,0,0,-1.00005,2.0960007,127.04256)" stroke-width=".19925" stroke-linecap="butt" stroke-miterlimit="10" stroke-linejoin="miter" fill="none" stroke="#7f807f" d="M7.82748 61.20258V64.03738M23.48248 61.20258V64.03738M39.13748 61.20258V64.03738M54.79248 61.20258V64.03738M70.44748 61.20258V64.03738M86.10248 61.20258V64.03738M101.75748 61.20258V64.03738M117.41248 61.20258V64.03738"/>
<path transform="matrix(1,0,0,-1.00005,2.0960007,127.04256)" stroke-width=".19925" stroke-linecap="butt" stroke-miterlimit="10" stroke-linejoin="miter" fill="none" stroke="#7f807f" d="M15.65498 60.4941V64.74585M31.30998 60.4941V64.74585M46.96498 60.4941V64.74585M78.27498 60.4941V64.74585M93.92998 60.4941V64.74585M109.58498 60.4941V64.74585"/>
<path transform="matrix(1,0,0,-1.00005,2.0960007,127.04256)" stroke-width=".19925" stroke-linecap="butt" stroke-miterlimit="10" stroke-linejoin="miter" fill="none" stroke="#7f807f" d="M61.20258 7.82748H64.03738M61.20258 23.48248H64.03738M61.20258 39.13748H64.03738M61.20258 54.79248H64.03738M61.20258 70.44748H64.03738M61.20258 86.10248H64.03738M61.20258 101.75748H64.03738M61.20258 117.41248H64.03738"/>
<path transform="matrix(1,0,0,-1.00005,2.0960007,127.04256)" stroke-width=".19925" stroke-linecap="butt" stroke-miterlimit="10" stroke-linejoin="miter" fill="none" stroke="#7f807f" d="M60.4941 15.65498H64.74585M60.4941 31.30998H64.74585M60.4941 46.96498H64.74585M60.4941 78.27498H64.74585M60.4941 93.92998H64.74585M60.4941 109.58498H64.74585"/>
<path transform="matrix(1,0,0,-1.00005,2.0960007,127.04256)" stroke-width=".3985" stroke-linecap="butt" stroke-miterlimit="10" stroke-linejoin="miter" fill="none" stroke="#000000" d="M0 62.61998H123.24745"/>
<path transform="matrix(1,0,0,-1.00005,125.34345,64.41945)" d="M1.99252 0-1.19551 1.59401 0 0-1.19551-1.59401"/>
<path transform="matrix(1,0,0,-1.00005,2.0960007,127.04256)" stroke-width=".3985" stroke-linecap="butt" stroke-miterlimit="10" stroke-linejoin="miter" fill="none" stroke="#000000" d="M62.61998 0V123.24745"/>
<path transform="matrix(0,-1.00005,-1,-0,64.71598,3.788948)" d="M1.99252 0-1.19551 1.59401 0 0-1.19551-1.59401"/>
<use data-text="&#x2212;" xlink:href="#font_1_1" transform="matrix(9.9626,0,0,-9.963098,11.386002,76.48603)"/>
<use data-text="6" xlink:href="#font_2_3" transform="matrix(9.9626,0,0,-9.963098,19.135003,76.48603)"/>
<use data-text="&#x2212;" xlink:href="#font_1_1" transform="matrix(9.9626,0,0,-9.963098,27.041,76.48603)"/>
<use data-text="4" xlink:href="#font_2_2" transform="matrix(9.9626,0,0,-9.963098,34.79,76.48603)"/>
<use data-text="&#x2212;" xlink:href="#font_1_1" transform="matrix(9.9626,0,0,-9.963098,42.696,76.48603)"/>
<use data-text="2" xlink:href="#font_2_1" transform="matrix(9.9626,0,0,-9.963098,50.445,76.48603)"/>
<use data-text="2" xlink:href="#font_2_1" transform="matrix(9.9626,0,0,-9.963098,77.88,76.48603)"/>
<use data-text="4" xlink:href="#font_2_2" transform="matrix(9.9626,0,0,-9.963098,93.535,76.48603)"/>
<use data-text="6" xlink:href="#font_2_3" transform="matrix(9.9626,0,0,-9.963098,109.19,76.48603)"/>
<use data-text="&#x2212;" xlink:href="#font_1_1" transform="matrix(9.9626,0,0,-9.963098,46.34,114.181919)"/>
<use data-text="6" xlink:href="#font_2_3" transform="matrix(9.9626,0,0,-9.963098,54.089,114.181919)"/>
<use data-text="&#x2212;" xlink:href="#font_1_1" transform="matrix(9.9626,0,0,-9.963098,46.34,98.52613)"/>
<use data-text="4" xlink:href="#font_2_2" transform="matrix(9.9626,0,0,-9.963098,54.089,98.52613)"/>
<use data-text="&#x2212;" xlink:href="#font_1_1" transform="matrix(9.9626,0,0,-9.963098,46.34,82.87035)"/>
<use data-text="2" xlink:href="#font_2_1" transform="matrix(9.9626,0,0,-9.963098,54.089,82.87035)"/>
<use data-text="2" xlink:href="#font_2_1" transform="matrix(9.9626,0,0,-9.963098,54.089,51.97381)"/>
<use data-text="4" xlink:href="#font_2_2" transform="matrix(9.9626,0,0,-9.963098,54.089,36.318025)"/>
<use data-text="6" xlink:href="#font_2_3" transform="matrix(9.9626,0,0,-9.963098,54.089,20.662247)"/>
<g clip-path="url(#clip_3)">
<path transform="matrix(1,0,0,-1.00005,2.0960007,127.04256)" stroke-width="1.49442" stroke-linecap="butt" stroke-miterlimit="10" stroke-linejoin="miter" fill="none" stroke="#1414cc" d="M1.13934 66.13199 1.0927 65.98982 1.40266 66.91652 1.71263 67.83424 2.0226 68.73242 2.33257 69.61 2.64253 70.48183 2.9525 71.33202 3.26247 72.16911 3.57245 72.9784 3.88242 73.77278 4.19238 74.55264 4.50235 75.312 4.8123 76.0461 5.12227 76.75406 5.43224 77.44446 5.7422 78.1169 6.05217 78.7616 6.36214 79.38622 6.6721 79.97948 6.98209 80.55707 7.29205 81.10532 7.60202 81.63144 7.91199 82.12584 8.22195 82.59792 8.5319 83.04877 8.84187 83.46812 9.15184 83.86552 9.4618 84.23036 9.77177 84.5718 10.08174 84.8896 10.39171 85.17737 10.70169 85.44066 11.01166 85.67342 11.32162 85.88454 11.63159 86.06596 11.94156 86.22092 12.25151 86.34805 12.56148 86.45282 12.87144 86.53061 13.18141 86.58234 13.49138 86.60823 13.80135 86.60773 14.11131 86.58325 14.4213 86.5352 14.73126 86.46088 15.04123 86.3632 15.3512 86.24255 15.66116 86.0989 15.97112 85.93158 16.28108 85.74214 16.59105 85.5318 16.90102 85.29977 17.21098 85.0477 17.52095 84.77373 17.83092 84.48085 18.1409 84.16963 18.45087 83.83992 18.76083 83.4921 19.0708 83.12576 19.38077 82.74522 19.69072 82.34747 20.00069 81.93547 20.31065 81.50687 20.62062 81.06546 20.93059 80.61061 21.24055 80.14372 21.55054 79.66441 21.8605 79.17444 22.17047 78.67357 22.48044 78.1632 22.7904 77.64449 23.10037 77.11656 23.41032 76.58176 23.72029 76.04036 24.03026 75.49274 24.34023 74.93993 24.65019 74.38205 24.96016 73.82094 25.27014 73.25627 25.58011 72.69019 25.89008 72.12201 26.20004 71.55232 26.51001 70.9825 26.81998 70.41364 27.12993 69.84573 27.4399 69.27937 27.74986 68.71597 28.05983 68.15546 28.3698 67.59875 28.67976 67.04611 28.98975 66.49872 29.29971 65.95734 29.60968 65.42155 29.91965 64.8933 30.22961 64.37148 30.53958 63.85828 30.84953 63.35292 31.1595 62.85718 31.46947 62.37045 31.77943 61.89415 32.0894 61.4276 32.39938 60.9719 32.70935 60.52698 33.01932 60.09401 33.32928 59.67303 33.63925 59.2643 33.94922 58.86812 34.25919 58.48497 34.56915 58.11487 34.8791 57.75826 35.18907 57.41551 35.49904 57.08662 35.809 56.77223 36.11899 56.47188 36.42896 56.18576 36.73892 55.91458 37.04889 55.65773 37.35886 55.41638 37.66882 55.18939 37.97879 54.97789 38.28876 54.7807 38.59871 54.59868 38.90868 54.43164 39.21864 54.27939 39.52861 54.14221 39.8386 54.01942 40.14856 53.91174 40.45853 53.81824 40.7685 53.7393 41.07846 53.6741 41.38843 53.62321 41.6984 53.58646 42.00836 53.56311 42.31831 53.55296 42.62828 53.55574 42.93825 53.5717 43.24821 53.60019 43.5582 53.64082 43.86816 53.69345 44.17813 53.75739 44.4881 53.83281 44.79807 53.91922 45.10803 54.01591 45.418 54.12253 45.72797 54.23917 46.03792 54.36528 46.34789 54.49997 46.65785 54.64308 46.96783 54.79407 47.2778 54.95296 47.58777 55.11897 47.89774 55.29153 48.2077 55.47003 48.51767 55.6545 48.82764 55.84421 49.1376 56.03862 49.44757 56.23727 49.75752 56.4397 50.06749 56.64561 50.37746 56.85437 50.68744 57.06538 50.9974 57.27812 51.30737 57.49231 51.61734 57.70746 51.9273 57.92299 52.23727 58.13844 52.54724 58.35332 52.85721 58.5673 53.16718 58.77988 53.47713 58.99045 53.7871 59.19861 54.09706 59.40399 54.40704 59.60635 54.71701 59.80498 55.02698 59.99956 55.33694 60.18962 55.64691 60.37482 55.95688 60.55498 56.26685 60.72957 56.57681 60.89816 56.88678 61.06049 57.19675 61.21626 57.50671 61.36517 57.8167 61.50688 58.12666 61.64108 58.43663 61.76758 58.7466 61.88612 59.05656 61.99648 59.36653 62.09836 59.6765 62.19162 59.98647 62.27608 60.29643 62.35161 60.6064 62.41797 60.91637 62.47511 61.22633 62.52287 61.53632 62.56119 61.84628 62.58998 62.15625 62.60919 62.46622 62.61877 62.77618 62.6212 63.08615 62.63086 63.39612 62.65016 63.70609 62.67903 64.01605 62.71742 64.32602 62.76527 64.63599 62.8225 64.94595 62.88892 65.25594 62.96446 65.5659 63.04901 65.87587 63.14238 66.18584 63.2443 66.4958 63.3547 66.80577 63.47331 67.11574 63.59988 67.4257 63.73413 67.73567 63.87596 68.04564 64.02481 68.35559 64.18076 68.66556 64.3431 68.97554 64.51172 69.2855 64.68639 69.59547 64.8665 69.90544 65.05186 70.21541 65.24191 70.52538 65.43655 70.83534 65.6351 71.14531 65.83752 71.45528 66.04295 71.76524 66.25125 72.07521 66.46164 72.3852 66.67435 72.69516 66.88828 73.00513 67.10309 73.3151 67.3186 73.62506 67.5342 73.93503 67.74942 74.24498 67.96341 74.55495 68.17624 74.86491 68.38728 75.17488 68.596 75.48485 68.8018 75.79482 69.00426 76.1048 69.20273 76.41476 69.39728 76.72473 69.58702 77.0347 69.77133 77.34467 69.94984 77.65463 70.12242 77.96458 70.28821 78.27455 70.44711 78.58452 70.59802 78.89449 70.74112 79.20445 70.87564 79.51442 71.00182 79.8244 71.11827 80.13437 71.2248 80.44434 71.32147 80.7543 71.40787 81.06427 71.483 81.37424 71.54701 81.68419 71.59941 81.99416 71.63983 82.30412 71.66849 82.61409 71.68431 82.92406 71.68707 83.23402 71.67676 83.544 71.65308 83.85397 71.61629 84.16394 71.56534 84.4739 71.50009 84.78387 71.42093 85.09384 71.32748 85.4038 71.21973 85.71376 71.09656 86.02373 70.95932 86.3337 70.80702 86.64366 70.64005 86.95364 70.45786 87.26361 70.2606 87.57358 70.04866 87.88354 69.82147 88.19351 69.58018 88.50348 69.32341 88.81345 69.05205 89.12341 68.76585 89.43336 68.4653 89.74333 68.1507 90.0533 67.82175 90.36327 67.47893 90.67325 67.12224 90.98322 66.75221 91.29318 66.36899 91.60315 65.97217 91.91312 65.56349 92.22308 65.1426 92.53305 64.7097 92.84302 64.26471 93.15297 63.80878 93.46294 63.34216 93.7729 62.86546 94.08287 62.37897 94.39285 61.88301 94.70282 61.37772 95.01279 60.86429 95.32275 60.34256 95.63272 59.81389 95.94269 59.27853 96.25266 58.73708 96.56262 58.18944 96.87257 57.63707 97.18254 57.08011 97.49251 56.5199 97.80249 55.95587 98.11246 55.38998 98.42242 54.82184 98.73239 54.25273 99.04236 53.68338 99.35233 53.11363 99.6623 52.54521 99.97226 51.97923 100.28223 51.41489 100.59218 50.85333 100.90215 50.29579 101.21211 49.74294 101.5221 49.19543 101.83206 48.65381 102.14203 48.11916 102.452 47.59116 102.76196 47.0728 103.07193 46.56236 103.3819 46.06166 103.69186 45.57146 104.00183 45.0927 104.31178 44.62578 104.62175 44.1707 104.93172 43.72926 105.2417 43.30127 105.55167 42.8892 105.86163 42.49164 106.1716 42.11041 106.48157 41.74538 106.79153 41.39664 107.1015 41.06735 107.41147 40.75702 107.72144 40.46365 108.03139 40.19081 108.34135 39.93759 108.65134 39.70694 108.9613 39.49635 109.27127 39.30669 109.58124 39.13982 109.8912 38.99666 110.20117 38.87576 110.51114 38.77855 110.8211 38.70474 111.13107 38.65598 111.44104 38.63248 111.75099 38.63249 112.06096 38.65889 112.37094 38.70966 112.68091 38.78847 112.99088 38.89075 113.30084 39.01993 113.61081 39.17668 113.92078 39.35814 114.23074 39.56725 114.54071 39.80237 114.85068 40.06389 115.16064 40.3543 115.4706 40.66953 115.78056 41.01364 116.09055 41.37932 116.40051 41.77356 116.71048 42.19702 117.02045 42.64412 117.33041 43.11325 117.64038 43.61484 117.95035 44.13799 118.26031 44.68987 118.57028 45.26727 118.88025 45.86118 119.1902 46.48216 119.50017 47.13008 119.81015 47.79886 120.12012 48.48529 120.43008 49.20253 120.74005 49.93643 121.05002 50.6912 121.35999 51.47112 121.66995 52.26112 121.97992 53.07994 122.28989 53.91264 122.59985 54.7677 122.90982 55.6348 123.21979 56.51242 123.52975 57.41585 123.83972 58.32846 124.14969 59.26076 124.09935 59.1091"/>
<path transform="matrix(-.31194,.95010748,.95006,.3119556,3.2353607,60.907266)" stroke-width="1.19553" stroke-linecap="round" stroke-linejoin="round" fill="none" stroke="#1414cc" d="M-2.18182 2.9091C-2 1.81818 0 .18181 .54544 0 0-.18181-2-1.81818-2.18182-2.9091"/>
<path transform="matrix(.31517,-.9490374,-.94899,-.31518574,126.19533,67.930507)" stroke-width="1.19553" stroke-linecap="round" stroke-linejoin="round" fill="none" stroke="#1414cc" d="M-2.18182 2.9091C-2 1.81818 0 .18181 .54544 0 0-.18181-2-1.81818-2.18182-2.9091"/>
</g>
<use data-text="x" xlink:href="#font_4_1" transform="matrix(9.9626,0,0,-9.963098,118.141,60.89025)"/>
<use data-text="y" xlink:href="#font_4_2" transform="matrix(9.9626,0,0,-9.963098,68.246,9.584686)"/>
</svg>
