<svg xmlns="http://www.w3.org/2000/svg" xmlns:xlink="http://www.w3.org/1999/xlink" xmlns:inkscape="http://www.inkscape.org/namespaces/inkscape" version="1.1" width="157" height="157" viewBox="0 0 157 157">
<defs>
<path id="font_1_1" d="M.6589966 .23046875C.6759949 .23046875 .69400027 .23046875 .69400027 .25045777 .69400027 .27046205 .6759949 .27046205 .6589966 .27046205H.117996219C.100997928 .27046205 .08299255 .27046205 .08299255 .25045777 .08299255 .23046875 .100997928 .23046875 .117996219 .23046875H.6589966Z"/>
<path id="font_2_3" d="M.13198853 .327713V.35173036C.13198853 .6047821 .2559967 .64100649 .30699159 .64100649 .33099366 .64100649 .37298585 .634964 .394989 .6007538 .37998963 .6007538 .33999635 .6007538 .33999635 .5557556 .33999635 .524765 .3639984 .5097656 .38598634 .5097656 .4019928 .5097656 .43199159 .51875308 .43199159 .5577545 .43199159 .6178589 .3880005 .6660156 .30499269 .6660156 .1769867 .6660156 .041992189 .5367584 .041992189 .31570436 .041992189 .048553468 .1579895-.022460938 .25099183-.022460938 .3619995-.022460938 .45700074 .07156372 .45700074 .2036438 .45700074 .33070375 .36799623 .4267578 .25698854 .4267578 .18899536 .4267578 .1519928 .37573243 .13198853 .327713M.25099183 .0055389406C.18798828 .0055389406 .1579895 .06556702 .1519928 .080566409 .13398743 .127594 .13398743 .2076416 .13398743 .22564698 .13398743 .30369569 .1659851 .40374757 .2559967 .40374757 .27198792 .40374757 .31799317 .40374757 .34899903 .34172059 .36698915 .30470277 .36698915 .2536621 .36698915 .20463562 .36698915 .15661621 .36698915 .10658264 .34999085 .0705719 .31999208 .010528564 .27398683 .0055389406 .25099183 .0055389406Z"/>
<path id="font_2_2" d="M.2939911 .16503906V.07800293C.2939911 .041992189 .2919922 .0309906 .21798706 .0309906H.19699097V0C.23799134 .0029907227 .2899933 .0029907227 .33198548 .0029907227 .37399293 .0029907227 .4269867 .0029907227 .46798707 0V.0309906H.44699098C.37298585 .0309906 .37098695 .041992189 .37098695 .07800293V.16503906H.47099305V.19602967H.37098695V.65075686C.37098695 .67074587 .37098695 .6767578 .35499574 .6767578 .34599305 .6767578 .34298707 .6767578 .33499146 .66474917L.027999878 .19602967V.16503906H.2939911M.2999878 .19602967H.055999757L.2999878 .5688019V.19602967Z"/>
<path id="font_2_1" d="M.1269989 .07699585 .23298645 .18003845C.3889923 .31811524 .44898988 .3721466 .44898988 .47216798 .44898988 .5860901 .35899354 .6660156 .23699951 .6660156 .12399292 .6660156 .049987794 .57411196 .049987794 .48516847 .049987794 .4291687 .099990848 .4291687 .102996829 .4291687 .11999512 .4291687 .15499878 .44117738 .15499878 .48217774 .15499878 .5081787 .13699341 .5341797 .101989749 .5341797 .09399414 .5341797 .09199524 .5341797 .08898926 .5331726 .11199951 .59806826 .1659851 .63500979 .22399903 .63500979 .31498719 .63500979 .35798646 .5541382 .35798646 .47216798 .35798646 .39215089 .30799867 .31311036 .25299073 .25108338L.06098938 .036987306C.049987794 .025985718 .049987794 .023986817 .049987794 0H.42099L.44898988 .17404175H.42399598C.4189911 .14402771 .4119873 .1000061 .4019928 .084991458 .394989 .07699585 .32899476 .07699585 .30699159 .07699585H.1269989Z"/>
<clipPath id="clip_3">
<path transform="matrix(1.00003,0,0,-1.00002,2.0964967,155.3758)" d="M0 0H153.57646V153.57646H0Z"/>
</clipPath>
<path id="font_4_1" d="M.33399964 .30233766C.33999635 .32835389 .36299134 .42037965 .43299867 .42037965 .43798829 .42037965 .46199037 .42037965 .48298646 .40734864 .45498658 .402359 .43499757 .37734986 .43499757 .35334779 .43499757 .33735658 .44599916 .31835938 .47299195 .31835938 .49499513 .31835938 .5269928 .3363495 .5269928 .37635804 .5269928 .42837525 .46798707 .4423828 .43399049 .4423828 .37599183 .4423828 .34098817 .38935853 .32899476 .36634828 .3039856 .43237306 .25 .4423828 .22099304 .4423828 .116989139 .4423828 .05999756 .3133545 .05999756 .28834535 .05999756 .27833558 .069992069 .27833558 .07199097 .27833558 .07998657 .27833558 .08299255 .28033448 .084991458 .28933717 .11898804 .39535523 .18499756 .42037965 .21899414 .42037965 .23799134 .42037965 .272995 .4113617 .272995 .35334779 .272995 .32235719 .2559967 .25532533 .21899414 .11528015 .20298767 .053268434 .16799927 .011245728 .12399292 .011245728 .117996219 .011245728 .09498596 .011245728 .07398987 .024276734 .09899902 .029266358 .12098694 .05027771 .12098694 .07827759 .12098694 .105270389 .09899902 .11328125 .083999637 .11328125 .053985597 .11328125 .0289917 .08728027 .0289917 .055267335 .0289917 .009246826 .07899475-.0107421879 .12298584-.0107421879 .18899536-.0107421879 .22499085 .059280397 .22799683 .0652771 .23999024 .028274537 .27598573-.0107421879 .33599855-.0107421879 .43899537-.0107421879 .49598695 .118270877 .49598695 .14328003 .49598695 .1532898 .4869995 .1532898 .48399354 .1532898 .47499085 .1532898 .47299195 .14929199 .47099305 .14228821 .43798829 .03527832 .36999513 .011245728 .33799745 .011245728 .29899598 .011245728 .2829895 .043273927 .2829895 .07727051 .2829895 .09927368 .2889862 .121276859 .2999878 .16529846L.33399964 .30233766Z"/>
<path id="font_4_2" d="M.48599244 .38136292C.48999024 .39537049 .48999024 .39736939 .48999024 .40437318 .48999024 .42237855 .47599793 .43138124 .46099855 .43138124 .45098878 .43138124 .43499757 .42536927 .42599488 .41036988 .42399598 .405365 .41600038 .37435914 .4119873 .35635377 .40499879 .33035279 .397995 .30334474 .3919983 .27633668L.34700013 .09628296C.34298707 .08126831 .2999878 .011245728 .23399353 .011245728 .18299866 .011245728 .17199707 .055267335 .17199707 .0922699 .17199707 .1382904 .18899536 .20030213 .22299195 .28833009 .23899842 .3293457 .24299622 .3403473 .24299622 .36035157 .24299622 .405365 .21099854 .4423828 .16099549 .4423828 .06599426 .4423828 .0289917 .29733277 .0289917 .28833009 .0289917 .27833558 .038986207 .27833558 .040985109 .27833558 .050994874 .27833558 .051986696 .28033448 .056991579 .29634095 .083999637 .3903656 .12399292 .42037965 .1579895 .42037965 .1659851 .42037965 .18299866 .42037965 .18299866 .3883667 .18299866 .36335755 .17298889 .3373413 .1659851 .31834413 .12599182 .21231079 .10798645 .1552887 .10798645 .10827637 .10798645 .019256592 .17098999-.0107421879 .22999573-.0107421879 .2689972-.0107421879 .30299378 .0062561037 .33099366 .03425598 .31799317-.017745972 .30599977-.06674194 .2659912-.11973572 .23999024-.15385437 .20199585-.18309021 .1559906-.18309021 .14199829-.18309021 .09700012-.18005371 .07998657-.14074707 .09599304-.14074707 .10899353-.14074707 .12298584-.1287384 .1329956-.11973572 .14299011-.10673523 .14299011-.08773804 .14299011-.056747438 .115997318-.052734376 .10598755-.052734376 .08299255-.052734376 .049987794-.068740848 .049987794-.11773682 .049987794-.16796875 .09399414-.20507813 .1559906-.20507813 .25898744-.20507813 .3619995-.11373901 .3899994-.00074768069L.48599244 .38136292Z"/>
</defs>
<path transform="matrix(1.00003,0,0,-1.00002,2.0964967,155.3758)" stroke-width=".3985" stroke-linecap="butt" stroke-miterlimit="10" stroke-linejoin="miter" fill="none" stroke="#404040" d="M0 0H153.57646V153.57646H0Z"/>
<path transform="matrix(1.00003,0,0,-1.00002,2.0964967,155.3758)" stroke-width=".3985" stroke-linecap="butt" stroke-miterlimit="10" stroke-linejoin="miter" fill="none" stroke="#cccccc" d="M9.59853 0V153.57646M28.79558 0V153.57646M47.99265 0V153.57646M67.1897 0V153.57646M86.38675 0V153.57646M105.58382 0V153.57646M124.78087 0V153.57646M143.97794 0V153.57646"/>
<path transform="matrix(1.00003,0,0,-1.00002,2.0964967,155.3758)" stroke-width=".3985" stroke-linecap="butt" stroke-miterlimit="10" stroke-linejoin="miter" fill="none" stroke="#cccccc" d="M19.19705 0V153.57646M38.3941 0V153.57646M57.59117 0V153.57646M95.98529 0V153.57646M115.18234 0V153.57646M134.3794 0V153.57646"/>
<path transform="matrix(1.00003,0,0,-1.00002,2.0964967,155.3758)" stroke-width=".3985" stroke-linecap="butt" stroke-miterlimit="10" stroke-linejoin="miter" fill="none" stroke="#cccccc" d="M0 9.59853H153.57646M0 28.79558H153.57646M0 47.99265H153.57646M0 67.1897H153.57646M0 86.38675H153.57646M0 105.58382H153.57646M0 124.78087H153.57646M0 143.97794H153.57646"/>
<path transform="matrix(1.00003,0,0,-1.00002,2.0964967,155.3758)" stroke-width=".3985" stroke-linecap="butt" stroke-miterlimit="10" stroke-linejoin="miter" fill="none" stroke="#cccccc" d="M0 19.19705H153.57646M0 38.3941H153.57646M0 57.59117H153.57646M0 95.98529H153.57646M0 115.18234H153.57646M0 134.3794H153.57646"/>
<path transform="matrix(1.00003,0,0,-1.00002,2.0964967,155.3758)" stroke-width=".19925" stroke-linecap="butt" stroke-miterlimit="10" stroke-linejoin="miter" fill="none" stroke="#7f807f" d="M9.59853 75.37073V78.20572M28.79558 75.37073V78.20572M47.99265 75.37073V78.20572M67.1897 75.37073V78.20572M86.38675 75.37073V78.20572M105.58382 75.37073V78.20572M124.78087 75.37073V78.20572M143.97794 75.37073V78.20572"/>
<path transform="matrix(1.00003,0,0,-1.00002,2.0964967,155.3758)" stroke-width=".19925" stroke-linecap="butt" stroke-miterlimit="10" stroke-linejoin="miter" fill="none" stroke="#7f807f" d="M19.19705 74.6622V78.91423M38.3941 74.6622V78.91423M57.59117 74.6622V78.91423M95.98529 74.6622V78.91423M115.18234 74.6622V78.91423M134.3794 74.6622V78.91423"/>
<path transform="matrix(1.00003,0,0,-1.00002,2.0964967,155.3758)" stroke-width=".19925" stroke-linecap="butt" stroke-miterlimit="10" stroke-linejoin="miter" fill="none" stroke="#7f807f" d="M75.37073 9.59853H78.20572M75.37073 28.79558H78.20572M75.37073 47.99265H78.20572M75.37073 67.1897H78.20572M75.37073 86.38675H78.20572M75.37073 105.58382H78.20572M75.37073 124.78087H78.20572M75.37073 143.97794H78.20572"/>
<path transform="matrix(1.00003,0,0,-1.00002,2.0964967,155.3758)" stroke-width=".19925" stroke-linecap="butt" stroke-miterlimit="10" stroke-linejoin="miter" fill="none" stroke="#7f807f" d="M74.6622 19.19705H78.91423M74.6622 38.3941H78.91423M74.6622 57.59117H78.91423M74.6622 95.98529H78.91423M74.6622 115.18234H78.91423M74.6622 134.3794H78.91423"/>
<path transform="matrix(1.00003,0,0,-1.00002,2.0964967,155.3758)" stroke-width=".3985" stroke-linecap="butt" stroke-miterlimit="10" stroke-linejoin="miter" fill="none" stroke="#000000" d="M0 76.78822H151.58394"/>
<path transform="matrix(1.00003,0,0,-1.00002,153.68498,78.58603)" d="M1.99252 0-1.19551 1.59401 0 0-1.19551-1.59401"/>
<path transform="matrix(1.00003,0,0,-1.00002,2.0964967,155.3758)" stroke-width=".3985" stroke-linecap="butt" stroke-miterlimit="10" stroke-linejoin="miter" fill="none" stroke="#000000" d="M76.78822 0V151.58394"/>
<path transform="matrix(0,-1.00002,-1.00003,-0,78.887027,3.7888184)" d="M1.99252 0-1.19551 1.59401 0 0-1.19551-1.59401"/>
<use data-text="&#x2212;" xlink:href="#font_1_1" transform="matrix(9.962899,0,0,-9.962799,14.928879,90.6525)"/>
<use data-text="6" xlink:href="#font_2_3" transform="matrix(9.962899,0,0,-9.962799,22.678109,90.6525)"/>
<use data-text="&#x2212;" xlink:href="#font_1_1" transform="matrix(9.962899,0,0,-9.962799,34.126459,90.6525)"/>
<use data-text="4" xlink:href="#font_2_2" transform="matrix(9.962899,0,0,-9.962799,41.875688,90.6525)"/>
<use data-text="&#x2212;" xlink:href="#font_1_1" transform="matrix(9.962899,0,0,-9.962799,53.324037,90.6525)"/>
<use data-text="2" xlink:href="#font_2_1" transform="matrix(9.962899,0,0,-9.962799,61.073266,90.6525)"/>
<use data-text="2" xlink:href="#font_2_1" transform="matrix(9.962899,0,0,-9.962799,95.59431,90.6525)"/>
<use data-text="4" xlink:href="#font_2_2" transform="matrix(9.962899,0,0,-9.962799,114.791889,90.6525)"/>
<use data-text="6" xlink:href="#font_2_3" transform="matrix(9.962899,0,0,-9.962799,133.98947,90.6525)"/>
<use data-text="&#x2212;" xlink:href="#font_1_1" transform="matrix(9.962899,0,0,-9.962799,60.51025,138.97347)"/>
<use data-text="6" xlink:href="#font_2_3" transform="matrix(9.962899,0,0,-9.962799,68.259479,138.97347)"/>
<use data-text="&#x2212;" xlink:href="#font_1_1" transform="matrix(9.962899,0,0,-9.962799,60.51025,119.77608)"/>
<use data-text="4" xlink:href="#font_2_2" transform="matrix(9.962899,0,0,-9.962799,68.259479,119.77608)"/>
<use data-text="&#x2212;" xlink:href="#font_1_1" transform="matrix(9.962899,0,0,-9.962799,60.51025,100.57869)"/>
<use data-text="2" xlink:href="#font_2_1" transform="matrix(9.962899,0,0,-9.962799,68.259479,100.57869)"/>
<use data-text="2" xlink:href="#font_2_1" transform="matrix(9.962899,0,0,-9.962799,68.25949,62.59893)"/>
<use data-text="4" xlink:href="#font_2_2" transform="matrix(9.962899,0,0,-9.962799,68.25949,43.40155)"/>
<use data-text="6" xlink:href="#font_2_3" transform="matrix(9.962899,0,0,-9.962799,68.25949,24.204163)"/>
<g clip-path="url(#clip_3)">
<path transform="matrix(1.00003,0,0,-1.00002,2.0964967,155.3758)" stroke-width="1.24535" stroke-linecap="butt" stroke-miterlimit="10" stroke-linejoin="miter" fill="none" stroke="#1414cc" d="M58.14688 152.46207 57.63939 153.47975 57.68762 153.38256 57.73586 153.28488 57.78407 153.18672 57.83232 153.08806 57.88055 152.98894 57.92877 152.88933 57.977 152.78925 58.02524 152.68866 58.07349 152.58759 58.1217 152.48604 58.16994 152.384 58.21817 152.2815 58.26639 152.17848 58.31464 152.07498 58.36287 151.971 58.41109 151.86655 58.45932 151.7616 58.50755 151.65616 58.55579 151.55025 58.60402 151.44387 58.65225 151.33698 58.70049 151.22962 58.7487 151.12177 58.79694 151.0134 58.84518 150.90457 58.89342 150.79528 58.94164 150.68549 58.98987 150.57521 59.0381 150.46445 59.08633 150.3532 59.13457 150.24149 59.1828 150.12926 59.23102 150.01657 59.27925 149.90338 59.32748 149.78969 59.37573 149.67552 59.42395 149.56089 59.47218 149.44577 59.52042 149.33017 59.56863 149.21408 59.61688 149.0975 59.66512 148.98044 59.71333 148.8629 59.76157 148.74488 59.8098 148.62633 59.85805 148.50733 59.90627 148.38785 59.9545 148.26789 60.00273 148.14743 60.05095 148.02648 60.09918 147.90508 60.14743 147.78318 60.19566 147.66077 60.24388 147.53786 60.29211 147.41449 60.34035 147.29064 60.38858 147.16632 60.43681 147.04149 60.48505 146.9162 60.53326 146.79042 60.5815 146.66416 60.62975 146.5374 60.67798 146.41016 60.7262 146.2824 60.77443 146.15419 60.82266 146.0255 60.87088 145.89633 60.91913 145.76667 60.96736 145.6365 61.01558 145.50588 61.06381 145.37476 61.11205 145.24317 61.1603 145.11109 61.20851 144.97849 61.25674 144.84542 61.30498 144.71187 61.3532 144.57787 61.40144 144.44336 61.44968 144.30837 61.49791 144.17288 61.54613 144.03691 61.59436 143.90047 61.6426 143.76354 61.69083 143.62612 61.73906 143.48818 61.7873 143.34978 61.83551 143.2109 61.88374 143.07157 61.93199 142.93172 61.98022 142.79138 62.02844 142.65059 62.07668 142.5093 62.12491 142.36751 62.17314 142.22525 62.22137 142.08246 62.2696 141.93923 62.31783 141.7955 62.36606 141.65129 62.41429 141.5066 62.46254 141.36144 62.51076 141.21578 62.55899 141.06964 62.60722 140.92302 62.65544 140.7759 62.70369 140.62827 62.75192 140.4802 62.80016 140.33162 62.84837 140.18257 62.8966 140.03304 62.94485 139.88301 62.99307 139.73252 63.0413 139.58153 63.08954 139.43004 63.13776 139.27805 63.18599 139.12561 63.23424 138.97267 63.28247 138.81928 63.33069 138.66538 63.37892 138.51099 63.42715 138.35613 63.47539 138.20078 63.52362 138.04496 63.57185 137.88863 63.62009 137.73175 63.6683 137.57448 63.71655 137.41672 63.76479 137.25844 63.813 137.0997 63.86124 136.94046 63.90947 136.78075 63.9577 136.62056 64.00594 136.45987 64.05417 136.29869 64.1024 136.13701 64.15062 135.97489 64.19885 135.81224 64.2471 135.64914 64.29532 135.48555 64.34355 135.32149 64.39178 135.15692 64.44 134.99188 64.48825 134.82636 64.53648 134.66034 64.58472 134.49384 64.63293 134.3268 64.68117 134.15933 64.7294 133.99137 64.77763 133.82295 64.82587 133.654 64.8741 133.48462 64.92233 133.31472 64.97055 133.14434 65.0188 132.97348 65.06703 132.80214 65.11525 132.63027 65.16348 132.45795 65.21172 132.28513 65.25995 132.11186 65.30818 131.93808 65.35641 131.76384 65.40465 131.5891 65.45287 131.41388 65.50111 131.23818 65.54935 131.06192 65.59756 130.88524 65.6458 130.70809 65.69403 130.53043 65.74225 130.3523 65.7905 130.17368 65.83873 129.99459 65.88696 129.81499 65.93518 129.63492 65.98341 129.45436 66.03166 129.27327 66.07988 129.09175 66.12811 128.90975 66.17635 128.72725 66.22458 128.54427 66.27281 128.3608 66.32104 128.17685 66.36928 127.99243 66.4175 127.8075 66.46573 127.6221 66.51396 127.43616 66.5622 127.2498 66.61043 127.06293 66.65866 126.8756 66.7069 126.68776 66.75511 126.49947 66.80336 126.31067 66.8516 126.12138 66.89981 125.93161 66.94804 125.74138 66.99628 125.55064 67.04451 125.35936 67.09274 125.16765 67.14098 124.97548 67.18921 124.7828"/>
<path transform="matrix(-.4462434,-.89486798,-.8948769,.44623894,59.967267,2.3534699)" stroke-width="1.24535" stroke-linecap="round" stroke-linejoin="round" fill="none" stroke="#1414cc" d="M-3.08844 3.92079C-2.52419 1.56828-1.26682 .45741 0 0-1.26682-.45741-2.52419-1.56828-3.08844-3.92079"/>
<path transform="matrix(1.00003,0,0,-1.00002,2.0964967,155.3758)" stroke-width="1.24535" stroke-linecap="butt" stroke-miterlimit="10" stroke-linejoin="miter" fill="none" stroke="#1414cc" d="M67.1897 124.78087 67.28615 124.39598 67.38263 124.013 67.47908 123.63202 67.57555 123.25294 67.67201 122.8758 67.76848 122.50061 67.86494 122.1273 67.96141 121.75601 68.05788 121.38664 68.15434 121.01917 68.25081 120.6537 68.34726 120.29016 68.44374 119.92851 68.54019 119.56885 68.63667 119.2111 68.73312 118.85526 68.82959 118.50142 68.92607 118.1495 69.02252 117.7995 69.11899 117.45145 69.21545 117.1053 69.31192 116.76114 69.40839 116.41895 69.50485 116.0786 69.6013 115.74028 69.69778 115.40387 69.79425 115.06937 69.8907 114.73685 69.98718 114.40627 70.08363 114.07758 70.18011 113.75087 70.27657 113.42606 70.37303 113.10321 70.46951 112.78233 70.56596 112.46333 70.66243 112.14633 70.7589 111.83127 70.85536 111.51807 70.95183 111.20688 71.0483 110.89761 71.14474 110.59026 71.24123 110.28488 71.33769 109.98145 71.43414 109.6799 71.53062 109.38034 71.62708 109.0827 71.72356 108.78699 71.82 108.49324 71.91647 108.20139 72.01295 107.91153 72.1094 107.6236 72.20587 107.33757 72.30234 107.05351 72.3988 106.77141 72.49527 106.49118 72.59174 106.21295 72.6882 105.93661 72.78467 105.66228 72.88113 105.38985 72.97758 105.11934 73.07407 104.85077 73.17052 104.5842 73.267 104.31949 73.36345 104.05676 73.45992 103.79597 73.5564 103.5371 73.65285 103.28018 73.74931 103.0252 73.84578 102.77214 73.94225 102.52107 74.03871 102.27191 74.13518 102.02466 74.23163 101.77939 74.32811 101.53603 74.42458 101.29462 74.52103 101.05516 74.61751 100.81761 74.71396 100.58203 74.81044 100.34839 74.90689 100.11665 75.00336 99.88689 75.09984 99.65903 75.19629 99.43315 75.29276 99.2092 75.38922 98.98715 75.48569 98.76709 75.58215 98.54897 75.67862 98.33275 75.77509 98.11848 75.87155 97.90617 75.96802 97.69577 76.06447 97.48734 76.16095 97.2808 76.2574 97.07623 76.35388 96.87363 76.45033 96.67291 76.5468 96.47417 76.64328 96.27736 76.73973 96.08249 76.8362 95.88956 76.93266 95.69856 77.02913 95.5095 77.1256 95.32239 77.22206 95.13719 77.31853 94.95396 77.415 94.77266 77.51146 94.59329 77.60791 94.41588 77.70439 94.24039 77.80084 94.06683 77.89732 93.89523 77.99379 93.72557 78.09024 93.55785 78.18672 93.39206 78.28317 93.2282 78.37964 93.06628 78.4761 92.90631 78.57257 92.74828 78.66904 92.5922 78.7655 92.43802 78.86197 92.28581 78.95844 92.13553 79.0549 91.9872 79.15135 91.84079 79.24783 91.69633 79.34428 91.5538 79.44077 91.41322 79.53723 91.27458 79.63368 91.13788 79.73016 91.00311 79.82661 90.87027 79.92308 90.73938 80.01955 90.61044 80.11601 90.48343 80.2125 90.35835 80.30894 90.23523 80.40541 90.11403 80.50188 89.99478 80.59834 89.87746 80.6948 89.76208 80.79128 89.64864 80.88773 89.53714 80.9842 89.42758 81.08067 89.31996 81.17712 89.21428 81.2736 89.11053 81.37006 89.00873 81.46652 88.90887 81.56299 88.81094 81.65945 88.71495 81.75594 88.6209 81.85239 88.5288 81.94885 88.43861 82.04532 88.35037 82.14178 88.2641 82.23824 88.17973 82.33472 88.09732 82.43117 88.01685 82.52765 87.93831 82.62411 87.86171 82.72057 87.78705 82.81705 87.71432 82.9135 87.64355 83.00996 87.57469 83.10643 87.5078 83.2029 87.44284 83.29935 87.3798 83.39583 87.31873 83.4923 87.25958 83.58876 87.20238 83.68523 87.1471 83.78168 87.09377 83.87816 87.04237 83.97461 86.99292 84.07108 86.94542 84.16756 86.89984 84.264 86.85619 84.36049 86.8145 84.45694 86.77473 84.5534 86.73692 84.64987 86.70103 84.74634 86.6671 84.8428 86.6351 84.93927 86.60503 85.03574 86.5769 85.1322 86.55072 85.22867 86.52647 85.32512 86.50417 85.4216 86.4838 85.51805 86.46536 85.61452 86.44887 85.711 86.43433 85.80745 86.4217 85.90393 86.41103 86.00038 86.4023 86.09685 86.3955 86.19331 86.39064 86.28978 86.38773 86.38623 86.38675"/>
<path transform="matrix(1.00003,0,0,-1.00002,2.0964967,155.3758)" stroke-width="1.24535" stroke-linecap="butt" stroke-miterlimit="10" stroke-linejoin="miter" fill="none" stroke="#1414cc" d="M86.38675 86.38675 86.48322 86.38626 86.57968 86.38481 86.67613 86.38239 86.77261 86.37898 86.86906 86.37462 86.96555 86.36931 87.062 86.36299 87.15846 86.35573 87.25493 86.34749 87.3514 86.33827 87.44785 86.3281 87.54433 86.31694 87.64078 86.30482 87.73726 86.29175 87.83371 86.27768 87.93018 86.26266 88.02664 86.24667 88.12311 86.2297 88.21956 86.21176 88.31604 86.19286 88.41249 86.17299 88.50897 86.15215 88.60542 86.13033 88.70189 86.10754 88.79836 86.0838 88.89482 86.05908 88.99127 86.03339 89.08775 86.00671 89.1842 85.9791 89.28069 85.95049 89.37714 85.92091 89.4736 85.89038 89.57007 85.85889 89.66653 85.82642 89.76299 85.79295 89.85947 85.75853 89.95592 85.72316 90.0524 85.6868 90.14885 85.64948 90.24532 85.61118 90.34178 85.57191 90.43825 85.5317 90.5347 85.4905 90.63118 85.44832 90.72763 85.40518 90.82411 85.36107 90.92056 85.316 91.01703 85.26994 91.1135 85.22292 91.20996 85.17493 91.30641 85.12596 91.4029 85.07603 91.49934 85.02515 91.59583 84.97328 91.69228 84.92044 91.78874 84.86665 91.88521 84.81186 91.98167 84.75613 92.07813 84.69942 92.1746 84.64174 92.27106 84.58307 92.36754 84.52345 92.46399 84.46288 92.56046 84.4013 92.65692 84.33878 92.75339 84.27527 92.84984 84.2108 92.94632 84.14536 93.04277 84.07896 93.13925 84.01158 93.2357 83.94324 93.33217 83.87392 93.42863 83.80363 93.5251 83.73238 93.62155 83.66016 93.71803 83.58696 93.81448 83.51279 93.91096 83.43767 94.00742 83.36156 94.10388 83.28448 94.20035 83.20645 94.29681 83.12744 94.39326 83.04745 94.48975 82.9665 94.5862 82.88458 94.68268 82.8017 94.77913 82.71785 94.8756 82.63303 94.97206 82.54723 95.06853 82.46045 95.16498 82.37271 95.26146 82.28401 95.35791 82.19434 95.45439 82.10368 95.55084 82.01208 95.64731 81.9195 95.74377 81.82594 95.84024 81.73143 95.93669 81.63593 96.03317 81.53947 96.12962 81.44205 96.2261 81.34363 96.32256 81.24428 96.41902 81.14394 96.51549 81.04263 96.61195 80.94034 96.7084 80.83711 96.80489 80.7329 96.90134 80.6277 96.99782 80.52155 97.09427 80.41443 97.19073 80.30632 97.28722 80.19725 97.38367 80.08722 97.48013 79.97623 97.5766 79.86426 97.67307 79.7513 97.76953 79.6374 97.866 79.5225 97.96245 79.40668 98.05893 79.28984 98.15538 79.17204 98.25185 79.0533 98.34831 78.93358 98.44478 78.81288 98.54124 78.69121 98.63771 78.56857 98.73416 78.44496 98.83064 78.32039 98.9271 78.19485 99.02356 78.06834 99.12003 77.94084 99.21649 77.8124 99.31296 77.68298 99.40942 77.55258 99.50587 77.42122 99.60236 77.28891 99.6988 77.1556 99.79527 77.02132 99.89174 76.88608 99.9882 76.7499 100.08467 76.61269 100.18114 76.47455 100.27759 76.33543 100.37407 76.19533 100.47052 76.05429 100.56699 75.91228 100.66345 75.76929 100.75992 75.6253 100.85638 75.48036 100.95285 75.33447 101.0493 75.18759 101.14578 75.03975 101.24223 74.89095 101.3387 74.74117 101.43517 74.59041 101.53163 74.4387 101.6281 74.28601 101.72456 74.13234 101.82101 73.9777 101.9175 73.82213 102.01395 73.66554 102.11041 73.50803 102.20688 73.34952 102.30334 73.19002 102.39981 73.02959 102.49628 72.86818 102.59273 72.70581 102.68921 72.54243 102.78566 72.37811 102.88213 72.21284 102.97859 72.04654 103.07506 71.87932 103.17152 71.71114 103.26799 71.54198 103.36444 71.37183 103.46092 71.20073 103.55737 71.02866 103.65384 70.85558 103.7503 70.68158 103.84677 70.50659 103.94324 70.33063 104.0397 70.1537 104.13615 69.97581 104.23264 69.79695 104.32909 69.6171 104.42555 69.43631 104.52202 69.25455 104.61848 69.07178 104.71495 68.88808 104.81142 68.7034 104.90787 68.51773 105.00435 68.33112 105.1008 68.14354 105.19727 67.95497 105.29373 67.76544 105.3902 67.57495 105.48666 67.38348 105.58313 67.19104"/>
<path transform="matrix(1.00003,0,0,-1.00002,2.0964967,155.3758)" stroke-width="1.24535" stroke-linecap="butt" stroke-miterlimit="10" stroke-linejoin="miter" fill="none" stroke="#1414cc" d="M105.58382 67.1897 105.68027 66.99725 105.77675 66.80576 105.8732 66.61526 105.96967 66.42574 106.06613 66.23715 106.1626 66.04956 106.25905 65.86295 106.35553 65.67729 106.45198 65.49258 106.54846 65.30888 106.64491 65.12613 106.74138 64.94434 106.83784 64.76353 106.93431 64.5837 107.03076 64.40485 107.12724 64.22693 107.2237 64.04999 107.32018 63.87404 107.41663 63.69902 107.51309 63.52501 107.60956 63.35196 107.70602 63.17986 107.80247 63.00876 107.89896 62.83862 107.9954 62.66945 108.09189 62.50122 108.18834 62.33398 108.2848 62.16772 108.38127 62.00241 108.47774 61.83809 108.57419 61.67474 108.67067 61.51231 108.76712 61.35092 108.8636 61.19046 108.96005 61.03096 109.05652 60.87247 109.15298 60.71494 109.24945 60.55836 109.3459 60.40274 109.44238 60.24812 109.53883 60.09447 109.63531 59.94174 109.73177 59.79002 109.82823 59.63927 109.9247 59.4895 110.02116 59.34065 110.11761 59.19281 110.2141 59.04594 110.31055 58.90001 110.40703 58.7551 110.50348 58.61111 110.59995 58.46811 110.69641 58.32608 110.79288 58.18503 110.88933 58.04492 110.98581 57.9058 111.08226 57.76765 111.17874 57.63046 111.27519 57.49423 111.37166 57.35901 111.46812 57.22473 111.56459 57.0914 111.66104 56.95909 111.75752 56.82773 111.85397 56.69731 111.95045 56.56787 112.0469 56.43942 112.14337 56.31195 112.23984 56.18541 112.3363 56.05986 112.43275 55.93527 112.52924 55.81168 112.62569 55.68903 112.72217 55.56735 112.81862 55.44666 112.91508 55.3269 113.01155 55.20815 113.10802 55.09036 113.20447 54.97353 113.30095 54.85767 113.3974 54.74278 113.49388 54.62886 113.59033 54.51591 113.6868 54.40393 113.78326 54.29292 113.87973 54.18288 113.97618 54.07382 114.07266 53.96573 114.16911 53.85858 114.2656 53.75243 114.36205 53.64723 114.45851 53.543 114.55498 53.43974 114.65144 53.33748 114.7479 53.23616 114.84438 53.1358 114.94083 53.03644 115.03731 52.93803 115.13376 52.84058 115.23022 52.74413 115.32669 52.64862 115.42316 52.5541 115.5196 52.46053 115.61609 52.36795 115.71254 52.27632 115.809 52.18568 115.90547 52.096 116.00194 52.00728 116.0984 51.91954 116.19487 51.83276 116.29132 51.74696 116.3878 51.66212 116.48427 51.57826 116.58072 51.49538 116.6772 51.41345 116.77365 51.33249 116.87013 51.2525 116.96658 51.1735 117.06305 51.09544 117.15952 51.01836 117.25598 50.94225 117.35243 50.86711 117.44891 50.79294 117.54536 50.71974 117.64185 50.64749 117.7383 50.57625 117.83476 50.50595 117.93123 50.43663 118.0277 50.36827 118.12415 50.30089 118.22063 50.23447 118.31708 50.16904 118.41356 50.10455 118.51001 50.04105 118.60648 49.97852 118.70294 49.91695 118.79941 49.85634 118.89586 49.79672 118.99234 49.73805 119.08879 49.68037 119.18527 49.62364 119.28172 49.5679 119.37819 49.51312 119.47466 49.4593 119.57112 49.40646 119.66757 49.3546 119.76405 49.30368 119.8605 49.25375 119.95699 49.20479 120.05344 49.15678 120.1499 49.10977 120.24637 49.0637 120.34283 49.01862 120.43929 48.9745 120.53577 48.93137 120.63222 48.88919 120.7287 48.84798 120.82515 48.80774 120.92162 48.76848 121.01808 48.73016 121.11455 48.69284 121.211 48.65648 121.30748 48.6211 121.40393 48.58665 121.50041 48.5532 121.59686 48.52072 121.69333 48.48921 121.7898 48.45866 121.88626 48.4291 121.98271 48.40048 122.0792 48.37283 122.17564 48.34618 122.27213 48.32048 122.36858 48.29575 122.46504 48.27199 122.56151 48.2492 122.65797 48.22739 122.75443 48.20654 122.8509 48.18666 122.94736 48.16776 123.04384 48.14981 123.14029 48.13283 123.23676 48.11682 123.33322 48.10179 123.42969 48.08772 123.52614 48.07463 123.62262 48.0625 123.71907 48.05136 123.81555 48.04118 123.912 48.03195 124.00847 48.02371 124.10493 48.01643 124.2014 48.01012 124.29785 48.00479 124.39433 48.00041 124.49078 47.99701 124.58727 47.99458 124.68372 47.99312 124.78018 47.99265"/>
<path transform="matrix(1.00003,0,0,-1.00002,2.0964967,155.3758)" stroke-width="1.24535" stroke-linecap="butt" stroke-miterlimit="10" stroke-linejoin="miter" fill="none" stroke="#1414cc" d="M124.78087 47.99265 124.92557 47.99155 125.07025 47.98828 125.21495 47.98282 125.35965 47.97519 125.50435 47.96536 125.64905 47.95337 125.79375 47.9392 125.93845 47.92284 126.08313 47.90428 126.22784 47.88356 126.37253 47.86067 126.51723 47.83557 126.66191 47.80832 126.80663 47.77887 126.95132 47.74724 127.09601 47.71342 127.24072 47.67744 127.3854 47.63927 127.5301 47.5989 127.6748 47.55637 127.8195 47.51166 127.9642 47.46475 128.1089 47.41568 128.2536 47.36441 128.39829 47.31097 128.54299 47.25536 128.68769 47.19754 128.83238 47.13756 128.97707 47.0754 129.12178 47.01105 129.26648 46.94452 129.41117 46.87581 129.55588 46.8049 129.70056 46.73184 129.84526 46.65659 129.98995 46.57915 130.13466 46.49953 130.27936 46.41772 130.42404 46.33376 130.56876 46.24759 130.71344 46.15926 130.85814 46.06873 131.00284 45.97601 131.14754 45.88113 131.29222 45.78406 131.43694 45.68483 131.58164 45.58339 131.72632 45.47978 131.87102 45.374 132.01572 45.266 132.16042 45.15585 132.3051 45.04352 132.44982 44.929 132.59452 44.81229 132.7392 44.69342 132.88391 44.57236 133.0286 44.44911 133.1733 44.32368 133.31798 44.19608 133.46269 44.0663 133.60738 43.93433 133.75208 43.80017 133.89679 43.66385 134.04148 43.52534 134.18618 43.38464 134.33087 43.24176 134.47557 43.09671 134.62026 42.94948 134.76497 42.80006 134.90967 42.64845 135.05435 42.49466 135.19905 42.3387 135.34375 42.18057 135.48845 42.02023 135.63314 41.85774 135.77785 41.69304 135.92253 41.52617 136.06723 41.35713 136.21195 41.18591 136.35663 41.01248 136.50133 40.83687 136.64603 40.65912 136.79073 40.47917 136.93541 40.29701 137.08011 40.11269 137.22483 39.9262 137.3695 39.7375 137.5142 39.54665 137.6589 39.35359 137.8036 39.15837 137.94829 38.96095 138.093 38.76138 138.23769 38.55963 138.38239 38.35567 138.52709 38.14952 138.67179 37.94121 138.81649 37.73073 138.96117 37.51805 139.10588 37.3032 139.25057 37.08615 139.39527 36.86691 139.53998 36.64552 139.68466 36.42195 139.82936 36.19618 139.97406 35.96822 140.11876 35.73811 140.26345 35.50581 140.40814 35.2713 140.55284 35.03462 140.69754 34.79579 140.84224 34.55475 140.98694 34.31154 141.13164 34.06615 141.27632 33.81857 141.42104 33.5688 141.56572 33.31686 141.71042 33.06276 141.85512 32.80644 141.99982 32.54794 142.14452 32.2873 142.2892 32.02443 142.43392 31.75941 142.5786 31.49223 142.7233 31.22282 142.868 30.95123 143.0127 30.67749 143.1574 30.40158 143.3021 30.12344 143.4468 29.84314 143.59148 29.56068 143.73618 29.27602 143.88088 28.98918 144.02558 28.70016 144.17026 28.40895 144.31497 28.11555 144.45967 27.81999 144.60436 27.52226 144.74907 27.22232 144.89376 26.9202 145.03845 26.61592 145.18314 26.30946 145.32785 26.00081 145.47255 25.68996 145.61724 25.37694 145.76195 25.06174 145.90663 24.74437 146.05133 24.42484 146.19603 24.10306 146.34073 23.77913 146.48542 23.45305 146.63013 23.12477 146.77483 22.7943 146.91951 22.46162 147.06421 22.12682 147.20891 21.78983 147.3536 21.4506 147.49829 21.10927 147.643 20.76569 147.7877 20.41992 147.93239 20.07204 148.0771 19.72194 148.22179 19.36966 148.36649 19.0152 148.51119 18.65855 148.65589 18.29974 148.80057 17.93872 148.94527 17.57556 149.08998 17.21017 149.23467 16.8426 149.37937 16.4729 149.52407 16.101 149.66876 15.7269 149.81345 15.3506 149.95816 14.97217 150.10286 14.59154 150.24755 14.20871 150.39225 13.8237 150.53694 13.43652 150.68164 13.04713 150.82633 12.65562 150.97104 12.26192 151.11573 11.86598 151.26042 11.4679 151.40514 11.06764 151.54982 10.6652 151.69452 10.26056 151.83922 9.85371 151.98392 9.44475 152.1286 9.0336 152.2733 8.62022 152.41802 8.20471 152.5627 7.78697 152.7074 7.36705 152.8521 6.94499 152.9968 6.52074 153.14148 6.09428 153.2862 5.66563 153.43088 5.23485 153.18091 5.98296"/>
<path transform="matrix(.3169395,.94841906,.9484285,-.31693635,155.47934,149.98326)" stroke-width="1.24535" stroke-linecap="round" stroke-linejoin="round" fill="none" stroke="#1414cc" d="M-3.08844 3.92079C-2.52419 1.56828-1.26682 .45741 0 0-1.26682-.45741-2.52419-1.56828-3.08844-3.92079"/>
</g>
<use data-text="x" xlink:href="#font_4_1" transform="matrix(9.962899,0,0,-9.962799,146.48883,75.053188)"/>
<use data-text="y" xlink:href="#font_4_2" transform="matrix(9.962899,0,0,-9.962799,82.422908,9.572876)"/>
</svg>
