<svg xmlns="http://www.w3.org/2000/svg" xmlns:xlink="http://www.w3.org/1999/xlink" xmlns:inkscape="http://www.inkscape.org/namespaces/inkscape" version="1.1" width="332" height="140" viewBox="0 0 332 140">
<defs>
<path id="font_1_3" d="M.1269989 .07699585 .23298645 .18003845C.3889923 .31811524 .44898988 .3721466 .44898988 .47216798 .44898988 .5860901 .35899354 .6660156 .23699951 .6660156 .12399292 .6660156 .049987794 .57411196 .049987794 .48516847 .049987794 .4291687 .099990848 .4291687 .102996829 .4291687 .11999512 .4291687 .15499878 .44117738 .15499878 .48217774 .15499878 .5081787 .13699341 .5341797 .101989749 .5341797 .09399414 .5341797 .09199524 .5341797 .08898926 .5331726 .11199951 .59806826 .1659851 .63500979 .22399903 .63500979 .31498719 .63500979 .35798646 .5541382 .35798646 .47216798 .35798646 .39215089 .30799867 .31311036 .25299073 .25108338L.06098938 .036987306C.049987794 .025985718 .049987794 .023986817 .049987794 0H.42099L.44898988 .17404175H.42399598C.4189911 .14402771 .4119873 .1000061 .4019928 .084991458 .394989 .07699585 .32899476 .07699585 .30699159 .07699585H.1269989Z"/>
<path id="font_1_4" d="M.2939911 .16503906V.07800293C.2939911 .041992189 .2919922 .0309906 .21798706 .0309906H.19699097V0C.23799134 .0029907227 .2899933 .0029907227 .33198548 .0029907227 .37399293 .0029907227 .4269867 .0029907227 .46798707 0V.0309906H.44699098C.37298585 .0309906 .37098695 .041992189 .37098695 .07800293V.16503906H.47099305V.19602967H.37098695V.65075686C.37098695 .67074587 .37098695 .6767578 .35499574 .6767578 .34599305 .6767578 .34298707 .6767578 .33499146 .66474917L.027999878 .19602967V.16503906H.2939911M.2999878 .19602967H.055999757L.2999878 .5688019V.19602967Z"/>
<path id="font_1_5" d="M.13198853 .327713V.35173036C.13198853 .6047821 .2559967 .64100649 .30699159 .64100649 .33099366 .64100649 .37298585 .634964 .394989 .6007538 .37998963 .6007538 .33999635 .6007538 .33999635 .5557556 .33999635 .524765 .3639984 .5097656 .38598634 .5097656 .4019928 .5097656 .43199159 .51875308 .43199159 .5577545 .43199159 .6178589 .3880005 .6660156 .30499269 .6660156 .1769867 .6660156 .041992189 .5367584 .041992189 .31570436 .041992189 .048553468 .1579895-.022460938 .25099183-.022460938 .3619995-.022460938 .45700074 .07156372 .45700074 .2036438 .45700074 .33070375 .36799623 .4267578 .25698854 .4267578 .18899536 .4267578 .1519928 .37573243 .13198853 .327713M.25099183 .0055389406C.18798828 .0055389406 .1579895 .06556702 .1519928 .080566409 .13398743 .127594 .13398743 .2076416 .13398743 .22564698 .13398743 .30369569 .1659851 .40374757 .2559967 .40374757 .27198792 .40374757 .31799317 .40374757 .34899903 .34172059 .36698915 .30470277 .36698915 .2536621 .36698915 .20463562 .36698915 .15661621 .36698915 .10658264 .34999085 .0705719 .31999208 .010528564 .27398683 .0055389406 .25099183 .0055389406Z"/>
<path id="font_1_6" d="M.16299439 .4569702C.116989139 .486969 .11299133 .52098086 .11299133 .5379791 .11299133 .598999 .17799378 .64100649 .24899292 .64100649 .32199098 .64100649 .38598634 .58898928 .38598634 .51698306 .38598634 .45996095 .34700013 .4119568 .2869873 .37695313L.16299439 .4569702M.30899049 .36193849C.3809967 .3989563 .42999269 .45095826 .42999269 .51698306 .42999269 .6090088 .34098817 .6660156 .25 .6660156 .1499939 .6660156 .068984989 .59199526 .068984989 .49897767 .068984989 .4809723 .070999149 .43595887 .11299133 .38894654 .12399292 .37695313 .16099549 .35194398 .18598938 .33494569 .12799073 .30592347 .041992189 .24984741 .041992189 .15072632 .041992189 .04458618 .14399719-.022460938 .24899292-.022460938 .3619995-.022460938 .45700074 .06060791 .45700074 .16773987 .45700074 .20379639 .44599916 .24885559 .4079895 .2909088 .3889923 .31193543 .37298585 .3219452 .30899049 .36193849M.20899964 .3199463 .33198548 .24183655C.3600006 .2228241 .40699769 .19277954 .40699769 .13169861 .40699769 .05760193 .33198548 .0055389406 .25 .0055389406 .1639862 .0055389406 .09199524 .067611698 .09199524 .15072632 .09199524 .20880127 .12399292 .27288819 .20899964 .3199463Z"/>
<path id="font_1_2" d="M.2939911 .64004519C.2939911 .66400149 .2939911 .6660156 .2709961 .6660156 .20899964 .60227969 .12098694 .60227969 .08898926 .60227969V.57128909C.10899353 .57128909 .16799927 .57128909 .21998596 .5972748V.07902527C.21998596 .042999269 .21699524 .0309906 .1269989 .0309906H.09498596V0C.12998963 .0029907227 .21699524 .0029907227 .25698854 .0029907227 .29699708 .0029907227 .38398744 .0029907227 .4189911 0V.0309906H.3869934C.29699708 .0309906 .2939911 .041992189 .2939911 .07902527V.64004519Z"/>
<path id="font_1_1" d="M.45999146 .31976319C.45999146 .39982606 .45498658 .47988893 .41999818 .5539398 .37399293 .65000918 .2919922 .6660156 .25 .6660156 .18998719 .6660156 .116989139 .64001467 .07598877 .54693606 .04399109 .47789 .038986207 .39982606 .038986207 .31976319 .038986207 .24472046 .042999269 .15464783 .083999637 .07859802 .1269989-.0024719239 .19999695-.022460938 .24899292-.022460938 .30299378-.022460938 .3789978-.0014648438 .4229889 .09359741 .45498658 .16265869 .45999146 .2407074 .45999146 .31976319M.24899292-.00047302247C.20999146-.00047302247 .15098572 .024551392 .1329956 .12062073 .12199402 .18066406 .12199402 .2727356 .12199402 .3317871 .12199402 .39582826 .12199402 .46188355 .12998963 .5159149 .14898682 .63500979 .22399903 .64401248 .24899292 .64401248 .28199769 .64401248 .34799195 .6259918 .36698915 .52693179 .3769989 .47088624 .3769989 .39482118 .3769989 .3317871 .3769989 .25672914 .3769989 .18867493 .3659973 .12461853 .35099793 .029556275 .2939911-.00047302247 .24899292-.00047302247Z"/>
<path id="font_2_1" d="M.6589966 .23046875C.6759949 .23046875 .69400027 .23046875 .69400027 .25045777 .69400027 .27046205 .6759949 .27046205 .6589966 .27046205H.117996219C.100997928 .27046205 .08299255 .27046205 .08299255 .25045777 .08299255 .23046875 .100997928 .23046875 .117996219 .23046875H.6589966Z"/>
<clipPath id="clip_3">
<path transform="matrix(1.00008,0,0,-1.00003,30.932282,127.03533)" d="M0 0H295.32579V125.23389H0Z"/>
</clipPath>
<path id="font_4_1" d="M.31399537 .3856659H.43199159C.45298768 .3856659 .45399476 .3866577 .45899964 .39065553 .46398927 .39465333 .46699525 .4076538 .46699525 .4136505 .46699525 .43066407 .45199586 .43066407 .43499757 .43066407H.32499696L.34599305 .51356509C.35198976 .5395355 .3639984 .5844879 .3639984 .5904846 .3639984 .60746768 .35099793 .62545779 .32699586 .62545779 .30999757 .62545779 .28599549 .6144562 .27799989 .58747866 .272995 .5704956 .2849884 .61746218 .23799134 .43066407H.11898804C.09899902 .43066407 .083999637 .43066407 .083999637 .40264894 .083999637 .3856659 .09799194 .3856659 .115997318 .3856659H.22698975L.16799927 .15104676C.16299439 .1290741 .15499878 .09812927 .15499878 .08615112 .15499878 .02923584 .20799256-.0107421879 .27799989-.0107421879 .39898683-.0107421879 .47299195 .12408447 .47299195 .14405823 .47299195 .15803528 .45599366 .15803528 .45199586 .15803528 .43598939 .15803528 .43399049 .15403748 .42900086 .14105225 .3959961 .06916809 .33399964 .023254395 .28199769 .023254395 .25 .023254395 .23999024 .046218873 .23999024 .076156619 .23999024 .09213257 .24099732 .09513855 .24299622 .10411072L.31399537 .3856659Z"/>
<path id="font_5_45" d="M.27598573 .009994507C.27598573 .07299805 .24899292 .12199402 .20098877 .12199402 .1619873 .12199402 .13999939 .09199524 .13999939 .06098938 .13999939 .02999878 .1619873 0 .20098877 0 .22698975 0 .24299622 .01499939 .24299622 .01499939 .24299622-.057113649 .21398926-.11720276 .1599884-.16229248 .1519928-.16929627 .15098572-.17030335 .15098572-.17730713 .15098572-.18632508 .16099549-.19433594 .16799927-.19433594 .18199158-.19433594 .27598573-.11621094 .27598573 .009994507Z"/>
<path id="font_5_63" d="M.68299868 0V.04399109H.6649933C.59999087 .04399109 .59999087 .052978517 .59999087 .08395386V.3018036C.59999087 .41236878 .5249939 .4423828 .43199159 .4423828 .31698609 .4423828 .2649994 .37419129 .25 .35105897V.69433596L.08198547 .6826172V.63861086C.1559906 .63861086 .16499329 .6316376 .16499329 .5828247V.08395386C.16499329 .052978517 .16499329 .04399109 .099990848 .04399109H.08198547V0C.125 .0029907227 .16699219 .0039978029 .20999146 .0039978029 .2519989 .0039978029 .29499818 .0029907227 .33699037 0V.04399109H.31900025C.2539978 .04399109 .2539978 .052978517 .2539978 .08395386V.2578125C.2539978 .37117005 .35798646 .40937806 .41999818 .40937806 .49398805 .40937806 .5109863 .36715699 .5109863 .30281068V.08395386C.5109863 .052978517 .5109863 .04399109 .44599916 .04399109H.42799378V0C.47099305 .0029907227 .5130005 .0039978029 .55599978 .0039978029 .59799197 .0039978029 .6409912 .0029907227 .68299868 0Z"/>
<path id="font_5_81" d="M.61499026 .21324158C.61499026 .33824159 .49699403 .4482422 .33999635 .4482422 .18299866 .4482422 .06498718 .33824159 .06498718 .21324158 .06498718 .09324646 .18399048-.0107421879 .33999635-.0107421879 .49699403-.0107421879 .61499026 .09324646 .61499026 .21324158M.5149994 .22323609C.5149994 .17424011 .5149994 .025253296 .33999635 .025253296 .16499329 .025253296 .16499329 .17424011 .16499329 .22323609 .16499329 .26823426 .16499329 .41523744 .33999635 .41523744 .5149994 .41523744 .5149994 .26823426 .5149994 .22323609Z"/>
<path id="font_5_109" d="M.68299868 .00024414063V.04425049C.60899356 .04425049 .59999087 .051254274 .59999087 .1002655V.4423828L.42799378 .43138124V.38737489C.5019989 .38737489 .5109863 .3803711 .5109863 .33135987V.16828919C.5109863 .07626343 .44198609 .022247315 .3600006 .022247315 .2579956 .022247315 .2539978 .06326294 .2539978 .11427307V.4423828L.08198547 .43138124V.38737489C.15899658 .38737489 .16499329 .379364 .16499329 .32835389V.11027527C.17399597-.0017547608 .2869873-.0107421879 .35198976-.0107421879 .43598939-.0107421879 .4850006 .027252198 .5149994 .07426453V-.0107421879L.68299868 .00024414063Z"/>
<path id="font_5_96" d="M.47898866 .37338258C.47898866 .41137696 .44299317 .4423828 .3899994 .4423828 .33999635 .44171144 .27598573 .41571046 .23699951 .33171083H.23599243V.4423828L.07598877 .43066407V.3866577C.1499939 .3866577 .15899658 .3796692 .15899658 .33070375V.08395386C.15899658 .052978517 .15899658 .04399109 .09399414 .04399109H.07598877V0C.117996219 .0029907227 .16299439 .0039978029 .20498657 .0039978029L.34799195 0V.04399109H.32099916C.24398804 .04399109 .24398804 .053985597 .24398804 .084991458V.22399903C.24398804 .31698609 .29699708 .40699769 .3919983 .40899659 .3919983 .40899659 .37799073 .394989 .37799073 .37298585 .37799073 .33699037 .4059906 .32199098 .42799378 .32199098 .45298768 .32199098 .47898866 .33898927 .47898866 .37298585V.37338258Z"/>
<path id="font_5_98" d="M.47799684 .12625122C.47799684 .17124939 .45298768 .20423889 .4149933 .22824097 .375 .25323487 .34498597 .25723268 .26098634 .27023316 .19699097 .28024293 .11999512 .29223634 .11999512 .3452301 .11999512 .38023377 .15899658 .41822816 .2679901 .41822816 .35099793 .41822816 .39898683 .38523866 .40499879 .3162384 .4059906 .301239 .40699769 .2952423 .42599488 .2952423 .44699098 .2952423 .44699098 .30223084 .44699098 .3232422V.42022706C.44699098 .4372406 .44699098 .4482422 .43099977 .4482422 .42599488 .4482422 .42199708 .4472351 .4139862 .4412384 .4099884 .4372406 .3919983 .42123414 .3880005 .42123414 .3880005 .42123414 .3849945 .42123414 .3789978 .42523194 .35598756 .43823243 .31900025 .4482422 .2689972 .4482422 .10398865 .4482422 .069992069 .37223817 .069992069 .3262329 .069992069 .23223877 .18598938 .21424866 .27799989 .20024109 .33599855 .1912384 .42799378 .1772461 .42799378 .10925293 .42799378 .07424927 .39898683 .022247315 .27799989 .022247315 .20999146 .022247315 .14399719 .04725647 .11399841 .15324402 .10899353 .17124939 .10798645 .17424011 .09098816 .17424011 .069992069 .17424011 .069992069 .1662445 .069992069 .14524842V.01725769C.069992069 .00024414063 .069992069-.0107421879 .085998538-.0107421879 .09399414-.0107421879 .09498596-.009750366 .11399841 .009246826L.13999939 .03425598C.18998719-.009750366 .25299073-.0107421879 .27799989-.0107421879 .44499208-.0107421879 .47799684 .07624817 .47799684 .12625122Z"/>
<path id="font_5_28" d="M.6349945 .090148929V.14515686H.59298709V.09214783C.59298709 .08213806 .59298709 .038131715 .5529938 .038131715 .5130005 .038131715 .5130005 .08213806 .5130005 .09214783V.2972107C.5130005 .39323426 .4119873 .4482422 .28799439 .4482422 .22698975 .4482422 .11099243 .4452362 .11099243 .36021424 .11099243 .32321168 .13899231 .30619813 .1639862 .30619813 .19099427 .30619813 .21699524 .32521058 .21699524 .3592224 .21699524 .3832245 .20298767 .39822389 .19400025 .40423585 .22698975 .41523744 .2749939 .41523744 .28599549 .41523744 .37098695 .41523744 .42399598 .3682251 .42399598 .2962036V.27020265C.32699586 .26519776 .272995 .26219178 .19599915 .23518372 .12998963 .21217346 .07199097 .17016602 .07199097 .105148319 .07199097 .011245728 .18798828-.0107421879 .2679901-.0107421879 .34498597-.0107421879 .40499879 .020248414 .43598939 .071243289 .43998719 .036132814 .46299745-.005859375 .5139923-.005859375 .5209961-.005859375 .6349945-.005859375 .6349945 .09013367V.090148929M.42399598 .14213562C.42399598 .03224182 .3039856 .022247315 .2789917 .022247315 .21998596 .022247315 .1639862 .053253175 .1639862 .10523987 .1639862 .13824463 .18499756 .23022461 .42399598 .24023438V.14213562Z"/>
<path id="font_5_55" d="M.46798707 .6269989C.46798707 .6700592 .4249878 .7050781 .35798646 .7050781 .269989 .7050781 .16699219 .6490326 .16699219 .5398407V.43066407H.069992069V.3866577H.16699219V.08395386C.16699219 .052978517 .16699219 .04399109 .101989749 .04399109H.083999637V0C.12599182 .0029907227 .17098999 .0039978029 .21299744 .0039978029L.35598756 0V.04399109H.32899476C.2519989 .04399109 .2519989 .053985597 .2519989 .08494568V.3866577H.3939972V.43066407H.24798584V.5388489C.24798584 .6329956 .30999757 .67207339 .35598756 .67207339 .36299134 .67207339 .3829956 .6700592 .3829956 .6670685L.3809967 .6650543C.375 .6589966 .36499024 .6469879 .36499024 .6259918 .36499024 .59799197 .3849945 .57499697 .41600038 .57499697 .44898988 .57499697 .46798707 .59799197 .46798707 .6269989Z"/>
<path id="font_5_105" d="M.44400025 .12608338V.18099976H.4019928V.1290741C.4019928 .05419922 .35798646 .025253296 .32299806 .025253296 .24598694 .025253296 .24598694 .1051178 .24598694 .12608338V.3866577H.4229889V.43066407H.24598694V.6142578H.20399475C.20298767 .52046206 .15299988 .4226532 .050994874 .41966249V.3866577H.15699768V.12608338C.15699768 .012252808 .25099183-.0107421879 .31298829-.0107421879 .3880005-.011001587 .44400025 .04399109 .44400025 .12599182V.12608338Z"/>
<path id="font_5_50" d="M.5469971 .119155887C.5469971 .13623047 .5309906 .13623047 .526001 .13623047 .5109863 .13623047 .5089874 .1322174 .5029907 .11816406 .47499085 .049209596 .40098573 .025253296 .34498597 .025253296 .2639923 .025253296 .21899414 .07017517 .20399475 .0871582 .16499329 .13522339 .16499329 .19847107 .16499329 .22558594H.5169983C.5379944 .22558594 .5469971 .22558594 .5469971 .24957276 .5469971 .31645204 .5109863 .4482422 .32398988 .4482422 .17199707 .4482422 .06498718 .3390503 .06498718 .21984864 .06498718 .09310913 .18699646-.0107421879 .33898927-.0107421879 .49798585-.0107421879 .5469971 .100097659 .5469971 .11906433V.119155887M.46998597 .25585938H.16699219C.1789856 .38816834 .27598573 .41523744 .32299806 .41523744 .46199037 .41523744 .46899415 .28492738 .46998597 .25585938Z"/>
<path id="font_5_75" d="M1.0309906 0V.04399109H1.0130005C.94799807 .04399109 .94799807 .052978517 .94799807 .08395386V.3017578C.94799807 .42536927 .85398867 .4423828 .7789917 .4423828 .68099978 .4423828 .6239929 .39328004 .59599307 .34902955 .57099917 .44137574 .46899415 .4423828 .43199159 .4423828 .32899476 .4423828 .2709961 .3872528 .24598694 .34399415V.4423828L.08198547 .43066407V.3866577C.1559906 .3866577 .16499329 .3796692 .16499329 .330719V.08395386C.16499329 .052978517 .16499329 .04399109 .099990848 .04399109H.08198547V0C.125 .0029907227 .16699219 .0039978029 .20999146 .0039978029 .2519989 .0039978029 .29499818 .0029907227 .33699037 0V.04399109H.31900025C.2539978 .04399109 .2539978 .052978517 .2539978 .08395386V.25775147C.2539978 .36914063 .35598756 .40937806 .42099 .40937806 .49398805 .40937806 .5119934 .36813355 .5119934 .30274964V.08395386C.5119934 .052978517 .5119934 .04399109 .44699098 .04399109H.42900086V0C.47200013 .0029907227 .5139923 .0039978029 .5569916 .0039978029 .598999 .0039978029 .6419983 .0029907227 .6839905 0V.04399109H.66600039C.6009979 .04399109 .6009979 .052978517 .6009979 .08395386V.25775147C.6009979 .36914063 .7029877 .40937806 .7679901 .40937806 .84098818 .40937806 .85899356 .36813355 .85899356 .30274964V.08395386C.85899356 .052978517 .85899356 .04399109 .7939911 .04399109H.776001V0C.81900027 .0029907227 .86099246 .0039978029 .9039917 .0039978029 .94599917 .0039978029 .9889984 .0029907227 1.0309906 0Z"/>
<path id="font_5_66" d="M.32598878 0V.04399109C.25898744 .04399109 .25099183 .04399109 .25099183 .08403015V.4423828L.08699036 .43066407V.3866577C.1579895 .3866577 .1659851 .3796692 .1659851 .33070375V.08395386C.1659851 .052978517 .1659851 .04399109 .100997928 .04399109H.08299255V0C.12399292 .0029907227 .1659851 .0039978029 .20698548 .0039978029 .24499512 .0039978029 .2889862 .0029907227 .32598878 0M.2619934 .6000519C.2619934 .63404849 .23498535 .6610565 .20098877 .6610565 .16799927 .6610565 .13999939 .63404849 .13999939 .6000519 .13999939 .5660553 .16699219 .5390625 .20098877 .5390625 .23399353 .5390625 .2619934 .5660553 .2619934 .6000519Z"/>
<path id="font_5_47" d="M.6729889 0V.04399109C.598999 .04399109 .58999636 .050994874 .58999636 .10002136V.69433596L.42199708 .6826172V.63861086C.49598695 .63861086 .5049896 .6316376 .5049896 .5828247V.3883667C.48298646 .40737916 .42900086 .4423828 .34599305 .4423828 .19599915 .4423828 .07199097 .34135438 .07199097 .21531677 .07199097 .0942688 .18499756-.0107421879 .33399964-.0107421879 .41600038-.0107421879 .47299195 .025253296 .5009918 .04925537V-.0107421879L.6729889 0M.5009918 .10899353C.45298768 .03526306 .3789978 .022247315 .33999635 .022247315 .2899933 .022247315 .23999024 .042266847 .20698548 .08628845 .1749878 .12731934 .17199707 .18435669 .17199707 .21539307 .17199707 .24240113 .17399597 .30845643 .21699524 .3544922 .2519989 .39048768 .3039856 .40948487 .35299684 .40948487 .38198854 .40948487 .45298768 .40348817 .5009918 .33546449V.10899353Z"/>
<path id="font_5_77" d="M.68299868 0V.04399109H.6649933C.59999087 .04399109 .59999087 .052978517 .59999087 .08395386V.3017578C.59999087 .41236878 .5249939 .4423828 .43199159 .4423828 .32499696 .4423828 .2689972 .3832245 .24598694 .34399415V.4423828L.08198547 .43066407V.3866577C.1559906 .3866577 .16499329 .3796692 .16499329 .330719V.08395386C.16499329 .052978517 .16499329 .04399109 .099990848 .04399109H.08198547V0C.125 .0029907227 .16699219 .0039978029 .20999146 .0039978029 .2519989 .0039978029 .29499818 .0029907227 .33699037 0V.04399109H.31900025C.2539978 .04399109 .2539978 .052978517 .2539978 .08395386V.25775147C.2539978 .3713379 .35798646 .40937806 .41999818 .40937806 .49398805 .40937806 .5109863 .36732484 .5109863 .30326844V.08403015C.5109863 .053009035 .5109863 .04399109 .44599916 .04399109H.42799378V0C.47099305 .0029907227 .5130005 .0039978029 .55599978 .0039978029 .59799197 .0039978029 .6409912 .0029907227 .68299868 0Z"/>
<path id="font_5_59" d="M.6349945 .39611817C.6349945 .42211915 .6139984 .453125 .56599429 .453125 .5419922 .453125 .4889984 .44812013 .43598939 .40711976 .41299439 .42137147 .36799623 .4423828 .30599977 .4423828 .18798828 .4423828 .10598755 .3723755 .10598755 .29537965 .10598755 .2443695 .14299011 .2073822 .1579895 .19537354 .13398743 .16638184 .12799073 .1363678 .12799073 .11437988 .12799073 .06137085 .1619873 .028381348 .17098999 .021377564 .12098694 .007980347 .06298828-.024032593 .06298828-.077041629 .06298828-.15605164 .19499207-.20605469 .33999635-.20605469 .47399903-.20605469 .61698916-.1620636 .61698916-.075042728 .61698916-.030029297 .59098818 .017974854 .5419922 .041992189 .47499085 .074035648 .41099549 .074035648 .3039856 .074035648 .2789917 .07398987 .23498535 .07398987 .22999573 .07498169 .18199158 .08303833 .17098999 .12226868 .17098999 .14138794 .17098999 .16142273 .18099976 .1774292 .18399048 .1774292 .18399048 .1774292 .18798828 .17643738 .19099427 .1754303 .23098755 .1544342 .269989 .1484375 .30499269 .1484375 .4229889 .1484375 .5049896 .21842957 .5049896 .29542542 .5049896 .34321595 .47200013 .37817384 .45999146 .38916017 .5079956 .41812135 .5529938 .41911317 .56900027 .42012025 .56599429 .41612245 .5609894 .41012574 .5609894 .39614869 .5609894 .37617494 .57398989 .3591919 .59799197 .3591919 .621994 .3591919 .6349945 .37617494 .6349945 .39614869V.39611817M.4169922 .2952881C.4169922 .24035645 .3929901 .181427 .30599977 .181427 .21798706 .181427 .19400025 .23934937 .19400025 .2952881 .19400025 .35031129 .21798706 .40937806 .30499269 .40937806 .3929901 .40937806 .4169922 .35131837 .4169922 .29525758V.2952881M.5479889-.07701111C.5479889-.1260376 .45899964-.17306519 .33999635-.17306519 .22499085-.17306519 .13198853-.12902832 .13198853-.07600403 .13198853-.04498291 .16699219-.001953125 .24198914-.001953125H.30699159C.40699769-.001953125 .5479889-.001953125 .5479889-.07701111Z"/>
<path id="font_4_2" d="M.6619873 .3733673C.66600039 .3883667 .66600039 .39537049 .66600039 .39637757 .66600039 .41838075 .647995 .43138124 .6289978 .43138124 .58898928 .43138124 .58099368 .39637757 .57398989 .3693695L.5529938 .28633119 .5219879 .16130066C.5179901 .14828491 .5130005 .12728882 .5119934 .121276859 .5109863 .11727905 .45700074 .023254395 .37199403 .023254395 .32598878 .023254395 .2899933 .04525757 .2899933 .10928345 .2899933 .16429138 .31999208 .23731995 .34899903 .30934144 .35398866 .3213501 .36099244 .33735658 .36099244 .35435487 .36099244 .40338136 .31399537 .4423828 .2519989 .4423828 .14698792 .4423828 .09098816 .3143463 .09098816 .28733827 .09098816 .2733307 .10699463 .2733307 .11199951 .2733307 .1289978 .2733307 .12998963 .27833558 .1349945 .29333497 .1559906 .36236573 .20298767 .40837098 .24798584 .40837098 .2669983 .40837098 .27799989 .39736939 .27799989 .37036134 .27799989 .35035707 .27198792 .3363495 .2649994 .31834413 .21598816 .1993103 .20698548 .16329956 .20698548 .123291019 .20698548 .012252808 .2999878-.0107421879 .36698915-.0107421879 .42399598-.0107421879 .46598817 .01725769 .4909973 .038253786 .47698976-.01777649 .46598817-.061904909 .4189911-.10990906 .3959961-.13290406 .34899903-.17108155 .2869873-.17108155 .2689972-.17108155 .23199463-.1680603 .20899964-.14691162 .2539978-.13591004 .25898744-.09690857 .25898744-.0868988 .25898744-.057907106 .23599243-.045898439 .21499634-.045898439 .18598938-.045898439 .1519928-.06990051 .1519928-.11590576 .1519928-.16604615 .20298767-.20507813 .2869873-.20507813 .40098573-.20507813 .5359955-.12890625 .56799319-.00074768069L.6619873 .3733673Z"/>
<path id="font_5_35" d="M.6769867 .2163086C.6769867 .3363495 .56599429 .4423828 .4149933 .4423828 .36099244 .4423828 .2979889 .42837525 .24398804 .3863678V.69433596L.07598877 .68333438V.639328C.1499939 .639328 .15899658 .6323242 .15899658 .5833435V.00024414063H.20098877C.20899964 .013244629 .21699524 .027252198 .22399903 .040252687 .22698975 .04626465 .23098755 .053253175 .23498535 .059265138 .27799989 .013244629 .33898927-.0107421879 .4019928-.0107421879 .55400088-.0107421879 .6769867 .091278079 .6769867 .2163086M.57699587 .2163086C.57699587 .15829468 .56399539 .107284549 .5249939 .07026672 .49299623 .040252687 .44400025 .022247315 .3959961 .022247315 .32798768 .022247315 .27598573 .060256959 .24798584 .106277469V.3343506C.28199769 .38336183 .34799195 .40937806 .4079895 .40937806 .526001 .40937806 .57699587 .32234193 .57699587 .2163086Z"/>
<path id="font_5_112" d="M.6579895 .3866577V.43066407C.6319885 .4286499 .60598757 .426651 .57099917 .426651 .57099917 .426651 .5049896 .42765809 .46899415 .43066407V.3866577C.49598695 .3856659 .5130005 .3736725 .5130005 .350708 .5130005 .34072877 .5079956 .33073426 .5079956 .33073426L.3809967 .083114627 .24398804 .3497162C.24198914 .353714 .23899842 .35969544 .23899842 .36569215 .23899842 .3866577 .272995 .3866577 .29299928 .3866577V.43066407C.24699402 .42765809 .1749878 .426651 .16799927 .426651 .12799073 .426651 .09799194 .426651 .055999757 .43066407V.3866577C.115997318 .3866577 .12998963 .3866577 .14498902 .3567047L.32199098 .01222229C.32899476-.0017700195 .33399964-.0107421879 .35699464-.0107421879 .37998963-.0107421879 .3849945-.00076293948 .3919983 .01222229L.5529938 .3267517C.56999209 .35969544 .59599307 .3856659 .6579895 .3866577Z"/>
<path id="font_6_2" d="M.18598938 .32769776C.18699646 .37371827 .18798828 .4528656 .22399903 .51808169 .25299073 .5720825 .31799317 .628006 .41099549 .628006 .42999269 .628006 .47499085 .6260071 .5049896 .6020813 .4889984 .5980835 .46299745 .5830841 .46299745 .5490875 .46299745 .51708987 .4869995 .49609376 .5159912 .49609376 .5329895 .49609376 .56900027 .5050812 .56900027 .5520935 .56900027 .6060791 .5309906 .6660156 .4099884 .6660156 .23799134 .6660156 .07998657 .52508547 .07998657 .317688 .07998657 .078567508 .19699097-.022460938 .34298707-.022460938 .44198609-.022460938 .4889984 .014526367 .522995 .042541505 .58699038 .095565799 .59999087 .15460205 .59999087 .20463562 .59999087 .26565553 .5799866 .314682 .5279999 .36071778 .48399354 .40072633 .43798829 .42773438 .35099793 .42773438 .29299928 .42773438 .22799683 .39971925 .18598938 .32769776M.34298707 .01852417C.18899536 .01852417 .18899536 .18461609 .18899536 .2266388 .18899536 .30368043 .24398804 .39372254 .34899903 .39372254 .3999939 .39372254 .43199159 .38072206 .46299745 .34069825 .49299623 .30368043 .49398805 .2616577 .49398805 .20562744 .49398805 .14759827 .49398805 .109573367 .46199037 .06956482 .43399049 .0365448 .39898683 .01852417 .34298707 .01852417Z"/>
<path id="font_6_1" d="M.19599915 .55078127C.24899292 .53778079 .2939911 .53778079 .30499269 .53778079 .37298585 .53778079 .4229889 .55778506 .44898988 .57177737 .47299195 .583786 .54100039 .6267853 .54100039 .64878848 .54100039 .66378787 .5299988 .66578677 .5269928 .66578677 .5249939 .66578677 .522995 .66578677 .5119934 .66078189 .47399903 .6477814 .4119873 .63378909 .34599305 .63378909 .2889862 .63378909 .23399353 .64378359 .18099976 .66178897 .16999817 .66578677 .16799927 .66578677 .1659851 .66578677 .1519928 .66578677 .1519928 .6537781 .1519928 .63778689V.33763124C.1519928 .32061769 .1519928 .30760194 .17098999 .30760194 .18199158 .30760194 .18299866 .30960084 .19198609 .32061769 .22999573 .36468507 .2829895 .38671876 .35099793 .38671876 .40899659 .38671876 .44099427 .35266114 .45498658 .33163453 .47799684 .2975769 .48298646 .2525177 .48298646 .20446778 .48298646 .16246033 .47898866 .10646057 .43998719 .067489627 .394989 .021530152 .33799745 .01852417 .31599427 .01852417 .25099183 .01852417 .17799378 .04650879 .14698792 .10546875 .18899536 .10845947 .20298767 .13845825 .20298767 .1614685 .20298767 .19346619 .1789856 .21746826 .14698792 .21746826 .125 .21746826 .09098816 .20446778 .09098816 .15846253 .09098816 .0605011 .18699646-.022460938 .31799317-.022460938 .46699525-.022460938 .58898928 .07748413 .58898928 .20146179 .58898928 .3146057 .49198915 .41970826 .35299684 .41970826 .2899933 .41970826 .23899842 .40371705 .19599915 .37068177V.55078127Z"/>
<path id="font_7_1" d="M.61099246 .25C.61099246 .3841095 .5019989 .49316407 .36799623 .49316407 .23399353 .49316407 .125 .3841095 .125 .25 .125 .115875247 .23399353 .0068359377 .36799623 .0068359377 .5019989 .0068359377 .61099246 .115875247 .61099246 .25M.36799623 .06283569C.2649994 .06283569 .18099976 .14689636 .18099976 .25 .18099976 .35308839 .2649994 .43714906 .36799623 .43714906 .47099305 .43714906 .5549927 .35308839 .5549927 .25 .5549927 .14689636 .47099305 .06283569 .36799623 .06283569Z"/>
<path id="font_5_54" d="M.7839966 .44114686 .7509918 .6787567H.08299255V.6347656H.11299133C.19400025 .6347656 .19400025 .6247711 .19400025 .59384158V.08503723C.19400025 .054000856 .19400025 .04399109 .11299133 .04399109H.08299255V0L.2519989 .0039978029C.30899049 .0039978029 .3829956 .0039978029 .43899537 0V.04399109H.3959961C.2999878 .04399109 .2999878 .054000856 .2999878 .08604431V.31829835H.4119873C.5119934 .31829835 .5369873 .29527284 .5369873 .20117188H.57899478V.47906495H.5369873C.5369873 .3852539 .5119934 .3623047 .4119873 .3623047H.2999878V.5968323C.2999878 .6277771 .2999878 .6347656 .34899903 .6347656H.5149994C.673996 .6347656 .7220001 .59584048 .74198916 .44114686H.7839966Z"/>
</defs>
<path transform="matrix(1.00008,0,0,-1.00003,30.932282,127.03533)" stroke-width=".3985" stroke-linecap="butt" stroke-miterlimit="10" stroke-linejoin="miter" fill="none" stroke="#404040" d="M0 0H295.32579V125.23389H0Z"/>
<path transform="matrix(1.00008,0,0,-1.00003,30.932282,127.03533)" stroke-width=".3985" stroke-linecap="butt" stroke-miterlimit="10" stroke-linejoin="miter" fill="none" stroke="#cccccc" d="M0 0V125.23389M12.30524 0V125.23389M24.61047 0V125.23389M36.91571 0V125.23389M49.22096 0V125.23389M61.5262 0V125.23389M73.83144 0V125.23389M86.13669 0V125.23389M98.44193 0V125.23389M110.74716 0V125.23389M123.05241 0V125.23389M135.35765 0V125.23389M147.66289 0V125.23389M159.96813 0V125.23389M172.27338 0V125.23389M184.57862 0V125.23389M196.88385 0V125.23389M209.1891 0V125.23389M221.49434 0V125.23389M233.79958 0V125.23389M246.10483 0V125.23389M258.41007 0V125.23389M270.7153 0V125.23389M283.02055 0V125.23389M295.32579 0V125.23389"/>
<path transform="matrix(1.00008,0,0,-1.00003,30.932282,127.03533)" stroke-width=".3985" stroke-linecap="butt" stroke-miterlimit="10" stroke-linejoin="miter" fill="none" stroke="#cccccc" d="M24.61047 0V125.23389M49.22096 0V125.23389M73.83144 0V125.23389M98.44193 0V125.23389M123.05241 0V125.23389M147.66289 0V125.23389M172.27338 0V125.23389M196.88385 0V125.23389M221.49434 0V125.23389M246.10483 0V125.23389M270.7153 0V125.23389M295.32579 0V125.23389"/>
<path transform="matrix(1.00008,0,0,-1.00003,30.932282,127.03533)" stroke-width=".3985" stroke-linecap="butt" stroke-miterlimit="10" stroke-linejoin="miter" fill="none" stroke="#cccccc" d="M0 10.43616H295.32579M0 31.30847H295.32579M0 52.18079H295.32579M0 73.0531H295.32579M0 93.92542H295.32579M0 114.79773H295.32579"/>
<path transform="matrix(1.00008,0,0,-1.00003,30.932282,127.03533)" stroke-width=".3985" stroke-linecap="butt" stroke-miterlimit="10" stroke-linejoin="miter" fill="none" stroke="#cccccc" d="M0 20.87231H295.32579M0 41.74463H295.32579M0 83.48926H295.32579M0 104.36157H295.32579"/>
<path transform="matrix(1.00008,0,0,-1.00003,30.932282,127.03533)" stroke-width=".19925" stroke-linecap="butt" stroke-miterlimit="10" stroke-linejoin="miter" fill="none" stroke="#7f807f" d="M0 61.19948V64.03441M12.30524 61.19948V64.03441M24.61047 61.19948V64.03441M36.91571 61.19948V64.03441M49.22096 61.19948V64.03441M61.5262 61.19948V64.03441M73.83144 61.19948V64.03441M86.13669 61.19948V64.03441M98.44193 61.19948V64.03441M110.74716 61.19948V64.03441M123.05241 61.19948V64.03441M135.35765 61.19948V64.03441M147.66289 61.19948V64.03441M159.96813 61.19948V64.03441M172.27338 61.19948V64.03441M184.57862 61.19948V64.03441M196.88385 61.19948V64.03441M209.1891 61.19948V64.03441M221.49434 61.19948V64.03441M233.79958 61.19948V64.03441M246.10483 61.19948V64.03441M258.41007 61.19948V64.03441M270.7153 61.19948V64.03441M283.02055 61.19948V64.03441M295.32579 61.19948V64.03441"/>
<path transform="matrix(1.00008,0,0,-1.00003,30.932282,127.03533)" stroke-width=".19925" stroke-linecap="butt" stroke-miterlimit="10" stroke-linejoin="miter" fill="none" stroke="#7f807f" d="M24.61047 60.49097V64.7429M49.22096 60.49097V64.7429M73.83144 60.49097V64.7429M98.44193 60.49097V64.7429M123.05241 60.49097V64.7429M147.66289 60.49097V64.7429M172.27338 60.49097V64.7429M196.88385 60.49097V64.7429M221.49434 60.49097V64.7429M246.10483 60.49097V64.7429M270.7153 60.49097V64.7429M295.32579 60.49097V64.7429"/>
<path transform="matrix(1.00008,0,0,-1.00003,30.932282,127.03533)" stroke-width=".19925" stroke-linecap="butt" stroke-miterlimit="10" stroke-linejoin="miter" fill="none" stroke="#7f807f" d="M-1.41765 10.43616H1.41766M-1.41765 31.30847H1.41766M-1.41765 52.18079H1.41766M-1.41765 73.0531H1.41766M-1.41765 93.92542H1.41766M-1.41765 114.79773H1.41766"/>
<path transform="matrix(1.00008,0,0,-1.00003,30.932282,127.03533)" stroke-width=".19925" stroke-linecap="butt" stroke-miterlimit="10" stroke-linejoin="miter" fill="none" stroke="#7f807f" d="M-2.1263 20.87231H2.1263M-2.1263 41.74463H2.1263M-2.1263 83.48926H2.1263M-2.1263 104.36157H2.1263"/>
<path transform="matrix(1.00008,0,0,-1.00003,30.932282,127.03533)" stroke-width=".3985" stroke-linecap="butt" stroke-miterlimit="10" stroke-linejoin="miter" fill="none" stroke="#000000" d="M0 62.61694H293.33329"/>
<path transform="matrix(1.00008,0,0,-1.00003,324.28904,64.41651)" d="M1.99252 0-1.19551 1.59401 0 0-1.19551-1.59401"/>
<path transform="matrix(1.00008,0,0,-1.00003,30.932282,127.03533)" stroke-width=".3985" stroke-linecap="butt" stroke-miterlimit="10" stroke-linejoin="miter" fill="none" stroke="#000000" d="M0 0V123.24136"/>
<path transform="matrix(0,-1.00003,-1.00008,-0,30.932282,3.790268)" d="M1.99252 0-1.19551 1.59401 0 0-1.19551-1.59401"/>
<use data-text="2" xlink:href="#font_1_3" transform="matrix(9.963397,0,0,-9.962899,53.054056,76.48282)"/>
<use data-text="4" xlink:href="#font_1_4" transform="matrix(9.963397,0,0,-9.962899,77.666019,76.48282)"/>
<use data-text="6" xlink:href="#font_1_5" transform="matrix(9.963397,0,0,-9.962899,102.27899,76.48282)"/>
<use data-text="8" xlink:href="#font_1_6" transform="matrix(9.963397,0,0,-9.962899,126.89095,76.48282)"/>
<use data-text="1" xlink:href="#font_1_2" transform="matrix(9.963397,0,0,-9.962899,149.01273,76.48282)"/>
<use data-text="0" xlink:href="#font_1_1" transform="matrix(9.963397,0,0,-9.962899,153.99442,76.48282)"/>
<use data-text="1" xlink:href="#font_1_2" transform="matrix(9.963397,0,0,-9.962899,173.6247,76.48282)"/>
<use data-text="2" xlink:href="#font_1_3" transform="matrix(9.963397,0,0,-9.962899,178.60639,76.48282)"/>
<use data-text="1" xlink:href="#font_1_2" transform="matrix(9.963397,0,0,-9.962899,198.23767,76.48282)"/>
<use data-text="4" xlink:href="#font_1_4" transform="matrix(9.963397,0,0,-9.962899,203.21936,76.48282)"/>
<use data-text="1" xlink:href="#font_1_2" transform="matrix(9.963397,0,0,-9.962899,222.84963,76.48282)"/>
<use data-text="6" xlink:href="#font_1_5" transform="matrix(9.963397,0,0,-9.962899,227.83132,76.48282)"/>
<use data-text="1" xlink:href="#font_1_2" transform="matrix(9.963397,0,0,-9.962899,247.4626,76.48282)"/>
<use data-text="8" xlink:href="#font_1_6" transform="matrix(9.963397,0,0,-9.962899,252.44429,76.48282)"/>
<use data-text="2" xlink:href="#font_1_3" transform="matrix(9.963397,0,0,-9.962899,272.0746,76.48282)"/>
<use data-text="0" xlink:href="#font_1_1" transform="matrix(9.963397,0,0,-9.962899,277.05628,76.48282)"/>
<use data-text="2" xlink:href="#font_1_3" transform="matrix(9.963397,0,0,-9.962899,296.68757,76.48282)"/>
<use data-text="2" xlink:href="#font_1_3" transform="matrix(9.963397,0,0,-9.962899,301.66926,76.48282)"/>
<use data-text="2" xlink:href="#font_1_3" transform="matrix(9.963397,0,0,-9.962899,321.2995,76.48282)"/>
<use data-text="4" xlink:href="#font_1_4" transform="matrix(9.963397,0,0,-9.962899,326.2812,76.48282)"/>
<use data-text="&#x2212;" xlink:href="#font_2_1" transform="matrix(9.963397,0,0,-9.962899,12.55481,108.95779)"/>
<use data-text="4" xlink:href="#font_1_4" transform="matrix(9.963397,0,0,-9.962899,20.304429,108.95779)"/>
<use data-text="&#x2212;" xlink:href="#font_2_1" transform="matrix(9.963397,0,0,-9.962899,12.55481,88.08416)"/>
<use data-text="2" xlink:href="#font_1_3" transform="matrix(9.963397,0,0,-9.962899,20.304429,88.08416)"/>
<use data-text="2" xlink:href="#font_1_3" transform="matrix(9.963397,0,0,-9.962899,20.304429,46.75392)"/>
<use data-text="4" xlink:href="#font_1_4" transform="matrix(9.963397,0,0,-9.962899,20.304429,25.881295)"/>
<g clip-path="url(#clip_3)">
<path transform="matrix(1.00008,0,0,-1.00003,30.932282,127.03533)" stroke-width="1.49442" stroke-linecap="butt" stroke-miterlimit="10" stroke-linejoin="miter" fill="none" stroke="#1414cc" d="M0 31.30847H.30916 .61835 .9275 1.2367 1.54588 1.85504 2.16422 2.47339 2.78258 3.09175 3.40092 3.71011 4.01927 4.32845 4.63765 4.94681 5.25598 5.56517 5.87434 6.18352 6.49269 6.80188 7.11104 7.42021 7.7294 8.03857 8.34775 8.65692 8.96611 9.27528 9.58446 9.89363 10.2028 10.512 10.82117 11.13034 11.43951 11.74869 12.05786 12.36705 12.67622 12.9854 13.29457 13.60376 13.91293 14.22209 14.5313 14.84045 15.14963 15.4588 15.76799 16.07716 16.38632 16.69553 17.0047 17.31386 17.62305 17.93222 18.2414 18.55057 18.85976 19.16893 19.47809 19.78728 20.09647 20.40562 20.71481 21.02397 21.33316 21.64233 21.9515 22.2607 22.56985 22.87904 23.18822 23.49739 23.80658 24.11574 24.42493 24.7341 25.04327 25.35245 25.66162 25.97081 26.27998 26.58916 26.89833 27.2075 27.51668 27.82587 28.13504 28.44421 28.75337 29.06258 29.37175 29.68091 29.99011 30.29927 30.60844 30.91762 31.2268 31.53598 31.84514 32.15434 32.46352 32.77267 33.08186 33.39105 33.70021 34.00938 34.31856 34.62775 34.9369 35.2461 35.55528 35.86444 36.17363 36.4828 36.79198 37.10115 37.41032 37.71951 38.02867 38.33786 38.64703 38.9562 39.26538 39.57457 39.88373 40.19292 40.50209 40.81126 41.12044 41.42963 41.7388 42.04796 42.35715 42.66634 42.9755 43.28468 43.59386 43.90303 44.21219 44.5214 44.83057 45.13972 45.44891 45.7581 46.06726 46.37643 46.68562 46.9948 47.30396 47.61314 47.92233 48.23149 48.54066 48.84987 49.15903 49.4682 49.77737 50.08656 50.39572 50.70491 51.0141 51.32326 51.63243 51.94162 52.2508 52.55997 52.86914 53.17831 53.48749 53.79668 54.10585 54.41502 54.7242 55.03339 55.34254 55.65173 55.9609 56.27008 56.57925 56.88844 57.19762 57.50677 57.81596 58.12515 58.43431 58.7435 59.05267 59.36185 59.671 59.98021 60.28938 60.59854 60.90771 61.21692 61.52608"/>
<path transform="matrix(1.00008,0,0,-1.00003,30.932282,127.03533)" stroke-width="1.49442" stroke-linecap="butt" stroke-miterlimit="10" stroke-linejoin="miter" fill="none" stroke="#1414cc" d="M61.5262 31.30847 61.64986 31.57066 61.77353 31.83287 61.89719 32.09508 62.02086 32.35728 62.14455 32.61949 62.26819 32.88168 62.39186 33.14389 62.51552 33.40611 62.63919 33.66832 62.76285 33.93053 62.88652 34.19272 63.01021 34.45493 63.13385 34.71713 63.25752 34.97934 63.38118 35.24153 63.50485 35.50375 63.62851 35.76596 63.75218 36.02817 63.87587 36.29037 63.99951 36.55257 64.12318 36.81477 64.24687 37.07698 64.37051 37.3392 64.49419 37.6014 64.61784 37.8636 64.74153 38.12581 64.86517 38.38802 64.98885 38.65022 65.11253 38.91241 65.23618 39.17464 65.35985 39.43684 65.48352 39.69905 65.6072 39.96126 65.73083 40.22345 65.85452 40.48566 65.9782 40.74786 66.10184 41.01007 66.22551 41.27228 66.3492 41.53448 66.47285 41.79669 66.59651 42.0589 66.72018 42.3211 66.84386 42.5833 66.9675 42.8455 67.09117 43.10773 67.21486 43.36993 67.3385 43.63213 67.46217 43.89433 67.58585 44.15654 67.70952 44.41875 67.83316 44.68095 67.95685 44.94315 68.08052 45.20537 68.20416 45.46758 68.32785 45.72978 68.45152 45.99199 68.57518 46.25418 68.69884 46.51639 68.82251 46.7786 68.94618 47.04082 69.06982 47.30301 69.19351 47.56522 69.31718 47.82742 69.44084 48.08963 69.56451 48.35184 69.68817 48.61403 69.81184 48.87624 69.93549 49.13846 70.05917 49.40067 70.18285 49.66286 70.3065 49.92506 70.43018 50.18727 70.55383 50.44948 70.6775 50.71169 70.80116 50.97389 70.92484 51.2361 71.04851 51.4983 71.17216 51.76051 71.29584 52.02272 71.41951 52.28491 71.54317 52.54712 71.66684 52.80934 71.7905 53.07155 71.91417 53.33374 72.03786 53.59595 72.1615 53.85815 72.28517 54.12036 72.40883 54.38257 72.5325 54.64476 72.65616 54.90698 72.77983 55.16919 72.90352 55.4314 73.02716 55.69359 73.15083 55.9558 73.27449 56.218 73.39816 56.48021 73.52184 56.74243 73.6455 57.00462 73.76918 57.26683 73.89282 57.52904 74.0165 57.79123 74.14018 58.05347 74.26382 58.31566 74.3875 58.57785 74.51115 58.84004 74.63484 59.10228 74.75848 59.36447 74.88216 59.62666 75.00584 59.8889 75.12949 60.1511 75.25316 60.4133 75.37685 60.67552 75.5005 60.93771 75.62416 61.1999 75.74782 61.46211 75.8715 61.72433 75.99515 61.98653 76.11882 62.24872 76.24251 62.51096 76.36617 62.77316 76.48982 63.03534 76.6135 63.29758 76.73717 63.55977 76.86081 63.82198 76.98448 64.08417 77.10817 64.34639 77.23183 64.60858 77.35548 64.87079 77.47916 65.13303 77.60283 65.3952 77.72649 65.6574 77.85016 65.91963 77.97383 66.18184 78.09749 66.44403 78.22116 66.70625 78.34483 66.96844 78.46849 67.23065 78.59215 67.49284 78.71582 67.75507 78.8395 68.01726 78.96313 68.27946 79.08682 68.5417 79.2105 68.8039 79.33415 69.06607 79.45782 69.32831 79.58148 69.59052 79.70515 69.8527 79.82881 70.1149 79.95248 70.37712 80.07616 70.63933 80.19981 70.90152 80.32349 71.16376 80.44716 71.42593 80.57082 71.68814 80.69447 71.95033 80.81815 72.21257 80.94182 72.47476 81.06548 72.73695 81.18915 72.99919 81.31282 73.26138 81.43648 73.52357 81.56015 73.7858 81.6838 74.048 81.80748 74.3102 81.93117 74.57243 82.05481 74.83463 82.17848 75.09682 82.30214 75.35901 82.42581 75.62125 82.54948 75.88344 82.67314 76.14565 82.79683 76.40787 82.92047 76.67006 83.04414 76.93225 83.1678 77.19446 83.29147 77.45668 83.41515 77.71887 83.5388 77.98106 83.66249 78.2433 83.78613 78.50551 83.9098 78.76768 84.0335 79.02992 84.15714 79.29211 84.2808 79.55432 84.40446 79.8165 84.52815 80.07874 84.65181 80.34093 84.77547 80.60313 84.89915 80.86537 85.0228 81.12755 85.14647 81.38974 85.27016 81.65198 85.39381 81.91418 85.51747 82.17638 85.64114 82.4386 85.76482 82.70079 85.88846 82.963 86.01213 83.22519 86.13582 83.48741"/>
<path transform="matrix(1.00008,0,0,-1.00003,30.932282,127.03533)" stroke-width="1.49442" stroke-linecap="butt" stroke-miterlimit="10" stroke-linejoin="miter" fill="none" stroke="#1414cc" d="M86.13669 83.48926H86.94054 87.74438 88.54823 89.35208 90.15593 90.95978 91.76363 92.56749 93.37134 94.17519 94.97903 95.78288 96.58673 97.3906 98.19446 98.9983 99.80215 100.606 101.40985 102.2137 103.01755 103.8214 104.62526 105.42911 106.23296 107.0368 107.84065 108.64452 109.44836 110.25221 111.05608 111.85992 112.66377 113.46762 114.27147 115.07532 115.87917 116.68301 117.48688 118.29073 119.09457 119.89844 120.70229 121.50613 122.30998 123.11383 123.9177 124.72154 125.52539 126.32924 127.13309 127.93694 128.74079 129.54463 130.3485 131.15236 131.9562 132.76006 133.5639 134.36775 135.1716 135.97545 136.77931 137.58316 138.38701 139.19086 139.9947 140.79856 141.6024 142.40628 143.21013 144.01398 144.81783 145.62168 146.42552 147.22937 148.03322 148.83708 149.64093 150.44478 151.24863 152.05248 152.85633 153.66019 154.46404 155.2679 156.07175 156.8756 157.67945 158.48329 159.28714 160.09099 160.89484 161.6987 162.50255 163.3064 164.11026 164.91411 165.71796 166.5218 167.32566 168.12952 168.93337 169.73722 170.54106 171.34491 172.14876 172.9526 173.75646 174.56032 175.36418 176.16803 176.97188 177.77573 178.57958 179.38343 180.18727 180.99114 181.79499 182.59883 183.40268 184.20653 185.01038 185.81423 186.6181 187.42195 188.2258 189.02965 189.8335 190.63735 191.4412 192.24504 193.0489 193.85276 194.6566 195.46045 196.2643 197.06815 197.87201 198.67586 199.47972 200.28357 201.08742 201.89127 202.69512 203.49897 204.30281 205.10666 205.91053 206.71437 207.51822 208.32207 209.12593 209.92978 210.73363 211.53748 212.34134 213.14519 213.94904 214.75289 215.55673 216.36058 217.16443 217.96828 218.77214 219.57599 220.37985 221.1837 221.98755 222.7914 223.59525 224.39911 225.20296 226.0068 226.81066 227.6145 228.41835 229.2222 230.02605 230.82991 231.63378 232.43762 233.24147 234.04532 234.84917 235.65302 236.45687 237.26073 238.06458 238.86843 239.67227 240.47612 241.27997 242.08383 242.88768 243.69155 244.49539 245.29924 246.10309"/>
<path transform="matrix(1.00008,0,0,-1.00003,30.932282,127.03533)" stroke-width="1.49442" stroke-linecap="butt" stroke-miterlimit="10" stroke-linejoin="miter" fill="none" stroke="#1414cc" d="M246.10483 83.48926 246.35214 83.22705 246.59946 82.96486 246.84679 82.70267 247.0941 82.44048 247.34143 82.17828 247.58875 81.91609 247.83608 81.65388 248.08339 81.39171 248.3307 81.1295 248.57804 80.86731 248.82535 80.6051 249.07268 80.34293 249.31999 80.08073 249.56732 79.81854 249.81464 79.55634 250.06195 79.29414 250.30928 79.03195 250.5566 78.76976 250.80393 78.50757 251.05124 78.24536 251.29857 77.98318 251.54589 77.721 251.7932 77.4588 252.04053 77.1966 252.28784 76.9344 252.53517 76.67221 252.78249 76.41002 253.02982 76.14781 253.27715 75.88564 253.52446 75.62343 253.77179 75.36125 254.0191 75.09904 254.26644 74.83685 254.51375 74.57466 254.76107 74.31247 255.00839 74.05028 255.2557 73.78809 255.50304 73.5259 255.75035 73.26369 255.99768 73.00151 256.245 72.7393 256.4923 72.47711 256.73966 72.2149 256.98695 71.95273 257.23429 71.69052 257.4816 71.42834 257.72895 71.16614 257.97624 70.90395 258.22358 70.64174 258.4709 70.37956 258.7182 70.11737 258.9655 69.85516 259.21284 69.59297 259.46018 69.3308 259.7075 69.06859 259.95484 68.8064 260.20216 68.5442 260.44947 68.282 260.6968 68.01982 260.9441 67.75763 261.19145 67.49542 261.43876 67.23323 261.68608 66.97104 261.9334 66.70885 262.18074 66.44666 262.42805 66.18445 262.67536 65.92226 262.92268 65.66008 263.17 65.39787 263.4173 65.13568 263.66465 64.87349 263.91197 64.61128 264.1593 64.3491 264.4066 64.08691 264.65394 63.8247 264.90126 63.56252 265.14857 63.30032 265.3959 63.03813 265.6432 62.77594 265.89054 62.51375 266.13786 62.25154 266.3852 61.98936 266.63249 61.72717 266.87983 61.46497 267.12715 61.20277 267.37449 60.94058 267.6218 60.67839 267.8691 60.4162 268.11647 60.15399 268.36375 59.8918 268.61109 59.62961 268.8584 59.36742 269.1057 59.10522 269.35304 58.84303 269.60038 58.58083 269.8477 58.31865 270.095 58.05646 270.34233 57.79425 270.58967 57.53206 270.83699 57.26987 271.0843 57.00768 271.3316 56.74548 271.57893 56.48329 271.82627 56.22108 272.07356 55.95891 272.3209 55.69672 272.5682 55.43451 272.81556 55.17232 273.06285 54.91011 273.31019 54.64793 273.5575 54.38574 273.8048 54.12354 274.05216 53.86134 274.29948 53.59915 274.5468 53.33696 274.7941 53.07477 275.04145 52.81258 275.28877 52.55037 275.53608 52.2882 275.7834 52.026 276.03074 51.7638 276.27806 51.5016 276.52537 51.23941 276.7727 50.97722 277.02 50.71503 277.26734 50.45284 277.51466 50.19063 277.76197 49.92844 278.0093 49.66626 278.2566 49.40405 278.50395 49.14186 278.75126 48.87965 278.99858 48.61748 279.2459 48.35529 279.49324 48.09308 279.74055 47.83089 279.98786 47.5687 280.23518 47.3065 280.4825 47.04431 280.72984 46.78212 280.97718 46.51991 281.22447 46.25772 281.4718 45.99554 281.71913 45.73334 281.96647 45.47115 282.21376 45.20895 282.46107 44.94676 282.7084 44.68457 282.95573 44.42238 283.20307 44.16017 283.45036 43.89798 283.6977 43.63579 283.945 43.3736 284.19233 43.1114 284.43965 42.8492 284.68699 42.587 284.9343 42.32483 285.1816 42.06262 285.42897 41.80043 285.67625 41.53824 285.92359 41.27605 286.1709 41.01385 286.4182 40.75166 286.66554 40.48946 286.91288 40.22726 287.1602 39.96509 287.40754 39.70288 287.65483 39.44069 287.90217 39.1785 288.14949 38.91629 288.3968 38.65411 288.64414 38.39192 288.89146 38.12971 289.13877 37.86752 289.38609 37.60533 289.6334 37.34314 289.8807 37.08095 290.12806 36.81874 290.37538 36.55655 290.6227 36.29437 290.87 36.03217 291.1173 35.76997 291.36466 35.50778 291.61198 35.24557 291.8593 34.9834 292.1066 34.7212 292.35395 34.459 292.60127 34.19681 292.84858 33.93463 293.0959 33.67242 293.34324 33.41023 293.59056 33.14804 293.83787 32.88583 294.0852 32.62366 294.33253 32.36145 294.57984 32.09926 294.82716 31.83707 295.0745 31.57486 295.3218 31.31268"/>
</g>
<path transform="matrix(1.00008,0,0,-1.00003,30.932282,127.03533)" d="M1.99255 31.30847C1.99255 32.40894 1.10046 33.30103 0 33.30103-1.10046 33.30103-1.99255 32.40894-1.99255 31.30847-1.99255 30.208-1.10046 29.31592 0 29.31592 1.10046 29.31592 1.99255 30.208 1.99255 31.30847ZM0 31.30847" fill="#1414cc"/>
<path transform="matrix(1.00008,0,0,-1.00003,30.932282,127.03533)" stroke-width=".99628" stroke-linecap="butt" stroke-miterlimit="10" stroke-linejoin="miter" fill="none" stroke="#1414cc" d="M1.99255 31.30847C1.99255 32.40894 1.10046 33.30103 0 33.30103-1.10046 33.30103-1.99255 32.40894-1.99255 31.30847-1.99255 30.208-1.10046 29.31592 0 29.31592 1.10046 29.31592 1.99255 30.208 1.99255 31.30847ZM0 31.30847"/>
<path transform="matrix(1.00008,0,0,-1.00003,30.932282,127.03533)" d="M63.51875 31.30847C63.51875 32.40894 62.62666 33.30103 61.5262 33.30103 60.42574 33.30103 59.53365 32.40894 59.53365 31.30847 59.53365 30.208 60.42574 29.31592 61.5262 29.31592 62.62666 29.31592 63.51875 30.208 63.51875 31.30847ZM61.5262 31.30847" fill="#1414cc"/>
<path transform="matrix(1.00008,0,0,-1.00003,30.932282,127.03533)" stroke-width=".99628" stroke-linecap="butt" stroke-miterlimit="10" stroke-linejoin="miter" fill="none" stroke="#1414cc" d="M63.51875 31.30847C63.51875 32.40894 62.62666 33.30103 61.5262 33.30103 60.42574 33.30103 59.53365 32.40894 59.53365 31.30847 59.53365 30.208 60.42574 29.31592 61.5262 29.31592 62.62666 29.31592 63.51875 30.208 63.51875 31.30847ZM61.5262 31.30847"/>
<path transform="matrix(1.00008,0,0,-1.00003,30.932282,127.03533)" d="M88.12924 83.48926C88.12924 84.58972 87.23715 85.48181 86.13669 85.48181 85.03621 85.48181 84.14413 84.58972 84.14413 83.48926 84.14413 82.3888 85.03621 81.4967 86.13669 81.4967 87.23715 81.4967 88.12924 82.3888 88.12924 83.48926ZM86.13669 83.48926" fill="#1414cc"/>
<path transform="matrix(1.00008,0,0,-1.00003,30.932282,127.03533)" stroke-width=".99628" stroke-linecap="butt" stroke-miterlimit="10" stroke-linejoin="miter" fill="none" stroke="#1414cc" d="M88.12924 83.48926C88.12924 84.58972 87.23715 85.48181 86.13669 85.48181 85.03621 85.48181 84.14413 84.58972 84.14413 83.48926 84.14413 82.3888 85.03621 81.4967 86.13669 81.4967 87.23715 81.4967 88.12924 82.3888 88.12924 83.48926ZM86.13669 83.48926"/>
<path transform="matrix(1.00008,0,0,-1.00003,30.932282,127.03533)" d="M248.09738 83.48926C248.09738 84.58972 247.20529 85.48181 246.10483 85.48181 245.00435 85.48181 244.11228 84.58972 244.11228 83.48926 244.11228 82.3888 245.00435 81.4967 246.10483 81.4967 247.20529 81.4967 248.09738 82.3888 248.09738 83.48926ZM246.10483 83.48926" fill="#1414cc"/>
<path transform="matrix(1.00008,0,0,-1.00003,30.932282,127.03533)" stroke-width=".99628" stroke-linecap="butt" stroke-miterlimit="10" stroke-linejoin="miter" fill="none" stroke="#1414cc" d="M248.09738 83.48926C248.09738 84.58972 247.20529 85.48181 246.10483 85.48181 245.00435 85.48181 244.11228 84.58972 244.11228 83.48926 244.11228 82.3888 245.00435 81.4967 246.10483 81.4967 247.20529 81.4967 248.09738 82.3888 248.09738 83.48926ZM246.10483 83.48926"/>
<path transform="matrix(1.00008,0,0,-1.00003,30.932282,127.03533)" d="M297.31834 31.30847C297.31834 32.40894 296.42625 33.30103 295.32579 33.30103 294.2253 33.30103 293.33326 32.40894 293.33326 31.30847 293.33326 30.208 294.2253 29.31592 295.32579 29.31592 296.42625 29.31592 297.31834 30.208 297.31834 31.30847ZM295.32579 31.30847" fill="#1414cc"/>
<path transform="matrix(1.00008,0,0,-1.00003,30.932282,127.03533)" stroke-width=".99628" stroke-linecap="butt" stroke-miterlimit="10" stroke-linejoin="miter" fill="none" stroke="#1414cc" d="M297.31834 31.30847C297.31834 32.40894 296.42625 33.30103 295.32579 33.30103 294.2253 33.30103 293.33326 32.40894 293.33326 31.30847 293.33326 30.208 294.2253 29.31592 295.32579 29.31592 296.42625 29.31592 297.31834 30.208 297.31834 31.30847ZM295.32579 31.30847"/>
<path transform="matrix(1.00008,0,0,-1.00003,30.932282,127.03533)" d="" fill="#1414cc"/>
<path transform="matrix(1.00008,0,0,-1.00003,30.932282,127.03533)" stroke-width=".99628" stroke-linecap="butt" stroke-miterlimit="10" stroke-linejoin="miter" fill="none" stroke="#1414cc" d=""/>
<use data-text="t" xlink:href="#font_4_1" transform="matrix(4.9816987,0,0,-4.9814498,144.20835,137.86167)"/>
<use data-text="," xlink:href="#font_5_45" transform="matrix(4.9816987,0,0,-4.9814498,147.01657,137.86167)"/>
<use data-text="h" xlink:href="#font_5_63" transform="matrix(4.9816987,0,0,-4.9814498,151.37056,137.86167)"/>
<use data-text="o" xlink:href="#font_5_81" transform="matrix(4.9816987,0,0,-4.9814498,155.10684,137.86167)"/>
<use data-text="u" xlink:href="#font_5_109" transform="matrix(4.9816987,0,0,-4.9814498,158.49939,137.86167)"/>
<use data-text="r" xlink:href="#font_5_96" transform="matrix(4.9816987,0,0,-4.9814498,162.23566,137.86167)"/>
<use data-text="s" xlink:href="#font_5_98" transform="matrix(4.9816987,0,0,-4.9814498,164.93575,137.86167)"/>
<use data-text="a" xlink:href="#font_5_28" transform="matrix(4.9816987,0,0,-4.9814498,170.02207,137.86167)"/>
<use data-text="f" xlink:href="#font_5_55" transform="matrix(4.9816987,0,0,-4.9814498,173.41461,137.86167)"/>
<use data-text="t" xlink:href="#font_5_105" transform="matrix(4.9816987,0,0,-4.9814498,175.59659,137.86167)"/>
<use data-text="e" xlink:href="#font_5_50" transform="matrix(4.9816987,0,0,-4.9814498,178.29668,137.86167)"/>
<use data-text="r" xlink:href="#font_5_96" transform="matrix(4.9816987,0,0,-4.9814498,181.3405,137.86167)"/>
<use data-text="m" xlink:href="#font_5_75" transform="matrix(4.9816987,0,0,-4.9814498,186.39194,137.86167)"/>
<use data-text="i" xlink:href="#font_5_66" transform="matrix(4.9816987,0,0,-4.9814498,191.86185,137.86167)"/>
<use data-text="d" xlink:href="#font_5_47" transform="matrix(4.9816987,0,0,-4.9814498,193.86946,137.86167)"/>
<use data-text="n" xlink:href="#font_5_77" transform="matrix(4.9816987,0,0,-4.9814498,197.60575,137.86167)"/>
<use data-text="i" xlink:href="#font_5_66" transform="matrix(4.9816987,0,0,-4.9814498,201.34201,137.86167)"/>
<use data-text="g" xlink:href="#font_5_59" transform="matrix(4.9816987,0,0,-4.9814498,203.34964,137.86167)"/>
<use data-text="h" xlink:href="#font_5_63" transform="matrix(4.9816987,0,0,-4.9814498,206.74219,137.86167)"/>
<use data-text="t" xlink:href="#font_5_105" transform="matrix(4.9816987,0,0,-4.9814498,210.30908,137.86167)"/>
<use data-text="y" xlink:href="#font_4_2" transform="matrix(0,-4.9814498,-4.9816987,-0,5.68425,97.09744)"/>
<use data-text="," xlink:href="#font_5_45" transform="matrix(0,-4.9814498,-4.9816987,-0,5.68425,93.27933)"/>
<use data-text="d" xlink:href="#font_5_47" transform="matrix(0,-4.9814498,-4.9816987,-0,5.68425,88.92555)"/>
<use data-text="e" xlink:href="#font_5_50" transform="matrix(0,-4.9814498,-4.9816987,-0,5.68425,85.18945)"/>
<use data-text="g" xlink:href="#font_5_59" transform="matrix(0,-4.9814498,-4.9816987,-0,5.68425,82.14578)"/>
<use data-text="r" xlink:href="#font_5_96" transform="matrix(0,-4.9814498,-4.9816987,-0,5.68425,78.74844)"/>
<use data-text="e" xlink:href="#font_5_50" transform="matrix(0,-4.9814498,-4.9816987,-0,5.68425,76.04849)"/>
<use data-text="e" xlink:href="#font_5_50" transform="matrix(0,-4.9814498,-4.9816987,-0,5.68425,73.00482)"/>
<use data-text="s" xlink:href="#font_5_98" transform="matrix(0,-4.9814498,-4.9816987,-0,5.68425,69.96115)"/>
<use data-text="a" xlink:href="#font_5_28" transform="matrix(0,-4.9814498,-4.9816987,-0,5.68425,64.87508)"/>
<use data-text="b" xlink:href="#font_5_35" transform="matrix(0,-4.9814498,-4.9816987,-0,5.68425,61.48271)"/>
<use data-text="o" xlink:href="#font_5_81" transform="matrix(0,-4.9814498,-4.9816987,-0,5.68425,57.572267)"/>
<use data-text="v" xlink:href="#font_5_112" transform="matrix(0,-4.9814498,-4.9816987,-0,5.68425,54.34926)"/>
<use data-text="e" xlink:href="#font_5_50" transform="matrix(0,-4.9814498,-4.9816987,-0,5.68425,50.96187)"/>
<use data-text="6" xlink:href="#font_6_2" transform="matrix(0,-4.9814498,-4.9816987,-0,5.68425,45.5719)"/>
<use data-text="5" xlink:href="#font_6_1" transform="matrix(0,-4.9814498,-4.9816987,-0,5.68425,42.184526)"/>
<use data-text="&#x25e6;" xlink:href="#font_7_1" transform="matrix(0,-4.9814498,-4.9816987,-0,3.673088,38.791704)"/>
<use data-text="F" xlink:href="#font_5_54" transform="matrix(0,-4.9814498,-4.9816987,-0,5.68425,34.626588)"/>
</svg>
