<svg xmlns="http://www.w3.org/2000/svg" xmlns:xlink="http://www.w3.org/1999/xlink" xmlns:inkscape="http://www.inkscape.org/namespaces/inkscape" version="1.1" width="157" height="157" viewBox="0 0 157 157">
<defs>
<path id="font_1_1" d="M.6589966 .23046875C.6759949 .23046875 .69400027 .23046875 .69400027 .25045777 .69400027 .27046205 .6759949 .27046205 .6589966 .27046205H.117996219C.100997928 .27046205 .08299255 .27046205 .08299255 .25045777 .08299255 .23046875 .100997928 .23046875 .117996219 .23046875H.6589966Z"/>
<path id="font_2_3" d="M.13198853 .327713V.35173036C.13198853 .6047821 .2559967 .64100649 .30699159 .64100649 .33099366 .64100649 .37298585 .634964 .394989 .6007538 .37998963 .6007538 .33999635 .6007538 .33999635 .5557556 .33999635 .524765 .3639984 .5097656 .38598634 .5097656 .4019928 .5097656 .43199159 .51875308 .43199159 .5577545 .43199159 .6178589 .3880005 .6660156 .30499269 .6660156 .1769867 .6660156 .041992189 .5367584 .041992189 .31570436 .041992189 .048553468 .1579895-.022460938 .25099183-.022460938 .3619995-.022460938 .45700074 .07156372 .45700074 .2036438 .45700074 .33070375 .36799623 .4267578 .25698854 .4267578 .18899536 .4267578 .1519928 .37573243 .13198853 .327713M.25099183 .0055389406C.18798828 .0055389406 .1579895 .06556702 .1519928 .080566409 .13398743 .127594 .13398743 .2076416 .13398743 .22564698 .13398743 .30369569 .1659851 .40374757 .2559967 .40374757 .27198792 .40374757 .31799317 .40374757 .34899903 .34172059 .36698915 .30470277 .36698915 .2536621 .36698915 .20463562 .36698915 .15661621 .36698915 .10658264 .34999085 .0705719 .31999208 .010528564 .27398683 .0055389406 .25099183 .0055389406Z"/>
<path id="font_2_2" d="M.2939911 .16503906V.07800293C.2939911 .041992189 .2919922 .0309906 .21798706 .0309906H.19699097V0C.23799134 .0029907227 .2899933 .0029907227 .33198548 .0029907227 .37399293 .0029907227 .4269867 .0029907227 .46798707 0V.0309906H.44699098C.37298585 .0309906 .37098695 .041992189 .37098695 .07800293V.16503906H.47099305V.19602967H.37098695V.65075686C.37098695 .67074587 .37098695 .6767578 .35499574 .6767578 .34599305 .6767578 .34298707 .6767578 .33499146 .66474917L.027999878 .19602967V.16503906H.2939911M.2999878 .19602967H.055999757L.2999878 .5688019V.19602967Z"/>
<path id="font_2_1" d="M.1269989 .07699585 .23298645 .18003845C.3889923 .31811524 .44898988 .3721466 .44898988 .47216798 .44898988 .5860901 .35899354 .6660156 .23699951 .6660156 .12399292 .6660156 .049987794 .57411196 .049987794 .48516847 .049987794 .4291687 .099990848 .4291687 .102996829 .4291687 .11999512 .4291687 .15499878 .44117738 .15499878 .48217774 .15499878 .5081787 .13699341 .5341797 .101989749 .5341797 .09399414 .5341797 .09199524 .5341797 .08898926 .5331726 .11199951 .59806826 .1659851 .63500979 .22399903 .63500979 .31498719 .63500979 .35798646 .5541382 .35798646 .47216798 .35798646 .39215089 .30799867 .31311036 .25299073 .25108338L.06098938 .036987306C.049987794 .025985718 .049987794 .023986817 .049987794 0H.42099L.44898988 .17404175H.42399598C.4189911 .14402771 .4119873 .1000061 .4019928 .084991458 .394989 .07699585 .32899476 .07699585 .30699159 .07699585H.1269989Z"/>
<clipPath id="clip_3">
<path transform="matrix(1.00003,0,0,-1.00002,2.0964967,155.3758)" d="M0 .00015H153.57646V153.57663H0Z"/>
</clipPath>
<path id="font_4_1" d="M.33399964 .30233766C.33999635 .32835389 .36299134 .42037965 .43299867 .42037965 .43798829 .42037965 .46199037 .42037965 .48298646 .40734864 .45498658 .402359 .43499757 .37734986 .43499757 .35334779 .43499757 .33735658 .44599916 .31835938 .47299195 .31835938 .49499513 .31835938 .5269928 .3363495 .5269928 .37635804 .5269928 .42837525 .46798707 .4423828 .43399049 .4423828 .37599183 .4423828 .34098817 .38935853 .32899476 .36634828 .3039856 .43237306 .25 .4423828 .22099304 .4423828 .116989139 .4423828 .05999756 .3133545 .05999756 .28834535 .05999756 .27833558 .069992069 .27833558 .07199097 .27833558 .07998657 .27833558 .08299255 .28033448 .084991458 .28933717 .11898804 .39535523 .18499756 .42037965 .21899414 .42037965 .23799134 .42037965 .272995 .4113617 .272995 .35334779 .272995 .32235719 .2559967 .25532533 .21899414 .11528015 .20298767 .053268434 .16799927 .011245728 .12399292 .011245728 .117996219 .011245728 .09498596 .011245728 .07398987 .024276734 .09899902 .029266358 .12098694 .05027771 .12098694 .07827759 .12098694 .105270389 .09899902 .11328125 .083999637 .11328125 .053985597 .11328125 .0289917 .08728027 .0289917 .055267335 .0289917 .009246826 .07899475-.0107421879 .12298584-.0107421879 .18899536-.0107421879 .22499085 .059280397 .22799683 .0652771 .23999024 .028274537 .27598573-.0107421879 .33599855-.0107421879 .43899537-.0107421879 .49598695 .118270877 .49598695 .14328003 .49598695 .1532898 .4869995 .1532898 .48399354 .1532898 .47499085 .1532898 .47299195 .14929199 .47099305 .14228821 .43798829 .03527832 .36999513 .011245728 .33799745 .011245728 .29899598 .011245728 .2829895 .043273927 .2829895 .07727051 .2829895 .09927368 .2889862 .121276859 .2999878 .16529846L.33399964 .30233766Z"/>
<path id="font_4_2" d="M.48599244 .38136292C.48999024 .39537049 .48999024 .39736939 .48999024 .40437318 .48999024 .42237855 .47599793 .43138124 .46099855 .43138124 .45098878 .43138124 .43499757 .42536927 .42599488 .41036988 .42399598 .405365 .41600038 .37435914 .4119873 .35635377 .40499879 .33035279 .397995 .30334474 .3919983 .27633668L.34700013 .09628296C.34298707 .08126831 .2999878 .011245728 .23399353 .011245728 .18299866 .011245728 .17199707 .055267335 .17199707 .0922699 .17199707 .1382904 .18899536 .20030213 .22299195 .28833009 .23899842 .3293457 .24299622 .3403473 .24299622 .36035157 .24299622 .405365 .21099854 .4423828 .16099549 .4423828 .06599426 .4423828 .0289917 .29733277 .0289917 .28833009 .0289917 .27833558 .038986207 .27833558 .040985109 .27833558 .050994874 .27833558 .051986696 .28033448 .056991579 .29634095 .083999637 .3903656 .12399292 .42037965 .1579895 .42037965 .1659851 .42037965 .18299866 .42037965 .18299866 .3883667 .18299866 .36335755 .17298889 .3373413 .1659851 .31834413 .12599182 .21231079 .10798645 .1552887 .10798645 .10827637 .10798645 .019256592 .17098999-.0107421879 .22999573-.0107421879 .2689972-.0107421879 .30299378 .0062561037 .33099366 .03425598 .31799317-.017745972 .30599977-.06674194 .2659912-.11973572 .23999024-.15385437 .20199585-.18309021 .1559906-.18309021 .14199829-.18309021 .09700012-.18005371 .07998657-.14074707 .09599304-.14074707 .10899353-.14074707 .12298584-.1287384 .1329956-.11973572 .14299011-.10673523 .14299011-.08773804 .14299011-.056747438 .115997318-.052734376 .10598755-.052734376 .08299255-.052734376 .049987794-.068740848 .049987794-.11773682 .049987794-.16796875 .09399414-.20507813 .1559906-.20507813 .25898744-.20507813 .3619995-.11373901 .3899994-.00074768069L.48599244 .38136292Z"/>
</defs>
<path transform="matrix(1.00003,0,0,-1.00002,2.0964967,155.3758)" stroke-width=".3985" stroke-linecap="butt" stroke-miterlimit="10" stroke-linejoin="miter" fill="none" stroke="#404040" d="M0 .00015H153.57646V153.57663H0Z"/>
<path transform="matrix(1.00003,0,0,-1.00002,2.0964967,155.3758)" stroke-width=".3985" stroke-linecap="butt" stroke-miterlimit="10" stroke-linejoin="miter" fill="none" stroke="#cccccc" d="M9.59853 .00015V153.57663M28.79558 .00015V153.57663M47.99265 .00015V153.57663M67.1897 .00015V153.57663M86.38675 .00015V153.57663M105.58382 .00015V153.57663M124.78087 .00015V153.57663M143.97794 .00015V153.57663"/>
<path transform="matrix(1.00003,0,0,-1.00002,2.0964967,155.3758)" stroke-width=".3985" stroke-linecap="butt" stroke-miterlimit="10" stroke-linejoin="miter" fill="none" stroke="#cccccc" d="M19.19705 .00015V153.57663M38.3941 .00015V153.57663M57.59117 .00015V153.57663M95.98529 .00015V153.57663M115.18234 .00015V153.57663M134.3794 .00015V153.57663"/>
<path transform="matrix(1.00003,0,0,-1.00002,2.0964967,155.3758)" stroke-width=".3985" stroke-linecap="butt" stroke-miterlimit="10" stroke-linejoin="miter" fill="none" stroke="#cccccc" d="M0 9.5987H153.57646M0 28.79575H153.57646M0 47.9928H153.57646M0 67.18987H153.57646M0 86.38692H153.57646M0 105.58398H153.57646M0 124.78104H153.57646M0 143.9781H153.57646"/>
<path transform="matrix(1.00003,0,0,-1.00002,2.0964967,155.3758)" stroke-width=".3985" stroke-linecap="butt" stroke-miterlimit="10" stroke-linejoin="miter" fill="none" stroke="#cccccc" d="M0 19.19722H153.57646M0 38.39427H153.57646M0 57.59134H153.57646M0 95.98546H153.57646M0 115.18251H153.57646M0 134.37957H153.57646"/>
<path transform="matrix(1.00003,0,0,-1.00002,2.0964967,155.3758)" stroke-width=".19925" stroke-linecap="butt" stroke-miterlimit="10" stroke-linejoin="miter" fill="none" stroke="#7f807f" d="M9.59853 75.3709V78.20589M28.79558 75.3709V78.20589M47.99265 75.3709V78.20589M67.1897 75.3709V78.20589M86.38675 75.3709V78.20589M105.58382 75.3709V78.20589M124.78087 75.3709V78.20589M143.97794 75.3709V78.20589"/>
<path transform="matrix(1.00003,0,0,-1.00002,2.0964967,155.3758)" stroke-width=".19925" stroke-linecap="butt" stroke-miterlimit="10" stroke-linejoin="miter" fill="none" stroke="#7f807f" d="M19.19705 74.66237V78.91441M38.3941 74.66237V78.91441M57.59117 74.66237V78.91441M95.98529 74.66237V78.91441M115.18234 74.66237V78.91441M134.3794 74.66237V78.91441"/>
<path transform="matrix(1.00003,0,0,-1.00002,2.0964967,155.3758)" stroke-width=".19925" stroke-linecap="butt" stroke-miterlimit="10" stroke-linejoin="miter" fill="none" stroke="#7f807f" d="M75.37073 9.5987H78.20572M75.37073 28.79575H78.20572M75.37073 47.9928H78.20572M75.37073 67.18987H78.20572M75.37073 86.38692H78.20572M75.37073 105.58398H78.20572M75.37073 124.78104H78.20572M75.37073 143.9781H78.20572"/>
<path transform="matrix(1.00003,0,0,-1.00002,2.0964967,155.3758)" stroke-width=".19925" stroke-linecap="butt" stroke-miterlimit="10" stroke-linejoin="miter" fill="none" stroke="#7f807f" d="M74.6622 19.19722H78.91423M74.6622 38.39427H78.91423M74.6622 57.59134H78.91423M74.6622 95.98546H78.91423M74.6622 115.18251H78.91423M74.6622 134.37957H78.91423"/>
<path transform="matrix(1.00003,0,0,-1.00002,2.0964967,155.3758)" stroke-width=".3985" stroke-linecap="butt" stroke-miterlimit="10" stroke-linejoin="miter" fill="none" stroke="#000000" d="M0 76.78839H151.58394"/>
<path transform="matrix(1.00003,0,0,-1.00002,153.68498,78.58586)" d="M1.99252 0-1.19551 1.59401 0 0-1.19551-1.59401"/>
<path transform="matrix(1.00003,0,0,-1.00002,2.0964967,155.3758)" stroke-width=".3985" stroke-linecap="butt" stroke-miterlimit="10" stroke-linejoin="miter" fill="none" stroke="#000000" d="M76.78822 .00015V151.5841"/>
<path transform="matrix(0,-1.00002,-1.00003,-0,78.887027,3.7886506)" d="M1.99252 0-1.19551 1.59401 0 0-1.19551-1.59401"/>
<use data-text="&#x2212;" xlink:href="#font_1_1" transform="matrix(9.962899,0,0,-9.962799,14.928879,90.6525)"/>
<use data-text="6" xlink:href="#font_2_3" transform="matrix(9.962899,0,0,-9.962799,22.678109,90.6525)"/>
<use data-text="&#x2212;" xlink:href="#font_1_1" transform="matrix(9.962899,0,0,-9.962799,34.126459,90.6525)"/>
<use data-text="4" xlink:href="#font_2_2" transform="matrix(9.962899,0,0,-9.962799,41.875688,90.6525)"/>
<use data-text="&#x2212;" xlink:href="#font_1_1" transform="matrix(9.962899,0,0,-9.962799,53.324037,90.6525)"/>
<use data-text="2" xlink:href="#font_2_1" transform="matrix(9.962899,0,0,-9.962799,61.073266,90.6525)"/>
<use data-text="2" xlink:href="#font_2_1" transform="matrix(9.962899,0,0,-9.962799,95.59431,90.6525)"/>
<use data-text="4" xlink:href="#font_2_2" transform="matrix(9.962899,0,0,-9.962799,114.791889,90.6525)"/>
<use data-text="6" xlink:href="#font_2_3" transform="matrix(9.962899,0,0,-9.962799,133.98947,90.6525)"/>
<use data-text="&#x2212;" xlink:href="#font_1_1" transform="matrix(9.962899,0,0,-9.962799,60.51025,138.97347)"/>
<use data-text="6" xlink:href="#font_2_3" transform="matrix(9.962899,0,0,-9.962799,68.259479,138.97347)"/>
<use data-text="&#x2212;" xlink:href="#font_1_1" transform="matrix(9.962899,0,0,-9.962799,60.51025,119.77608)"/>
<use data-text="4" xlink:href="#font_2_2" transform="matrix(9.962899,0,0,-9.962799,68.259479,119.77608)"/>
<use data-text="&#x2212;" xlink:href="#font_1_1" transform="matrix(9.962899,0,0,-9.962799,60.51025,100.57869)"/>
<use data-text="2" xlink:href="#font_2_1" transform="matrix(9.962899,0,0,-9.962799,68.259479,100.57869)"/>
<use data-text="2" xlink:href="#font_2_1" transform="matrix(9.962899,0,0,-9.962799,68.25949,62.59893)"/>
<use data-text="4" xlink:href="#font_2_2" transform="matrix(9.962899,0,0,-9.962799,68.25949,43.40155)"/>
<use data-text="6" xlink:href="#font_2_3" transform="matrix(9.962899,0,0,-9.962799,68.25949,24.204163)"/>
<g clip-path="url(#clip_3)">
<path transform="matrix(1.00003,0,0,-1.00002,2.0964967,155.3758)" stroke-width="1.49442" stroke-linecap="butt" stroke-miterlimit="10" stroke-linejoin="miter" fill="none" stroke="#1414cc" d="M1.24335 55.22107 .12027 54.47234 .24055 54.55252 .36082 54.63269 .48112 54.71289 .6014 54.79308 .72168 54.87326 .84195 54.95346 .96225 55.03365 1.08252 55.11382 1.2028 55.19402 1.32307 55.2742 1.44337 55.3544 1.56366 55.43457 1.68393 55.51476 1.80421 55.59496 1.9245 55.67514 2.04478 55.75533 2.16505 55.83551 2.28534 55.9157 2.40562 55.99588 2.52591 56.07608 2.64618 56.15625 2.76646 56.23647 2.88675 56.31664 3.00703 56.3968 3.12732 56.47702 3.24759 56.5572 3.36789 56.63737 3.48816 56.71758 3.60844 56.79776 3.72871 56.87794 3.84901 56.95813 3.96928 57.03831 4.08957 57.1185 4.20984 57.19868 4.33014 57.27887 4.45042 57.35907 4.5707 57.43925 4.69098 57.51944 4.81126 57.59962 4.93155 57.67981 5.05182 57.76 5.1721 57.84018 5.29239 57.92038 5.41267 58.00055 5.53294 58.08075 5.65323 58.16093 5.77351 58.24113 5.8938 58.3213 6.01408 58.40149 6.13435 58.48169 6.25465 58.56187 6.37492 58.64206 6.49521 58.72224 6.61548 58.80243 6.73578 58.88261 6.85605 58.96281 6.97633 59.043 7.0966 59.1232 7.2169 59.20337 7.33719 59.28355 7.45746 59.36375 7.57774 59.44394 7.69803 59.52411 7.81831 59.60431 7.93858 59.6845 8.05887 59.76468 8.17915 59.84486 8.29944 59.92505 8.41971 60.00525 8.54 60.08542 8.66028 60.16562 8.78056 60.24582 8.90085 60.32599 9.02112 60.40617 9.14142 60.48637 9.26169 60.56656 9.38197 60.64673 9.50224 60.72693 9.62254 60.80711 9.74281 60.88728 9.8631 60.96748 9.98337 61.04767 10.10367 61.12787 10.22395 61.20804 10.34422 61.28822 10.46451 61.36842 10.5848 61.44861 10.70508 61.5288 10.82535 61.609 10.94563 61.68916 11.06592 61.76935 11.1862 61.84955 11.30647 61.92973 11.42676 62.00992 11.54704 62.0901 11.66733 62.17029 11.78761 62.25049 11.90788 62.33067 12.02818 62.41084 12.14845 62.49104 12.26874 62.57123 12.389 62.65141 12.50931 62.7316 12.62958 62.8118 12.74986 62.89198 12.87013 62.97215 12.99043 63.05235 13.11072 63.13255 13.23099 63.21272 13.35127 63.29291 13.47156 63.37311 13.59184 63.4533 13.71211 63.53346 13.8324 63.61366 13.95268 63.69385 14.07297 63.77402 14.19324 63.85422 14.31352 63.9344 14.4338 64.0146 14.5541 64.09479 14.67438 64.17496 14.79465 64.25516 14.91495 64.33534 15.03522 64.41553 15.1555 64.49573 15.27577 64.5759 15.39607 64.65608 15.51634 64.73628 15.63663 64.81647 15.7569 64.89665 15.8772 64.97684 15.99748 65.05702 16.11775 65.13722 16.23804 65.2174 16.35832 65.29758 16.4786 65.37778 16.59888 65.45796 16.71916 65.53815 16.83945 65.61835 16.95973 65.69853 17.08 65.77872 17.20029 65.8589 17.32057 65.93909 17.44086 66.01929 17.56114 66.09946 17.68141 66.17964 17.80171 66.25984 17.92198 66.34003 18.04227 66.4202 18.16254 66.50041 18.28284 66.58058 18.4031 66.66075 18.52339 66.74097 18.64366 66.82115 18.76396 66.90134 18.88425 66.98152 19.00452 67.0617 19.1248 67.14189 19.24509 67.22208 19.36537 67.30226 19.48564 67.38246 19.60593 67.46263 19.72621 67.54282 19.8465 67.62302 19.96677 67.7032 20.08705 67.78339 20.20734 67.86357 20.32762 67.94376 20.4479 68.02396 20.56818 68.10414 20.68848 68.18433 20.80875 68.26451 20.92903 68.3447 21.0493 68.42488 21.1696 68.50508 21.28987 68.58527 21.41016 68.66545 21.53043 68.74564 21.65073 68.82582 21.77101 68.90602 21.89128 68.98619 22.01157 69.06638 22.13185 69.14658 22.25214 69.22676 22.3724 69.30693 22.49269 69.38715 22.61298 69.46732 22.73326 69.54749 22.85353 69.6277 22.97382 69.70789 23.0941 69.78807 23.21439 69.86826 23.33467 69.94844 23.45494 70.02863 23.57524 70.10881 23.69551 70.189 23.8158 70.2692 23.93607 70.34937 24.05637 70.42955 24.17664 70.50975 24.29692 70.58994 24.41719 70.67014 24.53749 70.75032 24.65778 70.83049 24.77805 70.91069 24.89833 70.99088 25.01862 71.07106 25.1389 71.15125 25.25917 71.23143 25.37946 71.31161 25.49974 71.39182 25.62003 71.472 25.7403 71.55219 25.86058 71.63237 25.98087 71.71255 26.10115 71.79276 26.22144 71.87294 26.3417 71.95311 26.462 72.03331 26.58228 72.1135 26.70256 72.19368 26.82283 72.27388 26.94313 72.35405 27.0634 72.43423 27.18369 72.51443 27.30396 72.59462 27.42426 72.6748 27.54454 72.75499 27.66481 72.83517 27.7851 72.91537 27.90538 72.99554 28.02567 73.07574 28.14594 73.15593 28.26622 73.2361 28.3865 73.3163 28.50679 73.3965 28.62706 73.47667 28.74734 73.55687 28.86763 73.63705 28.98792 73.71722 29.1082 73.79742 29.22847 73.87761 29.34877 73.9578 29.46904 74.03798 29.58932 74.11816 29.7096 74.19835 29.8299 74.27855 29.95016 74.35872 30.07045 74.43892 30.19072 74.5191 30.31102 74.59929 30.4313 74.67949 30.55157 74.75967 30.67186 74.83984 30.79214 74.92004 30.91243 75.00023 31.0327 75.08041 31.15298 75.16061 31.27327 75.24078 31.39355 75.32097 31.51382 75.40117 31.63411 75.48135 31.7544 75.56154 31.87468 75.64172 31.99496 75.72191 32.11523 75.80211 32.23553 75.8823 32.3558 75.96248 32.47609 76.04266 32.59636 76.12285 32.71666 76.20303 32.83693 76.28323 32.95721 76.3634 33.07748 76.4436 33.19778 76.52379 33.31807 76.60396 33.43834 76.68416 33.55862 76.76434 33.67891 76.84453 33.7992 76.92471 33.91946 77.0049 34.03975 77.0851 34.16003 77.16528 34.28032 77.24547 34.40059 77.32567 34.52087 77.40584 34.64116 77.48602 34.76144 77.56622 34.88173 77.64641 35.002 77.72658 35.1223 77.80678 35.24257 77.88696 35.36285 77.96715 35.48312 78.04735 35.60342 78.12752 35.7237 78.20772 35.84398 78.2879 35.96425 78.36809 36.08455 78.44829 36.20483 78.52846 36.3251 78.60864 36.44539 78.68884 36.56567 78.76903 36.68596 78.84921 36.80623 78.9294 36.92651 79.00958 37.0468 79.08977 37.16708 79.16997 37.28735 79.25014 37.40764 79.33034 37.52792 79.41052 37.64821 79.49069 37.7685 79.5709 37.88876 79.6511 38.00906 79.73126 38.12933 79.81146 38.24962 79.89165 38.36989 79.97183 38.49019 80.05202 38.61046 80.1322 38.73074 80.2124 38.85101 80.29259 38.97131 80.37276 39.0916 80.45296 39.21187 80.53314 39.33215 80.61333 39.45244 80.69351 39.57272 80.7737 39.693 80.85388 39.81328 80.93408 39.93356 81.01427 40.05385 81.09445 40.17412 81.17464 40.2944 81.25482 40.41469 81.33502 40.53497 81.41519 40.65526 81.49538 40.77553 81.57558 40.89583 81.65576 41.0161 81.73595 41.13638 81.81613 41.25665 81.89632 41.37695 81.9765 41.49722 82.0567 41.61751 82.13687 41.73778 82.21707 41.85808 82.29726 41.97836 82.37744 42.09863 82.45764 42.21892 82.53781 42.3392 82.618 42.45949 82.6982 42.57976 82.77838 42.70004 82.85857 42.82033 82.93875 42.94061 83.01894 43.06088 83.09914 43.18117 83.17932 43.30145 83.25949 43.42174 83.33969 43.54202 83.41988 43.6623 83.50006 43.7826 83.58026 43.90286 83.66043 44.02315 83.74062 44.14342 83.82082 44.26372 83.901 44.38399 83.98119 44.50427 84.06137 44.62454 84.14156 44.74484 84.22176 44.86511 84.30194 44.9854 84.38211 45.10568 84.46231 45.22597 84.5425 45.34625 84.62268 45.46652 84.70288 45.5868 84.78305 45.70709 84.86324 45.82738 84.94344 45.94765 85.02362 46.06793 85.1038 46.18822 85.18399 46.3085 85.26418 46.42879 85.34438 46.54906 85.42456 46.66936 85.50473 46.78963 85.58493 46.90991 85.66512 47.03018 85.7453 47.15048 85.82549 47.27075 85.90567 47.39104 85.98587 47.5113 86.06606 47.6316 86.14624 47.75188 86.22643 47.87216 86.30661 47.99245 86.3868"/>
<path transform="matrix(-.832025,.5547011,.5547067,.8320167,2.7181853,100.568088)" stroke-width="1.49442" stroke-linecap="round" stroke-linejoin="round" fill="none" stroke="#1414cc" d="M-3.38733 4.37073C-2.76846 1.74825-1.38942 .50992 0 0-1.38942-.50992-2.76846-1.74825-3.38733-4.37073"/>
<path transform="matrix(1.00003,0,0,-1.00002,2.0964967,155.3758)" d="M47.99265 86.38692" fill="#1414cc"/>
<path transform="matrix(1.00003,0,0,-1.00002,2.0964967,155.3758)" stroke-width=".99628" stroke-linecap="butt" stroke-miterlimit="10" stroke-linejoin="miter" fill="none" stroke="#1414cc" d="M47.99265 86.38692"/>
<path transform="matrix(1.00003,0,0,-1.00002,2.0964967,155.3758)" d="M47.99265 38.39427" fill="#ffffff"/>
<path transform="matrix(1.00003,0,0,-1.00002,2.0964967,155.3758)" stroke-width=".99628" stroke-linecap="butt" stroke-miterlimit="10" stroke-linejoin="miter" fill="none" stroke="#1414cc" d="M47.99265 38.39427"/>
<path transform="matrix(1.00003,0,0,-1.00002,2.0964967,155.3758)" stroke-width="1.49442" stroke-linecap="butt" stroke-miterlimit="10" stroke-linejoin="miter" fill="none" stroke="#1414cc" d="M47.99265 38.39427H48.08885 48.18507 48.28131 48.37752 48.47375 48.56998 48.6662 48.76242 48.85864 48.95488 49.05109 49.14732 49.24355 49.33977 49.43599 49.53221 49.62843 49.72466 49.82089 49.91711 50.01334 50.10956 50.2058 50.302 50.39822 50.49446 50.59068 50.6869 50.78313 50.87936 50.97557 51.0718 51.16803 51.26424 51.36047 51.4567 51.55293 51.64914 51.74536 51.8416 51.9378 52.03404 52.13026 52.22649 52.32271 52.41893 52.51517 52.61137 52.70761 52.80383 52.90005 52.99628 53.09251 53.18874 53.28494 53.38118 53.4774 53.57362 53.66985 53.76608 53.86229 53.95851 54.05475 54.15097 54.2472 54.34341 54.43965 54.53586 54.63208 54.72832 54.82452 54.92076 55.01698 55.11322 55.20943 55.30565 55.40189 55.4981 55.59433 55.69055 55.78679 55.883 55.97923 56.07545 56.17166 56.2679 56.36412 56.46034 56.55656 56.6528 56.74902 56.84523 56.94147 57.03769 57.13391 57.23013 57.32637 57.42258 57.5188 57.61504 57.71126 57.80748 57.9037 57.99994 58.09615 58.19237 58.2886 58.38483 58.48105 58.57727 58.67351 58.76971 58.86595 58.96217 59.05838 59.15462 59.25084 59.34708 59.44328 59.53952 59.63574 59.73195 59.82819 59.92441 60.02065 60.11685 60.21309 60.30931 60.40552 60.50175 60.59798 60.6942 60.79042 60.88666 60.98288 61.0791 61.17532 61.27155 61.36777 61.46399 61.56023 61.65643 61.75267 61.84889 61.94511 62.04134 62.13756 62.2338 62.33 62.42624 62.52246 62.61868 62.7149 62.81113 62.90736 63.00357 63.09981 63.19603 63.29224 63.38847 63.4847 63.58093 63.67714 63.77338 63.8696 63.96582 64.06204 64.15826 64.25449 64.35071 64.44695 64.54317 64.63939 64.73561 64.83183 64.92805 65.02428 65.12051 65.21674 65.31296 65.40918 65.5054 65.60162 65.69785 65.79408 65.89029 65.98653 66.08275 66.17897 66.27519 66.37141 66.46765 66.56386 66.6601 66.75632 66.85254 66.94876 67.04498 67.14122 67.23743 67.33366 67.42989 67.52612 67.62233 67.71855 67.81479 67.911 68.00723 68.10345 68.19968 68.2959 68.39212 68.48836 68.58456 68.6808 68.77702 68.87325 68.96947 69.06569 69.16193 69.25813 69.35437 69.45059 69.54683 69.64304 69.73927 69.8355 69.9317 70.02794 70.12416 70.22038 70.3166 70.41284 70.50906 70.60527 70.7015 70.79773 70.89395 70.99017 71.08641 71.18263 71.27884 71.37508 71.4713 71.56752 71.66374 71.75998 71.8562 71.95241 72.04865 72.14487 72.24109 72.33731 72.43355 72.52977 72.62599 72.72221 72.81844 72.91466 73.01088 73.10712 73.20334 73.29956 73.39578 73.492 73.58823 73.68445 73.78069 73.8769 73.97313 74.06935 74.16557 74.2618 74.35802 74.45425 74.55048 74.6467 74.74292 74.83916 74.93536 75.03159 75.12782 75.22404 75.32027 75.41649 75.51273 75.60893 75.70515 75.80139 75.89761 75.99384 76.09006 76.1863 76.2825 76.37872 76.47496 76.57118 76.6674 76.76363 76.85986 76.95607 77.05229 77.14853 77.24475 77.34097 77.4372 77.53343 77.62965 77.72588 77.8221 77.91832 78.01454 78.11076 78.207 78.30322 78.39944 78.49567 78.59189 78.68811 78.78433 78.88057 78.97679 79.07301 79.16924 79.26546 79.36168 79.4579 79.55414 79.65036 79.74658 79.8428 79.93903 80.03525 80.13147 80.2277 80.32393 80.42015 80.51637 80.61261 80.70882 80.80504 80.90128 80.9975 81.09372 81.18994 81.28618 81.38239 81.4786 81.57484 81.67107 81.76729 81.86351 81.95975 82.05595 82.15218 82.24841 82.34462 82.44086 82.53708 82.63332 82.72952 82.82574 82.92198 83.0182 83.11443 83.21065 83.30688 83.40309 83.49933 83.59555 83.69177 83.788 83.88422 83.98045 84.07666 84.1729 84.26912 84.36534 84.46156 84.55779 84.65402 84.75023 84.84647 84.94269 85.0389 85.13513 85.23135 85.32759 85.4238 85.52003 85.61626 85.71248 85.8087 85.90492 86.00116 86.09737 86.1936 86.28983 86.38606"/>
<path transform="matrix(1.00003,0,0,-1.00002,2.0964967,155.3758)" d="M86.38675 38.39427" fill="#ffffff"/>
<path transform="matrix(1.00003,0,0,-1.00002,2.0964967,155.3758)" stroke-width=".99628" stroke-linecap="butt" stroke-miterlimit="10" stroke-linejoin="miter" fill="none" stroke="#1414cc" d="M86.38675 38.39427"/>
<path transform="matrix(1.00003,0,0,-1.00002,2.0964967,155.3758)" d="M95.98529 105.58398" fill="#1414cc"/>
<path transform="matrix(1.00003,0,0,-1.00002,2.0964967,155.3758)" stroke-width=".99628" stroke-linecap="butt" stroke-miterlimit="10" stroke-linejoin="miter" fill="none" stroke="#1414cc" d="M95.98529 105.58398"/>
<path transform="matrix(1.00003,0,0,-1.00002,2.0964967,155.3758)" stroke-width="1.49442" stroke-linecap="butt" stroke-miterlimit="10" stroke-linejoin="miter" fill="none" stroke="#1414cc" d="M95.98529 105.58398 96.11758 105.31937 96.24991 105.05473 96.3822 104.79012 96.51453 104.5255 96.64684 104.26088 96.77914 103.99626 96.91145 103.73163 97.04376 103.467 97.17607 103.20238 97.3084 102.93776 97.44069 102.67314 97.57301 102.40851 97.7053 102.14389 97.83763 101.87927 97.96994 101.61465 98.10225 101.35004 98.23456 101.0854 98.36687 100.82079 98.49918 100.55617 98.63148 100.29155 98.7638 100.02693 98.89612 99.76231 99.02843 99.49768 99.16074 99.23306 99.29305 98.96844 99.42535 98.70383 99.55768 98.43921 99.68997 98.17458 99.8223 97.90994 99.95459 97.64532 100.08691 97.3807 100.21922 97.11609 100.35153 96.85146 100.48384 96.58684 100.61615 96.32222 100.74846 96.0576 100.88078 95.79298 101.01308 95.52835 101.1454 95.26373 101.2777 94.99911 101.41002 94.7345 101.54233 94.46988 101.67464 94.20526 101.80696 93.94063 101.93925 93.67601 102.07158 93.41139 102.20389 93.14677 102.3362 92.88216 102.4685 92.61752 102.60081 92.35289 102.73312 92.08827 102.86545 91.82365 102.99774 91.55904 103.13007 91.2944 103.26236 91.02979 103.39468 90.76517 103.527 90.50055 103.6593 90.23593 103.79161 89.9713 103.92392 89.70668 104.05623 89.44206 104.18854 89.17744 104.32085 88.91283 104.45317 88.64821 104.58548 88.38358 104.71779 88.11896 104.8501 87.85434 104.9824 87.58972 105.11473 87.3251 105.24702 87.06047 105.37935 86.79584 105.51164 86.53122 105.64397 86.26662 105.77628 86.002 105.90858 85.73735 106.0409 85.47273 106.1732 85.2081 106.30551 84.94351 106.43784 84.6789 106.57013 84.41425 106.70245 84.14963 106.83475 83.885 106.96707 83.6204 107.09938 83.35577 107.23169 83.09114 107.36401 82.8265 107.4963 82.56189 107.62863 82.29729 107.76094 82.03267 107.89325 81.76805 108.02556 81.5034 108.15787 81.23878 108.29018 80.97418 108.4225 80.70956 108.5548 80.44493 108.68712 80.1803 108.81941 79.91566 108.95174 79.65108 109.08405 79.38646 109.21635 79.12183 109.34866 78.8572 109.48097 78.59256 109.61328 78.32797 109.7456 78.06334 109.8779 77.79872 110.01022 77.53407 110.14253 77.26945 110.27484 77.00487 110.40715 76.74023 110.53946 76.47562 110.67178 76.21098 110.80408 75.94635 110.9364 75.68175 111.0687 75.41713 111.20102 75.1525 111.33333 74.88788 111.46564 74.62325 111.59795 74.35864 111.73026 74.09402 111.86256 73.82939 111.99489 73.56477 112.12718 73.30013 112.2595 73.03554 112.3918 72.7709 112.52412 72.50629 112.65643 72.24167 112.78874 71.97702 112.92107 71.71243 113.05336 71.4478 113.18568 71.18318 113.318 70.91855 113.4503 70.65393 113.58261 70.38931 113.71492 70.1247 113.84723 69.86006 113.97955 69.59544 114.11185 69.33083 114.24417 69.06621 114.37646 68.80159 114.50879 68.53696 114.6411 68.27234 114.7734 68.0077 114.90572 67.7431 115.03802 67.47847 115.17033 67.21385 115.30266 66.94923 115.43495 66.6846 115.56728 66.42 115.69958 66.15536 115.8319 65.89075 115.9642 65.62611 116.09651 65.3615 116.22884 65.09688 116.36113 64.83226 116.49345 64.56764 116.62575 64.30301 116.75807 64.03839 116.89038 63.77379 117.02269 63.50916 117.155 63.24452 117.28731 62.9799 117.41962 62.71527 117.55194 62.45068 117.68423 62.18604 117.81656 61.92142 117.94885 61.6568 118.08118 61.39217 118.21349 61.12758 118.3458 60.86293 118.47812 60.59831 118.61041 60.33368 118.74274 60.06906 118.87505 59.80446 119.00735 59.53983 119.13966 59.2752 119.27197 59.01057 119.40428 58.74596 119.5366 58.48135 119.6689 58.21674 119.80122 57.95209 119.93352 57.68747 120.06584 57.42284 120.19815 57.15825 120.33046 56.89363 120.46277 56.62898 120.59508 56.36436 120.72739 56.09973 120.85971 55.83514 120.992 55.57051 121.12433 55.30588 121.25664 55.04124 121.38895 54.77663 121.52127 54.51202 121.65356 54.2474 121.78589 53.98277 121.91818 53.71814 122.0505 53.45352 122.1828 53.18892 122.31512 52.9243 122.44743 52.65967 122.57974 52.39503 122.71205 52.13042 122.84436 51.86581 122.97667 51.6012 123.109 51.33656 123.24129 51.07193 123.37361 50.8073 123.5059 50.54271 123.63823 50.27808 123.77054 50.01346 123.90285 49.74881 124.03517 49.48419 124.16747 49.2196 124.29979 48.95497 124.4321 48.69035 124.5644 48.4257 124.69672 48.16109 124.82903 47.89648 124.96133 47.63187 125.09366 47.36723 125.22595 47.10262 125.35828 46.83798 125.49057 46.57338 125.6229 46.30876 125.7552 46.04413 125.88751 45.77951 126.01982 45.51486 126.15213 45.25027 126.28444 44.98564 126.41676 44.72102 126.54906 44.4564 126.68138 44.19176 126.81369 43.92717 126.946 43.66254 127.07832 43.39792 127.21062 43.13329 127.34294 42.86865 127.47523 42.60405 127.60756 42.33943 127.73985 42.0748 127.87218 41.81018 128.00449 41.54555 128.1368 41.28094 128.2691 41.01633 128.40142 40.7517 128.53372 40.48708 128.66605 40.22244 128.79834 39.95784 128.93067 39.6932 129.06296 39.42859 129.19528 39.16397 129.32759 38.89934 129.4599 38.63474 129.59223 38.3701 129.72452 38.10548 129.85684 37.84085 129.98915 37.57623 130.12146 37.31161 130.25377 37.047 130.38608 36.78238 130.51839 36.51775 130.65071 36.25313 130.783 35.98851 130.91533 35.72389 131.04763 35.45926 131.17995 35.19464 131.31226 34.93001 131.44457 34.66542 131.57688 34.40077 131.70919 34.13615 131.84149 33.87154 131.97382 33.6069 132.10611 33.34232 132.23844 33.07767 132.37075 32.81305 132.50305 32.54842 132.63538 32.2838 132.76767 32.0192 132.9 31.75456 133.03229 31.48994 133.16461 31.22531 133.29692 30.9607 133.42923 30.69609 133.56154 30.43146 133.69385 30.16682 133.82616 29.9022 133.95847 29.63757 134.09078 29.37299 134.2231 29.10837 134.3554 28.84372 134.48772 28.5791 134.62001 28.31447 134.75234 28.04988 134.88465 27.78525 135.01696 27.52061 135.14928 27.25598 135.28157 26.99136 135.4139 26.72676 135.5462 26.46214 135.67852 26.19751 135.81082 25.93288 135.94313 25.66826 136.07544 25.40366 136.20777 25.13904 136.34006 24.87439 136.47238 24.60977 136.60468 24.34515 136.737 24.08055 136.86931 23.81593 137.00162 23.5513 137.13393 23.28667 137.26624 23.02203 137.39855 22.75745 137.53087 22.49281 137.66316 22.2282 137.79549 21.96355 137.9278 21.69893 138.0601 21.43434 138.19243 21.16971 138.32472 20.90509 138.45705 20.64044 138.58934 20.37582 138.72167 20.11122 138.85398 19.8466 138.98628 19.58197 139.11859 19.31734 139.2509 19.05272 139.38321 18.78812 139.51552 18.5235 139.64783 18.25887 139.78015 17.99423 139.91245 17.7296 140.04477 17.46501 140.17707 17.20038 140.30939 16.93576 140.4417 16.67114 140.574 16.4065 140.70633 16.1419 140.83863 15.87727 140.97095 15.61266 141.10326 15.34802 141.23557 15.08339 141.36788 14.81879 141.50019 14.55417 141.63249 14.28954 141.76482 14.02492 141.89711 13.76028 142.02944 13.49568 142.16173 13.23106 142.29405 12.96643 142.42636 12.70181 142.55867 12.43716 142.69098 12.17258 142.82329 11.90794 142.9556 11.64333 143.08792 11.37871 143.22022 11.11407 143.35254 10.84947 143.48485 10.58484 143.61716 10.32022 143.74948 10.05559 143.88178 9.79097 144.0141 9.52635 144.1464 9.26173 144.27872 8.99712 144.41103 8.73248 144.54334 8.46786 144.67565 8.20325 144.80796 7.93863 144.94026 7.674 145.07259 7.40938 145.20488 7.14474 145.3372 6.88014 145.4695 6.61551 145.60182 6.35089 145.73412 6.08627 145.86644 5.82164 145.99875 5.55704 146.13106 5.2924 146.26338 5.02779 146.39568 4.76315 146.528 4.49854 146.66031 4.23395 146.79262 3.9693 146.92493 3.70468 147.05724 3.44005 147.18955 3.17542 147.32187 2.91083 147.45417 2.64618 147.58649 2.38156 147.71878 2.11694 147.8511 1.85233 147.98342 1.58772 148.11573 1.32309 148.24803 1.05846 148.38034 .79382 148.51265 .5292 148.64498 .26462 148.10901 1.33656"/>
<path transform="matrix(.44718344,.8943979,.89440688,-.44717894,150.54409,154.70749)" stroke-width="1.49442" stroke-linecap="round" stroke-linejoin="round" fill="none" stroke="#1414cc" d="M-3.38733 4.37073C-2.76846 1.74825-1.38942 .50992 0 0-1.38942-.50992-2.76846-1.74825-3.38733-4.37073"/>
</g>
<path transform="matrix(1.00003,0,0,-1.00002,2.0964967,155.3758)" d="M49.9852 86.38692C49.9852 87.4874 49.09311 88.37947 47.99265 88.37947 46.89217 88.37947 46.00009 87.4874 46.00009 86.38692 46.00009 85.28645 46.89217 84.39436 47.99265 84.39436 49.09311 84.39436 49.9852 85.28645 49.9852 86.38692ZM47.99265 86.38692" fill="#1414cc"/>
<path transform="matrix(1.00003,0,0,-1.00002,2.0964967,155.3758)" stroke-width=".99628" stroke-linecap="butt" stroke-miterlimit="10" stroke-linejoin="miter" fill="none" stroke="#1414cc" d="M49.9852 86.38692C49.9852 87.4874 49.09311 88.37947 47.99265 88.37947 46.89217 88.37947 46.00009 87.4874 46.00009 86.38692 46.00009 85.28645 46.89217 84.39436 47.99265 84.39436 49.09311 84.39436 49.9852 85.28645 49.9852 86.38692ZM47.99265 86.38692"/>
<path transform="matrix(1.00003,0,0,-1.00002,2.0964967,155.3758)" d="" fill="#1414cc"/>
<path transform="matrix(1.00003,0,0,-1.00002,2.0964967,155.3758)" stroke-width=".99628" stroke-linecap="butt" stroke-miterlimit="10" stroke-linejoin="miter" fill="none" stroke="#1414cc" d=""/>
<path transform="matrix(1.00003,0,0,-1.00002,2.0964967,155.3758)" d="M49.9852 38.39427C49.9852 39.49475 49.09311 40.38683 47.99265 40.38683 46.89217 40.38683 46.00009 39.49475 46.00009 38.39427 46.00009 37.29381 46.89217 36.40172 47.99265 36.40172 49.09311 36.40172 49.9852 37.29381 49.9852 38.39427ZM47.99265 38.39427" fill="#ffffff"/>
<path transform="matrix(1.00003,0,0,-1.00002,2.0964967,155.3758)" stroke-width=".99628" stroke-linecap="butt" stroke-miterlimit="10" stroke-linejoin="miter" fill="none" stroke="#1414cc" d="M49.9852 38.39427C49.9852 39.49475 49.09311 40.38683 47.99265 40.38683 46.89217 40.38683 46.00009 39.49475 46.00009 38.39427 46.00009 37.29381 46.89217 36.40172 47.99265 36.40172 49.09311 36.40172 49.9852 37.29381 49.9852 38.39427ZM47.99265 38.39427"/>
<path transform="matrix(1.00003,0,0,-1.00002,2.0964967,155.3758)" d="" fill="#ffffff"/>
<path transform="matrix(1.00003,0,0,-1.00002,2.0964967,155.3758)" stroke-width=".99628" stroke-linecap="butt" stroke-miterlimit="10" stroke-linejoin="miter" fill="none" stroke="#1414cc" d=""/>
<path transform="matrix(1.00003,0,0,-1.00002,2.0964967,155.3758)" d="M88.3793 38.39427C88.3793 39.49475 87.48723 40.38683 86.38675 40.38683 85.28629 40.38683 84.3942 39.49475 84.3942 38.39427 84.3942 37.29381 85.28629 36.40172 86.38675 36.40172 87.48723 36.40172 88.3793 37.29381 88.3793 38.39427ZM86.38675 38.39427" fill="#ffffff"/>
<path transform="matrix(1.00003,0,0,-1.00002,2.0964967,155.3758)" stroke-width=".99628" stroke-linecap="butt" stroke-miterlimit="10" stroke-linejoin="miter" fill="none" stroke="#1414cc" d="M88.3793 38.39427C88.3793 39.49475 87.48723 40.38683 86.38675 40.38683 85.28629 40.38683 84.3942 39.49475 84.3942 38.39427 84.3942 37.29381 85.28629 36.40172 86.38675 36.40172 87.48723 36.40172 88.3793 37.29381 88.3793 38.39427ZM86.38675 38.39427"/>
<path transform="matrix(1.00003,0,0,-1.00002,2.0964967,155.3758)" d="" fill="#ffffff"/>
<path transform="matrix(1.00003,0,0,-1.00002,2.0964967,155.3758)" stroke-width=".99628" stroke-linecap="butt" stroke-miterlimit="10" stroke-linejoin="miter" fill="none" stroke="#1414cc" d=""/>
<path transform="matrix(1.00003,0,0,-1.00002,2.0964967,155.3758)" d="M97.97784 105.58398C97.97784 106.68445 97.08575 107.57654 95.98529 107.57654 94.88481 107.57654 93.99274 106.68445 93.99274 105.58398 93.99274 104.4835 94.88481 103.59143 95.98529 103.59143 97.08575 103.59143 97.97784 104.4835 97.97784 105.58398ZM95.98529 105.58398" fill="#1414cc"/>
<path transform="matrix(1.00003,0,0,-1.00002,2.0964967,155.3758)" stroke-width=".99628" stroke-linecap="butt" stroke-miterlimit="10" stroke-linejoin="miter" fill="none" stroke="#1414cc" d="M97.97784 105.58398C97.97784 106.68445 97.08575 107.57654 95.98529 107.57654 94.88481 107.57654 93.99274 106.68445 93.99274 105.58398 93.99274 104.4835 94.88481 103.59143 95.98529 103.59143 97.08575 103.59143 97.97784 104.4835 97.97784 105.58398ZM95.98529 105.58398"/>
<path transform="matrix(1.00003,0,0,-1.00002,2.0964967,155.3758)" d="" fill="#1414cc"/>
<path transform="matrix(1.00003,0,0,-1.00002,2.0964967,155.3758)" stroke-width=".99628" stroke-linecap="butt" stroke-miterlimit="10" stroke-linejoin="miter" fill="none" stroke="#1414cc" d=""/>
<use data-text="x" xlink:href="#font_4_1" transform="matrix(9.962899,0,0,-9.962799,146.48883,75.053188)"/>
<use data-text="y" xlink:href="#font_4_2" transform="matrix(9.962899,0,0,-9.962799,82.422908,9.572876)"/>
</svg>
