<svg xmlns="http://www.w3.org/2000/svg" xmlns:xlink="http://www.w3.org/1999/xlink" xmlns:inkscape="http://www.inkscape.org/namespaces/inkscape" version="1.1" width="157" height="157" viewBox="0 0 157 157">
<defs>
<clipPath id="clip_1">
<path transform="matrix(1.00006,0,0,-1.00006,2.0959855,155.38938)" d="M0 0H153.58254V153.58254H0Z"/>
</clipPath>
</defs>
<path transform="matrix(1.00006,0,0,-1.00006,2.0959855,155.38938)" stroke-width=".3985" stroke-linecap="butt" stroke-miterlimit="10" stroke-linejoin="miter" fill="none" stroke="#404040" d="M0 0H153.58254V153.58254H0Z"/>
<path transform="matrix(1.00006,0,0,-1.00006,2.0959855,155.38938)" stroke-width=".3985" stroke-linecap="butt" stroke-miterlimit="10" stroke-linejoin="miter" fill="none" stroke="#cccccc" d="M0 0V153.58254M12.79854 0V153.58254M25.59708 0V153.58254M38.39563 0V153.58254M51.19417 0V153.58254M63.99272 0V153.58254M76.79126 0V153.58254M89.58981 0V153.58254M102.38835 0V153.58254M115.1869 0V153.58254M127.98544 0V153.58254M140.784 0V153.58254M153.58254 0V153.58254"/>
<path transform="matrix(1.00006,0,0,-1.00006,2.0959855,155.38938)" stroke-width=".3985" stroke-linecap="butt" stroke-miterlimit="10" stroke-linejoin="miter" fill="none" stroke="#cccccc" d=""/>
<path transform="matrix(1.00006,0,0,-1.00006,2.0959855,155.38938)" stroke-width=".3985" stroke-linecap="butt" stroke-miterlimit="10" stroke-linejoin="miter" fill="none" stroke="#cccccc" d="M0 0H153.58254M0 12.79854H153.58254M0 25.59708H153.58254M0 38.39563H153.58254M0 51.19417H153.58254M0 63.99272H153.58254M0 76.79126H153.58254M0 89.58981H153.58254M0 102.38835H153.58254M0 115.1869H153.58254M0 127.98544H153.58254M0 140.784H153.58254M0 153.58254H153.58254"/>
<path transform="matrix(1.00006,0,0,-1.00006,2.0959855,155.38938)" stroke-width=".3985" stroke-linecap="butt" stroke-miterlimit="10" stroke-linejoin="miter" fill="none" stroke="#cccccc" d=""/>
<path transform="matrix(1.00006,0,0,-1.00006,2.0959855,155.38938)" stroke-width=".19925" stroke-linecap="butt" stroke-miterlimit="10" stroke-linejoin="miter" fill="none" stroke="#7f807f" d="M0 75.37378V78.20876M12.79854 75.37378V78.20876M25.59708 75.37378V78.20876M38.39563 75.37378V78.20876M51.19417 75.37378V78.20876M63.99272 75.37378V78.20876M76.79126 75.37378V78.20876M89.58981 75.37378V78.20876M102.38835 75.37378V78.20876M115.1869 75.37378V78.20876M127.98544 75.37378V78.20876M140.784 75.37378V78.20876M153.58254 75.37378V78.20876"/>
<path transform="matrix(1.00006,0,0,-1.00006,2.0959855,155.38938)" stroke-width=".19925" stroke-linecap="butt" stroke-miterlimit="10" stroke-linejoin="miter" fill="none" stroke="#7f807f" d=""/>
<path transform="matrix(1.00006,0,0,-1.00006,2.0959855,155.38938)" stroke-width=".19925" stroke-linecap="butt" stroke-miterlimit="10" stroke-linejoin="miter" fill="none" stroke="#7f807f" d="M75.37378 0H78.20876M75.37378 12.79854H78.20876M75.37378 25.59708H78.20876M75.37378 38.39563H78.20876M75.37378 51.19417H78.20876M75.37378 63.99272H78.20876M75.37378 76.79126H78.20876M75.37378 89.58981H78.20876M75.37378 102.38835H78.20876M75.37378 115.1869H78.20876M75.37378 127.98544H78.20876M75.37378 140.784H78.20876M75.37378 153.58254H78.20876"/>
<path transform="matrix(1.00006,0,0,-1.00006,2.0959855,155.38938)" stroke-width=".19925" stroke-linecap="butt" stroke-miterlimit="10" stroke-linejoin="miter" fill="none" stroke="#7f807f" d=""/>
<path transform="matrix(1.00006,0,0,-1.00006,2.0959855,155.38938)" stroke-width=".3985" stroke-linecap="butt" stroke-miterlimit="10" stroke-linejoin="miter" fill="none" stroke="#000000" d="M0 76.79126H151.59001"/>
<path transform="matrix(1.00006,0,0,-1.00006,153.6951,78.593509)" d="M1.99252 0-1.19551 1.59401 0 0-1.19551-1.59401"/>
<path transform="matrix(1.00006,0,0,-1.00006,2.0959855,155.38938)" stroke-width=".3985" stroke-linecap="butt" stroke-miterlimit="10" stroke-linejoin="miter" fill="none" stroke="#000000" d="M76.79126 0V151.59001"/>
<path transform="matrix(0,-1.00006,-1.00006,-0,78.89185,3.790268)" d="M1.99252 0-1.19551 1.59401 0 0-1.19551-1.59401"/>
<g clip-path="url(#clip_1)">
</g>
</svg>
