<svg xmlns="http://www.w3.org/2000/svg" xmlns:xlink="http://www.w3.org/1999/xlink" xmlns:inkscape="http://www.inkscape.org/namespaces/inkscape" version="1.1" width="214" height="214" viewBox="0 0 214 214">
<defs>
<clipPath id="clip_1">
<path transform="matrix(1.00003,0,0,-1.00002,2.0964967,212.07292)" d="M0 0H210.27376V210.27376H0Z"/>
</clipPath>
</defs>
<path transform="matrix(1.00003,0,0,-1.00002,2.0964967,212.07292)" stroke-width=".3985" stroke-linecap="butt" stroke-miterlimit="10" stroke-linejoin="miter" fill="none" stroke="#404040" d="M0 0H210.27376V210.27376H0Z"/>
<path transform="matrix(1.00003,0,0,-1.00002,2.0964967,212.07292)" stroke-width=".3985" stroke-linecap="butt" stroke-miterlimit="10" stroke-linejoin="miter" fill="none" stroke="#cccccc" d="M13.1421 0V210.27376M26.28421 0V210.27376M39.42633 0V210.27376M52.56844 0V210.27376M65.71054 0V210.27376M78.85266 0V210.27376M91.99477 0V210.27376M105.13687 0V210.27376M118.27899 0V210.27376M131.4211 0V210.27376M144.5632 0V210.27376M157.70532 0V210.27376M170.84743 0V210.27376M183.98954 0V210.27376M197.13166 0V210.27376"/>
<path transform="matrix(1.00003,0,0,-1.00002,2.0964967,212.07292)" stroke-width=".3985" stroke-linecap="butt" stroke-miterlimit="10" stroke-linejoin="miter" fill="none" stroke="#cccccc" d=""/>
<path transform="matrix(1.00003,0,0,-1.00002,2.0964967,212.07292)" stroke-width=".3985" stroke-linecap="butt" stroke-miterlimit="10" stroke-linejoin="miter" fill="none" stroke="#cccccc" d="M0 13.1421H210.27376M0 26.28421H210.27376M0 39.42633H210.27376M0 52.56844H210.27376M0 65.71054H210.27376M0 78.85266H210.27376M0 91.99477H210.27376M0 105.13687H210.27376M0 118.27899H210.27376M0 131.4211H210.27376M0 144.5632H210.27376M0 157.70532H210.27376M0 170.84743H210.27376M0 183.98954H210.27376M0 197.13166H210.27376"/>
<path transform="matrix(1.00003,0,0,-1.00002,2.0964967,212.07292)" stroke-width=".3985" stroke-linecap="butt" stroke-miterlimit="10" stroke-linejoin="miter" fill="none" stroke="#cccccc" d=""/>
<path transform="matrix(1.00003,0,0,-1.00002,2.0964967,212.07292)" stroke-width=".19925" stroke-linecap="butt" stroke-miterlimit="10" stroke-linejoin="miter" fill="none" stroke="#7f807f" d="M13.1421 103.7194V106.55434M26.28421 103.7194V106.55434M39.42633 103.7194V106.55434M52.56844 103.7194V106.55434M65.71054 103.7194V106.55434M78.85266 103.7194V106.55434M91.99477 103.7194V106.55434M105.13687 103.7194V106.55434M118.27899 103.7194V106.55434M131.4211 103.7194V106.55434M144.5632 103.7194V106.55434M157.70532 103.7194V106.55434M170.84743 103.7194V106.55434M183.98954 103.7194V106.55434M197.13166 103.7194V106.55434"/>
<path transform="matrix(1.00003,0,0,-1.00002,2.0964967,212.07292)" stroke-width=".19925" stroke-linecap="butt" stroke-miterlimit="10" stroke-linejoin="miter" fill="none" stroke="#7f807f" d=""/>
<path transform="matrix(1.00003,0,0,-1.00002,2.0964967,212.07292)" stroke-width=".19925" stroke-linecap="butt" stroke-miterlimit="10" stroke-linejoin="miter" fill="none" stroke="#7f807f" d="M103.7194 13.1421H106.55434M103.7194 26.28421H106.55434M103.7194 39.42633H106.55434M103.7194 52.56844H106.55434M103.7194 65.71054H106.55434M103.7194 78.85266H106.55434M103.7194 91.99477H106.55434M103.7194 105.13687H106.55434M103.7194 118.27899H106.55434M103.7194 131.4211H106.55434M103.7194 144.5632H106.55434M103.7194 157.70532H106.55434M103.7194 170.84743H106.55434M103.7194 183.98954H106.55434M103.7194 197.13166H106.55434"/>
<path transform="matrix(1.00003,0,0,-1.00002,2.0964967,212.07292)" stroke-width=".19925" stroke-linecap="butt" stroke-miterlimit="10" stroke-linejoin="miter" fill="none" stroke="#7f807f" d=""/>
<path transform="matrix(1.00003,0,0,-1.00002,2.0964967,212.07292)" stroke-width=".3985" stroke-linecap="butt" stroke-miterlimit="10" stroke-linejoin="miter" fill="none" stroke="#000000" d="M0 105.13687H208.28124"/>
<path transform="matrix(1.00003,0,0,-1.00002,210.38399,106.933948)" d="M1.99252 0-1.19551 1.59401 0 0-1.19551-1.59401"/>
<path transform="matrix(1.00003,0,0,-1.00002,2.0964967,212.07292)" stroke-width=".3985" stroke-linecap="butt" stroke-miterlimit="10" stroke-linejoin="miter" fill="none" stroke="#000000" d="M105.13687 0V208.28124"/>
<path transform="matrix(0,-1.00002,-1.00003,-0,107.23653,3.7875214)" d="M1.99252 0-1.19551 1.59401 0 0-1.19551-1.59401"/>
<g clip-path="url(#clip_1)">
</g>
</svg>
