<svg xmlns="http://www.w3.org/2000/svg" xmlns:xlink="http://www.w3.org/1999/xlink" xmlns:inkscape="http://www.inkscape.org/namespaces/inkscape" version="1.1" width="101" height="100" viewBox="0 0 101 100">
<defs>
<clipPath id="clip_1">
<path transform="matrix(1,0,0,-1.00006,2.0960007,98.68896)" d="M0 0H96.88524V96.88524H0Z"/>
</clipPath>
<path id="font_2_1" d="M.44099427 .7259979C.44099427 .72698977 .44400025 .73098757 .44400025 .73599246 .44400025 .73999026 .44198609 .75 .4269867 .75 .40699769 .75 .1499939 .58999636 .1499939 .25 .1499939-.08900452 .40699769-.25 .4269867-.25 .44198609-.25 .44400025-.2400055 .44400025-.23600769 .44400025-.2290039 .43998719-.22601319 .43598939-.2230072 .25898744-.08200073 .22698975 .12098694 .22698975 .25 .22698975 .49499513 .33999635 .6559906 .44099427 .7259979Z"/>
<path id="font_2_3" d="M.6009979 .31976319C.6009979 .3918152 .6009979 .6660156 .33999635 .6660156 .07899475 .6660156 .07899475 .3918152 .07899475 .31976319 .07899475 .2467041 .07899475-.022460938 .33999635-.022460938 .6009979-.022460938 .6009979 .2467041 .6009979 .31976319M.33999635 .010528564C.30299378 .010528564 .21899414 .023544312 .19400025 .12461853 .17999268 .17866516 .1789856 .24971009 .1789856 .33177186 .1789856 .405838 .1789856 .47488404 .19499207 .5319214 .21998596 .6159973 .29699708 .63301089 .33999635 .63301089 .4139862 .63301089 .46699525 .5949707 .4869995 .5249176 .5009918 .47387696 .5009918 .39082337 .5009918 .33177186 .5009918 .26371766 .5009918 .18266297 .48599244 .12261963 .45999146 .025543213 .37998963 .010528564 .33999635 .010528564Z"/>
<path id="font_3_1" d="M.269989 .01399231C.269989-.08216858 .21798706-.13726807 .19099427-.15931702 .18099976-.16732788 .1789856-.16934204 .1789856-.17634583 .1789856-.18234253 .18798828-.19433594 .19699097-.19433594 .20999146-.19433594 .3039856-.1162262 .3039856 .008987427 .3039856 .07699585 .27398683 .12199402 .22898865 .12199402 .19099427 .12199402 .16799927 .09199524 .16799927 .06098938 .16799927 .0289917 .19099427 0 .22898865 0 .24398804 0 .25898744 .0039978029 .269989 .01399231Z"/>
<path id="font_3_2" d="M.5779877 .32435609C.58299258 .34535218 .59298709 .38237 .59298709 .38737489 .59298709 .40437318 .5799866 .42237855 .55599978 .42237855 .5379944 .42237855 .5139923 .41036988 .5059967 .38237 .4869995 .40837098 .44898988 .4423828 .38598634 .4423828 .24499512 .4423828 .10499573 .30534364 .10499573 .16329956 .10499573 .061264039 .17999268-.0107421879 .27999879-.0107421879 .3619995-.0107421879 .42599488 .04725647 .43798829 .059265138 .45599366 .010253906 .5109863-.0107421879 .55599978-.0107421879 .59599307-.0107421879 .6230011 .012252808 .6439972 .04525757 .66999819 .08427429 .6839905 .13728333 .6839905 .14428711 .6839905 .15829468 .6669922 .15829468 .6629944 .15829468 .644989 .15829468 .6439972 .15229798 .6389923 .1362915 .62098696 .06225586 .59498599 .023254395 .55999758 .023254395 .5319977 .023254395 .519989 .04525757 .519989 .07626343 .519989 .091278079 .5299988 .12928772 .5359955 .15629578L.5779877 .32435609M.44400025 .13328552C.43998719 .11828613 .43998719 .11628723 .42199708 .0962677 .3849945 .054260255 .33299256 .023254395 .2829895 .023254395 .24798584 .023254395 .19499207 .042251588 .19499207 .12528992 .19499207 .17129517 .21899414 .27633668 .2539978 .32835389 .29299928 .38336183 .34399415 .40837098 .38598634 .40837098 .43099977 .40837098 .47399903 .38136292 .48999024 .3213501L.44400025 .13328552Z"/>
<path id="font_2_2" d="M.3909912 .25C.3909912 .58898928 .13398743 .75 .11399841 .75 .09799194 .75 .09799194 .73799136 .09799194 .73599246 .09799194 .73498538 .09799194 .72898867 .10398865 .72299197 .2539978 .60398867 .31399537 .42999269 .31399537 .25 .31399537 .1599884 .29699708 .06599426 .2630005-.01600647 .21499634-.13000489 .1519928-.18501282 .102996829-.2250061 .099990848-.227005 .09799194-.23200989 .09799194-.23600769 .09799194-.23800659 .09799194-.25 .11399841-.25 .13398743-.25 .3909912-.0900116 .3909912 .25Z"/>
<path id="font_4_1" d="M.33399964 .30233766C.33999635 .32835389 .36299134 .42037965 .43299867 .42037965 .43798829 .42037965 .46199037 .42037965 .48298646 .40734864 .45498658 .402359 .43499757 .37734986 .43499757 .35334779 .43499757 .33735658 .44599916 .31835938 .47299195 .31835938 .49499513 .31835938 .5269928 .3363495 .5269928 .37635804 .5269928 .42837525 .46798707 .4423828 .43399049 .4423828 .37599183 .4423828 .34098817 .38935853 .32899476 .36634828 .3039856 .43237306 .25 .4423828 .22099304 .4423828 .116989139 .4423828 .05999756 .3133545 .05999756 .28834535 .05999756 .27833558 .069992069 .27833558 .07199097 .27833558 .07998657 .27833558 .08299255 .28033448 .084991458 .28933717 .11898804 .39535523 .18499756 .42037965 .21899414 .42037965 .23799134 .42037965 .272995 .4113617 .272995 .35334779 .272995 .32235719 .2559967 .25532533 .21899414 .11528015 .20298767 .053268434 .16799927 .011245728 .12399292 .011245728 .117996219 .011245728 .09498596 .011245728 .07398987 .024276734 .09899902 .029266358 .12098694 .05027771 .12098694 .07827759 .12098694 .105270389 .09899902 .11328125 .083999637 .11328125 .053985597 .11328125 .0289917 .08728027 .0289917 .055267335 .0289917 .009246826 .07899475-.0107421879 .12298584-.0107421879 .18899536-.0107421879 .22499085 .059280397 .22799683 .0652771 .23999024 .028274537 .27598573-.0107421879 .33599855-.0107421879 .43899537-.0107421879 .49598695 .118270877 .49598695 .14328003 .49598695 .1532898 .4869995 .1532898 .48399354 .1532898 .47499085 .1532898 .47299195 .14929199 .47099305 .14228821 .43798829 .03527832 .36999513 .011245728 .33799745 .011245728 .29899598 .011245728 .2829895 .043273927 .2829895 .07727051 .2829895 .09927368 .2889862 .121276859 .2999878 .16529846L.33399964 .30233766Z"/>
<path id="font_4_2" d="M.48599244 .38136292C.48999024 .39537049 .48999024 .39736939 .48999024 .40437318 .48999024 .42237855 .47599793 .43138124 .46099855 .43138124 .45098878 .43138124 .43499757 .42536927 .42599488 .41036988 .42399598 .405365 .41600038 .37435914 .4119873 .35635377 .40499879 .33035279 .397995 .30334474 .3919983 .27633668L.34700013 .09628296C.34298707 .08126831 .2999878 .011245728 .23399353 .011245728 .18299866 .011245728 .17199707 .055267335 .17199707 .0922699 .17199707 .1382904 .18899536 .20030213 .22299195 .28833009 .23899842 .3293457 .24299622 .3403473 .24299622 .36035157 .24299622 .405365 .21099854 .4423828 .16099549 .4423828 .06599426 .4423828 .0289917 .29733277 .0289917 .28833009 .0289917 .27833558 .038986207 .27833558 .040985109 .27833558 .050994874 .27833558 .051986696 .28033448 .056991579 .29634095 .083999637 .3903656 .12399292 .42037965 .1579895 .42037965 .1659851 .42037965 .18299866 .42037965 .18299866 .3883667 .18299866 .36335755 .17298889 .3373413 .1659851 .31834413 .12599182 .21231079 .10798645 .1552887 .10798645 .10827637 .10798645 .019256592 .17098999-.0107421879 .22999573-.0107421879 .2689972-.0107421879 .30299378 .0062561037 .33099366 .03425598 .31799317-.017745972 .30599977-.06674194 .2659912-.11973572 .23999024-.15385437 .20199585-.18309021 .1559906-.18309021 .14199829-.18309021 .09700012-.18005371 .07998657-.14074707 .09599304-.14074707 .10899353-.14074707 .12298584-.1287384 .1329956-.11973572 .14299011-.10673523 .14299011-.08773804 .14299011-.056747438 .115997318-.052734376 .10598755-.052734376 .08299255-.052734376 .049987794-.068740848 .049987794-.11773682 .049987794-.16796875 .09399414-.20507813 .1559906-.20507813 .25898744-.20507813 .3619995-.11373901 .3899994-.00074768069L.48599244 .38136292Z"/>
</defs>
<path transform="matrix(1,0,0,-1.00006,2.0960007,98.68896)" stroke-width=".3985" stroke-linecap="butt" stroke-miterlimit="10" stroke-linejoin="miter" fill="none" stroke="#404040" d="M0 0H96.88524V96.88524H0Z"/>
<path transform="matrix(1,0,0,-1.00006,2.0960007,98.68896)" stroke-width=".3985" stroke-linecap="butt" stroke-miterlimit="10" stroke-linejoin="miter" fill="none" stroke="#cccccc" d=""/>
<path transform="matrix(1,0,0,-1.00006,2.0960007,98.68896)" stroke-width=".3985" stroke-linecap="butt" stroke-miterlimit="10" stroke-linejoin="miter" fill="none" stroke="#cccccc" d=""/>
<path transform="matrix(1,0,0,-1.00006,2.0960007,98.68896)" stroke-width=".3985" stroke-linecap="butt" stroke-miterlimit="10" stroke-linejoin="miter" fill="none" stroke="#cccccc" d=""/>
<path transform="matrix(1,0,0,-1.00006,2.0960007,98.68896)" stroke-width=".3985" stroke-linecap="butt" stroke-miterlimit="10" stroke-linejoin="miter" fill="none" stroke="#cccccc" d=""/>
<path transform="matrix(1,0,0,-1.00006,2.0960007,98.68896)" stroke-width=".19925" stroke-linecap="butt" stroke-miterlimit="10" stroke-linejoin="miter" fill="none" stroke="#7f807f" d=""/>
<path transform="matrix(1,0,0,-1.00006,2.0960007,98.68896)" stroke-width=".19925" stroke-linecap="butt" stroke-miterlimit="10" stroke-linejoin="miter" fill="none" stroke="#7f807f" d=""/>
<path transform="matrix(1,0,0,-1.00006,2.0960007,98.68896)" stroke-width=".19925" stroke-linecap="butt" stroke-miterlimit="10" stroke-linejoin="miter" fill="none" stroke="#7f807f" d=""/>
<path transform="matrix(1,0,0,-1.00006,2.0960007,98.68896)" stroke-width=".19925" stroke-linecap="butt" stroke-miterlimit="10" stroke-linejoin="miter" fill="none" stroke="#7f807f" d=""/>
<path transform="matrix(1,0,0,-1.00006,2.0960007,98.68896)" stroke-width=".3985" stroke-linecap="butt" stroke-miterlimit="10" stroke-linejoin="miter" fill="none" stroke="#000000" d="M0 48.44261H94.89272"/>
<path transform="matrix(1,0,0,-1.00006,96.98872,50.243444)" d="M1.99252 0-1.19551 1.59401 0 0-1.19551-1.59401"/>
<path transform="matrix(1,0,0,-1.00006,2.0960007,98.68896)" stroke-width=".3985" stroke-linecap="butt" stroke-miterlimit="10" stroke-linejoin="miter" fill="none" stroke="#000000" d="M48.44261 0V94.89272"/>
<path transform="matrix(0,-1.00006,-1,-0,50.538614,3.7905427)" d="M1.99252 0-1.19551 1.59401 0 0-1.19551-1.59401"/>
<g clip-path="url(#clip_1)">
<path transform="matrix(1,0,0,-1.00006,2.0960007,98.68896)" stroke-width="1.49442" stroke-linecap="butt" stroke-miterlimit="10" stroke-linejoin="miter" fill="none" stroke="#1414cc" d="M27.93459 95.4008 27.92825 95.42694 28.27652 94.04213 28.62479 92.69939 28.97307 91.3954 29.32132 90.13087 29.66959 88.90237 30.01787 87.71085 30.36612 86.55362 30.71439 85.43161 31.06267 84.34183 31.41093 83.28392 31.75919 82.25766 32.10747 81.26103 32.45573 80.29517 32.804 79.35602 33.15227 78.44586 33.50053 77.56204 33.84882 76.70412 34.19707 75.87148 34.54533 75.06354 34.89362 74.2795 35.24187 73.5183 35.59013 72.77986 35.93842 72.06299 36.28667 71.36696 36.63493 70.69214 36.98322 70.03632 37.33148 69.4005 37.67975 68.78302 38.02802 68.18385 38.37628 67.60248 38.72455 67.03795 39.07281 66.49007 39.42108 65.95834 39.76936 65.44258 40.11761 64.94153 40.46588 64.45549 40.81416 63.98381 41.16241 63.5265 41.5107 63.0819 41.85896 62.65083 42.20721 62.23204 42.5555 61.82602 42.90376 61.43169 43.25203 61.04924 43.6003 60.67784 43.94856 60.3176 44.29684 59.9676 44.6451 59.62817 44.99336 59.29861 45.34164 58.97896 45.6899 58.66861 46.03816 58.3673 46.38644 58.07501 46.73471 57.79123 47.08296 57.51591 47.43124 57.24867 47.77951 56.98918 48.12778 56.73737 48.47604 56.49481 48.82431 56.25745 49.17259 56.02727 49.52084 55.80443 49.86911 55.5871 50.21739 55.37636 50.56564 55.17282 50.91393 54.97421 51.26219 54.78206 51.61044 54.59546 51.95872 54.4138 52.30699 54.23772 52.65526 54.06729 53.00352 53.90176 53.35179 53.74103 53.70006 53.5843 54.04832 53.43341 54.39659 53.2863 54.74487 53.1434 55.09314 53.00453 55.44139 52.87051 55.78967 52.73972 56.13794 52.61368 56.48619 52.49097 56.83447 52.3713 57.18274 52.25584 57.531 52.14282 57.87927 52.03383 58.22754 51.92805 58.57582 51.82544 58.92407 51.72621 59.27234 51.62917 59.62062 51.5356 59.96887 51.44427 60.31714 51.35547 60.66542 51.2698 61.01369 51.18663 61.36194 51.10599 61.71022 51.02766 62.05849 50.95161 62.40675 50.87733 62.75502 50.80548 63.10329 50.73605 63.45155 50.6683 63.79982 50.60283 64.14809 50.53905 64.49637 50.47769 64.84462 50.41779 65.19289 50.35892 65.54117 50.3032 65.88942 50.2483 66.2377 50.19493 66.58597 50.14336 66.93423 50.09322 67.2825 50.04477 67.63077 49.99713 67.97903 49.95111 68.3273 49.90671 68.67557 49.8639 69.02383 49.82195 69.3721 49.78148 69.72037 49.74191 70.06863 49.70396 70.41692 49.6661 70.76517 49.6305 71.11345 49.59497 71.46172 49.56097 71.80997 49.52869 72.15825 49.4964 72.50652 49.46571 72.85478 49.43503 73.20305 49.40596 73.55132 49.37762 73.89958 49.35017 74.24785 49.32362 74.59612 49.29698 74.9444 49.27194 75.29265 49.24788 75.64091 49.22417 75.9892 49.20116 76.33746 49.1788 76.68571 49.1571 77.034 49.13605 77.38226 49.11563 77.73051 49.09581 78.0788 49.07657 78.42706 49.05789 78.77531 49.03976 79.1236 49.02217 79.47186 49.00511 79.82014 48.98854 80.1684 48.97246 80.51666 48.95683 80.86494 48.9417 81.2132 48.927 81.56146 48.91272 81.90974 48.89888 82.25801 48.88544 82.60626 48.87239 82.95454 48.85973 83.30281 48.84744 83.65108 48.83551 83.99934 48.82394 84.34761 48.81271 84.69588 48.8018 85.04414 48.79123 85.39241 48.78094 85.74069 48.771 86.08894 48.7613 86.43721 48.75194 86.78549 48.74283 87.13374 48.73398 87.48203 48.72539 87.83029 48.71706 88.17856 48.70897 88.52682 48.70113 88.87509 48.69351 89.22336 48.68613 89.57162 48.67894 89.91989 48.67198 90.26816 48.66524 90.61642 48.65868 90.96469 48.65231 91.31296 48.64612 91.66124 48.64014 92.00949 48.63431 92.35777 48.62868 92.70604 48.62318 93.05429 48.61786 93.40257 48.61272 93.75084 48.6077 94.0991 48.60283 94.44737 48.59811 94.79564 48.59352 95.1439 48.58908 95.49217 48.58478 95.84044 48.5806 96.18872 48.57652 96.53697 48.57257 95.39099 48.58513"/>
<path transform="matrix(-.23729,-.97144827,-.97139,.23730423,29.853281,2.5565797)" stroke-width="1.49442" stroke-linecap="round" stroke-linejoin="round" fill="none" stroke="#1414cc" d="M-3.38733 4.37073C-2.76846 1.74825-1.38942 .50992 0 0-1.38942-.50992-2.76846-1.74825-3.38733-4.37073"/>
<path transform="matrix(.9999,.010960657,.01096,-.99995997,98.2341,50.109094)" stroke-width="1.49442" stroke-linecap="round" stroke-linejoin="round" fill="none" stroke="#1414cc" d="M-3.38733 4.37073C-2.76846 1.74825-1.38942 .50992 0 0-1.38942-.50992-2.76846-1.74825-3.38733-4.37073"/>
<path transform="matrix(1,0,0,-1.00006,2.0960007,98.68896)" stroke-width=".99628" stroke-linecap="butt" stroke-miterlimit="10" stroke-linejoin="miter" fill="none" stroke="#1414cc" d="M48.44261 56.51639"/>
<use data-text="(" xlink:href="#font_2_1" transform="matrix(4.9813,0,0,-4.9815986,54.574,39.377405)"/>
<use data-text="0" xlink:href="#font_2_3" transform="matrix(4.9813,0,0,-4.9815986,57.268888,39.377405)"/>
<use data-text="," xlink:href="#font_3_1" transform="matrix(4.9813,0,0,-4.9815986,60.663,39.377405)"/>
<use data-text="a" xlink:href="#font_3_2" transform="matrix(4.9813,0,0,-4.9815986,64.164859,39.377405)"/>
<use data-text=")" xlink:href="#font_2_2" transform="matrix(4.9813,0,0,-4.9815986,68.026,39.377405)"/>
</g>
<path transform="matrix(1,0,0,-1.00006,2.0960007,98.68896)" d="M50.43517 56.51639C50.43517 57.61685 49.54309 58.50894 48.44261 58.50894 47.34215 58.50894 46.45006 57.61685 46.45006 56.51639 46.45006 55.41591 47.34215 54.52383 48.44261 54.52383 49.54309 54.52383 50.43517 55.41591 50.43517 56.51639ZM48.44261 56.51639" fill="#1414cc"/>
<path transform="matrix(1,0,0,-1.00006,2.0960007,98.68896)" stroke-width=".99628" stroke-linecap="butt" stroke-miterlimit="10" stroke-linejoin="miter" fill="none" stroke="#1414cc" d="M50.43517 56.51639C50.43517 57.61685 49.54309 58.50894 48.44261 58.50894 47.34215 58.50894 46.45006 57.61685 46.45006 56.51639 46.45006 55.41591 47.34215 54.52383 48.44261 54.52383 49.54309 54.52383 50.43517 55.41591 50.43517 56.51639ZM48.44261 56.51639"/>
<path transform="matrix(1,0,0,-1.00006,2.0960007,98.68896)" stroke-width=".99628" stroke-linecap="butt" stroke-miterlimit="10" stroke-linejoin="miter" fill="none" stroke="#1414cc" d=""/>
<use data-text="x" xlink:href="#font_4_1" transform="matrix(9.9626,0,0,-9.963197,89.788,46.71384)"/>
<use data-text="y" xlink:href="#font_4_2" transform="matrix(9.9626,0,0,-9.963197,54.067,9.590614)"/>
</svg>
