<svg xmlns="http://www.w3.org/2000/svg" xmlns:xlink="http://www.w3.org/1999/xlink" xmlns:inkscape="http://www.inkscape.org/namespaces/inkscape" version="1.1" width="186" height="185" viewBox="0 0 186 185">
<defs>
<path id="font_1_1" d="M.6589966 .23046875C.6759949 .23046875 .69400027 .23046875 .69400027 .25045777 .69400027 .27046205 .6759949 .27046205 .6589966 .27046205H.117996219C.100997928 .27046205 .08299255 .27046205 .08299255 .25045777 .08299255 .23046875 .100997928 .23046875 .117996219 .23046875H.6589966Z"/>
<path id="font_2_3" d="M.13198853 .327713V.35173036C.13198853 .6047821 .2559967 .64100649 .30699159 .64100649 .33099366 .64100649 .37298585 .634964 .394989 .6007538 .37998963 .6007538 .33999635 .6007538 .33999635 .5557556 .33999635 .524765 .3639984 .5097656 .38598634 .5097656 .4019928 .5097656 .43199159 .51875308 .43199159 .5577545 .43199159 .6178589 .3880005 .6660156 .30499269 .6660156 .1769867 .6660156 .041992189 .5367584 .041992189 .31570436 .041992189 .048553468 .1579895-.022460938 .25099183-.022460938 .3619995-.022460938 .45700074 .07156372 .45700074 .2036438 .45700074 .33070375 .36799623 .4267578 .25698854 .4267578 .18899536 .4267578 .1519928 .37573243 .13198853 .327713M.25099183 .0055389406C.18798828 .0055389406 .1579895 .06556702 .1519928 .080566409 .13398743 .127594 .13398743 .2076416 .13398743 .22564698 .13398743 .30369569 .1659851 .40374757 .2559967 .40374757 .27198792 .40374757 .31799317 .40374757 .34899903 .34172059 .36698915 .30470277 .36698915 .2536621 .36698915 .20463562 .36698915 .15661621 .36698915 .10658264 .34999085 .0705719 .31999208 .010528564 .27398683 .0055389406 .25099183 .0055389406Z"/>
<path id="font_2_2" d="M.2939911 .16503906V.07800293C.2939911 .041992189 .2919922 .0309906 .21798706 .0309906H.19699097V0C.23799134 .0029907227 .2899933 .0029907227 .33198548 .0029907227 .37399293 .0029907227 .4269867 .0029907227 .46798707 0V.0309906H.44699098C.37298585 .0309906 .37098695 .041992189 .37098695 .07800293V.16503906H.47099305V.19602967H.37098695V.65075686C.37098695 .67074587 .37098695 .6767578 .35499574 .6767578 .34599305 .6767578 .34298707 .6767578 .33499146 .66474917L.027999878 .19602967V.16503906H.2939911M.2999878 .19602967H.055999757L.2999878 .5688019V.19602967Z"/>
<path id="font_2_1" d="M.1269989 .07699585 .23298645 .18003845C.3889923 .31811524 .44898988 .3721466 .44898988 .47216798 .44898988 .5860901 .35899354 .6660156 .23699951 .6660156 .12399292 .6660156 .049987794 .57411196 .049987794 .48516847 .049987794 .4291687 .099990848 .4291687 .102996829 .4291687 .11999512 .4291687 .15499878 .44117738 .15499878 .48217774 .15499878 .5081787 .13699341 .5341797 .101989749 .5341797 .09399414 .5341797 .09199524 .5341797 .08898926 .5331726 .11199951 .59806826 .1659851 .63500979 .22399903 .63500979 .31498719 .63500979 .35798646 .5541382 .35798646 .47216798 .35798646 .39215089 .30799867 .31311036 .25299073 .25108338L.06098938 .036987306C.049987794 .025985718 .049987794 .023986817 .049987794 0H.42099L.44898988 .17404175H.42399598C.4189911 .14402771 .4119873 .1000061 .4019928 .084991458 .394989 .07699585 .32899476 .07699585 .30699159 .07699585H.1269989Z"/>
<clipPath id="clip_3">
<path transform="matrix(1.00002,0,0,-1,2.095665,184.15901)" d="M0 .42526H181.93727V182.36255H0Z"/>
</clipPath>
<path id="font_4_2" d="M.5009918 .39942933C.45700074 .38842774 .45498658 .34942628 .45498658 .34542848 .45498658 .3234253 .47200013 .3084259 .49398805 .3084259 .5159912 .3084259 .5499878 .3254242 .5499878 .36842347 .5499878 .42539979 .4869995 .44140626 .44999696 .44140626 .40299989 .44140626 .36499024 .4084015 .34199525 .36943055 .31999208 .4223938 .2679901 .44140626 .22698975 .44140626 .117996219 .44140626 .056991579 .31643678 .056991579 .28840638 .056991579 .27938844 .06399536 .27539063 .07199097 .27539063 .083999637 .27539063 .085998538 .2803955 .08898926 .29240418 .11199951 .36543275 .17199707 .4133911 .22399903 .4133911 .2630005 .4133911 .28199769 .385437 .28199769 .34942628 .28199769 .32943727 .269989 .2834015 .2619934 .25135804 .25498963 .22232056 .23298645 .13320923 .22799683 .11419678 .21398926 .060195924 .17799378 .018234253 .1329956 .018234253 .1289978 .018234253 .102996829 .018234253 .08198547 .032196046 .12799073 .04319763 .12799073 .08518982 .12799073 .0861969 .12799073 .109191898 .10998535 .12319946 .08799744 .12319946 .06098938 .12319946 .03199768 .10018921 .03199768 .062194826 .03199768 .016220093 .08099365-.009765625 .13198853-.009765625 .18499756-.009765625 .22200012 .030197144 .23999024 .062194826 .2619934 .01322937 .30799867-.009765625 .35598756-.009765625 .46499635-.009765625 .5249939 .1151886 .5249939 .143219 .5249939 .15322876 .5169983 .15623474 .5099945 .15623474 .49798585 .15623474 .49598695 .14923096 .49299623 .13922119 .47299195 .07218933 .41600038 .018234253 .35798646 .018234253 .32499696 .018234253 .30099488 .04019165 .30099488 .0821991 .30099488 .10218811 .30699159 .12519837 .32099916 .18127442 .32798768 .21130371 .34999085 .29942323 .35499574 .31843568 .36898805 .37042237 .4039917 .4133911 .44898988 .4133911 .45399476 .4133911 .47999574 .4133911 .5009918 .39942933Z"/>
<path id="font_5_52" d="M.7659912 .3560028C.7659912 .3789978 .74198916 .3789978 .72698977 .3789978H.09799194C.08299255 .3789978 .05899048 .3789978 .05899048 .3560028 .05899048 .3330078 .07899475 .3330078 .09399414 .3330078H.73098757C.74598696 .3330078 .7659912 .3330078 .7659912 .3560028M.7659912 .14398194C.7659912 .16699219 .74598696 .16699219 .73098757 .16699219H.09399414C.07899475 .16699219 .05899048 .16699219 .05899048 .14398194 .05899048 .12098694 .08299255 .12098694 .09799194 .12098694H.72698977C.74198916 .12098694 .7659912 .12098694 .7659912 .14398194Z"/>
<path id="font_6_4" d="M.31399537 .63708499C.31399537 .664032 .31199647 .66503909 .2849884 .66503909 .24398804 .6251831 .19099427 .6013489 .09599304 .6013489V.5683594C.12298584 .5683594 .1769867 .5683594 .23498535 .5953522V.08203125C.23498535 .04499817 .23199463 .032989503 .13699341 .032989503H.101989749V0C.14299011 .0029907227 .22898865 .0029907227 .27398683 .0029907227 .31900025 .0029907227 .4059906 .0029907227 .44699098 0V.032989503H.4119873C.31698609 .032989503 .31399537 .04499817 .31399537 .08203125V.63708499Z"/>
<path id="font_6_6" d="M.25299073 .33370973C.33198548 .33370973 .38198854 .27557374 .38198854 .17037964 .38198854 .045440675 .31098939 .008514404 .2579956 .008514404 .20298767 .008514404 .12799073 .0284729 .09298706 .08137512 .1289978 .08137512 .1539917 .10437012 .1539917 .13737488 .1539917 .16937256 .1309967 .19238281 .09899902 .19238281 .07199097 .19238281 .04399109 .17536927 .04399109 .13537598 .04399109 .04045105 .1459961-.021484375 .2599945-.021484375 .3929901-.021484375 .48599244 .070388797 .48599244 .17037964 .48599244 .25352479 .41999818 .32969667 .31799317 .3517456 .39698792 .37982179 .45599366 .4479828 .45599366 .52804568 .45599366 .6080475 .3659973 .66503909 .2619934 .66503909 .15499878 .66503909 .07398987 .6070404 .07398987 .53105166 .07398987 .49404908 .09899902 .4780426 .125 .4780426 .1559906 .4780426 .17599488 .5000458 .17599488 .52905276 .17599488 .56604006 .14399719 .5800476 .12199402 .5810547 .1639862 .6360321 .24099732 .6390381 .25898744 .6390381 .2849884 .6390381 .36099244 .6310272 .36099244 .52804568 .36099244 .45799256 .33198548 .41589356 .31799317 .39985658 .28799439 .36878968 .2649994 .36679078 .20399475 .3627777 .18499756 .36177064 .1769867 .36076356 .1769867 .3477478 .1769867 .33370973 .18598938 .33370973 .20298767 .33370973H.25299073Z"/>
<path id="font_6_1" d="M.33299256-.25C.34098817-.25 .35299684-.25 .35299684-.23800659 .35299684-.23400879 .35198976-.23300171 .33898927-.22000122 .20199585-.09100342 .16799927 .09498596 .16799927 .25 .16799927 .5379944 .2869873 .6729889 .33799745 .71899417 .35198976 .7319946 .35299684 .73298647 .35299684 .73799136 .35299684 .7429962 .34899903 .75 .33898927 .75 .32299806 .75 .272995 .69898989 .2649994 .6899872 .1309967 .5499878 .102996829 .36999513 .102996829 .25 .102996829 .025985718 .19699097-.15400696 .33299256-.25Z"/>
<path id="font_6_3" d="M.4889984 .31877137C.4889984 .42585755 .47799684 .49090577 .44499208 .55496218 .40098573 .6430359 .31999208 .66503909 .2649994 .66503909 .13899231 .66503909 .09298706 .5709839 .07899475 .5429535 .042999269 .4698944 .040985109 .3708191 .040985109 .31877137 .040985109 .25271607 .04399109 .15162659 .09199524 .07156372 .13798523-.0024871827 .21199036-.021484375 .2649994-.021484375 .31298829-.021484375 .39898683-.0064849855 .44898988 .09257507 .48599244 .16464234 .4889984 .2537079 .4889984 .31877137M.2649994 .006515503C.23098755 .006515503 .1619873 .022521973 .14099121 .12760926 .12998963 .18466187 .12998963 .2787323 .12998963 .33078004 .12998963 .3998413 .12998963 .4698944 .14099121 .5249481 .1619873 .6270294 .23999024 .6370239 .2649994 .6370239 .29899598 .6370239 .36799623 .62002566 .3880005 .5289459 .3999939 .4738922 .3999939 .39883424 .3999939 .33078004 .3999939 .27172853 .3999939 .18165589 .3880005 .12561035 .36698915 .020523072 .2979889 .006515503 .2649994 .006515503Z"/>
<path id="font_4_1" d="M.18699646 .01499939C.18699646-.050109865 .17298889-.10720825 .11099243-.16934204 .10699463-.17234802 .10499573-.17434693 .10499573-.17933655 .10499573-.18734741 .11299133-.19334412 .11999512-.19334412 .13198853-.19334412 .21499634-.114227298 .21499634 .0029907227 .21499634 .066986087 .19099427 .11099243 .14698792 .11099243 .11199951 .11099243 .09199524 .08299255 .09199524 .055999757 .09199524 .027999878 .11099243 0 .147995 0 .17199707 0 .18699646 .01399231 .18699646 .01499939Z"/>
<path id="font_6_5" d="M.28199769 .20405579C.2979889 .21907044 .33999635 .2520752 .35598756 .26608277 .41799928 .32312013 .47698976 .3781433 .47698976 .46917726 .47698976 .588089 .3769989 .66503909 .2519989 .66503909 .13198853 .66503909 .052993776 .57411196 .052993776 .48516847 .052993776 .4361725 .09199524 .4291687 .10598755 .4291687 .1269989 .4291687 .1579895 .4441681 .1579895 .48217774 .1579895 .5341797 .10798645 .5341797 .09599304 .5341797 .125 .6070709 .19198609 .6320343 .24099732 .6320343 .33399964 .6320343 .38198854 .55314639 .38198854 .46917726 .38198854 .36514283 .30899049 .28910829 .19099427 .16804505L.06498718 .037994386C.052993776 .026992798 .052993776 .024993897 .052993776 0H.44799806L.47698976 .17904663H.44599916C.44299317 .1590271 .43499757 .10900879 .4229889 .08999634 .4169922 .08198547 .34098817 .08198547 .32499696 .08198547H.14698792L.28199769 .20405579Z"/>
<path id="font_6_2" d="M.30899049 .25C.30899049 .34500123 .29299928 .45899964 .23098755 .57699587 .18199158 .6689911 .09098816 .75 .07299805 .75 .06298828 .75 .05999756 .7429962 .05999756 .73799136 .05999756 .73399356 .05999756 .7319946 .07199097 .7200012 .21199036 .58699038 .24398804 .4039917 .24398804 .25 .24398804-.037002565 .125-.17300415 .07398987-.2190094 .06098938-.23200989 .05999756-.23300171 .05999756-.23800659 .05999756-.24301148 .06298828-.25 .07299805-.25 .08898926-.25 .13899231-.19900513 .14698792-.19000244 .2809906-.05000305 .30899049 .12998963 .30899049 .25Z"/>
<path id="font_7_1" d="M.33399964 .30233766C.33999635 .32835389 .36299134 .42037965 .43299867 .42037965 .43798829 .42037965 .46199037 .42037965 .48298646 .40734864 .45498658 .402359 .43499757 .37734986 .43499757 .35334779 .43499757 .33735658 .44599916 .31835938 .47299195 .31835938 .49499513 .31835938 .5269928 .3363495 .5269928 .37635804 .5269928 .42837525 .46798707 .4423828 .43399049 .4423828 .37599183 .4423828 .34098817 .38935853 .32899476 .36634828 .3039856 .43237306 .25 .4423828 .22099304 .4423828 .116989139 .4423828 .05999756 .3133545 .05999756 .28834535 .05999756 .27833558 .069992069 .27833558 .07199097 .27833558 .07998657 .27833558 .08299255 .28033448 .084991458 .28933717 .11898804 .39535523 .18499756 .42037965 .21899414 .42037965 .23799134 .42037965 .272995 .4113617 .272995 .35334779 .272995 .32235719 .2559967 .25532533 .21899414 .11528015 .20298767 .053268434 .16799927 .011245728 .12399292 .011245728 .117996219 .011245728 .09498596 .011245728 .07398987 .024276734 .09899902 .029266358 .12098694 .05027771 .12098694 .07827759 .12098694 .105270389 .09899902 .11328125 .083999637 .11328125 .053985597 .11328125 .0289917 .08728027 .0289917 .055267335 .0289917 .009246826 .07899475-.0107421879 .12298584-.0107421879 .18899536-.0107421879 .22499085 .059280397 .22799683 .0652771 .23999024 .028274537 .27598573-.0107421879 .33599855-.0107421879 .43899537-.0107421879 .49598695 .118270877 .49598695 .14328003 .49598695 .1532898 .4869995 .1532898 .48399354 .1532898 .47499085 .1532898 .47299195 .14929199 .47099305 .14228821 .43798829 .03527832 .36999513 .011245728 .33799745 .011245728 .29899598 .011245728 .2829895 .043273927 .2829895 .07727051 .2829895 .09927368 .2889862 .121276859 .2999878 .16529846L.33399964 .30233766Z"/>
<path id="font_7_2" d="M.48599244 .38136292C.48999024 .39537049 .48999024 .39736939 .48999024 .40437318 .48999024 .42237855 .47599793 .43138124 .46099855 .43138124 .45098878 .43138124 .43499757 .42536927 .42599488 .41036988 .42399598 .405365 .41600038 .37435914 .4119873 .35635377 .40499879 .33035279 .397995 .30334474 .3919983 .27633668L.34700013 .09628296C.34298707 .08126831 .2999878 .011245728 .23399353 .011245728 .18299866 .011245728 .17199707 .055267335 .17199707 .0922699 .17199707 .1382904 .18899536 .20030213 .22299195 .28833009 .23899842 .3293457 .24299622 .3403473 .24299622 .36035157 .24299622 .405365 .21099854 .4423828 .16099549 .4423828 .06599426 .4423828 .0289917 .29733277 .0289917 .28833009 .0289917 .27833558 .038986207 .27833558 .040985109 .27833558 .050994874 .27833558 .051986696 .28033448 .056991579 .29634095 .083999637 .3903656 .12399292 .42037965 .1579895 .42037965 .1659851 .42037965 .18299866 .42037965 .18299866 .3883667 .18299866 .36335755 .17298889 .3373413 .1659851 .31834413 .12599182 .21231079 .10798645 .1552887 .10798645 .10827637 .10798645 .019256592 .17098999-.0107421879 .22999573-.0107421879 .2689972-.0107421879 .30299378 .0062561037 .33099366 .03425598 .31799317-.017745972 .30599977-.06674194 .2659912-.11973572 .23999024-.15385437 .20199585-.18309021 .1559906-.18309021 .14199829-.18309021 .09700012-.18005371 .07998657-.14074707 .09599304-.14074707 .10899353-.14074707 .12298584-.1287384 .1329956-.11973572 .14299011-.10673523 .14299011-.08773804 .14299011-.056747438 .115997318-.052734376 .10598755-.052734376 .08299255-.052734376 .049987794-.068740848 .049987794-.11773682 .049987794-.16796875 .09399414-.20507813 .1559906-.20507813 .25898744-.20507813 .3619995-.11373901 .3899994-.00074768069L.48599244 .38136292Z"/>
</defs>
<path transform="matrix(1.00002,0,0,-1,2.095665,184.15901)" stroke-width=".3985" stroke-linecap="butt" stroke-miterlimit="10" stroke-linejoin="miter" fill="none" stroke="#404040" d="M0 .42526H181.93727V182.36255H0Z"/>
<path transform="matrix(1.00002,0,0,-1,2.095665,184.15901)" stroke-width=".3985" stroke-linecap="butt" stroke-miterlimit="10" stroke-linejoin="miter" fill="none" stroke="#bfbfbf" d="M11.37108 .42526V182.36255M34.11324 .42526V182.36255M56.8554 .42526V182.36255M79.59755 .42526V182.36255M102.3397 .42526V182.36255M125.08186 .42526V182.36255M147.82404 .42526V182.36255M170.5662 .42526V182.36255"/>
<path transform="matrix(1.00002,0,0,-1,2.095665,184.15901)" stroke-width=".3985" stroke-linecap="butt" stroke-miterlimit="10" stroke-linejoin="miter" fill="none" stroke="#bfbfbf" d="M22.74216 .42526V182.36255M45.48431 .42526V182.36255M68.22647 .42526V182.36255M113.71078 .42526V182.36255M136.45296 .42526V182.36255M159.19512 .42526V182.36255"/>
<path transform="matrix(1.00002,0,0,-1,2.095665,184.15901)" stroke-width=".3985" stroke-linecap="butt" stroke-miterlimit="10" stroke-linejoin="miter" fill="none" stroke="#bfbfbf" d="M0 11.79634H181.93727M0 34.53851H181.93727M0 57.28067H181.93727M0 80.02283H181.93727M0 102.76498H181.93727M0 125.50714H181.93727M0 148.2493H181.93727M0 170.99147H181.93727"/>
<path transform="matrix(1.00002,0,0,-1,2.095665,184.15901)" stroke-width=".3985" stroke-linecap="butt" stroke-miterlimit="10" stroke-linejoin="miter" fill="none" stroke="#bfbfbf" d="M0 23.16743H181.93727M0 45.90959H181.93727M0 68.65175H181.93727M0 114.13606H181.93727M0 136.87822H181.93727M0 159.62039H181.93727"/>
<path transform="matrix(1.00002,0,0,-1,2.095665,184.15901)" stroke-width=".19925" stroke-linecap="butt" stroke-miterlimit="10" stroke-linejoin="miter" fill="none" stroke="#7f807f" d="M11.37108 89.97652V92.8113M34.11324 89.97652V92.8113M56.8554 89.97652V92.8113M79.59755 89.97652V92.8113M102.3397 89.97652V92.8113M125.08186 89.97652V92.8113M147.82404 89.97652V92.8113M170.5662 89.97652V92.8113"/>
<path transform="matrix(1.00002,0,0,-1,2.095665,184.15901)" stroke-width=".19925" stroke-linecap="butt" stroke-miterlimit="10" stroke-linejoin="miter" fill="none" stroke="#7f807f" d="M22.74216 89.26804V93.51976M45.48431 89.26804V93.51976M68.22647 89.26804V93.51976M113.71078 89.26804V93.51976M136.45296 89.26804V93.51976M159.19512 89.26804V93.51976"/>
<path transform="matrix(1.00002,0,0,-1,2.095665,184.15901)" stroke-width=".19925" stroke-linecap="butt" stroke-miterlimit="10" stroke-linejoin="miter" fill="none" stroke="#7f807f" d="M89.55124 11.79634H92.38602M89.55124 34.53851H92.38602M89.55124 57.28067H92.38602M89.55124 80.02283H92.38602M89.55124 102.76498H92.38602M89.55124 125.50714H92.38602M89.55124 148.2493H92.38602M89.55124 170.99147H92.38602"/>
<path transform="matrix(1.00002,0,0,-1,2.095665,184.15901)" stroke-width=".19925" stroke-linecap="butt" stroke-miterlimit="10" stroke-linejoin="miter" fill="none" stroke="#7f807f" d="M88.84276 23.16743H93.0945M88.84276 45.90959H93.0945M88.84276 68.65175H93.0945M88.84276 114.13606H93.0945M88.84276 136.87822H93.0945M88.84276 159.62039H93.0945"/>
<path transform="matrix(1.00002,0,0,-1,2.095665,184.15901)" stroke-width=".3985" stroke-linecap="butt" stroke-miterlimit="10" stroke-linejoin="miter" fill="none" stroke="#000000" d="M0 91.3939H179.94475"/>
<path transform="matrix(1.00002,0,0,-1,182.044,92.765117)" d="M1.99252 0-1.19551 1.59401 0 0-1.19551-1.59401"/>
<path transform="matrix(1.00002,0,0,-1,2.095665,184.15901)" stroke-width=".3985" stroke-linecap="butt" stroke-miterlimit="10" stroke-linejoin="miter" fill="none" stroke="#000000" d="M90.96863 .42526V180.37003"/>
<path transform="matrix(0,-1,-1.00002,-0,93.06612,3.7889863)" d="M1.99252 0-1.19551 1.59401 0 0-1.19551-1.59401"/>
<use data-text="&#x2212;" xlink:href="#font_1_1" transform="matrix(9.962799,0,0,-9.9626,18.472992,104.83101)"/>
<use data-text="6" xlink:href="#font_2_3" transform="matrix(9.962799,0,0,-9.9626,26.222146,104.83101)"/>
<use data-text="&#x2212;" xlink:href="#font_1_1" transform="matrix(9.962799,0,0,-9.9626,41.215448,104.83101)"/>
<use data-text="4" xlink:href="#font_2_2" transform="matrix(9.962799,0,0,-9.9626,48.9646,104.83101)"/>
<use data-text="&#x2212;" xlink:href="#font_1_1" transform="matrix(9.962799,0,0,-9.9626,63.957906,104.83101)"/>
<use data-text="2" xlink:href="#font_2_1" transform="matrix(9.962799,0,0,-9.9626,71.70706,104.83101)"/>
<use data-text="2" xlink:href="#font_2_1" transform="matrix(9.962799,0,0,-9.9626,113.317897,104.83101)"/>
<use data-text="4" xlink:href="#font_2_2" transform="matrix(9.962799,0,0,-9.9626,136.06037,104.83101)"/>
<use data-text="6" xlink:href="#font_2_3" transform="matrix(9.962799,0,0,-9.9626,158.8028,104.83101)"/>
<use data-text="&#x2212;" xlink:href="#font_1_1" transform="matrix(9.962799,0,0,-9.9626,74.690128,163.78702)"/>
<use data-text="6" xlink:href="#font_2_3" transform="matrix(9.962799,0,0,-9.9626,82.43928,163.78702)"/>
<use data-text="&#x2212;" xlink:href="#font_1_1" transform="matrix(9.962799,0,0,-9.9626,74.690128,141.04502)"/>
<use data-text="4" xlink:href="#font_2_2" transform="matrix(9.962799,0,0,-9.9626,82.43928,141.04502)"/>
<use data-text="&#x2212;" xlink:href="#font_1_1" transform="matrix(9.962799,0,0,-9.9626,74.690128,118.30201)"/>
<use data-text="2" xlink:href="#font_2_1" transform="matrix(9.962799,0,0,-9.9626,82.43928,118.30201)"/>
<use data-text="2" xlink:href="#font_2_1" transform="matrix(9.962799,0,0,-9.9626,82.43928,73.23301)"/>
<use data-text="4" xlink:href="#font_2_2" transform="matrix(9.962799,0,0,-9.9626,82.43928,50.491014)"/>
<use data-text="6" xlink:href="#font_2_3" transform="matrix(9.962799,0,0,-9.9626,82.43928,27.749009)"/>
<g clip-path="url(#clip_3)">
<path transform="matrix(1.00002,0,0,-1,2.095665,184.15901)" stroke-width=".99628" stroke-linecap="butt" stroke-dasharray="2.98883,2.98883" stroke-miterlimit="10" stroke-linejoin="miter" fill="none" stroke="#1414cc" d="M1.969 108.45053H179.96826"/>
<path transform="matrix(-1.00002,-0,0,1,4.0647046,75.70848)" stroke-width=".79701" stroke-linecap="round" stroke-linejoin="round" fill="none" stroke="#1414cc" d="M-1.73352 2.31136C-1.58905 1.4446 0 .14444 .43336 0 0-.14444-1.58905-1.4446-1.73352-2.31136"/>
<path transform="matrix(1.00002,0,0,-1,182.06754,75.70848)" stroke-width=".79701" stroke-linecap="round" stroke-linejoin="round" fill="none" stroke="#1414cc" d="M-1.73352 2.31136C-1.58905 1.4446 0 .14444 .43336 0 0-.14444-1.58905-1.4446-1.73352-2.31136"/>
<path transform="matrix(1.00002,0,0,-1,2.095665,184.15901)" stroke-width=".99628" stroke-linecap="butt" stroke-dasharray="2.98883,2.98883" stroke-miterlimit="10" stroke-linejoin="miter" fill="none" stroke="#ff801a" d="M102.3397 181.53064V1.25717"/>
<path transform="matrix(0,-1,-1.00002,-0,104.437419,2.6283723)" stroke-width=".79701" stroke-linecap="round" stroke-linejoin="round" fill="none" stroke="#ff801a" d="M-1.73352 2.31136C-1.58905 1.4446 0 .14444 .43336 0 0-.14444-1.58905-1.4446-1.73352-2.31136"/>
<path transform="matrix(0,1,1.00002,0,104.437419,182.90184)" stroke-width=".79701" stroke-linecap="round" stroke-linejoin="round" fill="none" stroke="#ff801a" d="M-1.73352 2.31136C-1.58905 1.4446 0 .14444 .43336 0 0-.14444-1.58905-1.4446-1.73352-2.31136"/>
<use data-text="x" xlink:href="#font_4_2" transform="matrix(7.9702599,0,0,-7.9701,81.06124,180.61602)"/>
<use data-text="=" xlink:href="#font_5_52" transform="matrix(7.9702599,0,0,-7.9701,87.239368,180.61602)"/>
<use data-text="1" xlink:href="#font_6_4" transform="matrix(7.9702599,0,0,-7.9701,95.15153,180.61602)"/>
<path transform="matrix(1.00002,0,0,-1,2.095665,184.15901)" stroke-width=".99628" stroke-linecap="butt" stroke-dasharray="2.98883,2.98883" stroke-miterlimit="10" stroke-linejoin="miter" fill="none" stroke="#ff801a" d="M125.08186 181.53064V1.25717"/>
<path transform="matrix(0,-1,-1.00002,-0,127.18003,2.6283723)" stroke-width=".79701" stroke-linecap="round" stroke-linejoin="round" fill="none" stroke="#ff801a" d="M-1.73352 2.31136C-1.58905 1.4446 0 .14444 .43336 0 0-.14444-1.58905-1.4446-1.73352-2.31136"/>
<path transform="matrix(0,1,1.00002,0,127.18003,182.90184)" stroke-width=".79701" stroke-linecap="round" stroke-linejoin="round" fill="none" stroke="#ff801a" d="M-1.73352 2.31136C-1.58905 1.4446 0 .14444 .43336 0 0-.14444-1.58905-1.4446-1.73352-2.31136"/>
<use data-text="x" xlink:href="#font_4_2" transform="matrix(7.9702599,0,0,-7.9701,132.23126,180.61602)"/>
<use data-text="=" xlink:href="#font_5_52" transform="matrix(7.9702599,0,0,-7.9701,138.4094,180.61602)"/>
<use data-text="3" xlink:href="#font_6_6" transform="matrix(7.9702599,0,0,-7.9701,146.32157,180.61602)"/>
<path transform="matrix(1.00002,0,0,-1,2.095665,184.15901)" stroke-width=".99628" stroke-linecap="butt" stroke-miterlimit="10" stroke-linejoin="miter" fill="none" stroke="#1414cc" d="M.8319 108.62279 .25336 108.62347 .50674 108.62416 .76013 108.62508 1.01352 108.62598 1.2669 108.62666 1.52028 108.62746 1.77367 108.62825 2.02705 108.62927 2.28044 108.62996 2.53383 108.63077 2.7872 108.63165 3.04059 108.63246 3.29398 108.63338 3.54736 108.63405 3.80075 108.63518 4.05414 108.63586 4.30751 108.63666 4.56088 108.63757 4.81427 108.63849 5.06766 108.63951 5.32104 108.64041 5.57442 108.64122 5.8278 108.64214 6.08119 108.64316 6.33458 108.64394 6.58797 108.64485 6.84134 108.64577 7.09473 108.64679 7.34811 108.64758 7.6015 108.64871 7.85489 108.64975 8.10828 108.65067 8.36165 108.65155 8.61504 108.65247 8.86842 108.6535 9.1218 108.6544 9.37518 108.65565 9.62856 108.65645 9.88194 108.65747 10.13533 108.65862 10.38872 108.65962 10.6421 108.66066 10.89548 108.66168 11.14886 108.66293 11.40225 108.66373 11.65564 108.66475 11.90903 108.666 12.16241 108.66704 12.41579 108.66805 12.66917 108.6693 12.92256 108.67033 13.17595 108.67159 13.42932 108.67259 13.6827 108.67384 13.93608 108.67488 14.18947 108.67612 14.44286 108.67714 14.69624 108.67851 14.94962 108.67955 15.203 108.68079 15.45639 108.68204 15.70978 108.68318 15.96317 108.68442 16.21655 108.68567 16.46992 108.68681 16.72331 108.68817 16.9767 108.68965 17.23009 108.6908 17.48347 108.69205 17.73685 108.6933 17.99022 108.69466 18.2436 108.69592 18.497 108.69727 18.75038 108.69864 19.00375 108.69989 19.25714 108.70125 19.51053 108.70285 19.76392 108.7041 20.0173 108.70546 20.27069 108.70694 20.52406 108.70819 20.77745 108.70978 21.03084 108.71115 21.28423 108.71252 21.53761 108.71387 21.79099 108.7157 22.04437 108.71706 22.29776 108.71854 22.55113 108.72002 22.80452 108.7215 23.05789 108.72331 23.31128 108.72469 23.56467 108.72627 23.81805 108.72775 24.07144 108.72957 24.32483 108.73093 24.5782 108.73288 24.83159 108.73422 25.08498 108.73595 25.33836 108.73764 25.59175 108.73935 25.84512 108.74095 26.09851 108.74275 26.3519 108.74448 26.60529 108.74617 26.85866 108.74788 27.11205 108.74957 27.36542 108.75151 27.6188 108.75334 27.8722 108.75526 28.12558 108.75697 28.37897 108.75879 28.63234 108.76073 28.88573 108.76265 29.13911 108.76459 29.3925 108.76653 29.64589 108.76834 29.89926 108.77026 30.15265 108.77232 30.40604 108.77425 30.65942 108.77641 30.91281 108.77823 31.1662 108.78029 31.41956 108.78255 31.67294 108.78448 31.92633 108.78665 32.17972 108.7887 32.4331 108.79108 32.68648 108.79393 32.93987 108.79506 33.19325 108.79735 33.44664 108.80075 33.70003 108.8019 33.9534 108.80302 34.20679 108.80757 34.46017 108.80872 34.71356 108.81097 34.96695 108.8144 35.22034 108.81554 35.47371 108.81781 35.7271 108.82123 35.98047 108.82236 36.23386 108.82578 36.48724 108.82803 36.74062 108.83145 36.994 108.83372 37.24739 108.83714 37.50078 108.83829 37.75417 108.84169 38.00754 108.84396 38.26093 108.84737 38.51431 108.84851 38.7677 108.85191 39.02109 108.85535 39.27448 108.8576 39.52785 108.86102 39.78123 108.86443 40.03462 108.86671 40.288 108.87012 40.54138 108.87352 40.79475 108.87466 41.04814 108.87808 41.30153 108.88263 41.55492 108.88489 41.8083 108.8883 42.06168 108.89058 42.31506 108.894 42.56845 108.8974 42.82184 108.90082 43.07523 108.90424 43.32861 108.90764 43.58199 108.91106 43.83537 108.91446 44.08876 108.91788 44.34215 108.92128 44.59554 108.9247 44.84889 108.92812 45.10228 108.93266 45.35567 108.93607 45.60905 108.93948 45.86244 108.94289 46.11581 108.94743 46.3692 108.95085 46.62259 108.95425 46.87598 108.95767 47.12936 108.96336 47.38275 108.96677 47.63612 108.97017 47.88951 108.97586 48.1429 108.97939 48.39629 108.9837 48.64967 108.98792 48.90305 108.99236 49.15643 108.99667 49.4098 109.00111 49.6632 109.00555 49.91658 109.01021 50.16995 109.01476 50.42334 109.01941 50.67673 109.0243 50.93011 109.02898 51.1835 109.03386 51.43689 109.03886 51.69026 109.04375 51.94365 109.04875 52.19704 109.05399 52.45042 109.05922 52.70381 109.06444 52.95718 109.0698 53.21057 109.07513 53.46396 109.08047 53.71733 109.08617 53.97072 109.09163 54.2241 109.0973 54.47748 109.1031 54.73087 109.10913 54.98425 109.11493 55.23764 109.12096 55.49103 109.1271 55.7444 109.13313 55.99779 109.13939 56.25117 109.14574 56.50456 109.15211 56.75795 109.1586 57.01132 109.1652 57.26471 109.17201 57.5181 109.17873 57.77148 109.18567 58.02487 109.1926 58.27824 109.19975 58.53162 109.20703 58.785 109.21432 59.03839 109.22183 59.29178 109.22922 59.54517 109.23683 59.79854 109.24467 60.05193 109.25252 60.30531 109.26048 60.5587 109.26866 60.81209 109.27673 61.06546 109.28526 61.31885 109.2938 61.57224 109.30222 61.82562 109.31108 62.07901 109.31996 62.3324 109.32916 62.58577 109.33815 62.83914 109.3476 63.09253 109.35715 63.34592 109.3668 63.5993 109.37659 63.85268 109.38635 64.10606 109.39648 64.35945 109.40683 64.61284 109.4173 64.86623 109.42786 65.1196 109.43867 65.37299 109.44981 65.62637 109.46085 65.87976 109.47232 66.13315 109.48383 66.38654 109.49553 66.63991 109.50758 66.8933 109.51987 67.14667 109.53214 67.40005 109.54488 67.65344 109.55772 67.90681 109.57068 68.1602 109.5841 68.41359 109.59764 68.66698 109.61151 68.92036 109.6255 69.17374 109.63994 69.42712 109.6545 69.68051 109.6695 69.9339 109.68451 70.18729 109.70021 70.44067 109.71579 70.69405 109.73193 70.94743 109.74841 71.20082 109.76503 71.45421 109.78209 71.70758 109.79935 71.96095 109.81732 72.21434 109.8353 72.46773 109.85371 72.72112 109.87259 72.9745 109.89182 73.22787 109.91148 73.48126 109.93161 73.73465 109.95207 73.98804 109.97311 74.24142 109.99438 74.49481 110.01631 74.74818 110.0385 75.00157 110.06134 75.25496 110.08453 75.50835 110.10855 75.76173 110.133 76.0151 110.1579 76.26848 110.18347 76.52187 110.20963 76.77525 110.23624 77.02864 110.26364 77.28201 110.29184 77.5354 110.32039 77.78879 110.34995 78.04218 110.37996 78.29556 110.41101 78.54895 110.44273 78.80232 110.47514 79.05571 110.50835 79.3091 110.54257 79.56248 110.57771 79.81587 110.61365 80.06924 110.65048 80.32263 110.68835 80.576 110.72746 80.82939 110.76738 81.08278 110.80853 81.33617 110.85085 81.58954 110.89417 81.84293 110.93896 82.09631 110.98502 82.3497 111.03232 82.60309 111.08087 82.85648 111.13136 83.10985 111.1831 83.36324 111.23643 83.61662 111.29124 83.87001 111.34787 84.1234 111.4062 84.37677 111.46658 84.63016 111.52913 84.88354 111.59349 85.13692 111.6599 85.3903 111.72858 85.64369 111.79976 85.89706 111.87321 86.15045 111.9494 86.40384 112.02899 86.65723 112.11087 86.91061 112.19615 87.164 112.28258 87.41737 112.3747 87.67076 112.4702 87.92415 112.56912 88.17754 112.66919 88.43092 112.77722 88.68431 112.88866 88.93768 113.00237 89.19107 113.12404 89.44444 113.24911 89.69783 113.38103 89.95122 113.51749 90.20459 113.66188 90.45798 113.81085 90.71136 113.9689 90.96475 114.13379 91.21814 114.3055 91.47153 114.48857 91.7249 114.67845 91.97829 114.87973 92.23167 115.09123 92.48506 115.31523 92.73845 115.5529 92.99184 115.80261 93.24521 116.06755 93.4986 116.34888 93.75198 116.6476 94.00536 116.96564 94.25874 117.30484 94.51213 117.66734 94.7655 118.05533 95.01889 118.47139 95.27228 118.91885 95.52567 119.40121 95.77905 119.92258 96.03242 120.4875 96.28581 121.10153 96.5392 121.77151 96.79259 122.50473 97.04597 123.31047 97.29936 124.1998 97.55273 125.18614 97.80612 126.28572 98.05951 127.51869 98.3129 128.9104 98.56627 130.4929 98.81966 132.30751 99.07303 134.40842 99.32642 136.8681 99.5798 139.78557 99.83319 143.29947 100.08658 147.61025 100.33997 153.02516 100.59334 160.02065 100.84673 169.40406 101.08421 181.80715"/>
<path transform="matrix(-1.00002,-0,0,1,2.9275819,75.536228)" stroke-width=".79701" stroke-linecap="round" stroke-linejoin="round" fill="none" stroke="#1414cc" d="M-1.73352 2.31136C-1.58905 1.4446 0 .14444 .43336 0 0-.14444-1.58905-1.4446-1.73352-2.31136"/>
<path transform="matrix(.019120384,-.99979,-.99981006,-.01912,103.1819,2.3518677)" stroke-width=".79701" stroke-linecap="round" stroke-linejoin="round" fill="none" stroke="#1414cc" d="M-1.73352 2.31136C-1.58905 1.4446 0 .14444 .43336 0 0-.14444-1.58905-1.4446-1.73352-2.31136"/>
<path transform="matrix(1.00002,0,0,-1,2.095665,184.15901)" stroke-width=".99628" stroke-linecap="butt" stroke-miterlimit="10" stroke-linejoin="miter" fill="none" stroke="#1414cc" d="M103.28 .8318 103.32445 5.5161 103.37677 10.47276 103.4291 14.95296 103.48143 19.02153 103.53374 22.73305 103.58606 26.13185 103.63838 29.2555 103.6907 32.13579 103.74303 34.80005 103.79535 37.2744 103.84767 39.57361 103.9 41.7182 103.9523 43.72406 104.00464 45.60257 104.05696 47.36623 104.10928 49.02527 104.16159 50.5865 104.21391 52.06134 104.26624 53.4543 104.31857 54.77449 104.3709 56.02417 104.4232 57.2113 104.47552 58.34044 104.52785 59.41501 104.58018 60.43614 104.63249 61.41177 104.68481 62.34306 104.73714 63.23343 104.78946 64.08511 104.84178 64.90044 104.8941 65.68161 104.94643 66.43097 104.99875 67.15076 105.05106 67.8444 105.10338 68.50847 105.15572 69.1464 105.20804 69.76042 105.26035 70.35399 105.31267 70.92482 105.36499 71.47632 105.41733 72.00961 105.46965 72.5236 105.52196 73.01938 105.57428 73.4981 105.6266 73.96204 105.67892 74.41096 105.73125 74.84557 105.78357 75.26642 105.83589 75.67418 105.88821 76.06921 105.94052 76.45276 105.99286 76.82448 106.04518 77.1854 106.0975 77.53563 106.14981 77.87596 106.20213 78.20653 106.25447 78.52776 106.3068 78.84024 106.35912 79.14395 106.41142 79.43948 106.46375 79.72694 106.51607 80.00702 106.5684 80.27959 106.62071 80.54486 106.67303 80.80356 106.72536 81.05554 106.77768 81.30127 106.83 81.54063 106.88232 81.77397 106.93465 82.00185 106.98697 82.22382 107.03928 82.44089 107.0916 82.65239 107.14394 82.85876 107.19626 83.06041 107.24857 83.25732 107.30089 83.44968 107.35321 83.63757 107.40555 83.82117 107.45787 84.00055 107.51018 84.17592 107.5625 84.34732 107.61482 84.51491 107.66716 84.67879 107.71947 84.83904 107.77179 84.99579 107.82411 85.14911 107.87643 85.29912 107.92874 85.44589 107.98108 85.58952 108.0334 85.73007 108.08572 85.86765 108.13803 86.00232 108.19035 86.13417 108.24269 86.26326 108.29501 86.38965 108.34734 86.51338 108.39964 86.63458 108.45197 86.7533 108.5043 86.86952 108.55663 86.9834 108.60893 87.09496 108.66125 87.20421 108.71358 87.3113 108.7659 87.41615 108.81822 87.5189 108.87054 87.61957 108.92287 87.71823 108.97519 87.81488 109.0275 87.90962 109.07983 88.00244 109.13216 88.09337 109.18448 88.1825 109.23679 88.26982 109.28911 88.3554 109.34143 88.43929 109.39377 88.52145 109.44609 88.60199 109.4984 88.6809 109.55072 88.75824 109.60304 88.834 109.65538 88.90823 109.70769 88.98099 109.76001 89.05226 109.81233 89.12207 109.86465 89.19049 109.91698 89.25746 109.9693 89.32309 110.02162 89.38736 110.07394 89.45032 110.12625 89.51198 110.17857 89.57233 110.23091 89.63144 110.28323 89.6893 110.33556 89.74594 110.38786 89.80138 110.44019 89.85562 110.49252 89.90868 110.54485 89.9606 110.59715 90.01138 110.64948 90.06105 110.7018 90.10965 110.75414 90.15712 110.80644 90.20354 110.85876 90.2489 110.91109 90.2932 110.96341 90.33649 111.01572 90.37875 111.06805 90.42001 111.12038 90.4603 111.1727 90.49959 111.225 90.5379 111.27733 90.57529 111.32967 90.61168 111.38199 90.64719 111.43431 90.68172 111.48662 90.7154 111.53894 90.74811 111.59126 90.77995 111.6436 90.81093 111.6959 90.841 111.74823 90.87022 111.80055 90.89857 111.85287 90.92607 111.9052 90.95273 111.95752 90.97853 112.00984 91.00352 112.06216 91.02768 112.11447 91.05101 112.16681 91.07353 112.21913 91.09525 112.27145 91.11617 112.32378 91.13629 112.37608 91.15562 112.4284 91.17418 112.48074 91.19196 112.53307 91.20894 112.58537 91.22517 112.6377 91.24065 112.69002 91.25534 112.74236 91.26929 112.79466 91.28246 112.84698 91.2949 112.8993 91.3066 112.95163 91.31755 113.00394 91.32774 113.05627 91.3372 113.1086 91.34593 113.16092 91.35393 113.21324 91.36118 113.26555 91.3677 113.31789 91.37352 113.37021 91.37859 113.42253 91.38293 113.47484 91.38655 113.52716 91.38945 113.5795 91.39163 113.63182 91.39308 113.68413 91.39381H113.73645L113.78877 91.3931 113.8411 91.39166 113.89342 91.3895 113.94574 91.38661 113.99806 91.38301 114.05038 91.37868 114.10269 91.37361 114.15503 91.36783 114.20735 91.36131 114.25967 91.35406 114.312 91.3461 114.3643 91.33737 114.41664 91.32793 114.46896 91.31775 114.52129 91.3068 114.5736 91.29512 114.62592 91.2827 114.67824 91.26955 114.73058 91.2556 114.78288 91.24094 114.8352 91.22546 114.88753 91.20926 114.93985 91.19228 114.99217 91.17453 115.0445 91.15598 115.09682 91.13666 115.14914 91.11655 115.20146 91.09564 115.25377 91.07394 115.3061 91.05144 115.35843 91.02812 115.41075 91.00398 115.46306 90.97902 115.51538 90.95322 115.56772 90.92659 115.62004 90.8991 115.67235 90.87076 115.72467 90.84157 115.777 90.81151 115.82933 90.78056 115.88164 90.74873 115.93396 90.71602 115.98628 90.68237 116.0386 90.64784 116.09091 90.61234 116.14325 90.57596 116.19557 90.5386 116.2479 90.50032 116.30022 90.46104 116.35252 90.42078 116.40486 90.37953 116.45718 90.3373 116.5095 90.29402 116.56181 90.24973 116.61414 90.20439 116.66646 90.158 116.7188 90.11053 116.7711 90.06197 116.82343 90.01231 116.87575 89.96156 116.92807 89.90967 116.9804 89.85661 117.03271 89.8024 117.08504 89.74696 117.13736 89.69037 117.18968 89.63252 117.242 89.57346 117.29433 89.5131 117.34665 89.45149 117.39897 89.38855 117.45128 89.32431 117.5036 89.25873 117.55594 89.19171 117.60826 89.12335 117.66057 89.05357 117.71289 88.98233 117.76521 88.9096 117.81755 88.83542 117.86986 88.75967 117.92218 88.68237 117.9745 88.60349 118.02682 88.52296 118.07915 88.44083 118.13147 88.357 118.18379 88.27145 118.23611 88.18414 118.28844 88.09503 118.34074 88.00415 118.39308 87.91135 118.4454 87.81668 118.49773 87.72006 118.55003 87.62143 118.60236 87.5208 118.6547 87.4181 118.70702 87.31326 118.75932 87.20625 118.81165 87.09702 118.86397 86.9855 118.91629 86.8717 118.96861 86.75546 119.02094 86.63683 119.07326 86.51569 119.12558 86.39198 119.1779 86.26566 119.23022 86.13663 119.28255 86.00482 119.33487 85.87021 119.38719 85.73268 119.4395 85.59218 119.49184 85.4486 119.54416 85.30191 119.59648 85.15196 119.64879 84.99867 119.70111 84.84201 119.75343 84.6818 119.80577 84.51802 119.85808 84.3505 119.9104 84.17915 119.96272 84.00389 120.01505 83.82457 120.06737 83.64105 120.11969 83.45323 120.17201 83.26099 120.22433 83.06413 120.27666 82.86263 120.32898 82.65614 120.3813 82.44487 120.43362 82.22813 120.48595 82.00604 120.53825 81.77817 120.59058 81.54506 120.64291 81.30571 120.69524 81.06009 120.74754 80.80835 120.79987 80.54999 120.85219 80.2847 120.90453 80.01225 120.95683 79.73251 121.00916 79.44484 121.06148 79.14952 121.1138 78.84592 121.16612 78.53378 121.21844 78.21243 121.27077 77.88222 121.32309 77.54222 121.37541 77.19188 121.42772 76.83131 121.48006 76.4597 121.53238 76.0767 121.5847 75.68169 121.63701 75.27403 121.68933 74.85353 121.74167 74.41937 121.79399 73.96999 121.8463 73.5072 121.89862 73.02847 121.95094 72.53156 122.00327 72.0176 122.0556 71.48769 122.10791 70.93733 122.16023 70.36423 122.21255 69.77293 122.26488 69.1589 122.3172 68.51984 122.36952 67.85577 122.42184 67.16554 122.47417 66.44576 122.52647 65.69753 122.5788 64.91635 122.63113 64.10103 122.68346 63.25049 122.73576 62.36012 122.78809 61.4311 122.84041 60.45546 122.89275 59.43321 122.94505 58.36092 122.99738 57.2329 123.0497 56.0469 123.10202 54.79723 123.15436 53.48045 123.20667 52.08862 123.25899 50.61607 123.31131 49.05482 123.36363 47.3992 123.41594 45.63782 123.46828 43.76045 123.5206 41.758 123.57292 39.61569 123.62523 37.3176 123.67755 34.84894 123.72989 32.18697 123.78221 29.31122 123.83452 26.19214 123.88684 22.79901 123.93916 19.0943 123.9915 15.03256 124.04382 10.56145 124.09613 5.61275 124.14056 .94095"/>
<path transform="matrix(-.0094801899,.99991,.99993,.00948,105.37774,183.3272)" stroke-width=".79701" stroke-linecap="round" stroke-linejoin="round" fill="none" stroke="#1414cc" d="M-1.73352 2.31136C-1.58905 1.4446 0 .14444 .43336 0 0-.14444-1.58905-1.4446-1.73352-2.31136"/>
<path transform="matrix(.00949019,.99991,.99993,-.00949,126.23871,183.21805)" stroke-width=".79701" stroke-linecap="round" stroke-linejoin="round" fill="none" stroke="#1414cc" d="M-1.73352 2.31136C-1.58905 1.4446 0 .14444 .43336 0 0-.14444-1.58905-1.4446-1.73352-2.31136"/>
<path transform="matrix(1.00002,0,0,-1,2.095665,184.15901)" stroke-width=".99628" stroke-linecap="butt" stroke-miterlimit="10" stroke-linejoin="miter" fill="none" stroke="#1414cc" d="M126.33598 181.81508 126.4607 174.76325 126.60008 168.32721 126.73947 162.98055 126.87885 158.46395 127.01823 154.6012 127.15762 151.2615 127.29701 148.34255 127.4364 145.77382 127.57579 143.49166 127.71518 141.45542 127.85455 139.62526 127.99394 137.97156 128.13333 136.47103 128.27272 135.10285 128.41211 133.85079 128.5515 132.7006 128.69089 131.64081 128.83026 130.66086 128.96965 129.75278 129.10904 128.90824 129.24843 128.12136 129.38782 127.38655 129.5272 126.69894 129.6666 126.05374 129.80597 125.44768 129.94536 124.8772 130.08475 124.33932 130.22414 123.83127 130.36353 123.35095 130.50292 122.89589 130.6423 122.46446 130.7817 122.05489 130.92107 121.6653 131.06046 121.2945 131.19985 120.94121 131.33924 120.60428 131.47863 120.2826 131.61801 119.97511 131.7574 119.68106 131.89678 119.39961 132.03617 119.12978 132.17555 118.87099 132.31494 118.62263 132.45433 118.38408 132.59372 118.15483 132.73311 117.93434 132.87248 117.72217 133.01187 117.51782 133.15126 117.32088 133.29064 117.13098 133.43003 116.9478 133.56941 116.77097 133.7088 116.60007 133.84818 116.43506 133.98757 116.2754 134.12696 116.12123 134.26634 115.97182 134.40573 115.82706 134.54512 115.68707 134.68451 115.55177 134.8239 115.41986 134.96327 115.29137 135.10266 115.16855 135.24205 115.04802 135.38144 114.93091 135.52083 114.81833 135.66022 114.70688 135.7996 114.60114 135.93898 114.49652 136.07837 114.39418 136.21776 114.29753 136.35715 114.19975 136.49654 114.10649 136.63593 114.01553 136.77532 113.92796 136.91469 113.84042 137.05408 113.7574 137.19347 113.67554 137.33286 113.5948 137.47225 113.51634 137.61164 113.44016 137.75102 113.36737 137.89041 113.2946 138.02979 113.22296 138.16918 113.15361 138.30857 113.0865 138.44795 113.02055 138.58734 112.95573 138.72673 112.8932 138.86612 112.83066 139.0055 112.7704 139.14488 112.71126 139.28427 112.6544 139.42366 112.59642 139.56305 112.5407 139.70244 112.48726 139.84183 112.43495 139.9812 112.38377 140.12059 112.33147 140.25998 112.28258 140.39937 112.23367 140.53874 112.18593 140.67813 112.13817 140.81752 112.09381 140.9569 112.04834 141.09629 112.00513 141.23567 111.95964 141.37506 111.9187 141.51445 111.87663 141.65384 111.8357 141.79323 111.79555 141.93262 111.75609 142.07199 111.71756 142.21138 111.67969 142.35077 111.64238 142.49016 111.606 142.62955 111.56984 142.76894 111.53458 142.90833 111.50014 143.0477 111.46625 143.18709 111.43259 143.32648 111.39961 143.46587 111.36743 143.60526 111.33559 143.74465 111.30467 143.88404 111.27385 144.0234 111.24371 144.1628 111.21404 144.30219 111.18481 144.44158 111.15627 144.58097 111.12807 144.72035 111.10033 144.85974 111.07314 144.99912 111.0462 145.1385 111.0198 145.2779 110.99367 145.41728 110.96808 145.55667 110.94305 145.69606 110.91805 145.83545 110.8937 145.97484 110.86972 146.11421 110.84595 146.2536 110.82275 146.39299 110.79944 146.53238 110.77693 146.67177 110.75476 146.81116 110.7327 146.95055 110.71109 147.08992 110.68982 147.22931 110.6688 147.3687 110.64798 147.50809 110.62773 147.64748 110.6076 147.78685 110.5876 147.92624 110.56816 148.06562 110.54918 148.205 110.53006 148.34439 110.5113 148.48378 110.49278 148.62317 110.47469 148.76256 110.45683 148.90195 110.43898 149.04134 110.42136 149.18071 110.40419 149.3201 110.38724 149.45949 110.37053 149.59888 110.35393 149.73827 110.33755 149.87766 110.32152 150.01705 110.30571 150.15642 110.2899 150.2958 110.27444 150.4352 110.25922 150.57459 110.24408 150.71398 110.22919 150.85337 110.2144 150.99275 110.19984 151.13213 110.18541 151.27152 110.17142 151.4109 110.15755 151.5503 110.14368 151.68968 110.13002 151.82907 110.1165 151.96846 110.10342 152.10784 110.09023 152.24723 110.07738 152.38661 110.06453 152.526 110.0517 152.66539 110.03918 152.80478 110.0269 152.94417 110.01474 153.08356 110.00269 153.22293 109.99072 153.36232 109.9789 153.50171 109.9673 153.6411 109.9557 153.78049 109.94446 153.91988 109.9332 154.05927 109.92204 154.19864 109.91113 154.33803 109.90034 154.47742 109.88942 154.6168 109.87907 154.7562 109.86848 154.89559 109.85803 155.03496 109.8478 155.17433 109.83757 155.31372 109.82767 155.45311 109.81778 155.5925 109.80788 155.73189 109.79823 155.87128 109.78867 156.01067 109.77911 156.15006 109.76968 156.28943 109.76036 156.42882 109.75137 156.5682 109.74216 156.7076 109.7333 156.84699 109.7242 156.98638 109.71544 157.12577 109.70668 157.26514 109.69827 157.40453 109.68974 157.54392 109.68121 157.6833 109.67291 157.8227 109.66461 157.96208 109.65642 158.10147 109.64824 158.24085 109.64027 158.38024 109.63243 158.51963 109.62447 158.65901 109.61685 158.7984 109.60901 158.93779 109.6014 159.07718 109.59401 159.21656 109.58649 159.35594 109.57898 159.49533 109.57172 159.63472 109.56444 159.77411 109.55739 159.9135 109.55045 160.05289 109.54329 160.19228 109.53635 160.33165 109.5294 160.47104 109.52258 160.61043 109.51588 160.74982 109.50917 160.8892 109.50246 161.0286 109.49586 161.16799 109.48949 161.30736 109.48291 161.44675 109.47664 161.58614 109.4704 161.72553 109.46402 161.86492 109.45778 162.0043 109.45163 162.14368 109.4456 162.28305 109.43958 162.42244 109.43367 162.56183 109.42775 162.70122 109.42162 162.8406 109.41592 162.98 109.41025 163.11939 109.40456 163.25876 109.39874 163.39815 109.39319 163.53754 109.3876 163.67693 109.38205 163.81632 109.3767 163.9557 109.37135 164.0951 109.36589 164.23448 109.36055 164.37386 109.35532 164.51325 109.3502 164.65264 109.34497 164.79203 109.33997 164.93141 109.33473 165.0708 109.32973 165.21019 109.32462 165.34957 109.31984 165.48896 109.31473 165.62834 109.30995 165.76773 109.30505 165.90712 109.3004 166.04651 109.29575 166.1859 109.29085 166.32527 109.28618 166.46466 109.28163 166.60405 109.27696 166.74344 109.27242 166.88283 109.26788 167.02222 109.26344 167.1616 109.25902 167.301 109.25468 167.44037 109.25026 167.57976 109.24593 167.71915 109.24173 167.85854 109.2374 167.99793 109.2332 168.13732 109.2291 168.2767 109.2249 168.41608 109.22069 168.55547 109.2167 168.69486 109.21262 168.83425 109.20863 168.97364 109.20454 169.11302 109.20056 169.25241 109.19681 169.39177 109.19283 169.53116 109.18896 169.67055 109.1851 169.80994 109.18135 169.94933 109.17747 170.08872 109.17384 170.2281 109.17007 170.36748 109.16644 170.50687 109.16281 170.64626 109.15916 170.78565 109.15553 170.92504 109.15201 171.06443 109.14836 171.20381 109.14496 171.3432 109.14142 171.48258 109.13802 171.62197 109.13449 171.76136 109.13097 171.90074 109.12779 172.04013 109.1245 172.17952 109.12119 172.31891 109.11766 172.45829 109.11436 172.59767 109.11119 172.73706 109.108 172.87645 109.10469 173.01584 109.10152 173.15523 109.09845 173.29462 109.09526 173.43399 109.0922 173.57338 109.089 173.71277 109.08594 173.85216 109.08298 173.99155 109.0798 174.13094 109.07684 174.27033 109.07378 174.4097 109.07082 174.54909 109.06786 174.68848 109.06512 174.82787 109.06218 174.96726 109.05922 175.10665 109.05637 175.24604 109.05342 175.38542 109.05069 175.5248 109.04796 175.66419 109.04512 175.80358 109.04239 175.94297 109.03954 176.08235 109.03693 176.22174 109.03421 176.36113 109.03159 176.5005 109.02885 176.63988 109.02625 176.77927 109.02362 176.91866 109.02101 177.05805 109.0184 177.19744 109.01578 177.33683 109.01317 177.4762 109.01077 177.61559 109.00816 177.75498 109.00578 177.89437 109.00327 178.03376 109.00076 178.17314 108.99828 178.31253 108.99588 178.45192 108.99338 178.5913 108.99098 178.73069 108.98872 178.87007 108.98633 179.00946 108.98383 179.14885 108.98155 179.28824 108.97939 179.42763 108.977 179.567 108.9736H179.70639L179.84578 108.97017 179.98517 108.96906 180.12456 108.96564 180.26395 108.96336 180.40334 108.96222 180.54271 108.95767 180.6821 108.95654 180.82149 108.95425 180.96088 108.95313 181.10027 108.9497 181.23966 108.94743 181.37905 108.9463 181.51842 108.94403 181.6578 108.94289 181.7972 108.93948 181.10483 108.9508"/>
<path transform="matrix(-.017650355,-.99983,-.99985006,.01765,128.4342,2.3439484)" stroke-width=".79701" stroke-linecap="round" stroke-linejoin="round" fill="none" stroke="#1414cc" d="M-1.73352 2.31136C-1.58905 1.4446 0 .14444 .43336 0 0-.14444-1.58905-1.4446-1.73352-2.31136"/>
<path transform="matrix(.99987,.01636,.016360328,-.99985,183.2041,75.20821)" stroke-width=".79701" stroke-linecap="round" stroke-linejoin="round" fill="none" stroke="#1414cc" d="M-1.73352 2.31136C-1.58905 1.4446 0 .14444 .43336 0 0-.14444-1.58905-1.4446-1.73352-2.31136"/>
<path transform="matrix(1.00002,0,0,-1,2.095665,184.15901)" stroke-width=".99628" stroke-linecap="butt" stroke-miterlimit="10" stroke-linejoin="miter" fill="none" stroke="#1414cc" d="M90.96863 114.13606"/>
<use data-text="(" xlink:href="#font_6_1" transform="matrix(7.9702599,0,0,-7.9701,72.28507,66.33001)"/>
<use data-text="0" xlink:href="#font_6_3" transform="matrix(7.9702599,0,0,-7.9701,75.57678,66.33001)"/>
<use data-text="," xlink:href="#font_4_1" transform="matrix(7.9702599,0,0,-7.9701,79.81322,66.33001)"/>
<use data-text="2" xlink:href="#font_6_5" transform="matrix(7.9702599,0,0,-7.9701,83.576297,66.33001)"/>
<use data-text=")" xlink:href="#font_6_2" transform="matrix(7.9702599,0,0,-7.9701,87.8085,66.33001)"/>
</g>
<path transform="matrix(1.00002,0,0,-1,2.095665,184.15901)" d="M92.96118 114.13606C92.96118 115.23654 92.0691 116.12862 90.96863 116.12862 89.86816 116.12862 88.97607 115.23654 88.97607 114.13606 88.97607 113.0356 89.86816 112.14351 90.96863 112.14351 92.0691 112.14351 92.96118 113.0356 92.96118 114.13606ZM90.96863 114.13606" fill="#1414cc"/>
<path transform="matrix(1.00002,0,0,-1,2.095665,184.15901)" stroke-width=".99628" stroke-linecap="butt" stroke-miterlimit="10" stroke-linejoin="miter" fill="none" stroke="#1414cc" d="M92.96118 114.13606C92.96118 115.23654 92.0691 116.12862 90.96863 116.12862 89.86816 116.12862 88.97607 115.23654 88.97607 114.13606 88.97607 113.0356 89.86816 112.14351 90.96863 112.14351 92.0691 112.14351 92.96118 113.0356 92.96118 114.13606ZM90.96863 114.13606"/>
<path transform="matrix(1.00002,0,0,-1,2.095665,184.15901)" stroke-width=".99628" stroke-linecap="butt" stroke-miterlimit="10" stroke-linejoin="miter" fill="none" stroke="#1414cc" d=""/>
<use data-text="x" xlink:href="#font_7_1" transform="matrix(9.962799,0,0,-9.9626,174.85413,89.23001)"/>
<use data-text="y" xlink:href="#font_7_2" transform="matrix(9.962799,0,0,-9.9626,96.60556,9.5660099)"/>
</svg>
