<svg xmlns="http://www.w3.org/2000/svg" xmlns:xlink="http://www.w3.org/1999/xlink" xmlns:inkscape="http://www.inkscape.org/namespaces/inkscape" version="1.1" width="157" height="157" viewBox="0 0 157 157">
<defs>
<path id="font_1_1" d="M.6589966 .23046875C.6759949 .23046875 .69400027 .23046875 .69400027 .25045777 .69400027 .27046205 .6759949 .27046205 .6589966 .27046205H.117996219C.100997928 .27046205 .08299255 .27046205 .08299255 .25045777 .08299255 .23046875 .100997928 .23046875 .117996219 .23046875H.6589966Z"/>
<path id="font_2_3" d="M.13198853 .327713V.35173036C.13198853 .6047821 .2559967 .64100649 .30699159 .64100649 .33099366 .64100649 .37298585 .634964 .394989 .6007538 .37998963 .6007538 .33999635 .6007538 .33999635 .5557556 .33999635 .524765 .3639984 .5097656 .38598634 .5097656 .4019928 .5097656 .43199159 .51875308 .43199159 .5577545 .43199159 .6178589 .3880005 .6660156 .30499269 .6660156 .1769867 .6660156 .041992189 .5367584 .041992189 .31570436 .041992189 .048553468 .1579895-.022460938 .25099183-.022460938 .3619995-.022460938 .45700074 .07156372 .45700074 .2036438 .45700074 .33070375 .36799623 .4267578 .25698854 .4267578 .18899536 .4267578 .1519928 .37573243 .13198853 .327713M.25099183 .0055389406C.18798828 .0055389406 .1579895 .06556702 .1519928 .080566409 .13398743 .127594 .13398743 .2076416 .13398743 .22564698 .13398743 .30369569 .1659851 .40374757 .2559967 .40374757 .27198792 .40374757 .31799317 .40374757 .34899903 .34172059 .36698915 .30470277 .36698915 .2536621 .36698915 .20463562 .36698915 .15661621 .36698915 .10658264 .34999085 .0705719 .31999208 .010528564 .27398683 .0055389406 .25099183 .0055389406Z"/>
<path id="font_2_2" d="M.2939911 .16503906V.07800293C.2939911 .041992189 .2919922 .0309906 .21798706 .0309906H.19699097V0C.23799134 .0029907227 .2899933 .0029907227 .33198548 .0029907227 .37399293 .0029907227 .4269867 .0029907227 .46798707 0V.0309906H.44699098C.37298585 .0309906 .37098695 .041992189 .37098695 .07800293V.16503906H.47099305V.19602967H.37098695V.65075686C.37098695 .67074587 .37098695 .6767578 .35499574 .6767578 .34599305 .6767578 .34298707 .6767578 .33499146 .66474917L.027999878 .19602967V.16503906H.2939911M.2999878 .19602967H.055999757L.2999878 .5688019V.19602967Z"/>
<path id="font_2_1" d="M.1269989 .07699585 .23298645 .18003845C.3889923 .31811524 .44898988 .3721466 .44898988 .47216798 .44898988 .5860901 .35899354 .6660156 .23699951 .6660156 .12399292 .6660156 .049987794 .57411196 .049987794 .48516847 .049987794 .4291687 .099990848 .4291687 .102996829 .4291687 .11999512 .4291687 .15499878 .44117738 .15499878 .48217774 .15499878 .5081787 .13699341 .5341797 .101989749 .5341797 .09399414 .5341797 .09199524 .5341797 .08898926 .5331726 .11199951 .59806826 .1659851 .63500979 .22399903 .63500979 .31498719 .63500979 .35798646 .5541382 .35798646 .47216798 .35798646 .39215089 .30799867 .31311036 .25299073 .25108338L.06098938 .036987306C.049987794 .025985718 .049987794 .023986817 .049987794 0H.42099L.44898988 .17404175H.42399598C.4189911 .14402771 .4119873 .1000061 .4019928 .084991458 .394989 .07699585 .32899476 .07699585 .30699159 .07699585H.1269989Z"/>
<clipPath id="clip_3">
<path transform="matrix(1.00003,0,0,-1.00002,2.0964967,155.3758)" d="M0 0H153.57646V153.57646H0Z"/>
</clipPath>
<path id="font_4_1" d="M.33399964 .30233766C.33999635 .32835389 .36299134 .42037965 .43299867 .42037965 .43798829 .42037965 .46199037 .42037965 .48298646 .40734864 .45498658 .402359 .43499757 .37734986 .43499757 .35334779 .43499757 .33735658 .44599916 .31835938 .47299195 .31835938 .49499513 .31835938 .5269928 .3363495 .5269928 .37635804 .5269928 .42837525 .46798707 .4423828 .43399049 .4423828 .37599183 .4423828 .34098817 .38935853 .32899476 .36634828 .3039856 .43237306 .25 .4423828 .22099304 .4423828 .116989139 .4423828 .05999756 .3133545 .05999756 .28834535 .05999756 .27833558 .069992069 .27833558 .07199097 .27833558 .07998657 .27833558 .08299255 .28033448 .084991458 .28933717 .11898804 .39535523 .18499756 .42037965 .21899414 .42037965 .23799134 .42037965 .272995 .4113617 .272995 .35334779 .272995 .32235719 .2559967 .25532533 .21899414 .11528015 .20298767 .053268434 .16799927 .011245728 .12399292 .011245728 .117996219 .011245728 .09498596 .011245728 .07398987 .024276734 .09899902 .029266358 .12098694 .05027771 .12098694 .07827759 .12098694 .105270389 .09899902 .11328125 .083999637 .11328125 .053985597 .11328125 .0289917 .08728027 .0289917 .055267335 .0289917 .009246826 .07899475-.0107421879 .12298584-.0107421879 .18899536-.0107421879 .22499085 .059280397 .22799683 .0652771 .23999024 .028274537 .27598573-.0107421879 .33599855-.0107421879 .43899537-.0107421879 .49598695 .118270877 .49598695 .14328003 .49598695 .1532898 .4869995 .1532898 .48399354 .1532898 .47499085 .1532898 .47299195 .14929199 .47099305 .14228821 .43798829 .03527832 .36999513 .011245728 .33799745 .011245728 .29899598 .011245728 .2829895 .043273927 .2829895 .07727051 .2829895 .09927368 .2889862 .121276859 .2999878 .16529846L.33399964 .30233766Z"/>
<path id="font_4_2" d="M.48599244 .38136292C.48999024 .39537049 .48999024 .39736939 .48999024 .40437318 .48999024 .42237855 .47599793 .43138124 .46099855 .43138124 .45098878 .43138124 .43499757 .42536927 .42599488 .41036988 .42399598 .405365 .41600038 .37435914 .4119873 .35635377 .40499879 .33035279 .397995 .30334474 .3919983 .27633668L.34700013 .09628296C.34298707 .08126831 .2999878 .011245728 .23399353 .011245728 .18299866 .011245728 .17199707 .055267335 .17199707 .0922699 .17199707 .1382904 .18899536 .20030213 .22299195 .28833009 .23899842 .3293457 .24299622 .3403473 .24299622 .36035157 .24299622 .405365 .21099854 .4423828 .16099549 .4423828 .06599426 .4423828 .0289917 .29733277 .0289917 .28833009 .0289917 .27833558 .038986207 .27833558 .040985109 .27833558 .050994874 .27833558 .051986696 .28033448 .056991579 .29634095 .083999637 .3903656 .12399292 .42037965 .1579895 .42037965 .1659851 .42037965 .18299866 .42037965 .18299866 .3883667 .18299866 .36335755 .17298889 .3373413 .1659851 .31834413 .12599182 .21231079 .10798645 .1552887 .10798645 .10827637 .10798645 .019256592 .17098999-.0107421879 .22999573-.0107421879 .2689972-.0107421879 .30299378 .0062561037 .33099366 .03425598 .31799317-.017745972 .30599977-.06674194 .2659912-.11973572 .23999024-.15385437 .20199585-.18309021 .1559906-.18309021 .14199829-.18309021 .09700012-.18005371 .07998657-.14074707 .09599304-.14074707 .10899353-.14074707 .12298584-.1287384 .1329956-.11973572 .14299011-.10673523 .14299011-.08773804 .14299011-.056747438 .115997318-.052734376 .10598755-.052734376 .08299255-.052734376 .049987794-.068740848 .049987794-.11773682 .049987794-.16796875 .09399414-.20507813 .1559906-.20507813 .25898744-.20507813 .3619995-.11373901 .3899994-.00074768069L.48599244 .38136292Z"/>
</defs>
<path transform="matrix(1.00003,0,0,-1.00002,2.0964967,155.3758)" stroke-width=".3985" stroke-linecap="butt" stroke-miterlimit="10" stroke-linejoin="miter" fill="none" stroke="#404040" d="M0 0H153.57646V153.57646H0Z"/>
<path transform="matrix(1.00003,0,0,-1.00002,2.0964967,155.3758)" stroke-width=".3985" stroke-linecap="butt" stroke-miterlimit="10" stroke-linejoin="miter" fill="none" stroke="#bfbfbf" d="M9.59853 0V153.57646M28.79558 0V153.57646M47.99265 0V153.57646M67.1897 0V153.57646M86.38675 0V153.57646M105.58382 0V153.57646M124.78087 0V153.57646M143.97794 0V153.57646"/>
<path transform="matrix(1.00003,0,0,-1.00002,2.0964967,155.3758)" stroke-width=".3985" stroke-linecap="butt" stroke-miterlimit="10" stroke-linejoin="miter" fill="none" stroke="#bfbfbf" d="M19.19705 0V153.57646M38.3941 0V153.57646M57.59117 0V153.57646M95.98529 0V153.57646M115.18234 0V153.57646M134.3794 0V153.57646"/>
<path transform="matrix(1.00003,0,0,-1.00002,2.0964967,155.3758)" stroke-width=".3985" stroke-linecap="butt" stroke-miterlimit="10" stroke-linejoin="miter" fill="none" stroke="#bfbfbf" d="M0 9.59853H153.57646M0 28.79558H153.57646M0 47.99265H153.57646M0 67.1897H153.57646M0 86.38675H153.57646M0 105.58382H153.57646M0 124.78087H153.57646M0 143.97794H153.57646"/>
<path transform="matrix(1.00003,0,0,-1.00002,2.0964967,155.3758)" stroke-width=".3985" stroke-linecap="butt" stroke-miterlimit="10" stroke-linejoin="miter" fill="none" stroke="#bfbfbf" d="M0 19.19705H153.57646M0 38.3941H153.57646M0 57.59117H153.57646M0 95.98529H153.57646M0 115.18234H153.57646M0 134.3794H153.57646"/>
<path transform="matrix(1.00003,0,0,-1.00002,2.0964967,155.3758)" stroke-width=".19925" stroke-linecap="butt" stroke-miterlimit="10" stroke-linejoin="miter" fill="none" stroke="#7f807f" d="M9.59853 75.37073V78.20572M28.79558 75.37073V78.20572M47.99265 75.37073V78.20572M67.1897 75.37073V78.20572M86.38675 75.37073V78.20572M105.58382 75.37073V78.20572M124.78087 75.37073V78.20572M143.97794 75.37073V78.20572"/>
<path transform="matrix(1.00003,0,0,-1.00002,2.0964967,155.3758)" stroke-width=".19925" stroke-linecap="butt" stroke-miterlimit="10" stroke-linejoin="miter" fill="none" stroke="#7f807f" d="M19.19705 74.6622V78.91423M38.3941 74.6622V78.91423M57.59117 74.6622V78.91423M95.98529 74.6622V78.91423M115.18234 74.6622V78.91423M134.3794 74.6622V78.91423"/>
<path transform="matrix(1.00003,0,0,-1.00002,2.0964967,155.3758)" stroke-width=".19925" stroke-linecap="butt" stroke-miterlimit="10" stroke-linejoin="miter" fill="none" stroke="#7f807f" d="M75.37073 9.59853H78.20572M75.37073 28.79558H78.20572M75.37073 47.99265H78.20572M75.37073 67.1897H78.20572M75.37073 86.38675H78.20572M75.37073 105.58382H78.20572M75.37073 124.78087H78.20572M75.37073 143.97794H78.20572"/>
<path transform="matrix(1.00003,0,0,-1.00002,2.0964967,155.3758)" stroke-width=".19925" stroke-linecap="butt" stroke-miterlimit="10" stroke-linejoin="miter" fill="none" stroke="#7f807f" d="M74.6622 19.19705H78.91423M74.6622 38.3941H78.91423M74.6622 57.59117H78.91423M74.6622 95.98529H78.91423M74.6622 115.18234H78.91423M74.6622 134.3794H78.91423"/>
<path transform="matrix(1.00003,0,0,-1.00002,2.0964967,155.3758)" stroke-width=".3985" stroke-linecap="butt" stroke-miterlimit="10" stroke-linejoin="miter" fill="none" stroke="#000000" d="M0 76.78822H151.58394"/>
<path transform="matrix(1.00003,0,0,-1.00002,153.68498,78.58603)" d="M1.99252 0-1.19551 1.59401 0 0-1.19551-1.59401"/>
<path transform="matrix(1.00003,0,0,-1.00002,2.0964967,155.3758)" stroke-width=".3985" stroke-linecap="butt" stroke-miterlimit="10" stroke-linejoin="miter" fill="none" stroke="#000000" d="M76.78822 0V151.58394"/>
<path transform="matrix(0,-1.00002,-1.00003,-0,78.887027,3.7888184)" d="M1.99252 0-1.19551 1.59401 0 0-1.19551-1.59401"/>
<use data-text="&#x2212;" xlink:href="#font_1_1" transform="matrix(9.962899,0,0,-9.962799,14.928879,90.6525)"/>
<use data-text="6" xlink:href="#font_2_3" transform="matrix(9.962899,0,0,-9.962799,22.678109,90.6525)"/>
<use data-text="&#x2212;" xlink:href="#font_1_1" transform="matrix(9.962899,0,0,-9.962799,34.126459,90.6525)"/>
<use data-text="4" xlink:href="#font_2_2" transform="matrix(9.962899,0,0,-9.962799,41.875688,90.6525)"/>
<use data-text="&#x2212;" xlink:href="#font_1_1" transform="matrix(9.962899,0,0,-9.962799,53.324037,90.6525)"/>
<use data-text="2" xlink:href="#font_2_1" transform="matrix(9.962899,0,0,-9.962799,61.073266,90.6525)"/>
<use data-text="2" xlink:href="#font_2_1" transform="matrix(9.962899,0,0,-9.962799,95.59431,90.6525)"/>
<use data-text="4" xlink:href="#font_2_2" transform="matrix(9.962899,0,0,-9.962799,114.791889,90.6525)"/>
<use data-text="6" xlink:href="#font_2_3" transform="matrix(9.962899,0,0,-9.962799,133.98947,90.6525)"/>
<use data-text="&#x2212;" xlink:href="#font_1_1" transform="matrix(9.962899,0,0,-9.962799,60.51025,138.97347)"/>
<use data-text="6" xlink:href="#font_2_3" transform="matrix(9.962899,0,0,-9.962799,68.259479,138.97347)"/>
<use data-text="&#x2212;" xlink:href="#font_1_1" transform="matrix(9.962899,0,0,-9.962799,60.51025,119.77608)"/>
<use data-text="4" xlink:href="#font_2_2" transform="matrix(9.962899,0,0,-9.962799,68.259479,119.77608)"/>
<use data-text="&#x2212;" xlink:href="#font_1_1" transform="matrix(9.962899,0,0,-9.962799,60.51025,100.57869)"/>
<use data-text="2" xlink:href="#font_2_1" transform="matrix(9.962899,0,0,-9.962799,68.259479,100.57869)"/>
<use data-text="2" xlink:href="#font_2_1" transform="matrix(9.962899,0,0,-9.962799,68.25949,62.59893)"/>
<use data-text="4" xlink:href="#font_2_2" transform="matrix(9.962899,0,0,-9.962799,68.25949,43.40155)"/>
<use data-text="6" xlink:href="#font_2_3" transform="matrix(9.962899,0,0,-9.962799,68.25949,24.204163)"/>
<g clip-path="url(#clip_3)">
<path transform="matrix(1.00003,0,0,-1.00002,2.0964967,155.3758)" stroke-width="1.24535" stroke-linecap="butt" stroke-miterlimit="10" stroke-linejoin="miter" fill="none" stroke="#1414cc" d="M36.98134 1.0405 37.13223 3.70422 37.33896 7.2337 37.54567 10.64537 37.75238 13.94164 37.9591 17.12483 38.16582 20.19737 38.37254 23.16159 38.57925 26.01962 38.78596 28.7739 38.99269 31.4265 39.1994 33.97975 39.40611 36.43575 39.61284 38.79668 39.81955 41.06468 40.02628 43.24179 40.23299 45.33017 40.4397 47.33176 40.64642 49.24864 40.85313 51.0828 41.05984 52.83614 41.26657 54.51071 41.47328 56.10834 41.68001 57.63094 41.88672 59.08035 42.09343 60.45845 42.30016 61.76704 42.50687 63.00792 42.71358 64.18279 42.9203 65.29344 43.12701 66.34161 43.33374 67.32893 43.54045 68.25711 43.74716 69.12776 43.95389 69.94252 44.1606 70.70297 44.36731 71.41068 44.57404 72.0672 44.78075 72.67407 44.98747 73.23277 45.19418 73.7448 45.4009 74.21156 45.60762 74.63457 45.81433 75.01515 46.02104 75.35475 46.22777 75.65472 46.43448 75.9164 46.6412 76.1411 46.84792 76.33012 47.05463 76.48476 47.26135 76.60626 47.46806 76.69586 47.67477 76.75476 47.8815 76.78418 48.08821 76.78528 48.29492 76.75919 48.50165 76.70708 48.70836 76.63002 48.91508 76.52913 49.1218 76.40546 49.3285 76.26009 49.53523 76.094 49.74194 75.90825 49.94865 75.7038 50.15538 75.48163 50.36209 75.2427 50.56882 74.98793 50.77553 74.71825 50.98224 74.43454 51.18896 74.13768 51.39568 73.82854 51.60239 73.50795 51.80911 73.17673 52.01582 72.83566 52.22255 72.4856 52.42926 72.12723 52.63597 71.76135 52.8427 71.3887 53.04941 71.00995 53.25612 70.62584 53.46284 70.23706 53.66956 69.84422 53.87628 69.448 54.083 69.04906 54.2897 68.64796 54.49643 68.24532 54.70314 67.84174 54.90985 67.43777 55.11658 67.03395 55.32329 66.63084 55.53001 66.22896 55.73671 65.82877 55.94342 65.43083 56.15015 65.03554 56.35686 64.64339 56.56357 64.25484 56.7703 63.87029 56.977 63.49017 57.18373 63.11488 57.39044 62.74483 57.59715 62.38033 57.80388 62.02179 58.01059 61.66956 58.2173 61.32391 58.42403 60.98521 58.63074 60.65375 58.83746 60.32983 59.04417 60.01372 59.25089 59.70569 59.45761 59.40598 59.66432 59.11484 59.87103 58.83247 60.07776 58.55913 60.28447 58.295 60.49118 58.04027 60.6979 57.7951 60.90462 57.5597 61.11134 57.3342 61.31805 57.11873 61.52477 56.91347 61.73149 56.71849 61.9382 56.53392 62.14491 56.35988 62.35164 56.19643 62.55835 56.04367 62.76508 55.90167 62.97179 55.77046 63.1785 55.65012 63.38522 55.54068 63.59193 55.44215 63.79865 55.35458 64.00537 55.27794 64.21208 55.21228 64.41881 55.15756 64.62552 55.11374 64.83223 55.08086 65.03896 55.05882 65.24567 55.04762 65.45238 55.0472 65.6591 55.05745 65.86581 55.07835 66.07254 55.10982 66.27925 55.1518 66.48596 55.2041 66.69269 55.26675 66.8994 55.33955 67.10611 55.42242 67.31284 55.51523 67.51955 55.61786 67.72627 55.73016 67.93298 55.85202 68.1397 55.98325 68.34642 56.1237 68.55313 56.27327 68.75984 56.43172 68.96657 56.59889 69.17328 56.77464 69.38 56.95874 69.58672 57.15105 69.79343 57.35129 70.00015 57.55936 70.20686 57.77501 70.41357 57.998 70.6203 58.22816 70.82701 58.46529 71.03372 58.70912 71.24045 58.95943 71.44716 59.21596 71.65388 59.47853 71.8606 59.74687 72.0673 60.02074 72.27403 60.29991 72.48074 60.5841 72.68747 60.87308 72.8942 61.16658 73.1009 61.46434 73.30763 61.7661 73.51434 62.0716 73.72105 62.38057 73.92778 62.69272 74.13449 63.00781 74.3412 63.32556 74.54793 63.64566 74.75464 63.96786 74.96136 64.2919 75.16808 64.61746 75.37479 64.94427 75.58151 65.27206 75.78822 65.60052 75.99493 65.9294 76.20166 66.25838 76.40837 66.58719 76.6151 66.91553 76.82181 67.24313 77.02852 67.56969 77.23524 67.89493 77.44196 68.21855 77.64867 68.54028 77.8554 68.85983 78.0621 69.1769 78.26883 69.49121 78.47554 69.8025 78.68225 70.11046 78.88898 70.4148 79.09569 70.71526 79.3024 71.01155 79.50912 71.3034 79.71584 71.59055 79.92256 71.87268 80.12927 72.14957 80.33598 72.42093 80.54271 72.68646 80.74942 72.94594 80.95613 73.1991 81.16286 73.44566 81.36957 73.68538 81.57628 73.91801 81.783 74.14331 81.98972 74.36101 82.19644 74.57086 82.40315 74.77266 82.60986 74.96614 82.81659 75.1511 83.02332 75.32727 83.23003 75.49448 83.43675 75.65247 83.64346 75.80104 83.85019 75.93999 84.0569 76.0691 84.26361 76.1882 84.47034 76.29706 84.67705 76.39552 84.88376 76.4834 85.09048 76.5605 85.2972 76.62666 85.50392 76.6817 85.71063 76.72551 85.91734 76.75787 86.12407 76.77867 86.33078 76.78778 86.53749 76.78505 86.74422 76.77037 86.95093 76.74359 87.15765 76.70462 87.36436 76.65335 87.57108 76.58969 87.7778 76.51353 87.98451 76.42484 88.19122 76.32347 88.39795 76.20941 88.60466 76.08258 88.81139 75.94293 89.0181 75.79044 89.22481 75.62505 89.43153 75.44675 89.63824 75.25551 89.84496 75.05135 90.05168 74.83424 90.25839 74.60422 90.46512 74.36133 90.67183 74.10555 90.87854 73.83694 91.08527 73.55559 91.29198 73.2615 91.49869 72.9548 91.70541 72.63553 91.91212 72.3038 92.11885 71.95973 92.32556 71.60341 92.53227 71.23497 92.739 70.85454 92.94571 70.4623 93.15242 70.05836 93.35915 69.64294 93.56586 69.2162 93.77257 68.77834 93.9793 68.32954 94.186 67.87004 94.39273 67.4001 94.59944 66.91992 94.80615 66.42978 95.01288 65.92992 95.21959 65.42065 95.4263 64.90228 95.63303 64.37508 95.83974 63.83937 96.04645 63.29552 96.25316 62.74388 96.45987 62.18477 96.6666 61.61859 96.8733 61.04573 97.08002 60.46663 97.28674 59.88162 97.49345 59.29123 97.70018 58.69586 97.90689 58.09598 98.1136 57.49207 98.32033 56.88463 98.52704 56.27412 98.73375 55.66115 98.94048 55.0462 99.14719 54.42986 99.35391 53.81264 99.56062 53.19522 99.76733 52.57813 99.97406 51.96199 100.18077 51.34752 100.38748 50.73528 100.59421 50.12596 100.80092 49.5203 101.00764 48.91891 101.21436 48.32262 101.42107 47.73209 101.62779 47.14809 101.8345 46.57143 102.04121 46.00282 102.24794 45.44319 102.45465 44.89326 102.66138 44.35393 102.86809 43.82603 103.0748 43.31052 103.28152 42.80817 103.48824 42.32004 103.69495 41.84697 103.90167 41.38997 104.10838 40.95 104.3151 40.52806 104.52182 40.12515 104.72853 39.74232 104.93526 39.38065 105.14197 39.04118 105.34868 38.72502 105.5554 38.43329 105.76212 38.16711 105.96883 37.9277 106.17555 37.71613 106.38226 37.5337 106.58899 37.3816 106.7957 37.26102 107.00241 37.17334 107.20914 37.11972 107.41585 37.10152 107.62256 37.12006 107.82928 37.17674 108.036 37.27284 108.24272 37.40984 108.44943 37.58913 108.65614 37.81213 108.86287 38.0803 109.06958 38.39514 109.27629 38.75816 109.48302 39.17093 109.68973 39.6349 109.89645 40.15176 110.10316 40.72305 110.30988 41.35036 110.5166 42.03545 110.72331 42.7799 110.93002 43.58548 111.13675 44.45384 111.34346 45.38675 111.55019 46.38602 111.7569 47.45335 111.96361 48.59068 112.17033 49.79979 112.37704 51.08257 112.58376 52.44089 112.79048 53.87668 112.9972 55.39194 113.20392 56.98856 113.41063 58.66861 113.61734 60.43405 113.82407 62.28699 114.03078 64.22948 114.23749 66.26363 114.44421 68.39157 114.65092 70.61546 114.85765 72.93748 115.06436 75.35986 115.27107 77.88481 115.4778 80.51463 115.68451 83.25159 115.89122 86.098 116.09795 89.05627 116.30466 92.12872 116.51137 95.3178 116.7181 98.62589 116.9248 102.05547 117.13153 105.60909 117.33824 109.2892 117.54495 113.09834 117.75168 117.0392 117.95839 121.11423 118.1651 125.32631 118.37183 129.67778 118.57854 134.17151 118.78526 138.8103 118.99197 143.5968 119.19868 148.53392 119.36536 152.6375"/>
<path transform="matrix(-.056531699,.99837,.99838,.05653113,39.078958,154.33527)" stroke-width=".99628" stroke-linecap="round" stroke-linejoin="round" fill="none" stroke="#1414cc" d="M-1.95767 2.61023C-1.79453 1.6314 0 .16313 .48941 0 0-.16313-1.79453-1.6314-1.95767-2.61023"/>
<path transform="matrix(.040571218,-.99915006,-.99916008,-.04057081,121.46542,2.7352448)" stroke-width=".99628" stroke-linecap="round" stroke-linejoin="round" fill="none" stroke="#1414cc" d="M-1.95767 2.61023C-1.79453 1.6314 0 .16313 .48941 0 0-.16313-1.79453-1.6314-1.95767-2.61023"/>
</g>
<use data-text="x" xlink:href="#font_4_1" transform="matrix(9.962899,0,0,-9.962799,146.48883,75.053188)"/>
<use data-text="y" xlink:href="#font_4_2" transform="matrix(9.962899,0,0,-9.962799,82.422908,9.572876)"/>
</svg>
