<svg xmlns="http://www.w3.org/2000/svg" xmlns:xlink="http://www.w3.org/1999/xlink" xmlns:inkscape="http://www.inkscape.org/namespaces/inkscape" version="1.1" width="115" height="114" viewBox="0 0 115 114">
<defs>
<path id="font_1_1" d="M.6589966 .23046875C.6759949 .23046875 .69400027 .23046875 .69400027 .25045777 .69400027 .27046205 .6759949 .27046205 .6589966 .27046205H.117996219C.100997928 .27046205 .08299255 .27046205 .08299255 .25045777 .08299255 .23046875 .100997928 .23046875 .117996219 .23046875H.6589966Z"/>
<path id="font_2_3" d="M.13198853 .327713V.35173036C.13198853 .6047821 .2559967 .64100649 .30699159 .64100649 .33099366 .64100649 .37298585 .634964 .394989 .6007538 .37998963 .6007538 .33999635 .6007538 .33999635 .5557556 .33999635 .524765 .3639984 .5097656 .38598634 .5097656 .4019928 .5097656 .43199159 .51875308 .43199159 .5577545 .43199159 .6178589 .3880005 .6660156 .30499269 .6660156 .1769867 .6660156 .041992189 .5367584 .041992189 .31570436 .041992189 .048553468 .1579895-.022460938 .25099183-.022460938 .3619995-.022460938 .45700074 .07156372 .45700074 .2036438 .45700074 .33070375 .36799623 .4267578 .25698854 .4267578 .18899536 .4267578 .1519928 .37573243 .13198853 .327713M.25099183 .0055389406C.18798828 .0055389406 .1579895 .06556702 .1519928 .080566409 .13398743 .127594 .13398743 .2076416 .13398743 .22564698 .13398743 .30369569 .1659851 .40374757 .2559967 .40374757 .27198792 .40374757 .31799317 .40374757 .34899903 .34172059 .36698915 .30470277 .36698915 .2536621 .36698915 .20463562 .36698915 .15661621 .36698915 .10658264 .34999085 .0705719 .31999208 .010528564 .27398683 .0055389406 .25099183 .0055389406Z"/>
<path id="font_2_2" d="M.2939911 .16503906V.07800293C.2939911 .041992189 .2919922 .0309906 .21798706 .0309906H.19699097V0C.23799134 .0029907227 .2899933 .0029907227 .33198548 .0029907227 .37399293 .0029907227 .4269867 .0029907227 .46798707 0V.0309906H.44699098C.37298585 .0309906 .37098695 .041992189 .37098695 .07800293V.16503906H.47099305V.19602967H.37098695V.65075686C.37098695 .67074587 .37098695 .6767578 .35499574 .6767578 .34599305 .6767578 .34298707 .6767578 .33499146 .66474917L.027999878 .19602967V.16503906H.2939911M.2999878 .19602967H.055999757L.2999878 .5688019V.19602967Z"/>
<path id="font_2_1" d="M.1269989 .07699585 .23298645 .18003845C.3889923 .31811524 .44898988 .3721466 .44898988 .47216798 .44898988 .5860901 .35899354 .6660156 .23699951 .6660156 .12399292 .6660156 .049987794 .57411196 .049987794 .48516847 .049987794 .4291687 .099990848 .4291687 .102996829 .4291687 .11999512 .4291687 .15499878 .44117738 .15499878 .48217774 .15499878 .5081787 .13699341 .5341797 .101989749 .5341797 .09399414 .5341797 .09199524 .5341797 .08898926 .5331726 .11199951 .59806826 .1659851 .63500979 .22399903 .63500979 .31498719 .63500979 .35798646 .5541382 .35798646 .47216798 .35798646 .39215089 .30799867 .31311036 .25299073 .25108338L.06098938 .036987306C.049987794 .025985718 .049987794 .023986817 .049987794 0H.42099L.44898988 .17404175H.42399598C.4189911 .14402771 .4119873 .1000061 .4019928 .084991458 .394989 .07699585 .32899476 .07699585 .30699159 .07699585H.1269989Z"/>
<clipPath id="clip_3">
<path transform="matrix(1,0,0,-1.00006,2.0960007,112.863819)" d="M0 0H111.05957V111.05957H0Z"/>
</clipPath>
<path id="font_4_1" d="M.33399964 .30233766C.33999635 .32835389 .36299134 .42037965 .43299867 .42037965 .43798829 .42037965 .46199037 .42037965 .48298646 .40734864 .45498658 .402359 .43499757 .37734986 .43499757 .35334779 .43499757 .33735658 .44599916 .31835938 .47299195 .31835938 .49499513 .31835938 .5269928 .3363495 .5269928 .37635804 .5269928 .42837525 .46798707 .4423828 .43399049 .4423828 .37599183 .4423828 .34098817 .38935853 .32899476 .36634828 .3039856 .43237306 .25 .4423828 .22099304 .4423828 .116989139 .4423828 .05999756 .3133545 .05999756 .28834535 .05999756 .27833558 .069992069 .27833558 .07199097 .27833558 .07998657 .27833558 .08299255 .28033448 .084991458 .28933717 .11898804 .39535523 .18499756 .42037965 .21899414 .42037965 .23799134 .42037965 .272995 .4113617 .272995 .35334779 .272995 .32235719 .2559967 .25532533 .21899414 .11528015 .20298767 .053268434 .16799927 .011245728 .12399292 .011245728 .117996219 .011245728 .09498596 .011245728 .07398987 .024276734 .09899902 .029266358 .12098694 .05027771 .12098694 .07827759 .12098694 .105270389 .09899902 .11328125 .083999637 .11328125 .053985597 .11328125 .0289917 .08728027 .0289917 .055267335 .0289917 .009246826 .07899475-.0107421879 .12298584-.0107421879 .18899536-.0107421879 .22499085 .059280397 .22799683 .0652771 .23999024 .028274537 .27598573-.0107421879 .33599855-.0107421879 .43899537-.0107421879 .49598695 .118270877 .49598695 .14328003 .49598695 .1532898 .4869995 .1532898 .48399354 .1532898 .47499085 .1532898 .47299195 .14929199 .47099305 .14228821 .43798829 .03527832 .36999513 .011245728 .33799745 .011245728 .29899598 .011245728 .2829895 .043273927 .2829895 .07727051 .2829895 .09927368 .2889862 .121276859 .2999878 .16529846L.33399964 .30233766Z"/>
<path id="font_4_2" d="M.48599244 .38136292C.48999024 .39537049 .48999024 .39736939 .48999024 .40437318 .48999024 .42237855 .47599793 .43138124 .46099855 .43138124 .45098878 .43138124 .43499757 .42536927 .42599488 .41036988 .42399598 .405365 .41600038 .37435914 .4119873 .35635377 .40499879 .33035279 .397995 .30334474 .3919983 .27633668L.34700013 .09628296C.34298707 .08126831 .2999878 .011245728 .23399353 .011245728 .18299866 .011245728 .17199707 .055267335 .17199707 .0922699 .17199707 .1382904 .18899536 .20030213 .22299195 .28833009 .23899842 .3293457 .24299622 .3403473 .24299622 .36035157 .24299622 .405365 .21099854 .4423828 .16099549 .4423828 .06599426 .4423828 .0289917 .29733277 .0289917 .28833009 .0289917 .27833558 .038986207 .27833558 .040985109 .27833558 .050994874 .27833558 .051986696 .28033448 .056991579 .29634095 .083999637 .3903656 .12399292 .42037965 .1579895 .42037965 .1659851 .42037965 .18299866 .42037965 .18299866 .3883667 .18299866 .36335755 .17298889 .3373413 .1659851 .31834413 .12599182 .21231079 .10798645 .1552887 .10798645 .10827637 .10798645 .019256592 .17098999-.0107421879 .22999573-.0107421879 .2689972-.0107421879 .30299378 .0062561037 .33099366 .03425598 .31799317-.017745972 .30599977-.06674194 .2659912-.11973572 .23999024-.15385437 .20199585-.18309021 .1559906-.18309021 .14199829-.18309021 .09700012-.18005371 .07998657-.14074707 .09599304-.14074707 .10899353-.14074707 .12298584-.1287384 .1329956-.11973572 .14299011-.10673523 .14299011-.08773804 .14299011-.056747438 .115997318-.052734376 .10598755-.052734376 .08299255-.052734376 .049987794-.068740848 .049987794-.11773682 .049987794-.16796875 .09399414-.20507813 .1559906-.20507813 .25898744-.20507813 .3619995-.11373901 .3899994-.00074768069L.48599244 .38136292Z"/>
</defs>
<path transform="matrix(1,0,0,-1.00006,2.0960007,112.863819)" stroke-width=".3985" stroke-linecap="butt" stroke-miterlimit="10" stroke-linejoin="miter" fill="none" stroke="#404040" d="M0 0H111.05957V111.05957H0Z"/>
<path transform="matrix(1,0,0,-1.00006,2.0960007,112.863819)" stroke-width=".3985" stroke-linecap="butt" stroke-miterlimit="10" stroke-linejoin="miter" fill="none" stroke="#bfbfbf" d="M6.94122 0V111.05957M20.82367 0V111.05957M34.70612 0V111.05957M48.58856 0V111.05957M62.47101 0V111.05957M76.35345 0V111.05957M90.2359 0V111.05957M104.11835 0V111.05957"/>
<path transform="matrix(1,0,0,-1.00006,2.0960007,112.863819)" stroke-width=".3985" stroke-linecap="butt" stroke-miterlimit="10" stroke-linejoin="miter" fill="none" stroke="#bfbfbf" d="M13.88245 0V111.05957M27.7649 0V111.05957M41.64734 0V111.05957M69.41223 0V111.05957M83.29468 0V111.05957M97.17712 0V111.05957"/>
<path transform="matrix(1,0,0,-1.00006,2.0960007,112.863819)" stroke-width=".3985" stroke-linecap="butt" stroke-miterlimit="10" stroke-linejoin="miter" fill="none" stroke="#bfbfbf" d="M0 6.94122H111.05957M0 20.82367H111.05957M0 34.70612H111.05957M0 48.58856H111.05957M0 62.47101H111.05957M0 76.35345H111.05957M0 90.2359H111.05957M0 104.11835H111.05957"/>
<path transform="matrix(1,0,0,-1.00006,2.0960007,112.863819)" stroke-width=".3985" stroke-linecap="butt" stroke-miterlimit="10" stroke-linejoin="miter" fill="none" stroke="#bfbfbf" d="M0 13.88245H111.05957M0 27.7649H111.05957M0 41.64734H111.05957M0 69.41223H111.05957M0 83.29468H111.05957M0 97.17712H111.05957"/>
<path transform="matrix(1,0,0,-1.00006,2.0960007,112.863819)" stroke-width=".19925" stroke-linecap="butt" stroke-miterlimit="10" stroke-linejoin="miter" fill="none" stroke="#7f807f" d="M6.94122 54.11232V56.94724M20.82367 54.11232V56.94724M34.70612 54.11232V56.94724M48.58856 54.11232V56.94724M62.47101 54.11232V56.94724M76.35345 54.11232V56.94724M90.2359 54.11232V56.94724M104.11835 54.11232V56.94724"/>
<path transform="matrix(1,0,0,-1.00006,2.0960007,112.863819)" stroke-width=".19925" stroke-linecap="butt" stroke-miterlimit="10" stroke-linejoin="miter" fill="none" stroke="#7f807f" d="M13.88245 53.4038V57.65575M27.7649 53.4038V57.65575M41.64734 53.4038V57.65575M69.41223 53.4038V57.65575M83.29468 53.4038V57.65575M97.17712 53.4038V57.65575"/>
<path transform="matrix(1,0,0,-1.00006,2.0960007,112.863819)" stroke-width=".19925" stroke-linecap="butt" stroke-miterlimit="10" stroke-linejoin="miter" fill="none" stroke="#7f807f" d="M54.11232 6.94122H56.94724M54.11232 20.82367H56.94724M54.11232 34.70612H56.94724M54.11232 48.58856H56.94724M54.11232 62.47101H56.94724M54.11232 76.35345H56.94724M54.11232 90.2359H56.94724M54.11232 104.11835H56.94724"/>
<path transform="matrix(1,0,0,-1.00006,2.0960007,112.863819)" stroke-width=".19925" stroke-linecap="butt" stroke-miterlimit="10" stroke-linejoin="miter" fill="none" stroke="#7f807f" d="M53.4038 13.88245H57.65575M53.4038 27.7649H57.65575M53.4038 41.64734H57.65575M53.4038 69.41223H57.65575M53.4038 83.29468H57.65575M53.4038 97.17712H57.65575"/>
<path transform="matrix(1,0,0,-1.00006,2.0960007,112.863819)" stroke-width=".3985" stroke-linecap="butt" stroke-miterlimit="10" stroke-linejoin="miter" fill="none" stroke="#000000" d="M0 55.52979H109.06705"/>
<path transform="matrix(1,0,0,-1.00006,111.16305,57.330698)" d="M1.99252 0-1.19551 1.59401 0 0-1.19551-1.59401"/>
<path transform="matrix(1,0,0,-1.00006,2.0960007,112.863819)" stroke-width=".3985" stroke-linecap="butt" stroke-miterlimit="10" stroke-linejoin="miter" fill="none" stroke="#000000" d="M55.52979 0V109.06705"/>
<path transform="matrix(0,-1.00006,-1,-0,57.62579,3.7902299)" d="M1.99252 0-1.19551 1.59401 0 0-1.19551-1.59401"/>
<use data-text="&#x2212;" xlink:href="#font_1_1" transform="matrix(9.9626,0,0,-9.963197,9.612999,69.39721)"/>
<use data-text="6" xlink:href="#font_2_3" transform="matrix(9.9626,0,0,-9.963197,17.362,69.39721)"/>
<use data-text="&#x2212;" xlink:href="#font_1_1" transform="matrix(9.9626,0,0,-9.963197,23.496003,69.39721)"/>
<use data-text="4" xlink:href="#font_2_2" transform="matrix(9.9626,0,0,-9.963197,31.245003,69.39721)"/>
<use data-text="&#x2212;" xlink:href="#font_1_1" transform="matrix(9.9626,0,0,-9.963197,37.378004,69.39721)"/>
<use data-text="2" xlink:href="#font_2_1" transform="matrix(9.9626,0,0,-9.963197,45.127004,69.39721)"/>
<use data-text="2" xlink:href="#font_2_1" transform="matrix(9.9626,0,0,-9.963197,69.018,69.39721)"/>
<use data-text="4" xlink:href="#font_2_2" transform="matrix(9.9626,0,0,-9.963197,82.9,69.39721)"/>
<use data-text="6" xlink:href="#font_2_3" transform="matrix(9.9626,0,0,-9.963197,96.782,69.39721)"/>
<use data-text="&#x2212;" xlink:href="#font_1_1" transform="matrix(9.9626,0,0,-9.963197,39.25,101.77615)"/>
<use data-text="6" xlink:href="#font_2_3" transform="matrix(9.9626,0,0,-9.963197,46.999,101.77615)"/>
<use data-text="&#x2212;" xlink:href="#font_1_1" transform="matrix(9.9626,0,0,-9.963197,39.25,87.89232)"/>
<use data-text="4" xlink:href="#font_2_2" transform="matrix(9.9626,0,0,-9.963197,46.999,87.89232)"/>
<use data-text="&#x2212;" xlink:href="#font_1_1" transform="matrix(9.9626,0,0,-9.963197,39.25,74.00948)"/>
<use data-text="2" xlink:href="#font_2_1" transform="matrix(9.9626,0,0,-9.963197,46.999,74.00948)"/>
<use data-text="2" xlink:href="#font_2_1" transform="matrix(9.9626,0,0,-9.963197,46.999,46.657846)"/>
<use data-text="4" xlink:href="#font_2_2" transform="matrix(9.9626,0,0,-9.963197,46.999,32.775018)"/>
<use data-text="6" xlink:href="#font_2_3" transform="matrix(9.9626,0,0,-9.963197,46.999,18.891175)"/>
<g clip-path="url(#clip_3)">
<path transform="matrix(1,0,0,-1.00006,2.0960007,112.863819)" stroke-width="1.49442" stroke-linecap="butt" stroke-miterlimit="10" stroke-linejoin="miter" fill="none" stroke="#1414cc" d="M41.64734 62.47101 41.82129 63.56999 41.99525 64.02478 42.16924 64.3747 42.34319 64.66907 42.51717 64.92874 42.69113 65.16272 42.86508 65.37866 43.03906 65.57927 43.21303 65.76808 43.38701 65.9466 43.56096 66.11597 43.73492 66.2784 43.9089 66.43388 44.08286 66.58325 44.25682 66.72763 44.4308 66.86722 44.60475 67.00258 44.77873 67.13376 44.9527 67.26155 45.12666 67.38649 45.30063 67.50797 45.4746 67.6261 45.64857 67.74202 45.82253 67.85516 45.99649 67.9663 46.17047 68.07527 46.34444 68.1821 46.5184 68.28635 46.69237 68.38977 46.86633 68.49118 47.0403 68.58968 47.21426 68.68825 47.38824 68.78473 47.5622 68.8799 47.73616 68.97298 47.91014 69.06537 48.0841 69.15622 48.25807 69.2466 48.43204 69.33469 48.606 69.42088 48.77997 69.50723 48.95393 69.5924 49.1279 69.6766 49.30188 69.76004 49.47583 69.84244 49.64981 69.92378 49.82378 70.0043 49.99773 70.08406 50.1717 70.16284 50.34567 70.24115 50.51965 70.31854 50.6936 70.39488 50.86757 70.47075 51.04155 70.54572 51.2155 70.62027 51.38948 70.69412 51.56345 70.76688 51.73741 70.83961 51.91138 70.9113 52.08534 70.98232 52.25932 71.05305 52.43327 71.1231 52.60724 71.1925 52.78122 71.26157 52.95518 71.3298 53.12915 71.39783 53.30312 71.46544 53.47708 71.53186 53.65106 71.59822 53.82501 71.66396 53.999 71.72954 54.17296 71.795 54.34691 71.859 54.52089 71.92328 54.69485 71.98692 54.86882 72.04968 55.04279 72.1127 55.21675 72.17482 55.39073 72.23688 55.56468 72.29936 55.73865 72.36058 55.91263 72.42125 56.0866 72.48198 56.26056 72.542 56.43452 72.60184 56.60849 72.66127 56.78246 72.72012 56.95642 72.77905 57.1304 72.83716 57.30437 72.89548 57.47832 72.95328 57.6523 73.01047 57.82626 73.06795 58.00024 73.12465 58.1742 73.1811 58.34816 73.23726 58.52214 73.29333 58.69609 73.34874 58.87007 73.40446 59.04404 73.45943 59.218 73.51407 59.39197 73.56863 59.56593 73.62283 59.7399 73.67697 59.91386 73.73077 60.08783 73.78436 60.26181 73.83746 60.43578 73.89008 60.60973 73.94318 60.7837 73.99536 60.95767 74.04791 61.13164 74.09998 61.3056 74.15182 61.47957 74.20305 61.65355 74.25476 61.8275 74.30557 62.00148 74.35652 62.17545 74.40726 62.3494 74.45787 62.52338 74.50798 62.69734 74.55774 62.87132 74.60765 63.04527 74.65735 63.21924 74.7065 63.39322 74.75627 63.56717 74.80507 63.74115 74.85371 63.91512 74.90266 64.08908 74.95125 64.26305 74.99893 64.43701 75.04752 64.611 75.09541 64.78494 75.14282 64.95891 75.191 65.13289 75.23813 65.30684 75.28484 65.4808 75.33156 65.65479 75.37903 65.82875 75.42534 66.00272 75.47171 66.17668 75.51826 66.35065 75.56436 66.52461 75.6101 66.69858 75.6566 66.87256 75.70235 67.04652 75.74706 67.22047 75.79335 67.39445 75.8382 67.56842 75.88318 67.74239 75.92822 67.91635 75.97264 68.09032 76.01735 68.26428 76.06163 68.43825 76.10667 68.61223 76.15027 68.7862 76.19408 68.96014 76.23871 69.13412 76.28188 69.30809 76.32506 69.48206 76.37018 69.65602 76.41348 69.82999 76.457 70.00395 76.49983 70.17792 76.54294 70.35188 76.5857 70.52586 76.62831 70.69981 76.67108 70.8738 76.71355 71.04776 76.75568 71.22171 76.7979 71.39569 76.83981 71.56966 76.88187 71.74364 76.92346 71.91759 76.96545 72.09155 77.00703 72.26553 77.04852 72.43948 77.0899 72.61346 77.13127 72.78743 77.17236 72.96138 77.21346 73.13536 77.25435 73.30933 77.29466 73.4833 77.33562 73.65726 77.37643 73.83122 77.41649 74.0052 77.45709 74.17915 77.49687 74.35313 77.53748 74.5271 77.57732 74.70107 77.6173 74.87503 77.657 75.049 77.69685 75.22298 77.73627 75.39693 77.77597 75.57089 77.81569 75.74487 77.85469 75.91882 77.89397 76.09279 77.93271 76.26677 77.97214 76.44073 78.01086 76.6147 78.04932 76.78867 78.08812 76.96263 78.12692 77.1366 78.16531 77.31056 78.20396 77.48454 78.24222 77.6585 78.2799 77.83246 78.31857 78.00644 78.35648 78.1804 78.39465 78.35437 78.4324 78.52834 78.47052 78.7023 78.50745 78.87627 78.54535 79.05023 78.58282 79.22421 78.62022 79.39818 78.65785 79.57213 78.69478 79.74611 78.73184 79.92007 78.76898 80.09404 78.80661 80.268 78.84305 80.44197 78.87984 80.61594 78.91711 80.7899 78.95335 80.96387 78.98999 81.13785 79.0265 81.3118 79.06218 81.48578 79.09938 81.65974 79.13583 81.8337 79.17157 82.00768 79.20775 82.18164 79.24342 82.35562 79.27965 82.52957 79.31567 82.70354 79.35095 82.87752 79.38676 83.05147 79.42223 83.22545 79.4579 83.39941 79.49338 83.57336 79.52919 83.74734 79.5641 83.92131 79.59972 84.09529 79.63498 84.26924 79.66995 84.4432 79.70537 84.61719 79.74007 84.79114 79.77492 84.96512 79.80975 85.13908 79.84502 85.31303 79.87903 85.48701 79.91374 85.66098 79.94893 85.83496 79.98302 86.00891 80.01772 86.18288 80.05208 86.35686 80.08595 86.5308 80.1203 86.70477 80.15474 86.87875 80.18846 87.05272 80.22247 87.22668 80.25629 87.40065 80.2905 87.57462 80.32451 87.74858 80.3584 87.92255 80.39178 88.09653 80.42516 88.27048 80.45987 88.44444 80.49236 88.61842 80.52617 88.79239 80.55879 88.96635 80.59279 89.14032 80.62625 89.31429 80.65852 89.48825 80.69212 89.66222 80.72516 89.8362 80.75792 90.01016 80.79138 90.18411 80.8245 90.3581 80.85628 90.53206 80.89043 90.70602 80.92293 90.87999 80.95493 91.05396 80.98775 91.22792 81.02133 91.40189 81.05266 91.57585 81.08528 91.74983 81.11826 91.92378 81.14996 92.09776 81.18259 92.27173 81.21494 92.44568 81.24637 92.61966 81.27942 92.79362 81.31142 92.9676 81.34286 93.14156 81.37514 93.31552 81.4079 93.4895 81.43858 93.66345 81.47078 93.83743 81.50273 94.0114 81.5334 94.18535 81.56519 94.35933 81.59837 94.5333 81.62843 94.70728 81.66028 94.88123 81.69055 95.05519 81.72235 95.22917 81.75441 95.40312 81.78494 95.5771 81.8159 95.75107 81.84798 95.92502 81.87817 96.099 81.90976 96.27296 81.9412 96.44695 81.97119 96.6209 82.00262 96.79486 82.03427 96.96884 82.06363 97.14279 82.09529 97.31676 82.1275 97.49074 82.1579 97.6647 82.18852 97.83867 82.2192 98.01263 82.25014 98.1866 82.28055 98.36057 82.31075 98.53453 82.34143 98.70851 82.3712 98.88246 82.40146 99.05643 82.432 99.23041 82.46248 99.40437 82.49246 99.57834 82.52232 99.7523 82.5525 99.92627 82.58249 100.10023 82.61255 100.2742 82.64267 100.44818 82.67238 100.62215 82.70238 100.7961 82.73228 100.97008 82.762 101.14404 82.7917 101.31801 82.82175 101.49197 82.85118 101.66594 82.88075 101.8399 82.91013 102.01387 82.93956 102.18784 82.96912 102.36182 82.99904 102.53577 83.02785 102.70975 83.05728 102.88371 83.08623 103.05766 83.116 103.23164 83.1448 103.40561 83.17465 103.57957 83.20325 103.75354 83.23268 103.9275 83.26184 104.10149 83.291 104.27544 83.3196 104.44942 83.34888 104.62338 83.37782 104.79733 83.40662 104.97131 83.43507 105.14528 83.46431 105.31926 83.49283 105.49321 83.52144 105.66718 83.55031 105.84116 83.57841 106.0151 83.60744 106.18909 83.6354 106.36305 83.66443 106.537 83.69281 106.71098 83.72105 106.88495 83.74959 107.05893 83.77798 107.23288 83.80644 107.40685 83.83524 107.58083 83.86261 107.75478 83.89091 107.92874 83.91924 108.10272 83.94728 108.27669 83.97546 108.45065 84.00357 108.62462 84.03154 108.79858 84.05937 108.97255 84.08755 109.14651 84.1154 109.3205 84.14316 109.49445 84.1712 109.66841 84.1982 109.84239 84.22638 110.01636 84.25464 110.19032 84.28192 110.36429 84.30989 110.53825 84.33759 110.71222 84.3648 110.88618 84.3927 109.93155 84.2388"/>
<path transform="matrix(.98721,-.15915954,-.15915,-.98726919,112.027538,28.619988)" stroke-width="1.19553" stroke-linecap="round" stroke-linejoin="round" fill="none" stroke="#1414cc" d="M-2.18182 2.9091C-2 1.81818 0 .18181 .54544 0 0-.18181-2-1.81818-2.18182-2.9091"/>
<path transform="matrix(1,0,0,-1.00006,2.0960007,112.863819)" stroke-width="1.49442" stroke-linecap="butt" stroke-miterlimit="10" stroke-linejoin="miter" fill="none" stroke="#1414cc" d="M1.12021 45.69756 .10437 45.49088 .20874 45.51248 .31313 45.53331 .4175 45.55524 .52188 45.57632 .62625 45.59785 .73064 45.6198 .835 45.64063 .93938 45.66283 1.04376 45.68407 1.14813 45.70558 1.25252 45.72743 1.35689 45.74875 1.46127 45.77083 1.56566 45.7924 1.67003 45.81393 1.77441 45.83574 1.87878 45.85745 1.98317 45.8798 2.08754 45.90091 2.19193 45.92297 2.2963 45.94505 2.40068 45.9667 2.50505 45.98863 2.60942 46.01038 2.7138 46.03238 2.81818 46.0552 2.92256 46.07687 3.02695 46.09894 3.13133 46.12096 3.2357 46.14343 3.34007 46.16579 3.44446 46.18787 3.54883 46.21 3.65321 46.23236 3.75758 46.25462 3.86197 46.27686 3.96634 46.2996 4.07072 46.3219 4.1751 46.34453 4.27946 46.36688 4.38385 46.3886 4.48822 46.41171 4.59262 46.43456 4.69699 46.45683 4.80138 46.47939 4.90575 46.50175 5.01012 46.525 5.1145 46.54782 5.21887 46.57011 5.32326 46.59294 5.42763 46.61578 5.53201 46.63896 5.63638 46.66206 5.74077 46.68457 5.84514 46.70761 5.94951 46.73053 6.05391 46.75378 6.15828 46.77667 6.26266 46.79945 6.36703 46.82298 6.47142 46.84595 6.57579 46.86935 6.68016 46.89267 6.78455 46.91544 6.88892 46.93904 6.9933 46.96216 7.09767 46.98575 7.20206 47.00928 7.30643 47.03268 7.41081 47.05608 7.5152 47.07918 7.61957 47.1032 7.72395 47.12659 7.82832 47.15027 7.93271 47.17413 8.03708 47.19753 8.14146 47.22125 8.24583 47.24515 8.3502 47.26903 8.45459 47.29297 8.55896 47.31691 8.66335 47.34052 8.76772 47.36494 8.8721 47.38853 8.97647 47.4127 9.08086 47.43694 9.18524 47.46095 9.28961 47.4851 9.394 47.50905 9.49837 47.53342 9.60275 47.5577 9.70712 47.58228 9.81151 47.60637 9.91588 47.63065 10.02025 47.65523 10.12463 47.67966 10.229 47.70416 10.33339 47.72853 10.43776 47.75337 10.54216 47.7779 10.64653 47.80252 10.7509 47.82744 10.85529 47.85208 10.95966 47.87708 11.06404 47.9015 11.16841 47.9267 11.2728 47.95157 11.37717 47.97653 11.48155 48.00166 11.58592 48.02666 11.69029 48.05165 11.79468 48.07684 11.89905 48.10219 12.00343 48.12738 12.10782 48.15228 12.2122 48.17825 12.31657 48.20325 12.42094 48.22858 12.52533 48.254 12.6297 48.2798 12.73409 48.3052 12.83846 48.33096 12.94284 48.35657 13.04721 48.38211 13.1516 48.40773 13.25597 48.43362 13.36034 48.4595 13.46472 48.48499 13.5691 48.51123 13.6735 48.53717 13.77786 48.56322 13.88225 48.5891 13.98662 48.61694 14.09099 48.64255 14.19537 48.66866 14.29974 48.69426 14.40413 48.72084 14.5085 48.74792 14.61288 48.77429 14.71725 48.8006 14.82164 48.82663 14.92601 48.85301 15.0304 48.88036 15.13478 48.9068 15.23915 48.93332 15.34354 48.96033 15.4479 48.98656 15.55229 49.01376 15.65666 49.04105 15.76103 49.06804 15.86542 49.09444 15.96979 49.12164 16.07417 49.14864 16.17854 49.1762 16.28293 49.2034 16.3873 49.23088 16.49167 49.25803 16.59607 49.28539 16.70044 49.31342 16.80482 49.34062 16.9092 49.36833 17.01358 49.39575 17.11795 49.42372 17.22234 49.45113 17.3267 49.47897 17.43108 49.5075 17.53546 49.5352 17.63983 49.56296 17.74422 49.59058 17.84859 49.61954 17.95297 49.64757 18.05736 49.67567 18.16173 49.70386 18.26611 49.73213 18.37048 49.76099 18.47487 49.78958 18.57924 49.81818 18.68362 49.84656 18.788 49.87544 18.89238 49.90433 18.99675 49.93306 19.10112 49.96208 19.2055 49.99068 19.30988 50.01976 19.41426 50.0487 19.51865 50.0787 19.62303 50.10757 19.7274 50.13692 19.83177 50.16614 19.93616 50.19572 20.04053 50.22543 20.14491 50.25499 20.24928 50.28464 20.35367 50.31435 20.45804 50.3442 20.56242 50.37383 20.6668 50.40417 20.77116 50.43402 20.87555 50.46407 20.97992 50.49448 21.08432 50.52458 21.18869 50.55528 21.29308 50.58548 21.39745 50.61615 21.50182 50.64635 21.6062 50.67696 21.71057 50.70792 21.81496 50.73895 21.91933 50.76982 22.02371 50.8008 22.12808 50.83174 22.23247 50.86264 22.33684 50.89407 22.44121 50.9258 22.54561 50.9567 22.64998 50.98834 22.75436 51.01958 22.85873 51.05191 22.96312 51.08351 23.06749 51.11543 23.17186 51.14708 23.27625 51.17935 23.38062 51.21121 23.485 51.24356 23.58937 51.2757 23.69376 51.30832 23.79813 51.34074 23.9025 51.37323 24.00688 51.40607 24.11127 51.43863 24.21565 51.47165 24.32002 51.50447 24.42441 51.53752 24.52878 51.57112 24.63316 51.60423 24.73753 51.63748 24.8419 51.67114 24.94629 51.70467 25.05066 51.73833 25.15504 51.77214 25.25941 51.80602 25.3638 51.84001 25.46817 51.8739 25.57256 51.90846 25.67694 51.94276 25.78131 51.97705 25.8857 52.01167 25.99007 52.04646 26.09445 52.08116 26.19882 52.11636 26.3032 52.15106 26.40758 52.18666 26.51195 52.22159 26.61633 52.25713 26.7207 52.29259 26.82509 52.32828 26.92946 52.36409 27.03386 52.39977 27.13823 52.43593 27.2426 52.47202 27.34698 52.50833 27.45135 52.5449 27.55574 52.58142 27.66011 52.61807 27.7645 52.65472 27.86887 52.69275 27.97325 52.72946 28.07762 52.76646 28.18199 52.80458 28.28638 52.84157 28.39075 52.87962 28.49513 52.91737 28.59952 52.95506 28.7039 52.99365 28.80827 53.03134 28.91264 53.0696 29.01703 53.10867 29.1214 53.14699 29.22578 53.18661 29.33015 53.22514 29.43454 53.26422 29.53891 53.304 29.6433 53.34349 29.74767 53.38306 29.85204 53.42311 29.95642 53.46309 30.0608 53.50385 30.16519 53.54417 30.26956 53.58456 30.37395 53.62566 30.47832 53.66655 30.58269 53.70763 30.68707 53.74934 30.79144 53.79099 30.89583 53.83263 31.0002 53.87485 31.10458 53.91692 31.20895 53.95946 31.31332 54.00215 31.41771 54.04483 31.5221 54.08795 31.62648 54.13126 31.73085 54.17497 31.83524 54.21857 31.9396 54.26251 32.04399 54.30687 32.14836 54.35136 32.25273 54.39584 32.35712 54.44096 32.46149 54.48622 32.56587 54.53183 32.67024 54.5775 32.77463 54.6234 32.879 54.66962 32.98337 54.71626 33.08777 54.76318 33.19214 54.81038 33.29652 54.85771 33.4009 54.90541 33.50528 54.95352 33.60965 55.00175 33.71404 55.05048 33.8184 55.09943 33.92278 55.14877 34.02716 55.1984 34.13153 55.24844 34.23592 55.29877 34.34029 55.3493 34.44467 55.40045 34.54906 55.45183 34.65343 55.5036 34.75781 55.55457 34.86218 55.60732 34.96657 55.66006 35.07094 55.71352 35.17532 55.76701 35.2797 55.82117 35.38408 55.876 35.48845 55.93152 35.59282 55.98714 35.6972 56.04321 35.80157 56.09958 35.90596 56.15726 36.01033 56.21487 36.11473 56.27312 36.2191 56.3321 36.32347 56.39119 36.42786 56.4508 36.53223 56.51126 36.63661 56.57234 36.74098 56.63412 36.84537 56.6966 36.94974 56.75989 37.05412 56.82376 37.1585 56.88824 37.26286 56.95349 37.36725 57.01942 37.47162 57.08606 37.57602 57.15416 37.68039 57.22218 37.78477 57.29228 37.88914 57.3624 37.99352 57.43402 38.0979 57.50615 38.20227 57.57973 38.30666 57.65475 38.41103 57.7305 38.51541 57.80746 38.61978 57.88597 38.72415 57.96579 38.82854 58.04707 38.9329 58.12968 39.03731 58.21365 39.14168 58.29973 39.24606 58.3879 39.35043 58.47751 39.45482 58.56912 39.55919 58.66359 39.66356 58.75932 39.76794 58.85864 39.87231 58.96005 39.9767 59.06494 40.08107 59.17314 40.18546 59.28497 40.28983 59.4009 40.3942 59.52167 40.49858 59.64668 40.60297 59.77849 40.70735 59.916 40.81172 60.06259 40.9161 60.21808 41.02048 60.38467 41.12486 60.56667 41.22923 60.76727 41.3336 60.99495 41.43799 61.2658 41.54236 61.61778 41.64674 62.40746"/>
<path transform="matrix(-.97987,.19937195,.19936,.9799288,3.2162207,67.16351)" stroke-width="1.19553" stroke-linecap="round" stroke-linejoin="round" fill="none" stroke="#1414cc" d="M-2.18182 2.9091C-2 1.81818 0 .18181 .54544 0 0-.18181-2-1.81818-2.18182-2.9091"/>
<path transform="matrix(1,0,0,-1.00006,2.0960007,112.863819)" stroke-width="1.49442" stroke-linecap="butt" stroke-miterlimit="10" stroke-linejoin="miter" fill="none" stroke="#1414cc" d="M41.64734 62.33218V62.60983"/>
</g>
<use data-text="x" xlink:href="#font_4_1" transform="matrix(9.9626,0,0,-9.963197,103.965007,53.799276)"/>
<use data-text="y" xlink:href="#font_4_2" transform="matrix(9.9626,0,0,-9.963197,61.156003,9.585617)"/>
</svg>
