<svg xmlns="http://www.w3.org/2000/svg" xmlns:xlink="http://www.w3.org/1999/xlink" xmlns:inkscape="http://www.inkscape.org/namespaces/inkscape" version="1.1" width="186" height="185" viewBox="0 0 186 185">
<defs>
<path id="font_1_1" d="M.6589966 .23046875C.6759949 .23046875 .69400027 .23046875 .69400027 .25045777 .69400027 .27046205 .6759949 .27046205 .6589966 .27046205H.117996219C.100997928 .27046205 .08299255 .27046205 .08299255 .25045777 .08299255 .23046875 .100997928 .23046875 .117996219 .23046875H.6589966Z"/>
<path id="font_2_3" d="M.13198853 .327713V.35173036C.13198853 .6047821 .2559967 .64100649 .30699159 .64100649 .33099366 .64100649 .37298585 .634964 .394989 .6007538 .37998963 .6007538 .33999635 .6007538 .33999635 .5557556 .33999635 .524765 .3639984 .5097656 .38598634 .5097656 .4019928 .5097656 .43199159 .51875308 .43199159 .5577545 .43199159 .6178589 .3880005 .6660156 .30499269 .6660156 .1769867 .6660156 .041992189 .5367584 .041992189 .31570436 .041992189 .048553468 .1579895-.022460938 .25099183-.022460938 .3619995-.022460938 .45700074 .07156372 .45700074 .2036438 .45700074 .33070375 .36799623 .4267578 .25698854 .4267578 .18899536 .4267578 .1519928 .37573243 .13198853 .327713M.25099183 .0055389406C.18798828 .0055389406 .1579895 .06556702 .1519928 .080566409 .13398743 .127594 .13398743 .2076416 .13398743 .22564698 .13398743 .30369569 .1659851 .40374757 .2559967 .40374757 .27198792 .40374757 .31799317 .40374757 .34899903 .34172059 .36698915 .30470277 .36698915 .2536621 .36698915 .20463562 .36698915 .15661621 .36698915 .10658264 .34999085 .0705719 .31999208 .010528564 .27398683 .0055389406 .25099183 .0055389406Z"/>
<path id="font_2_2" d="M.2939911 .16503906V.07800293C.2939911 .041992189 .2919922 .0309906 .21798706 .0309906H.19699097V0C.23799134 .0029907227 .2899933 .0029907227 .33198548 .0029907227 .37399293 .0029907227 .4269867 .0029907227 .46798707 0V.0309906H.44699098C.37298585 .0309906 .37098695 .041992189 .37098695 .07800293V.16503906H.47099305V.19602967H.37098695V.65075686C.37098695 .67074587 .37098695 .6767578 .35499574 .6767578 .34599305 .6767578 .34298707 .6767578 .33499146 .66474917L.027999878 .19602967V.16503906H.2939911M.2999878 .19602967H.055999757L.2999878 .5688019V.19602967Z"/>
<path id="font_2_1" d="M.1269989 .07699585 .23298645 .18003845C.3889923 .31811524 .44898988 .3721466 .44898988 .47216798 .44898988 .5860901 .35899354 .6660156 .23699951 .6660156 .12399292 .6660156 .049987794 .57411196 .049987794 .48516847 .049987794 .4291687 .099990848 .4291687 .102996829 .4291687 .11999512 .4291687 .15499878 .44117738 .15499878 .48217774 .15499878 .5081787 .13699341 .5341797 .101989749 .5341797 .09399414 .5341797 .09199524 .5341797 .08898926 .5331726 .11199951 .59806826 .1659851 .63500979 .22399903 .63500979 .31498719 .63500979 .35798646 .5541382 .35798646 .47216798 .35798646 .39215089 .30799867 .31311036 .25299073 .25108338L.06098938 .036987306C.049987794 .025985718 .049987794 .023986817 .049987794 0H.42099L.44898988 .17404175H.42399598C.4189911 .14402771 .4119873 .1000061 .4019928 .084991458 .394989 .07699585 .32899476 .07699585 .30699159 .07699585H.1269989Z"/>
<clipPath id="clip_3">
<path transform="matrix(1.00002,0,0,-1,2.095665,183.73401)" d="M0 0H181.93727V181.93727H0Z"/>
</clipPath>
<path id="font_4_3" d="M.5179901 .37738038C.5219879 .39138795 .5219879 .39338685 .5219879 .40039063 .5219879 .42539979 .5019989 .43139649 .48999024 .43139649 .4850006 .43139649 .46199037 .43040467 .44898988 .40438844 .44699098 .3993988 .43798829 .3633728 .43299867 .34236146L.37298585 .102264408C.37199403 .09925842 .32899476 .018234253 .2559967 .018234253 .20698548 .018234253 .18998719 .054244996 .18998719 .09925842 .18998719 .1572876 .22399903 .24632263 .24699402 .3043518 .25698854 .32936097 .2599945 .33836366 .2599945 .35636903 .2599945 .4113922 .21598816 .44140626 .16999817 .44140626 .070999149 .44140626 .02999878 .300354 .02999878 .28834535 .02999878 .27934266 .036987306 .27534486 .04499817 .27534486 .057998659 .27534486 .05899048 .28134156 .06199646 .29135133 .08799744 .37838746 .1309967 .4133911 .16699219 .4133911 .18199158 .4133911 .19099427 .4033966 .19099427 .38038636 .19099427 .359375 .18299866 .33636476 .17599488 .31835938 .1349945 .21231079 .117996219 .1612854 .117996219 .11427307 .117996219 .016220093 .19198609-.009765625 .25099183-.009765625 .2979889-.009765625 .33198548 .011230469 .35598756 .034240724 .34199525-.021774292 .33198548-.060791017 .2939911-.108795169 .26098634-.14985657 .22099304-.17610169 .17599488-.17610169 .15899658-.17610169 .12098694-.17308045 .100997928-.14279175 .1539917-.13879395 .1579895-.09379578 .1579895-.08778381 .1579895-.06378174 .13999939-.05078125 .11898804-.05078125 .09700012-.05078125 .06199646-.0677948 .06199646-.11679077 .06199646-.1639862 .10499573-.20410156 .17599488-.20410156 .27799989-.20410156 .3929901-.121795658 .4229889-.00077819827L.5179901 .37738038Z"/>
<path id="font_5_52" d="M.7659912 .3560028C.7659912 .3789978 .74198916 .3789978 .72698977 .3789978H.09799194C.08299255 .3789978 .05899048 .3789978 .05899048 .3560028 .05899048 .3330078 .07899475 .3330078 .09399414 .3330078H.73098757C.74598696 .3330078 .7659912 .3330078 .7659912 .3560028M.7659912 .14398194C.7659912 .16699219 .74598696 .16699219 .73098757 .16699219H.09399414C.07899475 .16699219 .05899048 .16699219 .05899048 .14398194 .05899048 .12098694 .08299255 .12098694 .09799194 .12098694H.72698977C.74198916 .12098694 .7659912 .12098694 .7659912 .14398194Z"/>
<path id="font_6_1" d="M.69898989 .22743225C.71499636 .22743225 .7369995 .22743225 .7369995 .25042726 .7369995 .2734375 .71499636 .2734375 .69898989 .2734375H.12599182C.10998535 .2734375 .08799744 .2734375 .08799744 .25042726 .08799744 .22743225 .10998535 .22743225 .12599182 .22743225H.69898989Z"/>
<path id="font_7_4" d="M.28199769 .20405579C.2979889 .21907044 .33999635 .2520752 .35598756 .26608277 .41799928 .32312013 .47698976 .3781433 .47698976 .46917726 .47698976 .588089 .3769989 .66503909 .2519989 .66503909 .13198853 .66503909 .052993776 .57411196 .052993776 .48516847 .052993776 .4361725 .09199524 .4291687 .10598755 .4291687 .1269989 .4291687 .1579895 .4441681 .1579895 .48217774 .1579895 .5341797 .10798645 .5341797 .09599304 .5341797 .125 .6070709 .19198609 .6320343 .24099732 .6320343 .33399964 .6320343 .38198854 .55314639 .38198854 .46917726 .38198854 .36514283 .30899049 .28910829 .19099427 .16804505L.06498718 .037994386C.052993776 .026992798 .052993776 .024993897 .052993776 0H.44799806L.47698976 .17904663H.44599916C.44299317 .1590271 .43499757 .10900879 .4229889 .08999634 .4169922 .08198547 .34098817 .08198547 .32499696 .08198547H.14698792L.28199769 .20405579Z"/>
<path id="font_4_2" d="M.5009918 .39942933C.45700074 .38842774 .45498658 .34942628 .45498658 .34542848 .45498658 .3234253 .47200013 .3084259 .49398805 .3084259 .5159912 .3084259 .5499878 .3254242 .5499878 .36842347 .5499878 .42539979 .4869995 .44140626 .44999696 .44140626 .40299989 .44140626 .36499024 .4084015 .34199525 .36943055 .31999208 .4223938 .2679901 .44140626 .22698975 .44140626 .117996219 .44140626 .056991579 .31643678 .056991579 .28840638 .056991579 .27938844 .06399536 .27539063 .07199097 .27539063 .083999637 .27539063 .085998538 .2803955 .08898926 .29240418 .11199951 .36543275 .17199707 .4133911 .22399903 .4133911 .2630005 .4133911 .28199769 .385437 .28199769 .34942628 .28199769 .32943727 .269989 .2834015 .2619934 .25135804 .25498963 .22232056 .23298645 .13320923 .22799683 .11419678 .21398926 .060195924 .17799378 .018234253 .1329956 .018234253 .1289978 .018234253 .102996829 .018234253 .08198547 .032196046 .12799073 .04319763 .12799073 .08518982 .12799073 .0861969 .12799073 .109191898 .10998535 .12319946 .08799744 .12319946 .06098938 .12319946 .03199768 .10018921 .03199768 .062194826 .03199768 .016220093 .08099365-.009765625 .13198853-.009765625 .18499756-.009765625 .22200012 .030197144 .23999024 .062194826 .2619934 .01322937 .30799867-.009765625 .35598756-.009765625 .46499635-.009765625 .5249939 .1151886 .5249939 .143219 .5249939 .15322876 .5169983 .15623474 .5099945 .15623474 .49798585 .15623474 .49598695 .14923096 .49299623 .13922119 .47299195 .07218933 .41600038 .018234253 .35798646 .018234253 .32499696 .018234253 .30099488 .04019165 .30099488 .0821991 .30099488 .10218811 .30699159 .12519837 .32099916 .18127442 .32798768 .21130371 .34999085 .29942323 .35499574 .31843568 .36898805 .37042237 .4039917 .4133911 .44898988 .4133911 .45399476 .4133911 .47999574 .4133911 .5009918 .39942933Z"/>
<path id="font_7_1" d="M.33299256-.25C.34098817-.25 .35299684-.25 .35299684-.23800659 .35299684-.23400879 .35198976-.23300171 .33898927-.22000122 .20199585-.09100342 .16799927 .09498596 .16799927 .25 .16799927 .5379944 .2869873 .6729889 .33799745 .71899417 .35198976 .7319946 .35299684 .73298647 .35299684 .73799136 .35299684 .7429962 .34899903 .75 .33898927 .75 .32299806 .75 .272995 .69898989 .2649994 .6899872 .1309967 .5499878 .102996829 .36999513 .102996829 .25 .102996829 .025985718 .19699097-.15400696 .33299256-.25Z"/>
<path id="font_7_3" d="M.4889984 .31877137C.4889984 .42585755 .47799684 .49090577 .44499208 .55496218 .40098573 .6430359 .31999208 .66503909 .2649994 .66503909 .13899231 .66503909 .09298706 .5709839 .07899475 .5429535 .042999269 .4698944 .040985109 .3708191 .040985109 .31877137 .040985109 .25271607 .04399109 .15162659 .09199524 .07156372 .13798523-.0024871827 .21199036-.021484375 .2649994-.021484375 .31298829-.021484375 .39898683-.0064849855 .44898988 .09257507 .48599244 .16464234 .4889984 .2537079 .4889984 .31877137M.2649994 .006515503C.23098755 .006515503 .1619873 .022521973 .14099121 .12760926 .12998963 .18466187 .12998963 .2787323 .12998963 .33078004 .12998963 .3998413 .12998963 .4698944 .14099121 .5249481 .1619873 .6270294 .23999024 .6370239 .2649994 .6370239 .29899598 .6370239 .36799623 .62002566 .3880005 .5289459 .3999939 .4738922 .3999939 .39883424 .3999939 .33078004 .3999939 .27172853 .3999939 .18165589 .3880005 .12561035 .36698915 .020523072 .2979889 .006515503 .2649994 .006515503Z"/>
<path id="font_4_1" d="M.18699646 .01499939C.18699646-.050109865 .17298889-.10720825 .11099243-.16934204 .10699463-.17234802 .10499573-.17434693 .10499573-.17933655 .10499573-.18734741 .11299133-.19334412 .11999512-.19334412 .13198853-.19334412 .21499634-.114227298 .21499634 .0029907227 .21499634 .066986087 .19099427 .11099243 .14698792 .11099243 .11199951 .11099243 .09199524 .08299255 .09199524 .055999757 .09199524 .027999878 .11099243 0 .147995 0 .17199707 0 .18699646 .01399231 .18699646 .01499939Z"/>
<path id="font_7_5" d="M.13798523 .33073426C.13798523 .41377259 .14498902 .4868164 .18099976 .54782107 .21099854 .5978241 .2619934 .6390381 .32499696 .6390381 .34498597 .6390381 .3909912 .63601687 .4139862 .60084536 .36898805 .5988312 .36499024 .5648346 .36499024 .553833 .36499024 .5238342 .3880005 .50683596 .4119873 .50683596 .42999269 .50683596 .45899964 .51782229 .45899964 .5558319 .45899964 .615921 .4139862 .66503909 .32398988 .66503909 .18499756 .66503909 .04399109 .53282168 .04399109 .31672669 .04399109 .045532228 .16999817-.021484375 .2669983-.021484375 .31498719-.021484375 .36698915-.0084991459 .4119873 .03453064 .45199586 .07354736 .48599244 .11558533 .48599244 .20263672 .48599244 .33372499 .3869934 .42578126 .27598573 .42578126 .20399475 .42578126 .16099549 .37976075 .13798523 .33073426M.2669983 .008514404C.21398926 .008514404 .18099976 .045532228 .1659851 .07354736 .14299011 .11859131 .14099121 .18663025 .14099121 .22465515 .14099121 .32373048 .19499207 .3977661 .27198792 .3977661 .32199098 .3977661 .35198976 .37176515 .37098695 .33673097 .3919983 .29971314 .3919983 .25468446 .3919983 .2036438 .3919983 .15260315 .3919983 .10858154 .37199403 .07255554 .34599305 .026519776 .31098939 .008514404 .2669983 .008514404Z"/>
<path id="font_7_2" d="M.30899049 .25C.30899049 .34500123 .29299928 .45899964 .23098755 .57699587 .18199158 .6689911 .09098816 .75 .07299805 .75 .06298828 .75 .05999756 .7429962 .05999756 .73799136 .05999756 .73399356 .05999756 .7319946 .07199097 .7200012 .21199036 .58699038 .24398804 .4039917 .24398804 .25 .24398804-.037002565 .125-.17300415 .07398987-.2190094 .06098938-.23200989 .05999756-.23300171 .05999756-.23800659 .05999756-.24301148 .06298828-.25 .07299805-.25 .08898926-.25 .13899231-.19900513 .14698792-.19000244 .2809906-.05000305 .30899049 .12998963 .30899049 .25Z"/>
<path id="font_8_1" d="M.33399964 .30233766C.33999635 .32835389 .36299134 .42037965 .43299867 .42037965 .43798829 .42037965 .46199037 .42037965 .48298646 .40734864 .45498658 .402359 .43499757 .37734986 .43499757 .35334779 .43499757 .33735658 .44599916 .31835938 .47299195 .31835938 .49499513 .31835938 .5269928 .3363495 .5269928 .37635804 .5269928 .42837525 .46798707 .4423828 .43399049 .4423828 .37599183 .4423828 .34098817 .38935853 .32899476 .36634828 .3039856 .43237306 .25 .4423828 .22099304 .4423828 .116989139 .4423828 .05999756 .3133545 .05999756 .28834535 .05999756 .27833558 .069992069 .27833558 .07199097 .27833558 .07998657 .27833558 .08299255 .28033448 .084991458 .28933717 .11898804 .39535523 .18499756 .42037965 .21899414 .42037965 .23799134 .42037965 .272995 .4113617 .272995 .35334779 .272995 .32235719 .2559967 .25532533 .21899414 .11528015 .20298767 .053268434 .16799927 .011245728 .12399292 .011245728 .117996219 .011245728 .09498596 .011245728 .07398987 .024276734 .09899902 .029266358 .12098694 .05027771 .12098694 .07827759 .12098694 .105270389 .09899902 .11328125 .083999637 .11328125 .053985597 .11328125 .0289917 .08728027 .0289917 .055267335 .0289917 .009246826 .07899475-.0107421879 .12298584-.0107421879 .18899536-.0107421879 .22499085 .059280397 .22799683 .0652771 .23999024 .028274537 .27598573-.0107421879 .33599855-.0107421879 .43899537-.0107421879 .49598695 .118270877 .49598695 .14328003 .49598695 .1532898 .4869995 .1532898 .48399354 .1532898 .47499085 .1532898 .47299195 .14929199 .47099305 .14228821 .43798829 .03527832 .36999513 .011245728 .33799745 .011245728 .29899598 .011245728 .2829895 .043273927 .2829895 .07727051 .2829895 .09927368 .2889862 .121276859 .2999878 .16529846L.33399964 .30233766Z"/>
<path id="font_8_2" d="M.48599244 .38136292C.48999024 .39537049 .48999024 .39736939 .48999024 .40437318 .48999024 .42237855 .47599793 .43138124 .46099855 .43138124 .45098878 .43138124 .43499757 .42536927 .42599488 .41036988 .42399598 .405365 .41600038 .37435914 .4119873 .35635377 .40499879 .33035279 .397995 .30334474 .3919983 .27633668L.34700013 .09628296C.34298707 .08126831 .2999878 .011245728 .23399353 .011245728 .18299866 .011245728 .17199707 .055267335 .17199707 .0922699 .17199707 .1382904 .18899536 .20030213 .22299195 .28833009 .23899842 .3293457 .24299622 .3403473 .24299622 .36035157 .24299622 .405365 .21099854 .4423828 .16099549 .4423828 .06599426 .4423828 .0289917 .29733277 .0289917 .28833009 .0289917 .27833558 .038986207 .27833558 .040985109 .27833558 .050994874 .27833558 .051986696 .28033448 .056991579 .29634095 .083999637 .3903656 .12399292 .42037965 .1579895 .42037965 .1659851 .42037965 .18299866 .42037965 .18299866 .3883667 .18299866 .36335755 .17298889 .3373413 .1659851 .31834413 .12599182 .21231079 .10798645 .1552887 .10798645 .10827637 .10798645 .019256592 .17098999-.0107421879 .22999573-.0107421879 .2689972-.0107421879 .30299378 .0062561037 .33099366 .03425598 .31799317-.017745972 .30599977-.06674194 .2659912-.11973572 .23999024-.15385437 .20199585-.18309021 .1559906-.18309021 .14199829-.18309021 .09700012-.18005371 .07998657-.14074707 .09599304-.14074707 .10899353-.14074707 .12298584-.1287384 .1329956-.11973572 .14299011-.10673523 .14299011-.08773804 .14299011-.056747438 .115997318-.052734376 .10598755-.052734376 .08299255-.052734376 .049987794-.068740848 .049987794-.11773682 .049987794-.16796875 .09399414-.20507813 .1559906-.20507813 .25898744-.20507813 .3619995-.11373901 .3899994-.00074768069L.48599244 .38136292Z"/>
</defs>
<path transform="matrix(1.00002,0,0,-1,2.095665,183.73401)" stroke-width=".3985" stroke-linecap="butt" stroke-miterlimit="10" stroke-linejoin="miter" fill="none" stroke="#404040" d="M0 0H181.93727V181.93727H0Z"/>
<path transform="matrix(1.00002,0,0,-1,2.095665,183.73401)" stroke-width=".3985" stroke-linecap="butt" stroke-miterlimit="10" stroke-linejoin="miter" fill="none" stroke="#bfbfbf" d="M11.37108 0V181.93727M34.11324 0V181.93727M56.8554 0V181.93727M79.59755 0V181.93727M102.3397 0V181.93727M125.08186 0V181.93727M147.82404 0V181.93727M170.5662 0V181.93727"/>
<path transform="matrix(1.00002,0,0,-1,2.095665,183.73401)" stroke-width=".3985" stroke-linecap="butt" stroke-miterlimit="10" stroke-linejoin="miter" fill="none" stroke="#bfbfbf" d="M22.74216 0V181.93727M45.48431 0V181.93727M68.22647 0V181.93727M113.71078 0V181.93727M136.45296 0V181.93727M159.19512 0V181.93727"/>
<path transform="matrix(1.00002,0,0,-1,2.095665,183.73401)" stroke-width=".3985" stroke-linecap="butt" stroke-miterlimit="10" stroke-linejoin="miter" fill="none" stroke="#bfbfbf" d="M0 11.37108H181.93727M0 34.11324H181.93727M0 56.8554H181.93727M0 79.59755H181.93727M0 102.3397H181.93727M0 125.08186H181.93727M0 147.82404H181.93727M0 170.5662H181.93727"/>
<path transform="matrix(1.00002,0,0,-1,2.095665,183.73401)" stroke-width=".3985" stroke-linecap="butt" stroke-miterlimit="10" stroke-linejoin="miter" fill="none" stroke="#bfbfbf" d="M0 22.74216H181.93727M0 45.48431H181.93727M0 68.22647H181.93727M0 113.71078H181.93727M0 136.45296H181.93727M0 159.19512H181.93727"/>
<path transform="matrix(1.00002,0,0,-1,2.095665,183.73401)" stroke-width=".19925" stroke-linecap="butt" stroke-miterlimit="10" stroke-linejoin="miter" fill="none" stroke="#7f807f" d="M11.37108 89.55124V92.38602M34.11324 89.55124V92.38602M56.8554 89.55124V92.38602M79.59755 89.55124V92.38602M102.3397 89.55124V92.38602M125.08186 89.55124V92.38602M147.82404 89.55124V92.38602M170.5662 89.55124V92.38602"/>
<path transform="matrix(1.00002,0,0,-1,2.095665,183.73401)" stroke-width=".19925" stroke-linecap="butt" stroke-miterlimit="10" stroke-linejoin="miter" fill="none" stroke="#7f807f" d="M22.74216 88.84276V93.0945M45.48431 88.84276V93.0945M68.22647 88.84276V93.0945M113.71078 88.84276V93.0945M136.45296 88.84276V93.0945M159.19512 88.84276V93.0945"/>
<path transform="matrix(1.00002,0,0,-1,2.095665,183.73401)" stroke-width=".19925" stroke-linecap="butt" stroke-miterlimit="10" stroke-linejoin="miter" fill="none" stroke="#7f807f" d="M89.55124 11.37108H92.38602M89.55124 34.11324H92.38602M89.55124 56.8554H92.38602M89.55124 79.59755H92.38602M89.55124 102.3397H92.38602M89.55124 125.08186H92.38602M89.55124 147.82404H92.38602M89.55124 170.5662H92.38602"/>
<path transform="matrix(1.00002,0,0,-1,2.095665,183.73401)" stroke-width=".19925" stroke-linecap="butt" stroke-miterlimit="10" stroke-linejoin="miter" fill="none" stroke="#7f807f" d="M88.84276 22.74216H93.0945M88.84276 45.48431H93.0945M88.84276 68.22647H93.0945M88.84276 113.71078H93.0945M88.84276 136.45296H93.0945M88.84276 159.19512H93.0945"/>
<path transform="matrix(1.00002,0,0,-1,2.095665,183.73401)" stroke-width=".3985" stroke-linecap="butt" stroke-miterlimit="10" stroke-linejoin="miter" fill="none" stroke="#000000" d="M0 90.96863H179.94475"/>
<path transform="matrix(1.00002,0,0,-1,182.044,92.76538)" d="M1.99252 0-1.19551 1.59401 0 0-1.19551-1.59401"/>
<path transform="matrix(1.00002,0,0,-1,2.095665,183.73401)" stroke-width=".3985" stroke-linecap="butt" stroke-miterlimit="10" stroke-linejoin="miter" fill="none" stroke="#000000" d="M90.96863 0V179.94475"/>
<path transform="matrix(0,-1,-1.00002,-0,93.06612,3.7892609)" d="M1.99252 0-1.19551 1.59401 0 0-1.19551-1.59401"/>
<use data-text="&#x2212;" xlink:href="#font_1_1" transform="matrix(9.962799,0,0,-9.9626,18.472992,104.83201)"/>
<use data-text="6" xlink:href="#font_2_3" transform="matrix(9.962799,0,0,-9.9626,26.222146,104.83201)"/>
<use data-text="&#x2212;" xlink:href="#font_1_1" transform="matrix(9.962799,0,0,-9.9626,41.215448,104.83201)"/>
<use data-text="4" xlink:href="#font_2_2" transform="matrix(9.962799,0,0,-9.9626,48.9646,104.83201)"/>
<use data-text="&#x2212;" xlink:href="#font_1_1" transform="matrix(9.962799,0,0,-9.9626,63.957906,104.83201)"/>
<use data-text="2" xlink:href="#font_2_1" transform="matrix(9.962799,0,0,-9.9626,71.70706,104.83201)"/>
<use data-text="2" xlink:href="#font_2_1" transform="matrix(9.962799,0,0,-9.9626,113.317897,104.83101)"/>
<use data-text="4" xlink:href="#font_2_2" transform="matrix(9.962799,0,0,-9.9626,136.06037,104.83101)"/>
<use data-text="6" xlink:href="#font_2_3" transform="matrix(9.962799,0,0,-9.9626,158.8028,104.83101)"/>
<use data-text="&#x2212;" xlink:href="#font_1_1" transform="matrix(9.962799,0,0,-9.9626,74.690128,163.787)"/>
<use data-text="6" xlink:href="#font_2_3" transform="matrix(9.962799,0,0,-9.9626,82.43928,163.787)"/>
<use data-text="&#x2212;" xlink:href="#font_1_1" transform="matrix(9.962799,0,0,-9.9626,74.690128,141.04502)"/>
<use data-text="4" xlink:href="#font_2_2" transform="matrix(9.962799,0,0,-9.9626,82.43928,141.04502)"/>
<use data-text="&#x2212;" xlink:href="#font_1_1" transform="matrix(9.962799,0,0,-9.9626,74.690128,118.30301)"/>
<use data-text="2" xlink:href="#font_2_1" transform="matrix(9.962799,0,0,-9.9626,82.43928,118.30301)"/>
<use data-text="2" xlink:href="#font_2_1" transform="matrix(9.962799,0,0,-9.9626,82.43928,73.23301)"/>
<use data-text="4" xlink:href="#font_2_2" transform="matrix(9.962799,0,0,-9.9626,82.43928,50.491014)"/>
<use data-text="6" xlink:href="#font_2_3" transform="matrix(9.962799,0,0,-9.9626,82.43928,27.749009)"/>
<g clip-path="url(#clip_3)">
<path transform="matrix(1.00002,0,0,-1,2.095665,183.73401)" stroke-width=".99628" stroke-linecap="butt" stroke-dasharray="2.98883,2.98883" stroke-miterlimit="10" stroke-linejoin="miter" fill="none" stroke="#8014b3" d="M1.969 68.22647H179.96826"/>
<path transform="matrix(-1.00002,-0,0,1,4.0647046,115.50754)" stroke-width=".79701" stroke-linecap="round" stroke-linejoin="round" fill="none" stroke="#8014b3" d="M-1.73352 2.31136C-1.58905 1.4446 0 .14444 .43336 0 0-.14444-1.58905-1.4446-1.73352-2.31136"/>
<path transform="matrix(1.00002,0,0,-1,182.06754,115.50754)" stroke-width=".79701" stroke-linecap="round" stroke-linejoin="round" fill="none" stroke="#8014b3" d="M-1.73352 2.31136C-1.58905 1.4446 0 .14444 .43336 0 0-.14444-1.58905-1.4446-1.73352-2.31136"/>
<use data-text="y" xlink:href="#font_4_3" transform="matrix(7.9702599,0,0,-7.9701,154.67173,122.98601)" fill="#ff801a"/>
<use data-text="=" xlink:href="#font_5_52" transform="matrix(7.9702599,0,0,-7.9701,160.55484,122.98601)" fill="#ff801a"/>
<use data-text="&#x2212;" xlink:href="#font_6_1" transform="matrix(7.9702599,0,0,-7.9701,168.467,122.98601)" fill="#ff801a"/>
<use data-text="2" xlink:href="#font_7_4" transform="matrix(7.9702599,0,0,-7.9701,175.05413,122.98601)" fill="#ff801a"/>
<path transform="matrix(1.00002,0,0,-1,2.095665,183.73401)" stroke-width=".99628" stroke-linecap="butt" stroke-dasharray="2.98883,2.98883" stroke-miterlimit="10" stroke-linejoin="miter" fill="none" stroke="#ff801a" d="M68.22647 181.10538V.8319"/>
<path transform="matrix(0,-1,-1.00002,-0,70.3235,2.6286317)" stroke-width=".79701" stroke-linecap="round" stroke-linejoin="round" fill="none" stroke="#ff801a" d="M-1.73352 2.31136C-1.58905 1.4446 0 .14444 .43336 0 0-.14444-1.58905-1.4446-1.73352-2.31136"/>
<path transform="matrix(0,1,1.00002,0,70.3235,182.90212)" stroke-width=".79701" stroke-linecap="round" stroke-linejoin="round" fill="none" stroke="#ff801a" d="M-1.73352 2.31136C-1.58905 1.4446 0 .14444 .43336 0 0-.14444-1.58905-1.4446-1.73352-2.31136"/>
<use data-text="x" xlink:href="#font_4_2" transform="matrix(7.9702599,0,0,-7.9701,40.81044,180.20201)" fill="#ff801a"/>
<use data-text="=" xlink:href="#font_5_52" transform="matrix(7.9702599,0,0,-7.9701,46.988565,180.20201)" fill="#ff801a"/>
<use data-text="&#x2212;" xlink:href="#font_6_1" transform="matrix(7.9702599,0,0,-7.9701,54.900728,180.20201)" fill="#ff801a"/>
<use data-text="2" xlink:href="#font_7_4" transform="matrix(7.9702599,0,0,-7.9701,61.487855,180.20201)" fill="#ff801a"/>
<path transform="matrix(1.00002,0,0,-1,2.095665,183.73401)" stroke-width=".99628" stroke-linecap="butt" stroke-miterlimit="10" stroke-linejoin="miter" fill="none" stroke="#1414cc" d="M.81966 52.92343 .15092 53.03926 .30185 53.01537 .45277 52.97784 .60371 52.96306 .75464 52.93918 .90556 52.91302 1.0565 52.88689 1.20743 52.86072 1.35835 52.83458 1.5093 52.8107 1.66022 52.78453 1.81114 52.75838 1.96208 52.73224 2.113 52.70494 2.26393 52.67879 2.41487 52.65263 2.5658 52.62648 2.71672 52.60033 2.86766 52.57304 3.01859 52.54688 3.16951 52.51959 3.32045 52.49344 3.47137 52.46501 3.6223 52.43886 3.77324 52.41156 3.92416 52.38542 4.07509 52.35811 4.22603 52.33197 4.37697 52.30354 4.5279 52.27625 4.67883 52.24782 4.82976 52.22054 4.98068 52.19325 5.13162 52.16483 5.28255 52.13751 5.43347 52.10909 5.58441 52.0818 5.73534 52.05452 5.88626 52.02495 6.0372 51.99652 6.18813 51.96924 6.33905 51.93967 6.48999 51.91124 6.64091 51.88281 6.79184 51.85439 6.94276 51.8255 7.0937 51.79651 7.24463 51.76762 7.39555 51.73874 7.5465 51.7094 7.69742 51.68028 7.84834 51.65096 7.99928 51.62163 8.1502 51.59216 8.30113 51.56271 8.45207 51.53304 8.60301 51.50313 8.75394 51.47334 8.90488 51.44342 9.0558 51.41365 9.20673 51.38339 9.35767 51.35336 9.50859 51.32301 9.65952 51.29253 9.81046 51.2623 9.96138 51.23158 10.1123 51.20111 10.26324 51.17041 10.41417 51.1396 10.5651 51.10878 10.71603 51.07785 10.86696 51.04681 11.01788 51.01576 11.16882 50.98439 11.31975 50.95311 11.47067 50.92172 11.62161 50.89012 11.77254 50.85863 11.92346 50.827 12.0744 50.79527 12.22533 50.76334 12.37625 50.73138 12.52719 50.69931 12.67812 50.66724 12.82906 50.63495 12.98 50.60265 13.13092 50.57024 13.28185 50.53772 13.43277 50.50508 13.58371 50.47246 13.73463 50.4397 13.88556 50.40685 14.0365 50.37398 14.18742 50.341 14.33835 50.3079 14.48929 50.27449 14.64021 50.24117 14.79114 50.20773 14.94208 50.17442 15.093 50.14098 15.24393 50.10733 15.39487 50.07344 15.54579 50.03955 15.69672 50.00557 15.84766 49.97156 15.99858 49.93744 16.1495 49.90346 16.30045 49.86899 16.45137 49.83464 16.6023 49.8002 16.75323 49.76563 16.90416 49.73073 17.0551 49.69615 17.20604 49.66136 17.35696 49.62643 17.50789 49.59143 17.65883 49.55641 17.80975 49.52138 17.96068 49.4859 18.11162 49.45076 18.26254 49.41518 18.41347 49.3798 18.5644 49.344 18.71533 49.3084 18.86626 49.27258 19.0172 49.23677 19.16812 49.20071 19.31905 49.16457 19.46999 49.12874 19.62091 49.09235 19.77184 49.0563 19.92278 49.01991 20.0737 48.98341 20.22462 48.94702 20.37555 48.91042 20.52649 48.87369 20.67741 48.83707 20.82834 48.80011 20.97928 48.76328 21.1302 48.72632 21.28113 48.68924 21.43208 48.65228 21.58301 48.61487 21.73393 48.5778 21.88487 48.54028 22.0358 48.50299 22.18672 48.46558 22.33766 48.42805 22.48859 48.39041 22.63951 48.35254 22.79045 48.31514 22.94138 48.27704 23.0923 48.23952 23.24324 48.20142 23.39417 48.16368 23.54509 48.12546 23.69603 48.08748 23.84695 48.04951 23.99788 48.01108 24.14882 47.97298 24.29974 47.93456 24.45067 47.89622 24.60161 47.85791 24.75253 47.81935 24.90346 47.78104 25.0544 47.74272 25.20532 47.70393 25.35625 47.66551 25.50719 47.62685 25.65813 47.58807 25.80905 47.54964 25.95999 47.51086 26.11092 47.47197 26.26184 47.43353 26.41278 47.39465 26.5637 47.35597 26.71463 47.31686 26.86555 47.27843 27.0165 47.23955 27.16742 47.20065 27.31834 47.16199 27.46928 47.12277 27.62021 47.08421 27.77113 47.04533 27.92207 47.00655 28.073 46.96779 28.22392 46.92911 28.37486 46.89044 28.52579 46.85156 28.67671 46.8129 28.82765 46.77435 28.97858 46.73569 29.1295 46.69691 29.28044 46.65858 29.43137 46.61993 29.58229 46.5816 29.73323 46.54318 29.88417 46.50487 30.0351 46.46677 30.18604 46.42833 30.33696 46.39058 30.48788 46.35248 30.63882 46.31451 30.78975 46.27687 30.94067 46.23912 31.09161 46.20135 31.24254 46.16406 31.39346 46.12677 31.5444 46.08948 31.69533 46.05252 31.84625 46.01556 31.9972 45.97896 32.14812 45.94234 32.29904 45.90503 32.44998 45.87091 32.6009 45.83226 32.75183 45.79701 32.90277 45.7629 33.0537 45.72652 33.20462 45.69125 33.35556 45.65715 33.50648 45.62189 33.65741 45.58664 33.80833 45.55254 33.95927 45.51955 34.11021 45.48431 34.26114 45.45247 34.41208 45.4195 34.563 45.38652 34.71393 45.35355 34.86487 45.3217 35.0158 45.28873 35.16672 45.2569 35.31766 45.22618 35.46858 45.19661 35.6195 45.16591 35.77045 45.13635 35.92137 45.10678 36.0723 45.0795 36.22324 45.05107 36.37416 45.0215 36.52509 44.99535 36.67603 44.96805 36.82695 44.94191 36.97787 44.91576 37.12881 44.89188 37.27974 44.86685 37.43066 44.84297 37.5816 44.82022 37.73253 44.79749 37.88345 44.77702 38.0344 44.75656 38.18532 44.73494 38.33624 44.71677 38.4872 44.69743 38.63812 44.68037 38.78905 44.66217 38.93999 44.6474 39.09091 44.63148 39.24184 44.61783 39.39278 44.60532 39.5437 44.5928 39.69463 44.58144 39.84557 44.57234 39.99649 44.56323 40.14742 44.55528 40.29834 44.5496 40.44928 44.54506 40.6002 44.53937 40.75113 44.5371 40.90207 44.53595 41.053 44.5371 41.20392 44.53937 41.35486 44.54277 41.50578 44.54846 41.65671 44.55528 41.80765 44.56212 41.95857 44.57234 42.1095 44.58485 42.26044 44.5985 42.41136 44.61443 42.56229 44.63148 42.71324 44.65195 42.86417 44.67241 43.01509 44.69743 43.16603 44.72472 43.31696 44.75314 43.46788 44.78384 43.61882 44.81909 43.76974 44.85548 43.92067 44.89302 44.07161 44.93622 44.22253 44.98056 44.37346 45.02946 44.5244 45.08063 44.67532 45.13408 44.82625 45.19206 44.97719 45.25233 45.12811 45.31715 45.27904 45.38652 45.42998 45.45702 45.5809 45.5332 45.73183 45.61507 45.88277 45.69807 46.03369 45.78677 46.18462 45.87888 46.33556 45.97781 46.48648 46.08015 46.6374 46.1893 46.78833 46.30075 46.93929 46.42015 47.09021 46.54523 47.24113 46.67485 47.39207 46.81245 47.543 46.95459 47.69392 47.10355 47.84486 47.2582 47.99579 47.4208 48.14671 47.59137 48.29765 47.7699 48.44858 47.95525 48.5995 48.14854 48.75044 48.35095 48.90137 48.56131 49.05229 48.78192 49.20323 49.01047 49.35416 49.2504 49.50508 49.5 49.65602 49.76028 49.80695 50.0316 49.95787 50.31439 50.10881 50.60938 50.25974 50.91672 50.41066 51.23694 50.5616 51.57079 50.71252 51.91875 50.86345 52.28136 51.01439 52.65924 51.16533 53.05289 51.31625 53.4634 51.4672 53.89095 51.61812 54.33691 51.76904 54.80154 51.91998 55.28583 52.0709 55.7906 52.22183 56.31685 52.37277 56.8655 52.5237 57.43758 52.67462 58.03387 52.82556 58.65588 52.97649 59.30472 53.12741 59.98152 53.27835 60.68742 53.42928 61.42429 53.5802 62.19298 53.73112 62.99554 53.88206 63.83325 54.03299 64.70825 54.18391 65.62181 54.33485 66.57617 54.48578 67.57343 54.6367 68.61548 54.78764 69.70471 54.93857 70.84386 55.0895 72.0352 55.24043 73.28148 55.39136 74.58553 55.5423 75.95071 55.69324 77.3804 55.84416 78.87775 55.99509 80.44673 56.14603 82.09116 56.29695 83.81549 56.44788 85.62424 56.59882 87.52225 56.74974 89.51476 56.90067 91.60733 57.0516 93.80605 57.20253 96.11699 57.35345 98.54744 57.5044 101.10469 57.65532 103.79646 57.80624 106.63115 57.95718 109.61946 58.10811 112.7704 58.25903 116.09302 58.40997 119.60101 58.5609 123.30797 58.71182 127.22533 58.86276 131.36894 59.01369 135.75249 59.16461 140.3987 59.31555 145.32012 59.46648 150.54285 59.6174 156.08853 59.76836 161.97875 59.91928 168.24649 60.0702 174.91449 60.20349 181.18975"/>
<path transform="matrix(-.98531976,-.17067,-.17067342,.9853,2.9153515,130.8106)" stroke-width=".79701" stroke-linecap="round" stroke-linejoin="round" fill="none" stroke="#1414cc" d="M-1.73352 2.31136C-1.58905 1.4446 0 .14444 .43336 0 0-.14444-1.58905-1.4446-1.73352-2.31136"/>
<path transform="matrix(.021210425,-.99974,-.99976006,-.02121,62.30035,2.544281)" stroke-width=".79701" stroke-linecap="round" stroke-linejoin="round" fill="none" stroke="#1414cc" d="M-1.73352 2.31136C-1.58905 1.4446 0 .14444 .43336 0 0-.14444-1.58905-1.4446-1.73352-2.31136"/>
<path transform="matrix(1.00002,0,0,-1,2.095665,183.73401)" stroke-width=".99628" stroke-linecap="butt" stroke-miterlimit="10" stroke-linejoin="miter" fill="none" stroke="#1414cc" d="M87.70392 181.12635 87.83922 180.02237 88.07564 178.15068 88.31207 176.33473 88.5485 174.57563 88.78493 172.86655 89.02135 171.20752 89.25777 169.59622 89.4942 168.03043 89.73062 166.50897 89.96706 165.02848 90.20349 163.59116 90.43991 162.19252 90.67635 160.82799 90.91277 159.50212 91.14919 158.21152 91.38562 156.95388 91.62204 155.7292 91.85847 154.53298 92.0949 153.36969 92.33133 152.23259 92.56776 151.1239 92.80418 150.04366 93.04062 148.98842 93.27704 147.95706 93.51347 146.953 93.7499 145.97054 93.98631 145.00969 94.22275 144.0727 94.45917 143.15506 94.6956 142.26015 94.93204 141.38344 95.16846 140.52606 95.40489 139.68689 95.64131 138.86589 95.87775 138.06423 96.11417 137.27848 96.35059 136.50753 96.58702 135.75476 96.82344 135.01564 97.05988 134.29357 97.2963 133.58402 97.53273 132.89038 97.76917 132.2104 98.00558 131.54177 98.24202 130.88793 98.47844 130.24547 98.71486 129.6178 98.9513 129.00034 99.18771 128.39426 99.42415 127.79955 99.66057 127.21622 99.897 126.64426 100.13344 126.08139 100.36986 125.52989 100.6063 124.98634 100.84271 124.45647 101.07913 123.93225 101.31557 123.41827 101.55199 122.9134 101.7884 122.41762 102.02484 121.92752 102.26128 121.4488 102.49771 120.9769 102.73413 120.5141 102.97055 120.05698 103.20699 119.6101 103.4434 119.16777 103.67984 118.73338 103.91626 118.30698 104.15268 117.88625 104.38911 117.47371 104.62553 117.06683 104.86197 116.66614 105.0984 116.27177 105.33482 115.88368 105.57124 115.50128 105.80768 115.12466 106.0441 114.75397 106.28053 114.38872 106.51695 114.02895 106.75337 113.6745 106.9898 113.32484 107.22624 112.98076 107.46266 112.64178 107.6991 112.30748 107.93552 111.97818 108.17194 111.65318 108.40837 111.3331 108.64479 111.01743 108.88123 110.70609 109.11765 110.39906 109.35406 110.09637 109.5905 109.79765 109.82693 109.50314 110.06335 109.21262 110.29979 108.92606 110.53621 108.64325 110.77263 108.3641 111.00906 108.08868 111.24548 107.81705 111.48192 107.5488 111.71834 107.28395 111.95476 107.02264 112.19121 106.76465 112.42763 106.50993 112.66405 106.25864 112.90048 106.01028 113.1369 105.7649 113.37332 105.52293 113.60976 105.28378 113.84618 105.0475 114.08261 104.81404 114.31903 104.58368 114.55547 104.3558 114.7919 104.131 115.02832 103.9088 115.26474 103.68912 115.50117 103.47203 115.7376 103.25769 115.97401 103.0455 116.21045 102.83617 116.44687 102.62909 116.6833 102.42442 116.91972 102.22202 117.15616 102.02188 117.3926 101.82426 117.62901 101.62843 117.86543 101.43526 118.10187 101.24399 118.33829 101.05489 118.5747 100.86795 118.81114 100.68304 119.04756 100.50021 119.284 100.31917 119.52043 100.14008 119.75685 99.96315 119.99329 99.78792 120.2297 99.61475 120.46613 99.44337 120.70256 99.2736 120.93898 99.10576 121.1754 98.93964 121.41183 98.77509 121.64825 98.61261 121.88469 98.4516 122.12112 98.29228 122.35754 98.13457 122.59398 97.97844 122.8304 97.82379 123.06682 97.67097 123.30325 97.5195 123.53967 97.36942 123.77611 97.22101 124.01253 97.07387 124.24895 96.92833 124.4854 96.78426 124.72182 96.64154 124.95824 96.50008 125.19467 96.3601 125.43109 96.22139 125.66751 96.08412 125.90395 95.94814 126.14037 95.81339 126.3768 95.67989 126.61322 95.54776 126.84966 95.41666 127.08609 95.28691 127.32251 95.15842 127.55893 95.03105 127.79536 94.90485 128.03179 94.7798 128.2682 94.6559 128.50464 94.53311 128.74106 94.41144 128.9775 94.29086 129.21392 94.17136 129.45035 94.05292 129.68679 93.93553 129.9232 93.81918 130.15962 93.70386 130.39606 93.58954 130.63248 93.47623 130.8689 93.3639 131.10533 93.25255 131.34175 93.14214 131.57819 93.0327 131.81462 92.92415 132.05104 92.81657 132.28748 92.70988 132.5239 92.60413 132.76032 92.4992 132.99675 92.39522 133.23317 92.29208 133.46959 92.18979 133.70603 92.08836 133.94245 91.98775 134.17888 91.88797 134.41532 91.78902 134.65174 91.69086 134.88817 91.59354 135.12459 91.49696 135.36101 91.40117 135.59745 91.30615 135.83386 91.2119 136.07028 91.1184 136.30672 91.02562 136.54314 90.9336 136.77959 90.84229 137.016 90.7517 137.25243 90.66182 137.48886 90.57263 137.72528 90.48415 137.9617 90.39633 138.19814 90.30922 138.43456 90.22276 138.67098 90.13696 138.90741 90.05182 139.14385 89.96732 139.38028 89.88345 139.6167 89.80025 139.85312 89.71765 140.08956 89.63567 140.32598 89.55429 140.5624 89.47353 140.79883 89.39336 141.03525 89.31378 141.27167 89.23479 141.5081 89.15637 141.74454 89.07854 141.98097 89.00125 142.21739 88.92456 142.45381 88.84839 142.69025 88.77278 142.92667 88.69771 143.16309 88.62318 143.39952 88.54918 143.63594 88.4757 143.87236 88.40274 144.10881 88.33018 144.34523 88.25844 144.58167 88.1869 144.81809 88.11597 145.0545 88.04568 145.29094 87.97563 145.52736 87.90616 145.76378 87.83714 146.00022 87.7688 146.23664 87.7008 146.47307 87.63315 146.7095 87.56595 146.94593 87.49931 147.18236 87.43301 147.41878 87.36728 147.6552 87.30202 147.89163 87.23709 148.12805 87.17262 148.36447 87.1086 148.6009 87.04492 148.83733 86.98193 149.07378 86.91916 149.3102 86.85684 149.54662 86.79486 149.78305 86.73325 150.01947 86.67216 150.25589 86.61122 150.49233 86.55095 150.72875 86.49104 150.96517 86.43156 151.2016 86.37221 151.43804 86.3133 151.67447 86.2551 151.91089 86.19698 152.14731 86.1392 152.38375 86.0819 152.62017 86.02504 152.85659 85.9683 153.09302 85.91202 153.32944 85.85619 153.56586 85.80048 153.80229 85.74532 154.03873 85.6905 154.27516 85.6358 154.51158 85.5817 154.748 85.52768 154.98444 85.47435 155.22086 85.42102 155.45728 85.36815 155.69371 85.31549 155.93013 85.2633 156.16655 85.21121 156.403 85.15959 156.63942 85.1083 156.87586 85.05737 157.11228 85.00653 157.3487 84.95618 157.58513 84.90602 157.82155 84.85622 158.05797 84.80663 158.2944 84.75739 158.53083 84.70839 158.76726 84.65971 159.0037 84.61139 159.24011 84.56319 159.47655 84.51555 159.71297 84.46777 159.94939 84.4206 160.18582 84.3735 160.42224 84.32689 160.65866 84.28038 160.8951 84.2341 161.13152 84.18828 161.36795 84.14246 161.60439 84.09697 161.8408 84.05182 162.07724 84.0069 162.31366 83.96233 162.55008 83.91788 162.78652 83.87364 163.02294 83.82986 163.25936 83.78607 163.49579 83.74265 163.73223 83.69945 163.96865 83.65645 164.20508 83.6138 164.4415 83.57129 164.67794 83.52887 164.91436 83.48691 165.15077 83.44507 165.3872 83.40344 165.62363 83.36194 165.86005 83.32089 166.0965 83.27995 166.33292 83.23935 166.56934 83.19888 166.80577 83.15851 167.04219 83.11838 167.27863 83.07869 167.51505 83.03888 167.75147 82.99954 167.9879 82.96033 168.22432 82.92131 168.46074 82.88243 168.69719 82.84387 168.93361 82.80554 169.17003 82.76724 169.40647 82.72914 169.64289 82.69138 169.87932 82.65387 170.11574 82.61646 170.35216 82.57904 170.5886 82.54198 170.82501 82.50513 171.06145 82.46863 171.29788 82.43213 171.5343 82.39574 171.77072 82.35959 172.00716 82.32376 172.24358 82.28793 172.48001 82.25235 172.71643 82.217 172.95285 82.18173 173.18929 82.14671 173.4257 82.11191 173.66214 82.07712 173.89858 82.04266 174.135 82.00821 174.37143 81.97409 174.60785 81.9401 174.84427 81.90622 175.0807 81.87244 175.31713 81.8389 175.55355 81.80557 175.78998 81.77228 176.02642 81.73929 176.26284 81.70644 176.49927 81.6738 176.73569 81.64116 176.97212 81.60864 177.20854 81.57645 177.44496 81.54427 177.6814 81.51244 177.91782 81.48048 178.15424 81.44887 178.39069 81.41748 178.6271 81.3861 178.86353 81.35483 179.09996 81.32378 179.33638 81.29297 179.57282 81.26227 179.80924 81.23146 180.04566 81.20087 180.28209 81.17062 180.51851 81.14037 180.75493 81.11035 180.99138 81.08034 181.2278 81.05064 181.46422 81.02098 181.70066 80.99153 181.11153 81.06462"/>
<path transform="matrix(-.12158243,-.99257,-.9925899,.12158,89.80134,2.6076813)" stroke-width=".79701" stroke-linecap="round" stroke-linejoin="round" fill="none" stroke="#1414cc" d="M-1.73352 2.31136C-1.58905 1.4446 0 .14444 .43336 0 0-.14444-1.58905-1.4446-1.73352-2.31136"/>
<path transform="matrix(.99238988,.12314,.123142469,-.99237,183.21082,102.66937)" stroke-width=".79701" stroke-linecap="round" stroke-linejoin="round" fill="none" stroke="#1414cc" d="M-1.73352 2.31136C-1.58905 1.4446 0 .14444 .43336 0 0-.14444-1.58905-1.4446-1.73352-2.31136"/>
<path transform="matrix(1.00002,0,0,-1,2.095665,183.73401)" stroke-width=".99628" stroke-linecap="butt" stroke-miterlimit="10" stroke-linejoin="miter" fill="none" stroke="#1414cc" d="M90.96863 159.19512"/>
<use data-text="(" xlink:href="#font_7_1" transform="matrix(7.9702599,0,0,-7.9701,95.02753,20.846009)"/>
<use data-text="0" xlink:href="#font_7_3" transform="matrix(7.9702599,0,0,-7.9701,98.31924,20.846009)"/>
<use data-text="," xlink:href="#font_4_1" transform="matrix(7.9702599,0,0,-7.9701,102.55567,20.846009)"/>
<use data-text="6" xlink:href="#font_7_5" transform="matrix(7.9702599,0,0,-7.9701,106.31875,20.846009)"/>
<use data-text=")" xlink:href="#font_7_2" transform="matrix(7.9702599,0,0,-7.9701,110.55096,20.846009)"/>
</g>
<path transform="matrix(1.00002,0,0,-1,2.095665,183.73401)" d="M92.96118 159.19512C92.96118 160.29558 92.0691 161.18767 90.96863 161.18767 89.86816 161.18767 88.97607 160.29558 88.97607 159.19512 88.97607 158.09464 89.86816 157.20256 90.96863 157.20256 92.0691 157.20256 92.96118 158.09464 92.96118 159.19512ZM90.96863 159.19512" fill="#1414cc"/>
<path transform="matrix(1.00002,0,0,-1,2.095665,183.73401)" stroke-width=".99628" stroke-linecap="butt" stroke-miterlimit="10" stroke-linejoin="miter" fill="none" stroke="#1414cc" d="M92.96118 159.19512C92.96118 160.29558 92.0691 161.18767 90.96863 161.18767 89.86816 161.18767 88.97607 160.29558 88.97607 159.19512 88.97607 158.09464 89.86816 157.20256 90.96863 157.20256 92.0691 157.20256 92.96118 158.09464 92.96118 159.19512ZM90.96863 159.19512"/>
<path transform="matrix(1.00002,0,0,-1,2.095665,183.73401)" stroke-width=".99628" stroke-linecap="butt" stroke-miterlimit="10" stroke-linejoin="miter" fill="none" stroke="#1414cc" d=""/>
<use data-text="x" xlink:href="#font_8_1" transform="matrix(9.962799,0,0,-9.9626,174.85413,89.23001)"/>
<use data-text="y" xlink:href="#font_8_2" transform="matrix(9.962799,0,0,-9.9626,96.60556,9.5660099)"/>
</svg>
