<svg xmlns="http://www.w3.org/2000/svg" xmlns:xlink="http://www.w3.org/1999/xlink" xmlns:inkscape="http://www.inkscape.org/namespaces/inkscape" version="1.1" width="157" height="157" viewBox="0 0 157 157">
<defs>
<clipPath id="clip_1">
<path transform="matrix(1.00003,0,0,-1.00002,2.0964967,155.3758)" d="M0 0H153.57646V153.57646H0Z"/>
</clipPath>
</defs>
<path transform="matrix(1.00003,0,0,-1.00002,2.0964967,155.3758)" stroke-width=".3985" stroke-linecap="butt" stroke-miterlimit="10" stroke-linejoin="miter" fill="none" stroke="#404040" d="M0 0H153.57646V153.57646H0Z"/>
<path transform="matrix(1.00003,0,0,-1.00002,2.0964967,155.3758)" stroke-width=".3985" stroke-linecap="butt" stroke-miterlimit="10" stroke-linejoin="miter" fill="none" stroke="#bfbfbf" d="M0 0V153.57646M9.59853 0V153.57646M19.19705 0V153.57646M28.79558 0V153.57646M38.3941 0V153.57646M47.99265 0V153.57646M57.59117 0V153.57646M67.1897 0V153.57646M76.78822 0V153.57646M86.38675 0V153.57646M95.98529 0V153.57646M105.58382 0V153.57646M115.18234 0V153.57646M124.78087 0V153.57646M134.3794 0V153.57646M143.97794 0V153.57646M153.57646 0V153.57646"/>
<path transform="matrix(1.00003,0,0,-1.00002,2.0964967,155.3758)" stroke-width=".3985" stroke-linecap="butt" stroke-miterlimit="10" stroke-linejoin="miter" fill="none" stroke="#bfbfbf" d=""/>
<path transform="matrix(1.00003,0,0,-1.00002,2.0964967,155.3758)" stroke-width=".3985" stroke-linecap="butt" stroke-miterlimit="10" stroke-linejoin="miter" fill="none" stroke="#bfbfbf" d="M0 0H153.57646M0 9.59853H153.57646M0 19.19705H153.57646M0 28.79558H153.57646M0 38.3941H153.57646M0 47.99265H153.57646M0 57.59117H153.57646M0 67.1897H153.57646M0 76.78822H153.57646M0 86.38675H153.57646M0 95.98529H153.57646M0 105.58382H153.57646M0 115.18234H153.57646M0 124.78087H153.57646M0 134.3794H153.57646M0 143.97794H153.57646M0 153.57646H153.57646"/>
<path transform="matrix(1.00003,0,0,-1.00002,2.0964967,155.3758)" stroke-width=".3985" stroke-linecap="butt" stroke-miterlimit="10" stroke-linejoin="miter" fill="none" stroke="#bfbfbf" d=""/>
<path transform="matrix(1.00003,0,0,-1.00002,2.0964967,155.3758)" stroke-width=".19925" stroke-linecap="butt" stroke-miterlimit="10" stroke-linejoin="miter" fill="none" stroke="#7f807f" d="M0 75.37073V78.20572M9.59853 75.37073V78.20572M19.19705 75.37073V78.20572M28.79558 75.37073V78.20572M38.3941 75.37073V78.20572M47.99265 75.37073V78.20572M57.59117 75.37073V78.20572M67.1897 75.37073V78.20572M76.78822 75.37073V78.20572M86.38675 75.37073V78.20572M95.98529 75.37073V78.20572M105.58382 75.37073V78.20572M115.18234 75.37073V78.20572M124.78087 75.37073V78.20572M134.3794 75.37073V78.20572M143.97794 75.37073V78.20572M153.57646 75.37073V78.20572"/>
<path transform="matrix(1.00003,0,0,-1.00002,2.0964967,155.3758)" stroke-width=".19925" stroke-linecap="butt" stroke-miterlimit="10" stroke-linejoin="miter" fill="none" stroke="#7f807f" d=""/>
<path transform="matrix(1.00003,0,0,-1.00002,2.0964967,155.3758)" stroke-width=".19925" stroke-linecap="butt" stroke-miterlimit="10" stroke-linejoin="miter" fill="none" stroke="#7f807f" d="M75.37073 0H78.20572M75.37073 9.59853H78.20572M75.37073 19.19705H78.20572M75.37073 28.79558H78.20572M75.37073 38.3941H78.20572M75.37073 47.99265H78.20572M75.37073 57.59117H78.20572M75.37073 67.1897H78.20572M75.37073 76.78822H78.20572M75.37073 86.38675H78.20572M75.37073 95.98529H78.20572M75.37073 105.58382H78.20572M75.37073 115.18234H78.20572M75.37073 124.78087H78.20572M75.37073 134.3794H78.20572M75.37073 143.97794H78.20572M75.37073 153.57646H78.20572"/>
<path transform="matrix(1.00003,0,0,-1.00002,2.0964967,155.3758)" stroke-width=".19925" stroke-linecap="butt" stroke-miterlimit="10" stroke-linejoin="miter" fill="none" stroke="#7f807f" d=""/>
<path transform="matrix(1.00003,0,0,-1.00002,2.0964967,155.3758)" stroke-width=".3985" stroke-linecap="butt" stroke-miterlimit="10" stroke-linejoin="miter" fill="none" stroke="#000000" d="M0 76.78822H151.58394"/>
<path transform="matrix(1.00003,0,0,-1.00002,153.68498,78.58603)" d="M1.99252 0-1.19551 1.59401 0 0-1.19551-1.59401"/>
<path transform="matrix(1.00003,0,0,-1.00002,2.0964967,155.3758)" stroke-width=".3985" stroke-linecap="butt" stroke-miterlimit="10" stroke-linejoin="miter" fill="none" stroke="#000000" d="M76.78822 0V151.58394"/>
<path transform="matrix(0,-1.00002,-1.00003,-0,78.887027,3.7888184)" d="M1.99252 0-1.19551 1.59401 0 0-1.19551-1.59401"/>
<g clip-path="url(#clip_1)">
</g>
</svg>
