<svg xmlns="http://www.w3.org/2000/svg" xmlns:xlink="http://www.w3.org/1999/xlink" xmlns:inkscape="http://www.inkscape.org/namespaces/inkscape" version="1.1" width="211" height="139" viewBox="0 0 211 139">
<defs>
<clipPath id="clip_1">
<path transform="matrix(1.00003,0,0,-1.00006,2.0964967,136.97226)" d="M0 0H207.16039V135.16687H0Z"/>
</clipPath>
<path id="font_2_1" d="M.644989 .68193057C.6409912 .70692446 .6359863 .7109375 .61099246 .7109375 .58898928 .7109375 .58099368 .70692446 .5669861 .68592837L.17399597 .08502197C.1619873 .06600952 .1499939 .04798889 .07699585 .04699707 .06298828 .04699707 .04499817 .04699707 .04499817 .017990113 .04499817 .009994507 .051986696 0 .06399536 0 .09399414 0 .12799073 .0029907227 .15899658 .0029907227 .19599915 .0029907227 .23399353 0 .269989 0 .2769928 0 .29699708 0 .29699708 .0289917 .29699708 .04699707 .2789917 .04699707 .2709961 .04699707 .2630005 .04699707 .23498535 .04699707 .21299744 .057998659L.30499269 .19810486H.57499697L.59799197 .052001954C.57899478 .04798889 .5479889 .04699707 .5329895 .04699707 .5130005 .04699707 .49598695 .04699707 .49598695 .017990113 .49598695 .004989624 .5069885 0 .5179901 0 .5509949 0 .6339874 .0029907227 .6669922 .0029907227 .6899872 .0029907227 .71299746 .0019989014 .73599246 .0019989014 .7589874 .0019989014 .7829895 0 .80599978 0 .8149872 0 .83399966 0 .83399966 .0289917 .83399966 .04699707 .81900027 .04699707 .7939911 .04699707 .7799988 .04699707 .7689972 .04699707 .7549896 .04798889 .7429962 .04899597 .74198916 .049987794 .7389984 .06700134L.644989 .68193057M.5239868 .5329895 .56799319 .24511719H.33599855L.5239868 .5329895Z"/>
<path id="font_2_2" d="M.16299439 .066986087C.15899658 .050994874 .1579895 .049987794 .13999939 .04798889 .12298584 .04699707 .102996829 .04699707 .08699036 .04699707 .06098938 .04699707 .05899048 .04699707 .054992677 .04499817 .042999269 .037994386 .042999269 .021987915 .042999269 .017990113 .042999269 0 .06098938 0 .07699585 0H.5009918C.70999148 0 .80400088 .13195801 .80400088 .22091675 .80400088 .3068695 .72898867 .34985353 .6369934 .35786439 .7969971 .38684083 .85398867 .47973634 .85398867 .5466461 .85398867 .6285553 .7819977 .6855469 .6409912 .6855469H.23999024C.21998596 .6855469 .20298767 .6855469 .20298767 .6565399 .20298767 .63853457 .21598816 .63853457 .24499512 .63853457 .2659912 .63853457 .2849884 .6375427 .30599977 .63653567L.16299439 .066986087M.43099977 .6205597C.43499757 .6355438 .43598939 .63653567 .44198609 .6375427 .45098878 .63853457 .45799256 .63853457 .46899415 .63853457H.6179962C.6380005 .63853457 .71899417 .63853457 .71899417 .551651 .71899417 .48173524 .6629944 .37486268 .5269928 .37486268H.36898805L.43099977 .6205597M.31199647 .04699707C.29699708 .04699707 .29499818 .04699707 .28799439 .04798889L.3600006 .3388672H.5549927C.58099368 .3388672 .6649933 .3388672 .6649933 .23690796 .6649933 .15994263 .6139984 .04699707 .47200013 .04699707H.31199647Z"/>
<path id="font_2_3" d="M.85198977 .67311099C.8529968 .67811587 .8549957 .6831207 .8549957 .68911746 .8549957 .703125 .84098818 .703125 .8299866 .703125L.7369995 .63113406C.69099429 .68211367 .6230011 .703125 .55400088 .703125 .23199463 .703125 .054992677 .45820619 .054992677 .2532959 .054992677 .06437683 .20599365-.016601563 .3809967-.016601563 .46499635-.016601563 .5499878 .009384155 .6259918 .06536865 .72299197 .13734436 .7409973 .22930908 .7409973 .2342987 .7409973 .24829102 .72698977 .24829102 .71798709 .24829102 .69898989 .24829102 .69799807 .24629212 .69299319 .22930908 .6519928 .10235596 .5219879 .030395508 .4079895 .030395508 .34700013 .030395508 .29299928 .044387819 .2519989 .07637024 .19799805 .11735535 .19400025 .185318 .19400025 .21231079 .19400025 .24130249 .20999146 .42822267 .30899049 .5441742 .36299134 .60813906 .45999146 .6561127 .56999209 .6561127 .69200137 .6561127 .7429962 .5641632 .7429962 .4761963 .7429962 .46520997 .73999026 .4512024 .73999026 .4412079 .73999026 .42622376 .7529907 .42622376 .7669983 .42622376 .78900149 .42622376 .7899933 .42721559 .79499819 .44821168L.85198977 .67311099Z"/>
<path id="font_2_4" d="M.16299439 .066970828C.15899658 .050994874 .1579895 .049987794 .13999939 .04798889 .12298584 .04699707 .102996829 .04699707 .08699036 .04699707 .06098938 .04699707 .05899048 .04699707 .054992677 .04499817 .042999269 .037994386 .042999269 .021987915 .042999269 .017990113 .042999269 0 .06098938 0 .07699585 0H.46798707C.7549896 0 .9149933 .23583985 .9149933 .4386902 .9149933 .611557 .7879944 .6855469 .6389923 .6855469H.23999024C.21998596 .6855469 .20298767 .6855469 .20298767 .6565399 .20298767 .63853457 .21598816 .63853457 .24499512 .63853457 .2659912 .63853457 .2849884 .6375427 .30599977 .63653567L.16299439 .066970828M.43598939 .62054446C.43998719 .6355438 .44099427 .63653567 .44699098 .6375427 .45599366 .63853457 .46299745 .63853457 .47399903 .63853457H.58799746C.61698916 .63853457 .6839905 .6355438 .7319946 .5975647 .7819977 .555603 .7819977 .49664308 .7819977 .47366334 .7819977 .40371705 .7449951 .26582337 .71798709 .20986939 .6599884 .09295654 .55599978 .04699707 .44099427 .04699707H.31698609C.3019867 .04699707 .2999878 .04699707 .29299928 .04798889L.43598939 .62054446Z"/>
<path id="font_3_1" d="M.33399964 .30233766C.33999635 .32835389 .36299134 .42037965 .43299867 .42037965 .43798829 .42037965 .46199037 .42037965 .48298646 .40734864 .45498658 .402359 .43499757 .37734986 .43499757 .35334779 .43499757 .33735658 .44599916 .31835938 .47299195 .31835938 .49499513 .31835938 .5269928 .3363495 .5269928 .37635804 .5269928 .42837525 .46798707 .4423828 .43399049 .4423828 .37599183 .4423828 .34098817 .38935853 .32899476 .36634828 .3039856 .43237306 .25 .4423828 .22099304 .4423828 .116989139 .4423828 .05999756 .3133545 .05999756 .28834535 .05999756 .27833558 .069992069 .27833558 .07199097 .27833558 .07998657 .27833558 .08299255 .28033448 .084991458 .28933717 .11898804 .39535523 .18499756 .42037965 .21899414 .42037965 .23799134 .42037965 .272995 .4113617 .272995 .35334779 .272995 .32235719 .2559967 .25532533 .21899414 .11528015 .20298767 .053268434 .16799927 .011245728 .12399292 .011245728 .117996219 .011245728 .09498596 .011245728 .07398987 .024276734 .09899902 .029266358 .12098694 .05027771 .12098694 .07827759 .12098694 .105270389 .09899902 .11328125 .083999637 .11328125 .053985597 .11328125 .0289917 .08728027 .0289917 .055267335 .0289917 .009246826 .07899475-.0107421879 .12298584-.0107421879 .18899536-.0107421879 .22499085 .059280397 .22799683 .0652771 .23999024 .028274537 .27598573-.0107421879 .33599855-.0107421879 .43899537-.0107421879 .49598695 .118270877 .49598695 .14328003 .49598695 .1532898 .4869995 .1532898 .48399354 .1532898 .47499085 .1532898 .47299195 .14929199 .47099305 .14228821 .43798829 .03527832 .36999513 .011245728 .33799745 .011245728 .29899598 .011245728 .2829895 .043273927 .2829895 .07727051 .2829895 .09927368 .2889862 .121276859 .2999878 .16529846L.33399964 .30233766Z"/>
<path id="font_3_2" d="M.48599244 .38136292C.48999024 .39537049 .48999024 .39736939 .48999024 .40437318 .48999024 .42237855 .47599793 .43138124 .46099855 .43138124 .45098878 .43138124 .43499757 .42536927 .42599488 .41036988 .42399598 .405365 .41600038 .37435914 .4119873 .35635377 .40499879 .33035279 .397995 .30334474 .3919983 .27633668L.34700013 .09628296C.34298707 .08126831 .2999878 .011245728 .23399353 .011245728 .18299866 .011245728 .17199707 .055267335 .17199707 .0922699 .17199707 .1382904 .18899536 .20030213 .22299195 .28833009 .23899842 .3293457 .24299622 .3403473 .24299622 .36035157 .24299622 .405365 .21099854 .4423828 .16099549 .4423828 .06599426 .4423828 .0289917 .29733277 .0289917 .28833009 .0289917 .27833558 .038986207 .27833558 .040985109 .27833558 .050994874 .27833558 .051986696 .28033448 .056991579 .29634095 .083999637 .3903656 .12399292 .42037965 .1579895 .42037965 .1659851 .42037965 .18299866 .42037965 .18299866 .3883667 .18299866 .36335755 .17298889 .3373413 .1659851 .31834413 .12599182 .21231079 .10798645 .1552887 .10798645 .10827637 .10798645 .019256592 .17098999-.0107421879 .22999573-.0107421879 .2689972-.0107421879 .30299378 .0062561037 .33099366 .03425598 .31799317-.017745972 .30599977-.06674194 .2659912-.11973572 .23999024-.15385437 .20199585-.18309021 .1559906-.18309021 .14199829-.18309021 .09700012-.18005371 .07998657-.14074707 .09599304-.14074707 .10899353-.14074707 .12298584-.1287384 .1329956-.11973572 .14299011-.10673523 .14299011-.08773804 .14299011-.056747438 .115997318-.052734376 .10598755-.052734376 .08299255-.052734376 .049987794-.068740848 .049987794-.11773682 .049987794-.16796875 .09399414-.20507813 .1559906-.20507813 .25898744-.20507813 .3619995-.11373901 .3899994-.00074768069L.48599244 .38136292Z"/>
</defs>
<path transform="matrix(1.00003,0,0,-1.00006,2.0964967,136.97226)" stroke-width=".3985" stroke-linecap="butt" stroke-miterlimit="10" stroke-linejoin="miter" fill="none" stroke="#404040" d="M0 0H207.16039V135.16687H0Z"/>
<path transform="matrix(1.00003,0,0,-1.00006,2.0964967,136.97226)" stroke-width=".3985" stroke-linecap="butt" stroke-miterlimit="10" stroke-linejoin="miter" fill="none" stroke="#bfbfbf" d=""/>
<path transform="matrix(1.00003,0,0,-1.00006,2.0964967,136.97226)" stroke-width=".3985" stroke-linecap="butt" stroke-miterlimit="10" stroke-linejoin="miter" fill="none" stroke="#bfbfbf" d=""/>
<path transform="matrix(1.00003,0,0,-1.00006,2.0964967,136.97226)" stroke-width=".19925" stroke-linecap="butt" stroke-miterlimit="10" stroke-linejoin="miter" fill="none" stroke="#7f807f" d=""/>
<path transform="matrix(1.00003,0,0,-1.00006,2.0964967,136.97226)" stroke-width=".19925" stroke-linecap="butt" stroke-miterlimit="10" stroke-linejoin="miter" fill="none" stroke="#7f807f" d=""/>
<path transform="matrix(1.00003,0,0,-1.00006,2.0964967,136.97226)" stroke-width=".3985" stroke-linecap="butt" stroke-miterlimit="10" stroke-linejoin="miter" fill="none" stroke="#000000" d="M0 19.30954H205.16786"/>
<path transform="matrix(1.00003,0,0,-1.00006,207.27053,117.66156)" d="M1.99252 0-1.19551 1.59401 0 0-1.19551-1.59401"/>
<path transform="matrix(1.00003,0,0,-1.00006,2.0964967,136.97226)" stroke-width=".3985" stroke-linecap="butt" stroke-miterlimit="10" stroke-linejoin="miter" fill="none" stroke="#000000" d="M103.58018 0V133.17435"/>
<path transform="matrix(0,-1.00006,-1.00003,-0,105.67979,3.7899323)" d="M1.99252 0-1.19551 1.59401 0 0-1.19551-1.59401"/>
<g clip-path="url(#clip_1)">
<path transform="matrix(1.00003,0,0,-1.00006,2.0964967,136.97226)" stroke-width=".99628" stroke-linecap="butt" stroke-miterlimit="10" stroke-linejoin="miter" fill="none" stroke="#1414cc" d="M.83186 19.36533 .30284 19.36354 .60571 19.36461 .90858 19.36568 1.21144 19.36676 1.51431 19.36787 1.81717 19.36902 2.12004 19.37018 2.4229 19.37135 2.72577 19.37256 3.02864 19.37378 3.33151 19.37503 3.63435 19.3763 3.93723 19.37761 4.2401 19.37892 4.54295 19.38028 4.84583 19.38165 5.1487 19.38306 5.45155 19.38449 5.75441 19.38596 6.05728 19.38744 6.36015 19.38895 6.66302 19.3905 6.96587 19.39207 7.26874 19.39368 7.57161 19.39531 7.87448 19.39699 8.17734 19.3987 8.48021 19.40042 8.78307 19.40219 9.08592 19.40399 9.3888 19.40584 9.69167 19.4077 9.99454 19.40962 10.2974 19.41156 10.60025 19.41354 10.90312 19.41557 11.206 19.41763 11.50885 19.41974 11.81172 19.42189 12.11458 19.42407 12.41743 19.4263 12.7203 19.42857 13.02318 19.4309 13.32605 19.43324 13.6289 19.43565 13.93176 19.43811 14.23463 19.44061 14.5375 19.44318 14.84036 19.44577 15.14323 19.44841 15.4461 19.45113 15.74896 19.45387 16.05182 19.45668 16.35469 19.45955 16.65756 19.46246 16.96042 19.46544 17.26329 19.46844 17.56615 19.47157 17.86902 19.47472 18.17188 19.47794 18.47475 19.4812 18.77762 19.48456 19.08047 19.48796 19.38333 19.49144 19.6862 19.49498 19.98907 19.49858 20.29193 19.50226 20.5948 19.50601 20.89766 19.50983 21.20053 19.51373 21.50339 19.5177 21.80626 19.52174 22.10913 19.52588 22.412 19.53009 22.71484 19.53438 23.01772 19.53876 23.32059 19.54323 23.62346 19.54778 23.92632 19.55241 24.22917 19.55714 24.53204 19.56197 24.8349 19.56686 25.13777 19.57187 25.44064 19.57698 25.74352 19.5822 26.04636 19.5875 26.34923 19.5929 26.6521 19.59842 26.95497 19.60403 27.25783 19.60977 27.5607 19.6156 27.86356 19.62157 28.16641 19.62762 28.46928 19.63383 28.77216 19.64014 29.07503 19.64658 29.37788 19.65312 29.68074 19.65982 29.98361 19.66664 30.28648 19.67358 30.58934 19.68066 30.89221 19.6879 31.19507 19.69525 31.49794 19.70276 31.8008 19.7104 32.10367 19.7182 32.40654 19.72615 32.7094 19.73425 33.01225 19.74252 33.31512 19.75095 33.618 19.75954 33.92085 19.7683 34.22372 19.77724 34.5266 19.7863 34.82945 19.79561 35.13231 19.80507 35.43518 19.81473 35.73805 19.82454 36.04091 19.83458 36.34377 19.84479 36.64664 19.85521 36.94951 19.86581 37.25237 19.87663 37.55524 19.8877 37.85811 19.89894 38.16096 19.9104 38.46382 19.92209 38.7667 19.934 39.06956 19.94617 39.37244 19.95856 39.6753 19.97118 39.97815 19.98407 40.28102 19.9972 40.58388 20.01059 40.88675 20.02422 41.18962 20.03813 41.49248 20.0523 41.79533 20.06676 42.0982 20.0815 42.40108 20.09653 42.70395 20.11185 43.0068 20.12746 43.30966 20.14337 43.61253 20.15959 43.91539 20.17613 44.21826 20.193 44.52113 20.21019 44.824 20.2277 45.12685 20.24557 45.42972 20.26381 45.73259 20.28236 46.03546 20.3013 46.33832 20.32062 46.64119 20.34029 46.94405 20.36034 47.24692 20.38078 47.54977 20.40164 47.85265 20.42288 48.15552 20.44453 48.45836 20.46663 48.76123 20.48915 49.0641 20.51213 49.36697 20.53552 49.66983 20.55937 49.9727 20.5837 50.27556 20.60849 50.57843 20.63377 50.88129 20.65955 51.18416 20.68579 51.48703 20.71259 51.7899 20.73991 52.09274 20.76775 52.39561 20.79613 52.69849 20.82504 53.00134 20.85455 53.30421 20.88461 53.60707 20.91525 53.90994 20.9465 54.2128 20.97836 54.51567 21.01086 54.81854 21.04396 55.12141 21.0777 55.42426 21.11212 55.72713 21.14719 56.03 21.18295 56.33286 21.21942 56.63573 21.25658 56.9386 21.29446 57.24146 21.33308 57.54431 21.37248 57.84718 21.41263 58.15005 21.45355 58.45293 21.49527 58.75578 21.53781 59.05864 21.58118 59.36151 21.62537 59.66438 21.67043 59.96724 21.71637 60.27011 21.76324 60.57297 21.811 60.87582 21.85966 61.1787 21.9093 61.48157 21.95987 61.78444 22.01146 62.0873 22.06404 62.39015 22.11763 62.69302 22.17227 62.9959 22.228 63.29875 22.28482 63.60162 22.34271 63.9045 22.40173 64.20734 22.4619 64.51021 22.52324 64.81308 22.58578 65.11595 22.64952 65.41881 22.71451 65.72166 22.78079 66.02454 22.84833 66.32741 22.91724 66.63026 22.98746 66.93314 23.05902 67.23601 23.13199 67.53886 23.20699 67.84172 23.27997 68.14459 23.35721 68.44746 23.43869 68.75032 23.51593 69.05319 23.6005 69.35605 23.68199 69.65892 23.76697 69.96178 23.85577 70.26465 23.94499 70.56752 24.03305 70.87039 24.12651 71.17323 24.2188 71.4761 24.31534 71.77898 24.41228 72.08183 24.5123 72.3847 24.6131 72.68756 24.71738 72.99043 24.82164 73.29329 24.9294 73.59616 25.0379 73.89903 25.1499 74.2019 25.26616 74.50475 25.37814 74.80762 25.49748 75.11049 25.6172 75.41336 25.74077 75.71622 25.86475 76.01909 25.99567 76.32195 26.1235 76.6248 26.25829 76.92767 26.39381 77.23055 26.52899 77.53342 26.67188 77.83626 26.81477 78.13913 26.96152 78.442 27.10788 78.74487 27.25888 79.04773 27.41338 79.3506 27.57172 79.65346 27.7339 79.95631 27.89648 80.25919 28.06642 80.56206 28.23672 80.86493 28.4105 81.16779 28.58777 81.47064 28.76581 81.77351 28.95079 82.07639 29.14003 82.37924 29.32965 82.68211 29.52661 82.98497 29.72318 83.28784 29.92825 83.5907 30.13293 83.89357 30.34572 84.19644 30.55775 84.4993 30.77826 84.80215 31.00186 85.10503 31.2301 85.4079 31.4618 85.71075 31.69739 86.01363 31.93683 86.3165 32.18399 86.61935 32.43501 86.92221 32.69028 87.22508 32.94904 87.52795 33.21552 87.83081 33.48582 88.13368 33.76389 88.43654 34.0462 88.73941 34.33199 89.04227 34.62123 89.34514 34.91899 89.64801 35.22449 89.95087 35.53304 90.25372 35.8501 90.5566 36.17064 90.85947 36.49889 91.16234 36.83488 91.4652 37.17473 91.76805 37.52231 92.07092 37.87761 92.37378 38.24063 92.67665 38.6079 92.97952 38.9825 93.2824 39.3652 93.58524 39.75952 93.8881 40.1573 94.19098 40.5624 94.49385 40.97641 94.7967 41.39696 95.09956 41.82602 95.40244 42.26628 95.7053 42.71039 96.00816 43.1661 96.31104 43.62993 96.6139 44.10455 96.91675 44.58806 97.21962 45.07814 97.52249 45.58017 97.82536 46.09073 98.12822 46.61209 98.43109 47.14464 98.73395 47.6857 99.03682 48.23795 99.33968 48.80179 99.64255 49.37411 99.94542 49.96114 100.24828 50.55548 100.55113 51.16257 100.854 51.78435 101.15688 52.4177 101.45973 53.06303 101.7626 53.71568 102.06546 54.38765 102.36833 55.07199 102.67119 55.76675 102.97406 56.47386 103.27693 57.19604 103.5798 57.93407 103.88264 58.67862 104.18552 59.44481 104.48839 60.22649 104.79124 61.022 105.09412 61.83382 105.39699 62.66063 105.69984 63.50447 106.0027 64.36412 106.30557 65.24115 106.60844 66.13521 106.91132 67.04582 107.21416 67.97575 107.51703 68.92233 107.8199 69.88821 108.12276 70.87143 108.42563 71.87592 108.7285 72.89821 109.03136 73.94128 109.33421 75.00488 109.63708 76.08852 109.93996 77.19418 110.24283 78.3203 110.54568 79.46844 110.84854 80.63823 111.15141 81.83116 111.45428 83.04845 111.75714 84.28853 112.06001 85.55365 112.36287 86.84236 112.66573 88.15503 112.9686 89.4963 113.27147 90.86224 113.57434 92.25484 113.8772 93.67488 114.18005 95.12039 114.48293 96.59601 114.7858 98.10022 115.08865 99.63382 115.39153 101.19594 115.6944 102.79172 115.99724 104.41643 116.30011 106.07236 116.60298 107.7604 116.90585 109.48128 117.20871 111.23616 117.51158 113.02457 117.81444 114.84781 118.11731 116.70694 118.42017 118.60312 118.72304 120.53601 119.02591 122.50446 119.32877 124.51495 119.63162 126.56099 119.9345 128.64794 120.23737 130.7759 120.54022 132.94391 120.73027 134.33225"/>
<path transform="matrix(-1,.0033902033,.0033901018,1.0000299,2.9284015,117.60577)" stroke-width=".79701" stroke-linecap="round" stroke-linejoin="round" fill="none" stroke="#1414cc" d="M-1.73352 2.31136C-1.58905 1.4446 0 .14444 .43336 0 0-.14444-1.58905-1.4446-1.73352-2.31136"/>
<path transform="matrix(.13562407,-.9907794,-.9907497,-.13562814,122.83039,2.6319733)" stroke-width=".79701" stroke-linecap="round" stroke-linejoin="round" fill="none" stroke="#1414cc" d="M-1.73352 2.31136C-1.58905 1.4446 0 .14444 .43336 0 0-.14444-1.58905-1.4446-1.73352-2.31136"/>
<path transform="matrix(1.00003,0,0,-1.00006,2.0964967,136.97226)" stroke-width=".99628" stroke-linecap="butt" stroke-miterlimit="10" stroke-linejoin="miter" fill="none" stroke="#1414cc" d="M.82907 22.76746 .37683 22.73056 .75368 22.76097 1.13054 22.79166 1.50737 22.8226 1.88423 22.85382 2.26108 22.88535 2.63792 22.91711 3.01477 22.94919 3.39162 22.98155 3.76848 23.01418 4.14531 23.04713 4.52217 23.08035 4.89902 23.11388 5.27586 23.14769 5.65271 23.17993 6.02957 23.2147 6.4064 23.24945 6.78325 23.28423 7.16011 23.31897 7.53696 23.35721 7.9138 23.39197 8.29065 23.42671 8.66751 23.46571 9.04434 23.50049 9.42119 23.53873 9.79805 23.57773 10.1749 23.61597 10.55174 23.65495 10.92859 23.69397 11.30545 23.7322 11.68228 23.77083 12.05914 23.80943 12.43599 23.84805 12.81282 23.89053 13.18968 23.92877 13.56653 23.97202 13.94339 24.0145 14.32022 24.05661 14.69708 24.09908 15.07393 24.14156 15.45078 24.18405 15.82762 24.22652 16.20447 24.26901 16.58133 24.31534 16.95816 24.35783 17.33502 24.40456 17.71187 24.4505 18.08871 24.49338 18.46556 24.53935 18.8424 24.58606 19.21925 24.6359 19.5961 24.6826 19.97296 24.72856 20.34981 24.77916 20.72665 24.82512 21.1035 24.87532 21.48036 24.92592 21.8572 24.97612 22.23404 25.02632 22.6109 25.07614 22.98775 25.12674 23.3646 25.18042 23.74144 25.23138 24.1183 25.28468 24.49513 25.33566 24.872 25.38895 25.24884 25.4434 25.62567 25.49748 26.00253 25.5554 26.37938 25.60947 26.75624 25.66739 27.13307 25.72147 27.50993 25.7794 27.88678 25.83772 28.26361 25.89525 28.64047 25.95319 29.01732 26.0115 29.39418 26.07329 29.77101 26.13123 30.14787 26.19302 30.52472 26.25479 30.90157 26.31659 31.27841 26.37799 31.65526 26.43977 32.0321 26.50583 32.40895 26.56761 32.78581 26.63327 33.16266 26.69931 33.5395 26.76457 33.91635 26.82985 34.29321 26.89587 34.67004 26.9654 35.04689 27.03104 35.42375 27.10056 35.8006 27.17007 36.17744 27.23958 36.55429 27.3091 36.93115 27.38286 37.30798 27.45238 37.68483 27.52536 38.06169 27.59912 38.43852 27.67212 38.81538 27.74548 39.19223 27.82272 39.56909 27.89648 39.94592 27.97372 40.32278 28.05096 40.69963 28.12822 41.07646 28.20932 41.45332 28.28654 41.83017 28.36726 42.20702 28.44875 42.58386 28.52985 42.96072 28.61055 43.33757 28.69205 43.7144 28.77702 44.09126 28.86159 44.46811 28.94733 44.84496 29.03189 45.2218 29.11685 45.59866 29.20609 45.97551 29.29489 46.35236 29.38333 46.7292 29.47215 47.10605 29.56137 47.4829 29.65367 47.85974 29.74287 48.2366 29.83942 48.61343 29.93173 48.9903 30.02518 49.36714 30.12096 49.744 30.2179 50.12083 30.31444 50.49768 30.41098 50.87454 30.51178 51.25137 30.6118 51.62823 30.71222 52.00508 30.81302 52.38194 30.91304 52.75877 31.0173 53.13562 31.12157 53.51248 31.22585 53.88931 31.33437 54.26617 31.43864 54.64302 31.54639 55.01987 31.6549 55.39671 31.76689 55.77357 31.87543 56.15042 31.98741 56.52725 32.10289 56.90411 32.21489 57.28096 32.33073 57.6578 32.44699 58.03465 32.56247 58.41151 32.6787 58.78836 32.79803 59.1652 32.91776 59.54205 33.04172 59.9189 33.16106 60.29575 33.28503 60.67259 33.4086 61.04945 33.53604 61.42628 33.65962 61.80315 33.78708 62.18 33.91837 62.55684 34.0462 62.93369 34.17712 63.31053 34.31267 63.6874 34.44398 64.06422 34.57915 64.44109 34.71469 64.81793 34.85373 65.1948 34.9885 65.57162 35.12753 65.94847 35.27081 66.32533 35.41331 66.70216 35.5566 67.07903 35.69948 67.45587 35.84584 67.83272 35.9926 68.20956 36.13936 68.58643 36.29036 68.96327 36.44098 69.3401 36.5916 69.71696 36.74606 70.09381 36.90054 70.47066 37.05927 70.8475 37.21722 71.22437 37.37556 71.60121 37.53429 71.97804 37.69609 72.3549 37.86255 72.73175 38.02437 73.1086 38.19041 73.48544 38.36111 73.8623 38.53065 74.23914 38.70096 74.616 38.87476 74.99284 39.04854 75.36969 39.22194 75.74654 39.39996 76.12338 39.578 76.50024 39.75952 76.87708 39.94101 77.25394 40.12253 77.63078 40.30753 78.00764 40.49713 78.38448 40.68213 78.76132 40.87561 79.13818 41.06445 79.51501 41.25793 79.89188 41.4549 80.26872 41.65224 80.64557 41.8488 81.02242 42.05002 81.39926 42.25084 81.77612 42.45512 82.15295 42.6602 82.52982 42.86913 82.90666 43.07767 83.28351 43.28967 83.66035 43.50247 84.03722 43.71873 84.41405 43.93501 84.7909 44.15474 85.16776 44.37526 85.5446 44.59926 85.92145 44.82364 86.2983 45.0511 86.67516 45.27895 87.05199 45.51067 87.42883 45.74278 87.8057 45.97874 88.18254 46.21393 88.55939 46.45375 88.93623 46.69705 89.3131 46.94034 89.68993 47.18365 90.06679 47.43042 90.44363 47.68146 90.82048 47.93286 91.19733 48.18774 91.57419 48.44649 91.95103 48.70563 92.32787 48.96439 92.70473 49.23085 93.08157 49.49731 93.45842 49.76418 93.83527 50.03413 94.21213 50.3087 94.58897 50.58252 94.96582 50.86096 95.34267 51.14326 95.71953 51.4248 96.09636 51.71059 96.4732 51.99675 96.85007 52.29025 97.2269 52.58376 97.60376 52.87726 97.9806 53.17462 98.35747 53.47586 98.7343 53.78134 99.11116 54.08643 99.488 54.39537 99.86485 54.70819 100.2417 55.02525 100.61855 55.34155 100.9954 55.66208 101.37224 55.98302 101.7491 56.31166 102.12595 56.63992 102.50279 56.97205 102.87964 57.30803 103.2565 57.64403 103.63333 57.9769 104.0102 58.32063 104.38704 58.667 104.7639 59.01694 105.14073 59.3699 105.51758 59.72595 105.89444 60.08476 106.27127 60.4474 106.64813 60.81348 107.02498 61.18195 107.40184 61.55383 107.77867 61.92957 108.15553 62.30882 108.53238 62.69116 108.90923 63.07654 109.28607 63.46547 109.66292 63.85745 110.03976 64.25446 110.41663 64.6534 110.79347 65.05734 111.17032 65.46326 111.54716 65.87373 111.92401 66.28777 112.30087 66.70486 112.6777 67.12619 113.05457 67.55177 113.43141 67.98119 113.80826 68.41295 114.1851 68.84972 114.56197 69.28998 114.93881 69.73454 115.31564 70.1825 115.6925 70.63472 116.06935 71.09082 116.4462 71.55153 116.82304 72.01611 117.1999 72.48418 117.57675 72.95648 117.9536 73.4338 118.33044 73.91542 118.7073 74.4001 119.08414 74.89056 119.46098 75.38449 119.83784 75.88226 120.21468 76.38474 120.59154 76.89334 120.96838 77.40501 121.34525 77.921 121.72208 78.44197 122.09894 78.96832 122.47578 79.4982 122.85262 80.03268 123.22948 80.57216 123.60632 81.11784 123.98318 81.66664 124.36002 82.22046 124.73688 82.78003 125.11372 83.34503 125.49055 83.91469 125.86742 84.48817 126.24426 85.06668 126.62111 85.65176 126.99796 86.24188 127.37482 86.83888 127.75166 87.43864 128.12851 88.04343 128.50536 88.6548 128.8822 89.27078 129.25905 89.89365 129.6359 90.52046 130.01276 91.15419 130.3896 91.7922 130.76645 92.43634 131.1433 93.08708 131.52014 93.74326 131.89699 94.40442 132.27384 95.07172 132.6507 95.7445 133.02753 96.42418 133.40439 97.11005 133.78124 97.80174 134.1581 98.50075 134.53493 99.20357 134.91178 99.91183 135.28864 100.62982 135.66547 101.35393 136.04233 102.08228 136.41918 102.81715 136.79604 103.56018 137.17287 104.30981 137.54973 105.06522 137.92658 105.82834 138.3034 106.59569 138.68027 107.37347 139.05712 108.15552 139.43396 108.94452 139.8108 109.74232 140.18767 110.54599 140.56452 111.35626 140.94135 112.17535 141.3182 112.99948 141.69506 113.83441 142.0719 114.67479 142.44875 115.52206 142.8256 116.37828 143.20246 117.24106 143.5793 118.11072 143.95615 118.98933 144.333 119.8745 144.70984 120.76967 145.08669 121.6718 145.46355 122.58052 145.84038 123.49927 146.21724 124.42532 146.59409 125.3584 146.97095 126.30225 147.34778 127.2534 147.72463 128.21158 148.10149 129.1809 148.47832 130.15796 148.85518 131.14272 149.23203 132.13719 149.60889 133.13973 149.98572 134.15158 150.0748 134.3929"/>
<path transform="matrix(-.99665996,.08139488,.081392448,.9966898,2.9255915,114.20342)" stroke-width=".79701" stroke-linecap="round" stroke-linejoin="round" fill="none" stroke="#1414cc" d="M-1.73352 2.31136C-1.58905 1.4446 0 .14444 .43336 0 0-.14444-1.58905-1.4446-1.73352-2.31136"/>
<path transform="matrix(.3459304,-.9382763,-.9382482,-.34594075,152.17578,2.5713044)" stroke-width=".79701" stroke-linecap="round" stroke-linejoin="round" fill="none" stroke="#1414cc" d="M-1.73352 2.31136C-1.58905 1.4446 0 .14444 .43336 0 0-.14444-1.58905-1.4446-1.73352-2.31136"/>
<path transform="matrix(1.00003,0,0,-1.00006,2.0964967,136.97226)" stroke-width=".99628" stroke-linecap="butt" stroke-miterlimit="10" stroke-linejoin="miter" fill="none" stroke="#1414cc" d="M76.48047 133.95574 76.63202 133.25711 76.95999 131.76605 77.28795 130.29468 77.6159 128.84223 77.94386 127.41139 78.27184 125.99712 78.59978 124.60182 78.92775 123.22273 79.25572 121.86372 79.58368 120.52211 79.91164 119.19746 80.2396 117.89021 80.56757 116.60262 80.89551 115.32936 81.22348 114.07231 81.55144 112.8334 81.8794 111.60959 82.20737 110.40276 82.53532 109.21097 82.86328 108.0346 83.19124 106.87448 83.51921 105.72751 83.84715 104.59868 84.17513 103.48105 84.50308 102.38039 84.83104 101.29329 85.15901 100.22197 85.48697 99.16226 85.81493 98.118 86.14288 97.08766 86.47086 96.06926 86.7988 95.0663 87.12677 94.07495 87.45473 93.09633 87.78268 92.13167 88.11066 91.1797 88.43861 90.2389 88.76659 89.31055 89.09453 88.39641 89.4225 87.49039 89.75046 86.60022 90.07841 85.71973 90.40639 84.85042 90.73434 83.99266 91.0623 83.14691 91.39026 82.3112 91.71823 81.48744 92.04617 80.67377 92.37415 79.87122 92.7021 79.07916 93.03006 78.2979 93.35803 77.52629 93.68599 76.76395 94.01395 76.01244 94.3419 75.27054 94.66988 74.5387 94.99782 73.81618 95.32579 73.10245 95.65375 72.40038 95.9817 71.70485 96.30968 71.01898 96.63763 70.34314 96.96559 69.67543 97.29355 69.0162 97.62152 68.36588 97.94948 67.7248 98.27744 67.09143 98.6054 66.46614 98.93336 65.8494 99.26132 65.24037 99.58928 64.6395 99.91725 64.04668 100.2452 63.46123 100.57317 62.88385 100.90112 62.31425 101.22908 61.75119 101.55704 61.19621 101.88501 60.64818 102.21297 60.10716 102.54092 59.57379 102.8689 59.04704 103.19684 58.52722 103.52481 58.01474 103.85277 57.51657 104.18073 57.01453 104.5087 56.52368 104.83665 56.03708 105.16461 55.55435 105.49257 55.08319 105.82054 54.61163 106.14848 54.15169 106.47646 53.69638 106.80441 53.24452 107.13239 52.80428 107.46034 52.36363 107.7883 51.93109 108.11627 51.50629 108.44421 51.08456 108.77219 50.66824 109.10014 50.25851 109.4281 49.85262 109.75606 49.45483 110.08403 49.05707 110.41199 48.67087 110.73994 48.28429 111.06792 47.90622 111.39586 47.53123 111.72383 47.16434 112.05179 46.79706 112.37975 46.4383 112.7077 46.08301 113.03568 45.73543 113.36363 45.38748 113.69159 45.04762 114.01956 44.71124 114.3475 44.37914 114.67548 44.05048 115.00343 43.72647 115.33139 43.40593 115.65935 43.09273 115.98732 42.7799 116.31529 42.47482 116.64323 42.16934 116.9712 41.87198 117.29916 41.575 117.62712 41.28496 117.95508 40.99918 118.28305 40.7134 118.61101 40.43109 118.93896 40.1573 119.26694 39.88232 119.59488 39.61624 119.92285 39.34976 120.25081 39.08716 120.57877 38.82841 120.90672 38.57312 121.2347 38.32211 121.56265 38.07108 121.89061 37.8274 122.21858 37.5841 122.54652 37.34505 122.8745 37.10909 123.20245 36.87776 123.53041 36.64566 123.85837 36.42166 124.18634 36.19766 124.5143 35.97368 124.84225 35.75742 125.17023 35.54076 125.49818 35.32874 125.82614 35.1202 126.1541 34.91127 126.48207 34.71045 126.81001 34.50616 127.13799 34.30843 127.46596 34.11185 127.7939 33.91837 128.12187 33.72914 128.44983 33.5399 128.77779 33.35454 129.10575 33.16956 129.43372 32.98727 129.76166 32.81 130.08963 32.63197 130.4176 32.45818 130.74555 32.28441 131.07352 32.11447 131.40148 31.94841 131.72943 31.78235 132.05739 31.62015 132.38536 31.45833 132.71332 31.2996 133.04128 31.14128 133.36925 30.98679 133.69719 30.83578 134.02516 30.68518 134.35312 30.53456 134.68109 30.3882 135.00904 30.24492 135.337 30.10204 135.66498 29.95914 135.99292 29.82011 136.32089 29.6807 136.64885 29.54591 136.9768 29.41463 137.30477 29.27907 137.63274 29.15161 137.96068 29.02031 138.28865 28.89287 138.61663 28.76929 138.94457 28.64532 139.27254 28.5225 139.6005 28.40202 139.92845 28.28268 140.25641 28.16682 140.58438 28.05096 140.91233 27.93472 141.2403 27.82272 141.56827 27.71074 141.89621 27.6026 142.22418 27.49448 142.55214 27.38634 142.8801 27.27821 143.20806 27.17778 143.53603 27.07314 143.86399 26.9731 144.19194 26.87231 144.51992 26.77231 144.84787 26.67535 145.17583 26.57881 145.50379 26.48227 145.83176 26.38957 146.1597 26.29727 146.48767 26.2046 146.81565 26.11575 147.14359 26.02655 147.47156 25.93773 147.79952 25.85277 148.12747 25.76395 148.45543 25.68323 148.7834 25.59789 149.11135 25.51718 149.43932 25.43568 149.76729 25.3542 150.09523 25.27348 150.4232 25.19664 150.75116 25.11938 151.07912 25.04564 151.40708 24.96838 151.73505 24.89464 152.06299 24.82164 152.39096 24.74788 152.71894 24.67836 153.04689 24.60884 153.37485 24.53935 153.7028 24.46983 154.03078 24.40456 154.35872 24.33505 154.68669 24.26901 155.01465 24.20335 155.3426 24.14156 155.67058 24.07977 155.99854 24.0145 156.32649 23.95232 156.65445 23.89401 156.98242 23.833 157.31037 23.77467 157.63834 23.71675 157.9663 23.65921 158.29425 23.6005 158.62223 23.54297 158.95018 23.4889 159.27814 23.43445 159.6061 23.38077 159.93407 23.3267 160.26201 23.27649 160.58998 23.22243 160.91796 23.17221 161.2459 23.12221 161.57387 23.07231 161.90183 23.02309 162.2298 22.9745 162.55774 22.92657 162.88571 22.87923 163.21367 22.83253 163.54163 22.78645 163.8696 22.74095 164.19756 22.69608 164.52552 22.65178 164.85347 22.60806 165.18144 22.5649 165.50939 22.52231 165.83736 22.48029 166.16532 22.4388 166.49327 22.39786 166.82125 22.35747 167.1492 22.3176 167.47716 22.27823 167.80512 22.23941 168.13309 22.20107 168.46103 22.16324 168.789 22.1259 169.11696 22.08908 169.44492 22.0527 169.77289 22.0168 170.10085 21.9814 170.4288 21.94646 170.75676 21.91194 171.08473 21.8779 171.41269 21.84431 171.74065 21.81114 172.06862 21.77841 172.39658 21.74614 172.72454 21.71423 173.05249 21.6828 173.38047 21.65175 173.7084 21.62111 174.03638 21.59085 174.36434 21.56102 174.69229 21.53156 175.02027 21.50249 175.34822 21.4738 175.67618 21.4455 176.00414 21.41756 176.3321 21.38997 176.66005 21.36275 176.98802 21.33589 177.31598 21.30939 177.64394 21.28322 177.97191 21.25739 178.29987 21.23193 178.62783 21.20677 178.95578 21.18196 179.28376 21.15746 179.6117 21.13329 179.93967 21.10942 180.26763 21.08588 180.59558 21.06262 180.92356 21.0397 181.25151 21.01706 181.57949 20.99474 181.90743 20.97267 182.2354 20.95093 182.56336 20.92946 182.89131 20.90826 183.21927 20.88734 183.54724 20.8667 183.8752 20.84633 184.20316 20.82623 184.53113 20.80638 184.85907 20.78682 185.18704 20.76749 185.515 20.74841 185.84296 20.72958 186.17093 20.71101 186.49889 20.69267 186.82685 20.67458 187.1548 20.65672 187.48278 20.6391 187.81072 20.62169 188.13869 20.60454 188.46665 20.58759 188.7946 20.57088 189.12258 20.55435 189.45053 20.53809 189.77849 20.522 190.10645 20.50615 190.43442 20.49051 190.76238 20.47505 191.09033 20.45981 191.41829 20.44475 191.74626 20.4299 192.07422 20.41527 192.40218 20.40079 192.73015 20.38652 193.05809 20.37242 193.38607 20.35852 193.71402 20.34479 194.04198 20.33125 194.36994 20.31787 194.6979 20.3047 195.02587 20.29167 195.35382 20.27882 195.6818 20.26614 196.00974 20.25362 196.3377 20.24127 196.66567 20.22908 196.99362 20.21706 197.32158 20.20518 197.64955 20.19347 197.97751 20.1819 198.30547 20.1705 198.63344 20.15923 198.96138 20.14812 199.28936 20.13715 199.61731 20.12631 199.94528 20.11563 200.27324 20.1051 200.6012 20.09468 200.92917 20.08441 201.25711 20.07428 201.58509 20.06427 201.91304 20.0544 202.241 20.04465 202.56896 20.03503 202.89693 20.02554 203.22489 20.01617 203.55284 20.00693 203.88082 19.99782 204.20876 19.9888 204.53673 19.97992 204.86469 19.97115 205.19264 19.96248 205.5206 19.95395 205.84857 19.94553 206.17653 19.9372 206.50449 19.929 206.83246 19.9209 206.32881 19.93306"/>
<path transform="matrix(-.21204637,-.9772786,-.9772494,.21205272,78.57926,3.0085145)" stroke-width=".79701" stroke-linecap="round" stroke-linejoin="round" fill="none" stroke="#1414cc" d="M-1.73352 2.31136C-1.58905 1.4446 0 .14444 .43336 0 0-.14444-1.58905-1.4446-1.73352-2.31136"/>
<path transform="matrix(.99968007,.02417145,.024170727,-.99970999,208.43149,117.037998)" stroke-width=".79701" stroke-linecap="round" stroke-linejoin="round" fill="none" stroke="#1414cc" d="M-1.73352 2.31136C-1.58905 1.4446 0 .14444 .43336 0 0-.14444-1.58905-1.4446-1.73352-2.31136"/>
<path transform="matrix(1.00003,0,0,-1.00006,2.0964967,136.97226)" stroke-width=".99628" stroke-linecap="butt" stroke-miterlimit="10" stroke-linejoin="miter" fill="none" stroke="#1414cc" d="M.81311 38.8848 .424 38.8008 .848 38.88768 1.27202 38.97516 1.69603 39.06784 2.12004 39.15474 2.54405 39.24106 2.96808 39.33374 3.39209 39.42122 3.8161 39.5133 4.24011 39.60078 4.66412 39.69348 5.08813 39.78673 5.51216 39.87827 5.93617 39.97095 6.36018 40.06421 6.7842 40.1569 7.2082 40.24959 7.63222 40.34227 8.05623 40.43553 8.48026 40.53343 8.90427 40.62613 9.32828 40.72403 9.75229 40.81729 10.1763 40.91635 10.60031 41.01425 11.02434 41.11331 11.44835 41.2112 11.87236 41.3039 12.29637 41.40237 12.72038 41.50664 13.1444 41.6057 13.5684 41.7036 13.99243 41.80266 14.41644 41.90694 14.84045 42.00482 15.26447 42.10966 15.68848 42.21396 16.11249 42.31302 16.53651 42.41728 16.96053 42.52155 17.38454 42.62582 17.80855 42.73009 18.23256 42.83437 18.65657 42.93863 19.08058 43.04813 19.50461 43.15239 19.92862 43.26305 20.35263 43.36731 20.77664 43.47679 21.20065 43.58743 21.62466 43.69171 22.04869 43.8012 22.4727 43.91183 22.89671 44.02132 23.32072 44.13197 23.74474 44.24783 24.16875 44.3579 24.59276 44.46796 25.01678 44.5838 25.4408 44.69388 25.8648 44.80974 26.28882 44.9256 26.71283 45.04144 27.13684 45.1573 27.56087 45.27318 27.98488 45.38902 28.40889 45.50546 28.8329 45.6213 29.25691 45.73659 29.68092 45.85825 30.10493 45.97987 30.52896 46.09575 30.95297 46.21797 31.37698 46.33907 31.801 46.46071 32.225 46.58293 32.64902 46.704 33.07304 46.82565 33.49706 46.94788 33.92107 47.07532 34.34508 47.19698 34.76909 47.3244 35.1931 47.45186 35.61711 47.57872 36.04114 47.70096 36.46515 47.8284 36.88916 47.95526 37.31317 48.08908 37.73718 48.21652 38.1612 48.34453 38.58522 48.4772 39.00923 48.60522 39.43324 48.73787 39.85725 48.87111 40.28127 49.00493 40.70528 49.13817 41.12929 49.27081 41.55331 49.40463 41.97733 49.53787 42.40134 49.6769 42.82535 49.81012 43.24936 49.94916 43.67337 50.08876 44.0974 50.22722 44.52141 50.36102 44.94542 50.50586 45.36943 50.6443 45.79344 50.78334 46.21745 50.92294 46.64146 51.0672 47.06549 51.20679 47.4895 51.35162 47.91351 51.49643 48.33752 51.64067 48.76154 51.7855 49.18555 51.93091 49.60957 52.07573 50.03358 52.22693 50.4576 52.37057 50.8816 52.52177 51.30562 52.67238 51.72963 52.81721 52.15364 52.96841 52.57767 53.11844 53.00168 53.27484 53.42569 53.42546 53.8497 53.57666 54.27371 53.73306 54.69772 53.88947 55.12175 54.03952 55.54576 54.1959 55.96977 54.35233 56.39378 54.50932 56.8178 54.67151 57.2418 54.82791 57.66582 54.99011 58.08984 55.14651 58.51385 55.30873 58.93787 55.47092 59.36188 55.63312 59.78589 55.7959 60.2099 55.95753 60.63393 56.12552 61.05794 56.2883 61.48195 56.4563 61.90596 56.62428 62.32997 56.7859 62.75398 56.96027 63.178 57.12827 63.60202 57.29625 64.02603 57.46425 64.45004 57.63803 64.87405 57.81241 65.29807 57.98561 65.72208 58.1536 66.1461 58.32738 66.57011 58.50696 66.99413 58.68134 67.41814 58.86032 67.84215 59.0347 68.26616 59.21426 68.69017 59.39384 69.1142 59.57285 69.53821 59.75359 69.96222 59.93259 70.38623 60.11855 70.81024 60.29813 71.23425 60.48349 71.65828 60.66827 72.08229 60.85367 72.5063 61.03961 72.93031 61.2302 73.35432 61.41614 73.77834 61.60672 74.20235 61.79268 74.62637 61.98326 75.05038 62.175 75.4744 62.37254 75.8984 62.56313 76.32242 62.76067 76.74643 62.95125 77.17046 63.14821 77.59447 63.34575 78.01848 63.54271 78.44249 63.73965 78.8665 63.94241 79.29051 64.13937 79.71452 64.34154 80.13855 64.54488 80.56256 64.74762 80.98657 64.95094 81.41058 65.15312 81.8346 65.36166 82.2586 65.57022 82.68263 65.77412 83.10664 65.98267 83.53065 66.19641 83.95467 66.40495 84.37868 66.6135 84.80269 66.82841 85.2267 67.04218 85.65073 67.25708 86.07474 67.47086 86.49875 67.68575 86.92276 67.9059 87.34677 68.11964 87.77078 68.34035 88.19481 68.56049 88.61882 68.78061 89.04283 69.00073 89.46684 69.22665 89.89085 69.45259 90.31487 69.6785 90.73888 69.90442 91.1629 70.13036 91.58691 70.35684 92.01093 70.58858 92.43494 70.81448 92.85895 71.0462 93.28296 71.27792 93.70699 71.50963 94.131 71.74715 94.55501 71.98523 94.97902 72.21635 95.40303 72.45445 95.82704 72.69775 96.25105 72.93526 96.6751 73.17276 97.0991 73.41606 97.52312 73.65936 97.94713 73.90324 98.37114 74.14597 98.79515 74.39563 99.21918 74.64473 99.64319 74.88803 100.0672 75.13713 100.49121 75.39142 100.91522 75.6411 101.33923 75.89658 101.76324 76.15088 102.18727 76.39996 102.61128 76.66122 103.0353 76.91553 103.4593 77.17621 103.88332 77.42357 104.30733 77.6837 104.73135 77.94604 105.15536 78.20963 105.57938 78.47383 106.00339 78.73909 106.4274 79.00497 106.85141 79.27377 107.27542 79.54143 107.69945 79.81201 108.12346 80.08424 108.54749 80.35765 108.9715 80.63051 109.39551 80.9062 109.81952 81.18314 110.24355 81.46007 110.66756 81.73921 111.09157 82.01906 111.51558 82.30112 111.93959 82.58327 112.3636 82.8671 112.78761 83.15268 113.21164 83.43828 113.63565 83.7268 114.05966 84.0153 114.48367 84.30603 114.90768 84.59685 115.3317 84.89056 115.75572 85.18483 116.17973 85.48085 116.60374 85.77689 117.02776 86.07468 117.45177 86.37643 117.87578 86.67592 118.29979 86.97829 118.72382 87.28131 119.14783 87.58714 119.57184 87.8936 119.99585 88.2012 120.41986 88.51111 120.84387 88.81934 121.2679 89.13383 121.69191 89.44612 122.11592 89.76062 122.53993 90.07689 122.96394 90.3944 123.38795 90.71358 123.81197 91.03453 124.236 91.356 124.66 91.67863 125.08401 92.0042 125.50803 92.32921 125.93204 92.65819 126.35605 92.98613 126.78008 93.31743 127.20409 93.64996 127.6281 93.98302 128.05211 94.319 128.47612 94.65384 128.90013 94.99274 129.32415 95.33224 129.74817 95.67397 130.17218 96.01515 130.59619 96.36043 131.0202 96.7063 131.44422 97.05385 131.86823 97.40204 132.29225 97.75418 132.71627 98.10643 133.14028 98.45859 133.56429 98.8149 133.9883 99.16997 134.41231 99.52919 134.83632 99.88832 135.26035 100.25092 135.68436 100.6141 136.10837 100.9774 136.53238 101.34636 136.95639 101.71248 137.3804 102.0838 137.80443 102.45451 138.22844 102.82764 138.65245 103.20241 139.07646 103.5772 139.50048 103.95718 139.92449 104.33719 140.3485 104.71956 140.77252 105.10133 141.19654 105.4877 141.62055 105.87291 142.04456 106.25989 142.46857 106.65262 142.89258 107.04419 143.3166 107.43755 143.74062 107.83319 144.16463 108.23007 144.58864 108.62915 145.01265 109.03001 145.43666 109.43149 145.86067 109.83641 146.2847 110.24303 146.70871 110.65149 147.13272 111.06161 147.55673 111.47229 147.98075 111.88702 148.40476 112.30183 148.82878 112.7195 149.25279 113.13892 149.6768 113.55772 150.10082 113.98236 150.52483 114.40637 150.94884 114.83676 151.37285 115.26201 151.79688 115.69469 152.22089 116.12631 152.6449 116.5619 153.06891 116.99635 153.49292 117.43602 153.91693 117.87514 154.34096 118.3195 154.76497 118.76323 155.18898 119.20926 155.61299 119.65758 156.037 120.10829 156.46102 120.55899 156.88503 121.01369 157.30905 121.46846 157.73307 121.92899 158.15708 122.38783 158.58109 122.85295 159.0051 123.31702 159.42911 123.78442 159.85314 124.2514 160.27715 124.72174 160.70116 125.1979 161.12517 125.67 161.54918 126.15024 161.97319 126.62703 162.3972 127.11018 162.82123 127.59271 163.24524 128.07984 163.66925 128.5676 164.09326 129.05658 164.51728 129.5489 164.94129 130.04364 165.36531 130.54129 165.78932 131.04178 166.21334 131.5434 166.63735 132.04564 167.06136 132.55425 167.48537 133.06118 167.9094 133.56864 168.3334 134.08415 168.75742 134.59743 168.65445 134.4717"/>
<path transform="matrix(-.9774794,.21104266,.21103634,.9775086,2.909631,98.08513)" stroke-width=".79701" stroke-linecap="round" stroke-linejoin="round" fill="none" stroke="#1414cc" d="M-1.73352 2.31136C-1.58905 1.4446 0 .14444 .43336 0 0-.14444-1.58905-1.4446-1.73352-2.31136"/>
<path transform="matrix(.633489,-.7737464,-.77372327,-.63350799,170.75601,2.492508)" stroke-width=".79701" stroke-linecap="round" stroke-linejoin="round" fill="none" stroke="#1414cc" d="M-1.73352 2.31136C-1.58905 1.4446 0 .14444 .43336 0 0-.14444-1.58905-1.4446-1.73352-2.31136"/>
<use data-text="A" xlink:href="#font_2_1" transform="matrix(9.962899,0,0,-9.963197,70.273548,14.870934)"/>
<use data-text="B" xlink:href="#font_2_2" transform="matrix(9.962899,0,0,-9.963197,123.56615,14.870934)"/>
<use data-text="C" xlink:href="#font_2_3" transform="matrix(9.962899,0,0,-9.963197,139.24262,14.870934)"/>
<use data-text="D" xlink:href="#font_2_4" transform="matrix(9.962899,0,0,-9.963197,169.90253,14.870934)"/>
</g>
<use data-text="x" xlink:href="#font_3_1" transform="matrix(9.962899,0,0,-9.963197,200.07845,114.138889)"/>
<use data-text="y" xlink:href="#font_3_2" transform="matrix(9.962899,0,0,-9.963197,109.21972,9.578621)"/>
</svg>
