<svg xmlns="http://www.w3.org/2000/svg" xmlns:xlink="http://www.w3.org/1999/xlink" xmlns:inkscape="http://www.inkscape.org/namespaces/inkscape" version="1.1" width="157" height="143" viewBox="0 0 157 143">
<defs>
<path id="font_1_1" d="M.6589966 .23046875C.6759949 .23046875 .69400027 .23046875 .69400027 .25045777 .69400027 .27046205 .6759949 .27046205 .6589966 .27046205H.117996219C.100997928 .27046205 .08299255 .27046205 .08299255 .25045777 .08299255 .23046875 .100997928 .23046875 .117996219 .23046875H.6589966Z"/>
<path id="font_2_3" d="M.2899933 .35191346C.37199403 .37893678 .42999269 .4490509 .42999269 .52809146 .42999269 .6100464 .34199525 .6660156 .24598694 .6660156 .14498902 .6660156 .068984989 .60606387 .068984989 .53009036 .068984989 .49710084 .09098816 .47808839 .11999512 .47808839 .15098572 .47808839 .17098999 .50009158 .17098999 .5290985 .17098999 .57910159 .12399292 .57910159 .10899353 .57910159 .13999939 .62802127 .20599365 .64100649 .24198914 .64100649 .2829895 .64100649 .33799745 .6190338 .33799745 .5290985 .33799745 .51708987 .33599855 .45906068 .30999757 .4149933 .27999879 .36691285 .24598694 .36390687 .22099304 .36291505 .21299744 .36190797 .18899536 .35990907 .18199158 .35990907 .17399597 .35890199 .16699219 .35791017 .16699219 .3479004 .16699219 .33691407 .17399597 .33691407 .19099427 .33691407H.23498535C.31698609 .33691407 .35398866 .2686615 .35398866 .17037964 .35398866 .034469606 .2849884 .0055389406 .24099732 .0055389406 .19799805 .0055389406 .12298584 .022491456 .08799744 .08137512 .12298584 .07637024 .1539917 .09837341 .1539917 .1363678 .1539917 .17237854 .1269989 .19238281 .09799194 .19238281 .07398987 .19238281 .041992189 .17837525 .041992189 .1343689 .041992189 .043441774 .1349945-.022460938 .24398804-.022460938 .3659973-.022460938 .45700074 .06838989 .45700074 .17037964 .45700074 .252594 .3939972 .33088685 .2899933 .35191346Z"/>
<path id="font_2_2" d="M.1269989 .07699585 .23298645 .18003845C.3889923 .31811524 .44898988 .3721466 .44898988 .47216798 .44898988 .5860901 .35899354 .6660156 .23699951 .6660156 .12399292 .6660156 .049987794 .57411196 .049987794 .48516847 .049987794 .4291687 .099990848 .4291687 .102996829 .4291687 .11999512 .4291687 .15499878 .44117738 .15499878 .48217774 .15499878 .5081787 .13699341 .5341797 .101989749 .5341797 .09399414 .5341797 .09199524 .5341797 .08898926 .5331726 .11199951 .59806826 .1659851 .63500979 .22399903 .63500979 .31498719 .63500979 .35798646 .5541382 .35798646 .47216798 .35798646 .39215089 .30799867 .31311036 .25299073 .25108338L.06098938 .036987306C.049987794 .025985718 .049987794 .023986817 .049987794 0H.42099L.44898988 .17404175H.42399598C.4189911 .14402771 .4119873 .1000061 .4019928 .084991458 .394989 .07699585 .32899476 .07699585 .30699159 .07699585H.1269989Z"/>
<path id="font_2_1" d="M.2939911 .64004519C.2939911 .66400149 .2939911 .6660156 .2709961 .6660156 .20899964 .60227969 .12098694 .60227969 .08898926 .60227969V.57128909C.10899353 .57128909 .16799927 .57128909 .21998596 .5972748V.07902527C.21998596 .042999269 .21699524 .0309906 .1269989 .0309906H.09498596V0C.12998963 .0029907227 .21699524 .0029907227 .25698854 .0029907227 .29699708 .0029907227 .38398744 .0029907227 .4189911 0V.0309906H.3869934C.29699708 .0309906 .2939911 .041992189 .2939911 .07902527V.64004519Z"/>
<path id="font_2_4" d="M.2939911 .16503906V.07800293C.2939911 .041992189 .2919922 .0309906 .21798706 .0309906H.19699097V0C.23799134 .0029907227 .2899933 .0029907227 .33198548 .0029907227 .37399293 .0029907227 .4269867 .0029907227 .46798707 0V.0309906H.44699098C.37298585 .0309906 .37098695 .041992189 .37098695 .07800293V.16503906H.47099305V.19602967H.37098695V.65075686C.37098695 .67074587 .37098695 .6767578 .35499574 .6767578 .34599305 .6767578 .34298707 .6767578 .33499146 .66474917L.027999878 .19602967V.16503906H.2939911M.2999878 .19602967H.055999757L.2999878 .5688019V.19602967Z"/>
<path id="font_2_5" d="M.44898988 .20022583C.44898988 .3193512 .36698915 .41944886 .25898744 .41944886 .21099854 .41944886 .16799927 .40345765 .13198853 .36842347V.5637665C.1519928 .5577698 .18499756 .55078127 .21699524 .55078127 .33999635 .55078127 .4099884 .6417694 .4099884 .6547699 .4099884 .6607666 .40699769 .6657715 .3999939 .6657715 .39898683 .6657715 .39698792 .6657715 .3919983 .66278079 .37199403 .6537781 .32299806 .6337738 .2559967 .6337738 .21598816 .6337738 .16999817 .6407776 .12298584 .6617737 .114990238 .66477969 .11299133 .66477969 .11099243 .66477969 .100997928 .66477969 .100997928 .6567688 .100997928 .6407776V.34439088C.100997928 .32637025 .100997928 .31835938 .114990238 .31835938 .12199402 .31835938 .12399292 .32136537 .12799073 .32736207 .13899231 .3433838 .17599488 .39746095 .25698854 .39746095 .30899049 .39746095 .33399964 .35139466 .34199525 .33337403 .35798646 .29632569 .3600006 .25727845 .3600006 .20722962 .3600006 .17222595 .3600006 .11222839 .33599855 .07035828 .31199647 .031463624 .2749939 .0055389406 .22898865 .0055389406 .1559906 .0055389406 .09899902 .058380128 .08198547 .11723328 .084991458 .1162262 .08799744 .115234378 .09899902 .115234378 .13198853 .115234378 .14898682 .14022827 .14898682 .16423035 .14898682 .18823242 .13198853 .21322632 .09899902 .21322632 .084991458 .21322632 .049987794 .20622254 .049987794 .16023255 .049987794 .07434082 .11898804-.022460938 .23098755-.022460938 .34700013-.022460938 .44898988 .073349 .44898988 .20022583Z"/>
<path id="font_2_6" d="M.13198853 .327713V.35173036C.13198853 .6047821 .2559967 .64100649 .30699159 .64100649 .33099366 .64100649 .37298585 .634964 .394989 .6007538 .37998963 .6007538 .33999635 .6007538 .33999635 .5557556 .33999635 .524765 .3639984 .5097656 .38598634 .5097656 .4019928 .5097656 .43199159 .51875308 .43199159 .5577545 .43199159 .6178589 .3880005 .6660156 .30499269 .6660156 .1769867 .6660156 .041992189 .5367584 .041992189 .31570436 .041992189 .048553468 .1579895-.022460938 .25099183-.022460938 .3619995-.022460938 .45700074 .07156372 .45700074 .2036438 .45700074 .33070375 .36799623 .4267578 .25698854 .4267578 .18899536 .4267578 .1519928 .37573243 .13198853 .327713M.25099183 .0055389406C.18798828 .0055389406 .1579895 .06556702 .1519928 .080566409 .13398743 .127594 .13398743 .2076416 .13398743 .22564698 .13398743 .30369569 .1659851 .40374757 .2559967 .40374757 .27198792 .40374757 .31799317 .40374757 .34899903 .34172059 .36698915 .30470277 .36698915 .2536621 .36698915 .20463562 .36698915 .15661621 .36698915 .10658264 .34999085 .0705719 .31999208 .010528564 .27398683 .0055389406 .25099183 .0055389406Z"/>
<clipPath id="clip_3">
<path transform="matrix(1,0,0,-1.00009,2.0960007,141.23027)" d="M0 0H153.58863V139.42038H0Z"/>
</clipPath>
<path id="font_4_2" d="M.33399964 .30233766C.33999635 .32835389 .36299134 .42037965 .43299867 .42037965 .43798829 .42037965 .46199037 .42037965 .48298646 .40734864 .45498658 .402359 .43499757 .37734986 .43499757 .35334779 .43499757 .33735658 .44599916 .31835938 .47299195 .31835938 .49499513 .31835938 .5269928 .3363495 .5269928 .37635804 .5269928 .42837525 .46798707 .4423828 .43399049 .4423828 .37599183 .4423828 .34098817 .38935853 .32899476 .36634828 .3039856 .43237306 .25 .4423828 .22099304 .4423828 .116989139 .4423828 .05999756 .3133545 .05999756 .28834535 .05999756 .27833558 .069992069 .27833558 .07199097 .27833558 .07998657 .27833558 .08299255 .28033448 .084991458 .28933717 .11898804 .39535523 .18499756 .42037965 .21899414 .42037965 .23799134 .42037965 .272995 .4113617 .272995 .35334779 .272995 .32235719 .2559967 .25532533 .21899414 .11528015 .20298767 .053268434 .16799927 .011245728 .12399292 .011245728 .117996219 .011245728 .09498596 .011245728 .07398987 .024276734 .09899902 .029266358 .12098694 .05027771 .12098694 .07827759 .12098694 .105270389 .09899902 .11328125 .083999637 .11328125 .053985597 .11328125 .0289917 .08728027 .0289917 .055267335 .0289917 .009246826 .07899475-.0107421879 .12298584-.0107421879 .18899536-.0107421879 .22499085 .059280397 .22799683 .0652771 .23999024 .028274537 .27598573-.0107421879 .33599855-.0107421879 .43899537-.0107421879 .49598695 .118270877 .49598695 .14328003 .49598695 .1532898 .4869995 .1532898 .48399354 .1532898 .47499085 .1532898 .47299195 .14929199 .47099305 .14228821 .43798829 .03527832 .36999513 .011245728 .33799745 .011245728 .29899598 .011245728 .2829895 .043273927 .2829895 .07727051 .2829895 .09927368 .2889862 .121276859 .2999878 .16529846L.33399964 .30233766Z"/>
<path id="font_4_3" d="M.48599244 .38136292C.48999024 .39537049 .48999024 .39736939 .48999024 .40437318 .48999024 .42237855 .47599793 .43138124 .46099855 .43138124 .45098878 .43138124 .43499757 .42536927 .42599488 .41036988 .42399598 .405365 .41600038 .37435914 .4119873 .35635377 .40499879 .33035279 .397995 .30334474 .3919983 .27633668L.34700013 .09628296C.34298707 .08126831 .2999878 .011245728 .23399353 .011245728 .18299866 .011245728 .17199707 .055267335 .17199707 .0922699 .17199707 .1382904 .18899536 .20030213 .22299195 .28833009 .23899842 .3293457 .24299622 .3403473 .24299622 .36035157 .24299622 .405365 .21099854 .4423828 .16099549 .4423828 .06599426 .4423828 .0289917 .29733277 .0289917 .28833009 .0289917 .27833558 .038986207 .27833558 .040985109 .27833558 .050994874 .27833558 .051986696 .28033448 .056991579 .29634095 .083999637 .3903656 .12399292 .42037965 .1579895 .42037965 .1659851 .42037965 .18299866 .42037965 .18299866 .3883667 .18299866 .36335755 .17298889 .3373413 .1659851 .31834413 .12599182 .21231079 .10798645 .1552887 .10798645 .10827637 .10798645 .019256592 .17098999-.0107421879 .22999573-.0107421879 .2689972-.0107421879 .30299378 .0062561037 .33099366 .03425598 .31799317-.017745972 .30599977-.06674194 .2659912-.11973572 .23999024-.15385437 .20199585-.18309021 .1559906-.18309021 .14199829-.18309021 .09700012-.18005371 .07998657-.14074707 .09599304-.14074707 .10899353-.14074707 .12298584-.1287384 .1329956-.11973572 .14299011-.10673523 .14299011-.08773804 .14299011-.056747438 .115997318-.052734376 .10598755-.052734376 .08299255-.052734376 .049987794-.068740848 .049987794-.11773682 .049987794-.16796875 .09399414-.20507813 .1559906-.20507813 .25898744-.20507813 .3619995-.11373901 .3899994-.00074768069L.48599244 .38136292Z"/>
<path id="font_2_7" d="M.68699648 .32714845C.70199587 .32714845 .72099307 .32714845 .72099307 .34713746 .72099307 .36714173 .70199587 .36714173 .6879883 .36714173H.08898926C.07499695 .36714173 .055999757 .36714173 .055999757 .34713746 .055999757 .32714845 .07499695 .32714845 .08999634 .32714845H.68699648M.6879883 .13284302C.70199587 .13284302 .72099307 .13284302 .72099307 .15284729 .72099307 .17285156 .70199587 .17285156 .68699648 .17285156H.08999634C.07499695 .17285156 .055999757 .17285156 .055999757 .15284729 .055999757 .13284302 .07499695 .13284302 .08898926 .13284302H.6879883Z"/>
<path id="font_5_1" d="M.24899292 .10601807C.23899842 .072021488 .20599365 .018234253 .15499878 .018234253 .1519928 .018234253 .12199402 .018234253 .100997928 .03215027 .14199829 .04508972 .14498902 .08100891 .14498902 .087020877 .14498902 .10900879 .12799073 .12402344 .10499573 .12402344 .07699585 .12402344 .04798889 .10002136 .04798889 .0630188 .04798889 .01322937 .10398865-.009765625 .15299988-.009765625 .19898987-.009765625 .23999024 .019226075 .2649994 .061019899 .2889862 .008224487 .34399415-.009765625 .38398744-.009765625 .49899293-.009765625 .55999758 .11502075 .55999758 .14305115 .55999758 .15608216 .5469971 .15608216 .5439911 .15608216 .5299988 .15608216 .5289917 .15107727 .5249939 .13905335 .5039978 .07002258 .44400025 .018234253 .3880005 .018234253 .34799195 .018234253 .32699586 .04508972 .32699586 .08302307 .32699586 .10900879 .35099793 .20018006 .3789978 .31140138 .39898683 .38841249 .44400025 .4133911 .47698976 .4133911 .47898866 .4133911 .5099945 .4133911 .5309906 .39941407 .49899293 .39041139 .4869995 .3624115 .4869995 .34440614 .4869995 .32240296 .5039978 .30740357 .5269928 .30740357 .5499878 .30740357 .58299258 .32640077 .58299258 .3684082 .58299258 .4243927 .5189972 .44140626 .47898866 .44140626 .42900086 .44140626 .3889923 .4084015 .36698915 .3704071 .34899903 .4113922 .30299378 .44140626 .24699402 .44140626 .1349945 .44140626 .070999149 .31840516 .070999149 .2883606 .070999149 .27534486 .084991458 .27534486 .08799744 .27534486 .100997928 .27534486 .101989749 .27934266 .10699463 .29237367 .13198853 .3704071 .19499207 .4133911 .24398804 .4133911 .2769928 .4133911 .3039856 .395401 .3039856 .3474121 .3039856 .32740785 .2919922 .27734376 .2829895 .24327088L.24899292 .10601807Z"/>
<path id="font_4_1" d="M.18699646 .23144531C.21598816 .23144531 .2899933 .23344422 .33999635 .2544403 .4099884 .28442384 .4149933 .34339906 .4149933 .35740663 .4149933 .40138246 .3769989 .4423828 .30799867 .4423828 .19699097 .4423828 .04598999 .34539796 .04598999 .17037964 .04598999 .06829834 .10499573-.0107421879 .20298767-.0107421879 .34599305-.0107421879 .42999269 .095321658 .42999269 .10733032 .42999269 .113342288 .42399598 .12034607 .41799928 .12034607 .41299439 .12034607 .41099549 .11834717 .40499879 .1103363 .32598878 .011245728 .21699524 .011245728 .20498657 .011245728 .1269989 .011245728 .117996219 .095321658 .117996219 .12734986 .117996219 .13935852 .11898804 .17037964 .13398743 .23144531H.18699646M.13999939 .25343324C.1789856 .40538026 .28199769 .42037965 .30799867 .42037965 .35499574 .42037965 .38198854 .39138795 .38198854 .35740663 .38198854 .25343324 .22200012 .25343324 .18099976 .25343324H.13999939Z"/>
</defs>
<path transform="matrix(1,0,0,-1.00009,2.0960007,141.23027)" stroke-width=".3985" stroke-linecap="butt" stroke-miterlimit="10" stroke-linejoin="miter" fill="none" stroke="#404040" d="M0 0H153.58863V139.42038H0Z"/>
<path transform="matrix(1,0,0,-1.00009,2.0960007,141.23027)" stroke-width=".3985" stroke-linecap="butt" stroke-miterlimit="10" stroke-linejoin="miter" fill="none" stroke="#bfbfbf" d="M19.19858 0V139.42038M38.39716 0V139.42038M57.59573 0V139.42038M95.99289 0V139.42038M115.19147 0V139.42038M134.39005 0V139.42038"/>
<path transform="matrix(1,0,0,-1.00009,2.0960007,141.23027)" stroke-width=".3985" stroke-linecap="butt" stroke-miterlimit="10" stroke-linejoin="miter" fill="none" stroke="#bfbfbf" d="M0 34.85509H153.58863M0 52.28264H153.58863M0 69.71019H153.58863M0 87.13773H153.58863M0 104.56528H153.58863M0 121.99283H153.58863"/>
<path transform="matrix(1,0,0,-1.00009,2.0960007,141.23027)" stroke-width=".19925" stroke-linecap="butt" stroke-miterlimit="10" stroke-linejoin="miter" fill="none" stroke="#7f807f" d="M19.19858 15.30162V19.55345M38.39716 15.30162V19.55345M57.59573 15.30162V19.55345M95.99289 15.30162V19.55345M115.19147 15.30162V19.55345M134.39005 15.30162V19.55345"/>
<path transform="matrix(1,0,0,-1.00009,2.0960007,141.23027)" stroke-width=".19925" stroke-linecap="butt" stroke-miterlimit="10" stroke-linejoin="miter" fill="none" stroke="#7f807f" d="M74.66833 34.85509H78.92026M74.66833 52.28264H78.92026M74.66833 69.71019H78.92026M74.66833 87.13773H78.92026M74.66833 104.56528H78.92026M74.66833 121.99283H78.92026"/>
<path transform="matrix(1,0,0,-1.00009,2.0960007,141.23027)" stroke-width=".3985" stroke-linecap="butt" stroke-miterlimit="10" stroke-linejoin="miter" fill="none" stroke="#000000" d="M0 17.42754H151.5961"/>
<path transform="matrix(1,0,0,-1.00009,153.69211,123.80116)" d="M1.99252 0-1.19551 1.59401 0 0-1.19551-1.59401"/>
<path transform="matrix(1,0,0,-1.00009,2.0960007,141.23027)" stroke-width=".3985" stroke-linecap="butt" stroke-miterlimit="10" stroke-linejoin="miter" fill="none" stroke="#000000" d="M76.79431 0V137.42786"/>
<path transform="matrix(0,-1.00009,-1,-0,78.89031,3.790039)" d="M1.99252 0-1.19551 1.59401 0 0-1.19551-1.59401"/>
<use data-text="&#x2212;" xlink:href="#font_1_1" transform="matrix(9.9626,0,0,-9.963496,14.929001,135.86879)"/>
<use data-text="3" xlink:href="#font_2_3" transform="matrix(9.9626,0,0,-9.963496,22.678002,135.86879)"/>
<use data-text="&#x2212;" xlink:href="#font_1_1" transform="matrix(9.9626,0,0,-9.963496,34.128004,135.86879)"/>
<use data-text="2" xlink:href="#font_2_2" transform="matrix(9.9626,0,0,-9.963496,41.877004,135.86879)"/>
<use data-text="&#x2212;" xlink:href="#font_1_1" transform="matrix(9.9626,0,0,-9.963496,53.327,135.86879)"/>
<use data-text="1" xlink:href="#font_2_1" transform="matrix(9.9626,0,0,-9.963496,61.076,135.86879)"/>
<use data-text="1" xlink:href="#font_2_1" transform="matrix(9.9626,0,0,-9.963496,95.598,135.86879)"/>
<use data-text="2" xlink:href="#font_2_2" transform="matrix(9.9626,0,0,-9.963496,114.797,135.86879)"/>
<use data-text="3" xlink:href="#font_2_3" transform="matrix(9.9626,0,0,-9.963496,133.995,135.86879)"/>
<use data-text="1" xlink:href="#font_2_1" transform="matrix(9.9626,0,0,-9.963496,68.263,109.58242)"/>
<use data-text="2" xlink:href="#font_2_2" transform="matrix(9.9626,0,0,-9.963496,68.263,92.153858)"/>
<use data-text="3" xlink:href="#font_2_3" transform="matrix(9.9626,0,0,-9.963496,68.263,74.72429)"/>
<use data-text="4" xlink:href="#font_2_4" transform="matrix(9.9626,0,0,-9.963496,68.263,57.294717)"/>
<use data-text="5" xlink:href="#font_2_5" transform="matrix(9.9626,0,0,-9.963496,68.263,39.866144)"/>
<use data-text="6" xlink:href="#font_2_6" transform="matrix(9.9626,0,0,-9.963496,68.263,22.436585)"/>
<g clip-path="url(#clip_3)">
<path transform="matrix(1,0,0,-1.00009,2.0960007,141.23027)" stroke-width=".99628" stroke-linecap="butt" stroke-dasharray="2.98883,2.98883" stroke-miterlimit="10" stroke-linejoin="miter" fill="none" stroke="#d2ade4" d="M.83116 18.55031 .65672 18.54329 1.31346 18.57005 1.9702 18.59746 2.62694 18.62555 3.28368 18.6543 3.94041 18.6837 4.59717 18.71384 5.2539 18.7447 5.91064 18.77632 6.56738 18.80865 7.22412 18.8418 7.88086 18.87575 8.53761 18.91046 9.19435 18.94604 9.85109 18.98248 10.50783 19.01978 11.16457 19.05798 11.8213 19.0971 12.47804 19.13718 13.1348 19.17761 13.79153 19.21925 14.44827 19.263 15.10501 19.30656 15.76175 19.35172 16.41849 19.39877 17.07524 19.44582 17.73198 19.49304 18.38872 19.54341 19.04546 19.5943 19.7022 19.64641 20.35893 19.69887 21.01569 19.75462 21.67242 19.81023 22.32916 19.86792 22.9859 19.92543 23.64264 19.98625 24.29938 20.04742 24.95612 20.11015 25.61287 20.17447 26.2696 20.24103 26.92635 20.30727 27.58308 20.37697 28.23982 20.44841 28.89656 20.5197 29.55331 20.59465 30.21005 20.66975 30.86679 20.74818 31.52353 20.82834 32.18027 20.90851 32.837 20.99216 33.49374 21.07756 34.1505 21.16644 34.80724 21.2555 35.46397 21.34785 36.12071 21.44197 36.77745 21.538 37.43419 21.63715 38.09094 21.73807 38.74768 21.84105 39.40442 21.94736 40.06116 22.05542 40.7179 22.16713 41.37463 22.28041 42.03139 22.39717 42.68813 22.51567 43.34485 22.63785 44.00159 22.76332 44.65833 22.89037 45.31506 23.02126 45.9718 23.15544 46.62856 23.2933 47.2853 23.43446 47.94203 23.57912 48.59877 23.72533 49.25551 23.8773 49.91225 24.03223 50.569 24.191 51.22574 24.35289 51.88248 24.51863 52.53922 24.68942 53.19595 24.86386 53.85269 25.04164 54.50943 25.22462 55.16618 25.41109 55.82292 25.6028 56.47966 25.79991 57.1364 26.00032 57.79314 26.20596 58.44987 26.41702 59.10663 26.63293 59.76337 26.8527 60.4201 27.07942 61.07684 27.31105 61.73358 27.54823 62.39032 27.79065 63.04707 28.04004 63.70381 28.29448 64.36055 28.55397 65.01729 28.82254 65.67403 29.0944 66.33078 29.37515 66.98752 29.66115 67.64427 29.95567 68.301 30.25543 68.95773 30.56389 69.61449 30.87952 70.27122 31.2021 70.92796 31.53165 71.58472 31.86957 72.24146 32.21655 72.8982 32.57207 73.55493 32.93456 74.21167 33.3077 74.86841 33.6876 75.52515 34.07832 76.1819 34.47743 76.83864 34.88297 77.49538 35.30157 78.15211 35.7303 78.80885 36.16946 79.46559 36.61893 80.12234 37.07901 80.77908 37.55078 81.43582 38.03369 82.09256 38.52794 82.7493 39.03404 83.40604 39.55234 84.06279 40.08336 84.71953 40.62639 85.37627 41.1832 86.033 41.75308 86.68974 42.33673 87.34648 42.9345 88.00322 43.5462 88.65997 44.17307 89.31671 44.81387 89.97345 45.47125 90.63019 46.14412 91.28693 46.83287 91.94366 47.53885 92.60042 48.2614 93.25716 49.00102 93.9139 49.75772 94.57063 50.5336 95.22739 51.3276 95.88412 52.14095 96.54086 52.97398 97.19762 53.82689 97.85435 54.70071 98.5111 55.59387 99.16783 56.51004 99.82455 57.44815 100.4813 58.4079 101.13805 59.39098 101.79478 60.39777 102.45152 61.42879 103.10826 62.48367 103.765 63.56436 104.42174 64.67152 105.07849 65.80536 105.73523 66.96638 106.39197 68.15477 107.0487 69.37051 107.70544 70.6178 108.36218 71.89316 109.01892 73.20074 109.67567 74.5383 110.33241 75.90881 110.98915 77.31137 111.64589 78.74863 112.30263 80.21951 112.95937 81.72647 113.61612 83.26741 114.27286 84.84775 114.9296 86.46625 115.58633 88.12134 116.24307 89.81738 116.89981 91.55492 117.55656 93.33287 118.2133 95.15422 118.87004 97.01845 119.52678 98.92746 120.18352 100.88493 120.84026 102.88527 121.497 104.93578 122.15375 107.03563 122.81049 109.18497 123.46722 111.38676 124.12396 113.641 124.7807 115.95052 125.43744 118.31247 126.0942 120.73264 126.75093 123.21275 127.40767 125.74846 128.0644 128.34813 128.72115 131.00949 129.37789 133.7336 130.03462 136.52321 130.50513 138.5711"/>
<path transform="matrix(-.99913,.04034363,.04034,.99921998,2.9271608,122.67829)" stroke-width=".79701" stroke-linecap="round" stroke-linejoin="round" fill="none" stroke="#d2ade4" d="M-1.73352 2.31136C-1.58905 1.4446 0 .14444 .43336 0 0-.14444-1.58905-1.4446-1.73352-2.31136"/>
<path transform="matrix(.22388,-.97468778,-.9746,-.22390014,132.60114,2.6467133)" stroke-width=".79701" stroke-linecap="round" stroke-linejoin="round" fill="none" stroke="#d2ade4" d="M-1.73352 2.31136C-1.58905 1.4446 0 .14444 .43336 0 0-.14444-1.58905-1.4446-1.73352-2.31136"/>
<path transform="matrix(1,0,0,-1.00009,2.0960007,141.23027)" stroke-width="1.49442" stroke-linecap="butt" stroke-miterlimit="10" stroke-linejoin="miter" fill="none" stroke="#1414cc" d="M1.14305 17.76614 .57361 17.75647 1.14725 17.76643 1.72087 17.77672 2.29451 17.78731 2.86813 17.79822 3.44176 17.80946 4.01538 17.82104 4.58902 17.83298 5.16264 17.84528 5.73628 17.85794 6.30989 17.871 6.88353 17.88445 7.45715 17.89832 8.03079 17.91258 8.60442 17.9273 9.17804 17.94246 9.75166 17.95807 10.3253 17.97415 10.89893 17.99074 11.47256 18.00781 12.04617 18.02542 12.61981 18.04355 13.19344 18.06224 13.76707 18.08148 14.3407 18.10132 14.91432 18.12175 15.48795 18.1428 16.06158 18.1645 16.63521 18.18684 17.20885 18.20988 17.78246 18.2336 18.3561 18.25804 18.92972 18.28323 19.50336 18.30919 20.07698 18.33594 20.6506 18.36348 21.22423 18.39186 21.79787 18.42111 22.37149 18.45125 22.94513 18.48228 23.51874 18.51427 24.09238 18.54724 24.66602 18.5812 25.23964 18.6162 25.81328 18.65224 26.38689 18.68938 26.96053 18.72766 27.53415 18.76707 28.10779 18.80771 28.68141 18.84956 29.25504 18.89268 29.82866 18.93713 30.4023 18.9829 30.97592 19.03008 31.54956 19.07869 32.12317 19.12875 32.69681 19.17917 33.27043 19.23337 33.84407 19.2874 34.4177 19.34491 34.99132 19.40225 35.56494 19.4615 36.13858 19.52441 36.7122 19.58714 37.28584 19.65338 37.85945 19.72136 38.43309 19.79105 39.00671 19.86252 39.58035 19.9357 40.15398 20.01256 40.7276 20.09099 41.30122 20.17097 41.87486 20.2548 42.44849 20.3402 43.02213 20.42908 43.59573 20.5197 44.16937 20.61382 44.743 20.70982 45.31664 20.80934 45.89026 20.912 46.46388 21.01831 47.0375 21.12653 47.61115 21.23982 48.18477 21.35464 48.7584 21.47333 49.33203 21.5969 49.90565 21.72237 50.4793 21.85326 51.05292 21.98763 51.62656 22.1253 52.20016 22.26822 52.7738 22.41618 53.34743 22.56622 53.92107 22.72307 54.49469 22.88339 55.06831 23.04913 55.64194 23.21992 56.21558 23.39438 56.7892 23.57562 57.36284 23.7621 57.93645 23.9538 58.51009 24.15247 59.08371 24.35637 59.65735 24.56761 60.23097 24.78352 60.8046 25.00659 61.37822 25.23682 61.95186 25.47383 62.52548 25.71799 63.09912 25.96895 63.67273 26.22879 64.24637 26.49542 64.81999 26.76921 65.39363 27.05312 65.96725 27.34433 66.54088 27.64583 67.1145 27.95622 67.68814 28.27515 68.26176 28.60452 68.8354 28.94278 69.40901 29.29324 69.98265 29.65225 70.55627 30.02347 71.12991 30.4053 71.70354 30.79916 72.27716 31.20366 72.85078 31.62192 73.42442 32.05272 73.99805 32.49556 74.57169 32.95392 75.14531 33.42445 75.71893 33.90912 76.29257 34.40945 76.8662 34.92026 77.43983 35.45074 78.01346 35.99728 78.58708 36.56036 79.1607 37.1407 79.73434 37.73882 80.30797 38.35435 80.8816 38.98943 81.45522 39.6433 82.02885 40.3167 82.60248 41.011 83.17612 41.72606 83.74974 42.46307 84.32336 43.2224 84.89699 44.00471 85.47063 44.81023 86.04425 45.64066 86.61789 46.49634 87.1915 47.37817 87.76514 48.2865 88.33876 49.2227 88.9124 50.18661 89.48602 51.17981 90.05965 52.20367 90.63327 53.25806 91.20691 54.34535 91.78053 55.46474 92.35417 56.61826 92.92778 57.80699 93.50142 59.0318 94.07504 60.29303 94.64868 61.59312 95.2223 62.93262 95.79593 64.31218 96.36955 65.73495 96.94319 67.1999 97.51682 68.70984 98.09045 70.2649 98.66406 71.86736 99.2377 73.51791 99.81134 75.21886 100.38496 76.97206 100.9586 78.77808 101.53221 80.63794 102.10585 82.55568 102.67947 84.53091 103.25311 86.56523 103.82674 88.66264 104.40036 90.82314 104.97398 93.04811 105.54762 95.34138 106.12125 97.7044 106.69489 100.14043 107.2685 102.6479 107.84213 105.23293 108.41576 107.89551 108.9894 110.63808 109.56302 113.46622 110.13664 116.37924 110.71027 119.37799 111.2839 122.4712 111.85753 125.65782 112.43117 128.93927 113.00478 132.32108 113.57841 135.80886 113.97165 138.26973"/>
<path transform="matrix(-.99985,.017031534,.01703,.99994,3.2390507,123.46251)" stroke-width="1.19553" stroke-linecap="round" stroke-linejoin="round" fill="none" stroke="#1414cc" d="M-2.18182 2.9091C-2 1.81818 0 .18181 .54544 0 0-.18181-2-1.81818-2.18182-2.9091"/>
<path transform="matrix(.15779,-.98752889,-.98744,-.1578042,116.06765,2.9481049)" stroke-width="1.19553" stroke-linecap="round" stroke-linejoin="round" fill="none" stroke="#1414cc" d="M-2.18182 2.9091C-2 1.81818 0 .18181 .54544 0 0-.18181-2-1.81818-2.18182-2.9091"/>
<path transform="matrix(1,0,0,-1.00009,2.0960007,141.23027)" stroke-width=".99628" stroke-linecap="butt" stroke-dasharray="2.98883,2.98883" stroke-miterlimit="10" stroke-linejoin="miter" fill="none" stroke="#008c0d" d="M.83179 17.65309 .55676 17.64966 1.11356 17.65685 1.67032 17.66428 2.22711 17.67194 2.78389 17.67984 3.34067 17.68802 3.89745 17.69644 4.45424 17.70515 5.01102 17.71414 5.5678 17.72343 6.12459 17.733 6.68135 17.74289 7.23814 17.75311 7.7949 17.76364 8.3517 17.77452 8.9085 17.78577 9.46526 17.79736 10.02205 17.80933 10.57883 17.82169 11.1356 17.83446 11.69238 17.84763 12.24918 17.86122 12.80594 17.87527 13.36273 17.88976 13.91951 17.90472 14.47629 17.92018 15.03308 17.93613 15.58984 17.95259 16.14664 17.96959 16.70341 17.98712 17.2602 18.00525 17.81699 18.02394 18.37376 18.04326 18.93054 18.0632 19.48732 18.08377 20.0441 18.10501 20.60088 18.12695 21.15767 18.14958 21.71445 18.17297 22.27122 18.1971 22.82802 18.22202 23.38478 18.24773 23.94157 18.27429 24.49835 18.3017 25.05513 18.32999 25.61191 18.3592 26.16869 18.38937 26.72548 18.42052 27.28226 18.45265 27.83904 18.48584 28.39581 18.52011 28.9526 18.55548 29.50937 18.592 30.06616 18.62968 30.62296 18.66861 31.17972 18.70879 31.73651 18.75026 32.29327 18.79309 32.85007 18.8373 33.40685 18.88295 33.96362 18.93005 34.52042 18.97868 35.0772 19.02892 35.63397 19.08075 36.19075 19.13426 36.74754 19.1898 37.3043 19.24557 37.8611 19.30466 38.41788 19.36583 38.97466 19.42856 39.53145 19.49304 40.08821 19.56102 40.645 19.62915 41.20178 19.70044 41.75856 19.7738 42.31534 19.85031 42.87213 19.92874 43.42891 20.00908 43.98569 20.09256 44.54248 20.17986 45.09924 20.26857 45.65604 20.36111 46.2128 20.4554 46.76959 20.55473 47.32637 20.65582 47.88315 20.76038 48.43994 20.86826 48.99672 20.97997 49.5535 21.09325 50.11028 21.21349 50.66707 21.33548 51.22383 21.46114 51.78062 21.59184 52.3374 21.72778 52.89418 21.86737 53.45097 22.0101 54.00774 22.15825 54.56453 22.31178 55.1213 22.47054 55.67809 22.63435 56.23488 22.80148 56.79166 22.97594 57.34843 23.15544 57.90521 23.34192 58.46199 23.53204 59.01877 23.73073 59.57556 23.93463 60.13234 24.14551 60.68912 24.36371 61.24591 24.58678 61.80267 24.81837 62.35947 25.05905 62.91626 25.30478 63.47302 25.56096 64.02982 25.8243 64.58658 26.096 65.14337 26.37692 65.70016 26.66623 66.25693 26.96597 66.81372 27.27463 67.3705 27.59355 67.92728 27.92136 68.48407 28.2612 69.04085 28.6134 69.59763 28.97415 70.1544 29.34885 70.71118 29.73416 71.26797 30.13327 71.82475 30.54472 72.38153 30.96838 72.93831 31.40773 73.4951 31.85928 74.05188 32.32634 74.60866 32.80927 75.16545 33.3077 75.72221 33.82198 76.279 34.35194 76.8358 34.89656 77.39256 35.4619 77.94936 36.0459 78.50613 36.64838 79.06291 37.27055 79.6197 37.91292 80.17647 38.57622 80.73326 39.2604 81.29005 39.9671 81.84682 40.6968 82.40361 41.45055 82.96039 42.2278 83.51717 43.03087 84.07396 43.86008 84.63072 44.71559 85.18752 45.59865 85.7443 46.51062 86.30107 47.45241 86.85786 48.42435 87.41464 49.42764 87.97142 50.46371 88.5282 51.53323 89.08499 52.6371 89.64177 53.77652 90.19855 54.95375 90.75533 56.16933 91.3121 57.42323 91.8689 58.71793 92.42567 60.05392 92.98245 61.4347 93.53925 62.85872 94.09601 64.32942 94.6528 65.84789 95.2096 67.41585 95.76636 69.03398 96.32315 70.70442 96.87991 72.42888 97.4367 74.21033 97.9935 76.04787 98.55026 77.94574 99.10706 79.9053 99.66383 81.92775 100.22061 84.01558 100.77739 86.17049 101.33418 88.39722 101.89096 90.69415 102.44774 93.06622 103.00452 95.5148 103.5613 98.04198 104.11809 100.65279 104.67485 103.34709 105.23164 106.12834 105.78842 108.99901 106.3452 111.96588 106.902 115.02563 107.45877 118.1856 108.01555 121.44612 108.57233 124.81259 109.1291 128.29045 109.68588 131.87982 110.24268 135.58544 110.67964 138.5871"/>
<path transform="matrix(-.99988,.012531128,.01253,.99997,2.9278007,123.575588)" stroke-width=".79701" stroke-linecap="round" stroke-linejoin="round" fill="none" stroke="#008c0d" d="M-1.73352 2.31136C-1.58905 1.4446 0 .14444 .43336 0 0-.14444-1.58905-1.4446-1.73352-2.31136"/>
<path transform="matrix(.14404,-.98960909,-.98952,-.14405297,112.77563,2.630722)" stroke-width=".79701" stroke-linecap="round" stroke-linejoin="round" fill="none" stroke="#008c0d" d="M-1.73352 2.31136C-1.58905 1.4446 0 .14444 .43336 0 0-.14444-1.58905-1.4446-1.73352-2.31136"/>
</g>
<use data-text="x" xlink:href="#font_4_2" transform="matrix(9.9626,0,0,-9.963496,146.499,120.27738)"/>
<use data-text="y" xlink:href="#font_4_3" transform="matrix(9.9626,0,0,-9.963496,82.422,9.582428)"/>
<path transform="matrix(1,0,0,-1.00009,2.0960007,141.23027)" d="M4.8067 94.761H61.79507V135.03867H4.8067Z" fill="#ffffff"/>
<path transform="matrix(1,0,0,-1.00009,2.0960007,141.23027)" stroke-width=".3985" stroke-linecap="butt" stroke-miterlimit="10" stroke-linejoin="miter" fill="none" stroke="#000000" d="M4.8067 94.761H61.79507V135.03867H4.8067Z"/>
<path transform="matrix(1,0,0,-1.00009,10.639,14.222839)" stroke-width=".99628" stroke-linecap="butt" stroke-dasharray="2.98883,2.98883" stroke-miterlimit="10" stroke-linejoin="miter" fill="none" stroke="#d2ade4" d="M.8319 0H8.50412 16.17636"/>
<path transform="matrix(-1,-0,0,1.00009,11.4709,14.222839)" stroke-width=".79701" stroke-linecap="round" stroke-linejoin="round" fill="none" stroke="#d2ade4" d="M-1.73352 2.31136C-1.58905 1.4446 0 .14444 .43336 0 0-.14444-1.58905-1.4446-1.73352-2.31136"/>
<path transform="matrix(1,0,0,-1.00009,26.81536,14.222839)" stroke-width=".79701" stroke-linecap="round" stroke-linejoin="round" fill="none" stroke="#d2ade4" d="M-1.73352 2.31136C-1.58905 1.4446 0 .14444 .43336 0 0-.14444-1.58905-1.4446-1.73352-2.31136"/>
<use data-text="y" xlink:href="#font_4_3" transform="matrix(9.9626,0,0,-9.963496,30.387001,16.785073)"/>
<use data-text="=" xlink:href="#font_2_7" transform="matrix(9.9626,0,0,-9.963496,38.397005,16.785073)"/>
<use data-text="2" xlink:href="#font_2_2" transform="matrix(9.9626,0,0,-9.963496,48.897584,16.785073)"/>
<use data-text="x" xlink:href="#font_5_1" transform="matrix(6.9738,0,0,-6.9744279,53.894006,13.168747)"/>
<path transform="matrix(1,0,0,-1.00009,10.639,26.320923)" stroke-width="1.49442" stroke-linecap="butt" stroke-miterlimit="10" stroke-linejoin="miter" fill="none" stroke="#1414cc" d="M1.14323 0H8.50412 15.86502"/>
<path transform="matrix(-1,-0,0,1.00009,11.78223,26.320923)" stroke-width="1.19553" stroke-linecap="round" stroke-linejoin="round" fill="none" stroke="#1414cc" d="M-2.18182 2.9091C-2 1.81818 0 .18181 .54544 0 0-.18181-2-1.81818-2.18182-2.9091"/>
<path transform="matrix(1,0,0,-1.00009,26.50402,26.320923)" stroke-width="1.19553" stroke-linecap="round" stroke-linejoin="round" fill="none" stroke="#1414cc" d="M-2.18182 2.9091C-2 1.81818 0 .18181 .54544 0 0-.18181-2-1.81818-2.18182-2.9091"/>
<use data-text="y" xlink:href="#font_4_3" transform="matrix(9.9626,0,0,-9.963496,30.387001,28.883156)"/>
<use data-text="=" xlink:href="#font_2_7" transform="matrix(9.9626,0,0,-9.963496,38.397005,28.883156)"/>
<use data-text="e" xlink:href="#font_4_1" transform="matrix(9.9626,0,0,-9.963496,48.913003,28.883156)"/>
<use data-text="x" xlink:href="#font_5_1" transform="matrix(6.9738,0,0,-6.9744279,53.552003,25.267838)"/>
<path transform="matrix(1,0,0,-1.00009,10.639,38.419015)" stroke-width=".99628" stroke-linecap="butt" stroke-dasharray="2.98883,2.98883" stroke-miterlimit="10" stroke-linejoin="miter" fill="none" stroke="#008c0d" d="M.8319 0H8.50412 16.17636"/>
<path transform="matrix(-1,-0,0,1.00009,11.4709,38.419015)" stroke-width=".79701" stroke-linecap="round" stroke-linejoin="round" fill="none" stroke="#008c0d" d="M-1.73352 2.31136C-1.58905 1.4446 0 .14444 .43336 0 0-.14444-1.58905-1.4446-1.73352-2.31136"/>
<path transform="matrix(1,0,0,-1.00009,26.81536,38.419015)" stroke-width=".79701" stroke-linecap="round" stroke-linejoin="round" fill="none" stroke="#008c0d" d="M-1.73352 2.31136C-1.58905 1.4446 0 .14444 .43336 0 0-.14444-1.58905-1.4446-1.73352-2.31136"/>
<use data-text="y" xlink:href="#font_4_3" transform="matrix(9.9626,0,0,-9.963496,30.387001,40.981248)"/>
<use data-text="=" xlink:href="#font_2_7" transform="matrix(9.9626,0,0,-9.963496,38.397005,40.981248)"/>
<use data-text="3" xlink:href="#font_2_3" transform="matrix(9.9626,0,0,-9.963496,48.897584,40.981248)"/>
<use data-text="x" xlink:href="#font_5_1" transform="matrix(6.9738,0,0,-6.9744279,53.894006,37.36592)"/>
</svg>
