<svg xmlns="http://www.w3.org/2000/svg" xmlns:xlink="http://www.w3.org/1999/xlink" xmlns:inkscape="http://www.inkscape.org/namespaces/inkscape" version="1.1" width="228" height="191" viewBox="0 0 228 191">
<defs>
<path id="font_1_1" d="M.6589966 .23046875C.6759949 .23046875 .69400027 .23046875 .69400027 .25045777 .69400027 .27046205 .6759949 .27046205 .6589966 .27046205H.117996219C.100997928 .27046205 .08299255 .27046205 .08299255 .25045777 .08299255 .23046875 .100997928 .23046875 .117996219 .23046875H.6589966Z"/>
<path id="font_2_3" d="M.13198853 .327713V.35173036C.13198853 .6047821 .2559967 .64100649 .30699159 .64100649 .33099366 .64100649 .37298585 .634964 .394989 .6007538 .37998963 .6007538 .33999635 .6007538 .33999635 .5557556 .33999635 .524765 .3639984 .5097656 .38598634 .5097656 .4019928 .5097656 .43199159 .51875308 .43199159 .5577545 .43199159 .6178589 .3880005 .6660156 .30499269 .6660156 .1769867 .6660156 .041992189 .5367584 .041992189 .31570436 .041992189 .048553468 .1579895-.022460938 .25099183-.022460938 .3619995-.022460938 .45700074 .07156372 .45700074 .2036438 .45700074 .33070375 .36799623 .4267578 .25698854 .4267578 .18899536 .4267578 .1519928 .37573243 .13198853 .327713M.25099183 .0055389406C.18798828 .0055389406 .1579895 .06556702 .1519928 .080566409 .13398743 .127594 .13398743 .2076416 .13398743 .22564698 .13398743 .30369569 .1659851 .40374757 .2559967 .40374757 .27198792 .40374757 .31799317 .40374757 .34899903 .34172059 .36698915 .30470277 .36698915 .2536621 .36698915 .20463562 .36698915 .15661621 .36698915 .10658264 .34999085 .0705719 .31999208 .010528564 .27398683 .0055389406 .25099183 .0055389406Z"/>
<path id="font_2_2" d="M.2939911 .16503906V.07800293C.2939911 .041992189 .2919922 .0309906 .21798706 .0309906H.19699097V0C.23799134 .0029907227 .2899933 .0029907227 .33198548 .0029907227 .37399293 .0029907227 .4269867 .0029907227 .46798707 0V.0309906H.44699098C.37298585 .0309906 .37098695 .041992189 .37098695 .07800293V.16503906H.47099305V.19602967H.37098695V.65075686C.37098695 .67074587 .37098695 .6767578 .35499574 .6767578 .34599305 .6767578 .34298707 .6767578 .33499146 .66474917L.027999878 .19602967V.16503906H.2939911M.2999878 .19602967H.055999757L.2999878 .5688019V.19602967Z"/>
<path id="font_2_1" d="M.1269989 .07699585 .23298645 .18003845C.3889923 .31811524 .44898988 .3721466 .44898988 .47216798 .44898988 .5860901 .35899354 .6660156 .23699951 .6660156 .12399292 .6660156 .049987794 .57411196 .049987794 .48516847 .049987794 .4291687 .099990848 .4291687 .102996829 .4291687 .11999512 .4291687 .15499878 .44117738 .15499878 .48217774 .15499878 .5081787 .13699341 .5341797 .101989749 .5341797 .09399414 .5341797 .09199524 .5341797 .08898926 .5331726 .11199951 .59806826 .1659851 .63500979 .22399903 .63500979 .31498719 .63500979 .35798646 .5541382 .35798646 .47216798 .35798646 .39215089 .30799867 .31311036 .25299073 .25108338L.06098938 .036987306C.049987794 .025985718 .049987794 .023986817 .049987794 0H.42099L.44898988 .17404175H.42399598C.4189911 .14402771 .4119873 .1000061 .4019928 .084991458 .394989 .07699585 .32899476 .07699585 .30699159 .07699585H.1269989Z"/>
<clipPath id="clip_3">
<path transform="matrix(1.00005,0,0,-1,2.0961457,188.964)" d="M0 .00018H224.1623V187.16695H0Z"/>
</clipPath>
<path id="font_4_1" d="M.33399964 .30233766C.33999635 .32835389 .36299134 .42037965 .43299867 .42037965 .43798829 .42037965 .46199037 .42037965 .48298646 .40734864 .45498658 .402359 .43499757 .37734986 .43499757 .35334779 .43499757 .33735658 .44599916 .31835938 .47299195 .31835938 .49499513 .31835938 .5269928 .3363495 .5269928 .37635804 .5269928 .42837525 .46798707 .4423828 .43399049 .4423828 .37599183 .4423828 .34098817 .38935853 .32899476 .36634828 .3039856 .43237306 .25 .4423828 .22099304 .4423828 .116989139 .4423828 .05999756 .3133545 .05999756 .28834535 .05999756 .27833558 .069992069 .27833558 .07199097 .27833558 .07998657 .27833558 .08299255 .28033448 .084991458 .28933717 .11898804 .39535523 .18499756 .42037965 .21899414 .42037965 .23799134 .42037965 .272995 .4113617 .272995 .35334779 .272995 .32235719 .2559967 .25532533 .21899414 .11528015 .20298767 .053268434 .16799927 .011245728 .12399292 .011245728 .117996219 .011245728 .09498596 .011245728 .07398987 .024276734 .09899902 .029266358 .12098694 .05027771 .12098694 .07827759 .12098694 .105270389 .09899902 .11328125 .083999637 .11328125 .053985597 .11328125 .0289917 .08728027 .0289917 .055267335 .0289917 .009246826 .07899475-.0107421879 .12298584-.0107421879 .18899536-.0107421879 .22499085 .059280397 .22799683 .0652771 .23999024 .028274537 .27598573-.0107421879 .33599855-.0107421879 .43899537-.0107421879 .49598695 .118270877 .49598695 .14328003 .49598695 .1532898 .4869995 .1532898 .48399354 .1532898 .47499085 .1532898 .47299195 .14929199 .47099305 .14228821 .43798829 .03527832 .36999513 .011245728 .33799745 .011245728 .29899598 .011245728 .2829895 .043273927 .2829895 .07727051 .2829895 .09927368 .2889862 .121276859 .2999878 .16529846L.33399964 .30233766Z"/>
<path id="font_4_2" d="M.48599244 .38136292C.48999024 .39537049 .48999024 .39736939 .48999024 .40437318 .48999024 .42237855 .47599793 .43138124 .46099855 .43138124 .45098878 .43138124 .43499757 .42536927 .42599488 .41036988 .42399598 .405365 .41600038 .37435914 .4119873 .35635377 .40499879 .33035279 .397995 .30334474 .3919983 .27633668L.34700013 .09628296C.34298707 .08126831 .2999878 .011245728 .23399353 .011245728 .18299866 .011245728 .17199707 .055267335 .17199707 .0922699 .17199707 .1382904 .18899536 .20030213 .22299195 .28833009 .23899842 .3293457 .24299622 .3403473 .24299622 .36035157 .24299622 .405365 .21099854 .4423828 .16099549 .4423828 .06599426 .4423828 .0289917 .29733277 .0289917 .28833009 .0289917 .27833558 .038986207 .27833558 .040985109 .27833558 .050994874 .27833558 .051986696 .28033448 .056991579 .29634095 .083999637 .3903656 .12399292 .42037965 .1579895 .42037965 .1659851 .42037965 .18299866 .42037965 .18299866 .3883667 .18299866 .36335755 .17298889 .3373413 .1659851 .31834413 .12599182 .21231079 .10798645 .1552887 .10798645 .10827637 .10798645 .019256592 .17098999-.0107421879 .22999573-.0107421879 .2689972-.0107421879 .30299378 .0062561037 .33099366 .03425598 .31799317-.017745972 .30599977-.06674194 .2659912-.11973572 .23999024-.15385437 .20199585-.18309021 .1559906-.18309021 .14199829-.18309021 .09700012-.18005371 .07998657-.14074707 .09599304-.14074707 .10899353-.14074707 .12298584-.1287384 .1329956-.11973572 .14299011-.10673523 .14299011-.08773804 .14299011-.056747438 .115997318-.052734376 .10598755-.052734376 .08299255-.052734376 .049987794-.068740848 .049987794-.11773682 .049987794-.16796875 .09399414-.20507813 .1559906-.20507813 .25898744-.20507813 .3619995-.11373901 .3899994-.00074768069L.48599244 .38136292Z"/>
</defs>
<path transform="matrix(1.00005,0,0,-1,2.0961457,188.964)" stroke-width=".3985" stroke-linecap="butt" stroke-miterlimit="10" stroke-linejoin="miter" fill="none" stroke="#404040" d="M0 .00018H224.1623V187.16695H0Z"/>
<path transform="matrix(1.00005,0,0,-1,2.0961457,188.964)" stroke-width=".3985" stroke-linecap="butt" stroke-miterlimit="10" stroke-linejoin="miter" fill="none" stroke="#cccccc" d="M14.01013 .00018V187.16695M42.03043 .00018V187.16695M70.0507 .00018V187.16695M98.071 .00018V187.16695M126.09128 .00018V187.16695M154.11157 .00018V187.16695M182.13185 .00018V187.16695M210.15215 .00018V187.16695"/>
<path transform="matrix(1.00005,0,0,-1,2.0961457,188.964)" stroke-width=".3985" stroke-linecap="butt" stroke-miterlimit="10" stroke-linejoin="miter" fill="none" stroke="#cccccc" d="M28.02028 .00018V187.16695M56.04057 .00018V187.16695M84.06085 .00018V187.16695M140.10143 .00018V187.16695M168.12172 .00018V187.16695M196.142 .00018V187.16695"/>
<path transform="matrix(1.00005,0,0,-1,2.0961457,188.964)" stroke-width=".3985" stroke-linecap="butt" stroke-miterlimit="10" stroke-linejoin="miter" fill="none" stroke="#cccccc" d="M0 11.6981H224.1623M0 35.09396H224.1623M0 58.4898H224.1623M0 81.88565H224.1623M0 105.2815H224.1623M0 128.67734H224.1623M0 152.07318H224.1623M0 175.46903H224.1623"/>
<path transform="matrix(1.00005,0,0,-1,2.0961457,188.964)" stroke-width=".3985" stroke-linecap="butt" stroke-miterlimit="10" stroke-linejoin="miter" fill="none" stroke="#cccccc" d="M0 23.39604H224.1623M0 46.79189H224.1623M0 70.18773H224.1623M0 116.97942H224.1623M0 140.37526H224.1623M0 163.7711H224.1623"/>
<path transform="matrix(1.00005,0,0,-1,2.0961457,188.964)" stroke-width=".19925" stroke-linecap="butt" stroke-miterlimit="10" stroke-linejoin="miter" fill="none" stroke="#7f807f" d="M14.01013 92.1662V95.00098M42.03043 92.1662V95.00098M70.0507 92.1662V95.00098M98.071 92.1662V95.00098M126.09128 92.1662V95.00098M154.11157 92.1662V95.00098M182.13185 92.1662V95.00098M210.15215 92.1662V95.00098"/>
<path transform="matrix(1.00005,0,0,-1,2.0961457,188.964)" stroke-width=".19925" stroke-linecap="butt" stroke-miterlimit="10" stroke-linejoin="miter" fill="none" stroke="#7f807f" d="M28.02028 91.4577V95.70944M56.04057 91.4577V95.70944M84.06085 91.4577V95.70944M140.10143 91.4577V95.70944M168.12172 91.4577V95.70944M196.142 91.4577V95.70944"/>
<path transform="matrix(1.00005,0,0,-1,2.0961457,188.964)" stroke-width=".19925" stroke-linecap="butt" stroke-miterlimit="10" stroke-linejoin="miter" fill="none" stroke="#7f807f" d="M110.66377 11.6981H113.4985M110.66377 35.09396H113.4985M110.66377 58.4898H113.4985M110.66377 81.88565H113.4985M110.66377 105.2815H113.4985M110.66377 128.67734H113.4985M110.66377 152.07318H113.4985M110.66377 175.46903H113.4985"/>
<path transform="matrix(1.00005,0,0,-1,2.0961457,188.964)" stroke-width=".19925" stroke-linecap="butt" stroke-miterlimit="10" stroke-linejoin="miter" fill="none" stroke="#7f807f" d="M109.95529 23.39604H114.20697M109.95529 46.79189H114.20697M109.95529 70.18773H114.20697M109.95529 116.97942H114.20697M109.95529 140.37526H114.20697M109.95529 163.7711H114.20697"/>
<path transform="matrix(1.00005,0,0,-1,2.0961457,188.964)" stroke-width=".3985" stroke-linecap="butt" stroke-miterlimit="10" stroke-linejoin="miter" fill="none" stroke="#000000" d="M0 93.58357H222.16976"/>
<path transform="matrix(1.00005,0,0,-1,224.277,95.38043)" d="M1.99252 0-1.19551 1.59401 0 0-1.19551-1.59401"/>
<path transform="matrix(1.00005,0,0,-1,2.0961457,188.964)" stroke-width=".3985" stroke-linecap="butt" stroke-miterlimit="10" stroke-linejoin="miter" fill="none" stroke="#000000" d="M112.08115 .00018V185.17443"/>
<path transform="matrix(0,-1,-1.00005,-0,114.18289,3.7895814)" d="M1.99252 0-1.19551 1.59401 0 0-1.19551-1.59401"/>
<use data-text="&#x2212;" xlink:href="#font_1_1" transform="matrix(9.963098,0,0,-9.9626,23.752228,107.44701)"/>
<use data-text="6" xlink:href="#font_2_3" transform="matrix(9.963098,0,0,-9.9626,31.501618,107.44701)"/>
<use data-text="&#x2212;" xlink:href="#font_1_1" transform="matrix(9.963098,0,0,-9.9626,51.773626,107.44701)"/>
<use data-text="4" xlink:href="#font_2_2" transform="matrix(9.963098,0,0,-9.9626,59.523015,107.44701)"/>
<use data-text="&#x2212;" xlink:href="#font_1_1" transform="matrix(9.963098,0,0,-9.9626,79.79603,107.44701)"/>
<use data-text="2" xlink:href="#font_2_1" transform="matrix(9.963098,0,0,-9.9626,87.54542,107.44701)"/>
<use data-text="2" xlink:href="#font_2_1" transform="matrix(9.963098,0,0,-9.9626,139.714,107.44701)"/>
<use data-text="4" xlink:href="#font_2_2" transform="matrix(9.963098,0,0,-9.9626,167.73542,107.44701)"/>
<use data-text="6" xlink:href="#font_2_3" transform="matrix(9.963098,0,0,-9.9626,195.75682,107.44701)"/>
<use data-text="&#x2212;" xlink:href="#font_1_1" transform="matrix(9.963098,0,0,-9.9626,95.805828,168.363)"/>
<use data-text="6" xlink:href="#font_2_3" transform="matrix(9.963098,0,0,-9.9626,103.555217,168.363)"/>
<use data-text="&#x2212;" xlink:href="#font_1_1" transform="matrix(9.963098,0,0,-9.9626,95.805828,144.96701)"/>
<use data-text="4" xlink:href="#font_2_2" transform="matrix(9.963098,0,0,-9.9626,103.555217,144.96701)"/>
<use data-text="&#x2212;" xlink:href="#font_1_1" transform="matrix(9.963098,0,0,-9.9626,95.805828,121.57101)"/>
<use data-text="2" xlink:href="#font_2_1" transform="matrix(9.963098,0,0,-9.9626,103.555217,121.57101)"/>
<use data-text="2" xlink:href="#font_2_1" transform="matrix(9.963098,0,0,-9.9626,103.555217,75.19501)"/>
<use data-text="4" xlink:href="#font_2_2" transform="matrix(9.963098,0,0,-9.9626,103.555217,51.79901)"/>
<use data-text="6" xlink:href="#font_2_3" transform="matrix(9.963098,0,0,-9.9626,103.555217,28.403)"/>
<g clip-path="url(#clip_3)">
<path transform="matrix(1.00005,0,0,-1,2.0961457,188.964)" stroke-width="1.49442" stroke-linecap="butt" stroke-miterlimit="10" stroke-linejoin="miter" fill="none" stroke="#1414cc" d="M1.30566 67.0157 .17555 66.38655 .35112 66.48427 .52669 66.58199 .70226 66.67972 .87782 66.77744 1.05338 66.87517 1.22894 66.9729 1.40451 67.07062 1.58008 67.16833 1.75565 67.26607 1.93121 67.3638 2.10677 67.46152 2.28233 67.55923 2.4579 67.65698 2.63347 67.7547 2.80904 67.85243 2.9846 67.95016 3.16016 68.04788 3.33572 68.1456 3.51129 68.24333 3.68686 68.34106 3.86243 68.43878 4.038 68.53651 4.21355 68.63423 4.38911 68.73195 4.56468 68.82968 4.74025 68.9274 4.91582 69.02513 5.09138 69.12285 5.26694 69.2206 5.4425 69.31831 5.61807 69.41603 5.79364 69.51376 5.96921 69.61148 6.14476 69.70921 6.32033 69.80693 6.4959 69.90466 6.67146 70.00238 6.84703 70.10011 7.0226 70.19783 7.19815 70.29555 7.37372 70.39328 7.54929 70.491 7.72485 70.58873 7.90042 70.68646 8.07599 70.7842 8.25154 70.88193 8.42711 70.97964 8.60268 71.07736 8.77824 71.1751 8.95381 71.27281 9.12938 71.37054 9.30493 71.46828 9.4805 71.566 9.65607 71.66371 9.83163 71.76144 10.0072 71.85918 10.18277 71.9569 10.35832 72.05463 10.53389 72.15236 10.70946 72.25008 10.88503 72.34781 11.0606 72.44554 11.23616 72.54326 11.41171 72.64098 11.58728 72.73871 11.76285 72.83644 11.93842 72.93416 12.11398 73.03189 12.28954 73.12961 12.4651 73.22733 12.64067 73.32506 12.81624 73.42279 12.9918 73.52051 13.16737 73.61824 13.34293 73.71597 13.5185 73.8137 13.69406 73.91142 13.86963 74.00914 14.0452 74.10687 14.22076 74.20459 14.39632 74.30232 14.57188 74.40004 14.74745 74.49777 14.92302 74.59549 15.09859 74.69322 15.27415 74.79094 15.4497 74.88866 15.62527 74.98639 15.80084 75.08412 15.97641 75.18185 16.15198 75.27957 16.32755 75.3773 16.5031 75.47502 16.67867 75.57274 16.85423 75.67047 17.0298 75.76819 17.20537 75.86592 17.38092 75.96365 17.55649 76.06137 17.73206 76.15909 17.90762 76.25682 18.08319 76.35455 18.25876 76.45227 18.43431 76.55 18.60988 76.64774 18.78545 76.74545 18.96101 76.84319 19.13658 76.94092 19.31215 77.03864 19.4877 77.13635 19.66327 77.23409 19.83884 77.33182 20.0144 77.42953 20.18997 77.52727 20.36554 77.62498 20.54109 77.7227 20.71666 77.82043 20.89223 77.91817 21.0678 78.01588 21.24336 78.11363 21.41893 78.21135 21.59448 78.30907 21.77005 78.4068 21.94562 78.50452 22.12119 78.60225 22.29675 78.69997 22.47232 78.7977 22.64787 78.89543 22.82344 78.99315 22.99901 79.09087 23.17458 79.1886 23.35014 79.28632 23.5257 79.38405 23.70126 79.48177 23.87683 79.57951 24.0524 79.67723 24.22797 79.77496 24.40353 79.87268 24.57909 79.97041 24.75465 80.06813 24.93022 80.16585 25.10579 80.26358 25.28136 80.3613 25.45692 80.45903 25.63248 80.55675 25.80804 80.65448 25.98361 80.7522 26.15918 80.84993 26.33475 80.94765 26.51031 81.0454 26.68587 81.14311 26.86143 81.24083 27.037 81.33856 27.21257 81.4363 27.38814 81.53401 27.5637 81.63173 27.73926 81.72946 27.91483 81.82718 28.0904 81.92491 28.26596 82.02264 28.44153 82.12036 28.61708 82.21808 28.79265 82.31581 28.96822 82.41354 29.14378 82.51128 29.31935 82.609 29.49492 82.70673 29.67047 82.80444 29.84604 82.90218 30.0216 82.99991 30.19717 83.09763 30.37274 83.19534 30.54831 83.29308 30.72386 83.39081 30.89943 83.48853 31.075 83.58626 31.25056 83.68398 31.42613 83.7817 31.6017 83.87943 31.77725 83.97716 31.95282 84.07489 32.12839 84.1726 32.30396 84.27034 32.47952 84.36807 32.65509 84.46579 32.83064 84.56352 33.00621 84.66124 33.18178 84.75896 33.35735 84.85669 33.53291 84.95442 33.70848 85.05214 33.88403 85.14986 34.0596 85.24759 34.23517 85.3453 34.41074 85.44304 34.5863 85.54079 34.76186 85.6385 34.93742 85.73622 35.11299 85.83395 35.28856 85.93167 35.46413 86.0294 35.6397 86.12712 35.81525 86.22484 35.99081 86.32257 36.16638 86.42029 36.34195 86.518 36.51752 86.61574 36.69308 86.71346 36.86864 86.81119 37.0442 86.90892 37.21977 87.00665 37.39534 87.10439 37.5709 87.2021 37.74648 87.29982 37.92203 87.39755 38.0976 87.49529 38.27316 87.593 38.44873 87.69072 38.6243 87.78845 38.79987 87.88618 38.97542 87.9839 39.15099 88.08163 39.32655 88.17935 39.50212 88.27707 39.67769 88.3748 39.85324 88.47255 40.02881 88.57027 40.20438 88.66798 40.37994 88.76572 40.55551 88.86345 40.73108 88.96117 40.90663 89.0589 41.0822 89.15662 41.25777 89.25433 41.43333 89.35207 41.6089 89.4498 41.78447 89.54752 41.96002 89.64523 42.13559 89.74297 42.31116 89.84068 42.48672 89.93843 42.6623 90.03616 42.83786 90.13388 43.01341 90.2316 43.18898 90.32933 43.36455 90.42706 43.54012 90.52478 43.71568 90.6225 43.89125 90.72023 44.0668 90.81795 44.24237 90.91568 44.41794 91.01341 44.5935 91.11113 44.76907 91.20885 44.94464 91.30658 45.1202 91.40431 45.29576 91.50204 45.47133 91.59976 45.6469 91.6975 45.82246 91.79521 45.99802 91.89293 46.17358 91.99066 46.34915 92.08838 46.52472 92.18611 46.70029 92.28383 46.87585 92.38156 47.0514 92.47928 47.22697 92.57701 47.40254 92.67473 47.57811 92.77245 47.75368 92.87018 47.92924 92.96793 48.1048 93.06564 48.28036 93.16336 48.45593 93.2611 48.6315 93.35881 48.80707 93.45654 48.98264 93.55428 49.15819 93.652 49.33376 93.74971 49.50932 93.84744 49.68489 93.94518 49.86046 94.0429 50.03603 94.14063 50.21158 94.23834 50.38715 94.33606 50.56271 94.4338 50.73828 94.53152 50.91385 94.62926 51.0894 94.72697 51.26497 94.8247 51.44054 94.92244 51.6161 95.02016 51.79167 95.11789 51.96724 95.2156 52.14279 95.31332 52.31836 95.41106 52.49393 95.50879 52.6695 95.6065 52.84506 95.70422 53.02063 95.80196 53.19618 95.8997 53.37175 95.99742 53.54732 96.09515 53.72289 96.19287 53.89845 96.29059 54.07402 96.38832 54.24957 96.48605 54.42514 96.58377 54.60071 96.68149 54.77628 96.77922 54.95184 96.87694 55.12741 96.97467 55.30296 97.07239 55.47853 97.17012 55.6541 97.26784 55.82967 97.36557 56.00523 97.4633 56.1808 97.56102 56.35635 97.65875 56.53192 97.75647 56.70749 97.8542 56.88306 97.95192 57.05862 98.04965 57.23418 98.14737 57.40974 98.2451 57.58531 98.34282 57.76088 98.44055 57.93645 98.53827 58.11201 98.636 58.28757 98.73372 58.46313 98.83147 58.6387 98.92918 58.81427 99.02692 58.98984 99.12463 59.1654 99.22237 59.34096 99.32008 59.51653 99.41782 59.6921 99.51553 59.86766 99.61327 60.04323 99.71098 60.2188 99.80872 60.39435 99.90643 60.56992 100.00417 60.74548 100.10188 60.92105 100.19962 61.09662 100.29733 61.27219 100.39507 61.44774 100.4928 61.6233 100.59052 61.79887 100.68825 61.97444 100.78596 62.15001 100.8837 62.32556 100.98141 62.50113 101.07915 62.6767 101.17686 62.85226 101.2746 63.02783 101.37231 63.2034 101.47005 63.37895 101.56776 63.55452 101.6655 63.73009 101.76321 63.90565 101.86096 64.08122 101.95868 64.25679 102.05641 64.43234 102.15413 64.60791 102.25186 64.78348 102.34958 64.95905 102.44731 65.13461 102.54503 65.31018 102.64276 65.48573 102.74048 65.6613 102.83821 65.83687 102.93593 66.01244 103.03366 66.188 103.13138 66.36357 103.22911 66.53912 103.32684 66.71469 103.42458 66.89026 103.5223 67.06583 103.62001 67.2414 103.71774 67.41696 103.81546 67.59251 103.9132 67.76808 104.01091 67.94365 104.10864 68.11922 104.20636 68.29478 104.3041 68.47034 104.40181 68.6459 104.49954 68.82147 104.59726 68.99704 104.69499 69.1726 104.79272 69.34818 104.89046 69.52373 104.98817 69.6993 105.0859 69.87486 105.18362 70.05043 105.28136"/>
<path transform="matrix(-.87374368,.4864,.4864243,.8737,2.7490082,122.31174)" stroke-width="1.49442" stroke-linecap="round" stroke-linejoin="round" fill="none" stroke="#1414cc" d="M-3.38733 4.37073C-2.76846 1.74825-1.38942 .50992 0 0-1.38942-.50992-2.76846-1.74825-3.38733-4.37073"/>
<path transform="matrix(1.00005,0,0,-1,2.0961457,188.964)" d="M70.0507 105.2815" fill="#1414cc"/>
<path transform="matrix(1.00005,0,0,-1,2.0961457,188.964)" stroke-width=".99628" stroke-linecap="butt" stroke-miterlimit="10" stroke-linejoin="miter" fill="none" stroke="#1414cc" d="M70.0507 105.2815"/>
<path transform="matrix(1.00005,0,0,-1,2.0961457,188.964)" d="M70.0507 46.79189" fill="#ffffff"/>
<path transform="matrix(1.00005,0,0,-1,2.0961457,188.964)" stroke-width=".99628" stroke-linecap="butt" stroke-miterlimit="10" stroke-linejoin="miter" fill="none" stroke="#1414cc" d="M70.0507 46.79189"/>
<path transform="matrix(1.00005,0,0,-1,2.0961457,188.964)" stroke-width="1.49442" stroke-linecap="butt" stroke-miterlimit="10" stroke-linejoin="miter" fill="none" stroke="#1414cc" d="M70.0507 46.79189H70.19115 70.33159 70.47205 70.6125 70.75294 70.8934 71.03384 71.1743 71.31476 71.4552 71.59566 71.7361 71.87654 72.017 72.15744 72.2979 72.43834 72.5788 72.71925 72.8597 73.00015 73.1406 73.28105 73.42151 73.56195 73.7024 73.84285 73.98329 74.12375 74.26419 74.40465 74.5451 74.68555 74.826 74.96645 75.1069 75.24736 75.3878 75.52824 75.66869 75.80914 75.9496 76.09004 76.2305 76.37094 76.5114 76.65186 76.7923 76.93275 77.0732 77.21365 77.3541 77.49454 77.635 77.77544 77.9159 78.05635 78.1968 78.33725 78.47769 78.61815 78.7586 78.89905 79.0395 79.17993 79.32039 79.46085 79.60129 79.74174 79.88219 80.02264 80.1631 80.30354 80.444 80.58444 80.7249 80.86534 81.00578 81.14624 81.28668 81.42714 81.5676 81.70804 81.8485 81.98894 82.1294 82.26985 82.4103 82.55075 82.69118 82.83163 82.97209 83.11253 83.25299 83.39343 83.53389 83.67435 83.81479 83.95525 84.09569 84.23615 84.3766 84.51703 84.65749 84.79793 84.93839 85.07884 85.21928 85.35974 85.50018 85.64064 85.7811 85.92154 86.062 86.20244 86.34288 86.48334 86.62378 86.76424 86.9047 87.04514 87.1856 87.32603 87.46649 87.60695 87.74739 87.88785 88.02829 88.16873 88.30919 88.44963 88.59009 88.73053 88.87099 89.01144 89.15189 89.29234 89.43279 89.57324 89.7137 89.85413 89.99458 90.13503 90.27548 90.41594 90.55638 90.69684 90.83728 90.97774 91.1182 91.25864 91.3991 91.53954 91.67998 91.82043 91.96088 92.10133 92.24178 92.38223 92.52269 92.66313 92.80359 92.94403 93.08449 93.22495 93.36539 93.50583 93.64627 93.78673 93.92719 94.06763 94.20808 94.34853 94.48898 94.62944 94.76988 94.91034 95.05078 95.19124 95.33168 95.47212 95.61258 95.75302 95.89348 96.03394 96.17438 96.31483 96.45528 96.59573 96.73619 96.87663 97.01709 97.15752 97.29797 97.43843 97.57887 97.71933 97.85977 98.00023 98.14069 98.28113 98.42159 98.56203 98.70248 98.84294 98.98338 99.12383 99.26428 99.40472 99.54518 99.68562 99.82608 99.96654 100.10698 100.24744 100.38788 100.52834 100.6688 100.80923 100.94969 101.09013 101.23058 101.37105 101.51147 101.65193 101.79237 101.93283 102.07329 102.21373 102.35419 102.49463 102.63509 102.77554 102.91599 103.05644 103.19688 103.33734 103.47778 103.61823 103.75868 103.89912 104.03958 104.18004 104.32048 104.46094 104.60138 104.74184 104.8823 105.02274 105.1632 105.30363 105.44409 105.58453 105.72499 105.86543 106.00587 106.14633 106.28679 106.42723 106.56769 106.70813 106.84859 106.98904 107.12949 107.26994 107.41039 107.55084 107.6913 107.83173 107.97218 108.11263 108.25308 108.39354 108.53398 108.67444 108.81488 108.95534 109.0958 109.23624 109.3767 109.51714 109.6576 109.79805 109.93849 110.07895 110.21938 110.35983 110.50029 110.64073 110.78119 110.92163 111.06209 111.20255 111.34299 111.48344 111.62389 111.76434 111.9048 112.04524 112.1857 112.32614 112.46658 112.60706 112.74748 112.88794 113.0284 113.16884 113.3093 113.44974 113.5902 113.73065 113.8711 114.01155 114.152 114.29245 114.4329 114.57335 114.7138 114.85425 114.99469 115.13515 115.27559 115.41605 115.55649 115.69695 115.8374 115.97784 116.1183 116.25874 116.3992 116.53966 116.6801 116.82056 116.961 117.10144 117.2419 117.38234 117.5228 117.66324 117.8037 117.94415 118.0846 118.22505 118.3655 118.50595 118.64641 118.78685 118.9273 119.06775 119.2082 119.34865 119.48909 119.62955 119.76999 119.91045 120.0509 120.19135 120.3318 120.47224 120.6127 120.75316 120.8936 121.03406 121.1745 121.31496 121.4554 121.59584 121.7363 121.87674 122.0172 122.15765 122.2981 122.43855 122.579 122.71945 122.85991 123.00035 123.14081 123.28125 123.4217 123.56216 123.70259 123.84305 123.98349 124.12395 124.2644 124.40485 124.5453 124.68575 124.8262 124.96666 125.1071 125.24756 125.388 125.52846 125.66891 125.80936 125.94981 126.09026"/>
<path transform="matrix(1.00005,0,0,-1,2.0961457,188.964)" d="M126.09128 46.79189" fill="#ffffff"/>
<path transform="matrix(1.00005,0,0,-1,2.0961457,188.964)" stroke-width=".99628" stroke-linecap="butt" stroke-miterlimit="10" stroke-linejoin="miter" fill="none" stroke="#1414cc" d="M126.09128 46.79189"/>
<path transform="matrix(1.00005,0,0,-1,2.0961457,188.964)" d="M140.10143 128.67734" fill="#1414cc"/>
<path transform="matrix(1.00005,0,0,-1,2.0961457,188.964)" stroke-width=".99628" stroke-linecap="butt" stroke-miterlimit="10" stroke-linejoin="miter" fill="none" stroke="#1414cc" d="M140.10143 128.67734"/>
<path transform="matrix(1.00005,0,0,-1,2.0961457,188.964)" stroke-width="1.49442" stroke-linecap="butt" stroke-miterlimit="10" stroke-linejoin="miter" fill="none" stroke="#1414cc" d="M140.10143 128.67734 140.29454 128.35485 140.48766 128.03235 140.68079 127.70984 140.87392 127.38734 141.06703 127.06485 141.26015 126.74236 141.45328 126.41985 141.64641 126.09735 141.83953 125.77484 142.03264 125.45235 142.22577 125.12985 142.41889 124.80734 142.61202 124.48485 142.80513 124.16235 142.99826 123.83986 143.19138 123.51735 143.3845 123.19485 143.57764 122.87236 143.77074 122.54985 143.96387 122.22736 144.157 121.90486 144.35012 121.58235 144.54323 121.25986 144.73636 120.93736 144.92949 120.61484 145.1226 120.29234 145.31574 119.96985 145.50885 119.64734 145.70197 119.32484 145.8951 119.00235 146.08823 118.67984 146.28134 118.35735 146.47446 118.03485 146.66759 117.71234 146.86072 117.38985 147.05384 117.06735 147.24695 116.74484 147.44008 116.42235 147.6332 116.09985 147.82633 115.77734 148.01946 115.45485 148.21256 115.13235 148.40569 114.80986 148.59882 114.48735 148.79195 114.16486 148.98505 113.84236 149.17818 113.51985 149.3713 113.19736 149.56443 112.87486 149.75756 112.55235 149.95067 112.22986 150.1438 111.90736 150.33692 111.58485 150.53005 111.26236 150.72316 110.93987 150.91628 110.61736 151.1094 110.29486 151.30254 109.97237 151.49565 109.64986 151.68877 109.32736 151.8819 109.00487 152.07503 108.68236 152.26815 108.35986 152.46128 108.03737 152.65439 107.71486 152.8475 107.39236 153.04064 107.06987 153.23377 106.74736 153.42687 106.42487 153.62 106.10237 153.81313 105.77986 154.00626 105.45737 154.19937 105.13489 154.39249 104.81238 154.58562 104.48987 154.77873 104.16736 154.97187 103.84486 155.16498 103.52238 155.3581 103.19987 155.55123 102.87738 155.74436 102.55487 155.93749 102.23236 156.13059 101.9099 156.32372 101.58739 156.51685 101.26488 156.70996 100.94237 156.90308 100.61986 157.0962 100.29738 157.28932 99.97487 157.48246 99.65236 157.67559 99.32986 157.8687 99.00735 158.06182 98.68488 158.25495 98.36238 158.44808 98.03987 158.64119 97.71736 158.8343 97.39485 159.02744 97.07239 159.22055 96.74988 159.41368 96.42737 159.6068 96.10486 159.79993 95.78236 159.99304 95.45988 160.18618 95.13737 160.3793 94.81488 160.5724 94.49237 160.76554 94.16986 160.95867 93.84738 161.1518 93.52489 161.3449 93.20238 161.53803 92.87987 161.73116 92.55736 161.92427 92.2349 162.1174 91.91238 162.31052 91.58987 162.50363 91.26738 162.69676 90.94487 162.8899 90.62239 163.08301 90.29988 163.27613 89.97739 163.46926 89.65488 163.66239 89.33237 163.8555 89.0099 164.04862 88.6874 164.24175 88.36488 164.43486 88.04237 164.62799 87.71986 164.82112 87.3974 165.01424 87.07489 165.20735 86.75238 165.40048 86.42989 165.59362 86.10738 165.78672 85.7849 165.97985 85.4624 166.17298 85.1399 166.36609 84.81738 166.55922 84.49487 166.75234 84.17241 166.94547 83.8499 167.13858 83.52739 167.33171 83.20488 167.52483 82.88239 167.71794 82.5599 167.91107 82.2374 168.1042 81.9149 168.29732 81.59239 168.49044 81.26988 168.68357 80.94742 168.8767 80.62491 169.06981 80.30238 169.26293 79.97987 169.45606 79.65736 169.64917 79.3349 169.8423 79.01239 170.03543 78.68988 170.22855 78.36739 170.42166 78.04488 170.61479 77.7224 170.80792 77.3999 171.00104 77.0774 171.19416 76.75488 171.38729 76.43237 171.5804 76.10991 171.77353 75.7874 171.96665 75.46489 172.15978 75.14238 172.35289 74.81989 172.54602 74.4974 172.73915 74.1749 172.93225 73.8524 173.12538 73.52989 173.31851 73.20738 173.51163 72.88492 173.70475 72.56241 173.89788 72.2399 174.091 71.91739 174.28412 71.59488 174.47725 71.27242 174.67037 70.9499 174.86348 70.6274 175.05661 70.3049 175.24974 69.98239 175.44284 69.65991 175.63597 69.33742 175.8291 69.01491 176.02223 68.6924 176.21535 68.36989 176.40847 68.04742 176.6016 67.72491 176.79471 67.4024 176.98784 67.0799 177.18097 66.7574 177.37407 66.43492 177.5672 66.11241 177.76033 65.78992 177.95346 65.4674 178.14656 65.1449 178.33969 64.82242 178.53282 64.49992 178.72594 64.17741 178.91907 63.8549 179.11219 63.5324 179.30532 63.20993 179.49843 62.88742 179.69156 62.56491 179.88468 62.24242 180.07779 61.9199 180.27092 61.59743 180.46405 61.27492 180.65717 60.95242 180.85028 60.62991 181.04341 60.3074 181.23654 59.98492 181.42966 59.66241 181.62277 59.3399 181.8159 59.0174 182.00902 58.69489 182.20215 58.37242 182.39528 58.04991 182.58838 57.7274 182.78151 57.4049 182.97464 57.0824 183.16777 56.75992 183.36089 56.43742 183.554 56.11491 183.74713 55.7924 183.94025 55.4699 184.13338 55.14743 184.32649 54.82492 184.5196 54.50241 184.71274 54.1799 184.90587 53.8574 185.099 53.53493 185.2921 53.21242 185.48523 52.88992 185.67836 52.56741 185.87148 52.2449 186.06459 51.92244 186.25772 51.59993 186.45084 51.27742 186.64397 50.95491 186.8371 50.6324 187.03022 50.30994 187.22333 49.98743 187.41646 49.66492 187.60959 49.34242 187.80269 49.01991 187.99582 48.69743 188.18895 48.37494 188.38207 48.05243 188.5752 47.72992 188.76831 47.40741 188.96144 47.08495 189.15456 46.76244 189.34769 46.43993 189.54082 46.11742 189.73392 45.79492 189.92705 45.47244 190.12018 45.14993 190.31331 44.82744 190.50641 44.50493 190.69954 44.18242 190.89267 43.85995 191.08579 43.53745 191.27892 43.21494 191.47203 42.89243 191.66515 42.56992 191.85828 42.24745 192.0514 41.92494 192.24452 41.60243 192.43764 41.27994 192.63077 40.95743 192.8239 40.63495 193.01702 40.31245 193.21013 39.98993 193.40326 39.66742 193.59638 39.34491 193.7895 39.02245 193.98262 38.69994 194.17575 38.37743 194.36887 38.05492 194.562 37.73242 194.75513 37.40994 194.94823 37.08743 195.14136 36.76494 195.33449 36.44243 195.5276 36.11992 195.72074 35.79744 195.91385 35.47495 196.10698 35.15244 196.3001 34.82993 196.49323 34.50742 196.68634 34.18495 196.87946 33.86244 197.07259 33.53993 197.26572 33.21744 197.45883 32.89493 197.65195 32.57245 197.84508 32.24994 198.03821 31.92744 198.23133 31.60493 198.42444 31.28242 198.61757 30.95996 198.81069 30.63745 199.00382 30.31494 199.19695 29.99243 199.39006 29.66992 199.58318 29.34746 199.7763 29.02495 199.96944 28.70244 200.16254 28.37994 200.35567 28.05743 200.5488 27.73495 200.74192 27.41246 200.93505 27.08995 201.12816 26.76744 201.32129 26.44493 201.5144 26.12247 201.70754 25.79996 201.90067 25.47745 202.09377 25.15494 202.2869 24.83244 202.48003 24.50996 202.67314 24.18745 202.86626 23.86496 203.05939 23.54245 203.25252 23.21994 203.44564 22.89748 203.63877 22.57497 203.83188 22.25246 204.025 21.92995 204.21813 21.60744 204.41126 21.28497 204.60436 20.96246 204.79749 20.63995 204.99062 20.31746 205.18375 19.99495 205.37686 19.67245 205.56998 19.34996 205.7631 19.02745 205.95623 18.70494 206.14936 18.38243 206.34247 18.05997 206.53559 17.73746 206.72872 17.41495 206.92185 17.09244 207.11498 16.76994 207.30808 16.44746 207.5012 16.12495 207.69434 15.80246 207.88745 15.47995 208.08058 15.15744 208.2737 14.83498 208.46683 14.51247 208.65995 14.18996 208.85308 13.86745 209.04619 13.54494 209.2393 13.22247 209.43244 12.89996 209.62557 12.57745 209.81868 12.25496 210.0118 11.93245 210.20493 11.60997 210.39806 11.28748 210.59117 10.96497 210.78429 10.64246 210.97742 10.31995 211.17053 9.99747 211.36367 9.67497 211.5568 9.35246 211.7499 9.02997 211.94303 8.70746 212.13616 8.38498 212.32929 8.06247 212.52239 7.73996 212.71552 7.41747 212.90865 7.09496 213.10176 6.77248 213.29489 6.44998 213.488 6.12747 213.68112 5.80496 213.87425 5.48245 214.06739 5.15999 214.26052 4.83748 214.45362 4.51498 214.64675 4.19247 214.83988 3.86995 215.03299 3.54749 215.2261 3.22498 215.41924 2.90248 215.61235 2.57997 215.80548 2.25746 215.99861 1.935 216.19173 1.61249 216.38484 1.28998 216.57798 .96747 216.7711 .64497 216.9642 .3225 216.38959 1.28207"/>
<path transform="matrix(.5137757,.85791,.85795286,-.51375,218.88045,188.32297)" stroke-width="1.49442" stroke-linecap="round" stroke-linejoin="round" fill="none" stroke="#1414cc" d="M-3.38733 4.37073C-2.76846 1.74825-1.38942 .50992 0 0-1.38942-.50992-2.76846-1.74825-3.38733-4.37073"/>
</g>
<path transform="matrix(1.00005,0,0,-1,2.0961457,188.964)" d="M72.04326 105.2815C72.04326 106.38196 71.15118 107.27405 70.0507 107.27405 68.95024 107.27405 68.05815 106.38196 68.05815 105.2815 68.05815 104.18102 68.95024 103.28894 70.0507 103.28894 71.15118 103.28894 72.04326 104.18102 72.04326 105.2815ZM70.0507 105.2815" fill="#1414cc"/>
<path transform="matrix(1.00005,0,0,-1,2.0961457,188.964)" stroke-width=".99628" stroke-linecap="butt" stroke-miterlimit="10" stroke-linejoin="miter" fill="none" stroke="#1414cc" d="M72.04326 105.2815C72.04326 106.38196 71.15118 107.27405 70.0507 107.27405 68.95024 107.27405 68.05815 106.38196 68.05815 105.2815 68.05815 104.18102 68.95024 103.28894 70.0507 103.28894 71.15118 103.28894 72.04326 104.18102 72.04326 105.2815ZM70.0507 105.2815"/>
<path transform="matrix(1.00005,0,0,-1,2.0961457,188.964)" d="" fill="#1414cc"/>
<path transform="matrix(1.00005,0,0,-1,2.0961457,188.964)" stroke-width=".99628" stroke-linecap="butt" stroke-miterlimit="10" stroke-linejoin="miter" fill="none" stroke="#1414cc" d=""/>
<path transform="matrix(1.00005,0,0,-1,2.0961457,188.964)" d="M72.04326 46.79189C72.04326 47.89235 71.15118 48.78444 70.0507 48.78444 68.95024 48.78444 68.05815 47.89235 68.05815 46.79189 68.05815 45.6914 68.95024 44.79933 70.0507 44.79933 71.15118 44.79933 72.04326 45.6914 72.04326 46.79189ZM70.0507 46.79189" fill="#ffffff"/>
<path transform="matrix(1.00005,0,0,-1,2.0961457,188.964)" stroke-width=".99628" stroke-linecap="butt" stroke-miterlimit="10" stroke-linejoin="miter" fill="none" stroke="#1414cc" d="M72.04326 46.79189C72.04326 47.89235 71.15118 48.78444 70.0507 48.78444 68.95024 48.78444 68.05815 47.89235 68.05815 46.79189 68.05815 45.6914 68.95024 44.79933 70.0507 44.79933 71.15118 44.79933 72.04326 45.6914 72.04326 46.79189ZM70.0507 46.79189"/>
<path transform="matrix(1.00005,0,0,-1,2.0961457,188.964)" d="" fill="#ffffff"/>
<path transform="matrix(1.00005,0,0,-1,2.0961457,188.964)" stroke-width=".99628" stroke-linecap="butt" stroke-miterlimit="10" stroke-linejoin="miter" fill="none" stroke="#1414cc" d=""/>
<path transform="matrix(1.00005,0,0,-1,2.0961457,188.964)" d="M128.08383 46.79189C128.08383 47.89235 127.19176 48.78444 126.09128 48.78444 124.99081 48.78444 124.09872 47.89235 124.09872 46.79189 124.09872 45.6914 124.99081 44.79933 126.09128 44.79933 127.19176 44.79933 128.08383 45.6914 128.08383 46.79189ZM126.09128 46.79189" fill="#ffffff"/>
<path transform="matrix(1.00005,0,0,-1,2.0961457,188.964)" stroke-width=".99628" stroke-linecap="butt" stroke-miterlimit="10" stroke-linejoin="miter" fill="none" stroke="#1414cc" d="M128.08383 46.79189C128.08383 47.89235 127.19176 48.78444 126.09128 48.78444 124.99081 48.78444 124.09872 47.89235 124.09872 46.79189 124.09872 45.6914 124.99081 44.79933 126.09128 44.79933 127.19176 44.79933 128.08383 45.6914 128.08383 46.79189ZM126.09128 46.79189"/>
<path transform="matrix(1.00005,0,0,-1,2.0961457,188.964)" d="" fill="#ffffff"/>
<path transform="matrix(1.00005,0,0,-1,2.0961457,188.964)" stroke-width=".99628" stroke-linecap="butt" stroke-miterlimit="10" stroke-linejoin="miter" fill="none" stroke="#1414cc" d=""/>
<path transform="matrix(1.00005,0,0,-1,2.0961457,188.964)" d="M142.09398 128.67734C142.09398 129.7778 141.20189 130.66989 140.10143 130.66989 139.00096 130.66989 138.10887 129.7778 138.10887 128.67734 138.10887 127.57686 139.00096 126.68478 140.10143 126.68478 141.20189 126.68478 142.09398 127.57686 142.09398 128.67734ZM140.10143 128.67734" fill="#1414cc"/>
<path transform="matrix(1.00005,0,0,-1,2.0961457,188.964)" stroke-width=".99628" stroke-linecap="butt" stroke-miterlimit="10" stroke-linejoin="miter" fill="none" stroke="#1414cc" d="M142.09398 128.67734C142.09398 129.7778 141.20189 130.66989 140.10143 130.66989 139.00096 130.66989 138.10887 129.7778 138.10887 128.67734 138.10887 127.57686 139.00096 126.68478 140.10143 126.68478 141.20189 126.68478 142.09398 127.57686 142.09398 128.67734ZM140.10143 128.67734"/>
<path transform="matrix(1.00005,0,0,-1,2.0961457,188.964)" d="" fill="#1414cc"/>
<path transform="matrix(1.00005,0,0,-1,2.0961457,188.964)" stroke-width=".99628" stroke-linecap="butt" stroke-miterlimit="10" stroke-linejoin="miter" fill="none" stroke="#1414cc" d=""/>
<use data-text="x" xlink:href="#font_4_1" transform="matrix(9.963098,0,0,-9.9626,217.10889,91.839008)"/>
<use data-text="y" xlink:href="#font_4_2" transform="matrix(9.963098,0,0,-9.9626,117.72992,9.606003)"/>
</svg>
