<svg xmlns="http://www.w3.org/2000/svg" xmlns:xlink="http://www.w3.org/1999/xlink" xmlns:inkscape="http://www.inkscape.org/namespaces/inkscape" version="1.1" width="198" height="82" viewBox="0 0 198 82">
<defs>
<path id="font_1_1" d="M.6589966 .23046875C.6759949 .23046875 .69400027 .23046875 .69400027 .25045777 .69400027 .27046205 .6759949 .27046205 .6589966 .27046205H.117996219C.100997928 .27046205 .08299255 .27046205 .08299255 .25045777 .08299255 .23046875 .100997928 .23046875 .117996219 .23046875H.6589966Z"/>
<path id="font_2_4" d="M.16299439 .4569702C.116989139 .486969 .11299133 .52098086 .11299133 .5379791 .11299133 .598999 .17799378 .64100649 .24899292 .64100649 .32199098 .64100649 .38598634 .58898928 .38598634 .51698306 .38598634 .45996095 .34700013 .4119568 .2869873 .37695313L.16299439 .4569702M.30899049 .36193849C.3809967 .3989563 .42999269 .45095826 .42999269 .51698306 .42999269 .6090088 .34098817 .6660156 .25 .6660156 .1499939 .6660156 .068984989 .59199526 .068984989 .49897767 .068984989 .4809723 .070999149 .43595887 .11299133 .38894654 .12399292 .37695313 .16099549 .35194398 .18598938 .33494569 .12799073 .30592347 .041992189 .24984741 .041992189 .15072632 .041992189 .04458618 .14399719-.022460938 .24899292-.022460938 .3619995-.022460938 .45700074 .06060791 .45700074 .16773987 .45700074 .20379639 .44599916 .24885559 .4079895 .2909088 .3889923 .31193543 .37298585 .3219452 .30899049 .36193849M.20899964 .3199463 .33198548 .24183655C.3600006 .2228241 .40699769 .19277954 .40699769 .13169861 .40699769 .05760193 .33198548 .0055389406 .25 .0055389406 .1639862 .0055389406 .09199524 .067611698 .09199524 .15072632 .09199524 .20880127 .12399292 .27288819 .20899964 .3199463Z"/>
<path id="font_2_3" d="M.13198853 .327713V.35173036C.13198853 .6047821 .2559967 .64100649 .30699159 .64100649 .33099366 .64100649 .37298585 .634964 .394989 .6007538 .37998963 .6007538 .33999635 .6007538 .33999635 .5557556 .33999635 .524765 .3639984 .5097656 .38598634 .5097656 .4019928 .5097656 .43199159 .51875308 .43199159 .5577545 .43199159 .6178589 .3880005 .6660156 .30499269 .6660156 .1769867 .6660156 .041992189 .5367584 .041992189 .31570436 .041992189 .048553468 .1579895-.022460938 .25099183-.022460938 .3619995-.022460938 .45700074 .07156372 .45700074 .2036438 .45700074 .33070375 .36799623 .4267578 .25698854 .4267578 .18899536 .4267578 .1519928 .37573243 .13198853 .327713M.25099183 .0055389406C.18798828 .0055389406 .1579895 .06556702 .1519928 .080566409 .13398743 .127594 .13398743 .2076416 .13398743 .22564698 .13398743 .30369569 .1659851 .40374757 .2559967 .40374757 .27198792 .40374757 .31799317 .40374757 .34899903 .34172059 .36698915 .30470277 .36698915 .2536621 .36698915 .20463562 .36698915 .15661621 .36698915 .10658264 .34999085 .0705719 .31999208 .010528564 .27398683 .0055389406 .25099183 .0055389406Z"/>
<path id="font_2_2" d="M.2939911 .16503906V.07800293C.2939911 .041992189 .2919922 .0309906 .21798706 .0309906H.19699097V0C.23799134 .0029907227 .2899933 .0029907227 .33198548 .0029907227 .37399293 .0029907227 .4269867 .0029907227 .46798707 0V.0309906H.44699098C.37298585 .0309906 .37098695 .041992189 .37098695 .07800293V.16503906H.47099305V.19602967H.37098695V.65075686C.37098695 .67074587 .37098695 .6767578 .35499574 .6767578 .34599305 .6767578 .34298707 .6767578 .33499146 .66474917L.027999878 .19602967V.16503906H.2939911M.2999878 .19602967H.055999757L.2999878 .5688019V.19602967Z"/>
<path id="font_2_1" d="M.1269989 .07699585 .23298645 .18003845C.3889923 .31811524 .44898988 .3721466 .44898988 .47216798 .44898988 .5860901 .35899354 .6660156 .23699951 .6660156 .12399292 .6660156 .049987794 .57411196 .049987794 .48516847 .049987794 .4291687 .099990848 .4291687 .102996829 .4291687 .11999512 .4291687 .15499878 .44117738 .15499878 .48217774 .15499878 .5081787 .13699341 .5341797 .101989749 .5341797 .09399414 .5341797 .09199524 .5341797 .08898926 .5331726 .11199951 .59806826 .1659851 .63500979 .22399903 .63500979 .31498719 .63500979 .35798646 .5541382 .35798646 .47216798 .35798646 .39215089 .30799867 .31311036 .25299073 .25108338L.06098938 .036987306C.049987794 .025985718 .049987794 .023986817 .049987794 0H.42099L.44898988 .17404175H.42399598C.4189911 .14402771 .4119873 .1000061 .4019928 .084991458 .394989 .07699585 .32899476 .07699585 .30699159 .07699585H.1269989Z"/>
<clipPath id="clip_3">
<path transform="matrix(1.00005,0,0,-1.00008,2.0961457,80.71217)" d="M0 .01015H194.27216V78.90842H0Z"/>
</clipPath>
<path id="font_4_1" d="M.33399964 .30233766C.33999635 .32835389 .36299134 .42037965 .43299867 .42037965 .43798829 .42037965 .46199037 .42037965 .48298646 .40734864 .45498658 .402359 .43499757 .37734986 .43499757 .35334779 .43499757 .33735658 .44599916 .31835938 .47299195 .31835938 .49499513 .31835938 .5269928 .3363495 .5269928 .37635804 .5269928 .42837525 .46798707 .4423828 .43399049 .4423828 .37599183 .4423828 .34098817 .38935853 .32899476 .36634828 .3039856 .43237306 .25 .4423828 .22099304 .4423828 .116989139 .4423828 .05999756 .3133545 .05999756 .28834535 .05999756 .27833558 .069992069 .27833558 .07199097 .27833558 .07998657 .27833558 .08299255 .28033448 .084991458 .28933717 .11898804 .39535523 .18499756 .42037965 .21899414 .42037965 .23799134 .42037965 .272995 .4113617 .272995 .35334779 .272995 .32235719 .2559967 .25532533 .21899414 .11528015 .20298767 .053268434 .16799927 .011245728 .12399292 .011245728 .117996219 .011245728 .09498596 .011245728 .07398987 .024276734 .09899902 .029266358 .12098694 .05027771 .12098694 .07827759 .12098694 .105270389 .09899902 .11328125 .083999637 .11328125 .053985597 .11328125 .0289917 .08728027 .0289917 .055267335 .0289917 .009246826 .07899475-.0107421879 .12298584-.0107421879 .18899536-.0107421879 .22499085 .059280397 .22799683 .0652771 .23999024 .028274537 .27598573-.0107421879 .33599855-.0107421879 .43899537-.0107421879 .49598695 .118270877 .49598695 .14328003 .49598695 .1532898 .4869995 .1532898 .48399354 .1532898 .47499085 .1532898 .47299195 .14929199 .47099305 .14228821 .43798829 .03527832 .36999513 .011245728 .33799745 .011245728 .29899598 .011245728 .2829895 .043273927 .2829895 .07727051 .2829895 .09927368 .2889862 .121276859 .2999878 .16529846L.33399964 .30233766Z"/>
<path id="font_4_2" d="M.48599244 .38136292C.48999024 .39537049 .48999024 .39736939 .48999024 .40437318 .48999024 .42237855 .47599793 .43138124 .46099855 .43138124 .45098878 .43138124 .43499757 .42536927 .42599488 .41036988 .42399598 .405365 .41600038 .37435914 .4119873 .35635377 .40499879 .33035279 .397995 .30334474 .3919983 .27633668L.34700013 .09628296C.34298707 .08126831 .2999878 .011245728 .23399353 .011245728 .18299866 .011245728 .17199707 .055267335 .17199707 .0922699 .17199707 .1382904 .18899536 .20030213 .22299195 .28833009 .23899842 .3293457 .24299622 .3403473 .24299622 .36035157 .24299622 .405365 .21099854 .4423828 .16099549 .4423828 .06599426 .4423828 .0289917 .29733277 .0289917 .28833009 .0289917 .27833558 .038986207 .27833558 .040985109 .27833558 .050994874 .27833558 .051986696 .28033448 .056991579 .29634095 .083999637 .3903656 .12399292 .42037965 .1579895 .42037965 .1659851 .42037965 .18299866 .42037965 .18299866 .3883667 .18299866 .36335755 .17298889 .3373413 .1659851 .31834413 .12599182 .21231079 .10798645 .1552887 .10798645 .10827637 .10798645 .019256592 .17098999-.0107421879 .22999573-.0107421879 .2689972-.0107421879 .30299378 .0062561037 .33099366 .03425598 .31799317-.017745972 .30599977-.06674194 .2659912-.11973572 .23999024-.15385437 .20199585-.18309021 .1559906-.18309021 .14199829-.18309021 .09700012-.18005371 .07998657-.14074707 .09599304-.14074707 .10899353-.14074707 .12298584-.1287384 .1329956-.11973572 .14299011-.10673523 .14299011-.08773804 .14299011-.056747438 .115997318-.052734376 .10598755-.052734376 .08299255-.052734376 .049987794-.068740848 .049987794-.11773682 .049987794-.16796875 .09399414-.20507813 .1559906-.20507813 .25898744-.20507813 .3619995-.11373901 .3899994-.00074768069L.48599244 .38136292Z"/>
</defs>
<path transform="matrix(1.00005,0,0,-1.00008,2.0961457,80.71217)" stroke-width=".3985" stroke-linecap="butt" stroke-miterlimit="10" stroke-linejoin="miter" fill="none" stroke="#404040" d="M0 .01015H194.27216V78.90842H0Z"/>
<path transform="matrix(1.00005,0,0,-1.00008,2.0961457,80.71217)" stroke-width=".3985" stroke-linecap="butt" stroke-miterlimit="10" stroke-linejoin="miter" fill="none" stroke="#cccccc" d="M9.71361 .01015V78.90842M29.14082 .01015V78.90842M48.56804 .01015V78.90842M67.99525 .01015V78.90842M87.42247 .01015V78.90842M106.84969 .01015V78.90842M126.2769 .01015V78.90842M145.70412 .01015V78.90842M165.13134 .01015V78.90842M184.55855 .01015V78.90842"/>
<path transform="matrix(1.00005,0,0,-1.00008,2.0961457,80.71217)" stroke-width=".3985" stroke-linecap="butt" stroke-miterlimit="10" stroke-linejoin="miter" fill="none" stroke="#cccccc" d="M19.42722 .01015V78.90842M38.85443 .01015V78.90842M58.28165 .01015V78.90842M77.70886 .01015V78.90842M116.5633 .01015V78.90842M135.99051 .01015V78.90842M155.41773 .01015V78.90842M174.84494 .01015V78.90842"/>
<path transform="matrix(1.00005,0,0,-1.00008,2.0961457,80.71217)" stroke-width=".3985" stroke-linecap="butt" stroke-miterlimit="10" stroke-linejoin="miter" fill="none" stroke="#cccccc" d="M0 .01015H194.27216M0 15.7898H194.27216M0 31.56946H194.27216M0 47.3491H194.27216M0 63.12877H194.27216M0 78.90842H194.27216"/>
<path transform="matrix(1.00005,0,0,-1.00008,2.0961457,80.71217)" stroke-width=".3985" stroke-linecap="butt" stroke-miterlimit="10" stroke-linejoin="miter" fill="none" stroke="#cccccc" d="M0 7.89998H194.27216M0 23.67963H194.27216M0 55.23894H194.27216M0 71.01859H194.27216"/>
<path transform="matrix(1.00005,0,0,-1.00008,2.0961457,80.71217)" stroke-width=".19925" stroke-linecap="butt" stroke-miterlimit="10" stroke-linejoin="miter" fill="none" stroke="#7f807f" d="M9.71361 38.04198V40.87659M29.14082 38.04198V40.87659M48.56804 38.04198V40.87659M67.99525 38.04198V40.87659M87.42247 38.04198V40.87659M106.84969 38.04198V40.87659M126.2769 38.04198V40.87659M145.70412 38.04198V40.87659M165.13134 38.04198V40.87659M184.55855 38.04198V40.87659"/>
<path transform="matrix(1.00005,0,0,-1.00008,2.0961457,80.71217)" stroke-width=".19925" stroke-linecap="butt" stroke-miterlimit="10" stroke-linejoin="miter" fill="none" stroke="#7f807f" d="M19.42722 37.33353V41.58504M38.85443 37.33353V41.58504M58.28165 37.33353V41.58504M77.70886 37.33353V41.58504M116.5633 37.33353V41.58504M135.99051 37.33353V41.58504M155.41773 37.33353V41.58504M174.84494 37.33353V41.58504"/>
<path transform="matrix(1.00005,0,0,-1.00008,2.0961457,80.71217)" stroke-width=".19925" stroke-linecap="butt" stroke-miterlimit="10" stroke-linejoin="miter" fill="none" stroke="#7f807f" d="M95.71872 .01015H98.55344M95.71872 15.7898H98.55344M95.71872 31.56946H98.55344M95.71872 47.3491H98.55344M95.71872 63.12877H98.55344M95.71872 78.90842H98.55344"/>
<path transform="matrix(1.00005,0,0,-1.00008,2.0961457,80.71217)" stroke-width=".19925" stroke-linecap="butt" stroke-miterlimit="10" stroke-linejoin="miter" fill="none" stroke="#7f807f" d="M95.01024 7.89998H99.26189M95.01024 23.67963H99.26189M95.01024 55.23894H99.26189M95.01024 71.01859H99.26189"/>
<path transform="matrix(1.00005,0,0,-1.00008,2.0961457,80.71217)" stroke-width=".3985" stroke-linecap="butt" stroke-miterlimit="10" stroke-linejoin="miter" fill="none" stroke="#000000" d="M0 39.45927H192.27964"/>
<path transform="matrix(1.00005,0,0,-1.00008,194.38538,41.24975)" d="M1.99252 0-1.19551 1.59401 0 0-1.19551-1.59401"/>
<path transform="matrix(1.00005,0,0,-1.00008,2.0961457,80.71217)" stroke-width=".3985" stroke-linecap="butt" stroke-miterlimit="10" stroke-linejoin="miter" fill="none" stroke="#000000" d="M97.13608 .01015V76.9159"/>
<path transform="matrix(0,-1.00008,-1.00005,-0,99.237079,3.790123)" d="M1.99252 0-1.19551 1.59401 0 0-1.19551-1.59401"/>
<use data-text="&#x2212;" xlink:href="#font_1_1" transform="matrix(9.963098,0,0,-9.963397,15.158798,53.316984)"/>
<use data-text="8" xlink:href="#font_2_4" transform="matrix(9.963098,0,0,-9.963397,22.908188,53.316984)"/>
<use data-text="&#x2212;" xlink:href="#font_1_1" transform="matrix(9.963098,0,0,-9.963397,34.586767,53.316984)"/>
<use data-text="6" xlink:href="#font_2_3" transform="matrix(9.963098,0,0,-9.963397,42.336156,53.316984)"/>
<use data-text="&#x2212;" xlink:href="#font_1_1" transform="matrix(9.963098,0,0,-9.963397,54.01574,53.316984)"/>
<use data-text="4" xlink:href="#font_2_2" transform="matrix(9.963098,0,0,-9.963397,61.76513,53.316984)"/>
<use data-text="&#x2212;" xlink:href="#font_1_1" transform="matrix(9.963098,0,0,-9.963397,73.44371,53.316984)"/>
<use data-text="2" xlink:href="#font_2_1" transform="matrix(9.963098,0,0,-9.963397,81.1931,53.316984)"/>
<use data-text="2" xlink:href="#font_2_1" transform="matrix(9.963098,0,0,-9.963397,116.17484,53.316984)"/>
<use data-text="4" xlink:href="#font_2_2" transform="matrix(9.963098,0,0,-9.963397,135.60282,53.316984)"/>
<use data-text="6" xlink:href="#font_2_3" transform="matrix(9.963098,0,0,-9.963397,155.03079,53.316984)"/>
<use data-text="8" xlink:href="#font_2_4" transform="matrix(9.963098,0,0,-9.963397,174.45876,53.316984)"/>
<use data-text="&#x2212;" xlink:href="#font_1_1" transform="matrix(9.963098,0,0,-9.963397,80.860088,75.606769)"/>
<use data-text="4" xlink:href="#font_2_2" transform="matrix(9.963098,0,0,-9.963397,88.609477,75.606769)"/>
<use data-text="&#x2212;" xlink:href="#font_1_1" transform="matrix(9.963098,0,0,-9.963397,80.860088,59.8255)"/>
<use data-text="2" xlink:href="#font_2_1" transform="matrix(9.963098,0,0,-9.963397,88.609477,59.8255)"/>
<use data-text="2" xlink:href="#font_2_1" transform="matrix(9.963098,0,0,-9.963397,88.60947,28.679013)"/>
<use data-text="4" xlink:href="#font_2_2" transform="matrix(9.963098,0,0,-9.963397,88.60947,12.89875)"/>
<g clip-path="url(#clip_3)">
<path transform="matrix(1.00005,0,0,-1.00008,2.0961457,80.71217)" stroke-width="1.24535" stroke-linecap="butt" stroke-miterlimit="10" stroke-linejoin="miter" fill="none" stroke="#1414cc" d="M10.96664 0C10.96664 0 11.51376 3.28311 11.72388 4.50726 11.934 5.7314 12.27101 7.65182 12.48114 8.82275 12.69125 9.99367 13.02826 11.82874 13.23837 12.94643 13.4485 14.0641 13.78549 15.81384 13.99562 16.87831 14.20573 17.94278 14.54276 19.60716 14.75287 20.61842 14.963 21.62967 15.29999 23.2087 15.51012 24.16672 15.72023 25.12473 16.05724 26.6184 16.26735 27.5232 16.47748 28.42798 16.81447 29.83633 17.0246 30.68793 17.23473 31.5395 17.57173 32.86249 17.78186 33.66084 17.99197 34.45918 18.32896 35.69675 18.53908 36.44186 18.7492 37.187 19.0862 38.3393 19.29633 39.03119 19.50644 39.7231 19.84346 40.79005 20.05357 41.42873 20.2637 42.06741 20.6007 43.049 20.81082 43.63446 21.02094 44.21992 21.35794 45.11615 21.56805 45.64839 21.77818 46.18062 22.11517 46.99152 22.3253 47.47052 22.53542 47.94954 22.87244 48.67506 23.08255 49.10086 23.29268 49.52666 23.62967 50.16682 23.8398 50.5394 24.04991 50.91197 24.38692 51.4668 24.59703 51.78613 24.80716 52.10548 25.14417 52.57497 25.3543 52.8411 25.5644 53.10722 25.9014 53.49136 26.11151 53.70427 26.32164 53.91718 26.65863 54.21593 26.86876 54.37561 27.07889 54.5353 27.41588 54.74873 27.626 54.8552 27.83612 54.96165 28.17314 55.08972 28.38326 55.14296 28.59338 55.1962 29.1405 55.23894 29.1405 55.23894"/>
<path transform="matrix(1.00005,0,0,-1.00008,2.0961457,80.71217)" stroke-width="1.24535" stroke-linecap="butt" stroke-miterlimit="10" stroke-linejoin="miter" fill="none" stroke="#1414cc" d="M29.14082 55.23894C29.14082 55.23894 29.72566 55.22675 29.95027 55.21155 30.17488 55.19633 30.53513 55.15976 30.75974 55.12936 30.98434 55.09895 31.34459 55.03798 31.5692 54.99237 31.79381 54.94676 32.15405 54.86142 32.37866 54.80061 32.60327 54.7398 32.9635 54.63007 33.18813 54.55406 33.41275 54.47804 33.773 54.34392 33.9976 54.2527 34.22221 54.1615 34.58246 54.003 34.80707 53.89659 35.03168 53.79018 35.39192 53.60728 35.61653 53.48566 35.84114 53.36403 36.20137 53.15677 36.42598 53.01993 36.65059 52.8831 37.01083 52.65147 37.23544 52.49944 37.46005 52.3474 37.8203 52.09138 38.0449 51.92415 38.26952 51.75691 38.62978 51.47649 38.85439 51.29405 39.079 51.11162 39.43922 50.80682 39.66383 50.60919 39.88844 50.41154 40.24869 50.08238 40.4733 49.86952 40.6979 49.65666 41.05817 49.30312 41.28278 49.07504 41.50739 48.84698 41.86763 48.46907 42.09224 48.2258 42.31685 47.98254 42.67708 47.58025 42.90169 47.32178 43.1263 47.06331 43.48656 46.63663 43.71117 46.36296 43.93578 46.0893 44.29602 45.6382 44.52063 45.34933 44.74524 45.06047 45.10548 44.585 45.3301 44.28094 45.5547 43.97687 45.91493 43.477 46.13954 43.15775 46.36415 42.83847 46.7244 42.31422 46.949 41.97975 47.17361 41.64528 47.53386 41.09666 47.75847 40.74698 47.98308 40.3973 48.56795 39.45941 48.56795 39.45941"/>
<path transform="matrix(1.00005,0,0,-1.00008,2.0961457,80.71217)" stroke-width="1.24535" stroke-linecap="butt" stroke-miterlimit="10" stroke-linejoin="miter" fill="none" stroke="#1414cc" d="M48.56804 39.45927C48.56804 39.45927 48.86046 38.99034 48.97275 38.8155 49.08505 38.64067 49.26518 38.36635 49.37747 38.19911 49.48978 38.03188 49.66992 37.76976 49.78221 37.61012 49.89452 37.45049 50.07465 37.20058 50.18694 37.04854 50.29924 36.8965 50.47937 36.65877 50.59166 36.51434 50.70395 36.3699 50.88408 36.14436 50.99638 36.00754 51.10867 35.8707 51.2888 35.65736 51.40111 35.52812 51.5134 35.3989 51.69354 35.19774 51.80585 35.07611 51.91814 34.95448 52.09827 34.7655 52.21057 34.65147 52.32286 34.53745 52.50299 34.36066 52.61528 34.25424 52.72758 34.14783 52.90773 33.98323 53.02002 33.88441 53.13232 33.7856 53.31245 33.63318 53.42474 33.54198 53.53705 33.45076 53.7172 33.31053 53.82948 33.22693 53.94179 33.14331 54.1219 33.01529 54.2342 32.93927 54.3465 32.86327 54.52663 32.74742 54.63893 32.67902 54.75122 32.61061 54.93135 32.50697 55.04366 32.44617 55.15594 32.38536 55.33607 32.2939 55.44838 32.24069 55.56067 32.18748 55.74081 32.10823 55.8531 32.06262 55.96541 32.01701 56.14554 31.94995 56.25783 31.91194 56.37013 31.87393 56.55026 31.81906 56.66255 31.78865 56.77486 31.75826 56.955 31.71556 57.06729 31.69276 57.1796 31.66995 57.35971 31.63947 57.47202 31.62425 57.5843 31.60905 57.76445 31.59077 57.87675 31.58316 57.98904 31.57556 58.28148 31.56946 58.28148 31.56946"/>
<path transform="matrix(1.00005,0,0,-1.00008,2.0961457,80.71217)" stroke-width="1.24535" stroke-linecap="butt" stroke-miterlimit="10" stroke-linejoin="miter" fill="none" stroke="#1414cc" d="M58.28165 31.56946C58.28165 31.56946 58.86649 31.56946 59.0911 31.56946 59.3157 31.56946 59.67595 31.56946 59.90056 31.56946 60.12517 31.56946 60.48541 31.56946 60.71002 31.56946 60.93463 31.56946 61.29488 31.56946 61.51949 31.56946 61.7441 31.56946 62.10432 31.56946 62.32895 31.56946 62.55357 31.56946 62.91382 31.56946 63.13843 31.56946 63.36304 31.56946 63.72328 31.56946 63.94789 31.56946 64.1725 31.56946 64.53275 31.56946 64.75735 31.56946 64.98196 31.56946 65.3422 31.56946 65.5668 31.56946 65.79141 31.56946 66.15166 31.56946 66.37627 31.56946 66.60088 31.56946 66.96112 31.56946 67.18573 31.56946 67.41034 31.56946 67.7706 31.56946 67.99521 31.56946 68.21982 31.56946 68.58005 31.56946 68.80466 31.56946 69.02927 31.56946 69.38951 31.56946 69.61412 31.56946 69.83873 31.56946 70.19899 31.56946 70.4236 31.56946 70.64821 31.56946 71.00845 31.56946 71.23306 31.56946 71.45767 31.56946 71.8179 31.56946 72.04251 31.56946 72.26712 31.56946 72.62738 31.56946 72.85199 31.56946 73.0766 31.56946 73.43684 31.56946 73.66145 31.56946 73.88606 31.56946 74.2463 31.56946 74.47092 31.56946 74.69553 31.56946 75.05576 31.56946 75.28036 31.56946 75.50497 31.56946 75.86522 31.56946 76.08983 31.56946 76.31444 31.56946 76.67468 31.56946 76.89929 31.56946 77.1239 31.56946 77.70877 31.56946 77.70877 31.56946"/>
<path transform="matrix(1.00005,0,0,-1.00008,2.0961457,80.71217)" stroke-width="1.24535" stroke-linecap="butt" stroke-miterlimit="10" stroke-linejoin="miter" fill="none" stroke="#1414cc" d="M77.70886 31.56946C77.70886 31.56946 78.00128 31.56335 78.11359 31.55576 78.22588 31.54816 78.406 31.52986 78.5183 31.51466 78.6306 31.49947 78.81075 31.46898 78.92303 31.44618 79.03534 31.42339 79.21547 31.3807 79.32776 31.3503 79.44006 31.3199 79.6202 31.26503 79.73248 31.22704 79.84479 31.18903 80.0249 31.12195 80.1372 31.07635 80.2495 31.03075 80.42963 30.95149 80.54193 30.89828 80.65422 30.84508 80.83437 30.75365 80.94667 30.69283 81.05896 30.63202 81.23909 30.5284 81.3514 30.45998 81.46368 30.39157 81.64381 30.27576 81.7561 30.19974 81.86841 30.12373 82.04855 29.99571 82.16084 29.91211 82.27315 29.82849 82.45328 29.68826 82.56557 29.59706 82.67787 29.50584 82.85802 29.35344 82.9703 29.25464 83.08261 29.15582 83.26273 28.99123 83.37503 28.88481 83.48732 28.7784 83.66745 28.60161 83.77975 28.4876 83.89204 28.37357 84.07217 28.1846 84.18448 28.06299 84.29677 27.94136 84.4769 27.7402 84.5892 27.61098 84.70149 27.48177 84.88164 27.2684 84.99393 27.13158 85.10623 26.99474 85.28636 26.7692 85.39865 26.62479 85.51096 26.48036 85.69109 26.24263 85.80338 26.0906 85.91568 25.93857 86.09583 25.68864 86.20811 25.529 86.32042 25.36937 86.50053 25.10727 86.61284 24.94003 86.72513 24.7728 86.90527 24.4985 87.01758 24.32365 87.12987 24.14882 87.4223 23.6799 87.4223 23.6799"/>
<path transform="matrix(1.00005,0,0,-1.00008,2.0961457,80.71217)" stroke-width="1.24535" stroke-linecap="butt" stroke-miterlimit="10" stroke-linejoin="miter" fill="none" stroke="#1414cc" d="M87.42247 23.67963C87.42247 23.67963 88.00731 22.75394 88.23192 22.41945 88.45653 22.08496 88.81677 21.57292 89.04138 21.26886 89.26599 20.96478 89.62624 20.5015 89.85085 20.22783 90.07545 19.95416 90.43571 19.53966 90.66032 19.2964 90.88493 19.05313 91.24516 18.6874 91.46977 18.47455 91.69438 18.2617 92.05464 17.94472 92.27925 17.76227 92.50386 17.57983 92.8641 17.31161 93.08871 17.15958 93.31332 17.00754 93.67357 16.78809 93.89818 16.66646 94.12279 16.54482 94.48303 16.37413 94.70764 16.28293 94.93225 16.19171 95.2925 16.06978 95.5171 16.00897 95.74171 15.94817 96.10196 15.875 96.32657 15.84459 96.55118 15.81418 96.91144 15.7898 97.13605 15.7898 97.36066 15.7898 97.72089 15.81418 97.9455 15.84459 98.1701 15.875 98.53035 15.94815 98.75496 16.00896 98.97957 16.06976 99.33983 16.19168 99.56444 16.2829 99.78905 16.3741 100.14929 16.54478 100.3739 16.66643 100.59851 16.78806 100.95876 17.00749 101.18335 17.15953 101.40796 17.31157 101.76822 17.57979 101.99283 17.76222 102.21744 17.94467 102.57768 18.26164 102.80229 18.47449 103.0269 18.68733 103.38716 19.05307 103.61177 19.29634 103.83638 19.5396 104.19662 19.95412 104.42123 20.22777 104.64583 20.50143 105.00607 20.9647 105.23068 21.26878 105.45529 21.57285 105.81554 22.0849 106.04015 22.41937 106.26476 22.75385 106.84962 23.67953 106.84962 23.67953"/>
<path transform="matrix(1.00005,0,0,-1.00008,2.0961457,80.71217)" stroke-width="1.24535" stroke-linecap="butt" stroke-miterlimit="10" stroke-linejoin="miter" fill="none" stroke="#1414cc" d="M106.84969 23.67963C106.84969 23.67963 107.43454 24.6297 107.65913 24.9946 107.88374 25.3595 108.24399 25.94466 108.4686 26.30956 108.6932 26.67445 109.05345 27.25963 109.27806 27.62453 109.50267 27.98943 109.86292 28.57458 110.08752 28.93948 110.31213 29.30438 110.67238 29.88956 110.897 30.25446 111.12161 30.61934 111.48186 31.20453 111.70647 31.56943 111.93108 31.93431 112.29132 32.51949 112.51593 32.88438 112.74054 33.24927 113.10078 33.83446 113.3254 34.19936 113.55 34.56424 113.91025 35.14943 114.13486 35.51433 114.35947 35.87921 114.7197 36.46439 114.9443 36.82928 115.16891 37.19417 115.52916 37.77936 115.75377 38.14426 115.97838 38.50914 116.33864 39.09431 116.56325 39.4592 116.78786 39.8241 117.1481 40.40929 117.37271 40.77417 117.59732 41.13907 117.95755 41.72424 118.18216 42.08913 118.40677 42.45403 118.76703 43.03923 118.99164 43.40411 119.21625 43.76901 119.57649 44.3542 119.8011 44.71909 120.02571 45.08398 120.38596 45.66916 120.61057 46.03404 120.83517 46.39894 121.19542 46.98413 121.42003 47.34901 121.64464 47.71391 122.00488 48.29907 122.22949 48.66397 122.4541 49.02887 122.81435 49.61403 123.03896 49.97893 123.26357 50.34383 123.62381 50.929 123.84842 51.2939 124.07303 51.6588 124.43326 52.24396 124.65787 52.60886 124.88248 52.97375 125.24272 53.55893 125.46733 53.92383 125.69194 54.28873 126.27681 55.23878 126.27681 55.23878"/>
<path transform="matrix(1.00005,0,0,-1.00008,2.0961457,80.71217)" stroke-width="1.24535" stroke-linecap="butt" stroke-miterlimit="10" stroke-linejoin="miter" fill="none" stroke="#1414cc" d="M126.2769 55.23894C126.2769 55.23894 126.86176 56.1768 127.08636 56.52649 127.31097 56.87619 127.6712 57.42479 127.89581 57.7593 128.12042 58.09378 128.48067 58.618 128.70528 58.93727 128.92989 59.25655 129.29013 59.7564 129.51474 60.06047 129.73935 60.36455 130.0996 60.84003 130.32422 61.12889 130.54885 61.41777 130.90908 61.86885 131.13368 62.14252 131.35829 62.41618 131.71854 62.84288 131.94315 63.10133 132.16776 63.3598 132.528 63.76212 132.75261 64.00539 132.97722 64.24864 133.33747 64.62657 133.56208 64.85463 133.78668 65.08269 134.14691 65.43622 134.37152 65.64908 134.59613 65.86194 134.95638 66.19113 135.18099 66.38876 135.4056 66.58641 135.76586 66.8912 135.99047 67.07364 136.21508 67.25609 136.57532 67.5365 136.79993 67.70374 137.02454 67.87097 137.38477 68.12698 137.60938 68.27902 137.83399 68.43106 138.19425 68.6627 138.41886 68.79955 138.64347 68.93637 139.00371 69.14363 139.22832 69.26527 139.45293 69.3869 139.81317 69.56978 140.03778 69.6762 140.26239 69.78261 140.62264 69.94112 140.84725 70.03233 141.07186 70.12354 141.4321 70.25768 141.65671 70.33368 141.88132 70.40968 142.24156 70.51942 142.46617 70.58025 142.69078 70.64105 143.05103 70.72641 143.27564 70.77202 143.50025 70.81761 143.86048 70.87859 144.08509 70.909 144.3097 70.9394 144.66994 70.97598 144.89455 70.99118 145.11916 71.00638 145.70403 71.01859 145.70403 71.01859"/>
<path transform="matrix(1.00005,0,0,-1.00008,2.0961457,80.71217)" stroke-width="1.24535" stroke-linecap="butt" stroke-miterlimit="10" stroke-linejoin="miter" fill="none" stroke="#1414cc" d="M145.70412 71.01859C145.70412 71.01859 146.28897 70.9942 146.51358 70.9638 146.73819 70.9334 147.09842 70.86023 147.32303 70.79942 147.54764 70.73862 147.90789 70.6167 148.13249 70.52548 148.3571 70.43427 148.71735 70.26358 148.94196 70.14195 149.16657 70.02032 149.52681 69.80086 149.75144 69.64883 149.97606 69.4968 150.33629 69.22859 150.5609 69.04614 150.7855 68.86371 151.14575 68.54672 151.37036 68.33388 151.59497 68.12103 151.95522 67.75528 152.17983 67.51202 152.40444 67.26877 152.76468 66.85426 152.98929 66.5806 153.2139 66.30693 153.57413 65.84366 153.79874 65.53958 154.02335 65.23552 154.38359 64.72346 154.6082 64.38899 154.83281 64.05452 155.19307 63.49371 155.41768 63.12883 155.64229 62.76393 156.00254 62.15439 156.22714 61.7591 156.45175 61.3638 156.81198 60.70547 157.03659 60.27975 157.2612 59.85405 157.62146 59.14694 157.84607 58.69081 158.07068 58.2347 158.43093 57.47887 158.65554 56.99234 158.88014 56.50583 159.24039 55.7012 159.465 55.18427 159.6896 54.66734 160.04985 53.81395 160.27446 53.26662 160.49907 52.71928 160.85932 51.81715 161.08393 51.2394 161.30854 50.66165 161.66878 49.71074 161.89339 49.10258 162.118 48.49443 162.47824 47.49475 162.70285 46.8562 162.92746 46.21764 163.28769 45.1692 163.5123 44.50024 163.73691 43.83128 164.09716 42.73407 164.32176 42.0347 164.54637 41.33531 165.13124 39.45956 165.13124 39.45956"/>
<path transform="matrix(1.00005,0,0,-1.00008,2.0961457,80.71217)" stroke-width="1.24535" stroke-linecap="butt" stroke-miterlimit="10" stroke-linejoin="miter" fill="none" stroke="#1414cc" d="M165.13134 39.45927C165.13134 39.45927 166.0086 36.82849 166.34554 35.95273 166.68245 35.07698 167.22281 33.8551 167.55973 33.14742 167.89665 32.43974 168.43698 31.43604 168.77393 30.85219 169.11086 30.26834 169.6512 29.42938 169.98813 28.93945 170.32508 28.44952 170.86542 27.73805 171.20233 27.32101 171.53926 26.90398 172.0796 26.29301 172.41654 25.93375 172.75345 25.57448 173.2938 25.04433 173.63072 24.73157 173.96767 24.41882 174.508 23.95438 174.84494 23.67963 175.18187 23.40488 175.72222 22.99466 176.05915 22.75139 176.39606 22.50813 176.93642 22.14316 177.27333 21.92625 177.61026 21.70937 178.15059 21.38263 178.48754 21.18802 178.82447 20.99342 179.3648 20.6992 179.70174 20.52362 180.03868 20.34804 180.57903 20.0817 180.91594 19.92249 181.25287 19.76328 181.79322 19.52109 182.13014 19.37604 182.46706 19.231 183.0074 19.00978 183.34433 18.87709 183.68128 18.74442 184.2216 18.54153 184.55855 18.41971 184.89548 18.29788 185.43582 18.11122 185.77275 17.99895 186.10967 17.88669 186.65003 17.71432 186.98694 17.61052 187.32387 17.50673 187.8642 17.34708 188.20114 17.25084 188.53807 17.15459 189.07842 17.00632 189.41535 16.91685 189.75229 16.8274 190.29264 16.68938 190.62955 16.60599 190.96648 16.52261 191.50682 16.39372 191.84375 16.31583 192.18067 16.23792 192.72101 16.11737 193.05794 16.0444 193.39488 15.97144 194.27216 15.7898 194.27216 15.7898"/>
</g>
<use data-text="x" xlink:href="#font_4_1" transform="matrix(9.963098,0,0,-9.963397,187.19539,37.723737)"/>
<use data-text="y" xlink:href="#font_4_2" transform="matrix(9.963098,0,0,-9.963397,102.77417,9.594482)"/>
</svg>
