<svg xmlns="http://www.w3.org/2000/svg" xmlns:xlink="http://www.w3.org/1999/xlink" xmlns:inkscape="http://www.inkscape.org/namespaces/inkscape" version="1.1" width="198" height="165" viewBox="0 0 198 165">
<defs>
<path id="font_1_1" d="M.6589966 .23046875C.6759949 .23046875 .69400027 .23046875 .69400027 .25045777 .69400027 .27046205 .6759949 .27046205 .6589966 .27046205H.117996219C.100997928 .27046205 .08299255 .27046205 .08299255 .25045777 .08299255 .23046875 .100997928 .23046875 .117996219 .23046875H.6589966Z"/>
<path id="font_2_3" d="M.13198853 .327713V.35173036C.13198853 .6047821 .2559967 .64100649 .30699159 .64100649 .33099366 .64100649 .37298585 .634964 .394989 .6007538 .37998963 .6007538 .33999635 .6007538 .33999635 .5557556 .33999635 .524765 .3639984 .5097656 .38598634 .5097656 .4019928 .5097656 .43199159 .51875308 .43199159 .5577545 .43199159 .6178589 .3880005 .6660156 .30499269 .6660156 .1769867 .6660156 .041992189 .5367584 .041992189 .31570436 .041992189 .048553468 .1579895-.022460938 .25099183-.022460938 .3619995-.022460938 .45700074 .07156372 .45700074 .2036438 .45700074 .33070375 .36799623 .4267578 .25698854 .4267578 .18899536 .4267578 .1519928 .37573243 .13198853 .327713M.25099183 .0055389406C.18798828 .0055389406 .1579895 .06556702 .1519928 .080566409 .13398743 .127594 .13398743 .2076416 .13398743 .22564698 .13398743 .30369569 .1659851 .40374757 .2559967 .40374757 .27198792 .40374757 .31799317 .40374757 .34899903 .34172059 .36698915 .30470277 .36698915 .2536621 .36698915 .20463562 .36698915 .15661621 .36698915 .10658264 .34999085 .0705719 .31999208 .010528564 .27398683 .0055389406 .25099183 .0055389406Z"/>
<path id="font_2_2" d="M.2939911 .16503906V.07800293C.2939911 .041992189 .2919922 .0309906 .21798706 .0309906H.19699097V0C.23799134 .0029907227 .2899933 .0029907227 .33198548 .0029907227 .37399293 .0029907227 .4269867 .0029907227 .46798707 0V.0309906H.44699098C.37298585 .0309906 .37098695 .041992189 .37098695 .07800293V.16503906H.47099305V.19602967H.37098695V.65075686C.37098695 .67074587 .37098695 .6767578 .35499574 .6767578 .34599305 .6767578 .34298707 .6767578 .33499146 .66474917L.027999878 .19602967V.16503906H.2939911M.2999878 .19602967H.055999757L.2999878 .5688019V.19602967Z"/>
<path id="font_2_1" d="M.1269989 .07699585 .23298645 .18003845C.3889923 .31811524 .44898988 .3721466 .44898988 .47216798 .44898988 .5860901 .35899354 .6660156 .23699951 .6660156 .12399292 .6660156 .049987794 .57411196 .049987794 .48516847 .049987794 .4291687 .099990848 .4291687 .102996829 .4291687 .11999512 .4291687 .15499878 .44117738 .15499878 .48217774 .15499878 .5081787 .13699341 .5341797 .101989749 .5341797 .09399414 .5341797 .09199524 .5341797 .08898926 .5331726 .11199951 .59806826 .1659851 .63500979 .22399903 .63500979 .31498719 .63500979 .35798646 .5541382 .35798646 .47216798 .35798646 .39215089 .30799867 .31311036 .25299073 .25108338L.06098938 .036987306C.049987794 .025985718 .049987794 .023986817 .049987794 0H.42099L.44898988 .17404175H.42399598C.4189911 .14402771 .4119873 .1000061 .4019928 .084991458 .394989 .07699585 .32899476 .07699585 .30699159 .07699585H.1269989Z"/>
<clipPath id="clip_3">
<path transform="matrix(1.00003,0,0,-1.00006,2.0964967,163.19083)" d="M0 0H194.26912V161.3842H0Z"/>
</clipPath>
<path id="font_4_1" d="M.33399964 .30233766C.33999635 .32835389 .36299134 .42037965 .43299867 .42037965 .43798829 .42037965 .46199037 .42037965 .48298646 .40734864 .45498658 .402359 .43499757 .37734986 .43499757 .35334779 .43499757 .33735658 .44599916 .31835938 .47299195 .31835938 .49499513 .31835938 .5269928 .3363495 .5269928 .37635804 .5269928 .42837525 .46798707 .4423828 .43399049 .4423828 .37599183 .4423828 .34098817 .38935853 .32899476 .36634828 .3039856 .43237306 .25 .4423828 .22099304 .4423828 .116989139 .4423828 .05999756 .3133545 .05999756 .28834535 .05999756 .27833558 .069992069 .27833558 .07199097 .27833558 .07998657 .27833558 .08299255 .28033448 .084991458 .28933717 .11898804 .39535523 .18499756 .42037965 .21899414 .42037965 .23799134 .42037965 .272995 .4113617 .272995 .35334779 .272995 .32235719 .2559967 .25532533 .21899414 .11528015 .20298767 .053268434 .16799927 .011245728 .12399292 .011245728 .117996219 .011245728 .09498596 .011245728 .07398987 .024276734 .09899902 .029266358 .12098694 .05027771 .12098694 .07827759 .12098694 .105270389 .09899902 .11328125 .083999637 .11328125 .053985597 .11328125 .0289917 .08728027 .0289917 .055267335 .0289917 .009246826 .07899475-.0107421879 .12298584-.0107421879 .18899536-.0107421879 .22499085 .059280397 .22799683 .0652771 .23999024 .028274537 .27598573-.0107421879 .33599855-.0107421879 .43899537-.0107421879 .49598695 .118270877 .49598695 .14328003 .49598695 .1532898 .4869995 .1532898 .48399354 .1532898 .47499085 .1532898 .47299195 .14929199 .47099305 .14228821 .43798829 .03527832 .36999513 .011245728 .33799745 .011245728 .29899598 .011245728 .2829895 .043273927 .2829895 .07727051 .2829895 .09927368 .2889862 .121276859 .2999878 .16529846L.33399964 .30233766Z"/>
<path id="font_4_2" d="M.48599244 .38136292C.48999024 .39537049 .48999024 .39736939 .48999024 .40437318 .48999024 .42237855 .47599793 .43138124 .46099855 .43138124 .45098878 .43138124 .43499757 .42536927 .42599488 .41036988 .42399598 .405365 .41600038 .37435914 .4119873 .35635377 .40499879 .33035279 .397995 .30334474 .3919983 .27633668L.34700013 .09628296C.34298707 .08126831 .2999878 .011245728 .23399353 .011245728 .18299866 .011245728 .17199707 .055267335 .17199707 .0922699 .17199707 .1382904 .18899536 .20030213 .22299195 .28833009 .23899842 .3293457 .24299622 .3403473 .24299622 .36035157 .24299622 .405365 .21099854 .4423828 .16099549 .4423828 .06599426 .4423828 .0289917 .29733277 .0289917 .28833009 .0289917 .27833558 .038986207 .27833558 .040985109 .27833558 .050994874 .27833558 .051986696 .28033448 .056991579 .29634095 .083999637 .3903656 .12399292 .42037965 .1579895 .42037965 .1659851 .42037965 .18299866 .42037965 .18299866 .3883667 .18299866 .36335755 .17298889 .3373413 .1659851 .31834413 .12599182 .21231079 .10798645 .1552887 .10798645 .10827637 .10798645 .019256592 .17098999-.0107421879 .22999573-.0107421879 .2689972-.0107421879 .30299378 .0062561037 .33099366 .03425598 .31799317-.017745972 .30599977-.06674194 .2659912-.11973572 .23999024-.15385437 .20199585-.18309021 .1559906-.18309021 .14199829-.18309021 .09700012-.18005371 .07998657-.14074707 .09599304-.14074707 .10899353-.14074707 .12298584-.1287384 .1329956-.11973572 .14299011-.10673523 .14299011-.08773804 .14299011-.056747438 .115997318-.052734376 .10598755-.052734376 .08299255-.052734376 .049987794-.068740848 .049987794-.11773682 .049987794-.16796875 .09399414-.20507813 .1559906-.20507813 .25898744-.20507813 .3619995-.11373901 .3899994-.00074768069L.48599244 .38136292Z"/>
</defs>
<path transform="matrix(1.00003,0,0,-1.00006,2.0964967,163.19083)" stroke-width=".3985" stroke-linecap="butt" stroke-miterlimit="10" stroke-linejoin="miter" fill="none" stroke="#404040" d="M0 0H194.26912V161.3842H0Z"/>
<path transform="matrix(1.00003,0,0,-1.00006,2.0964967,163.19083)" stroke-width=".3985" stroke-linecap="butt" stroke-miterlimit="10" stroke-linejoin="miter" fill="none" stroke="#bfbfbf" d="M12.14182 0V161.3842M36.42545 0V161.3842M60.70909 0V161.3842M84.99274 0V161.3842M109.27637 0V161.3842M133.56002 0V161.3842M157.84366 0V161.3842M182.12729 0V161.3842"/>
<path transform="matrix(1.00003,0,0,-1.00006,2.0964967,163.19083)" stroke-width=".3985" stroke-linecap="butt" stroke-miterlimit="10" stroke-linejoin="miter" fill="none" stroke="#bfbfbf" d="M24.28363 0V161.3842M48.56728 0V161.3842M72.8509 0V161.3842M121.4182 0V161.3842M145.70183 0V161.3842M169.98548 0V161.3842"/>
<path transform="matrix(1.00003,0,0,-1.00006,2.0964967,163.19083)" stroke-width=".3985" stroke-linecap="butt" stroke-miterlimit="10" stroke-linejoin="miter" fill="none" stroke="#bfbfbf" d="M0 10.0865H194.26912M0 30.25954H194.26912M0 50.43256H194.26912M0 70.60558H194.26912M0 90.77861H194.26912M0 110.95163H194.26912M0 131.12467H194.26912M0 151.29769H194.26912"/>
<path transform="matrix(1.00003,0,0,-1.00006,2.0964967,163.19083)" stroke-width=".3985" stroke-linecap="butt" stroke-miterlimit="10" stroke-linejoin="miter" fill="none" stroke="#bfbfbf" d="M0 20.17302H194.26912M0 40.34604H194.26912M0 60.51907H194.26912M0 100.86511H194.26912M0 121.03815H194.26912M0 141.21117H194.26912"/>
<path transform="matrix(1.00003,0,0,-1.00006,2.0964967,163.19083)" stroke-width=".19925" stroke-linecap="butt" stroke-miterlimit="10" stroke-linejoin="miter" fill="none" stroke="#7f807f" d="M12.14182 79.27461V82.10957M36.42545 79.27461V82.10957M60.70909 79.27461V82.10957M84.99274 79.27461V82.10957M109.27637 79.27461V82.10957M133.56002 79.27461V82.10957M157.84366 79.27461V82.10957M182.12729 79.27461V82.10957"/>
<path transform="matrix(1.00003,0,0,-1.00006,2.0964967,163.19083)" stroke-width=".19925" stroke-linecap="butt" stroke-miterlimit="10" stroke-linejoin="miter" fill="none" stroke="#7f807f" d="M24.28363 78.56609V82.81808M48.56728 78.56609V82.81808M72.8509 78.56609V82.81808M121.4182 78.56609V82.81808M145.70183 78.56609V82.81808M169.98548 78.56609V82.81808"/>
<path transform="matrix(1.00003,0,0,-1.00006,2.0964967,163.19083)" stroke-width=".19925" stroke-linecap="butt" stroke-miterlimit="10" stroke-linejoin="miter" fill="none" stroke="#7f807f" d="M95.7171 10.0865H98.552M95.7171 30.25954H98.552M95.7171 50.43256H98.552M95.7171 70.60558H98.552M95.7171 90.77861H98.552M95.7171 110.95163H98.552M95.7171 131.12467H98.552M95.7171 151.29769H98.552"/>
<path transform="matrix(1.00003,0,0,-1.00006,2.0964967,163.19083)" stroke-width=".19925" stroke-linecap="butt" stroke-miterlimit="10" stroke-linejoin="miter" fill="none" stroke="#7f807f" d="M95.0086 20.17302H99.26048M95.0086 40.34604H99.26048M95.0086 60.51907H99.26048M95.0086 100.86511H99.26048M95.0086 121.03815H99.26048M95.0086 141.21117H99.26048"/>
<path transform="matrix(1.00003,0,0,-1.00006,2.0964967,163.19083)" stroke-width=".3985" stroke-linecap="butt" stroke-miterlimit="10" stroke-linejoin="miter" fill="none" stroke="#000000" d="M0 80.6921H192.2766"/>
<path transform="matrix(1.00003,0,0,-1.00006,194.37888,82.49389)" d="M1.99252 0-1.19551 1.59401 0 0-1.19551-1.59401"/>
<path transform="matrix(1.00003,0,0,-1.00006,2.0964967,163.19083)" stroke-width=".3985" stroke-linecap="butt" stroke-miterlimit="10" stroke-linejoin="miter" fill="none" stroke="#000000" d="M97.13455 0V159.39168"/>
<path transform="matrix(0,-1.00006,-1.00003,-0,99.23396,3.7895966)" d="M1.99252 0-1.19551 1.59401 0 0-1.19551-1.59401"/>
<use data-text="&#x2212;" xlink:href="#font_1_1" transform="matrix(9.962899,0,0,-9.963197,20.016037,94.560718)"/>
<use data-text="6" xlink:href="#font_2_3" transform="matrix(9.962899,0,0,-9.963197,27.765267,94.560718)"/>
<use data-text="&#x2212;" xlink:href="#font_1_1" transform="matrix(9.962899,0,0,-9.963197,44.299764,94.560718)"/>
<use data-text="4" xlink:href="#font_2_2" transform="matrix(9.962899,0,0,-9.963197,52.048994,94.560718)"/>
<use data-text="&#x2212;" xlink:href="#font_1_1" transform="matrix(9.962899,0,0,-9.963197,68.584499,94.560718)"/>
<use data-text="2" xlink:href="#font_2_1" transform="matrix(9.962899,0,0,-9.963197,76.333728,94.560718)"/>
<use data-text="2" xlink:href="#font_2_1" transform="matrix(9.962899,0,0,-9.963197,121.02707,94.560718)"/>
<use data-text="4" xlink:href="#font_2_2" transform="matrix(9.962899,0,0,-9.963197,145.3118,94.560718)"/>
<use data-text="6" xlink:href="#font_2_3" transform="matrix(9.962899,0,0,-9.963197,169.59653,94.560718)"/>
<use data-text="&#x2212;" xlink:href="#font_1_1" transform="matrix(9.962899,0,0,-9.963197,80.857868,145.81179)"/>
<use data-text="6" xlink:href="#font_2_3" transform="matrix(9.962899,0,0,-9.963197,88.60709,145.81179)"/>
<use data-text="&#x2212;" xlink:href="#font_1_1" transform="matrix(9.962899,0,0,-9.963197,80.857868,125.63757)"/>
<use data-text="4" xlink:href="#font_2_2" transform="matrix(9.962899,0,0,-9.963197,88.60709,125.63757)"/>
<use data-text="&#x2212;" xlink:href="#font_1_1" transform="matrix(9.962899,0,0,-9.963197,80.857868,105.46336)"/>
<use data-text="2" xlink:href="#font_2_1" transform="matrix(9.962899,0,0,-9.963197,88.60709,105.46336)"/>
<use data-text="2" xlink:href="#font_2_1" transform="matrix(9.962899,0,0,-9.963197,88.6061,65.52997)"/>
<use data-text="4" xlink:href="#font_2_2" transform="matrix(9.962899,0,0,-9.963197,88.6061,45.35576)"/>
<use data-text="6" xlink:href="#font_2_3" transform="matrix(9.962899,0,0,-9.963197,88.6061,25.18155)"/>
<g clip-path="url(#clip_3)">
<path transform="matrix(1.00003,0,0,-1.00006,2.0964967,163.19083)" stroke-width="1.49442" stroke-linecap="butt" stroke-miterlimit="10" stroke-linejoin="miter" fill="none" stroke="#1414cc" d="M24.28363 30.25954 24.95477 33.83441 25.62592 37.31166 26.29707 40.69237 26.96823 43.97754 27.63937 47.16815 28.31053 50.26526 28.98167 53.26988 29.65282 56.18306 30.32397 59.00577 30.99512 61.73906 31.66628 64.38396 32.33743 66.94148 33.00856 69.41266 33.67972 71.79848 34.35088 74.10002 35.02202 76.31825 35.69318 78.45422 36.36432 80.50896 37.03548 82.48346 37.70662 84.37877 38.37776 86.1959 39.04892 87.93588 39.72008 89.59972 40.39122 91.18846 41.06238 92.7031 41.7335 94.14468 42.40466 95.51422 43.07582 96.81273 43.74696 98.04124 44.41812 99.20078 45.08928 100.29234 45.76042 101.317 46.43156 102.27573 47.1027 103.16957 47.77386 103.99954 48.44502 104.76666 49.11617 105.47197 49.78732 106.11649 50.45847 106.70119 51.12961 107.22717 51.80077 107.69542 52.47192 108.10693 53.14307 108.46277 53.81422 108.76392 54.48537 109.01143 55.15651 109.20634 55.82767 109.34961 56.49881 109.44234 57.16997 109.48547 57.84113 109.4801 58.51227 109.42719 59.18341 109.3278 59.85455 109.18294 60.52571 108.99365 61.19687 108.76091 61.86801 108.48576 62.53917 108.16927 63.21031 107.81238 63.88145 107.41618 64.55261 106.98163 65.22375 106.50983 65.89491 106.00174 66.56607 105.45837 67.23721 104.88084 67.90836 104.27007 68.57951 103.6271 69.25066 102.953 69.92181 102.24876 70.59296 101.5154 71.26411 100.75394 71.93526 99.96541 72.6064 99.15083 73.27756 98.31122 73.94872 97.4476 74.61986 96.56102 75.29102 95.65247 75.96216 94.72298 76.6333 93.77356 77.30446 92.80525 77.9756 91.81909 78.64676 90.81607 79.31792 89.7972 79.98906 88.76353 80.6602 87.71611 81.33134 86.65588 82.0025 85.58394 82.67366 84.50128 83.3448 83.40892 84.01596 82.30788 84.68712 81.1992 85.35825 80.0839 86.0294 78.96297 86.70056 77.83746 87.3717 76.7084 88.04286 75.5768 88.714 74.44365 89.38516 73.31004 90.0563 72.17694 90.72745 71.0454 91.3986 69.91641 92.06976 68.79102 92.7409 67.67024 93.41206 66.5551 94.08319 65.44662 94.75435 64.34581 95.4255 63.25372 96.09665 62.17136 96.7678 61.09972 97.43896 60.03986 98.1101 58.9928 98.78125 57.95956 99.4524 56.94115 100.12355 55.93857 100.79471 54.9529 101.46585 53.98512 102.13701 53.03625 102.80817 52.10736 103.47931 51.19942 104.15045 50.31345 104.8216 49.45052 105.49275 48.61162 106.16391 47.79773 106.83505 47.00998 107.50621 46.24931 108.17737 45.51678 108.8485 44.81339 109.51965 44.14014 110.1908 43.49811 110.86195 42.88828 111.53311 42.31169 112.20425 41.76933 112.8754 41.26225 113.54655 40.79149 114.2177 40.35803 114.88885 39.96294 115.56 39.6072 116.23116 39.29185 116.90231 39.01791 117.57344 38.7864 118.2446 38.59836 118.91576 38.45477 119.5869 38.35669 120.25806 38.30516 120.92921 38.30115 121.60034 38.34567 122.2715 38.43982 122.94264 38.58458 123.6138 38.78096 124.28496 39.03 124.9561 39.33269 125.62726 39.6901 126.2984 40.10326 126.96954 40.57309 127.6407 41.10072 128.31185 41.68713 128.983 42.33337 129.65416 43.04044 130.32529 43.80934 130.99645 44.64111 131.6676 45.5368 132.33875 46.49742 133.0099 47.52396 133.68105 48.61746 134.35219 49.77893 135.02335 51.00945 135.69449 52.30997 136.36565 53.68153 137.0368 55.1252 137.70795 56.64194 138.3791 58.23282 139.05023 59.89882 139.72139 61.64096 140.39255 63.46031 141.06369 65.35788 141.73485 67.33466 142.406 69.39171 143.07714 71.53001 143.74829 73.75061 144.41944 76.05453 145.09059 78.4428 145.76175 80.91641 146.43289 83.47641 147.10405 86.12383 147.77519 88.85966 148.44634 91.68495 149.1175 94.60071 149.78864 97.60796 150.4598 100.70772 151.13095 103.90103 151.80208 107.18889 152.47324 110.57234 153.1444 114.0524 153.81554 117.63008 154.4867 121.3064 155.15785 125.08238 155.829 128.95909 156.50014 132.93752 157.17128 137.01863 157.84244 141.20354"/>
<path transform="matrix(1.00003,0,0,-1.00006,2.0964967,163.19083)" d="M24.28363 30.25954" fill="#ffffff"/>
<path transform="matrix(1.00003,0,0,-1.00006,2.0964967,163.19083)" stroke-width=".99628" stroke-linecap="butt" stroke-miterlimit="10" stroke-linejoin="miter" fill="none" stroke="#1414cc" d="M24.28363 30.25954"/>
<path transform="matrix(1.00003,0,0,-1.00006,2.0964967,163.19083)" d="M157.84366 141.21117" fill="#1414cc"/>
<path transform="matrix(1.00003,0,0,-1.00006,2.0964967,163.19083)" stroke-width=".99628" stroke-linecap="butt" stroke-miterlimit="10" stroke-linejoin="miter" fill="none" stroke="#1414cc" d="M157.84366 141.21117"/>
</g>
<path transform="matrix(1.00003,0,0,-1.00006,2.0964967,163.19083)" d="M26.27618 30.25954C26.27618 31.36 25.38411 32.25209 24.28363 32.25209 23.18317 32.25209 22.29108 31.36 22.29108 30.25954 22.29108 29.15906 23.18317 28.26698 24.28363 28.26698 25.38411 28.26698 26.27618 29.15906 26.27618 30.25954ZM24.28363 30.25954" fill="#ffffff"/>
<path transform="matrix(1.00003,0,0,-1.00006,2.0964967,163.19083)" stroke-width=".99628" stroke-linecap="butt" stroke-miterlimit="10" stroke-linejoin="miter" fill="none" stroke="#1414cc" d="M26.27618 30.25954C26.27618 31.36 25.38411 32.25209 24.28363 32.25209 23.18317 32.25209 22.29108 31.36 22.29108 30.25954 22.29108 29.15906 23.18317 28.26698 24.28363 28.26698 25.38411 28.26698 26.27618 29.15906 26.27618 30.25954ZM24.28363 30.25954"/>
<path transform="matrix(1.00003,0,0,-1.00006,2.0964967,163.19083)" d="" fill="#ffffff"/>
<path transform="matrix(1.00003,0,0,-1.00006,2.0964967,163.19083)" stroke-width=".99628" stroke-linecap="butt" stroke-miterlimit="10" stroke-linejoin="miter" fill="none" stroke="#1414cc" d=""/>
<path transform="matrix(1.00003,0,0,-1.00006,2.0964967,163.19083)" d="M159.83621 141.21117C159.83621 142.31165 158.94412 143.20372 157.84366 143.20372 156.74318 143.20372 155.8511 142.31165 155.8511 141.21117 155.8511 140.1107 156.74318 139.21862 157.84366 139.21862 158.94412 139.21862 159.83621 140.1107 159.83621 141.21117ZM157.84366 141.21117" fill="#1414cc"/>
<path transform="matrix(1.00003,0,0,-1.00006,2.0964967,163.19083)" stroke-width=".99628" stroke-linecap="butt" stroke-miterlimit="10" stroke-linejoin="miter" fill="none" stroke="#1414cc" d="M159.83621 141.21117C159.83621 142.31165 158.94412 143.20372 157.84366 143.20372 156.74318 143.20372 155.8511 142.31165 155.8511 141.21117 155.8511 140.1107 156.74318 139.21862 157.84366 139.21862 158.94412 139.21862 159.83621 140.1107 159.83621 141.21117ZM157.84366 141.21117"/>
<path transform="matrix(1.00003,0,0,-1.00006,2.0964967,163.19083)" d="" fill="#1414cc"/>
<path transform="matrix(1.00003,0,0,-1.00006,2.0964967,163.19083)" stroke-width=".99628" stroke-linecap="butt" stroke-miterlimit="10" stroke-linejoin="miter" fill="none" stroke="#1414cc" d=""/>
<use data-text="x" xlink:href="#font_4_1" transform="matrix(9.962899,0,0,-9.963197,187.19205,78.95978)"/>
<use data-text="y" xlink:href="#font_4_2" transform="matrix(9.962899,0,0,-9.963197,102.77552,9.583603)"/>
</svg>
