<svg xmlns="http://www.w3.org/2000/svg" xmlns:xlink="http://www.w3.org/1999/xlink" xmlns:inkscape="http://www.inkscape.org/namespaces/inkscape" version="1.1" width="198" height="82" viewBox="0 0 198 82">
<defs>
<path id="font_1_1" d="M.6589966 .23046875C.6759949 .23046875 .69400027 .23046875 .69400027 .25045777 .69400027 .27046205 .6759949 .27046205 .6589966 .27046205H.117996219C.100997928 .27046205 .08299255 .27046205 .08299255 .25045777 .08299255 .23046875 .100997928 .23046875 .117996219 .23046875H.6589966Z"/>
<path id="font_2_4" d="M.16299439 .4569702C.116989139 .486969 .11299133 .52098086 .11299133 .5379791 .11299133 .598999 .17799378 .64100649 .24899292 .64100649 .32199098 .64100649 .38598634 .58898928 .38598634 .51698306 .38598634 .45996095 .34700013 .4119568 .2869873 .37695313L.16299439 .4569702M.30899049 .36193849C.3809967 .3989563 .42999269 .45095826 .42999269 .51698306 .42999269 .6090088 .34098817 .6660156 .25 .6660156 .1499939 .6660156 .068984989 .59199526 .068984989 .49897767 .068984989 .4809723 .070999149 .43595887 .11299133 .38894654 .12399292 .37695313 .16099549 .35194398 .18598938 .33494569 .12799073 .30592347 .041992189 .24984741 .041992189 .15072632 .041992189 .04458618 .14399719-.022460938 .24899292-.022460938 .3619995-.022460938 .45700074 .06060791 .45700074 .16773987 .45700074 .20379639 .44599916 .24885559 .4079895 .2909088 .3889923 .31193543 .37298585 .3219452 .30899049 .36193849M.20899964 .3199463 .33198548 .24183655C.3600006 .2228241 .40699769 .19277954 .40699769 .13169861 .40699769 .05760193 .33198548 .0055389406 .25 .0055389406 .1639862 .0055389406 .09199524 .067611698 .09199524 .15072632 .09199524 .20880127 .12399292 .27288819 .20899964 .3199463Z"/>
<path id="font_2_3" d="M.13198853 .327713V.35173036C.13198853 .6047821 .2559967 .64100649 .30699159 .64100649 .33099366 .64100649 .37298585 .634964 .394989 .6007538 .37998963 .6007538 .33999635 .6007538 .33999635 .5557556 .33999635 .524765 .3639984 .5097656 .38598634 .5097656 .4019928 .5097656 .43199159 .51875308 .43199159 .5577545 .43199159 .6178589 .3880005 .6660156 .30499269 .6660156 .1769867 .6660156 .041992189 .5367584 .041992189 .31570436 .041992189 .048553468 .1579895-.022460938 .25099183-.022460938 .3619995-.022460938 .45700074 .07156372 .45700074 .2036438 .45700074 .33070375 .36799623 .4267578 .25698854 .4267578 .18899536 .4267578 .1519928 .37573243 .13198853 .327713M.25099183 .0055389406C.18798828 .0055389406 .1579895 .06556702 .1519928 .080566409 .13398743 .127594 .13398743 .2076416 .13398743 .22564698 .13398743 .30369569 .1659851 .40374757 .2559967 .40374757 .27198792 .40374757 .31799317 .40374757 .34899903 .34172059 .36698915 .30470277 .36698915 .2536621 .36698915 .20463562 .36698915 .15661621 .36698915 .10658264 .34999085 .0705719 .31999208 .010528564 .27398683 .0055389406 .25099183 .0055389406Z"/>
<path id="font_2_2" d="M.2939911 .16503906V.07800293C.2939911 .041992189 .2919922 .0309906 .21798706 .0309906H.19699097V0C.23799134 .0029907227 .2899933 .0029907227 .33198548 .0029907227 .37399293 .0029907227 .4269867 .0029907227 .46798707 0V.0309906H.44699098C.37298585 .0309906 .37098695 .041992189 .37098695 .07800293V.16503906H.47099305V.19602967H.37098695V.65075686C.37098695 .67074587 .37098695 .6767578 .35499574 .6767578 .34599305 .6767578 .34298707 .6767578 .33499146 .66474917L.027999878 .19602967V.16503906H.2939911M.2999878 .19602967H.055999757L.2999878 .5688019V.19602967Z"/>
<path id="font_2_1" d="M.1269989 .07699585 .23298645 .18003845C.3889923 .31811524 .44898988 .3721466 .44898988 .47216798 .44898988 .5860901 .35899354 .6660156 .23699951 .6660156 .12399292 .6660156 .049987794 .57411196 .049987794 .48516847 .049987794 .4291687 .099990848 .4291687 .102996829 .4291687 .11999512 .4291687 .15499878 .44117738 .15499878 .48217774 .15499878 .5081787 .13699341 .5341797 .101989749 .5341797 .09399414 .5341797 .09199524 .5341797 .08898926 .5331726 .11199951 .59806826 .1659851 .63500979 .22399903 .63500979 .31498719 .63500979 .35798646 .5541382 .35798646 .47216798 .35798646 .39215089 .30799867 .31311036 .25299073 .25108338L.06098938 .036987306C.049987794 .025985718 .049987794 .023986817 .049987794 0H.42099L.44898988 .17404175H.42399598C.4189911 .14402771 .4119873 .1000061 .4019928 .084991458 .394989 .07699585 .32899476 .07699585 .30699159 .07699585H.1269989Z"/>
<clipPath id="clip_3">
<path transform="matrix(1.00005,0,0,-1.00008,2.0961457,80.71217)" d="M0 .01015H194.27216V78.90842H0Z"/>
</clipPath>
<path id="font_4_1" d="M.33399964 .30233766C.33999635 .32835389 .36299134 .42037965 .43299867 .42037965 .43798829 .42037965 .46199037 .42037965 .48298646 .40734864 .45498658 .402359 .43499757 .37734986 .43499757 .35334779 .43499757 .33735658 .44599916 .31835938 .47299195 .31835938 .49499513 .31835938 .5269928 .3363495 .5269928 .37635804 .5269928 .42837525 .46798707 .4423828 .43399049 .4423828 .37599183 .4423828 .34098817 .38935853 .32899476 .36634828 .3039856 .43237306 .25 .4423828 .22099304 .4423828 .116989139 .4423828 .05999756 .3133545 .05999756 .28834535 .05999756 .27833558 .069992069 .27833558 .07199097 .27833558 .07998657 .27833558 .08299255 .28033448 .084991458 .28933717 .11898804 .39535523 .18499756 .42037965 .21899414 .42037965 .23799134 .42037965 .272995 .4113617 .272995 .35334779 .272995 .32235719 .2559967 .25532533 .21899414 .11528015 .20298767 .053268434 .16799927 .011245728 .12399292 .011245728 .117996219 .011245728 .09498596 .011245728 .07398987 .024276734 .09899902 .029266358 .12098694 .05027771 .12098694 .07827759 .12098694 .105270389 .09899902 .11328125 .083999637 .11328125 .053985597 .11328125 .0289917 .08728027 .0289917 .055267335 .0289917 .009246826 .07899475-.0107421879 .12298584-.0107421879 .18899536-.0107421879 .22499085 .059280397 .22799683 .0652771 .23999024 .028274537 .27598573-.0107421879 .33599855-.0107421879 .43899537-.0107421879 .49598695 .118270877 .49598695 .14328003 .49598695 .1532898 .4869995 .1532898 .48399354 .1532898 .47499085 .1532898 .47299195 .14929199 .47099305 .14228821 .43798829 .03527832 .36999513 .011245728 .33799745 .011245728 .29899598 .011245728 .2829895 .043273927 .2829895 .07727051 .2829895 .09927368 .2889862 .121276859 .2999878 .16529846L.33399964 .30233766Z"/>
<path id="font_4_2" d="M.48599244 .38136292C.48999024 .39537049 .48999024 .39736939 .48999024 .40437318 .48999024 .42237855 .47599793 .43138124 .46099855 .43138124 .45098878 .43138124 .43499757 .42536927 .42599488 .41036988 .42399598 .405365 .41600038 .37435914 .4119873 .35635377 .40499879 .33035279 .397995 .30334474 .3919983 .27633668L.34700013 .09628296C.34298707 .08126831 .2999878 .011245728 .23399353 .011245728 .18299866 .011245728 .17199707 .055267335 .17199707 .0922699 .17199707 .1382904 .18899536 .20030213 .22299195 .28833009 .23899842 .3293457 .24299622 .3403473 .24299622 .36035157 .24299622 .405365 .21099854 .4423828 .16099549 .4423828 .06599426 .4423828 .0289917 .29733277 .0289917 .28833009 .0289917 .27833558 .038986207 .27833558 .040985109 .27833558 .050994874 .27833558 .051986696 .28033448 .056991579 .29634095 .083999637 .3903656 .12399292 .42037965 .1579895 .42037965 .1659851 .42037965 .18299866 .42037965 .18299866 .3883667 .18299866 .36335755 .17298889 .3373413 .1659851 .31834413 .12599182 .21231079 .10798645 .1552887 .10798645 .10827637 .10798645 .019256592 .17098999-.0107421879 .22999573-.0107421879 .2689972-.0107421879 .30299378 .0062561037 .33099366 .03425598 .31799317-.017745972 .30599977-.06674194 .2659912-.11973572 .23999024-.15385437 .20199585-.18309021 .1559906-.18309021 .14199829-.18309021 .09700012-.18005371 .07998657-.14074707 .09599304-.14074707 .10899353-.14074707 .12298584-.1287384 .1329956-.11973572 .14299011-.10673523 .14299011-.08773804 .14299011-.056747438 .115997318-.052734376 .10598755-.052734376 .08299255-.052734376 .049987794-.068740848 .049987794-.11773682 .049987794-.16796875 .09399414-.20507813 .1559906-.20507813 .25898744-.20507813 .3619995-.11373901 .3899994-.00074768069L.48599244 .38136292Z"/>
</defs>
<path transform="matrix(1.00005,0,0,-1.00008,2.0961457,80.71217)" stroke-width=".3985" stroke-linecap="butt" stroke-miterlimit="10" stroke-linejoin="miter" fill="none" stroke="#404040" d="M0 .01015H194.27216V78.90842H0Z"/>
<path transform="matrix(1.00005,0,0,-1.00008,2.0961457,80.71217)" stroke-width=".3985" stroke-linecap="butt" stroke-miterlimit="10" stroke-linejoin="miter" fill="none" stroke="#bfbfbf" d="M9.71361 .01015V78.90842M29.14082 .01015V78.90842M48.56804 .01015V78.90842M67.99525 .01015V78.90842M87.42247 .01015V78.90842M106.84969 .01015V78.90842M126.2769 .01015V78.90842M145.70412 .01015V78.90842M165.13134 .01015V78.90842M184.55855 .01015V78.90842"/>
<path transform="matrix(1.00005,0,0,-1.00008,2.0961457,80.71217)" stroke-width=".3985" stroke-linecap="butt" stroke-miterlimit="10" stroke-linejoin="miter" fill="none" stroke="#bfbfbf" d="M19.42722 .01015V78.90842M38.85443 .01015V78.90842M58.28165 .01015V78.90842M77.70886 .01015V78.90842M116.5633 .01015V78.90842M135.99051 .01015V78.90842M155.41773 .01015V78.90842M174.84494 .01015V78.90842"/>
<path transform="matrix(1.00005,0,0,-1.00008,2.0961457,80.71217)" stroke-width=".3985" stroke-linecap="butt" stroke-miterlimit="10" stroke-linejoin="miter" fill="none" stroke="#bfbfbf" d="M0 .01015H194.27216M0 15.7898H194.27216M0 31.56946H194.27216M0 47.3491H194.27216M0 63.12877H194.27216M0 78.90842H194.27216"/>
<path transform="matrix(1.00005,0,0,-1.00008,2.0961457,80.71217)" stroke-width=".3985" stroke-linecap="butt" stroke-miterlimit="10" stroke-linejoin="miter" fill="none" stroke="#bfbfbf" d="M0 7.89998H194.27216M0 23.67963H194.27216M0 55.23894H194.27216M0 71.01859H194.27216"/>
<path transform="matrix(1.00005,0,0,-1.00008,2.0961457,80.71217)" stroke-width=".19925" stroke-linecap="butt" stroke-miterlimit="10" stroke-linejoin="miter" fill="none" stroke="#7f807f" d="M9.71361 38.04198V40.87659M29.14082 38.04198V40.87659M48.56804 38.04198V40.87659M67.99525 38.04198V40.87659M87.42247 38.04198V40.87659M106.84969 38.04198V40.87659M126.2769 38.04198V40.87659M145.70412 38.04198V40.87659M165.13134 38.04198V40.87659M184.55855 38.04198V40.87659"/>
<path transform="matrix(1.00005,0,0,-1.00008,2.0961457,80.71217)" stroke-width=".19925" stroke-linecap="butt" stroke-miterlimit="10" stroke-linejoin="miter" fill="none" stroke="#7f807f" d="M19.42722 37.33353V41.58504M38.85443 37.33353V41.58504M58.28165 37.33353V41.58504M77.70886 37.33353V41.58504M116.5633 37.33353V41.58504M135.99051 37.33353V41.58504M155.41773 37.33353V41.58504M174.84494 37.33353V41.58504"/>
<path transform="matrix(1.00005,0,0,-1.00008,2.0961457,80.71217)" stroke-width=".19925" stroke-linecap="butt" stroke-miterlimit="10" stroke-linejoin="miter" fill="none" stroke="#7f807f" d="M95.71872 .01015H98.55344M95.71872 15.7898H98.55344M95.71872 31.56946H98.55344M95.71872 47.3491H98.55344M95.71872 63.12877H98.55344M95.71872 78.90842H98.55344"/>
<path transform="matrix(1.00005,0,0,-1.00008,2.0961457,80.71217)" stroke-width=".19925" stroke-linecap="butt" stroke-miterlimit="10" stroke-linejoin="miter" fill="none" stroke="#7f807f" d="M95.01024 7.89998H99.26189M95.01024 23.67963H99.26189M95.01024 55.23894H99.26189M95.01024 71.01859H99.26189"/>
<path transform="matrix(1.00005,0,0,-1.00008,2.0961457,80.71217)" stroke-width=".3985" stroke-linecap="butt" stroke-miterlimit="10" stroke-linejoin="miter" fill="none" stroke="#000000" d="M0 39.45927H192.27964"/>
<path transform="matrix(1.00005,0,0,-1.00008,194.38538,41.24975)" d="M1.99252 0-1.19551 1.59401 0 0-1.19551-1.59401"/>
<path transform="matrix(1.00005,0,0,-1.00008,2.0961457,80.71217)" stroke-width=".3985" stroke-linecap="butt" stroke-miterlimit="10" stroke-linejoin="miter" fill="none" stroke="#000000" d="M97.13608 .01015V76.9159"/>
<path transform="matrix(0,-1.00008,-1.00005,-0,99.237079,3.790123)" d="M1.99252 0-1.19551 1.59401 0 0-1.19551-1.59401"/>
<use data-text="&#x2212;" xlink:href="#font_1_1" transform="matrix(9.963098,0,0,-9.963397,15.158798,53.316984)"/>
<use data-text="8" xlink:href="#font_2_4" transform="matrix(9.963098,0,0,-9.963397,22.908188,53.316984)"/>
<use data-text="&#x2212;" xlink:href="#font_1_1" transform="matrix(9.963098,0,0,-9.963397,34.586767,53.316984)"/>
<use data-text="6" xlink:href="#font_2_3" transform="matrix(9.963098,0,0,-9.963397,42.336156,53.316984)"/>
<use data-text="&#x2212;" xlink:href="#font_1_1" transform="matrix(9.963098,0,0,-9.963397,54.01574,53.316984)"/>
<use data-text="4" xlink:href="#font_2_2" transform="matrix(9.963098,0,0,-9.963397,61.76513,53.316984)"/>
<use data-text="&#x2212;" xlink:href="#font_1_1" transform="matrix(9.963098,0,0,-9.963397,73.44371,53.316984)"/>
<use data-text="2" xlink:href="#font_2_1" transform="matrix(9.963098,0,0,-9.963397,81.1931,53.316984)"/>
<use data-text="2" xlink:href="#font_2_1" transform="matrix(9.963098,0,0,-9.963397,116.17484,53.316984)"/>
<use data-text="4" xlink:href="#font_2_2" transform="matrix(9.963098,0,0,-9.963397,135.60282,53.316984)"/>
<use data-text="6" xlink:href="#font_2_3" transform="matrix(9.963098,0,0,-9.963397,155.03079,53.316984)"/>
<use data-text="8" xlink:href="#font_2_4" transform="matrix(9.963098,0,0,-9.963397,174.45876,53.316984)"/>
<use data-text="&#x2212;" xlink:href="#font_1_1" transform="matrix(9.963098,0,0,-9.963397,80.860088,75.606769)"/>
<use data-text="4" xlink:href="#font_2_2" transform="matrix(9.963098,0,0,-9.963397,88.609477,75.606769)"/>
<use data-text="&#x2212;" xlink:href="#font_1_1" transform="matrix(9.963098,0,0,-9.963397,80.860088,59.8255)"/>
<use data-text="2" xlink:href="#font_2_1" transform="matrix(9.963098,0,0,-9.963397,88.609477,59.8255)"/>
<use data-text="2" xlink:href="#font_2_1" transform="matrix(9.963098,0,0,-9.963397,88.60947,28.679013)"/>
<use data-text="4" xlink:href="#font_2_2" transform="matrix(9.963098,0,0,-9.963397,88.60947,12.89875)"/>
<g clip-path="url(#clip_3)">
<path transform="matrix(1.00005,0,0,-1.00008,2.0961457,80.71217)" stroke-width="1.24535" stroke-linecap="butt" stroke-miterlimit="10" stroke-linejoin="miter" fill="none" stroke="#1414cc" d="M11.12729 .97433 11.05797 .5538 11.1493 1.1048 11.24063 1.65294 11.33195 2.19833 11.42328 2.7409 11.5146 3.28076 11.60594 3.81781 11.69725 4.35199 11.78857 4.88344 11.8799 5.41206 11.97124 5.93796 12.06256 6.46107 12.15388 6.98131 12.24521 7.49884 12.33653 8.0135 12.42787 8.52545 12.5192 9.03459 12.6105 9.54088 12.70184 10.04446 12.79315 10.54517 12.88449 11.04317 12.97583 11.53838 13.06714 12.03072 13.15848 12.52034 13.24979 13.00713 13.34113 13.49115 13.43246 13.97243 13.52376 14.4508 13.6151 14.92651 13.70642 15.3993 13.79774 15.86943 13.88908 16.33672 13.98041 16.80116 14.07173 17.26291 14.16306 17.72176 14.25438 18.17792 14.34572 18.63127 14.43704 19.08179 14.52835 19.52956 14.61967 19.97449 14.71101 20.41669 14.80234 20.8561 14.89366 21.29265 14.98499 21.72647 15.07631 22.15746 15.16765 22.5857 15.25897 23.01118 15.3503 23.43376 15.44162 23.85365 15.53293 24.27069 15.62427 24.685 15.7156 25.09651 15.80692 25.50516 15.89825 25.91109 15.98956 26.31418 16.0809 26.71454 16.17224 27.11209 16.26355 27.5068 16.35487 27.89879 16.4462 28.28792 16.53752 28.67433 16.62886 29.05794 16.72018 29.43872 16.81151 29.81673 16.90283 30.19194 16.99416 30.56438 17.0855 30.93404 17.17682 31.30087 17.26814 31.66493 17.35945 32.02618 17.45079 32.3847 17.54211 32.7404 17.63344 33.09328 17.72476 33.4434 17.81609 33.79071 17.90742 34.13525 17.99875 34.47702 18.09007 34.81596 18.18141 35.15213 18.2727 35.48547 18.36404 35.81609 18.45538 36.1439 18.54669 36.46889 18.63803 36.79112 18.72934 37.11052 18.82068 37.42719 18.91202 37.74106 19.00333 38.05208 19.09467 38.36037 19.18599 38.66582 19.2773 38.96854 19.36864 39.26843 19.45996 39.56552 19.55128 39.85985 19.64261 40.15138 19.73393 40.44012 19.82527 40.72607 19.9166 41.00925 20.00792 41.28961 20.09924 41.56718 20.19057 41.842 20.28189 42.11398 20.37321 42.3832 20.46454 42.64963 20.55586 42.91327 20.6472 43.17412 20.73853 43.43216 20.82985 43.68742 20.92119 43.9399 21.0125 44.18959 21.10382 44.43648 21.19516 44.68059 21.28647 44.9219 21.3778 45.16043 21.46912 45.39616 21.56046 45.6291 21.6518 45.85927 21.7431 46.08664 21.83444 46.31122 21.92577 46.533 22.01709 46.752 22.10841 46.96822 22.19974 47.18164 22.29106 47.39227 22.38239 47.60011 22.47371 47.80516 22.56505 48.00742 22.65637 48.2069 22.7477 48.40358 22.83902 48.59746 22.93036 48.78857 23.02167 48.97687 23.11299 49.1624 23.20432 49.34514 23.29564 49.52507 23.38698 49.70224 23.4783 49.8766 23.56963 50.04817 23.66096 50.21696 23.75227 50.38295 23.84361 50.54616 23.93494 50.70657 24.02625 50.8642 24.11758 51.01903 24.2089 51.17108 24.30023 51.32034 24.39157 51.46681 24.48288 51.61047 24.57422 51.75137 24.66554 51.88947 24.75687 52.02478 24.8482 52.1573 24.93951 52.28703 25.03084 52.41397 25.12216 52.53812 25.21349 52.65948 25.30482 52.77806 25.39615 52.89383 25.48747 53.00682 25.5788 53.11703 25.67014 53.22443 25.76146 53.32907 25.85277 53.4309 25.94409 53.52992 26.03542 53.62619 26.12675 53.71965 26.21808 53.81033 26.3094 53.89821 26.40074 53.98329 26.49205 54.0656 26.58339 54.14513 26.67473 54.22185 26.76604 54.29579 26.85736 54.36693 26.94867 54.43529 27.04001 54.50085 27.13135 54.56363 27.22266 54.62363 27.314 54.68082 27.40532 54.73521 27.49664 54.78685 27.58798 54.83568 27.6793 54.8817 27.77061 54.92496 27.86194 54.96542 27.95326 55.0031 28.0446 55.03796 28.13593 55.07005 28.22725 55.09937 28.31857 55.12587 28.40991 55.1496 28.50124 55.17053 28.59256 55.18866 28.68387 55.20401 28.77519 55.21657 28.86653 55.22635 28.95786 55.23334 29.04918 55.23753 29.14052 55.23894"/>
<path transform="matrix(-.16269812,.9866989,.9866693,.16270301,13.224002,79.73776)" stroke-width=".99628" stroke-linecap="round" stroke-linejoin="round" fill="none" stroke="#1414cc" d="M-1.95767 2.61023C-1.79453 1.6314 0 .16313 .48941 0 0-.16313-1.79453-1.6314-1.95767-2.61023"/>
<path transform="matrix(1.00005,0,0,-1.00008,2.0961457,80.71217)" stroke-width="1.24535" stroke-linecap="butt" stroke-miterlimit="10" stroke-linejoin="miter" fill="none" stroke="#1414cc" d="M29.14082 55.23894 29.23843 55.23854 29.33606 55.23734 29.43367 55.23535 29.5313 55.23256 29.62892 55.22897 29.72653 55.22458 29.82414 55.21942 29.92177 55.21344 30.0194 55.20667 30.117 55.1991 30.21465 55.19073 30.31227 55.18156 30.40988 55.1716 30.50749 55.16084 30.60512 55.14929 30.70274 55.13693 30.80035 55.12378 30.89798 55.10983 30.9956 55.0951 31.09322 55.07956 31.19083 55.06322 31.28848 55.04608 31.3861 55.02815 31.4837 55.00943 31.58133 54.98991 31.67896 54.96959 31.77657 54.94847 31.87418 54.92656 31.97182 54.90385 32.06943 54.88034 32.16704 54.85605 32.26468 54.83093 32.3623 54.80504 32.45992 54.77835 32.55754 54.75084 32.65517 54.72255 32.75278 54.69347 32.85039 54.66359 32.94801 54.6329 33.04564 54.60144 33.14325 54.56917 33.24088 54.53609 33.33852 54.50221 33.43613 54.46756 33.53374 54.43208 33.63136 54.39583 33.72899 54.35878 33.8266 54.32094 33.92422 54.28229 34.02185 54.24284 34.11946 54.2026 34.21709 54.16156 34.3147 54.11972 34.41234 54.07709 34.50996 54.03366 34.60757 53.98944 34.7052 53.94441 34.80281 53.89859 34.90044 53.85197 34.99805 53.80455 35.09567 53.75635 35.1933 53.70734 35.29091 53.65753 35.38853 53.60693 35.48618 53.55553 35.58379 53.50334 35.6814 53.45035 35.77902 53.39656 35.87665 53.34196 35.97426 53.28659 36.07188 53.23041 36.16951 53.17343 36.26712 53.11566 36.36473 53.05708 36.46236 52.99773 36.56 52.93755 36.65761 52.87659 36.75523 52.81485 36.85286 52.75229 36.95047 52.68892 37.04808 52.62479 37.14572 52.55984 37.24333 52.4941 37.34094 52.42755 37.43857 52.36023 37.5362 52.2921 37.63382 52.22314 37.73143 52.15344 37.82907 52.08292 37.92668 52.01158 38.02429 51.93947 38.12192 51.86656 38.21954 51.79285 38.31715 51.71834 38.41476 51.64304 38.5124 51.56693 38.61002 51.49004 38.70764 51.41234 38.80527 51.33385 38.9029 51.25456 39.0005 51.17447 39.09813 51.09358 39.19576 51.0119 39.29337 50.92943 39.39098 50.84616 39.4886 50.76207 39.58623 50.67722 39.68384 50.59155 39.78148 50.50508 39.8791 50.41785 39.97672 50.32979 40.07434 50.24092 40.17195 50.15128 40.26958 50.06084 40.36719 49.96959 40.46481 49.87755 40.56244 49.78473 40.66005 49.6911 40.75768 49.59666 40.8553 49.50143 40.95293 49.40541 41.05055 49.30858 41.14816 49.21097 41.24577 49.11255 41.3434 49.01335 41.44102 48.91333 41.53864 48.81253 41.63626 48.71094 41.73389 48.60852 41.8315 48.50533 41.92912 48.40134 42.02676 48.29654 42.12437 48.19096 42.22198 48.0846 42.31963 47.97739 42.41724 47.86943 42.51485 47.76065 42.61246 47.6511 42.7101 47.54071 42.80771 47.42955 42.90532 47.3176 43.00298 47.20482 43.10059 47.09126 43.1982 46.97693 43.29582 46.86177 43.39345 46.74583 43.49106 46.62907 43.58867 46.51155 43.68631 46.3932 43.78392 46.27408 43.88153 46.15416 43.97916 46.03342 44.0768 45.9119 44.17441 45.78958 44.27202 45.66647 44.36966 45.54256 44.46727 45.41783 44.56488 45.29234 44.6625 45.16602 44.76013 45.03893 44.85774 44.91103 44.95537 44.78233 45.05298 44.65283 45.15062 44.52255 45.24825 44.39146 45.34586 44.25958 45.44348 44.12689 45.54109 43.99344 45.63872 43.85915 45.73633 43.72408 45.83395 43.58821 45.93158 43.45154 46.02919 43.31407 46.12682 43.17583 46.22444 43.03677 46.32207 42.89693 46.41968 42.75627 46.5173 42.61484 46.61493 42.47256 46.71254 42.32954 46.81017 42.18571 46.90779 42.04106 47.0054 41.89565 47.10301 41.74944 47.20065 41.60242 47.29828 41.45457 47.39589 41.30595 47.49352 41.15656 47.59114 41.00633 47.68875 40.85533 47.78636 40.70354 47.884 40.5509 47.98161 40.39752 48.07922 40.24333 48.17686 40.08832 48.27449 39.93254 48.3721 39.77596 48.46971 39.61858 48.56735 39.46039"/>
<path transform="matrix(1.00005,0,0,-1.00008,2.0961457,80.71217)" stroke-width="1.24535" stroke-linecap="butt" stroke-miterlimit="10" stroke-linejoin="miter" fill="none" stroke="#1414cc" d="M48.56804 39.45927 48.61684 39.38019 48.66565 39.3015 48.71445 39.22319 48.76326 39.1453 48.81209 39.0678 48.86089 38.9907 48.9097 38.914 48.95851 38.8377 49.00731 38.7618 49.05612 38.6863 49.10493 38.61119 49.15373 38.53647 49.20255 38.46217 49.25136 38.38826 49.30017 38.31474 49.34898 38.24164 49.39778 38.1689 49.4466 38.09659 49.4954 38.02467 49.54422 37.95314 49.59303 37.88203 49.64185 37.8113 49.69064 37.74097 49.73946 37.67104 49.78828 37.60152 49.83708 37.53238 49.8859 37.46365 49.9347 37.39532 49.9835 37.3274 50.03232 37.25984 50.08112 37.19272 50.12993 37.12598 50.17874 37.05963 50.22754 36.99368 50.27635 36.92813 50.32518 36.86299 50.37398 36.79825 50.42279 36.7339 50.4716 36.66995 50.5204 36.60638 50.56921 36.54324 50.61803 36.48048 50.66684 36.41812 50.71565 36.35616 50.76445 36.29462 50.81328 36.23344 50.86209 36.17267 50.91089 36.1123 50.9597 36.05235 51.00851 35.99277 51.05731 35.93361 51.10612 35.87483 51.15494 35.81647 51.20374 35.75848 51.25256 35.70091 51.30136 35.64374 51.35017 35.58696 51.39899 35.53058 51.44778 35.47458 51.4966 35.419 51.54541 35.36382 51.59421 35.30904 51.64304 35.25464 51.69185 35.20064 51.74066 35.14706 51.78947 35.09387 51.83829 35.04108 51.88708 34.98866 51.9359 34.93668 51.9847 34.88507 52.03351 34.83386 52.08232 34.78307 52.13112 34.73267 52.17993 34.68265 52.22876 34.63304 52.27756 34.58385 52.32637 34.53502 52.37518 34.4866 52.42398 34.4386 52.4728 34.39099 52.5216 34.34377 52.5704 34.29695 52.61922 34.25052 52.66801 34.2045 52.71684 34.15889 52.76567 34.11366 52.81447 34.06883 52.86328 34.02441 52.9121 33.98036 52.96089 33.93674 53.0097 33.89351 53.05852 33.85066 53.10732 33.80823 53.15613 33.7662 53.20494 33.72456 53.25375 33.68332 53.30257 33.64247 53.35136 33.60204 53.40018 33.56198 53.44899 33.52232 53.49779 33.48308 53.5466 33.44424 53.59541 33.40578 53.64421 33.36772 53.69302 33.33008 53.74185 33.29282 53.79066 33.25597 53.83948 33.2195 53.88829 33.18343 53.93709 33.14777 53.9859 33.11252 54.0347 33.07764 54.08351 33.04318 54.13232 33.00911 54.18114 32.97543 54.22995 32.94217 54.27876 32.90929 54.32756 32.87682 54.37637 32.84473 54.42519 32.81305 54.47398 32.78178 54.5228 32.75089 54.57161 32.72041 54.6204 32.69032 54.66924 32.66064 54.71803 32.63135 54.76685 32.60246 54.81566 32.57397 54.86447 32.54588 54.91328 32.51817 54.9621 32.49089 55.0109 32.46399 55.05971 32.43748 55.10852 32.41139 55.15733 32.38568 55.20615 32.36038 55.25494 32.33548 55.30376 32.31096 55.35257 32.28687 55.40137 32.26315 55.45018 32.23984 55.499 32.21692 55.54779 32.19441 55.5966 32.17229 55.64542 32.15057 55.69423 32.12926 55.74304 32.10834 55.79185 32.08781 55.84065 32.06769 55.88948 32.04796 55.93828 32.02863 55.98709 32.0097 56.0359 31.99117 56.0847 31.97304 56.13351 31.9553 56.18234 31.93797 56.23114 31.92104 56.27995 31.9045 56.32877 31.88835 56.37756 31.87262 56.42638 31.85727 56.47519 31.84233 56.52399 31.82777 56.5728 31.81363 56.62161 31.79988 56.67043 31.78653 56.71924 31.77357 56.76804 31.76102 56.81685 31.74887 56.86566 31.7371 56.91446 31.72574 56.96329 31.71478 57.0121 31.70422 57.0609 31.69406 57.10973 31.6843 57.15854 31.67493 57.20734 31.66595 57.25615 31.65738 57.30495 31.64922 57.35376 31.64145 57.40257 31.63406 57.45137 31.62709 57.50018 31.62051 57.549 31.61433 57.59781 31.60855 57.64662 31.60318 57.69543 31.59819 57.74423 31.5936 57.79305 31.58942 57.84186 31.58563 57.89066 31.58224 57.93947 31.57924 57.98827 31.57664 58.0371 31.57446 58.0859 31.57266 58.13472 31.57126 58.18353 31.57027 58.23235 31.56966 58.28114 31.56946"/>
<path transform="matrix(1.00005,0,0,-1.00008,2.0961457,80.71217)" stroke-width="1.24535" stroke-linecap="butt" stroke-miterlimit="10" stroke-linejoin="miter" fill="none" stroke="#1414cc" d="M58.28165 31.56946H58.37926 58.47688 58.5745 58.67212 58.76974 58.86736 58.96497 59.06259 59.16022 59.25784 59.35547 59.4531 59.5507 59.64832 59.74594 59.84357 59.94118 60.0388 60.13643 60.23404 60.33167 60.4293 60.52692 60.62453 60.72215 60.81978 60.91739 61.015 61.11264 61.21025 61.30786 61.40552 61.50313 61.60074 61.69836 61.79599 61.8936 61.99121 62.08884 62.18646 62.28407 62.3817 62.47934 62.57695 62.67456 62.77219 62.86981 62.96742 63.06505 63.16267 63.26028 63.35791 63.45552 63.55316 63.65079 63.7484 63.84602 63.94363 64.04126 64.13887 64.2365 64.33412 64.43173 64.52936 64.627 64.72461 64.82222 64.91985 65.01747 65.11508 65.2127 65.31033 65.40794 65.50555 65.6032 65.70082 65.79843 65.89606 65.99368 66.0913 66.1889 66.28654 66.38416 66.48177 66.57939 66.67703 66.77464 66.87225 66.9699 67.0675 67.16512 67.26274 67.36037 67.45798 67.55559 67.65323 67.75085 67.84846 67.94609 68.04372 68.14133 68.23895 68.33658 68.43419 68.5318 68.62943 68.72705 68.82468 68.9223 69.01993 69.11754 69.21516 69.31277 69.4104 69.50801 69.60564 69.70326 69.80087 69.89851 69.99612 70.09375 70.19138 70.28899 70.3866 70.48422 70.58185 70.67946 70.77708 70.87471 70.97234 71.06995 71.16759 71.2652 71.36281 71.46045 71.55806 71.65567 71.75328 71.85092 71.94853 72.04616 72.1438 72.24141 72.33902 72.43665 72.53427 72.63188 72.72949 72.82713 72.92474 73.02235 73.12 73.21762 73.31523 73.41284 73.51048 73.6081 73.7057 73.80333 73.90096 73.99857 74.09619 74.19382 74.29144 74.38907 74.48668 74.5843 74.68192 74.77954 74.87715 74.97478 75.0724 75.17001 75.26765 75.36526 75.46289 75.5605 75.65813 75.75575 75.85336 75.95099 76.04861 76.14622 76.24384 76.34148 76.4391 76.53671 76.63434 76.73196 76.82957 76.92719 77.02483 77.12244 77.22005 77.31769 77.41531 77.51292 77.61053 77.70818"/>
<path transform="matrix(1.00005,0,0,-1.00008,2.0961457,80.71217)" stroke-width="1.24535" stroke-linecap="butt" stroke-miterlimit="10" stroke-linejoin="miter" fill="none" stroke="#1414cc" d="M77.70886 31.56946 77.75766 31.56926 77.80647 31.56866 77.85527 31.56766 77.90408 31.56627 77.95291 31.56447 78.00171 31.56229 78.05052 31.5597 78.09933 31.5567 78.14813 31.55331 78.19695 31.54953 78.24576 31.54535 78.29456 31.54077 78.34337 31.53578 78.39218 31.5304 78.441 31.52463 78.4898 31.51845 78.5386 31.51189 78.58743 31.50491 78.63625 31.49753 78.68504 31.48976 78.73386 31.4816 78.78267 31.47302 78.83147 31.46408 78.88028 31.45471 78.92911 31.44495 78.9779 31.43478 79.02672 31.42422 79.07552 31.41327 79.12433 31.40192 79.17314 31.39017 79.22194 31.37802 79.27075 31.36546 79.31956 31.35251 79.36836 31.33916 79.41718 31.32542 79.466 31.31128 79.5148 31.29674 79.56361 31.28178 79.61243 31.26645 79.66124 31.25072 79.71005 31.23457 79.75885 31.21805 79.80766 31.20111 79.85648 31.18378 79.90527 31.16605 79.9541 31.14792 80.00291 31.1294 80.05171 31.11046 80.10052 31.09114 80.14934 31.07143 80.19814 31.0513 80.24695 31.03079 80.29576 31.00987 80.34456 30.98854 80.39339 30.96683 80.44218 30.94473 80.491 30.92221 80.53981 30.8993 80.58861 30.87599 80.63742 30.85228 80.68623 30.82817 80.73505 30.80368 80.78386 30.77876 80.83267 30.75348 80.88148 30.72778 80.9303 30.70168 80.97911 30.67519 81.02791 30.64828 81.07672 30.621 81.12552 30.5933 81.17433 30.56523 81.22314 30.53674 81.27194 30.50786 81.32076 30.47856 81.36958 30.44888 81.41838 30.41881 81.4672 30.38832 81.516 30.35745 81.5648 30.32616 81.61362 30.2945 81.66243 30.26242 81.71123 30.22995 81.76004 30.19708 81.80885 30.1638 81.85767 30.13014 81.9065 30.09608 81.95529 30.06161 82.0041 30.02675 82.05292 29.99149 82.10172 29.95583 82.15053 29.91977 82.19934 29.88332 82.24814 29.84647 82.29695 29.8092 82.34576 29.77156 82.39458 29.7335 82.44339 29.69507 82.49219 29.6562 82.541 29.61697 82.58981 29.57733 82.63861 29.53728 82.68742 29.49684 82.73624 29.456 82.78503 29.41476 82.83386 29.37314 82.88269 29.3311 82.93149 29.28867 82.9803 29.24583 83.02911 29.20259 83.07791 29.15898 83.12672 29.11494 83.17552 29.07053 83.22433 29.02571 83.27315 28.98048 83.32196 28.93486 83.37077 28.88884 83.41959 28.84244 83.46838 28.79561 83.5172 28.7484 83.56601 28.70078 83.6148 28.65277 83.66362 28.60437 83.71243 28.55556 83.76123 28.50636 83.81006 28.45676 83.85886 28.40674 83.90768 28.35635 83.9565 28.30554 84.0053 28.25435 84.05411 28.20274 84.10292 28.15076 84.15172 28.09837 84.20053 28.04558 84.24934 27.99239 84.29816 27.9388 84.34697 27.88481 84.39577 27.83041 84.44458 27.77565 84.4934 27.72046 84.54219 27.66489 84.591 27.6089 84.63982 27.55254 84.68861 27.49574 84.73743 27.43857 84.78624 27.38101 84.83505 27.32303 84.88387 27.26466 84.93268 27.20589 84.98149 27.14673 85.0303 27.08717 85.0791 27.02719 85.12791 26.96684 85.17673 26.90608 85.22552 26.84492 85.27434 26.78337 85.32317 26.7214 85.37196 26.65904 85.42078 26.59631 85.46959 26.53314 85.51839 26.4696 85.5672 26.40565 85.61601 26.34131 85.66481 26.27657 85.71362 26.21143 85.76244 26.14587 85.81125 26.07994 85.86006 26.0136 85.90886 25.94687 85.95767 25.87973 86.00648 25.81221 86.0553 25.74426 86.10411 25.67593 86.15292 25.60721 86.20172 25.53809 86.25055 25.46855 86.29936 25.39864 86.34816 25.32831 86.39697 25.2576 86.44577 25.18648 86.49458 25.11496 86.5434 25.04303 86.5922 24.97073 86.641 24.89801 86.68982 24.8249 86.73863 24.7514 86.78745 24.67749 86.83626 24.60318 86.88506 24.52847 86.93387 24.45337 86.98268 24.37787 87.03148 24.30197 87.0803 24.22566 87.1291 24.14897 87.17792 24.07188 87.22673 23.99438 87.27554 23.91649 87.32436 23.8382 87.37317 23.75952 87.42197 23.68042"/>
<path transform="matrix(1.00005,0,0,-1.00008,2.0961457,80.71217)" stroke-width="1.24535" stroke-linecap="butt" stroke-miterlimit="10" stroke-linejoin="miter" fill="none" stroke="#1414cc" d="M87.42247 23.67963 87.52008 23.52185 87.6177 23.36565 87.71532 23.21104 87.81294 23.05803 87.91057 22.90662 88.00818 22.7568 88.10579 22.60857 88.20343 22.46194 88.30106 22.31691 88.39868 22.17346 88.4963 22.03162 88.59392 21.89136 88.69154 21.75269 88.78915 21.61563 88.88678 21.48015 88.9844 21.34627 89.08202 21.21397 89.17964 21.08328 89.27727 20.9542 89.3749 20.82668 89.4725 20.70078 89.57014 20.57645 89.66776 20.45372 89.76538 20.3326 89.863 20.21304 89.96062 20.09511 90.05824 19.97874 90.15585 19.86401 90.25348 19.75084 90.3511 19.63928 90.44873 19.5293 90.54634 19.42091 90.64398 19.31412 90.7416 19.20892 90.83922 19.10533 90.93684 19.00333 91.03445 18.90291 91.13208 18.8041 91.22969 18.70686 91.32732 18.61124 91.42494 18.5172 91.52257 18.42476 91.6202 18.33391 91.71782 18.24464 91.81543 18.157 91.91306 18.07092 92.01068 17.98643 92.10829 17.90356 92.20592 17.82228 92.30354 17.74258 92.40115 17.66449 92.49878 17.58798 92.5964 17.51306 92.69403 17.43974 92.79166 17.36803 92.88927 17.2979 92.9869 17.22935 93.08452 17.16241 93.18213 17.09706 93.27975 17.03331 93.37738 16.97115 93.47499 16.91058 93.57262 16.85161 93.67024 16.79422 93.76787 16.73843 93.8655 16.68425 93.9631 16.63165 94.06073 16.58064 94.15836 16.53123 94.25597 16.48343 94.35358 16.4372 94.45122 16.39256 94.54883 16.34952 94.64645 16.30807 94.7441 16.26823 94.8417 16.22998 94.93933 16.19333 95.03694 16.15825 95.13457 16.12477 95.2322 16.0929 95.3298 16.06262 95.42743 16.03392 95.52505 16.00682 95.62267 15.98131 95.72029 15.9574 95.81793 15.93509 95.91554 15.91437 96.01317 15.89525 96.11078 15.8777 96.2084 15.86176 96.30603 15.84741 96.40364 15.83466 96.50127 15.82349 96.59889 15.81392 96.6965 15.80595 96.79413 15.79958 96.89177 15.79478 96.98938 15.7916 97.087 15.79H97.18463L97.28224 15.79158 97.37987 15.79477 97.47748 15.79955 97.5751 15.80591 97.67273 15.81387 97.77034 15.82344 97.86798 15.83458 97.9656 15.84734 98.06322 15.86168 98.16084 15.87761 98.25847 15.89514 98.35608 15.91426 98.4537 15.93498 98.55133 15.95728 98.64896 15.9812 98.74657 16.00668 98.84418 16.03378 98.94182 16.06247 99.03944 16.09273 99.13705 16.1246 99.23468 16.15807 99.3323 16.19313 99.42992 16.2298 99.52754 16.26802 99.62517 16.30788 99.72278 16.3493 99.8204 16.39233 99.91801 16.43695 100.01566 16.48317 100.11328 16.53098 100.21089 16.58038 100.30853 16.63138 100.40614 16.68396 100.50375 16.73816 100.60138 16.79393 100.699 16.8513 100.79662 16.91028 100.89424 16.97083 100.99187 17.03299 101.08948 17.09673 101.18712 17.16206 101.28473 17.229 101.38237 17.29753 101.47998 17.36766 101.57759 17.43936 101.67522 17.51268 101.77284 17.58759 101.87045 17.66408 101.96808 17.74217 102.0657 17.82187 102.16331 17.90314 102.26096 17.98602 102.35857 18.07048 102.4562 18.15654 102.55382 18.24419 102.65143 18.33344 102.74907 18.42427 102.84668 18.51672 102.94429 18.61075 103.04192 18.70636 103.13954 18.80357 103.23715 18.90239 103.3348 19.00279 103.43242 19.1048 103.53004 19.20839 103.62766 19.31357 103.72527 19.42035 103.8229 19.52873 103.92052 19.63869 104.01813 19.75024 104.11575 19.8634 104.21338 19.97816 104.31099 20.0945 104.40863 20.21243 104.50626 20.33195 104.60387 20.45308 104.70149 20.57579 104.7991 20.70012 104.89674 20.82602 104.99435 20.95352 105.09196 21.08261 105.1896 21.21329 105.28722 21.34558 105.38484 21.47945 105.48247 21.61491 105.5801 21.75197 105.6777 21.89063 105.77533 22.03088 105.87296 22.17271 105.97057 22.31616 106.06819 22.46118 106.1658 22.60782 106.26344 22.75603 106.36105 22.90584 106.45868 23.05725 106.55632 23.21024 106.65393 23.36484 106.75154 23.52103 106.84917 23.6788"/>
<path transform="matrix(1.00005,0,0,-1.00008,2.0961457,80.71217)" stroke-width="1.24535" stroke-linecap="butt" stroke-miterlimit="10" stroke-linejoin="miter" fill="none" stroke="#1414cc" d="M106.84969 23.67963 106.9473 23.83821 107.04492 23.99678 107.14253 24.15538 107.24016 24.31396 107.33778 24.47255 107.4354 24.63113 107.533 24.7897 107.63063 24.94829 107.72827 25.10689 107.82588 25.26547 107.92351 25.42406 108.02113 25.58263 108.11874 25.74121 108.21635 25.8998 108.31398 26.05838 108.4116 26.21698 108.50922 26.37555 108.60684 26.53413 108.70447 26.69272 108.8021 26.8513 108.8997 27.00989 108.99734 27.16847 109.09496 27.32706 109.19257 27.48564 109.29019 27.64423 109.38782 27.8028 109.48543 27.96138 109.58304 28.11998 109.68068 28.27856 109.77829 28.43715 109.87592 28.59572 109.97356 28.7543 110.07117 28.91289 110.16878 29.07149 110.2664 29.23007 110.36403 29.38864 110.46164 29.54723 110.55925 29.70581 110.65688 29.8644 110.7545 30.023 110.85213 30.18156 110.94975 30.34015 111.04738 30.49873 111.14499 30.65732 111.2426 30.8159 111.34023 30.97447 111.43785 31.13307 111.53546 31.29166 111.63309 31.45024 111.73071 31.60883 111.82832 31.7674 111.92596 31.92598 112.02357 32.08458 112.1212 32.24316 112.21883 32.40173 112.31644 32.56032 112.41406 32.7189 112.51167 32.87749 112.6093 33.03609 112.70691 33.19466 112.80453 33.35324 112.90216 33.51183 112.99979 33.67041 113.09741 33.829 113.19504 33.98758 113.29265 34.14616 113.39026 34.30475 113.48788 34.46333 113.58551 34.62192 113.68312 34.78049 113.78075 34.93909 113.87837 35.09767 113.97598 35.25626 114.07361 35.41484 114.17123 35.57341 114.26886 35.732 114.36647 35.89058 114.4641 36.04918 114.56172 36.20775 114.65933 36.36633 114.75694 36.52492 114.85458 36.6835 114.9522 36.84209 115.0498 37.00067 115.14745 37.15926 115.24507 37.31784 115.34268 37.47643 115.44029 37.63501 115.53793 37.79358 115.63554 37.95218 115.73315 38.11076 115.83078 38.26935 115.9284 38.42793 116.02602 38.5865 116.12363 38.74509 116.22128 38.90369 116.3189 39.06227 116.4165 39.22086 116.51413 39.37943 116.61176 39.53801 116.70937 39.69658 116.80699 39.85518 116.90462 40.01378 117.00223 40.17235 117.09984 40.33092 117.19746 40.48952 117.2951 40.6481 117.39272 40.80667 117.49034 40.96529 117.58797 41.12386 117.68558 41.28242 117.7832 41.44102 117.88081 41.59961 117.97844 41.75818 118.07605 41.91676 118.17368 42.07536 118.2713 42.23393 118.36893 42.39252 118.46655 42.55112 118.56416 42.70969 118.66179 42.86827 118.75941 43.02687 118.85703 43.18546 118.95464 43.34402 119.05226 43.5026 119.14989 43.6612 119.2475 43.81978 119.34512 43.97836 119.44276 44.13696 119.54037 44.29553 119.63799 44.4541 119.73563 44.6127 119.83324 44.77127 119.93085 44.92987 120.02849 45.08847 120.1261 45.24704 120.22371 45.40561 120.32132 45.5642 120.41896 45.72278 120.51659 45.88138 120.6142 46.03995 120.71184 46.19855 120.80945 46.35712 120.90706 46.5157 121.00468 46.6743 121.10231 46.83289 121.19992 46.99146 121.29753 47.15004 121.39517 47.30862 121.49278 47.46721 121.59041 47.62578 121.68803 47.7844 121.78566 47.94296 121.88327 48.10155 121.98088 48.26012 122.07852 48.41872 122.17613 48.57729 122.27374 48.73587 122.37137 48.89447 122.469 49.05305 122.5666 49.21162 122.66425 49.37022 122.76186 49.5288 122.85948 49.68738 122.9571 49.84598 123.05472 50.00456 123.15234 50.16313 123.24995 50.3217 123.34758 50.4803 123.44519 50.63889 123.54282 50.79747 123.64044 50.95607 123.73807 51.11464 123.8357 51.27321 123.9333 51.4318 124.03093 51.5904 124.12854 51.74898 124.22617 51.90755 124.32379 52.06615 124.4214 52.22473 124.51903 52.3833 124.61665 52.5419 124.71426 52.70049 124.81189 52.85905 124.90952 53.01764 125.00714 53.17624 125.10475 53.33481 125.20238 53.49338 125.3 53.65198 125.39761 53.81056 125.49522 53.96915 125.59286 54.12775 125.69048 54.28632 125.7881 54.44489 125.88574 54.60349 125.98335 54.76207 126.08096 54.92065 126.17857 55.07922 126.27621 55.23782"/>
<path transform="matrix(1.00005,0,0,-1.00008,2.0961457,80.71217)" stroke-width="1.24535" stroke-linecap="butt" stroke-miterlimit="10" stroke-linejoin="miter" fill="none" stroke="#1414cc" d="M126.2769 55.23894 126.37451 55.39711 126.47214 55.55452 126.56975 55.71109 126.66737 55.86688 126.765 56.0219 126.86261 56.17609 126.96022 56.3295 127.05786 56.48209 127.15549 56.63393 127.2531 56.78493 127.35072 56.93513 127.44835 57.08458 127.54596 57.23318 127.64357 57.38101 127.7412 57.52803 127.83882 57.67427 127.93643 57.81972 128.03406 57.96434 128.1317 58.1082 128.22931 58.25124 128.32692 58.39348 128.42456 58.53494 128.52217 58.6756 128.61978 58.81544 128.7174 58.9545 128.81504 59.09277 128.91265 59.23022 129.01026 59.3669 129.1079 59.50279 129.20552 59.63785 129.30313 59.77214 129.40077 59.90562 129.49839 60.0383 129.596 60.17018 129.69362 60.3013 129.79125 60.43158 129.88886 60.56107 129.98647 60.68977 130.08409 60.81769 130.18172 60.94478 130.27935 61.07109 130.37697 61.19662 130.4746 61.32133 130.5722 61.44525 130.66982 61.56836 130.76744 61.6907 130.86507 61.81223 130.96268 61.93295 131.0603 62.0529 131.15793 62.17204 131.25554 62.29037 131.35318 62.40793 131.45079 62.52466 131.54842 62.64061 131.64604 62.75578 131.74365 62.87013 131.84128 62.98369 131.93889 63.09644 132.03652 63.20842 132.13413 63.3196 132.23175 63.42996 132.32938 63.53955 132.427 63.64832 132.52463 63.7563 132.62226 63.8635 132.71987 63.96988 132.81748 64.07547 132.9151 64.18025 133.01273 64.28427 133.11034 64.38745 133.20796 64.48985 133.30559 64.59148 133.4032 64.69229 133.50083 64.7923 133.59845 64.89151 133.69608 64.98994 133.79369 65.08755 133.89131 65.18437 133.98894 65.28043 134.08655 65.37564 134.18416 65.47006 134.2818 65.56372 134.37941 65.65656 134.47702 65.7486 134.57466 65.83986 134.67229 65.9303 134.7699 66.01994 134.86751 66.10881 134.96515 66.19688 135.06276 66.28413 135.16037 66.3706 135.258 66.45628 135.35562 66.54115 135.45323 66.62521 135.55084 66.7085 135.6485 66.791 135.74611 66.87267 135.84372 66.95355 135.94135 67.03365 136.03897 67.11295 136.13658 67.19145 136.2342 67.26913 136.33184 67.34605 136.42945 67.42215 136.52706 67.49747 136.62468 67.57198 136.72232 67.64569 136.81993 67.71861 136.91756 67.79074 137.01519 67.86206 137.1128 67.93259 137.21042 68.00232 137.30803 68.07126 137.40566 68.13939 137.50327 68.20674 137.60089 68.27328 137.69852 68.33902 137.79615 68.40399 137.89377 68.46814 137.99138 68.5315 138.089 68.59406 138.18663 68.65582 138.28424 68.71678 138.38185 68.77695 138.47948 68.83633 138.5771 68.8949 138.67472 68.95268 138.77236 69.00966 138.86998 69.06584 138.96759 69.12125 139.0652 69.17584 139.16284 69.22961 139.26045 69.28262 139.35807 69.33482 139.4557 69.38623 139.55332 69.43684 139.65093 69.48663 139.74854 69.53564 139.84619 69.58388 139.9438 69.63129 140.04141 69.67792 140.13906 69.72374 140.23667 69.76877 140.33428 69.813 140.4319 69.85645 140.52953 69.89908 140.62714 69.94092 140.72475 69.98196 140.82239 70.0222 140.92002 70.06168 141.01763 70.10031 141.11525 70.13818 141.21288 70.17523 141.31049 70.2115 141.4081 70.24696 141.50574 70.28165 141.60335 70.3155 141.70096 70.34857 141.79859 70.38086 141.89621 70.41235 141.99384 70.44302 142.09146 70.47292 142.18907 70.50201 142.2867 70.5303 142.38433 70.5578 142.48194 70.5845 142.57956 70.6104 142.67717 70.63551 142.7748 70.65982 142.8724 70.68333 142.97003 70.70605 143.06768 70.72797 143.16529 70.7491 143.26291 70.76942 143.36052 70.78894 143.45815 70.8077 143.55576 70.8256 143.65338 70.84276 143.751 70.8591 143.84862 70.87463 143.94625 70.88939 144.04387 70.90334 144.1415 70.91649 144.2391 70.92885 144.33673 70.94041 144.43436 70.95119 144.53197 70.96114 144.6296 70.9703 144.72722 70.97868 144.82483 70.98627 144.92244 70.99304 145.02008 70.99902 145.11769 71.00421 145.21532 71.0086 145.31296 71.01219 145.41057 71.01498 145.50818 71.01698 145.60579 71.01817 145.70343 71.01859"/>
<path transform="matrix(1.00005,0,0,-1.00008,2.0961457,80.71217)" stroke-width="1.24535" stroke-linecap="butt" stroke-miterlimit="10" stroke-linejoin="miter" fill="none" stroke="#1414cc" d="M145.70412 71.01859 145.80173 71.01779 145.89936 71.0154 145.99697 71.01141 146.09459 71.00583 146.19222 70.99866 146.28983 70.9899 146.38744 70.97954 146.48508 70.96759 146.5827 70.95404 146.68032 70.9389 146.77794 70.92216 146.87557 70.90384 146.97318 70.88391 147.07079 70.8624 147.16841 70.8393 147.26604 70.81459 147.36365 70.7883 147.46128 70.76039 147.55892 70.73093 147.65653 70.69983 147.75414 70.66716 147.85178 70.6329 147.94939 70.59703 148.047 70.55959 148.14463 70.52054 148.24225 70.4799 148.33986 70.43765 148.43747 70.39383 148.53511 70.3484 148.63274 70.3014 148.73035 70.25279 148.82799 70.20259 148.9256 70.15079 149.02321 70.0974 149.12084 70.0424 149.21846 69.98584 149.31607 69.92766 149.41368 69.8679 149.5113 69.80653 149.60894 69.74358 149.70656 69.67903 149.80419 69.61288 149.90181 69.54517 149.99942 69.47583 150.09703 69.4049 150.19466 69.3324 150.29228 69.25829 150.3899 69.18259 150.48752 69.10529 150.58515 69.0264 150.68277 68.94592 150.7804 68.86383 150.878 68.78015 150.97563 68.69489 151.07326 68.60805 151.17087 68.51958 151.2685 68.42953 151.3661 68.3379 151.46373 68.24467 151.56134 68.14984 151.65897 68.0534 151.7566 67.95538 151.85422 67.85579 151.95185 67.7546 152.04947 67.6518 152.14708 67.5474 152.24469 67.4414 152.34232 67.33383 152.43994 67.22466 152.53755 67.1139 152.63518 67.00154 152.7328 66.88759 152.83043 66.77203 152.92804 66.65489 153.02567 66.53616 153.12329 66.41582 153.2209 66.2939 153.31853 66.1704 153.41616 66.04529 153.51377 65.91858 153.61138 65.79028 153.70902 65.66039 153.80663 65.52892 153.90425 65.39583 154.00188 65.26115 154.0995 65.1249 154.19712 64.98703 154.29473 64.84758 154.39237 64.70653 154.48998 64.56389 154.58759 64.41965 154.68521 64.27383 154.78284 64.1264 154.88045 63.9774 154.97808 63.82678 155.07572 63.67458 155.17333 63.52078 155.27094 63.3654 155.36856 63.2084 155.46619 63.04984 155.5638 62.88966 155.66143 62.72787 155.75905 62.56453 155.85666 62.39958 155.95427 62.23305 156.05191 62.06488 156.14954 61.89516 156.24715 61.72385 156.34477 61.5509 156.4424 61.37639 156.54001 61.2003 156.63764 61.02255 156.73525 60.84328 156.83287 60.6624 156.93048 60.47992 157.0281 60.29582 157.12575 60.11015 157.22336 59.92291 157.32099 59.73402 157.4186 59.5436 157.51622 59.35155 157.61385 59.15788 157.71146 58.96266 157.80907 58.76582 157.9067 58.56743 158.00432 58.36739 158.10193 58.16577 158.19957 57.96259 158.2972 57.75777 158.3948 57.55138 158.49242 57.3434 158.59006 57.13382 158.68767 56.92264 158.78528 56.7099 158.88292 56.4955 158.98053 56.27957 159.07814 56.06203 159.17575 55.8429 159.2734 55.62215 159.37102 55.39981 159.46863 55.1759 159.56627 54.95038 159.66388 54.72327 159.76149 54.49458 159.85912 54.26427 159.95674 54.03238 160.05435 53.7989 160.15196 53.56384 160.2496 53.32713 160.34723 53.08887 160.44484 52.84903 160.54247 52.60754 160.64009 52.36452 160.7377 52.11989 160.83531 51.87367 160.93296 51.62582 161.03057 51.3764 161.12818 51.12538 161.2258 50.87276 161.32343 50.61856 161.42105 50.36278 161.51868 50.10536 161.61629 49.84639 161.71392 49.58583 161.81154 49.32362 161.90915 49.05988 162.00678 48.79453 162.10439 48.52759 162.20201 48.259 162.29962 47.98888 162.39725 47.71716 162.49489 47.44379 162.5925 47.16888 162.69013 46.89238 162.78774 46.61429 162.88536 46.33455 162.98297 46.05328 163.0806 45.7704 163.17823 45.48587 163.27584 45.19981 163.37346 44.91216 163.47109 44.62286 163.56871 44.332 163.66632 44.03958 163.76395 43.74554 163.86157 43.44986 163.95919 43.15263 164.05681 42.85384 164.15444 42.55339 164.25205 42.25137 164.34966 41.94777 164.4473 41.64255 164.54492 41.33577 164.64253 41.02737 164.74018 40.71735 164.83779 40.4058 164.9354 40.09264 165.033 39.77788 165.13065 39.4615"/>
<path transform="matrix(1.00005,0,0,-1.00008,2.0961457,80.71217)" stroke-width="1.24535" stroke-linecap="butt" stroke-miterlimit="10" stroke-linejoin="miter" fill="none" stroke="#1414cc" d="M165.13134 39.45927 165.27774 38.99062 165.42418 38.53554 165.57062 38.0938 165.71704 37.66434 165.86348 37.24713 166.00992 36.84152 166.15634 36.44695 166.30278 36.06287 166.44922 35.68896 166.59564 35.32501 166.74207 34.97037 166.88852 34.62479 167.03495 34.28781 167.18137 33.95943 167.32779 33.63904 167.47423 33.32643 167.62067 33.02133 167.76709 32.7235 167.91353 32.4326 168.05997 32.14825 168.20639 31.87068 168.35283 31.59927 168.49927 31.33394 168.64569 31.07468 168.79212 30.82103 168.93854 30.57274 169.08499 30.3298 169.23142 30.09201 169.37786 29.85918 169.52428 29.63115 169.6707 29.40796 169.81714 29.18933 169.96358 28.97496 170.11002 28.76501 170.25644 28.55908 170.40288 28.35718 170.5493 28.15915 170.69574 27.96515 170.84215 27.77452 170.98859 27.58762 171.13503 27.40425 171.28147 27.22421 171.4279 27.0474 171.57433 26.8739 171.72075 26.70348 171.86719 26.53613 172.01363 26.37164 172.16005 26.21005 172.30649 26.05139 172.45293 25.89523 172.59937 25.74187 172.74578 25.59117 172.89221 25.443 173.03864 25.2972 173.18506 25.15376 173.33152 25.0127 173.47795 24.874 173.62438 24.73749 173.7708 24.60313 173.91724 24.47098 174.06368 24.34071 174.2101 24.21259 174.35654 24.0865 174.50298 23.96233 174.64939 23.83995 174.79582 23.71962 174.94226 23.60088 175.08869 23.48396 175.2351 23.36893 175.38155 23.25546 175.528 23.14351 175.67443 23.03345 175.82085 22.9248 175.96729 22.81773 176.11371 22.71234 176.26015 22.60818 176.40657 22.50563 176.55301 22.40431 176.69944 22.3045 176.84587 22.20604 176.99231 22.10901 177.13874 22.01321 177.28516 21.91869 177.4316 21.82552 177.57805 21.73344 177.72447 21.64264 177.87091 21.55292 178.01734 21.46457 178.16378 21.37721 178.31018 21.29114 178.45662 21.20586 178.60305 21.12198 178.74948 21.03891 178.89592 20.957 179.04236 20.87598 179.18878 20.79605 179.3352 20.71724 179.48165 20.6392 179.62807 20.56212 179.77452 20.4859 179.92096 20.41072 180.06739 20.3364 180.21379 20.26302 180.36023 20.19035 180.50667 20.11862 180.65309 20.04771 180.79953 19.97765 180.94597 19.90845 181.0924 19.83995 181.23883 19.77226 181.38527 19.7052 181.5317 19.639 181.67812 19.57361 181.82457 19.50883 181.97101 19.44484 182.11742 19.38148 182.26384 19.31892 182.41028 19.25697 182.55672 19.19576 182.70314 19.13516 182.84958 19.07512 182.99602 19.0157 183.14244 18.95702 183.28888 18.89894 183.43532 18.84143 183.58174 18.78462 183.72817 18.72829 183.8746 18.67265 184.02104 18.61736 184.16747 18.56284 184.31389 18.50879 184.46033 18.4553 184.60675 18.40236 184.75319 18.35004 184.89963 18.29797 185.04607 18.24669 185.19249 18.1958 185.33893 18.1453 185.48537 18.09552 185.63179 18.04614 185.77822 17.99715 185.92464 17.94862 186.07108 17.90071 186.21752 17.85315 186.36396 17.80597 186.51038 17.75934 186.6568 17.7131 186.80324 17.66743 186.94968 17.62198 187.0961 17.57709 187.24254 17.5326 187.38898 17.48839 187.53542 17.44469 187.68183 17.4013 187.82825 17.35844 187.97469 17.31586 188.12111 17.27388 188.26757 17.23206 188.414 17.19055 188.56043 17.14944 188.70685 17.10881 188.85329 17.06842 188.99971 17.0285 189.14615 16.98889 189.29259 16.94952 189.43903 16.91063 189.58544 16.87212 189.73188 16.83371 189.87831 16.79575 190.02474 16.75812 190.17116 16.7208 190.3176 16.68379 190.46405 16.6471 190.61048 16.61073 190.7569 16.5746 190.90334 16.53886 191.04978 16.50336 191.1962 16.46808 191.34264 16.43314 191.48906 16.3985 191.63549 16.36418 191.78192 16.3301 191.92836 16.29633 192.07479 16.2628 192.2212 16.2295 192.36765 16.19644 192.5141 16.16379 192.66053 16.1312 192.80695 16.09892 192.95339 16.06697 193.09981 16.03525 193.24625 16.0037 193.39267 15.97253 193.5391 15.94151 193.68553 15.91068 193.83197 15.88022 193.97841 15.84984 194.12483 15.81978 193.30362 15.98705"/>
<path transform="matrix(.97987899,.19959596,.19958997,-.9799084,195.40943,64.72385)" stroke-width=".99628" stroke-linecap="round" stroke-linejoin="round" fill="none" stroke="#1414cc" d="M-1.95767 2.61023C-1.79453 1.6314 0 .16313 .48941 0 0-.16313-1.79453-1.6314-1.95767-2.61023"/>
</g>
<use data-text="x" xlink:href="#font_4_1" transform="matrix(9.963098,0,0,-9.963397,187.19539,37.723737)"/>
<use data-text="y" xlink:href="#font_4_2" transform="matrix(9.963098,0,0,-9.963397,102.77417,9.594482)"/>
</svg>
