<svg xmlns="http://www.w3.org/2000/svg" xmlns:xlink="http://www.w3.org/1999/xlink" xmlns:inkscape="http://www.inkscape.org/namespaces/inkscape" version="1.1" width="228" height="191" viewBox="0 0 228 191">
<defs>
<clipPath id="clip_1">
<path transform="matrix(1.00005,0,0,-1,2.0961457,188.96302)" d="M0 0H224.1623V187.16675H0Z"/>
</clipPath>
</defs>
<path transform="matrix(1.00005,0,0,-1,2.0961457,188.96302)" stroke-width=".3985" stroke-linecap="butt" stroke-miterlimit="10" stroke-linejoin="miter" fill="none" stroke="#404040" d="M0 0H224.1623V187.16675H0Z"/>
<path transform="matrix(1.00005,0,0,-1,2.0961457,188.96302)" stroke-width=".3985" stroke-linecap="butt" stroke-miterlimit="10" stroke-linejoin="miter" fill="none" stroke="#cccccc" d="M0 0V187.16675M14.01013 0V187.16675M28.02028 0V187.16675M42.03043 0V187.16675M56.04057 0V187.16675M70.0507 0V187.16675M84.06085 0V187.16675M98.071 0V187.16675M112.08115 0V187.16675M126.09128 0V187.16675M140.10143 0V187.16675M154.11157 0V187.16675M168.12172 0V187.16675M182.13185 0V187.16675M196.142 0V187.16675M210.15215 0V187.16675M224.1623 0V187.16675"/>
<path transform="matrix(1.00005,0,0,-1,2.0961457,188.96302)" stroke-width=".3985" stroke-linecap="butt" stroke-miterlimit="10" stroke-linejoin="miter" fill="none" stroke="#cccccc" d=""/>
<path transform="matrix(1.00005,0,0,-1,2.0961457,188.96302)" stroke-width=".3985" stroke-linecap="butt" stroke-miterlimit="10" stroke-linejoin="miter" fill="none" stroke="#cccccc" d="M0 0H224.1623M0 11.69792H224.1623M0 23.39584H224.1623M0 35.09377H224.1623M0 46.79169H224.1623M0 58.48961H224.1623M0 70.18753H224.1623M0 81.88545H224.1623M0 93.58337H224.1623M0 105.2813H224.1623M0 116.97922H224.1623M0 128.67714H224.1623M0 140.37506H224.1623M0 152.07299H224.1623M0 163.7709H224.1623M0 175.46883H224.1623M0 187.16675H224.1623"/>
<path transform="matrix(1.00005,0,0,-1,2.0961457,188.96302)" stroke-width=".3985" stroke-linecap="butt" stroke-miterlimit="10" stroke-linejoin="miter" fill="none" stroke="#cccccc" d=""/>
<path transform="matrix(1.00005,0,0,-1,2.0961457,188.96302)" stroke-width=".19925" stroke-linecap="butt" stroke-miterlimit="10" stroke-linejoin="miter" fill="none" stroke="#7f807f" d="M0 92.16599V95.00076M14.01013 92.16599V95.00076M28.02028 92.16599V95.00076M42.03043 92.16599V95.00076M56.04057 92.16599V95.00076M70.0507 92.16599V95.00076M84.06085 92.16599V95.00076M98.071 92.16599V95.00076M112.08115 92.16599V95.00076M126.09128 92.16599V95.00076M140.10143 92.16599V95.00076M154.11157 92.16599V95.00076M168.12172 92.16599V95.00076M182.13185 92.16599V95.00076M196.142 92.16599V95.00076M210.15215 92.16599V95.00076M224.1623 92.16599V95.00076"/>
<path transform="matrix(1.00005,0,0,-1,2.0961457,188.96302)" stroke-width=".19925" stroke-linecap="butt" stroke-miterlimit="10" stroke-linejoin="miter" fill="none" stroke="#7f807f" d=""/>
<path transform="matrix(1.00005,0,0,-1,2.0961457,188.96302)" stroke-width=".19925" stroke-linecap="butt" stroke-miterlimit="10" stroke-linejoin="miter" fill="none" stroke="#7f807f" d="M110.66377 0H113.4985M110.66377 11.69792H113.4985M110.66377 23.39584H113.4985M110.66377 35.09377H113.4985M110.66377 46.79169H113.4985M110.66377 58.48961H113.4985M110.66377 70.18753H113.4985M110.66377 81.88545H113.4985M110.66377 93.58337H113.4985M110.66377 105.2813H113.4985M110.66377 116.97922H113.4985M110.66377 128.67714H113.4985M110.66377 140.37506H113.4985M110.66377 152.07299H113.4985M110.66377 163.7709H113.4985M110.66377 175.46883H113.4985M110.66377 187.16675H113.4985"/>
<path transform="matrix(1.00005,0,0,-1,2.0961457,188.96302)" stroke-width=".19925" stroke-linecap="butt" stroke-miterlimit="10" stroke-linejoin="miter" fill="none" stroke="#7f807f" d=""/>
<path transform="matrix(1.00005,0,0,-1,2.0961457,188.96302)" stroke-width=".3985" stroke-linecap="butt" stroke-miterlimit="10" stroke-linejoin="miter" fill="none" stroke="#000000" d="M0 93.58337H222.16976"/>
<path transform="matrix(1.00005,0,0,-1,224.277,95.37965)" d="M1.99252 0-1.19551 1.59401 0 0-1.19551-1.59401"/>
<path transform="matrix(1.00005,0,0,-1,2.0961457,188.96302)" stroke-width=".3985" stroke-linecap="butt" stroke-miterlimit="10" stroke-linejoin="miter" fill="none" stroke="#000000" d="M112.08115 0V185.17423"/>
<path transform="matrix(0,-1,-1.00005,-0,114.18289,3.7887879)" d="M1.99252 0-1.19551 1.59401 0 0-1.19551-1.59401"/>
<g clip-path="url(#clip_1)">
</g>
</svg>
