<svg xmlns="http://www.w3.org/2000/svg" xmlns:xlink="http://www.w3.org/1999/xlink" xmlns:inkscape="http://www.inkscape.org/namespaces/inkscape" version="1.1" width="198" height="165" viewBox="0 0 198 165">
<defs>
<clipPath id="clip_1">
<path transform="matrix(1.00003,0,0,-1.00006,2.0964967,163.19083)" d="M0 0H194.26912V161.3842H0Z"/>
</clipPath>
</defs>
<path transform="matrix(1.00003,0,0,-1.00006,2.0964967,163.19083)" stroke-width=".3985" stroke-linecap="butt" stroke-miterlimit="10" stroke-linejoin="miter" fill="none" stroke="#404040" d="M0 0H194.26912V161.3842H0Z"/>
<path transform="matrix(1.00003,0,0,-1.00006,2.0964967,163.19083)" stroke-width=".3985" stroke-linecap="butt" stroke-miterlimit="10" stroke-linejoin="miter" fill="none" stroke="#bfbfbf" d="M0 0V161.3842M12.14182 0V161.3842M24.28363 0V161.3842M36.42545 0V161.3842M48.56728 0V161.3842M60.70909 0V161.3842M72.8509 0V161.3842M84.99274 0V161.3842M97.13455 0V161.3842M109.27637 0V161.3842M121.4182 0V161.3842M133.56002 0V161.3842M145.70183 0V161.3842M157.84366 0V161.3842M169.98548 0V161.3842M182.12729 0V161.3842M194.26912 0V161.3842"/>
<path transform="matrix(1.00003,0,0,-1.00006,2.0964967,163.19083)" stroke-width=".3985" stroke-linecap="butt" stroke-miterlimit="10" stroke-linejoin="miter" fill="none" stroke="#bfbfbf" d=""/>
<path transform="matrix(1.00003,0,0,-1.00006,2.0964967,163.19083)" stroke-width=".3985" stroke-linecap="butt" stroke-miterlimit="10" stroke-linejoin="miter" fill="none" stroke="#bfbfbf" d="M0 0H194.26912M0 10.0865H194.26912M0 20.17302H194.26912M0 30.25954H194.26912M0 40.34604H194.26912M0 50.43256H194.26912M0 60.51907H194.26912M0 70.60558H194.26912M0 80.6921H194.26912M0 90.77861H194.26912M0 100.86511H194.26912M0 110.95163H194.26912M0 121.03815H194.26912M0 131.12467H194.26912M0 141.21117H194.26912M0 151.29769H194.26912M0 161.3842H194.26912"/>
<path transform="matrix(1.00003,0,0,-1.00006,2.0964967,163.19083)" stroke-width=".3985" stroke-linecap="butt" stroke-miterlimit="10" stroke-linejoin="miter" fill="none" stroke="#bfbfbf" d=""/>
<path transform="matrix(1.00003,0,0,-1.00006,2.0964967,163.19083)" stroke-width=".19925" stroke-linecap="butt" stroke-miterlimit="10" stroke-linejoin="miter" fill="none" stroke="#7f807f" d="M0 79.27461V82.10957M12.14182 79.27461V82.10957M24.28363 79.27461V82.10957M36.42545 79.27461V82.10957M48.56728 79.27461V82.10957M60.70909 79.27461V82.10957M72.8509 79.27461V82.10957M84.99274 79.27461V82.10957M97.13455 79.27461V82.10957M109.27637 79.27461V82.10957M121.4182 79.27461V82.10957M133.56002 79.27461V82.10957M145.70183 79.27461V82.10957M157.84366 79.27461V82.10957M169.98548 79.27461V82.10957M182.12729 79.27461V82.10957M194.26912 79.27461V82.10957"/>
<path transform="matrix(1.00003,0,0,-1.00006,2.0964967,163.19083)" stroke-width=".19925" stroke-linecap="butt" stroke-miterlimit="10" stroke-linejoin="miter" fill="none" stroke="#7f807f" d=""/>
<path transform="matrix(1.00003,0,0,-1.00006,2.0964967,163.19083)" stroke-width=".19925" stroke-linecap="butt" stroke-miterlimit="10" stroke-linejoin="miter" fill="none" stroke="#7f807f" d="M95.7171 0H98.552M95.7171 10.0865H98.552M95.7171 20.17302H98.552M95.7171 30.25954H98.552M95.7171 40.34604H98.552M95.7171 50.43256H98.552M95.7171 60.51907H98.552M95.7171 70.60558H98.552M95.7171 80.6921H98.552M95.7171 90.77861H98.552M95.7171 100.86511H98.552M95.7171 110.95163H98.552M95.7171 121.03815H98.552M95.7171 131.12467H98.552M95.7171 141.21117H98.552M95.7171 151.29769H98.552M95.7171 161.3842H98.552"/>
<path transform="matrix(1.00003,0,0,-1.00006,2.0964967,163.19083)" stroke-width=".19925" stroke-linecap="butt" stroke-miterlimit="10" stroke-linejoin="miter" fill="none" stroke="#7f807f" d=""/>
<path transform="matrix(1.00003,0,0,-1.00006,2.0964967,163.19083)" stroke-width=".3985" stroke-linecap="butt" stroke-miterlimit="10" stroke-linejoin="miter" fill="none" stroke="#000000" d="M0 80.6921H192.2766"/>
<path transform="matrix(1.00003,0,0,-1.00006,194.37888,82.49389)" d="M1.99252 0-1.19551 1.59401 0 0-1.19551-1.59401"/>
<path transform="matrix(1.00003,0,0,-1.00006,2.0964967,163.19083)" stroke-width=".3985" stroke-linecap="butt" stroke-miterlimit="10" stroke-linejoin="miter" fill="none" stroke="#000000" d="M97.13455 0V159.39168"/>
<path transform="matrix(0,-1.00006,-1.00003,-0,99.23396,3.7895966)" d="M1.99252 0-1.19551 1.59401 0 0-1.19551-1.59401"/>
<g clip-path="url(#clip_1)">
</g>
</svg>
