<svg xmlns="http://www.w3.org/2000/svg" xmlns:xlink="http://www.w3.org/1999/xlink" xmlns:inkscape="http://www.inkscape.org/namespaces/inkscape" version="1.1" width="115" height="114" viewBox="0 0 115 114">
<defs>
<path id="font_1_1" d="M.6589966 .23046875C.6759949 .23046875 .69400027 .23046875 .69400027 .25045777 .69400027 .27046205 .6759949 .27046205 .6589966 .27046205H.117996219C.100997928 .27046205 .08299255 .27046205 .08299255 .25045777 .08299255 .23046875 .100997928 .23046875 .117996219 .23046875H.6589966Z"/>
<path id="font_2_3" d="M.13198853 .327713V.35173036C.13198853 .6047821 .2559967 .64100649 .30699159 .64100649 .33099366 .64100649 .37298585 .634964 .394989 .6007538 .37998963 .6007538 .33999635 .6007538 .33999635 .5557556 .33999635 .524765 .3639984 .5097656 .38598634 .5097656 .4019928 .5097656 .43199159 .51875308 .43199159 .5577545 .43199159 .6178589 .3880005 .6660156 .30499269 .6660156 .1769867 .6660156 .041992189 .5367584 .041992189 .31570436 .041992189 .048553468 .1579895-.022460938 .25099183-.022460938 .3619995-.022460938 .45700074 .07156372 .45700074 .2036438 .45700074 .33070375 .36799623 .4267578 .25698854 .4267578 .18899536 .4267578 .1519928 .37573243 .13198853 .327713M.25099183 .0055389406C.18798828 .0055389406 .1579895 .06556702 .1519928 .080566409 .13398743 .127594 .13398743 .2076416 .13398743 .22564698 .13398743 .30369569 .1659851 .40374757 .2559967 .40374757 .27198792 .40374757 .31799317 .40374757 .34899903 .34172059 .36698915 .30470277 .36698915 .2536621 .36698915 .20463562 .36698915 .15661621 .36698915 .10658264 .34999085 .0705719 .31999208 .010528564 .27398683 .0055389406 .25099183 .0055389406Z"/>
<path id="font_2_2" d="M.2939911 .16503906V.07800293C.2939911 .041992189 .2919922 .0309906 .21798706 .0309906H.19699097V0C.23799134 .0029907227 .2899933 .0029907227 .33198548 .0029907227 .37399293 .0029907227 .4269867 .0029907227 .46798707 0V.0309906H.44699098C.37298585 .0309906 .37098695 .041992189 .37098695 .07800293V.16503906H.47099305V.19602967H.37098695V.65075686C.37098695 .67074587 .37098695 .6767578 .35499574 .6767578 .34599305 .6767578 .34298707 .6767578 .33499146 .66474917L.027999878 .19602967V.16503906H.2939911M.2999878 .19602967H.055999757L.2999878 .5688019V.19602967Z"/>
<path id="font_2_1" d="M.1269989 .07699585 .23298645 .18003845C.3889923 .31811524 .44898988 .3721466 .44898988 .47216798 .44898988 .5860901 .35899354 .6660156 .23699951 .6660156 .12399292 .6660156 .049987794 .57411196 .049987794 .48516847 .049987794 .4291687 .099990848 .4291687 .102996829 .4291687 .11999512 .4291687 .15499878 .44117738 .15499878 .48217774 .15499878 .5081787 .13699341 .5341797 .101989749 .5341797 .09399414 .5341797 .09199524 .5341797 .08898926 .5331726 .11199951 .59806826 .1659851 .63500979 .22399903 .63500979 .31498719 .63500979 .35798646 .5541382 .35798646 .47216798 .35798646 .39215089 .30799867 .31311036 .25299073 .25108338L.06098938 .036987306C.049987794 .025985718 .049987794 .023986817 .049987794 0H.42099L.44898988 .17404175H.42399598C.4189911 .14402771 .4119873 .1000061 .4019928 .084991458 .394989 .07699585 .32899476 .07699585 .30699159 .07699585H.1269989Z"/>
<clipPath id="clip_3">
<path transform="matrix(1,0,0,-1.00006,2.0960007,112.863819)" d="M0 0H111.05957V111.05957H0Z"/>
</clipPath>
<path id="font_4_1" d="M.33399964 .30233766C.33999635 .32835389 .36299134 .42037965 .43299867 .42037965 .43798829 .42037965 .46199037 .42037965 .48298646 .40734864 .45498658 .402359 .43499757 .37734986 .43499757 .35334779 .43499757 .33735658 .44599916 .31835938 .47299195 .31835938 .49499513 .31835938 .5269928 .3363495 .5269928 .37635804 .5269928 .42837525 .46798707 .4423828 .43399049 .4423828 .37599183 .4423828 .34098817 .38935853 .32899476 .36634828 .3039856 .43237306 .25 .4423828 .22099304 .4423828 .116989139 .4423828 .05999756 .3133545 .05999756 .28834535 .05999756 .27833558 .069992069 .27833558 .07199097 .27833558 .07998657 .27833558 .08299255 .28033448 .084991458 .28933717 .11898804 .39535523 .18499756 .42037965 .21899414 .42037965 .23799134 .42037965 .272995 .4113617 .272995 .35334779 .272995 .32235719 .2559967 .25532533 .21899414 .11528015 .20298767 .053268434 .16799927 .011245728 .12399292 .011245728 .117996219 .011245728 .09498596 .011245728 .07398987 .024276734 .09899902 .029266358 .12098694 .05027771 .12098694 .07827759 .12098694 .105270389 .09899902 .11328125 .083999637 .11328125 .053985597 .11328125 .0289917 .08728027 .0289917 .055267335 .0289917 .009246826 .07899475-.0107421879 .12298584-.0107421879 .18899536-.0107421879 .22499085 .059280397 .22799683 .0652771 .23999024 .028274537 .27598573-.0107421879 .33599855-.0107421879 .43899537-.0107421879 .49598695 .118270877 .49598695 .14328003 .49598695 .1532898 .4869995 .1532898 .48399354 .1532898 .47499085 .1532898 .47299195 .14929199 .47099305 .14228821 .43798829 .03527832 .36999513 .011245728 .33799745 .011245728 .29899598 .011245728 .2829895 .043273927 .2829895 .07727051 .2829895 .09927368 .2889862 .121276859 .2999878 .16529846L.33399964 .30233766Z"/>
<path id="font_4_2" d="M.48599244 .38136292C.48999024 .39537049 .48999024 .39736939 .48999024 .40437318 .48999024 .42237855 .47599793 .43138124 .46099855 .43138124 .45098878 .43138124 .43499757 .42536927 .42599488 .41036988 .42399598 .405365 .41600038 .37435914 .4119873 .35635377 .40499879 .33035279 .397995 .30334474 .3919983 .27633668L.34700013 .09628296C.34298707 .08126831 .2999878 .011245728 .23399353 .011245728 .18299866 .011245728 .17199707 .055267335 .17199707 .0922699 .17199707 .1382904 .18899536 .20030213 .22299195 .28833009 .23899842 .3293457 .24299622 .3403473 .24299622 .36035157 .24299622 .405365 .21099854 .4423828 .16099549 .4423828 .06599426 .4423828 .0289917 .29733277 .0289917 .28833009 .0289917 .27833558 .038986207 .27833558 .040985109 .27833558 .050994874 .27833558 .051986696 .28033448 .056991579 .29634095 .083999637 .3903656 .12399292 .42037965 .1579895 .42037965 .1659851 .42037965 .18299866 .42037965 .18299866 .3883667 .18299866 .36335755 .17298889 .3373413 .1659851 .31834413 .12599182 .21231079 .10798645 .1552887 .10798645 .10827637 .10798645 .019256592 .17098999-.0107421879 .22999573-.0107421879 .2689972-.0107421879 .30299378 .0062561037 .33099366 .03425598 .31799317-.017745972 .30599977-.06674194 .2659912-.11973572 .23999024-.15385437 .20199585-.18309021 .1559906-.18309021 .14199829-.18309021 .09700012-.18005371 .07998657-.14074707 .09599304-.14074707 .10899353-.14074707 .12298584-.1287384 .1329956-.11973572 .14299011-.10673523 .14299011-.08773804 .14299011-.056747438 .115997318-.052734376 .10598755-.052734376 .08299255-.052734376 .049987794-.068740848 .049987794-.11773682 .049987794-.16796875 .09399414-.20507813 .1559906-.20507813 .25898744-.20507813 .3619995-.11373901 .3899994-.00074768069L.48599244 .38136292Z"/>
</defs>
<path transform="matrix(1,0,0,-1.00006,2.0960007,112.863819)" stroke-width=".3985" stroke-linecap="butt" stroke-miterlimit="10" stroke-linejoin="miter" fill="none" stroke="#404040" d="M0 0H111.05957V111.05957H0Z"/>
<path transform="matrix(1,0,0,-1.00006,2.0960007,112.863819)" stroke-width=".3985" stroke-linecap="butt" stroke-miterlimit="10" stroke-linejoin="miter" fill="none" stroke="#cccccc" d="M6.94122 0V111.05957M20.82367 0V111.05957M34.70612 0V111.05957M48.58856 0V111.05957M62.47101 0V111.05957M76.35345 0V111.05957M90.2359 0V111.05957M104.11835 0V111.05957"/>
<path transform="matrix(1,0,0,-1.00006,2.0960007,112.863819)" stroke-width=".3985" stroke-linecap="butt" stroke-miterlimit="10" stroke-linejoin="miter" fill="none" stroke="#cccccc" d="M13.88245 0V111.05957M27.7649 0V111.05957M41.64734 0V111.05957M69.41223 0V111.05957M83.29468 0V111.05957M97.17712 0V111.05957"/>
<path transform="matrix(1,0,0,-1.00006,2.0960007,112.863819)" stroke-width=".3985" stroke-linecap="butt" stroke-miterlimit="10" stroke-linejoin="miter" fill="none" stroke="#cccccc" d="M0 6.94122H111.05957M0 20.82367H111.05957M0 34.70612H111.05957M0 48.58856H111.05957M0 62.47101H111.05957M0 76.35345H111.05957M0 90.2359H111.05957M0 104.11835H111.05957"/>
<path transform="matrix(1,0,0,-1.00006,2.0960007,112.863819)" stroke-width=".3985" stroke-linecap="butt" stroke-miterlimit="10" stroke-linejoin="miter" fill="none" stroke="#cccccc" d="M0 13.88245H111.05957M0 27.7649H111.05957M0 41.64734H111.05957M0 69.41223H111.05957M0 83.29468H111.05957M0 97.17712H111.05957"/>
<path transform="matrix(1,0,0,-1.00006,2.0960007,112.863819)" stroke-width=".19925" stroke-linecap="butt" stroke-miterlimit="10" stroke-linejoin="miter" fill="none" stroke="#7f807f" d="M6.94122 54.11232V56.94724M20.82367 54.11232V56.94724M34.70612 54.11232V56.94724M48.58856 54.11232V56.94724M62.47101 54.11232V56.94724M76.35345 54.11232V56.94724M90.2359 54.11232V56.94724M104.11835 54.11232V56.94724"/>
<path transform="matrix(1,0,0,-1.00006,2.0960007,112.863819)" stroke-width=".19925" stroke-linecap="butt" stroke-miterlimit="10" stroke-linejoin="miter" fill="none" stroke="#7f807f" d="M13.88245 53.4038V57.65575M27.7649 53.4038V57.65575M41.64734 53.4038V57.65575M69.41223 53.4038V57.65575M83.29468 53.4038V57.65575M97.17712 53.4038V57.65575"/>
<path transform="matrix(1,0,0,-1.00006,2.0960007,112.863819)" stroke-width=".19925" stroke-linecap="butt" stroke-miterlimit="10" stroke-linejoin="miter" fill="none" stroke="#7f807f" d="M54.11232 6.94122H56.94724M54.11232 20.82367H56.94724M54.11232 34.70612H56.94724M54.11232 48.58856H56.94724M54.11232 62.47101H56.94724M54.11232 76.35345H56.94724M54.11232 90.2359H56.94724M54.11232 104.11835H56.94724"/>
<path transform="matrix(1,0,0,-1.00006,2.0960007,112.863819)" stroke-width=".19925" stroke-linecap="butt" stroke-miterlimit="10" stroke-linejoin="miter" fill="none" stroke="#7f807f" d="M53.4038 13.88245H57.65575M53.4038 27.7649H57.65575M53.4038 41.64734H57.65575M53.4038 69.41223H57.65575M53.4038 83.29468H57.65575M53.4038 97.17712H57.65575"/>
<path transform="matrix(1,0,0,-1.00006,2.0960007,112.863819)" stroke-width=".3985" stroke-linecap="butt" stroke-miterlimit="10" stroke-linejoin="miter" fill="none" stroke="#000000" d="M0 55.52979H109.06705"/>
<path transform="matrix(1,0,0,-1.00006,111.16305,57.330698)" d="M1.99252 0-1.19551 1.59401 0 0-1.19551-1.59401"/>
<path transform="matrix(1,0,0,-1.00006,2.0960007,112.863819)" stroke-width=".3985" stroke-linecap="butt" stroke-miterlimit="10" stroke-linejoin="miter" fill="none" stroke="#000000" d="M55.52979 0V109.06705"/>
<path transform="matrix(0,-1.00006,-1,-0,57.62579,3.7902299)" d="M1.99252 0-1.19551 1.59401 0 0-1.19551-1.59401"/>
<use data-text="&#x2212;" xlink:href="#font_1_1" transform="matrix(9.9626,0,0,-9.963197,9.612999,69.39721)"/>
<use data-text="6" xlink:href="#font_2_3" transform="matrix(9.9626,0,0,-9.963197,17.362,69.39721)"/>
<use data-text="&#x2212;" xlink:href="#font_1_1" transform="matrix(9.9626,0,0,-9.963197,23.496003,69.39721)"/>
<use data-text="4" xlink:href="#font_2_2" transform="matrix(9.9626,0,0,-9.963197,31.245003,69.39721)"/>
<use data-text="&#x2212;" xlink:href="#font_1_1" transform="matrix(9.9626,0,0,-9.963197,37.378004,69.39721)"/>
<use data-text="2" xlink:href="#font_2_1" transform="matrix(9.9626,0,0,-9.963197,45.127004,69.39721)"/>
<use data-text="2" xlink:href="#font_2_1" transform="matrix(9.9626,0,0,-9.963197,69.018,69.39721)"/>
<use data-text="4" xlink:href="#font_2_2" transform="matrix(9.9626,0,0,-9.963197,82.9,69.39721)"/>
<use data-text="6" xlink:href="#font_2_3" transform="matrix(9.9626,0,0,-9.963197,96.782,69.39721)"/>
<use data-text="&#x2212;" xlink:href="#font_1_1" transform="matrix(9.9626,0,0,-9.963197,39.25,101.77615)"/>
<use data-text="6" xlink:href="#font_2_3" transform="matrix(9.9626,0,0,-9.963197,46.999,101.77615)"/>
<use data-text="&#x2212;" xlink:href="#font_1_1" transform="matrix(9.9626,0,0,-9.963197,39.25,87.89232)"/>
<use data-text="4" xlink:href="#font_2_2" transform="matrix(9.9626,0,0,-9.963197,46.999,87.89232)"/>
<use data-text="&#x2212;" xlink:href="#font_1_1" transform="matrix(9.9626,0,0,-9.963197,39.25,74.00948)"/>
<use data-text="2" xlink:href="#font_2_1" transform="matrix(9.9626,0,0,-9.963197,46.999,74.00948)"/>
<use data-text="2" xlink:href="#font_2_1" transform="matrix(9.9626,0,0,-9.963197,46.999,46.657846)"/>
<use data-text="4" xlink:href="#font_2_2" transform="matrix(9.9626,0,0,-9.963197,46.999,32.775018)"/>
<use data-text="6" xlink:href="#font_2_3" transform="matrix(9.9626,0,0,-9.963197,46.999,18.891175)"/>
<g clip-path="url(#clip_3)">
<path transform="matrix(1,0,0,-1.00006,2.0960007,112.863819)" stroke-width="1.49442" stroke-linecap="butt" stroke-miterlimit="10" stroke-linejoin="miter" fill="none" stroke="#1414cc" d="M20.82367 69.41223 20.92804 69.6202 21.03241 69.82658 21.1368 70.03143 21.24117 70.2347 21.34555 70.43637 21.44992 70.63649 21.5543 70.83505 21.65868 71.03204 21.76305 71.22745 21.86743 71.42131 21.9718 71.61357 22.07619 71.80428 22.18056 71.99341 22.28494 72.181 22.38933 72.36699 22.49371 72.5514 22.59808 72.73425 22.70245 72.91556 22.80684 73.09528 22.91121 73.27342 23.0156 73.45 23.11996 73.62502 23.22435 73.79845 23.32872 73.97032 23.43309 74.14061 23.53748 74.30934 23.64185 74.4765 23.74623 74.6421 23.85062 74.80614 23.955 74.96858 24.05937 75.12946 24.16376 75.28877 24.26813 75.44653 24.3725 75.6027 24.47688 75.7573 24.58125 75.91034 24.68564 76.0618 24.79001 76.2117 24.8944 76.36003 24.99876 76.50679 25.10313 76.65198 25.20752 76.7956 25.31189 76.93765 25.41629 77.07813 25.52066 77.21704 25.62505 77.35435 25.72942 77.49013 25.83379 77.62434 25.93817 77.75697 26.04254 77.88805 26.14693 78.01753 26.2513 78.14546 26.35568 78.27182 26.46005 78.39659 26.56444 78.51979 26.66881 78.64145 26.77318 78.76152 26.87758 78.88004 26.98195 78.99696 27.08633 79.11234 27.1907 79.22614 27.29509 79.33836 27.39946 79.449 27.50383 79.5581 27.60822 79.66562 27.71259 79.77156 27.81697 79.87595 27.92134 79.97876 28.02573 80.08 28.1301 80.17967 28.23448 80.27779 28.33887 80.3743 28.44324 80.46927 28.54762 80.56267 28.652 80.65448 28.75638 80.74474 28.86075 80.8334 28.96513 80.92053 29.0695 81.00607 29.17387 81.09006 29.27826 81.17245 29.38263 81.2533 29.48701 81.33255 29.59138 81.41025 29.69577 81.48639 29.80014 81.56093 29.90454 81.63393 30.00891 81.70535 30.11328 81.77519 30.21767 81.84348 30.32204 81.91019 30.42642 81.97533 30.53079 82.0389 30.63518 82.10089 30.73955 82.16132 30.84392 82.22018 30.9483 82.27748 31.05267 82.3332 31.15706 82.38736 31.26143 82.43994 31.36583 82.49095 31.4702 82.54039 31.57458 82.58827 31.67896 82.63457 31.78333 82.6793 31.88771 82.72249 31.99208 82.76408 32.09647 82.80411 32.20084 82.84256 32.30522 82.87944 32.40959 82.91476 32.51396 82.9485 32.61835 82.9807 32.72272 83.0113 32.8271 83.04034 32.93149 83.06781 33.03587 83.09372 33.14024 83.11804 33.24461 83.14081 33.349 83.162 33.45337 83.18161 33.55775 83.19968 33.66212 83.21616 33.76651 83.23106 33.87088 83.24442 33.97527 83.2562 34.07964 83.2664 34.184 83.27502 34.28839 83.2821 34.39278 83.28758 34.49716 83.29152 34.60153 83.29388 34.70592 83.29468 34.81029 83.29388 34.91466 83.29152 35.01904 83.2876 35.12341 83.28212 35.2278 83.27505 35.33217 83.26643 35.43655 83.25623 35.54092 83.24446 35.64531 83.23112 35.74968 83.21622 35.85406 83.19974 35.95845 83.18169 36.06282 83.16208 36.1672 83.14088 36.27158 83.11813 36.37596 83.09381 36.48033 83.06792 36.5847 83.04045 36.68909 83.01141 36.79346 82.98082 36.89784 82.94862 37.00221 82.9149 37.1066 82.87958 37.21097 82.8427 37.31535 82.80424 37.41974 82.76424 37.52411 82.72264 37.6285 82.67947 37.73286 82.63474 37.83725 82.58846 37.94162 82.54057 38.046 82.49113 38.15038 82.44012 38.25475 82.38756 38.35913 82.3334 38.4635 82.2777 38.56789 82.22041 38.67226 82.16154 38.77664 82.10112 38.88103 82.03912 38.98541 81.97557 39.08978 81.91043 39.19415 81.84372 39.29854 81.77545 39.40291 81.70561 39.5073 81.63419 39.61166 81.5612 39.71605 81.48665 39.82042 81.41054 39.92479 81.33284 40.02917 81.2536 40.13354 81.17276 40.23793 81.09036 40.34232 81.0064 40.4467 80.92085 40.55107 80.83374 40.65544 80.74506 40.75983 80.65482 40.8642 80.563 40.96858 80.46962 41.07295 80.37466 41.17734 80.27812 41.28171 80.18002 41.3861 80.08037 41.49046 79.97914 41.59483 79.87634 41.69922 79.77196 41.80359 79.66602 41.90799 79.5585 42.01236 79.44942 42.11674 79.33876 42.22112 79.22656 42.32549 79.11276 42.42987 78.99739 42.53424 78.88048 42.63863 78.76198 42.743 78.6419 42.84738 78.52026 42.95175 78.39705 43.05614 78.27228 43.1605 78.14594 43.26488 78.018 43.36928 77.88853 43.47365 77.75748 43.57803 77.62485 43.6824 77.49065 43.78679 77.35487 43.89116 77.21754 43.99553 77.07864 44.09991 76.93816 44.20428 76.79611 44.30867 76.65251 44.41304 76.50734 44.51743 76.36058 44.6218 76.21227 44.72618 76.06238 44.83055 75.9109 44.93494 75.75787 45.03932 75.60327 45.14369 75.44711 45.24808 75.28937 45.35245 75.13007 45.45683 74.9692 45.5612 74.80673 45.66557 74.64273 45.76996 74.47713 45.87433 74.30998 45.97871 74.14124 46.08308 73.97095 46.18747 73.79907 46.29184 73.62566 46.39624 73.45065 46.50061 73.2741 46.60498 73.09593 46.70937 72.91621 46.81374 72.73494 46.91812 72.5521 47.02249 72.36766 47.12688 72.18167 47.23125 71.9941 47.33562 71.80498 47.44 71.61427 47.54437 71.42201 47.64876 71.22818 47.75313 71.03278 47.85753 70.83578 47.9619 70.63724 48.06627 70.43713 48.17065 70.23543 48.27502 70.03218 48.37941 69.82735 48.48378 69.62096 48.58817 69.413 48.69254 69.20348 48.79692 68.99236 48.90129 68.7797 49.00566 68.56543 49.11005 68.34962 49.21442 68.13223 49.3188 67.91328 49.42319 67.69276 49.52757 67.47066 49.63194 67.24702 49.73631 67.02179 49.8407 66.795 49.94507 66.56662 50.04945 66.33669 50.15382 66.10518 50.25821 65.87209 50.36258 65.63744 50.46696 65.40121 50.57133 65.16342 50.67572 64.92407 50.7801 64.68317 50.88448 64.44066 50.98886 64.1966 51.09323 63.95096 51.19762 63.70375 51.30199 63.45499 51.40636 63.20464 51.51074 62.95273 51.61511 62.69923 51.7195 62.44417 51.82387 62.18755 51.92825 61.92935 52.03264 61.66962 52.13702 61.4083 52.2414 61.14539 52.34576 60.88092 52.45015 60.61487 52.55452 60.34726 52.6589 60.07808 52.76328 59.80733 52.86766 59.53502 52.97203 59.26112 53.0764 58.98566 53.18079 58.70865 53.28516 58.43005 53.38954 58.14989 53.49393 57.86815 53.59831 57.58484 53.70268 57.29997 53.80707 57.01352 53.91144 56.72551 54.01581 56.43593 54.1202 56.14476 54.22456 55.85204 54.32895 55.55775 54.43332 55.26192 54.5377 54.96448 54.64207 54.66547 54.74646 54.3649 54.85085 54.06276 54.95522 53.75905 55.0596 53.45377 55.16397 53.14691 55.26836 52.8385 55.37273 52.5285 55.4771 52.21693 55.58148 51.90385 55.68585 51.58916 55.79024 51.27287 55.8946 50.95503 55.999 50.63562 56.10336 50.31465 56.20776 49.99211 56.31213 49.66798 56.4165 49.3423 56.52089 49.01508 56.62526 48.68626 56.72964 48.35587 56.83401 48.02393 56.9384 47.69034 57.04277 47.35529 57.14714 47.01857 57.25153 46.68034 57.3559 46.3405 57.46028 45.99915 57.56467 45.6562 57.66905 45.31165 57.77342 44.96564 57.8778 44.61797 57.98218 44.26872 58.08655 43.91792 58.19093 43.56555 58.2953 43.21162 58.39969 42.85614 58.50406 42.49904 58.60844 42.14041 58.71281 41.7802 58.8172 41.4184 58.92159 41.05505 59.02596 40.69012 59.13034 40.32365 59.23471 39.9556 59.3391 39.58595 59.44347 39.21472 59.54785 38.84196 59.65222 38.4676 59.75659 38.0917 59.86098 37.71423 59.96535 37.33522 60.06973 36.95462 60.1741 36.57242 60.2785 36.18863 60.38287 35.80333 60.48724 35.41643 60.59163 35.02792 60.696 34.6379 60.80038 34.24628 60.90475 33.8531 61.00914 33.45837 61.11351 33.06209 61.2179 32.66418 61.32227 32.26471 61.42664 31.86372 61.53102 31.46114 61.6354 31.05696 61.73979 30.65121 61.84416 30.24391 61.94855 29.83504 62.05292 29.4246 62.15729 29.0126 62.26167 28.599 62.36604 28.18388 62.47043 27.76715"/>
<path transform="matrix(1,0,0,-1.00006,2.0960007,112.863819)" d="M20.82367 69.41223" fill="#ffffff"/>
<path transform="matrix(1,0,0,-1.00006,2.0960007,112.863819)" stroke-width=".99628" stroke-linecap="butt" stroke-miterlimit="10" stroke-linejoin="miter" fill="none" stroke="#1414cc" d="M20.82367 69.41223"/>
<path transform="matrix(1,0,0,-1.00006,2.0960007,112.863819)" d="M62.47101 27.7649" fill="#1414cc"/>
<path transform="matrix(1,0,0,-1.00006,2.0960007,112.863819)" stroke-width=".99628" stroke-linecap="butt" stroke-miterlimit="10" stroke-linejoin="miter" fill="none" stroke="#1414cc" d="M62.47101 27.7649"/>
<path transform="matrix(1,0,0,-1.00006,2.0960007,112.863819)" stroke-width="1.49442" stroke-linecap="butt" stroke-miterlimit="10" stroke-linejoin="miter" fill="none" stroke="#1414cc" d="M62.52332 76.95598 62.67987 77.55727 62.83644 77.9461 62.99303 78.25714 63.14958 78.52376 63.30615 78.76122 63.46274 78.97716 63.6193 79.17699 63.77586 79.36316 63.93243 79.53883 64.089 79.70543 64.24557 79.86375 64.40215 80.01515 64.5587 80.16084 64.71529 80.30113 64.87186 80.43655 65.02841 80.56705 65.185 80.69414 65.34157 80.81761 65.49812 80.93777 65.6547 81.05508 65.81128 81.16968 65.96783 81.28143 66.1244 81.39041 66.28099 81.49667 66.43755 81.60149 66.59412 81.70422 66.75067 81.80501 66.90726 81.90356 67.06383 82.00069 67.22038 82.09592 67.37695 82.1903 67.53354 82.28264 67.6901 82.37363 67.84666 82.4631 68.00325 82.55057 68.1598 82.63885 68.31638 82.72423 68.47295 82.80893 68.62952 82.8929 68.78609 82.97559 68.94266 83.0568 69.09923 83.1373 69.2558 83.21713 69.41237 83.29482 69.56892 83.37256 69.72551 83.44946 69.88208 83.52553 70.03864 83.60085 70.19522 83.67552 70.35179 83.74945 70.50835 83.82233 70.66492 83.89488 70.82149 83.96657 70.97806 84.03758 71.13463 84.10796 71.29118 84.17758 71.44777 84.24686 71.60434 84.31538 71.7609 84.38326 71.91748 84.45073 72.07405 84.51736 72.2306 84.58365 72.38718 84.64932 72.54376 84.71477 72.70032 84.77925 72.85689 84.84366 73.01347 84.90753 73.17003 84.97069 73.3266 85.03345 73.48317 85.09578 73.63974 85.1579 73.79631 85.21925 73.95288 85.28012 74.10944 85.34093 74.26602 85.40134 74.42259 85.46123 74.57915 85.52045 74.73573 85.57944 74.89229 85.63795 75.04886 85.69681 75.20543 85.75407 75.362 85.81204 75.51857 85.86945 75.67514 85.9258 75.83171 85.98286 75.98828 86.03853 76.14485 86.09483 76.3014 86.15 76.458 86.20638 76.61456 86.2612 76.77112 86.31612 76.92769 86.37045 77.08427 86.42445 77.24083 86.47826 77.3974 86.53185 77.55399 86.58487 77.71054 86.63777 77.86711 86.69073 78.02368 86.74327 78.18025 86.79547 78.33682 86.84726 78.4934 86.89882 78.64996 86.9504 78.80653 87.00134 78.9631 87.05222 79.11966 87.10283 79.27625 87.15329 79.4328 87.20367 79.58937 87.2531 79.74594 87.3033 79.90251 87.35278 80.05908 87.40207 80.21565 87.45108 80.37222 87.4998 80.5288 87.54874 80.68536 87.59683 80.84192 87.64508 80.9985 87.69296 81.15508 87.74088 81.31163 87.78883 81.46822 87.83609 81.62479 87.88344 81.78134 87.93036 81.93791 87.97694 82.0945 88.02365 82.25105 88.07036 82.40762 88.11626 82.56421 88.16254 82.72076 88.20828 82.87733 88.25424 83.0339 88.29985 83.19048 88.34497 83.34705 88.39043 83.5036 88.43549 83.66017 88.48026 83.81676 88.52489 83.97331 88.56944 84.12988 88.61372 84.28647 88.65828 84.44302 88.70236 84.5996 88.74576 84.75616 88.78983 84.91273 88.8337 85.0693 88.87688 85.22588 88.9201 85.38245 88.96321 85.53902 89.00626 85.69559 89.04935 85.85214 89.09233 86.00873 89.13438 86.1653 89.17686 86.32185 89.21915 86.47842 89.26147 86.63501 89.30382 86.79156 89.34547 86.94814 89.38712 87.10472 89.42868 87.26128 89.47041 87.41785 89.51108 87.5744 89.55252 87.73099 89.59355 87.88756 89.6347 88.04411 89.6758 88.2007 89.71585 88.35727 89.7564 88.51382 89.7972 88.6704 89.83788 88.82698 89.87862 88.98354 89.91763 89.1401 89.95755 89.29668 89.9978 89.45325 90.03764 89.60982 90.07652 89.76639 90.1158 89.92296 90.15578 90.07953 90.195 90.2361 90.23534 90.39265 90.27441 90.54924 90.31322 90.70581 90.35194 90.86237 90.39082 91.01895 90.42961 91.17552 90.46814 91.33208 90.50652 91.48865 90.54463 91.64522 90.58337 91.80179 90.62119 91.95836 90.65903 92.11491 90.69707 92.2715 90.73517 92.42807 90.7728 92.58463 90.81027 92.74121 90.8479 92.89778 90.88559 93.05434 90.92293 93.2109 90.95992 93.3675 90.997 93.52405 91.03427 93.68062 91.07126 93.8372 91.10777 93.99376 91.14478 94.15033 91.18143 94.3069 91.21806 94.46347 91.25458 94.62004 91.29102 94.77661 91.32712 94.93318 91.36348 95.08975 91.39966 95.24632 91.43588 95.40288 91.47128 95.55946 91.50752 95.71603 91.54353 95.87259 91.5793 96.02916 91.61476 96.18573 91.65057 96.3423 91.68617 96.49887 91.72131 96.65544 91.75685 96.81201 91.79176 96.96858 91.82716 97.12514 91.86227 97.28172 91.89706 97.4383 91.93176 97.59485 91.96675 97.75143 92.00145 97.908 92.0361 98.06456 92.07066 98.22113 92.1053 98.37772 92.13986 98.53427 92.17444 98.69084 92.20879 98.84741 92.24287 99.00398 92.2771 99.16055 92.31076 99.31712 92.34505 99.4737 92.37878 99.63026 92.41273 99.78683 92.44646 99.94339 92.47992 100.09998 92.51393 100.25653 92.54759 100.4131 92.58063 100.56969 92.61444 100.72624 92.64769 100.88281 92.68115 101.03938 92.7144 101.19595 92.74757 101.35252 92.78067 101.5091 92.81406 101.66565 92.84668 101.82224 92.87938 101.9788 92.91222 102.13536 92.94463 102.29195 92.97768 102.44852 93.0105 102.60507 93.04292 102.76164 93.07568 102.91823 93.10817 103.07478 93.14037 103.23135 93.17279 103.38794 93.20465 103.5445 93.23727 103.70107 93.26921 103.85764 93.30127 104.0142 93.33348 104.17078 93.36554 104.32733 93.39761 104.4839 93.42953 104.64049 93.46036 104.79704 93.49257 104.95361 93.52429 105.1102 93.55568 105.26675 93.58725 105.42332 93.61911 105.5799 93.65034 105.73647 93.6822 105.89304 93.71317 106.0496 93.74419 106.20618 93.77522 106.36275 93.80638 106.51932 93.83755 106.67587 93.86885 106.83246 93.90016 106.98903 93.93085 107.14558 93.9613 107.30217 93.99269 107.45874 94.02357 107.6153 94.05371 107.77187 94.08417 107.92845 94.11534 108.085 94.14601 108.24158 94.17656 108.39815 94.20695 108.55472 94.23764 108.71129 94.26784 108.86784 94.29803 109.02443 94.32787 109.181 94.35808 109.33755 94.38785 109.49413 94.4181 109.65071 94.44887 109.80727 94.47865 109.96384 94.50835 110.12042 94.53848 110.27698 94.5686 110.43355 94.59775 110.59012 94.62732 110.74669 94.65752 110.90326 94.68695 109.59111 94.44084"/>
<path transform="matrix(.9828,-.18435106,-.18434,-.98285898,112.42145,18.279564)" stroke-width="1.49442" stroke-linecap="round" stroke-linejoin="round" fill="none" stroke="#1414cc" d="M-3.38733 4.37073C-2.76846 1.74825-1.38942 .50992 0 0-1.38942-.50992-2.76846-1.74825-3.38733-4.37073"/>
<path transform="matrix(1,0,0,-1.00006,2.0960007,112.863819)" d="M62.47101 76.35345" fill="#ffffff"/>
<path transform="matrix(1,0,0,-1.00006,2.0960007,112.863819)" stroke-width=".99628" stroke-linecap="butt" stroke-miterlimit="10" stroke-linejoin="miter" fill="none" stroke="#1414cc" d="M62.47101 76.35345"/>
</g>
<path transform="matrix(1,0,0,-1.00006,2.0960007,112.863819)" d="M22.81622 69.41223C22.81622 70.5127 21.92413 71.40479 20.82367 71.40479 19.72319 71.40479 18.83112 70.5127 18.83112 69.41223 18.83112 68.31175 19.72319 67.41968 20.82367 67.41968 21.92413 67.41968 22.81622 68.31175 22.81622 69.41223ZM20.82367 69.41223" fill="#ffffff"/>
<path transform="matrix(1,0,0,-1.00006,2.0960007,112.863819)" stroke-width=".99628" stroke-linecap="butt" stroke-miterlimit="10" stroke-linejoin="miter" fill="none" stroke="#1414cc" d="M22.81622 69.41223C22.81622 70.5127 21.92413 71.40479 20.82367 71.40479 19.72319 71.40479 18.83112 70.5127 18.83112 69.41223 18.83112 68.31175 19.72319 67.41968 20.82367 67.41968 21.92413 67.41968 22.81622 68.31175 22.81622 69.41223ZM20.82367 69.41223"/>
<path transform="matrix(1,0,0,-1.00006,2.0960007,112.863819)" d="" fill="#ffffff"/>
<path transform="matrix(1,0,0,-1.00006,2.0960007,112.863819)" stroke-width=".99628" stroke-linecap="butt" stroke-miterlimit="10" stroke-linejoin="miter" fill="none" stroke="#1414cc" d=""/>
<path transform="matrix(1,0,0,-1.00006,2.0960007,112.863819)" d="M64.46356 27.7649C64.46356 28.86536 63.57147 29.75745 62.47101 29.75745 61.37053 29.75745 60.47845 28.86536 60.47845 27.7649 60.47845 26.66441 61.37053 25.77234 62.47101 25.77234 63.57147 25.77234 64.46356 26.66441 64.46356 27.7649ZM62.47101 27.7649" fill="#1414cc"/>
<path transform="matrix(1,0,0,-1.00006,2.0960007,112.863819)" stroke-width=".99628" stroke-linecap="butt" stroke-miterlimit="10" stroke-linejoin="miter" fill="none" stroke="#1414cc" d="M64.46356 27.7649C64.46356 28.86536 63.57147 29.75745 62.47101 29.75745 61.37053 29.75745 60.47845 28.86536 60.47845 27.7649 60.47845 26.66441 61.37053 25.77234 62.47101 25.77234 63.57147 25.77234 64.46356 26.66441 64.46356 27.7649ZM62.47101 27.7649"/>
<path transform="matrix(1,0,0,-1.00006,2.0960007,112.863819)" d="" fill="#1414cc"/>
<path transform="matrix(1,0,0,-1.00006,2.0960007,112.863819)" stroke-width=".99628" stroke-linecap="butt" stroke-miterlimit="10" stroke-linejoin="miter" fill="none" stroke="#1414cc" d=""/>
<path transform="matrix(1,0,0,-1.00006,2.0960007,112.863819)" d="M64.46356 76.35345C64.46356 77.45392 63.57147 78.34601 62.47101 78.34601 61.37053 78.34601 60.47845 77.45392 60.47845 76.35345 60.47845 75.25298 61.37053 74.3609 62.47101 74.3609 63.57147 74.3609 64.46356 75.25298 64.46356 76.35345ZM62.47101 76.35345" fill="#ffffff"/>
<path transform="matrix(1,0,0,-1.00006,2.0960007,112.863819)" stroke-width=".99628" stroke-linecap="butt" stroke-miterlimit="10" stroke-linejoin="miter" fill="none" stroke="#1414cc" d="M64.46356 76.35345C64.46356 77.45392 63.57147 78.34601 62.47101 78.34601 61.37053 78.34601 60.47845 77.45392 60.47845 76.35345 60.47845 75.25298 61.37053 74.3609 62.47101 74.3609 63.57147 74.3609 64.46356 75.25298 64.46356 76.35345ZM62.47101 76.35345"/>
<path transform="matrix(1,0,0,-1.00006,2.0960007,112.863819)" d="" fill="#ffffff"/>
<path transform="matrix(1,0,0,-1.00006,2.0960007,112.863819)" stroke-width=".99628" stroke-linecap="butt" stroke-miterlimit="10" stroke-linejoin="miter" fill="none" stroke="#1414cc" d=""/>
<use data-text="x" xlink:href="#font_4_1" transform="matrix(9.9626,0,0,-9.963197,103.965007,53.799276)"/>
<use data-text="y" xlink:href="#font_4_2" transform="matrix(9.9626,0,0,-9.963197,61.156003,9.585617)"/>
</svg>
