<svg xmlns="http://www.w3.org/2000/svg" xmlns:xlink="http://www.w3.org/1999/xlink" xmlns:inkscape="http://www.inkscape.org/namespaces/inkscape" version="1.1" width="228" height="191" viewBox="0 0 228 191">
<defs>
<path id="font_1_1" d="M.6589966 .23046875C.6759949 .23046875 .69400027 .23046875 .69400027 .25045777 .69400027 .27046205 .6759949 .27046205 .6589966 .27046205H.117996219C.100997928 .27046205 .08299255 .27046205 .08299255 .25045777 .08299255 .23046875 .100997928 .23046875 .117996219 .23046875H.6589966Z"/>
<path id="font_2_3" d="M.13198853 .327713V.35173036C.13198853 .6047821 .2559967 .64100649 .30699159 .64100649 .33099366 .64100649 .37298585 .634964 .394989 .6007538 .37998963 .6007538 .33999635 .6007538 .33999635 .5557556 .33999635 .524765 .3639984 .5097656 .38598634 .5097656 .4019928 .5097656 .43199159 .51875308 .43199159 .5577545 .43199159 .6178589 .3880005 .6660156 .30499269 .6660156 .1769867 .6660156 .041992189 .5367584 .041992189 .31570436 .041992189 .048553468 .1579895-.022460938 .25099183-.022460938 .3619995-.022460938 .45700074 .07156372 .45700074 .2036438 .45700074 .33070375 .36799623 .4267578 .25698854 .4267578 .18899536 .4267578 .1519928 .37573243 .13198853 .327713M.25099183 .0055389406C.18798828 .0055389406 .1579895 .06556702 .1519928 .080566409 .13398743 .127594 .13398743 .2076416 .13398743 .22564698 .13398743 .30369569 .1659851 .40374757 .2559967 .40374757 .27198792 .40374757 .31799317 .40374757 .34899903 .34172059 .36698915 .30470277 .36698915 .2536621 .36698915 .20463562 .36698915 .15661621 .36698915 .10658264 .34999085 .0705719 .31999208 .010528564 .27398683 .0055389406 .25099183 .0055389406Z"/>
<path id="font_2_2" d="M.2939911 .16503906V.07800293C.2939911 .041992189 .2919922 .0309906 .21798706 .0309906H.19699097V0C.23799134 .0029907227 .2899933 .0029907227 .33198548 .0029907227 .37399293 .0029907227 .4269867 .0029907227 .46798707 0V.0309906H.44699098C.37298585 .0309906 .37098695 .041992189 .37098695 .07800293V.16503906H.47099305V.19602967H.37098695V.65075686C.37098695 .67074587 .37098695 .6767578 .35499574 .6767578 .34599305 .6767578 .34298707 .6767578 .33499146 .66474917L.027999878 .19602967V.16503906H.2939911M.2999878 .19602967H.055999757L.2999878 .5688019V.19602967Z"/>
<path id="font_2_1" d="M.1269989 .07699585 .23298645 .18003845C.3889923 .31811524 .44898988 .3721466 .44898988 .47216798 .44898988 .5860901 .35899354 .6660156 .23699951 .6660156 .12399292 .6660156 .049987794 .57411196 .049987794 .48516847 .049987794 .4291687 .099990848 .4291687 .102996829 .4291687 .11999512 .4291687 .15499878 .44117738 .15499878 .48217774 .15499878 .5081787 .13699341 .5341797 .101989749 .5341797 .09399414 .5341797 .09199524 .5341797 .08898926 .5331726 .11199951 .59806826 .1659851 .63500979 .22399903 .63500979 .31498719 .63500979 .35798646 .5541382 .35798646 .47216798 .35798646 .39215089 .30799867 .31311036 .25299073 .25108338L.06098938 .036987306C.049987794 .025985718 .049987794 .023986817 .049987794 0H.42099L.44898988 .17404175H.42399598C.4189911 .14402771 .4119873 .1000061 .4019928 .084991458 .394989 .07699585 .32899476 .07699585 .30699159 .07699585H.1269989Z"/>
<clipPath id="clip_3">
<path transform="matrix(1.00005,0,0,-1,2.0961457,188.96302)" d="M0 0H224.1623V187.16675H0Z"/>
</clipPath>
<path id="font_4_1" d="M.20599365 .3996582H.2999878C.31999208 .3996582 .32998658 .3996582 .32998658 .41966249 .32998658 .43066407 .31999208 .43066407 .3019867 .43066407H.21398926C.25 .5724945 .25498963 .59246829 .25498963 .59846499 .25498963 .61546328 .24299622 .62545779 .22599793 .62545779 .22299195 .62545779 .19499207 .62446597 .18598938 .58947756L.14698792 .43066407H.052993776C.032989503 .43066407 .022994996 .43066407 .022994996 .4116516 .022994996 .3996582 .0309906 .3996582 .050994874 .3996582H.13899231C.066986087 .11608887 .06298828 .099121097 .06298828 .08114624 .06298828 .02722168 .100997928-.0107421879 .15499878-.0107421879 .25698854-.0107421879 .31399537 .13505554 .31399537 .14305115 .31399537 .1530304 .30599977 .1530304 .3019867 .1530304 .29299928 .1530304 .2919922 .15003968 .2869873 .13905335 .24398804 .035217287 .19099427 .011245728 .15699768 .011245728 .13598633 .011245728 .12599182 .024230957 .12599182 .057174684 .12599182 .08114624 .12799073 .088134769 .13198853 .10510254L.20599365 .3996582Z"/>
<path id="font_4_2" d="M.48599244 .38136292C.48999024 .39537049 .48999024 .39736939 .48999024 .40437318 .48999024 .42237855 .47599793 .43138124 .46099855 .43138124 .45098878 .43138124 .43499757 .42536927 .42599488 .41036988 .42399598 .405365 .41600038 .37435914 .4119873 .35635377 .40499879 .33035279 .397995 .30334474 .3919983 .27633668L.34700013 .09628296C.34298707 .08126831 .2999878 .011245728 .23399353 .011245728 .18299866 .011245728 .17199707 .055267335 .17199707 .0922699 .17199707 .1382904 .18899536 .20030213 .22299195 .28833009 .23899842 .3293457 .24299622 .3403473 .24299622 .36035157 .24299622 .405365 .21099854 .4423828 .16099549 .4423828 .06599426 .4423828 .0289917 .29733277 .0289917 .28833009 .0289917 .27833558 .038986207 .27833558 .040985109 .27833558 .050994874 .27833558 .051986696 .28033448 .056991579 .29634095 .083999637 .3903656 .12399292 .42037965 .1579895 .42037965 .1659851 .42037965 .18299866 .42037965 .18299866 .3883667 .18299866 .36335755 .17298889 .3373413 .1659851 .31834413 .12599182 .21231079 .10798645 .1552887 .10798645 .10827637 .10798645 .019256592 .17098999-.0107421879 .22999573-.0107421879 .2689972-.0107421879 .30299378 .0062561037 .33099366 .03425598 .31799317-.017745972 .30599977-.06674194 .2659912-.11973572 .23999024-.15385437 .20199585-.18309021 .1559906-.18309021 .14199829-.18309021 .09700012-.18005371 .07998657-.14074707 .09599304-.14074707 .10899353-.14074707 .12298584-.1287384 .1329956-.11973572 .14299011-.10673523 .14299011-.08773804 .14299011-.056747438 .115997318-.052734376 .10598755-.052734376 .08299255-.052734376 .049987794-.068740848 .049987794-.11773682 .049987794-.16796875 .09399414-.20507813 .1559906-.20507813 .25898744-.20507813 .3619995-.11373901 .3899994-.00074768069L.48599244 .38136292Z"/>
</defs>
<path transform="matrix(1.00005,0,0,-1,2.0961457,188.96302)" stroke-width=".3985" stroke-linecap="butt" stroke-miterlimit="10" stroke-linejoin="miter" fill="none" stroke="#404040" d="M0 0H224.1623V187.16675H0Z"/>
<path transform="matrix(1.00005,0,0,-1,2.0961457,188.96302)" stroke-width=".3985" stroke-linecap="butt" stroke-miterlimit="10" stroke-linejoin="miter" fill="none" stroke="#cccccc" d="M14.01013 0V187.16675M28.02028 0V187.16675M42.03043 0V187.16675M56.04057 0V187.16675M70.0507 0V187.16675M84.06085 0V187.16675M98.071 0V187.16675M112.08115 0V187.16675M126.09128 0V187.16675M140.10143 0V187.16675M154.11157 0V187.16675M168.12172 0V187.16675M182.13185 0V187.16675M196.142 0V187.16675M210.15215 0V187.16675"/>
<path transform="matrix(1.00005,0,0,-1,2.0961457,188.96302)" stroke-width=".3985" stroke-linecap="butt" stroke-miterlimit="10" stroke-linejoin="miter" fill="none" stroke="#cccccc" d="M28.02028 0V187.16675M56.04057 0V187.16675M84.06085 0V187.16675M140.10143 0V187.16675M168.12172 0V187.16675M196.142 0V187.16675"/>
<path transform="matrix(1.00005,0,0,-1,2.0961457,188.96302)" stroke-width=".3985" stroke-linecap="butt" stroke-miterlimit="10" stroke-linejoin="miter" fill="none" stroke="#cccccc" d="M0 11.69792H224.1623M0 23.39584H224.1623M0 35.09377H224.1623M0 46.79169H224.1623M0 58.48961H224.1623M0 70.18753H224.1623M0 81.88545H224.1623M0 93.58337H224.1623M0 105.2813H224.1623M0 116.97922H224.1623M0 128.67714H224.1623M0 140.37506H224.1623M0 152.07299H224.1623M0 163.7709H224.1623M0 175.46883H224.1623"/>
<path transform="matrix(1.00005,0,0,-1,2.0961457,188.96302)" stroke-width=".3985" stroke-linecap="butt" stroke-miterlimit="10" stroke-linejoin="miter" fill="none" stroke="#cccccc" d="M0 23.39584H224.1623M0 46.79169H224.1623M0 70.18753H224.1623M0 116.97922H224.1623M0 140.37506H224.1623M0 163.7709H224.1623"/>
<path transform="matrix(1.00005,0,0,-1,2.0961457,188.96302)" stroke-width=".19925" stroke-linecap="butt" stroke-miterlimit="10" stroke-linejoin="miter" fill="none" stroke="#7f807f" d="M14.01013 92.16599V95.00076M28.02028 92.16599V95.00076M42.03043 92.16599V95.00076M56.04057 92.16599V95.00076M70.0507 92.16599V95.00076M84.06085 92.16599V95.00076M98.071 92.16599V95.00076M112.08115 92.16599V95.00076M126.09128 92.16599V95.00076M140.10143 92.16599V95.00076M154.11157 92.16599V95.00076M168.12172 92.16599V95.00076M182.13185 92.16599V95.00076M196.142 92.16599V95.00076M210.15215 92.16599V95.00076"/>
<path transform="matrix(1.00005,0,0,-1,2.0961457,188.96302)" stroke-width=".19925" stroke-linecap="butt" stroke-miterlimit="10" stroke-linejoin="miter" fill="none" stroke="#7f807f" d="M28.02028 91.45749V95.70923M56.04057 91.45749V95.70923M84.06085 91.45749V95.70923M140.10143 91.45749V95.70923M168.12172 91.45749V95.70923M196.142 91.45749V95.70923"/>
<path transform="matrix(1.00005,0,0,-1,2.0961457,188.96302)" stroke-width=".19925" stroke-linecap="butt" stroke-miterlimit="10" stroke-linejoin="miter" fill="none" stroke="#7f807f" d="M110.66377 11.69792H113.4985M110.66377 23.39584H113.4985M110.66377 35.09377H113.4985M110.66377 46.79169H113.4985M110.66377 58.48961H113.4985M110.66377 70.18753H113.4985M110.66377 81.88545H113.4985M110.66377 93.58337H113.4985M110.66377 105.2813H113.4985M110.66377 116.97922H113.4985M110.66377 128.67714H113.4985M110.66377 140.37506H113.4985M110.66377 152.07299H113.4985M110.66377 163.7709H113.4985M110.66377 175.46883H113.4985"/>
<path transform="matrix(1.00005,0,0,-1,2.0961457,188.96302)" stroke-width=".19925" stroke-linecap="butt" stroke-miterlimit="10" stroke-linejoin="miter" fill="none" stroke="#7f807f" d="M109.95529 23.39584H114.20697M109.95529 46.79169H114.20697M109.95529 70.18753H114.20697M109.95529 116.97922H114.20697M109.95529 140.37506H114.20697M109.95529 163.7709H114.20697"/>
<path transform="matrix(1.00005,0,0,-1,2.0961457,188.96302)" stroke-width=".3985" stroke-linecap="butt" stroke-miterlimit="10" stroke-linejoin="miter" fill="none" stroke="#000000" d="M0 93.58337H222.16976"/>
<path transform="matrix(1.00005,0,0,-1,224.277,95.37965)" d="M1.99252 0-1.19551 1.59401 0 0-1.19551-1.59401"/>
<path transform="matrix(1.00005,0,0,-1,2.0961457,188.96302)" stroke-width=".3985" stroke-linecap="butt" stroke-miterlimit="10" stroke-linejoin="miter" fill="none" stroke="#000000" d="M112.08115 0V185.17423"/>
<path transform="matrix(0,-1,-1.00005,-0,114.18289,3.7887879)" d="M1.99252 0-1.19551 1.59401 0 0-1.19551-1.59401"/>
<use data-text="&#x2212;" xlink:href="#font_1_1" transform="matrix(9.963098,0,0,-9.9626,23.752228,107.446018)"/>
<use data-text="6" xlink:href="#font_2_3" transform="matrix(9.963098,0,0,-9.9626,31.501618,107.446018)"/>
<use data-text="&#x2212;" xlink:href="#font_1_1" transform="matrix(9.963098,0,0,-9.9626,51.773626,107.446018)"/>
<use data-text="4" xlink:href="#font_2_2" transform="matrix(9.963098,0,0,-9.9626,59.523015,107.446018)"/>
<use data-text="&#x2212;" xlink:href="#font_1_1" transform="matrix(9.963098,0,0,-9.9626,79.79603,107.446018)"/>
<use data-text="2" xlink:href="#font_2_1" transform="matrix(9.963098,0,0,-9.9626,87.54542,107.446018)"/>
<use data-text="2" xlink:href="#font_2_1" transform="matrix(9.963098,0,0,-9.9626,139.714,107.446018)"/>
<use data-text="4" xlink:href="#font_2_2" transform="matrix(9.963098,0,0,-9.9626,167.73542,107.446018)"/>
<use data-text="6" xlink:href="#font_2_3" transform="matrix(9.963098,0,0,-9.9626,195.75682,107.446018)"/>
<use data-text="&#x2212;" xlink:href="#font_1_1" transform="matrix(9.963098,0,0,-9.9626,95.805828,168.36202)"/>
<use data-text="6" xlink:href="#font_2_3" transform="matrix(9.963098,0,0,-9.9626,103.555217,168.36202)"/>
<use data-text="&#x2212;" xlink:href="#font_1_1" transform="matrix(9.963098,0,0,-9.9626,95.805828,144.966)"/>
<use data-text="4" xlink:href="#font_2_2" transform="matrix(9.963098,0,0,-9.9626,103.555217,144.966)"/>
<use data-text="&#x2212;" xlink:href="#font_1_1" transform="matrix(9.963098,0,0,-9.9626,95.805828,121.571018)"/>
<use data-text="2" xlink:href="#font_2_1" transform="matrix(9.963098,0,0,-9.9626,103.555217,121.571018)"/>
<use data-text="2" xlink:href="#font_2_1" transform="matrix(9.963098,0,0,-9.9626,103.555217,75.194019)"/>
<use data-text="4" xlink:href="#font_2_2" transform="matrix(9.963098,0,0,-9.9626,103.555217,51.79802)"/>
<use data-text="6" xlink:href="#font_2_3" transform="matrix(9.963098,0,0,-9.9626,103.555217,28.402009)"/>
<g clip-path="url(#clip_3)">
<path transform="matrix(1.00005,0,0,-1,2.0961457,188.96302)" stroke-width="1.49442" stroke-linecap="butt" stroke-miterlimit="10" stroke-linejoin="miter" fill="none" stroke="#008c0d" d="M14.01013 35.09377C14.01013 35.09377 14.4361 35.44943 14.5997 35.58601 14.7633 35.72261 15.02568 35.9417 15.18927 36.07828 15.35287 36.21487 15.61523 36.43396 15.77884 36.57056 15.94244 36.70714 16.20482 36.92624 16.36842 37.06282 16.53203 37.19942 16.79437 37.4185 16.95798 37.5551 17.12158 37.69168 17.38396 37.91078 17.54756 38.04736 17.71117 38.18396 17.97353 38.40305 18.13713 38.53964 18.30072 38.67622 18.5631 38.89532 18.7267 39.0319 18.8903 39.1685 19.15266 39.38759 19.31627 39.52419 19.47987 39.66077 19.74223 39.87985 19.90584 40.01645 20.06944 40.15305 20.33182 40.37213 20.49542 40.50871 20.65903 40.64531 20.92139 40.86438 21.08499 41.00098 21.24858 41.13756 21.51096 41.35666 21.67456 41.49324 21.83817 41.62984 22.10052 41.84892 22.26413 41.98552 22.42773 42.1221 22.6901 42.3412 22.8537 42.47778 23.0173 42.61438 23.27966 42.83347 23.44327 42.97006 23.60687 43.10664 23.86925 43.32574 24.03285 43.46233 24.19646 43.59892 24.4588 43.81801 24.6224 43.95459 24.78601 44.09119 25.04839 44.31027 25.21199 44.44687 25.3756 44.58345 25.63794 44.80255 25.80154 44.93913 25.96515 45.07573 26.22752 45.29482 26.39113 45.43141 26.55473 45.568 26.81711 45.7871 26.98071 45.92368 27.14432 46.06027 27.40666 46.27934 27.57027 46.41594 27.73387 46.55252 28.15985 46.9082 28.15985 46.9082"/>
<path transform="matrix(1.00005,0,0,-1,2.0961457,188.96302)" stroke-width=".99628" stroke-linecap="butt" stroke-miterlimit="10" stroke-linejoin="miter" fill="none" stroke="#008c0d" d="M14.01013 35.09377"/>
<path transform="matrix(1.00005,0,0,-1,2.0961457,188.96302)" stroke-width="1.49442" stroke-linecap="butt" stroke-miterlimit="10" stroke-linejoin="miter" fill="none" stroke="#008c0d" d="M27.88017 46.55771C27.88017 46.55771 28.73215 47.98041 29.05936 48.52682 29.38655 49.07324 29.91132 49.94955 30.23853 50.49597 30.56573 51.0424 31.0905 51.91869 31.41771 52.4651 31.74492 53.01152 32.26967 53.88782 32.59688 54.43423 32.92409 54.98065 33.44884 55.85693 33.77605 56.40337 34.10326 56.94978 34.62804 57.82608 34.95525 58.3725 35.28244 58.91893 35.8072 59.79521 36.13441 60.34163 36.46162 60.88805 36.98637 61.76436 37.31358 62.31078 37.6408 62.8572 38.16556 63.73347 38.49277 64.2799 38.81998 64.82632 39.34474 65.70262 39.67194 66.24904 39.99915 66.79546 40.52391 67.67175 40.85112 68.21817 41.17831 68.76459 41.7031 69.6409 42.0303 70.18732 42.35751 70.73373 42.88226 71.61002 43.20947 72.15645 43.53668 72.70287 44.06143 73.57915 44.38864 74.12556 44.71585 74.67198 45.24063 75.5483 45.56783 76.09471 45.89503 76.64113 46.4198 77.51743 46.74701 78.06384 47.0742 78.61026 47.59897 79.48654 47.92618 80.03296 48.25339 80.57939 48.77815 81.45569 49.10536 82.0021 49.43257 82.54852 49.95732 83.42482 50.28453 83.97124 50.61174 84.51765 51.1365 85.39397 51.4637 85.94038 51.79091 86.4868 52.31569 87.36308 52.6429 87.9095 52.9701 88.45593 53.49486 89.33221 53.82207 89.87863 54.14928 90.42505 54.67403 91.30136 55.00124 91.84778 55.32845 92.3942 56.18042 93.81691 56.18042 93.81691"/>
<path transform="matrix(1.00005,0,0,-1,2.0961457,188.96302)" stroke-width="1.49442" stroke-linecap="butt" stroke-miterlimit="10" stroke-linejoin="miter" fill="none" stroke="#008c0d" d="M55.90047 93.46638C55.90047 93.46638 56.33908 93.83263 56.50754 93.97327 56.676 94.11392 56.94618 94.33952 57.11462 94.48016 57.28308 94.62082 57.55325 94.8464 57.72171 94.98706 57.89017 95.12772 58.16034 95.3533 58.3288 95.49396 58.49725 95.6346 58.76743 95.86018 58.93587 96.00084 59.10432 96.14148 59.37451 96.36708 59.54297 96.50774 59.71141 96.64838 59.98158 96.87398 60.15004 97.01462 60.3185 97.15527 60.58868 97.38087 60.75713 97.52151 60.92558 97.66217 61.19576 97.88777 61.36421 98.02841 61.53265 98.16907 61.80284 98.39464 61.9713 98.5353 62.13976 98.67595 62.40994 98.90154 62.57838 99.04219 62.74684 99.18283 63.01701 99.40843 63.18547 99.54909 63.35391 99.68973 63.6241 99.91533 63.79256 100.05598 63.96101 100.19662 64.23119 100.42223 64.39963 100.56287 64.56808 100.70352 64.83827 100.92911 65.00673 101.06975 65.17517 101.2104 65.44534 101.436 65.6138 101.57664 65.78226 101.7173 66.05243 101.94289 66.22089 102.08354 66.38934 102.2242 66.65952 102.44978 66.82797 102.59044 66.99641 102.73108 67.2666 102.95667 67.43506 103.09732 67.60352 103.23796 67.87367 103.46356 68.04213 103.60422 68.21059 103.74486 68.48077 103.97046 68.64922 104.1111 68.81767 104.25175 69.08786 104.47736 69.25632 104.618 69.42477 104.75865 69.69493 104.98425 69.86339 105.1249 70.03185 105.26555 70.47047 105.63177 70.47047 105.63177"/>
<path transform="matrix(1.00005,0,0,-1,2.0961457,188.96302)" stroke-width="1.49442" stroke-linecap="butt" stroke-miterlimit="10" stroke-linejoin="miter" fill="none" stroke="#008c0d" d="M69.6304 105.45676C69.6304 105.45676 70.4908 105.09756 70.82126 104.95961 71.1517 104.82164 71.68166 104.6004 72.0121 104.46243 72.34254 104.32448 72.8725 104.10323 73.20294 103.96529 73.53339 103.82735 74.06335 103.6061 74.3938 103.46814 74.72424 103.33018 75.2542 103.10893 75.58464 102.97098 75.91508 102.83301 76.44504 102.61177 76.77548 102.47382 77.10593 102.33588 77.6359 102.11461 77.96634 101.97667 78.29678 101.83873 78.82674 101.61748 79.15718 101.47952 79.48763 101.34157 80.01758 101.12032 80.34802 100.98236 80.67847 100.8444 81.20844 100.62317 81.53888 100.4852 81.86932 100.34724 82.39928 100.12599 82.72972 99.98804 83.06017 99.85008 83.59012 99.62883 83.92056 99.49089 84.251 99.35295 84.78098 99.1317 85.11142 98.99374 85.44186 98.85579 85.97182 98.63454 86.30226 98.49658 86.6327 98.35861 87.16266 98.13737 87.4931 97.99942 87.82355 97.86147 88.35352 97.6402 88.68396 97.50226 89.0144 97.36432 89.54436 97.14307 89.8748 97.00513 90.20525 96.86719 90.7352 96.64592 91.06564 96.50797 91.3961 96.37 91.92606 96.14877 92.2565 96.0108 92.58694 95.87285 93.1169 95.6516 93.44734 95.51364 93.77779 95.37569 94.30774 95.15443 94.63818 95.0165 94.96864 94.87856 95.4986 94.6573 95.82904 94.51935 96.15948 94.38138 96.68944 94.16014 97.01988 94.02217 97.35033 93.88422 98.21074 93.52502 98.21074 93.52502"/>
<path transform="matrix(1.00005,0,0,-1,2.0961457,188.96302)" stroke-width="1.49442" stroke-linecap="butt" stroke-miterlimit="10" stroke-linejoin="miter" fill="none" stroke="#008c0d" d="M97.9309 94.05367C97.9309 94.05367 98.35686 92.63516 98.52046 92.1063 98.68407 91.57741 98.94643 90.74768 99.11003 90.2418 99.27364 89.73593 99.536 88.94307 99.6996 88.46019 99.8632 87.9773 100.12558 87.22133 100.28917 86.76144 100.45277 86.30154 100.71515 85.58244 100.87875 85.14554 101.04236 84.70863 101.30472 84.02641 101.46832 83.61252 101.63193 83.19861 101.89429 82.55325 102.05789 82.16234 102.2215 81.77142 102.48387 81.16296 102.64748 80.79504 102.81108 80.42712 103.07344 79.85553 103.23705 79.5106 103.40063 79.1657 103.66301 78.63097 103.82661 78.30904 103.99022 77.9871 104.2526 77.48923 104.4162 77.1903 104.5798 76.89137 104.84215 76.4304 105.00575 76.15445 105.16936 75.87851 105.43173 75.4544 105.59534 75.20146 105.75894 74.94852 106.02132 74.5613 106.18492 74.33134 106.34851 74.1014 106.61089 73.75104 106.77449 73.54408 106.9381 73.33711 107.20045 73.02364 107.36406 72.83968 107.52766 72.65572 107.79002 72.3791 107.95363 72.21812 108.11723 72.05716 108.37961 71.81743 108.54321 71.67944 108.70682 71.54147 108.96918 71.33862 109.13278 71.22365 109.29639 71.10867 109.55875 70.94269 109.72235 70.8507 109.88596 70.75871 110.14833 70.62961 110.31194 70.56061 110.47554 70.49161 110.73788 70.39938 110.90149 70.35338 111.0651 70.30737 111.32747 70.25201 111.49107 70.22902 111.65468 70.20601 112.08066 70.18753 112.08066 70.18753"/>
<path transform="matrix(1.00005,0,0,-1,2.0961457,188.96302)" stroke-width="1.49442" stroke-linecap="butt" stroke-miterlimit="10" stroke-linejoin="miter" fill="none" stroke="#008c0d" d="M112.08115 70.18753C112.08115 70.18753 112.51344 70.17802 112.67947 70.16618 112.8455 70.15434 113.11179 70.12584 113.27782 70.10217 113.44386 70.07849 113.71014 70.031 113.87617 69.9955 114.0422 69.95998 114.30847 69.8935 114.4745 69.84613 114.64055 69.79878 114.90681 69.7133 115.07286 69.6541 115.23889 69.59491 115.50517 69.49043 115.6712 69.4194 115.83725 69.34836 116.1035 69.2249 116.26955 69.14203 116.43558 69.05914 116.70186 68.91669 116.86789 68.82196 117.03394 68.72723 117.3002 68.56581 117.46625 68.45924 117.63228 68.35268 117.89854 68.17226 118.06458 68.05385 118.2306 67.93544 118.49689 67.73602 118.66293 67.60577 118.82896 67.47552 119.09525 67.25713 119.26128 67.11504 119.4273 66.97295 119.69357 66.73555 119.8596 66.58162 120.02565 66.42769 120.29193 66.1713 120.45796 66.00552 120.624 65.83975 120.89027 65.56438 121.0563 65.38676 121.22235 65.20914 121.48862 64.91478 121.65466 64.72533 121.8207 64.53586 122.08696 64.22252 122.25299 64.02121 122.41904 63.8199 122.6853 63.48758 122.85135 63.27443 123.01738 63.06128 123.28366 62.70996 123.44969 62.48497 123.61574 62.25998 123.88199 61.88968 124.04803 61.65285 124.21407 61.41602 124.48035 61.0267 124.64638 60.77803 124.81241 60.52936 125.07869 60.12108 125.24474 59.86057 125.41077 59.60005 125.67703 59.17276 125.84306 58.9004 126.0091 58.62805 126.4414 57.89758 126.4414 57.89758"/>
<path transform="matrix(1.00005,0,0,-1,2.0961457,188.96302)" stroke-width="1.49442" stroke-linecap="butt" stroke-miterlimit="10" stroke-linejoin="miter" fill="none" stroke="#008c0d" d="M125.74103 57.89738C125.74103 57.89738 126.17332 58.62787 126.33936 58.90022 126.5054 59.17258 126.77168 59.59987 126.93771 59.86038 127.10374 60.1209 127.37003 60.52919 127.53606 60.77786 127.7021 61.02654 127.96837 61.41585 128.1344 61.65268 128.30043 61.88951 128.56671 62.25983 128.73274 62.48482 128.89879 62.70981 129.16506 63.06113 129.3311 63.27428 129.49713 63.48743 129.7634 63.81976 129.92943 64.02107 130.09548 64.22238 130.36174 64.53574 130.52779 64.7252 130.69382 64.91466 130.9601 65.20901 131.12613 65.38664 131.29216 65.56425 131.55843 65.83965 131.72447 66.00542 131.8905 66.17119 132.15679 66.42758 132.32282 66.58151 132.48885 66.73544 132.75513 66.97284 132.92118 67.11493 133.0872 67.25702 133.35347 67.47543 133.5195 67.60568 133.68553 67.73593 133.95182 67.93535 134.11785 68.05376 134.28389 68.17216 134.55017 68.3526 134.7162 68.45917 134.88224 68.56573 135.1485 68.72717 135.31453 68.8219 135.48058 68.91663 135.74684 69.05908 135.91289 69.14197 136.07892 69.22485 136.3452 69.34831 136.51123 69.41936 136.67728 69.49039 136.94353 69.59486 137.10958 69.65405 137.2756 69.71326 137.54189 69.79874 137.70792 69.8461 137.87397 69.89348 138.14023 69.95995 138.30628 69.99547 138.4723 70.03098 138.73857 70.07846 138.9046 70.10216 139.07064 70.12584 139.33692 70.15433 139.50296 70.16617 139.66899 70.17801 140.1013 70.18753 140.1013 70.18753"/>
<path transform="matrix(1.00005,0,0,-1,2.0961457,188.96302)" stroke-width="1.49442" stroke-linecap="butt" stroke-miterlimit="10" stroke-linejoin="miter" fill="none" stroke="#008c0d" d="M140.10143 70.18753C140.10143 70.18753 140.52739 70.20596 140.691 70.22896 140.8546 70.25194 141.11696 70.30725 141.28057 70.35324 141.44417 70.39923 141.70653 70.49142 141.87014 70.5604 142.03374 70.62938 142.2961 70.75844 142.4597 70.8504 142.6233 70.94238 142.88567 71.10834 143.04927 71.2233 143.21288 71.33826 143.47525 71.54108 143.63886 71.67903 143.80246 71.817 144.0648 72.0567 144.22841 72.21765 144.39202 72.37859 144.65439 72.65515 144.818 72.8391 144.9816 73.02304 145.24396 73.3365 145.40755 73.54344 145.57115 73.75038 145.83353 74.1007 145.99713 74.33063 146.16074 74.56056 146.42311 74.94775 146.58672 75.20068 146.75032 75.45361 147.01267 75.87769 147.17627 76.15361 147.33988 76.42952 147.60225 76.89046 147.76586 77.18938 147.92946 77.4883 148.19182 77.98611 148.35543 78.30801 148.51902 78.62991 148.78139 79.16461 148.94499 79.50952 149.1086 79.85442 149.37096 80.42598 149.53456 80.79388 149.69817 81.16179 149.96053 81.77022 150.12413 82.1611 150.28774 82.552 150.5501 83.1973 150.7137 83.61119 150.8773 84.02509 151.13968 84.70728 151.30329 85.14415 151.46688 85.58102 151.72924 86.3001 151.89284 86.75996 152.05644 87.21983 152.31882 87.97577 152.48242 88.45863 152.64603 88.9415 152.90839 89.73431 153.07199 90.24017 153.2356 90.74603 153.49796 91.57571 153.66156 92.10457 153.82517 92.63342 154.25115 94.05185 154.25115 94.05185"/>
<path transform="matrix(1.00005,0,0,-1,2.0961457,188.96302)" stroke-width="1.49442" stroke-linecap="butt" stroke-miterlimit="10" stroke-linejoin="miter" fill="none" stroke="#008c0d" d="M153.62122 93.59769C153.62122 93.59769 154.48796 93.5852 154.82083 93.61334 155.15372 93.6415 155.68758 93.72478 156.02045 93.80052 156.35334 93.87625 156.88719 94.0359 157.22006 94.15924 157.55295 94.28258 158.0868 94.51855 158.4197 94.68948 158.75257 94.86041 159.28643 95.17273 159.61931 95.39125 159.95218 95.60979 160.48606 95.99841 160.81893 96.26454 161.15181 96.53067 161.68567 96.99565 162.01854 97.30937 162.35143 97.6231 162.88529 98.16441 163.21816 98.52573 163.55104 98.88705 164.0849 99.5047 164.41779 99.91362 164.75066 100.32256 165.28452 101.01651 165.6174 101.47305 165.95027 101.92958 166.48415 102.69986 166.81702 103.204 167.1499 103.70811 167.68376 104.55475 168.01663 105.10648 168.34952 105.6582 168.88338 106.58118 169.21625 107.1805 169.54914 107.77982 170.083 108.7791 170.41588 109.42603 170.74875 110.07294 171.28261 111.14856 171.6155 111.84308 171.94837 112.5376 172.48224 113.6896 172.81511 114.43172 173.148 115.17383 173.68186 116.40211 174.01473 117.19183 174.34761 117.98154 174.88147 119.28618 175.21434 120.12349 175.54723 120.9608 176.08109 122.34177 176.41397 123.22667 176.74684 124.11157 177.2807 125.56885 177.61359 126.50137 177.94646 127.43388 178.48033 128.96755 178.8132 129.94766 179.14609 130.92778 179.67995 132.5377 180.01282 133.56543 180.3457 134.59314 180.87957 136.2794 181.21244 137.35472 181.54532 138.43003 182.41207 141.31555 182.41207 141.31555"/>
<path transform="matrix(1.00005,0,0,-1,2.0961457,188.96302)" stroke-width="1.49442" stroke-linecap="butt" stroke-miterlimit="10" stroke-linejoin="miter" fill="none" stroke="#008c0d" d="M181.71155 140.37506C181.71155 140.37506 182.14597 140.37506 182.31279 140.37506 182.47962 140.37506 182.7472 140.37506 182.91403 140.37506 183.08087 140.37506 183.34844 140.37506 183.51528 140.37506 183.68213 140.37506 183.94969 140.37506 184.11652 140.37506 184.28334 140.37506 184.55092 140.37506 184.71776 140.37506 184.8846 140.37506 185.15218 140.37506 185.31902 140.37506 185.48586 140.37506 185.75342 140.37506 185.92024 140.37506 186.08708 140.37506 186.35465 140.37506 186.52149 140.37506 186.68833 140.37506 186.9559 140.37506 187.12274 140.37506 187.28958 140.37506 187.55716 140.37506 187.72399 140.37506 187.89081 140.37506 188.15837 140.37506 188.32521 140.37506 188.49207 140.37506 188.75963 140.37506 188.92647 140.37506 189.0933 140.37506 189.36087 140.37506 189.52771 140.37506 189.69455 140.37506 189.96213 140.37506 190.12897 140.37506 190.2958 140.37506 190.56337 140.37506 190.7302 140.37506 190.89704 140.37506 191.1646 140.37506 191.33144 140.37506 191.49828 140.37506 191.76586 140.37506 191.9327 140.37506 192.09954 140.37506 192.36711 140.37506 192.53394 140.37506 192.70076 140.37506 192.96833 140.37506 193.13516 140.37506 193.30202 140.37506 193.56958 140.37506 193.73642 140.37506 193.90326 140.37506 194.17084 140.37506 194.33766 140.37506 194.50449 140.37506 194.77207 140.37506 194.9389 140.37506 195.10575 140.37506 195.3733 140.37506 195.54015 140.37506 195.707 140.37506 196.14139 140.37506 196.14139 140.37506"/>
<path transform="matrix(1.00005,0,0,-1,2.0961457,188.96302)" d="M196.142 140.37506" fill="#ffffff"/>
<path transform="matrix(1.00005,0,0,-1,2.0961457,188.96302)" stroke-width="1.49442" stroke-linecap="butt" stroke-miterlimit="10" stroke-linejoin="miter" fill="none" stroke="#008c0d" d="M196.142 140.37506"/>
</g>
<path transform="matrix(1.00005,0,0,-1,2.0961457,188.96302)" d="M16.00269 35.09377C16.00269 36.19423 15.11061 37.08632 14.01013 37.08632 12.90967 37.08632 12.01758 36.19423 12.01758 35.09377 12.01758 33.99329 12.90967 33.10121 14.01013 33.10121 15.11061 33.10121 16.00269 33.99329 16.00269 35.09377ZM14.01013 35.09377" fill="#008c0d"/>
<path transform="matrix(1.00005,0,0,-1,2.0961457,188.96302)" stroke-width=".99628" stroke-linecap="butt" stroke-miterlimit="10" stroke-linejoin="miter" fill="none" stroke="#008c0d" d="M16.00269 35.09377C16.00269 36.19423 15.11061 37.08632 14.01013 37.08632 12.90967 37.08632 12.01758 36.19423 12.01758 35.09377 12.01758 33.99329 12.90967 33.10121 14.01013 33.10121 15.11061 33.10121 16.00269 33.99329 16.00269 35.09377ZM14.01013 35.09377"/>
<path transform="matrix(1.00005,0,0,-1,2.0961457,188.96302)" stroke-width=".99628" stroke-linecap="butt" stroke-miterlimit="10" stroke-linejoin="miter" fill="none" stroke="#008c0d" d=""/>
<path transform="matrix(1.00005,0,0,-1,2.0961457,188.96302)" d="M198.13455 140.37506C198.13455 141.47553 197.24246 142.36762 196.142 142.36762 195.04154 142.36762 194.14945 141.47553 194.14945 140.37506 194.14945 139.2746 195.04154 138.3825 196.142 138.3825 197.24246 138.3825 198.13455 139.2746 198.13455 140.37506ZM196.142 140.37506" fill="#ffffff"/>
<path transform="matrix(1.00005,0,0,-1,2.0961457,188.96302)" stroke-width="1.49442" stroke-linecap="butt" stroke-miterlimit="10" stroke-linejoin="miter" fill="none" stroke="#008c0d" d="M198.13455 140.37506C198.13455 141.47553 197.24246 142.36762 196.142 142.36762 195.04154 142.36762 194.14945 141.47553 194.14945 140.37506 194.14945 139.2746 195.04154 138.3825 196.142 138.3825 197.24246 138.3825 198.13455 139.2746 198.13455 140.37506ZM196.142 140.37506"/>
<path transform="matrix(1.00005,0,0,-1,2.0961457,188.96302)" d="" fill="#ffffff"/>
<path transform="matrix(1.00005,0,0,-1,2.0961457,188.96302)" stroke-width="1.49442" stroke-linecap="butt" stroke-miterlimit="10" stroke-linejoin="miter" fill="none" stroke="#008c0d" d=""/>
<use data-text="t" xlink:href="#font_4_1" transform="matrix(9.963098,0,0,-9.9626,219.20502,91.83801)"/>
<use data-text="y" xlink:href="#font_4_2" transform="matrix(9.963098,0,0,-9.9626,117.72992,9.606018)"/>
</svg>
