<svg xmlns="http://www.w3.org/2000/svg" xmlns:xlink="http://www.w3.org/1999/xlink" xmlns:inkscape="http://www.inkscape.org/namespaces/inkscape" version="1.1" width="228" height="191" viewBox="0 0 228 191">
<defs>
<path id="font_1_1" d="M.6589966 .23046875C.6759949 .23046875 .69400027 .23046875 .69400027 .25045777 .69400027 .27046205 .6759949 .27046205 .6589966 .27046205H.117996219C.100997928 .27046205 .08299255 .27046205 .08299255 .25045777 .08299255 .23046875 .100997928 .23046875 .117996219 .23046875H.6589966Z"/>
<path id="font_2_3" d="M.13198853 .327713V.35173036C.13198853 .6047821 .2559967 .64100649 .30699159 .64100649 .33099366 .64100649 .37298585 .634964 .394989 .6007538 .37998963 .6007538 .33999635 .6007538 .33999635 .5557556 .33999635 .524765 .3639984 .5097656 .38598634 .5097656 .4019928 .5097656 .43199159 .51875308 .43199159 .5577545 .43199159 .6178589 .3880005 .6660156 .30499269 .6660156 .1769867 .6660156 .041992189 .5367584 .041992189 .31570436 .041992189 .048553468 .1579895-.022460938 .25099183-.022460938 .3619995-.022460938 .45700074 .07156372 .45700074 .2036438 .45700074 .33070375 .36799623 .4267578 .25698854 .4267578 .18899536 .4267578 .1519928 .37573243 .13198853 .327713M.25099183 .0055389406C.18798828 .0055389406 .1579895 .06556702 .1519928 .080566409 .13398743 .127594 .13398743 .2076416 .13398743 .22564698 .13398743 .30369569 .1659851 .40374757 .2559967 .40374757 .27198792 .40374757 .31799317 .40374757 .34899903 .34172059 .36698915 .30470277 .36698915 .2536621 .36698915 .20463562 .36698915 .15661621 .36698915 .10658264 .34999085 .0705719 .31999208 .010528564 .27398683 .0055389406 .25099183 .0055389406Z"/>
<path id="font_2_2" d="M.2939911 .16503906V.07800293C.2939911 .041992189 .2919922 .0309906 .21798706 .0309906H.19699097V0C.23799134 .0029907227 .2899933 .0029907227 .33198548 .0029907227 .37399293 .0029907227 .4269867 .0029907227 .46798707 0V.0309906H.44699098C.37298585 .0309906 .37098695 .041992189 .37098695 .07800293V.16503906H.47099305V.19602967H.37098695V.65075686C.37098695 .67074587 .37098695 .6767578 .35499574 .6767578 .34599305 .6767578 .34298707 .6767578 .33499146 .66474917L.027999878 .19602967V.16503906H.2939911M.2999878 .19602967H.055999757L.2999878 .5688019V.19602967Z"/>
<path id="font_2_1" d="M.1269989 .07699585 .23298645 .18003845C.3889923 .31811524 .44898988 .3721466 .44898988 .47216798 .44898988 .5860901 .35899354 .6660156 .23699951 .6660156 .12399292 .6660156 .049987794 .57411196 .049987794 .48516847 .049987794 .4291687 .099990848 .4291687 .102996829 .4291687 .11999512 .4291687 .15499878 .44117738 .15499878 .48217774 .15499878 .5081787 .13699341 .5341797 .101989749 .5341797 .09399414 .5341797 .09199524 .5341797 .08898926 .5331726 .11199951 .59806826 .1659851 .63500979 .22399903 .63500979 .31498719 .63500979 .35798646 .5541382 .35798646 .47216798 .35798646 .39215089 .30799867 .31311036 .25299073 .25108338L.06098938 .036987306C.049987794 .025985718 .049987794 .023986817 .049987794 0H.42099L.44898988 .17404175H.42399598C.4189911 .14402771 .4119873 .1000061 .4019928 .084991458 .394989 .07699585 .32899476 .07699585 .30699159 .07699585H.1269989Z"/>
<clipPath id="clip_3">
<path transform="matrix(1.00005,0,0,-1,2.0961457,188.96302)" d="M0 0H224.1623V187.16675H0Z"/>
</clipPath>
<path id="font_4_1" d="M.20599365 .3996582H.2999878C.31999208 .3996582 .32998658 .3996582 .32998658 .41966249 .32998658 .43066407 .31999208 .43066407 .3019867 .43066407H.21398926C.25 .5724945 .25498963 .59246829 .25498963 .59846499 .25498963 .61546328 .24299622 .62545779 .22599793 .62545779 .22299195 .62545779 .19499207 .62446597 .18598938 .58947756L.14698792 .43066407H.052993776C.032989503 .43066407 .022994996 .43066407 .022994996 .4116516 .022994996 .3996582 .0309906 .3996582 .050994874 .3996582H.13899231C.066986087 .11608887 .06298828 .099121097 .06298828 .08114624 .06298828 .02722168 .100997928-.0107421879 .15499878-.0107421879 .25698854-.0107421879 .31399537 .13505554 .31399537 .14305115 .31399537 .1530304 .30599977 .1530304 .3019867 .1530304 .29299928 .1530304 .2919922 .15003968 .2869873 .13905335 .24398804 .035217287 .19099427 .011245728 .15699768 .011245728 .13598633 .011245728 .12599182 .024230957 .12599182 .057174684 .12599182 .08114624 .12799073 .088134769 .13198853 .10510254L.20599365 .3996582Z"/>
<path id="font_4_2" d="M.48599244 .38136292C.48999024 .39537049 .48999024 .39736939 .48999024 .40437318 .48999024 .42237855 .47599793 .43138124 .46099855 .43138124 .45098878 .43138124 .43499757 .42536927 .42599488 .41036988 .42399598 .405365 .41600038 .37435914 .4119873 .35635377 .40499879 .33035279 .397995 .30334474 .3919983 .27633668L.34700013 .09628296C.34298707 .08126831 .2999878 .011245728 .23399353 .011245728 .18299866 .011245728 .17199707 .055267335 .17199707 .0922699 .17199707 .1382904 .18899536 .20030213 .22299195 .28833009 .23899842 .3293457 .24299622 .3403473 .24299622 .36035157 .24299622 .405365 .21099854 .4423828 .16099549 .4423828 .06599426 .4423828 .0289917 .29733277 .0289917 .28833009 .0289917 .27833558 .038986207 .27833558 .040985109 .27833558 .050994874 .27833558 .051986696 .28033448 .056991579 .29634095 .083999637 .3903656 .12399292 .42037965 .1579895 .42037965 .1659851 .42037965 .18299866 .42037965 .18299866 .3883667 .18299866 .36335755 .17298889 .3373413 .1659851 .31834413 .12599182 .21231079 .10798645 .1552887 .10798645 .10827637 .10798645 .019256592 .17098999-.0107421879 .22999573-.0107421879 .2689972-.0107421879 .30299378 .0062561037 .33099366 .03425598 .31799317-.017745972 .30599977-.06674194 .2659912-.11973572 .23999024-.15385437 .20199585-.18309021 .1559906-.18309021 .14199829-.18309021 .09700012-.18005371 .07998657-.14074707 .09599304-.14074707 .10899353-.14074707 .12298584-.1287384 .1329956-.11973572 .14299011-.10673523 .14299011-.08773804 .14299011-.056747438 .115997318-.052734376 .10598755-.052734376 .08299255-.052734376 .049987794-.068740848 .049987794-.11773682 .049987794-.16796875 .09399414-.20507813 .1559906-.20507813 .25898744-.20507813 .3619995-.11373901 .3899994-.00074768069L.48599244 .38136292Z"/>
</defs>
<path transform="matrix(1.00005,0,0,-1,2.0961457,188.96302)" stroke-width=".3985" stroke-linecap="butt" stroke-miterlimit="10" stroke-linejoin="miter" fill="none" stroke="#404040" d="M0 0H224.1623V187.16675H0Z"/>
<path transform="matrix(1.00005,0,0,-1,2.0961457,188.96302)" stroke-width=".3985" stroke-linecap="butt" stroke-miterlimit="10" stroke-linejoin="miter" fill="none" stroke="#cccccc" d="M14.01013 0V187.16675M28.02028 0V187.16675M42.03043 0V187.16675M56.04057 0V187.16675M70.0507 0V187.16675M84.06085 0V187.16675M98.071 0V187.16675M112.08115 0V187.16675M126.09128 0V187.16675M140.10143 0V187.16675M154.11157 0V187.16675M168.12172 0V187.16675M182.13185 0V187.16675M196.142 0V187.16675M210.15215 0V187.16675"/>
<path transform="matrix(1.00005,0,0,-1,2.0961457,188.96302)" stroke-width=".3985" stroke-linecap="butt" stroke-miterlimit="10" stroke-linejoin="miter" fill="none" stroke="#cccccc" d="M28.02028 0V187.16675M56.04057 0V187.16675M84.06085 0V187.16675M140.10143 0V187.16675M168.12172 0V187.16675M196.142 0V187.16675"/>
<path transform="matrix(1.00005,0,0,-1,2.0961457,188.96302)" stroke-width=".3985" stroke-linecap="butt" stroke-miterlimit="10" stroke-linejoin="miter" fill="none" stroke="#cccccc" d="M0 11.69792H224.1623M0 23.39584H224.1623M0 35.09377H224.1623M0 46.79169H224.1623M0 58.48961H224.1623M0 70.18753H224.1623M0 81.88545H224.1623M0 93.58337H224.1623M0 105.2813H224.1623M0 116.97922H224.1623M0 128.67714H224.1623M0 140.37506H224.1623M0 152.07299H224.1623M0 163.7709H224.1623M0 175.46883H224.1623"/>
<path transform="matrix(1.00005,0,0,-1,2.0961457,188.96302)" stroke-width=".3985" stroke-linecap="butt" stroke-miterlimit="10" stroke-linejoin="miter" fill="none" stroke="#cccccc" d="M0 23.39584H224.1623M0 46.79169H224.1623M0 70.18753H224.1623M0 116.97922H224.1623M0 140.37506H224.1623M0 163.7709H224.1623"/>
<path transform="matrix(1.00005,0,0,-1,2.0961457,188.96302)" stroke-width=".19925" stroke-linecap="butt" stroke-miterlimit="10" stroke-linejoin="miter" fill="none" stroke="#7f807f" d="M14.01013 92.16599V95.00076M28.02028 92.16599V95.00076M42.03043 92.16599V95.00076M56.04057 92.16599V95.00076M70.0507 92.16599V95.00076M84.06085 92.16599V95.00076M98.071 92.16599V95.00076M112.08115 92.16599V95.00076M126.09128 92.16599V95.00076M140.10143 92.16599V95.00076M154.11157 92.16599V95.00076M168.12172 92.16599V95.00076M182.13185 92.16599V95.00076M196.142 92.16599V95.00076M210.15215 92.16599V95.00076"/>
<path transform="matrix(1.00005,0,0,-1,2.0961457,188.96302)" stroke-width=".19925" stroke-linecap="butt" stroke-miterlimit="10" stroke-linejoin="miter" fill="none" stroke="#7f807f" d="M28.02028 91.45749V95.70923M56.04057 91.45749V95.70923M84.06085 91.45749V95.70923M140.10143 91.45749V95.70923M168.12172 91.45749V95.70923M196.142 91.45749V95.70923"/>
<path transform="matrix(1.00005,0,0,-1,2.0961457,188.96302)" stroke-width=".19925" stroke-linecap="butt" stroke-miterlimit="10" stroke-linejoin="miter" fill="none" stroke="#7f807f" d="M110.66377 11.69792H113.4985M110.66377 23.39584H113.4985M110.66377 35.09377H113.4985M110.66377 46.79169H113.4985M110.66377 58.48961H113.4985M110.66377 70.18753H113.4985M110.66377 81.88545H113.4985M110.66377 93.58337H113.4985M110.66377 105.2813H113.4985M110.66377 116.97922H113.4985M110.66377 128.67714H113.4985M110.66377 140.37506H113.4985M110.66377 152.07299H113.4985M110.66377 163.7709H113.4985M110.66377 175.46883H113.4985"/>
<path transform="matrix(1.00005,0,0,-1,2.0961457,188.96302)" stroke-width=".19925" stroke-linecap="butt" stroke-miterlimit="10" stroke-linejoin="miter" fill="none" stroke="#7f807f" d="M109.95529 23.39584H114.20697M109.95529 46.79169H114.20697M109.95529 70.18753H114.20697M109.95529 116.97922H114.20697M109.95529 140.37506H114.20697M109.95529 163.7709H114.20697"/>
<path transform="matrix(1.00005,0,0,-1,2.0961457,188.96302)" stroke-width=".3985" stroke-linecap="butt" stroke-miterlimit="10" stroke-linejoin="miter" fill="none" stroke="#000000" d="M0 93.58337H222.16976"/>
<path transform="matrix(1.00005,0,0,-1,224.277,95.37965)" d="M1.99252 0-1.19551 1.59401 0 0-1.19551-1.59401"/>
<path transform="matrix(1.00005,0,0,-1,2.0961457,188.96302)" stroke-width=".3985" stroke-linecap="butt" stroke-miterlimit="10" stroke-linejoin="miter" fill="none" stroke="#000000" d="M112.08115 0V185.17423"/>
<path transform="matrix(0,-1,-1.00005,-0,114.18289,3.7887879)" d="M1.99252 0-1.19551 1.59401 0 0-1.19551-1.59401"/>
<use data-text="&#x2212;" xlink:href="#font_1_1" transform="matrix(9.963098,0,0,-9.9626,23.752228,107.446018)"/>
<use data-text="6" xlink:href="#font_2_3" transform="matrix(9.963098,0,0,-9.9626,31.501618,107.446018)"/>
<use data-text="&#x2212;" xlink:href="#font_1_1" transform="matrix(9.963098,0,0,-9.9626,51.773626,107.446018)"/>
<use data-text="4" xlink:href="#font_2_2" transform="matrix(9.963098,0,0,-9.9626,59.523015,107.446018)"/>
<use data-text="&#x2212;" xlink:href="#font_1_1" transform="matrix(9.963098,0,0,-9.9626,79.79603,107.446018)"/>
<use data-text="2" xlink:href="#font_2_1" transform="matrix(9.963098,0,0,-9.9626,87.54542,107.446018)"/>
<use data-text="2" xlink:href="#font_2_1" transform="matrix(9.963098,0,0,-9.9626,139.714,107.446018)"/>
<use data-text="4" xlink:href="#font_2_2" transform="matrix(9.963098,0,0,-9.9626,167.73542,107.446018)"/>
<use data-text="6" xlink:href="#font_2_3" transform="matrix(9.963098,0,0,-9.9626,195.75682,107.446018)"/>
<use data-text="&#x2212;" xlink:href="#font_1_1" transform="matrix(9.963098,0,0,-9.9626,95.805828,168.36202)"/>
<use data-text="6" xlink:href="#font_2_3" transform="matrix(9.963098,0,0,-9.9626,103.555217,168.36202)"/>
<use data-text="&#x2212;" xlink:href="#font_1_1" transform="matrix(9.963098,0,0,-9.9626,95.805828,144.966)"/>
<use data-text="4" xlink:href="#font_2_2" transform="matrix(9.963098,0,0,-9.9626,103.555217,144.966)"/>
<use data-text="&#x2212;" xlink:href="#font_1_1" transform="matrix(9.963098,0,0,-9.9626,95.805828,121.571018)"/>
<use data-text="2" xlink:href="#font_2_1" transform="matrix(9.963098,0,0,-9.9626,103.555217,121.571018)"/>
<use data-text="2" xlink:href="#font_2_1" transform="matrix(9.963098,0,0,-9.9626,103.555217,75.194019)"/>
<use data-text="4" xlink:href="#font_2_2" transform="matrix(9.963098,0,0,-9.9626,103.555217,51.79802)"/>
<use data-text="6" xlink:href="#font_2_3" transform="matrix(9.963098,0,0,-9.9626,103.555217,28.402009)"/>
<g clip-path="url(#clip_3)">
<path transform="matrix(1.00005,0,0,-1,2.0961457,188.96302)" stroke-width="1.49442" stroke-linecap="butt" stroke-miterlimit="10" stroke-linejoin="miter" fill="none" stroke="#1414cc" d="M14.01013 175.46811C14.01013 175.46811 15.27544 171.2965 15.7614 169.74108 16.24736 168.18566 17.0267 165.7455 17.51266 164.25772 17.99863 162.76993 18.77798 160.43824 19.26395 159.01808 19.74991 157.59793 20.52925 155.37467 21.01521 154.02214 21.50117 152.6696 22.28052 150.55481 22.76648 149.26992 23.25244 147.985 24.03178 145.97867 24.51775 144.76139 25.00371 143.5441 25.78305 141.64621 26.26901 140.49655 26.75497 139.34691 27.53432 137.55747 28.02028 136.47544 28.50624 135.3934 29.28558 133.71242 29.77155 132.69802 30.2575 131.68363 31.03685 130.11107 31.52281 129.1643 32.00877 128.21755 32.78812 126.75345 33.27408 125.8743 33.76004 124.99516 34.53938 123.63951 35.02534 122.82799 35.5113 122.01648 36.29065 120.76929 36.77661 120.02539 37.26257 119.2815 38.04193 118.14276 38.5279 117.4665 39.01385 116.79024 39.7932 115.75996 40.27916 115.15132 40.76512 114.54268 41.54446 113.62082 42.03043 113.07982 42.51639 112.5388 43.29573 111.72542 43.7817 111.25204 44.26765 110.77866 45.047 110.07372 45.53296 109.66797 46.01892 109.2622 46.79826 108.66571 47.28423 108.32759 47.77019 107.98947 48.54953 107.50142 49.03549 107.23091 49.52145 106.96042 50.3008 106.58083 50.78676 106.37794 51.27272 106.17508 52.05206 105.90395 52.53802 105.76869 53.02399 105.63345 53.80333 105.47075 54.28929 105.40314 54.77525 105.33553 56.04057 105.2813 56.04057 105.2813"/>
<path transform="matrix(1.00005,0,0,-1,2.0961457,188.96302)" stroke-width="1.99255" stroke-linecap="butt" stroke-miterlimit="10" stroke-linejoin="miter" fill="none" stroke="#1414cc" d="M14.01013 175.46883"/>
<path transform="matrix(1.00005,0,0,-1,2.0961457,188.96302)" stroke-width="1.49442" stroke-linecap="butt" stroke-miterlimit="10" stroke-linejoin="miter" fill="none" stroke="#1414cc" d="M56.04057 105.2813C56.04057 105.2813 56.46233 105.2813 56.62431 105.2813 56.78629 105.2813 57.04607 105.2813 57.20805 105.2813 57.37003 105.2813 57.62982 105.2813 57.79181 105.2813 57.95378 105.2813 58.21356 105.2813 58.37555 105.2813 58.53752 105.2813 58.7973 105.2813 58.95929 105.2813 59.12126 105.2813 59.38106 105.2813 59.54305 105.2813 59.70502 105.2813 59.9648 105.2813 60.12679 105.2813 60.28876 105.2813 60.54854 105.2813 60.71053 105.2813 60.8725 105.2813 61.1323 105.2813 61.29428 105.2813 61.45625 105.2813 61.71605 105.2813 61.87802 105.2813 62.04 105.2813 62.29979 105.2813 62.46176 105.2813 62.62373 105.2813 62.88354 105.2813 63.04552 105.2813 63.20749 105.2813 63.46729 105.2813 63.62926 105.2813 63.79123 105.2813 64.05103 105.2813 64.213 105.2813 64.37497 105.2813 64.63478 105.2813 64.79675 105.2813 64.95872 105.2813 65.21852 105.2813 65.3805 105.2813 65.54247 105.2813 65.80226 105.2813 65.96423 105.2813 66.1262 105.2813 66.38602 105.2813 66.54799 105.2813 66.70996 105.2813 66.96976 105.2813 67.13173 105.2813 67.2937 105.2813 67.5535 105.2813 67.71547 105.2813 67.87746 105.2813 68.13725 105.2813 68.29922 105.2813 68.46121 105.2813 68.721 105.2813 68.88297 105.2813 69.04495 105.2813 69.30473 105.2813 69.4667 105.2813 69.6287 105.2813 70.05046 105.2813 70.05046 105.2813"/>
<path transform="matrix(1.00005,0,0,-1,2.0961457,188.96302)" stroke-width="1.49442" stroke-linecap="butt" stroke-miterlimit="10" stroke-linejoin="miter" fill="none" stroke="#1414cc" d="M70.0507 105.2813C70.0507 105.2813 70.47247 105.29033 70.63445 105.30159 70.79643 105.31285 71.05621 105.33998 71.21819 105.36252 71.38017 105.38504 71.63997 105.43024 71.80194 105.46405 71.96393 105.49786 72.22371 105.56114 72.38568 105.60622 72.54767 105.65129 72.80745 105.73264 72.96942 105.789 73.13141 105.84535 73.3912 105.94476 73.55318 106.01239 73.71516 106.08 73.97495 106.1975 74.13692 106.27638 74.2989 106.35527 74.55869 106.49086 74.72067 106.58102 74.88264 106.67117 75.14244 106.82483 75.30443 106.92625 75.4664 107.02768 75.72618 107.1994 75.88817 107.3121 76.05014 107.42482 76.30992 107.6146 76.47191 107.73857 76.63388 107.86255 76.89368 108.07043 77.05566 108.20567 77.21764 108.34091 77.47742 108.56685 77.6394 108.71336 77.80138 108.85988 78.06116 109.10391 78.22314 109.26169 78.38512 109.41946 78.64491 109.68156 78.8069 109.85063 78.96887 110.01968 79.22865 110.29987 79.39064 110.4802 79.55261 110.6605 79.8124 110.95876 79.97438 111.15034 80.13635 111.34195 80.39616 111.65826 80.55814 111.86113 80.72011 112.06401 80.9799 112.3984 81.14188 112.61253 81.30385 112.82668 81.56364 113.17915 81.72562 113.40456 81.88759 113.62997 82.1474 114.00052 82.30937 114.2372 82.47134 114.47388 82.73114 114.8625 82.89311 115.11046 83.05508 115.3584 83.31488 115.76509 83.47685 116.02432 83.63882 116.28354 84.06061 116.9788 84.06061 116.9788"/>
<path transform="matrix(1.00005,0,0,-1,2.0961457,188.96302)" stroke-width="1.49442" stroke-linecap="butt" stroke-miterlimit="10" stroke-linejoin="miter" fill="none" stroke="#1414cc" d="M84.06085 116.97922C84.06085 116.97922 84.90437 118.35168 85.22835 118.84761 85.55232 119.34355 86.07188 120.10272 86.39586 120.55357 86.71983 121.00441 87.23941 121.69128 87.56337 122.09703 87.88734 122.50279 88.4069 123.11737 88.73087 123.47803 89.05484 123.8387 89.57442 124.38097 89.89838 124.69656 90.22235 125.01216 90.74193 125.48212 91.06589 125.75262 91.38986 126.02313 91.90942 126.4208 92.23338 126.64621 92.55736 126.87163 93.07693 127.19699 93.40091 127.37733 93.72487 127.55768 94.24445 127.81075 94.56842 127.946 94.89238 128.08126 95.41194 128.26203 95.73592 128.35219 96.05988 128.44234 96.57945 128.55081 96.90343 128.59589 97.22739 128.64096 97.74696 128.67714 98.07094 128.67714 98.3949 128.67714 98.91446 128.64098 99.23843 128.5959 99.5624 128.55083 100.08197 128.44237 100.40594 128.35222 100.72992 128.26206 101.24948 128.0813 101.57346 127.94604 101.89743 127.81079 102.41698 127.55772 102.74095 127.3774 103.06493 127.19707 103.58449 126.8717 103.90846 126.64629 104.23244 126.42088 104.752 126.02322 105.07597 125.75272 105.39995 125.48221 105.91951 125.01227 106.24347 124.69669 106.56744 124.3811 107.08702 123.83884 107.41098 123.47816 107.73495 123.11751 108.25453 122.50293 108.57849 122.09717 108.90247 121.69142 109.42203 121.00456 109.74599 120.55371 110.06996 120.10287 110.58954 119.34372 110.9135 118.8478 111.23747 118.35188 112.08102 116.9794 112.08102 116.9794"/>
<path transform="matrix(1.00005,0,0,-1,2.0961457,188.96302)" stroke-width="1.49442" stroke-linecap="butt" stroke-miterlimit="10" stroke-linejoin="miter" fill="none" stroke="#1414cc" d="M112.08115 116.97922C112.08115 116.97922 112.92467 115.57057 113.24864 115.02956 113.5726 114.48856 114.09218 113.62093 114.41615 113.07993 114.74011 112.53891 115.25969 111.67128 115.58366 111.13026 115.90762 110.58926 116.42719 109.72162 116.75116 109.18062 117.07512 108.6396 117.5947 107.77199 117.91867 107.23097 118.24263 106.68997 118.7622 105.82234 119.08618 105.28134 119.41016 104.74033 119.9297 103.8727 120.25368 103.33168 120.57765 102.79068 121.09721 101.92305 121.42119 101.38205 121.74516 100.84103 122.26472 99.9734 122.5887 99.43239 122.91267 98.89139 123.43222 98.02376 123.7562 97.48276 124.08017 96.94174 124.59975 96.07411 124.9237 95.5331 125.24768 94.9921 125.76726 94.12447 126.09122 93.58347 126.41519 93.04245 126.93475 92.17484 127.25871 91.63382 127.58269 91.09282 128.10227 90.22519 128.42623 89.68419 128.7502 89.14317 129.26978 88.27554 129.59374 87.73451 129.91771 87.1935 130.43727 86.32587 130.76125 85.78487 131.0852 85.24385 131.60478 84.37624 131.92876 83.83522 132.25272 83.29422 132.7723 82.42659 133.09627 81.88559 133.42023 81.34457 133.93979 80.47696 134.26377 79.93594 134.58773 79.39494 135.1073 78.5273 135.43128 77.9863 135.75524 77.44528 136.27481 76.57767 136.59879 76.03665 136.92275 75.49565 137.4423 74.62802 137.76628 74.08702 138.09026 73.546 138.60982 72.67839 138.93379 72.13737 139.25777 71.59637 140.1013 70.18774 140.1013 70.18774"/>
<path transform="matrix(1.00005,0,0,-1,2.0961457,188.96302)" stroke-width="1.49442" stroke-linecap="butt" stroke-miterlimit="10" stroke-linejoin="miter" fill="none" stroke="#1414cc" d="M140.10143 70.18753C140.10143 70.18753 140.94495 68.81505 141.26892 68.3191 141.5929 67.82318 142.11246 67.06401 142.43643 66.61316 142.7604 66.16232 143.27999 65.47545 143.60395 65.06969 143.92792 64.66394 144.44748 64.04936 144.77144 63.68869 145.09542 63.32803 145.61499 62.78577 145.93895 62.47017 146.26293 62.15457 146.7825 61.6846 147.10646 61.4141 147.43044 61.1436 147.95 60.74593 148.27396 60.52051 148.59793 60.2951 149.11751 59.96973 149.44149 59.78938 149.76544 59.60905 150.28502 59.35599 150.609 59.22073 150.93296 59.08548 151.45252 58.90471 151.77649 58.81454 152.10045 58.72438 152.62003 58.61592 152.944 58.57085 153.26796 58.52577 153.78754 58.48961 154.11151 58.48961 154.43547 58.48961 154.95503 58.52576 155.279 58.57083 155.60297 58.6159 156.12255 58.72435 156.44652 58.81451 156.7705 58.90468 157.29006 59.08543 157.61403 59.22069 157.938 59.35594 158.45755 59.60901 158.78153 59.78932 159.1055 59.96965 159.62506 60.29501 159.94904 60.52042 160.27301 60.74583 160.79257 61.14351 161.11655 61.414 161.44052 61.68451 161.96009 62.15446 162.28404 62.47005 162.60802 62.78563 163.1276 63.3279 163.45156 63.68855 163.77553 64.04922 164.2951 64.6638 164.61907 65.06955 164.94304 65.47531 165.4626 66.16217 165.78656 66.613 166.11054 67.06386 166.63011 67.82301 166.95407 68.31892 167.27805 68.81485 168.1216 70.18732 168.1216 70.18732"/>
<path transform="matrix(1.00005,0,0,-1,2.0961457,188.96302)" stroke-width="1.49442" stroke-linecap="butt" stroke-miterlimit="10" stroke-linejoin="miter" fill="none" stroke="#1414cc" d="M168.12172 70.18753C168.12172 70.18753 168.96524 71.59616 169.28922 72.13716 169.61318 72.67818 170.13275 73.54579 170.45673 74.0868 170.78069 74.6278 171.30027 75.49545 171.62424 76.03645 171.9482 76.57747 172.46776 77.44508 172.79174 77.9861 173.11569 78.5271 173.63527 79.39474 173.95925 79.93575 174.2832 80.47676 174.80278 81.34438 175.12676 81.88539 175.45073 82.42639 175.97028 83.29404 176.29425 83.83504 176.61823 84.37605 177.13779 85.24367 177.46176 85.78468 177.78574 86.32568 178.3053 87.19333 178.62928 87.73433 178.95325 88.27534 179.4728 89.14296 179.79677 89.68398 180.12075 90.22498 180.64032 91.0926 180.96428 91.6336 181.28826 92.17462 181.80783 93.04225 182.13179 93.58327 182.45577 94.12427 182.97533 94.9919 183.29929 95.5329 183.62326 96.07391 184.14284 96.94153 184.4668 97.48254 184.79077 98.02354 185.31035 98.89119 185.63431 99.4322 185.95829 99.97324 186.47785 100.84085 186.80182 101.38187 187.12578 101.92287 187.64536 102.7905 187.96933 103.3315 188.29329 103.87251 188.81287 104.74013 189.13684 105.28114 189.4608 105.82214 189.98036 106.68977 190.30434 107.23077 190.6283 107.77179 191.14788 108.63942 191.47185 109.18044 191.7958 109.72144 192.31539 110.58907 192.63936 111.13007 192.96332 111.67108 193.48288 112.5387 193.80686 113.07971 194.13083 113.62071 194.65039 114.48834 194.97437 115.02934 195.29834 115.57036 196.14188 116.97899 196.14188 116.97899"/>
<path transform="matrix(1.00005,0,0,-1,2.0961457,188.96302)" d="M196.142 116.97922" fill="#ffffff"/>
<path transform="matrix(1.00005,0,0,-1,2.0961457,188.96302)" stroke-width=".99628" stroke-linecap="butt" stroke-miterlimit="10" stroke-linejoin="miter" fill="none" stroke="#1414cc" d="M196.142 116.97922"/>
</g>
<path transform="matrix(1.00005,0,0,-1,2.0961457,188.96302)" d="M16.00269 175.46883C16.00269 176.5693 15.11061 177.46138 14.01013 177.46138 12.90967 177.46138 12.01758 176.5693 12.01758 175.46883 12.01758 174.36837 12.90967 173.47628 14.01013 173.47628 15.11061 173.47628 16.00269 174.36837 16.00269 175.46883ZM14.01013 175.46883" fill="#1414cc"/>
<path transform="matrix(1.00005,0,0,-1,2.0961457,188.96302)" stroke-width="1.99255" stroke-linecap="butt" stroke-miterlimit="10" stroke-linejoin="miter" fill="none" stroke="#1414cc" d="M16.00269 175.46883C16.00269 176.5693 15.11061 177.46138 14.01013 177.46138 12.90967 177.46138 12.01758 176.5693 12.01758 175.46883 12.01758 174.36837 12.90967 173.47628 14.01013 173.47628 15.11061 173.47628 16.00269 174.36837 16.00269 175.46883ZM14.01013 175.46883"/>
<path transform="matrix(1.00005,0,0,-1,2.0961457,188.96302)" stroke-width="1.99255" stroke-linecap="butt" stroke-miterlimit="10" stroke-linejoin="miter" fill="none" stroke="#1414cc" d=""/>
<path transform="matrix(1.00005,0,0,-1,2.0961457,188.96302)" d="M198.13455 116.97922C198.13455 118.07968 197.24246 118.97177 196.142 118.97177 195.04154 118.97177 194.14945 118.07968 194.14945 116.97922 194.14945 115.87874 195.04154 114.98666 196.142 114.98666 197.24246 114.98666 198.13455 115.87874 198.13455 116.97922ZM196.142 116.97922" fill="#ffffff"/>
<path transform="matrix(1.00005,0,0,-1,2.0961457,188.96302)" stroke-width=".99628" stroke-linecap="butt" stroke-miterlimit="10" stroke-linejoin="miter" fill="none" stroke="#1414cc" d="M198.13455 116.97922C198.13455 118.07968 197.24246 118.97177 196.142 118.97177 195.04154 118.97177 194.14945 118.07968 194.14945 116.97922 194.14945 115.87874 195.04154 114.98666 196.142 114.98666 197.24246 114.98666 198.13455 115.87874 198.13455 116.97922ZM196.142 116.97922"/>
<path transform="matrix(1.00005,0,0,-1,2.0961457,188.96302)" d="" fill="#ffffff"/>
<path transform="matrix(1.00005,0,0,-1,2.0961457,188.96302)" stroke-width=".99628" stroke-linecap="butt" stroke-miterlimit="10" stroke-linejoin="miter" fill="none" stroke="#1414cc" d=""/>
<use data-text="t" xlink:href="#font_4_1" transform="matrix(9.963098,0,0,-9.9626,219.20502,91.83801)"/>
<use data-text="y" xlink:href="#font_4_2" transform="matrix(9.963098,0,0,-9.9626,117.72992,9.606018)"/>
</svg>
