<svg xmlns="http://www.w3.org/2000/svg" xmlns:xlink="http://www.w3.org/1999/xlink" xmlns:inkscape="http://www.inkscape.org/namespaces/inkscape" version="1.1" width="198" height="165" viewBox="0 0 198 165">
<defs>
<path id="font_1_1" d="M.6589966 .23046875C.6759949 .23046875 .69400027 .23046875 .69400027 .25045777 .69400027 .27046205 .6759949 .27046205 .6589966 .27046205H.117996219C.100997928 .27046205 .08299255 .27046205 .08299255 .25045777 .08299255 .23046875 .100997928 .23046875 .117996219 .23046875H.6589966Z"/>
<path id="font_2_3" d="M.13198853 .327713V.35173036C.13198853 .6047821 .2559967 .64100649 .30699159 .64100649 .33099366 .64100649 .37298585 .634964 .394989 .6007538 .37998963 .6007538 .33999635 .6007538 .33999635 .5557556 .33999635 .524765 .3639984 .5097656 .38598634 .5097656 .4019928 .5097656 .43199159 .51875308 .43199159 .5577545 .43199159 .6178589 .3880005 .6660156 .30499269 .6660156 .1769867 .6660156 .041992189 .5367584 .041992189 .31570436 .041992189 .048553468 .1579895-.022460938 .25099183-.022460938 .3619995-.022460938 .45700074 .07156372 .45700074 .2036438 .45700074 .33070375 .36799623 .4267578 .25698854 .4267578 .18899536 .4267578 .1519928 .37573243 .13198853 .327713M.25099183 .0055389406C.18798828 .0055389406 .1579895 .06556702 .1519928 .080566409 .13398743 .127594 .13398743 .2076416 .13398743 .22564698 .13398743 .30369569 .1659851 .40374757 .2559967 .40374757 .27198792 .40374757 .31799317 .40374757 .34899903 .34172059 .36698915 .30470277 .36698915 .2536621 .36698915 .20463562 .36698915 .15661621 .36698915 .10658264 .34999085 .0705719 .31999208 .010528564 .27398683 .0055389406 .25099183 .0055389406Z"/>
<path id="font_2_2" d="M.2939911 .16503906V.07800293C.2939911 .041992189 .2919922 .0309906 .21798706 .0309906H.19699097V0C.23799134 .0029907227 .2899933 .0029907227 .33198548 .0029907227 .37399293 .0029907227 .4269867 .0029907227 .46798707 0V.0309906H.44699098C.37298585 .0309906 .37098695 .041992189 .37098695 .07800293V.16503906H.47099305V.19602967H.37098695V.65075686C.37098695 .67074587 .37098695 .6767578 .35499574 .6767578 .34599305 .6767578 .34298707 .6767578 .33499146 .66474917L.027999878 .19602967V.16503906H.2939911M.2999878 .19602967H.055999757L.2999878 .5688019V.19602967Z"/>
<path id="font_2_1" d="M.1269989 .07699585 .23298645 .18003845C.3889923 .31811524 .44898988 .3721466 .44898988 .47216798 .44898988 .5860901 .35899354 .6660156 .23699951 .6660156 .12399292 .6660156 .049987794 .57411196 .049987794 .48516847 .049987794 .4291687 .099990848 .4291687 .102996829 .4291687 .11999512 .4291687 .15499878 .44117738 .15499878 .48217774 .15499878 .5081787 .13699341 .5341797 .101989749 .5341797 .09399414 .5341797 .09199524 .5341797 .08898926 .5331726 .11199951 .59806826 .1659851 .63500979 .22399903 .63500979 .31498719 .63500979 .35798646 .5541382 .35798646 .47216798 .35798646 .39215089 .30799867 .31311036 .25299073 .25108338L.06098938 .036987306C.049987794 .025985718 .049987794 .023986817 .049987794 0H.42099L.44898988 .17404175H.42399598C.4189911 .14402771 .4119873 .1000061 .4019928 .084991458 .394989 .07699585 .32899476 .07699585 .30699159 .07699585H.1269989Z"/>
<clipPath id="clip_3">
<path transform="matrix(1.00003,0,0,-1.00006,2.0964967,163.19083)" d="M0 0H194.26912V161.3842H0Z"/>
</clipPath>
<path id="font_4_1" d="M.20599365 .3996582H.2999878C.31999208 .3996582 .32998658 .3996582 .32998658 .41966249 .32998658 .43066407 .31999208 .43066407 .3019867 .43066407H.21398926C.25 .5724945 .25498963 .59246829 .25498963 .59846499 .25498963 .61546328 .24299622 .62545779 .22599793 .62545779 .22299195 .62545779 .19499207 .62446597 .18598938 .58947756L.14698792 .43066407H.052993776C.032989503 .43066407 .022994996 .43066407 .022994996 .4116516 .022994996 .3996582 .0309906 .3996582 .050994874 .3996582H.13899231C.066986087 .11608887 .06298828 .099121097 .06298828 .08114624 .06298828 .02722168 .100997928-.0107421879 .15499878-.0107421879 .25698854-.0107421879 .31399537 .13505554 .31399537 .14305115 .31399537 .1530304 .30599977 .1530304 .3019867 .1530304 .29299928 .1530304 .2919922 .15003968 .2869873 .13905335 .24398804 .035217287 .19099427 .011245728 .15699768 .011245728 .13598633 .011245728 .12599182 .024230957 .12599182 .057174684 .12599182 .08114624 .12799073 .088134769 .13198853 .10510254L.20599365 .3996582Z"/>
<path id="font_4_2" d="M.48599244 .38136292C.48999024 .39537049 .48999024 .39736939 .48999024 .40437318 .48999024 .42237855 .47599793 .43138124 .46099855 .43138124 .45098878 .43138124 .43499757 .42536927 .42599488 .41036988 .42399598 .405365 .41600038 .37435914 .4119873 .35635377 .40499879 .33035279 .397995 .30334474 .3919983 .27633668L.34700013 .09628296C.34298707 .08126831 .2999878 .011245728 .23399353 .011245728 .18299866 .011245728 .17199707 .055267335 .17199707 .0922699 .17199707 .1382904 .18899536 .20030213 .22299195 .28833009 .23899842 .3293457 .24299622 .3403473 .24299622 .36035157 .24299622 .405365 .21099854 .4423828 .16099549 .4423828 .06599426 .4423828 .0289917 .29733277 .0289917 .28833009 .0289917 .27833558 .038986207 .27833558 .040985109 .27833558 .050994874 .27833558 .051986696 .28033448 .056991579 .29634095 .083999637 .3903656 .12399292 .42037965 .1579895 .42037965 .1659851 .42037965 .18299866 .42037965 .18299866 .3883667 .18299866 .36335755 .17298889 .3373413 .1659851 .31834413 .12599182 .21231079 .10798645 .1552887 .10798645 .10827637 .10798645 .019256592 .17098999-.0107421879 .22999573-.0107421879 .2689972-.0107421879 .30299378 .0062561037 .33099366 .03425598 .31799317-.017745972 .30599977-.06674194 .2659912-.11973572 .23999024-.15385437 .20199585-.18309021 .1559906-.18309021 .14199829-.18309021 .09700012-.18005371 .07998657-.14074707 .09599304-.14074707 .10899353-.14074707 .12298584-.1287384 .1329956-.11973572 .14299011-.10673523 .14299011-.08773804 .14299011-.056747438 .115997318-.052734376 .10598755-.052734376 .08299255-.052734376 .049987794-.068740848 .049987794-.11773682 .049987794-.16796875 .09399414-.20507813 .1559906-.20507813 .25898744-.20507813 .3619995-.11373901 .3899994-.00074768069L.48599244 .38136292Z"/>
</defs>
<path transform="matrix(1.00003,0,0,-1.00006,2.0964967,163.19083)" stroke-width=".3985" stroke-linecap="butt" stroke-miterlimit="10" stroke-linejoin="miter" fill="none" stroke="#404040" d="M0 0H194.26912V161.3842H0Z"/>
<path transform="matrix(1.00003,0,0,-1.00006,2.0964967,163.19083)" stroke-width=".3985" stroke-linecap="butt" stroke-miterlimit="10" stroke-linejoin="miter" fill="none" stroke="#bfbfbf" d="M12.14182 0V161.3842M36.42545 0V161.3842M60.70909 0V161.3842M84.99274 0V161.3842M109.27637 0V161.3842M133.56002 0V161.3842M157.84366 0V161.3842M182.12729 0V161.3842"/>
<path transform="matrix(1.00003,0,0,-1.00006,2.0964967,163.19083)" stroke-width=".3985" stroke-linecap="butt" stroke-miterlimit="10" stroke-linejoin="miter" fill="none" stroke="#bfbfbf" d="M24.28363 0V161.3842M48.56728 0V161.3842M72.8509 0V161.3842M121.4182 0V161.3842M145.70183 0V161.3842M169.98548 0V161.3842"/>
<path transform="matrix(1.00003,0,0,-1.00006,2.0964967,163.19083)" stroke-width=".3985" stroke-linecap="butt" stroke-miterlimit="10" stroke-linejoin="miter" fill="none" stroke="#bfbfbf" d="M0 10.0865H194.26912M0 30.25954H194.26912M0 50.43256H194.26912M0 70.60558H194.26912M0 90.77861H194.26912M0 110.95163H194.26912M0 131.12467H194.26912M0 151.29769H194.26912"/>
<path transform="matrix(1.00003,0,0,-1.00006,2.0964967,163.19083)" stroke-width=".3985" stroke-linecap="butt" stroke-miterlimit="10" stroke-linejoin="miter" fill="none" stroke="#bfbfbf" d="M0 20.17302H194.26912M0 40.34604H194.26912M0 60.51907H194.26912M0 100.86511H194.26912M0 121.03815H194.26912M0 141.21117H194.26912"/>
<path transform="matrix(1.00003,0,0,-1.00006,2.0964967,163.19083)" stroke-width=".19925" stroke-linecap="butt" stroke-miterlimit="10" stroke-linejoin="miter" fill="none" stroke="#7f807f" d="M12.14182 79.27461V82.10957M36.42545 79.27461V82.10957M60.70909 79.27461V82.10957M84.99274 79.27461V82.10957M109.27637 79.27461V82.10957M133.56002 79.27461V82.10957M157.84366 79.27461V82.10957M182.12729 79.27461V82.10957"/>
<path transform="matrix(1.00003,0,0,-1.00006,2.0964967,163.19083)" stroke-width=".19925" stroke-linecap="butt" stroke-miterlimit="10" stroke-linejoin="miter" fill="none" stroke="#7f807f" d="M24.28363 78.56609V82.81808M48.56728 78.56609V82.81808M72.8509 78.56609V82.81808M121.4182 78.56609V82.81808M145.70183 78.56609V82.81808M169.98548 78.56609V82.81808"/>
<path transform="matrix(1.00003,0,0,-1.00006,2.0964967,163.19083)" stroke-width=".19925" stroke-linecap="butt" stroke-miterlimit="10" stroke-linejoin="miter" fill="none" stroke="#7f807f" d="M95.7171 10.0865H98.552M95.7171 30.25954H98.552M95.7171 50.43256H98.552M95.7171 70.60558H98.552M95.7171 90.77861H98.552M95.7171 110.95163H98.552M95.7171 131.12467H98.552M95.7171 151.29769H98.552"/>
<path transform="matrix(1.00003,0,0,-1.00006,2.0964967,163.19083)" stroke-width=".19925" stroke-linecap="butt" stroke-miterlimit="10" stroke-linejoin="miter" fill="none" stroke="#7f807f" d="M95.0086 20.17302H99.26048M95.0086 40.34604H99.26048M95.0086 60.51907H99.26048M95.0086 100.86511H99.26048M95.0086 121.03815H99.26048M95.0086 141.21117H99.26048"/>
<path transform="matrix(1.00003,0,0,-1.00006,2.0964967,163.19083)" stroke-width=".3985" stroke-linecap="butt" stroke-miterlimit="10" stroke-linejoin="miter" fill="none" stroke="#000000" d="M0 80.6921H192.2766"/>
<path transform="matrix(1.00003,0,0,-1.00006,194.37888,82.49389)" d="M1.99252 0-1.19551 1.59401 0 0-1.19551-1.59401"/>
<path transform="matrix(1.00003,0,0,-1.00006,2.0964967,163.19083)" stroke-width=".3985" stroke-linecap="butt" stroke-miterlimit="10" stroke-linejoin="miter" fill="none" stroke="#000000" d="M97.13455 0V159.39168"/>
<path transform="matrix(0,-1.00006,-1.00003,-0,99.23396,3.7895966)" d="M1.99252 0-1.19551 1.59401 0 0-1.19551-1.59401"/>
<use data-text="&#x2212;" xlink:href="#font_1_1" transform="matrix(9.962899,0,0,-9.963197,20.016037,94.560718)"/>
<use data-text="6" xlink:href="#font_2_3" transform="matrix(9.962899,0,0,-9.963197,27.765267,94.560718)"/>
<use data-text="&#x2212;" xlink:href="#font_1_1" transform="matrix(9.962899,0,0,-9.963197,44.299764,94.560718)"/>
<use data-text="4" xlink:href="#font_2_2" transform="matrix(9.962899,0,0,-9.963197,52.048994,94.560718)"/>
<use data-text="&#x2212;" xlink:href="#font_1_1" transform="matrix(9.962899,0,0,-9.963197,68.584499,94.560718)"/>
<use data-text="2" xlink:href="#font_2_1" transform="matrix(9.962899,0,0,-9.963197,76.333728,94.560718)"/>
<use data-text="2" xlink:href="#font_2_1" transform="matrix(9.962899,0,0,-9.963197,121.02707,94.560718)"/>
<use data-text="4" xlink:href="#font_2_2" transform="matrix(9.962899,0,0,-9.963197,145.3118,94.560718)"/>
<use data-text="6" xlink:href="#font_2_3" transform="matrix(9.962899,0,0,-9.963197,169.59653,94.560718)"/>
<use data-text="&#x2212;" xlink:href="#font_1_1" transform="matrix(9.962899,0,0,-9.963197,80.857868,145.81179)"/>
<use data-text="6" xlink:href="#font_2_3" transform="matrix(9.962899,0,0,-9.963197,88.60709,145.81179)"/>
<use data-text="&#x2212;" xlink:href="#font_1_1" transform="matrix(9.962899,0,0,-9.963197,80.857868,125.63757)"/>
<use data-text="4" xlink:href="#font_2_2" transform="matrix(9.962899,0,0,-9.963197,88.60709,125.63757)"/>
<use data-text="&#x2212;" xlink:href="#font_1_1" transform="matrix(9.962899,0,0,-9.963197,80.857868,105.46336)"/>
<use data-text="2" xlink:href="#font_2_1" transform="matrix(9.962899,0,0,-9.963197,88.60709,105.46336)"/>
<use data-text="2" xlink:href="#font_2_1" transform="matrix(9.962899,0,0,-9.963197,88.6061,65.52997)"/>
<use data-text="4" xlink:href="#font_2_2" transform="matrix(9.962899,0,0,-9.963197,88.6061,45.35576)"/>
<use data-text="6" xlink:href="#font_2_3" transform="matrix(9.962899,0,0,-9.963197,88.6061,25.18155)"/>
<g clip-path="url(#clip_3)">
<path transform="matrix(1.00003,0,0,-1.00006,2.0964967,163.19083)" stroke-width="1.49442" stroke-linecap="butt" stroke-miterlimit="10" stroke-linejoin="miter" fill="none" stroke="#1414cc" d="M12.14182 151.29708 12.2331 150.99407 12.32439 150.69188 12.41568 150.39048 12.50696 150.08975 12.59827 149.78986 12.68956 149.49065 12.78084 149.19222 12.87213 148.89459 12.96344 148.59775 13.05472 148.30159 13.14601 148.0062 13.2373 147.71161 13.3286 147.41774 13.41989 147.12468 13.51117 146.8324 13.60246 146.54079 13.69377 146.25002 13.78505 145.95995 13.87634 145.67063 13.96764 145.38213 14.05893 145.09439 14.15022 144.80736 14.24152 144.5211 14.3328 144.23563 14.4241 143.95095 14.5154 143.66696 14.60667 143.38378 14.69797 143.1013 14.78925 142.8196 14.88055 142.53871 14.97185 142.25858 15.06313 141.97914 15.15442 141.70047 15.24573 141.4226 15.337 141.14546 15.4283 140.86914 15.51959 140.59355 15.61089 140.3187 15.70218 140.04459 15.79346 139.7713 15.88475 139.49878 15.97606 139.22695 16.06734 138.95595 16.15863 138.68564 16.24992 138.41609 16.34122 138.14737 16.43251 137.87938 16.5238 137.61212 16.61508 137.34568 16.70639 137.07993 16.79768 136.81494 16.88896 136.55078 16.98026 136.28737 17.07153 136.02466 17.16284 135.76274 17.25414 135.5016 17.34541 135.24118 17.4367 134.98157 17.52802 134.72272 17.6193 134.46459 17.71059 134.20722 17.80188 133.95063 17.89317 133.69483 17.98447 133.43975 18.07576 133.1854 18.16704 132.93187 18.25835 132.67905 18.34962 132.42705 18.44092 132.1758 18.53221 131.92527 18.6235 131.67549 18.7148 131.42653 18.80609 131.17827 18.89737 130.93083 18.98868 130.68413 19.07997 130.43817 19.17125 130.19295 19.26254 129.94855 19.35384 129.70485 19.44513 129.46198 19.53642 129.21985 19.6277 128.97844 19.719 128.73778 19.8103 128.49796 19.90158 128.25885 19.99287 128.0205 20.08417 127.78293 20.17546 127.54608 20.26675 127.31 20.35805 127.0747 20.44933 126.8402 20.54063 126.60637 20.63191 126.37332 20.7232 126.14108 20.8145 125.90956 20.90579 125.67883 20.99709 125.4489 21.08838 125.21964 21.17966 124.9912 21.27097 124.76346 21.36226 124.5365 21.45354 124.31033 21.54483 124.08495 21.63612 123.86028 21.72742 123.63634 21.81871 123.41322 21.90999 123.19087 22.00128 122.96922 22.09259 122.74838 22.18387 122.52826 22.27516 122.3089 22.36646 122.09033 22.45775 121.87253 22.54904 121.65547 22.64034 121.43915 22.73161 121.22362 22.82292 121.00883 22.91422 120.79482 23.0055 120.5816 23.09679 120.36908 23.18808 120.15732 23.27937 119.94635 23.37067 119.73618 23.46194 119.52669 23.55325 119.31801 23.64455 119.11006 23.73582 118.90286 23.82712 118.69646 23.91841 118.49084 24.0097 118.28593 24.101 118.0818 24.19229 117.87842 24.28357 117.67578 24.37488 117.47395 24.46616 117.27287 24.55745 117.07251 24.64874 116.87294 24.74004 116.67413 24.83133 116.47606 24.92262 116.27878 25.0139 116.08229 25.10521 115.8865 25.1965 115.69145 25.28778 115.49722 25.37907 115.30374 25.47038 115.11101 25.56166 114.919 25.65295 114.72781 25.74423 114.53735 25.83554 114.34769 25.92683 114.15878 26.01811 113.9706 26.1094 113.78317 26.2007 113.59653 26.29199 113.41063 26.38329 113.22552 26.47458 113.04117 26.56586 112.85754 26.65717 112.67468 26.74844 112.49263 26.83974 112.31126 26.93103 112.13072 27.02232 111.95093 27.11362 111.77187 27.20491 111.59357 27.29619 111.41606 27.3875 111.23932 27.47879 111.0633 27.57007 110.88808 27.66136 110.71356 27.75267 110.53983 27.84395 110.36688 27.93524 110.1947 28.02652 110.02324 28.11783 109.85254 28.20912 109.68263 28.3004 109.51344 28.3917 109.34508 28.483 109.17744 28.57428 109.01056 28.66557 108.84444 28.75687 108.67908 28.84814 108.51448 28.93945 108.35063 29.03075 108.18756 29.12202 108.02524 29.21332 107.86365 29.30461 107.70287 29.3959 107.54285 29.4872 107.38356 29.57848 107.22505 29.66978 107.06726 29.76108 106.91028 29.85236 106.75404 29.94365 106.59859 30.03496 106.44385 30.12624 106.28989 30.21753 106.13669 30.30882 105.98425 30.40012 105.8326 30.49141 105.68169 30.58269 105.53152 30.67398 105.38211 30.76529 105.23349 30.85657 105.08563 30.94786 104.9385 31.03915 104.79216 31.13043 104.64655 31.22174 104.50171 31.31303 104.35765 31.40431 104.21436 31.4956 104.07178 31.5869 103.92998 31.67819 103.78896 31.76949 103.64868 31.86076 103.50919 31.95207 103.37044 32.04337 103.23245 32.13464 103.0952 32.22594 102.95874 32.31725 102.82301 32.40852 102.68808 32.49982 102.55391 32.59111 102.42047 32.6824 102.28778 32.7737 102.15588 32.86497 102.02473 32.95627 101.89435 33.04758 101.76471 33.13885 101.63586 33.23015 101.50774 33.32144 101.3804 33.41272 101.25383 33.50403 101.12799 33.59532 101.00291 33.6866 100.87862 33.7779 100.75505 33.8692 100.63228 33.96048 100.51027 34.05177 100.38899 34.14305 100.2685 34.23436 100.14876 34.32565 100.02975 34.41693 99.91154 34.50822 99.7941 34.59953 99.67737 34.69081 99.56143 34.7821 99.44624 34.8734 99.33183 34.96469 99.21817 35.05598 99.10527 35.14728 98.99313 35.23856 98.88173 35.32986 98.77112 35.42114 98.66127 35.51244 98.55217 35.60373 98.4438 35.695 98.33624 35.78632 98.22942 35.87761 98.12337 35.96889 98.01808 36.06018 97.91353 36.15149 97.80977 36.24277 97.70673 36.33406 97.60448 36.42534 97.50298 36.51665 97.40225 36.60794 97.30226 36.69922 97.20303 36.79051 97.10458 36.88182 97.00688 36.9731 96.90996 37.06439 96.81378 37.15569 96.71837 37.24698 96.6237 37.33827 96.52982 37.42957 96.43668 37.52084 96.34431 37.61215 96.25269 37.70343 96.16183 37.79472 96.07175 37.88602 95.9824 37.9773 95.89384 38.0686 95.80602 38.1599 95.71898 38.25117 95.63269 38.34247 95.54715 38.43378 95.46239 38.52505 95.37837 38.61635 95.29512 38.70764 95.21263 38.79893 95.1309 38.89023 95.04993 38.9815 94.96971 39.0728 94.89027 39.16411 94.81158 39.25539 94.73364 39.34668 94.65648 39.43797 94.58008 39.52927 94.50443 39.62056 94.42953 39.71185 94.35541 39.80313 94.28204 39.89444 94.20943 39.98573 94.13759 40.07701 94.0665 40.1683 93.99619 40.25958 93.9266 40.35089 93.8578 40.44218 93.78975 40.53346 93.72247 40.62476 93.65594 40.71606 93.59018 40.80734 93.52518 40.89864 93.46094 40.98993 93.39745 41.08122 93.33473 41.17252 93.27277 41.26381 93.21156 41.35509 93.15112 41.4464 93.09143 41.53767 93.03252 41.62897 92.97435 41.72026 92.91695 41.81155 92.8603 41.90285 92.80443 41.99414 92.7493 42.08542 92.69495 42.17673 92.64136 42.26802 92.5885 42.3593 92.53642 42.45059 92.4851 42.54189 92.43454 42.63318 92.38474 42.72447 92.33571 42.81575 92.28743 42.90704 92.23991 42.99835 92.19315 43.08963 92.14716 43.18092 92.10193 43.27222 92.05745 43.36351 92.01372 43.4548 91.97078 43.5461 91.92857 43.63737 91.88713 43.72868 91.84645 43.81996 91.80655 43.91125 91.7674 44.00255 91.72899 44.09384 91.69136 44.18513 91.65448 44.27643 91.61838 44.3677 91.58302 44.45901 91.54842 44.55031 91.51459 44.64159 91.48152 44.73288 91.44922 44.82419 91.41765 44.91547 91.38687 45.00676 91.35683 45.09804 91.32756 45.18933 91.29904 45.28064 91.2713 45.37192 91.24431 45.46321 91.21808 45.5545 91.1926 45.6458 91.1679 45.73709 91.14394 45.82838 91.12076 45.91966 91.09831 46.01097 91.07666 46.10226 91.05576 46.19354 91.0356 46.28484 91.01622 46.37613 90.99759 46.46742 90.9797 46.55872 90.96262 46.65 90.94627 46.7413 90.93066 46.8326 90.91585 46.92387 90.9018 47.01517 90.88847 47.10648 90.87593 47.19775 90.86415 47.28905 90.85312 47.38033 90.84285 47.47162 90.83334 47.56293 90.8246 47.6542 90.81662 47.7455 90.8094 47.83679 90.80293 47.92809 90.79723 48.01938 90.79228 48.11067 90.7881 48.20195 90.78468 48.29326 90.78203 48.38455 90.78012 48.47583 90.77899 48.56712 90.77861"/>
<path transform="matrix(1.00003,0,0,-1.00006,2.0964967,163.19083)" stroke-width="1.99255" stroke-linecap="butt" stroke-miterlimit="10" stroke-linejoin="miter" fill="none" stroke="#1414cc" d="M12.14182 151.29769"/>
<path transform="matrix(1.00003,0,0,-1.00006,2.0964967,163.19083)" stroke-width="1.49442" stroke-linecap="butt" stroke-miterlimit="10" stroke-linejoin="miter" fill="none" stroke="#1414cc" d="M48.56728 90.77861H48.59769 48.62813 48.65855 48.68898 48.71942 48.74985 48.78029 48.8107 48.84114 48.87157 48.90201 48.93242 48.96286 48.99329 49.02373 49.05415 49.08458 49.11502 49.14545 49.17587 49.2063 49.23674 49.26717 49.29759 49.32802 49.35846 49.3889 49.41931 49.44975 49.48018 49.51062 49.54103 49.57147 49.6019 49.63234 49.66277 49.69319 49.72363 49.75406 49.78448 49.81491 49.84535 49.87578 49.9062 49.93663 49.96707 49.99751 50.02792 50.05836 50.08879 50.11923 50.14964 50.18008 50.21051 50.24095 50.27136 50.3018 50.33224 50.36267 50.3931 50.42352 50.45396 50.48439 50.51482 50.54524 50.57568 50.60611 50.63654 50.66698 50.6974 50.72784 50.75826 50.7887 50.81912 50.84956 50.87997 50.91042 50.94084 50.97127 51.00171 51.03214 51.06258 51.09299 51.12343 51.15385 51.1843 51.2147 51.24515 51.27559 51.30602 51.33644 51.36687 51.39731 51.42773 51.45816 51.48859 51.51903 51.54945 51.57988 51.61032 51.64075 51.67119 51.7016 51.73204 51.76247 51.79291 51.82332 51.85376 51.88419 51.91463 51.94505 51.97548 52.00592 52.03635 52.06677 52.0972 52.12764 52.15807 52.18849 52.21892 52.24936 52.2798 52.31021 52.34065 52.37108 52.40152 52.43193 52.46237 52.4928 52.52324 52.55365 52.58409 52.61453 52.64496 52.67538 52.70581 52.73625 52.76668 52.7971 52.82753 52.85797 52.88841 52.91882 52.94926 52.97969 53.01013 53.04054 53.07098 53.10141 53.13185 53.16226 53.1927 53.22314 53.25356 53.284 53.31442 53.34486 53.37527 53.40572 53.43614 53.46658 53.497 53.52744 53.55788 53.5883 53.61873 53.64915 53.6796 53.71002 53.74045 53.77087 53.80132 53.83174 53.86217 53.89261 53.92303 53.95348 53.98389 54.01433 54.04475 54.0752 54.1056 54.13605 54.16647 54.19691 54.22734 54.25777 54.28821 54.31863 54.34906 54.37949 54.40993 54.44035 54.47078 54.50122 54.53165 54.56209 54.5925 54.62294 54.65337 54.6838 54.71422 54.74466 54.77509 54.80553 54.83595 54.86638 54.89682 54.92725 54.95767 54.9881 55.01854 55.04897 55.07939 55.10982 55.14026 55.1707 55.20111 55.23155 55.26198 55.29242 55.32283 55.35327 55.3837 55.41414 55.44455 55.47499 55.50543 55.53586 55.56628 55.59671 55.62715 55.65756 55.688 55.71843 55.74887 55.77928 55.80972 55.84016 55.87059 55.90102 55.93144 55.96188 55.99231 56.02274 56.05316 56.0836 56.11404 56.14445 56.1749 56.20532 56.23576 56.26617 56.29662 56.32704 56.35748 56.3879 56.41833 56.44878 56.4792 56.50963 56.54005 56.5705 56.60092 56.63135 56.66177 56.69221 56.72264 56.75307 56.78351 56.81393 56.84438 56.87479 56.90523 56.93565 56.9661 56.9965 57.02695 57.05737 57.08781 57.11824 57.14867 57.17911 57.20953 57.23996 57.27039 57.30083 57.33125 57.36168 57.3921 57.42255 57.45299 57.4834 57.51384 57.54427 57.5747 57.60512 57.63556 57.66599 57.69643 57.72685 57.75728 57.78772 57.81815 57.84857 57.879 57.90944 57.93985 57.97029 58.00072 58.03116 58.06158 58.09201 58.12245 58.15288 58.1833 58.21373 58.24417 58.2746 58.30502 58.33545 58.36589 58.39633 58.42674 58.45718 58.48761 58.51805 58.54846 58.5789 58.60933 58.63977 58.67018 58.70062 58.73106 58.76149 58.79192 58.82234 58.85278 58.88321 58.91364 58.94406 58.9745 59.00493 59.03535 59.0658 59.09622 59.12666 59.15707 59.18752 59.21794 59.24838 59.2788 59.30923 59.33968 59.3701 59.40053 59.43095 59.4614 59.49182 59.52225 59.55267 59.58311 59.61354 59.64397 59.67441 59.70483 59.73528 59.76569 59.79613 59.82655 59.857 59.8874 59.91785 59.94827 59.97871 60.00914 60.03957 60.07 60.10043 60.13086 60.16129 60.19173 60.22215 60.25258 60.283 60.31345 60.34387 60.3743 60.40474 60.43517 60.46559 60.49602 60.52646 60.55688 60.58731 60.61774 60.64818 60.67862 60.70903"/>
<path transform="matrix(1.00003,0,0,-1.00006,2.0964967,163.19083)" stroke-width="1.49442" stroke-linecap="butt" stroke-miterlimit="10" stroke-linejoin="miter" fill="none" stroke="#1414cc" d="M60.70909 90.77861 60.73952 90.77867 60.76994 90.77885 60.80038 90.77917 60.8308 90.7796 60.86124 90.78018 60.89166 90.78087 60.9221 90.78171 60.95253 90.78265 60.98296 90.78372 61.0134 90.78493 61.04382 90.78627 61.07425 90.78773 61.10468 90.7893 61.13512 90.79102 61.16554 90.79285 61.19597 90.79482 61.2264 90.7969 61.25684 90.79913 61.28728 90.80147 61.31769 90.80396 61.34813 90.80653 61.37856 90.80927 61.409 90.81212 61.4394 90.8151 61.46985 90.81819 61.50027 90.82143 61.53072 90.82478 61.56113 90.82828 61.59157 90.83188 61.62201 90.83562 61.65244 90.8395 61.68286 90.84348 61.71329 90.8476 61.74373 90.85184 61.77415 90.85622 61.80458 90.86072 61.835 90.86534 61.86545 90.87009 61.89587 90.87495 61.9263 90.87997 61.95674 90.8851 61.98717 90.89035 62.01761 90.89574 62.04802 90.90126 62.07846 90.90689 62.10889 90.91266 62.13933 90.91855 62.16974 90.92458 62.20018 90.93071 62.2306 90.937 62.26105 90.94337 62.29147 90.94992 62.3219 90.95656 62.35234 90.96333 62.38277 90.97026 62.4132 90.97728 62.44362 90.98444 62.47406 90.99173 62.50449 90.99915 62.53491 91.00668 62.56535 91.01434 62.59578 91.02214 62.62622 91.03006 62.65663 91.0381 62.68707 91.04628 62.7175 91.05458 62.74794 91.063 62.77835 91.07156 62.80879 91.08025 62.83922 91.08905 62.86966 91.09799 62.90009 91.10704 62.93051 91.11623 62.96095 91.12553 62.99138 91.13498 63.0218 91.14455 63.05223 91.15424 63.08267 91.16405 63.11308 91.17401 63.14352 91.18407 63.17395 91.19427 63.20439 91.2046 63.23482 91.21506 63.26524 91.22563 63.29568 91.23636 63.32611 91.24718 63.35654 91.25813 63.38696 91.26924 63.4174 91.28046 63.44783 91.29178 63.47826 91.30325 63.50868 91.31483 63.53912 91.32658 63.56956 91.33842 63.59998 91.3504 63.63042 91.3625 63.66084 91.37473 63.69128 91.38708 63.7217 91.39957 63.75214 91.41217 63.78256 91.4249 63.813 91.43776 63.84341 91.45074 63.87386 91.46387 63.9043 91.47711 63.93472 91.49046 63.96515 91.50397 63.99557 91.5176 64.02602 91.53133 64.05644 91.54521 64.08687 91.55922 64.1173 91.57335 64.14774 91.5876 64.17818 91.60197 64.20859 91.6165 64.23903 91.63112 64.26945 91.64589 64.2999 91.66078 64.3303 91.6758 64.36075 91.69093 64.39117 91.7062 64.42162 91.7216 64.45203 91.73712 64.48247 91.75276 64.51291 91.76854 64.54333 91.78444 64.57376 91.80048 64.60419 91.81664 64.63463 91.83292 64.66505 91.84933 64.69548 91.86586 64.7259 91.88252 64.75635 91.8993 64.78677 91.91623 64.8172 91.93327 64.84764 91.95044 64.87807 91.96774 64.90851 91.98515 64.93892 92.00272 64.96936 92.0204 64.99979 92.0382 65.03023 92.05612 65.06064 92.07417 65.09108 92.09236 65.1215 92.11069 65.15195 92.1291 65.18237 92.14766 65.2128 92.16637 65.24324 92.18518 65.27367 92.20413 65.3041 92.22319 65.33452 92.24239 65.36496 92.26172 65.39537 92.28117 65.42581 92.30074 65.45624 92.32045 65.48668 92.34027 65.5171 92.36023 65.54753 92.38031 65.57797 92.40054 65.6084 92.42087 65.63882 92.44133 65.66925 92.46191 65.69969 92.48264 65.73012 92.50348 65.76054 92.52444 65.79099 92.54555 65.82141 92.56677 65.85185 92.58813 65.88226 92.6096 65.9127 92.63121 65.94313 92.65294 65.97357 92.67479 66.00398 92.69678 66.03442 92.7189 66.06485 92.74113 66.09529 92.7635 66.12572 92.786 66.15614 92.80861 66.18658 92.83136 66.21701 92.85422 66.24744 92.87723 66.27786 92.90034 66.3083 92.9236 66.33873 92.94699 66.36916 92.97049 66.39958 92.99411 66.43002 93.01787 66.46046 93.04175 66.49088 93.06578 66.52132 93.08992 66.55174 93.11418 66.58218 93.13858 66.6126 93.16309 66.64304 93.18774 66.67346 93.21251 66.7039 93.23741 66.73431 93.26242 66.76476 93.28758 66.7952 93.31287 66.82562 93.33827 66.85605 93.36382 66.88647 93.38945 66.91692 93.41525 66.94734 93.44116 66.97777 93.4672 67.0082 93.49336 67.03864 93.51965 67.06906 93.54608 67.09949 93.57262 67.12993 93.5993 67.16035 93.6261 67.1908 93.65303 67.2212 93.68007 67.25165 93.70724 67.28207 93.73457 67.31252 93.762 67.34293 93.78955 67.37337 93.81725 67.40381 93.84506 67.43423 93.873 67.46466 93.90106 67.49509 93.92926 67.52553 93.95758 67.55595 93.98602 67.58638 94.0146 67.6168 94.0433 67.64725 94.07213 67.67767 94.10109 67.7081 94.13016 67.73854 94.15938 67.76897 94.1887 67.7994 94.21815 67.82982 94.24776 67.86026 94.27747 67.89069 94.30731 67.92111 94.33728 67.95154 94.36737 67.98198 94.39758 68.0124 94.42793 68.04283 94.45842 68.07327 94.48901 68.1037 94.51973 68.13414 94.5506 68.16455 94.58157 68.19499 94.61269 68.22542 94.64392 68.25586 94.67528 68.28627 94.70677 68.31671 94.73839 68.34714 94.77013 68.37758 94.80199 68.408 94.834 68.43843 94.86612 68.46887 94.89836 68.4993 94.93074 68.52972 94.96324 68.56015 94.99586 68.59059 95.02863 68.62102 95.06151 68.65144 95.09451 68.68187 95.12766 68.71231 95.1609 68.74275 95.19429 68.77316 95.22781 68.8036 95.26146 68.83403 95.29524 68.86447 95.32912 68.89488 95.36314 68.92532 95.39731 68.95575 95.43156 68.98619 95.46597 69.01662 95.5005 69.04704 95.53516 69.07748 95.56995 69.10791 95.60486 69.13834 95.6399 69.16876 95.67506 69.1992 95.71034 69.22963 95.74576 69.26006 95.78131 69.29048 95.81697 69.32092 95.85277 69.35136 95.88869 69.38177 95.92473 69.41222 95.96092 69.44264 95.99722 69.47308 96.03366 69.5035 96.0702 69.53394 96.10689 69.56436 96.1437 69.5948 96.18063 69.62521 96.21771 69.65565 96.2549 69.6861 96.2922 69.71652 96.32965 69.74695 96.36722 69.77737 96.40492 69.80782 96.44275 69.83824 96.48068 69.86867 96.51877 69.8991 96.55698 69.92953 96.5953 69.95996 96.63377 69.99039 96.67235 70.02083 96.71106 70.05125 96.7499 70.08168 96.78886 70.1121 96.82794 70.14255 96.86717 70.17297 96.90651 70.2034 96.94598 70.23383 96.9856 70.26427 97.02531 70.2947 97.06516 70.32512 97.10513 70.35556 97.14523 70.38599 97.18547 70.41643 97.22583 70.44684 97.26631 70.47728 97.30693 70.5077 97.34767 70.53815 97.38853 70.56856 97.42952 70.599 97.47064 70.62944 97.51189 70.65987 97.55327 70.69029 97.59476 70.72072 97.63638 70.75116 97.67813 70.78159 97.72002 70.81201 97.76201 70.84244 97.80415 70.87288 97.8464 70.9033 97.8888 70.93373 97.9313 70.96417 97.97395 70.9946 98.01671 71.02504 98.05962 71.05545 98.10263 71.08589 98.14577 71.11632 98.18904 71.14676 98.23244 71.17717 98.27597 71.20761 98.31963 71.23804 98.3634 71.26848 98.4073 71.2989 98.45134 71.32933 98.4955 71.35977 98.53978 71.3902 98.5842 71.42062 98.62874 71.45105 98.6734 71.48149 98.71819 71.51192 98.7631 71.54234 98.80817 71.57277 98.85333 71.60321 98.89864 71.63365 98.94406 71.66406 98.98962 71.6945 99.03531 71.72493 99.0811 71.75537 99.12703 71.78578 99.1731 71.81622 99.21928 71.84665 99.2656 71.87709 99.31204 71.9075 99.3586 71.93794 99.4053 71.96838 99.45212 71.99881 99.49907 72.02924 99.54613 72.05966 99.59334 72.0901 99.64066 72.12053 99.68813 72.15096 99.7357 72.18138 99.7834 72.21182 99.83125 72.24226 99.87921 72.27267 99.92729 72.30312 99.97551 72.33354 100.02383 72.36398 100.07233 72.3944 100.12091 72.42484 100.16963 72.45526 100.21849 72.48569 100.26746 72.51611 100.31656 72.54655 100.36578 72.577 100.41515 72.6074 100.46463 72.63785 100.51422 72.66827 100.56396 72.69872 100.61383 72.72913 100.66382 72.75957 100.71393 72.79 100.76418 72.82043 100.81454 72.85085 100.86502"/>
<path transform="matrix(1.00003,0,0,-1.00006,2.0964967,163.19083)" stroke-width="1.49442" stroke-linecap="butt" stroke-miterlimit="10" stroke-linejoin="miter" fill="none" stroke="#1414cc" d="M72.8509 100.86511 72.91177 100.96597 72.97263 101.06633 73.0335 101.16618 73.09435 101.2655 73.1552 101.36435 73.21606 101.46268 73.27692 101.56049 73.33777 101.6578 73.39864 101.75462 73.45949 101.85092 73.52036 101.94672 73.58122 102.04199 73.64207 102.13678 73.70294 102.23105 73.7638 102.32481 73.82465 102.41806 73.88551 102.51082 73.94637 102.60307 74.00723 102.6948 74.06808 102.78604 74.12894 102.87677 74.18982 102.96698 74.25067 103.0567 74.31152 103.14589 74.37239 103.23459 74.43324 103.32278 74.49411 103.41046 74.55496 103.49765 74.61581 103.5843 74.67668 103.67047 74.73753 103.75612 74.79839 103.8413 74.85927 103.92593 74.92012 104.01006 74.98099 104.09369 75.04184 104.1768 75.10269 104.25943 75.16356 104.34154 75.22441 104.42314 75.28526 104.50423 75.34613 104.58481 75.40698 104.6649 75.46785 104.74448 75.52872 104.82355 75.58957 104.90211 75.65044 104.98016 75.71129 105.05771 75.77214 105.13475 75.83301 105.21127 75.89386 105.28731 75.95471 105.36282 76.01558 105.43785 76.07643 105.51234 76.13731 105.58635 76.19817 105.65984 76.25902 105.73282 76.31989 105.80531 76.38074 105.87727 76.44159 105.94873 76.50246 106.0197 76.56331 106.09015 76.62418 106.1601 76.68503 106.22954 76.7459 106.29848 76.80676 106.3669 76.86761 106.4348 76.92847 106.50223 76.98933 106.56912 77.05019 106.63551 77.11105 106.7014 77.1719 106.76678 77.23276 106.83167 77.29362 106.89603 77.35448 106.9599 77.41534 107.02325 77.47621 107.0861 77.53706 107.14845 77.59792 107.21028 77.65878 107.2716 77.71964 107.33244 77.7805 107.39276 77.84135 107.45256 77.9022 107.51187 77.96307 107.57065 78.02394 107.62895 78.0848 107.68674 78.14566 107.744 78.20651 107.80077 78.26738 107.85703 78.32823 107.91278 78.38908 107.96803 78.44995 108.02277 78.5108 108.077 78.57166 108.13074 78.63252 108.18394 78.69339 108.23666 78.75426 108.28886 78.81511 108.34058 78.87596 108.39175 78.93683 108.44246 78.99768 108.49261 79.05853 108.5423 79.1194 108.59146 79.18025 108.64012 79.24112 108.68826 79.30199 108.73592 79.36284 108.78305 79.4237 108.8297 79.48456 108.87582 79.54541 108.92142 79.60628 108.96654 79.66713 109.01114 79.72798 109.05525 79.78885 109.09883 79.8497 109.1419 79.91057 109.1845 79.97144 109.22656 80.03229 109.26811 80.09315 109.30917 80.154 109.34972 80.21486 109.38977 80.27573 109.4293 80.33658 109.46832 80.39745 109.50685 80.4583 109.54488 80.51915 109.58237 80.58002 109.61937 80.64088 109.65587 80.70174 109.69186 80.7626 109.72734 80.82346 109.76231 80.88432 109.79678 80.94518 109.83075 81.00603 109.8642 81.0669 109.89714 81.12775 109.92958 81.1886 109.96153 81.24948 109.99295 81.31033 110.02386 81.3712 110.05428 81.43205 110.0842 81.4929 110.11359 81.55377 110.14247 81.61462 110.17085 81.67548 110.19875 81.73634 110.22612 81.7972 110.25298 81.85806 110.27934 81.91893 110.30518 81.97978 110.33054 82.04065 110.35536 82.1015 110.3797 82.16235 110.40352 82.22322 110.42685 82.28407 110.44965 82.34492 110.47197 82.40579 110.49374 82.46664 110.51505 82.52753 110.53583 82.58838 110.5561 82.64923 110.57587 82.7101 110.59512 82.77095 110.61389 82.8318 110.63214 82.89267 110.64989 82.95352 110.66711 83.01439 110.68385 83.07524 110.70007 83.1361 110.71579 83.19698 110.73099 83.25783 110.7457 83.31868 110.75989 83.37955 110.77357 83.4404 110.78676 83.50127 110.79942 83.56212 110.81158 83.62297 110.82326 83.68384 110.83441 83.74469 110.84505 83.80556 110.8552 83.86642 110.86482 83.92728 110.87396 83.98814 110.88257 84.049 110.89069 84.10985 110.89828 84.17072 110.90538 84.23157 110.91199 84.29242 110.91806 84.35329 110.92365 84.41414 110.92873 84.475 110.93329 84.53587 110.93735 84.59673 110.9409 84.6576 110.94394 84.71844 110.94647 84.7793 110.94852 84.84016 110.95004 84.90102 110.95105 84.96187 110.95155H85.02274L85.0836 110.95105 85.14447 110.95006 85.20532 110.94853 85.26617 110.9465 85.32704 110.94398 85.3879 110.94095 85.44876 110.93741 85.50961 110.93335 85.57047 110.92879 85.63133 110.92372 85.69218 110.91815 85.75307 110.91208 85.81392 110.90549 85.87477 110.89839 85.93564 110.8908 85.99649 110.88269 86.05736 110.87407 86.11821 110.86494 86.17906 110.85533 86.23993 110.8452 86.30078 110.83456 86.36166 110.82343 86.42252 110.81175 86.48337 110.79959 86.54424 110.78693 86.60509 110.77376 86.66595 110.76007 86.7268 110.7459 86.78766 110.73119 86.84853 110.71599 86.90938 110.70029 86.97025 110.68407 87.03111 110.66734 87.09196 110.65012 87.15283 110.63237 87.21368 110.61414 87.27455 110.59538 87.3354 110.57613 87.39626 110.55637 87.45712 110.5361 87.51797 110.51532 87.57884 110.49403 87.6397 110.47226 87.70056 110.44995 87.76143 110.42715 87.82228 110.40384 87.88315 110.38002 87.944 110.3557 88.00485 110.33087 88.06572 110.30553 88.12657 110.2797 88.18742 110.25333 88.24829 110.22647 88.30916 110.1991 88.37003 110.17123 88.43088 110.14285 88.49173 110.11397 88.5526 110.08458 88.61345 110.05469 88.67432 110.02428 88.73517 109.99336 88.79602 109.96194 88.85689 109.93001 88.91774 109.89758 88.97862 109.86464 89.03947 109.83119 89.10033 109.79724 89.1612 109.76277 89.22205 109.72781 89.28291 109.69234 89.34377 109.65634 89.40462 109.61986 89.46548 109.58287 89.52634 109.54538 89.58722 109.50737 89.64807 109.46884 89.70892 109.42982 89.76979 109.3903 89.83064 109.35025 89.89151 109.30971 89.95236 109.26866 90.01321 109.2271 90.07408 109.18504 90.13493 109.14247 90.19579 109.0994 90.25667 109.0558 90.31752 109.01172 90.37839 108.96712 90.43924 108.92201 90.50009 108.8764 90.56096 108.83029 90.62181 108.78366 90.68268 108.73654 90.74353 108.68889 90.80438 108.64075 90.86526 108.5921 90.92612 108.54294 90.98698 108.49327 91.04784 108.4431 91.10869 108.39243 91.16956 108.34123 91.23041 108.28955 91.29128 108.23735 91.35213 108.18465 91.41298 108.13142 91.47385 108.0777 91.53471 108.02347 91.59558 107.96875 91.65643 107.9135 91.7173 107.85776 91.77815 107.80151 91.839 107.74475 91.89987 107.68748 91.96072 107.6297 92.02158 107.57141 92.08244 107.51262 92.14331 107.45334 92.20418 107.39354 92.26503 107.33322 92.32588 107.2724 92.38675 107.21107 92.4476 107.14925 92.50847 107.08691 92.56932 107.02406 92.63017 106.96072 92.69104 106.89687 92.75189 106.8325 92.81277 106.76764 92.87363 106.70226 92.93448 106.63637 92.99535 106.56998 93.0562 106.50308 93.11707 106.43567 93.17792 106.36777 93.23877 106.29935 93.29964 106.23041 93.36049 106.16098 93.42136 106.09105 93.48222 106.0206 93.54308 105.94965 93.60394 105.8782 93.6648 105.80623 93.72566 105.73375 93.78651 105.66077 93.84737 105.58728 93.90823 105.51329 93.96909 105.43878 94.02994 105.36378 94.09082 105.28827 94.15167 105.21225 94.21254 105.13573 94.27339 105.05869 94.33424 104.98114 94.39511 104.90309 94.45596 104.82455 94.51683 104.74548 94.57768 104.66592 94.63853 104.58583 94.6994 104.50526 94.76027 104.42416 94.82114 104.34258 94.88199 104.26047 94.94284 104.17786 95.00371 104.09474 95.06456 104.01112 95.12543 103.927 95.18628 103.84235 95.24713 103.7572 95.308 103.67155 95.36887 103.5854 95.42973 103.49873 95.49059 103.41158 95.55144 103.32388 95.6123 103.2357 95.67316 103.14702 95.73402 103.0578 95.79488 102.96811 95.85573 102.87788 95.9166 102.78719 95.97745 102.69595 96.03833 102.60423 96.09918 102.51198 96.16003 102.41924 96.2209 102.32599 96.28175 102.23222 96.34262 102.13795 96.40347 102.04318 96.46432 101.94789 96.52519 101.85211 96.58604 101.75581 96.64693 101.65901 96.70778 101.5617 96.76863 101.4639 96.8295 101.36557 96.89035 101.26674 96.95122 101.1674 97.01207 101.06757 97.07292 100.96721 97.13379 100.86636"/>
<path transform="matrix(1.00003,0,0,-1.00006,2.0964967,163.19083)" stroke-width="1.49442" stroke-linecap="butt" stroke-miterlimit="10" stroke-linejoin="miter" fill="none" stroke="#1414cc" d="M97.13455 100.86511 97.1954 100.76399 97.25626 100.66287 97.31712 100.56177 97.37798 100.46063 97.43886 100.35953 97.49971 100.2584 97.56058 100.15729 97.62143 100.05618 97.6823 99.95505 97.74315 99.85394 97.80402 99.75282 97.86487 99.6517 97.92574 99.55058 97.98659 99.44946 98.04747 99.34836 98.10832 99.24724 98.16919 99.14612 98.23004 99.045 98.29091 98.94388 98.35176 98.84277 98.41263 98.74164 98.47348 98.64053 98.53435 98.53941 98.5952 98.4383 98.65607 98.33719 98.71693 98.23605 98.7778 98.13495 98.83865 98.03383 98.8995 97.93272 98.96037 97.83159 99.02122 97.73047 99.08209 97.62936 99.14294 97.52824 99.20381 97.42712 99.26466 97.326 99.32553 97.22488 99.3864 97.12378 99.44727 97.02266 99.50812 96.92154 99.56898 96.82042 99.62984 96.71931 99.6907 96.6182 99.75156 96.51706 99.81242 96.41595 99.87328 96.31483 99.93414 96.21373 99.99501 96.1126 100.05588 96.01147 100.11673 95.91037 100.1776 95.80925 100.23845 95.70813 100.29932 95.60701 100.36017 95.5059 100.42104 95.40479 100.48189 95.30367 100.54276 95.20255 100.6036 95.10143 100.66449 95.0003 100.72534 94.8992 100.7862 94.79807 100.84706 94.69696 100.90791 94.59584 100.96878 94.49474 101.02963 94.3936 101.0905 94.29248 101.15135 94.19138 101.21222 94.09026 101.27309 93.98914 101.33395 93.88802 101.3948 93.78691 101.45567 93.68579 101.51653 93.58467 101.5774 93.48355 101.63824 93.38243 101.69911 93.28133 101.75996 93.1802 101.82083 93.07907 101.88168 92.97797 101.94257 92.87685 102.00342 92.77574 102.06427 92.6746 102.12514 92.5735 102.18599 92.47238 102.24686 92.37126 102.30771 92.27014 102.36858 92.16902 102.42943 92.06792 102.4903 91.9668 102.55116 91.86568 102.61203 91.76456 102.67288 91.66344 102.73375 91.56233 102.7946 91.46121 102.85547 91.36009 102.91632 91.25897 102.97719 91.15785 103.03804 91.05675 103.0989 90.95561 103.15976 90.8545 103.22064 90.75339 103.2815 90.65228 103.34236 90.55115 103.40321 90.45003 103.46408 90.34892 103.52493 90.2478 103.5858 90.1467 103.64665 90.04556 103.70752 89.94444 103.76837 89.84334 103.82922 89.74222 103.8901 89.6411 103.95096 89.53998 104.01183 89.43887 104.07268 89.33775 104.13354 89.23662 104.1944 89.13551 104.25526 89.0344 104.31612 88.93327 104.37698 88.83215 104.43784 88.73103 104.49872 88.62993 104.55957 88.52881 104.62044 88.4277 104.68129 88.32657 104.74216 88.22545 104.80301 88.12434 104.86388 88.02322 104.92473 87.9221 104.9856 87.82098 105.04645 87.71988 105.10732 87.61876 105.16818 87.51762 105.22905 87.41652 105.2899 87.3154 105.35077 87.2143 105.41162 87.11316 105.47249 87.01204 105.53334 86.91093 105.59421 86.80981 105.65506 86.70871 105.71591 86.60757 105.7768 86.50647 105.83765 86.40535 105.89851 86.30423 105.95937 86.20311 106.02023 86.10199 106.08109 86.00089 106.14195 85.89977 106.2028 85.79865 106.26367 85.69753 106.32452 85.5964 106.38539 85.4953 106.44626 85.39417 106.50713 85.29306 106.56798 85.19194 106.62885 85.09082 106.6897 84.98972 106.75056 84.88858 106.81142 84.78748 106.87228 84.68636 106.93314 84.58525 106.99399 84.48412 107.05486 84.383 107.11572 84.28189 107.17659 84.18077 107.23744 84.07965 107.29831 83.97853 107.35916 83.87741 107.42003 83.7763 107.48088 83.67517 107.54175 83.57407 107.6026 83.47295 107.66347 83.37184 107.72433 83.27072 107.7852 83.16959 107.84605 83.06848 107.90692 82.96736 107.96777 82.86624 108.02864 82.76512 108.0895 82.664 108.15036 82.5629 108.21121 82.46178 108.27208 82.36066 108.33293 82.25954 108.39381 82.15842 108.45467 82.05731 108.51553 81.95618 108.57639 81.85507 108.63724 81.75395 108.6981 81.65285 108.75896 81.55173 108.81982 81.45059 108.88068 81.34949 108.94154 81.24837 109.00241 81.14726 109.06328 81.04613 109.12413 80.945 109.185 80.8439 109.24585 80.74278 109.30672 80.64166 109.36757 80.54054 109.42844 80.43944 109.48929 80.33832 109.55014 80.23718 109.61101 80.13608 109.67188 80.03499 109.73273 79.93388 109.7936 79.83276 109.85445 79.73163 109.9153 79.63052 109.97617 79.5294 110.03702 79.4283 110.09789 79.32716 110.15874 79.22604 110.21959 79.12494 110.28047 79.02385 110.34132 78.92273 110.40218 78.82161 110.46304 78.72049 110.5239 78.61938 110.58476 78.51825 110.64561 78.41714 110.70647 78.31602 110.76733 78.2149 110.82819 78.1138 110.88904 78.0127 110.94992 77.91159 111.01077 77.81047 111.07164 77.70935 111.13249 77.60823 111.19334 77.50711 111.25421 77.406 111.31506 77.30489 111.37592 77.20375 111.43678 77.10265 111.49763 77.00156 111.5585 76.90045 111.61937 76.79932 111.68022 76.6982 111.74109 76.59709 111.80194 76.49597 111.8628 76.39485 111.92366 76.29373 111.98451 76.19261 112.04536 76.0915 112.10623 75.99042 112.16708 75.8893 112.22797 75.78818 112.28882 75.68706 112.34967 75.58595 112.41054 75.48482 112.47139 75.38371 112.53224 75.2826 112.59311 75.18147 112.65396 75.08035 112.71483 74.97926 112.77568 74.87816 112.83653 74.77704 112.89742 74.6759 112.95827 74.5748 113.01912 74.47368 113.07999 74.37257 113.14084 74.27145 113.2017 74.17032 113.26256 74.06921 113.32341 73.96812 113.38428 73.86702 113.44513 73.76588 113.506 73.66476 113.56686 73.56366 113.62772 73.46254 113.68858 73.36142 113.74944 73.2603 113.81029 73.15918 113.87115 73.05807 113.932 72.95697 113.99286 72.85587 114.05373 72.75475 114.11458 72.65363 114.17545 72.55252 114.23631 72.45139 114.29716 72.35028 114.35803 72.24916 114.41888 72.14804 114.47974 72.04692 114.5406 71.94583 114.60146 71.84473 114.66231 71.7436 114.72318 71.64247 114.78404 71.54137 114.84491 71.44025 114.90576 71.33913 114.96661 71.238 115.02748 71.13689 115.08833 71.03578 115.14919 70.9347 115.21005 70.83357 115.2709 70.73245 115.33177 70.63133 115.39262 70.53023 115.45349 70.42911 115.51436 70.32797 115.57521 70.22687 115.63606 70.12575 115.69693 70.02467 115.75778 69.92354 115.81865 69.82242 115.8795 69.72131 115.94035 69.6202 116.00122 69.51907 116.06209 69.41795 116.12294 69.31683 116.1838 69.21573 116.24466 69.11461 116.30551 69.01352 116.36638 68.9124 116.42723 68.81128 116.4881 68.71017 116.54895 68.60904 116.6098 68.50793 116.67067 68.40681 116.73154 68.3057 116.79239 68.20457 116.85326 68.10345 116.91411 68.00238 116.97498 67.90126 117.03583 67.80013 117.09668 67.69902 117.15755 67.5979 117.2184 67.4968 117.27925 67.39568 117.34013 67.29454 117.40099 67.19344 117.46185 67.09232 117.5227 66.99121 117.58356 66.8901 117.64442 66.78899 117.70528 66.68788 117.76613 66.58676 117.827 66.48564 117.88785 66.38452 117.94872 66.2834 118.00958 66.1823 118.07043 66.08116 118.1313 65.98009 118.19215 65.87897 118.253 65.77785 118.31387 65.67673 118.37473 65.5756 118.4356 65.4745 118.49644 65.37338 118.5573 65.27226 118.61818 65.17114 118.67903 65.07002 118.73988 64.96895 118.80075 64.86783 118.8616 64.7667 118.92245 64.66559 118.98332 64.56447 119.04417 64.46336 119.10504 64.36223 119.1659 64.26111 119.22675 64.16 119.28763 64.05888 119.34848 63.9578 119.40933 63.85667 119.4702 63.75555 119.53105 63.65445 119.59192 63.55333 119.65277 63.45221 119.71362 63.35109 119.77449 63.24997 119.83534 63.14886 119.8962 63.04773 119.95708 62.94666 120.01793 62.84554 120.0788 62.74442 120.13965 62.6433 120.2005 62.54218 120.26137 62.44107 120.32222 62.33995 120.38307 62.23882 120.44394 62.13771 120.50479 62.03659 120.56567 61.93552 120.62653 61.8344 120.68738 61.73326 120.74825 61.63216 120.8091 61.53104 120.86995 61.42993 120.93082 61.3288 120.99167 61.22768 121.05252 61.12657 121.11339 61.02545 121.17424 60.92436 121.23512 60.82324 121.29597 60.72212 121.35683 60.62102 121.4177 60.51988"/>
<path transform="matrix(1.00003,0,0,-1.00006,2.0964967,163.19083)" stroke-width="1.49442" stroke-linecap="butt" stroke-miterlimit="10" stroke-linejoin="miter" fill="none" stroke="#1414cc" d="M121.4182 60.51907 121.47905 60.4182 121.5399 60.31784 121.60077 60.21799 121.66162 60.11867 121.72247 60.01982 121.78334 59.9215 121.8442 59.82368 121.90506 59.72636 121.96593 59.62956 122.02678 59.53325 122.08765 59.43747 122.1485 59.34218 122.20935 59.24739 122.27022 59.15312 122.33107 59.05936 122.39192 58.96611 122.45279 58.87335 122.51364 58.7811 122.57452 58.68938 122.63538 58.59813 122.69623 58.5074 122.7571 58.41719 122.81795 58.32747 122.8788 58.23828 122.93967 58.14958 123.00052 58.0614 123.06139 57.97371 123.12224 57.88652 123.18309 57.79987 123.24397 57.7137 123.30482 57.62805 123.36568 57.5429 123.42654 57.45824 123.4874 57.37411 123.54826 57.29048 123.60912 57.20737 123.66997 57.12474 123.73083 57.04263 123.79169 56.96103 123.85255 56.87994 123.91342 56.79936 123.97427 56.71927 124.03513 56.6397 124.096 56.56062 124.15685 56.48206 124.21771 56.404 124.27856 56.32646 124.33942 56.24942 124.40028 56.1729 124.46114 56.09686 124.522 56.02135 124.58287 55.94633 124.64372 55.87183 124.70459 55.79782 124.76544 55.72433 124.8263 55.65135 124.88716 55.57887 124.94801 55.5069 125.00887 55.43544 125.06973 55.36447 125.1306 55.29402 125.19147 55.22408 125.25232 55.15463 125.31317 55.0857 125.37404 55.01727 125.43489 54.94937 125.49574 54.88194 125.55661 54.81505 125.61746 54.74866 125.67833 54.68277 125.73918 54.61739 125.80005 54.5525 125.86092 54.48814 125.92177 54.42427 125.98262 54.36092 126.04349 54.29807 126.10434 54.23573 126.16519 54.17389 126.22606 54.11256 126.28691 54.05174 126.34778 53.99141 126.40865 53.93161 126.4695 53.87231 126.53036 53.81352 126.59122 53.75522 126.65207 53.69743 126.71294 53.64017 126.77379 53.5834 126.83466 53.52715 126.89551 53.47139 126.95636 53.41614 127.01723 53.3614 127.0781 53.30717 127.13895 53.25343 127.19981 53.20023 127.26067 53.1475 127.32153 53.0953 127.38239 53.0436 127.44324 52.99242 127.5041 52.94171 127.56496 52.89156 127.62581 52.84187 127.68669 52.79271 127.74754 52.74405 127.80841 52.6959 127.86926 52.64825 127.93011 52.60112 127.99098 52.55447 128.05184 52.50836 128.11269 52.46275 128.17356 52.41763 128.2344 52.37303 128.29526 52.32893 128.35614 52.28534 128.41699 52.24226 128.47786 52.19968 128.53871 52.15761 128.59957 52.11606 128.66043 52.075 128.72129 52.03445 128.78214 51.9944 128.843 51.95486 128.90386 51.91585 128.96474 51.87732 129.02559 51.8393 129.08644 51.8018 129.14731 51.7648 129.20816 51.7283 129.26902 51.6923 129.32988 51.65683 129.39073 51.62186 129.4516 51.58739 129.51245 51.55342 129.5733 51.51997 129.63419 51.48703 129.69504 51.45459 129.75589 51.42264 129.81676 51.39122 129.87761 51.3603 129.93848 51.3299 129.99933 51.29999 130.06018 51.27058 130.12105 51.2417 130.1819 51.21332 130.24277 51.18544 130.30364 51.15805 130.36449 51.1312 130.42536 51.10483 130.4862 51.079 130.54706 51.05363 130.60793 51.02881 130.66878 51.00447 130.72963 50.98065 130.7905 50.95732 130.85135 50.93452 130.91222 50.9122 130.97309 50.89043 131.03394 50.86913 131.0948 50.84834 131.15566 50.82806 131.2165 50.8083 131.27738 50.78905 131.33823 50.77028 131.39908 50.75203 131.45995 50.73428 131.5208 50.71706 131.58168 50.70032 131.64253 50.6841 131.70339 50.66838 131.76425 50.65318 131.8251 50.63849 131.88596 50.62428 131.94683 50.6106 132.00768 50.59743 132.06855 50.58475 132.1294 50.57259 132.19026 50.56093 132.25113 50.54976 132.31198 50.53912 132.37284 50.52898 132.4337 50.51935 132.49456 50.51021 132.55542 50.5016 132.61627 50.49348 132.67713 50.48589 132.73799 50.47879 132.79885 50.47218 132.85971 50.46611 132.92058 50.46053 132.98143 50.45544 133.04228 50.45088 133.10315 50.44682 133.164 50.44327 133.22487 50.44023 133.28572 50.4377 133.34658 50.43565 133.40744 50.43414 133.4683 50.43312 133.52916 50.43262H133.59003L133.65088 50.43312 133.71175 50.43413 133.7726 50.43564 133.83345 50.43767 133.89432 50.44019 133.95517 50.44322 134.01602 50.44676 134.07689 50.45082 134.13776 50.45538 134.19863 50.46045 134.25948 50.46602 134.32033 50.47209 134.3812 50.47868 134.44205 50.48578 134.5029 50.49338 134.56377 50.50148 134.62462 50.51009 134.68549 50.51921 134.74636 50.52884 134.8072 50.53897 134.86808 50.5496 134.92893 50.56076 134.98978 50.57242 135.05065 50.58458 135.1115 50.59724 135.17235 50.61041 135.23322 50.6241 135.29407 50.63829 135.35494 50.65297 135.4158 50.66817 135.47666 50.68388 135.53752 50.70009 135.59838 50.71681 135.65923 50.73405 135.7201 50.75179 135.78095 50.77002 135.84181 50.78879 135.90267 50.80803 135.96352 50.82779 136.0244 50.84807 136.08525 50.86884 136.1461 50.89012 136.20697 50.91193 136.26782 50.9342 136.32869 50.95702 136.38954 50.98033 136.4504 51.00414 136.51126 51.02847 136.57212 51.0533 136.63297 51.07864 136.69385 51.10448 136.7547 51.13083 136.81557 51.15768 136.87642 51.18506 136.93727 51.21292 136.99814 51.2413 137.05899 51.27019 137.11985 51.29959 137.18071 51.32947 137.24156 51.3599 137.30243 51.3908 137.3633 51.42223 137.42415 51.45415 137.48502 51.48659 137.54587 51.51952 137.60672 51.55296 137.66759 51.58691 137.72844 51.62138 137.78929 51.65634 137.85016 51.69183 137.91101 51.7278 137.9719 51.7643 138.03275 51.80128 138.0936 51.83879 138.15447 51.87679 138.21532 51.91531 138.27617 51.95433 138.33704 51.99387 138.39789 52.0339 138.45876 52.07443 138.5196 52.1155 138.58048 52.15704 138.64134 52.1991 138.7022 52.24167 138.76305 52.28474 138.82392 52.32834 138.88477 52.37242 138.94564 52.41702 139.00649 52.46213 139.06734 52.50774 139.1282 52.55385 139.18906 52.60048 139.24993 52.6476 139.31079 52.69525 139.37165 52.7434 139.43251 52.79204 139.49337 52.8412 139.55422 52.89087 139.61508 52.94104 139.67594 52.99171 139.73679 53.04291 139.79766 53.09459 139.8585 53.14679 139.91938 53.1995 139.98024 53.2527 140.04109 53.30643 140.10196 53.36066 140.16281 53.41539 140.22367 53.47063 140.28453 53.52637 140.34539 53.58263 140.40624 53.6394 140.4671 53.69667 140.52797 53.75443 140.58884 53.81271 140.64969 53.8715 140.71054 53.93079 140.77141 53.9906 140.83226 54.0509 140.89311 54.11172 140.95398 54.17305 141.01483 54.23488 141.0757 54.2972 141.13655 54.36005 141.19742 54.4234 141.25829 54.48726 141.31914 54.55162 141.37999 54.61649 141.44086 54.68185 141.50171 54.74774 141.56258 54.81415 141.62343 54.88103 141.68428 54.94844 141.74515 55.01634 141.80602 55.08478 141.86687 55.1537 141.92774 55.22313 141.98859 55.29308 142.04944 55.3635 142.1103 55.43446 142.17116 55.5059 142.23203 55.57788 142.29288 55.65036 142.35373 55.72333 142.4146 55.79681 142.47547 55.8708 142.53632 55.94531 142.59719 56.02031 142.65804 56.09583 142.7189 56.17184 142.77976 56.24838 142.8406 56.32541 142.90148 56.40295 142.96233 56.481 143.02318 56.55954 143.08406 56.63861 143.14492 56.71819 143.20578 56.79825 143.26663 56.87883 143.32749 56.95992 143.38835 57.04152 143.4492 57.12361 143.51006 57.20622 143.57093 57.28935 143.63178 57.37297 143.69264 57.4571 143.75351 57.54173 143.81436 57.62688 143.87523 57.71252 143.93608 57.79868 143.99694 57.88535 144.0578 57.9725 144.11865 58.0602 144.1795 58.14836 144.24037 58.23708 144.30123 58.32626 144.3621 58.41597 144.42296 58.50618 144.48381 58.59688 144.54468 58.68811 144.60553 58.77986 144.66638 58.87209 144.72725 58.96483 144.7881 59.05807 144.84897 59.15186 144.90982 59.24611 144.97068 59.34088 145.03156 59.43616 145.0924 59.53194 145.15326 59.62823 145.21413 59.72504 145.27498 59.82234 145.33585 59.92015 145.3967 60.01848 145.45755 60.1173 145.51842 60.21664 145.57927 60.31647 145.64014 60.41682 145.701 60.51768"/>
<path transform="matrix(1.00003,0,0,-1.00006,2.0964967,163.19083)" stroke-width="1.49442" stroke-linecap="butt" stroke-miterlimit="10" stroke-linejoin="miter" fill="none" stroke="#1414cc" d="M145.70183 60.51907 145.76268 60.62018 145.82355 60.72128 145.88442 60.8224 145.94527 60.92352 146.00612 61.02464 146.06699 61.12575 146.12784 61.22685 146.18869 61.32799 146.24956 61.4291 146.31041 61.53021 146.37128 61.63132 146.43215 61.73242 146.493 61.83356 146.55387 61.93466 146.61472 62.03578 146.67557 62.13689 146.73644 62.238 146.79729 62.33913 146.85816 62.44023 146.919 62.54135 146.97986 62.64247 147.04073 62.74358 147.1016 62.8447 147.16245 62.9458 147.22332 63.04694 147.28417 63.14804 147.34503 63.24915 147.40589 63.35027 147.46674 63.45139 147.5276 63.5525 147.58846 63.65361 147.6493 63.75471 147.71019 63.85583 147.77104 63.95695 147.83191 64.05807 147.89276 64.15918 147.95362 64.26028 148.01448 64.36142 148.07534 64.46252 148.13619 64.56364 148.19705 64.66475 148.2579 64.76587 148.31876 64.86699 148.37964 64.9681 148.44049 65.06921 148.50136 65.17033 148.56221 65.27144 148.62306 65.37256 148.68393 65.47366 148.74478 65.57478 148.80564 65.6759 148.8665 65.77701 148.92736 65.87813 148.98824 65.97923 149.04909 66.08037 149.10994 66.18147 149.1708 66.28258 149.23166 66.3837 149.29251 66.48482 149.35338 66.58594 149.41423 66.68704 149.4751 66.78815 149.53595 66.88928 149.5968 66.99039 149.65769 67.0915 149.71854 67.19261 149.77939 67.29372 149.84026 67.39485 149.90111 67.49596 149.96198 67.59708 150.02283 67.69818 150.08368 67.7993 150.14455 67.90042 150.2054 68.00153 150.26627 68.10265 150.32714 68.20377 150.38799 68.30487 150.44884 68.40599 150.5097 68.5071 150.57056 68.60823 150.63143 68.70934 150.69228 68.81044 150.75313 68.91156 150.814 69.01266 150.87485 69.1138 150.93572 69.2149 150.99658 69.31601 151.05744 69.41713 151.1183 69.51825 151.17916 69.61937 151.24 69.72047 151.30088 69.82158 151.36173 69.92271 151.42258 70.02382 151.48345 70.12494 151.54431 70.22604 151.60518 70.32716 151.66603 70.42828 151.72689 70.52939 151.78775 70.63051 151.8486 70.73161 151.90946 70.83273 151.97032 70.93385 152.03118 71.03496 152.09204 71.13608 152.1529 71.2372 152.21376 71.3383 152.27463 71.43942 152.33548 71.54053 152.39633 71.64166 152.4572 71.74277 152.51805 71.84387 152.5789 71.94499 152.63977 72.04611 152.70063 72.14723 152.76149 72.24834 152.82234 72.34944 152.88321 72.45056 152.94408 72.55168 153.00493 72.6528 153.06578 72.7539 153.12665 72.85501 153.1875 72.95615 153.24837 73.05725 153.30922 73.15837 153.37007 73.25948 153.43094 73.3606 153.4918 73.46172 153.55266 73.56282 153.61353 73.66394 153.67438 73.76506 153.73525 73.86617 153.7961 73.96729 153.85695 74.06839 153.91782 74.16953 153.97867 74.27063 154.03952 74.37173 154.10039 74.47285 154.16126 74.57396 154.22212 74.6751 154.28298 74.7762 154.34383 74.8773 154.4047 74.97842 154.46555 75.07954 154.5264 75.18066 154.58727 75.28177 154.64812 75.38287 154.70899 75.48401 154.76985 75.58511 154.8307 75.68623 154.89157 75.78734 154.95243 75.88846 155.01328 75.98958 155.07415 76.09068 155.135 76.1918 155.19585 76.29291 155.25672 76.39403 155.31757 76.49515 155.37844 76.59625 155.4393 76.69737 155.50016 76.7985 155.56102 76.8996 155.62187 77.00072 155.68273 77.10182 155.74359 77.20296 155.80445 77.30406 155.86531 77.40518 155.92617 77.50629 155.98702 77.6074 156.0479 77.70853 156.10875 77.80963 156.1696 77.91075 156.23047 78.01186 156.29132 78.11298 156.35219 78.2141 156.41304 78.3152 156.47389 78.41632 156.53476 78.51744 156.59561 78.61855 156.65647 78.71967 156.71735 78.82077 156.7782 78.9219 156.83907 79.02301 156.89992 79.12411 156.96077 79.22523 157.02164 79.32635 157.08249 79.42747 157.14334 79.52858 157.20421 79.62968 157.26506 79.7308 157.32593 79.83192 157.3868 79.93304 157.44765 80.03415 157.50852 80.13525 157.56937 80.23639 157.63022 80.3375 157.69109 80.43861 157.75194 80.53972 157.81279 80.64084 157.87366 80.74196 157.93451 80.84306 157.99539 80.94418 158.05625 81.04532 158.1171 81.14642 158.17797 81.24751 158.23882 81.34862 158.29967 81.44974 158.36054 81.55087 158.42139 81.65198 158.48226 81.7531 158.5431 81.8542 158.60398 81.95534 158.66484 82.05646 158.7257 82.15756 158.78655 82.25865 158.84741 82.35977 158.90827 82.46089 158.96913 82.56201 159.02999 82.66312 159.09084 82.76425 159.1517 82.86536 159.21256 82.96648 159.27342 83.0676 159.33429 83.1687 159.39514 83.2698 159.456 83.37091 159.51686 83.47203 159.57772 83.57315 159.63858 83.67427 159.69944 83.77539 159.76029 83.8765 159.82115 83.97762 159.88202 84.07875 159.94287 84.17986 160.00374 84.28094 160.06459 84.38205 160.12546 84.48318 160.18631 84.5843 160.24716 84.68541 160.30803 84.78653 160.36888 84.88765 160.42974 84.98877 160.4906 85.08989 160.55147 85.191 160.61234 85.29208 160.67319 85.3932 160.73404 85.49432 160.7949 85.59544 160.85576 85.69655 160.91661 85.79768 160.97748 85.89879 161.03833 85.99991 161.0992 86.10103 161.16005 86.20215 161.22092 86.30324 161.28179 86.40434 161.34264 86.50546 161.40349 86.6066 161.46436 86.7077 161.5252 86.80882 161.58606 86.90993 161.64693 87.01105 161.70778 87.11218 161.76865 87.21329 161.82952 87.3144 161.89037 87.41548 161.95124 87.51662 162.01209 87.61774 162.07294 87.71884 162.1338 87.81996 162.19466 87.92108 162.25553 88.0222 162.31638 88.12332 162.37723 88.22443 162.4381 88.32556 162.49897 88.42664 162.55982 88.52776 162.62068 88.62888 162.68154 88.72998 162.7424 88.83112 162.80326 88.93222 162.8641 89.03334 162.92498 89.13446 162.98583 89.23558 163.04668 89.3367 163.10756 89.43777 163.16841 89.5389 163.22928 89.64003 163.29013 89.74113 163.35099 89.84225 163.41185 89.94336 163.4727 90.0445 163.53356 90.14561 163.59442 90.24672 163.65528 90.34784 163.71614 90.44891 163.77701 90.55005 163.83786 90.65117 163.89873 90.75227 163.95958 90.8534 164.02043 90.95451 164.0813 91.05563 164.14215 91.15675 164.203 91.25786 164.26387 91.359 164.32472 91.46007 164.3856 91.56119 164.44646 91.66231 164.50731 91.76343 164.56818 91.86455 164.62903 91.96565 164.68988 92.06677 164.75075 92.1679 164.8116 92.26901 164.87247 92.37013 164.93332 92.4712 164.99417 92.57233 165.05506 92.67346 165.1159 92.77457 165.17676 92.87569 165.23763 92.97679 165.29848 93.07793 165.35935 93.17905 165.4202 93.28015 165.48105 93.38127 165.54192 93.48236 165.60277 93.58348 165.66364 93.6846 165.7245 93.7857 165.78536 93.88684 165.84622 93.98796 165.90708 94.08907 165.96793 94.19019 166.0288 94.29129 166.08965 94.39243 166.1505 94.4935 166.21137 94.59462 166.27222 94.69574 166.33309 94.79686 166.39395 94.89798 166.4548 94.9991 166.51567 95.1002 166.57653 95.20134 166.63738 95.30244 166.69824 95.40353 166.7591 95.50465 166.81995 95.60577 166.88082 95.7069 166.94168 95.808 167.00255 95.90912 167.0634 96.01024 167.12425 96.11136 167.18512 96.21248 167.24597 96.31358 167.30683 96.4147 167.36769 96.51581 167.42855 96.61691 167.48941 96.71803 167.55027 96.81914 167.61113 96.92027 167.672 97.0214 167.73285 97.1225 167.7937 97.22362 167.85457 97.32474 167.91542 97.42586 167.97629 97.52695 168.03714 97.62805 168.09799 97.72917 168.15886 97.83029 168.21971 97.93141 168.28058 98.03253 168.34145 98.13364 168.4023 98.23477 168.46315 98.33588 168.52402 98.437 168.58487 98.53809 168.64574 98.6392 168.70659 98.74033 168.76744 98.84143 168.82831 98.94255 168.88918 99.04369 168.95003 99.14479 169.0109 99.24591 169.07175 99.34702 169.13262 99.44814 169.19347 99.54924 169.25432 99.65034 169.31519 99.75146 169.37604 99.85257 169.43689 99.9537 169.49776 100.05482 169.55863 100.15593 169.61949 100.25705 169.68035 100.35817 169.7412 100.45926 169.80207 100.56038 169.86292 100.66148 169.92377 100.76262 169.98464 100.86372"/>
<path transform="matrix(1.00003,0,0,-1.00006,2.0964967,163.19083)" d="M169.98548 100.86511" fill="#ffffff"/>
<path transform="matrix(1.00003,0,0,-1.00006,2.0964967,163.19083)" stroke-width=".99628" stroke-linecap="butt" stroke-miterlimit="10" stroke-linejoin="miter" fill="none" stroke="#1414cc" d="M169.98548 100.86511"/>
</g>
<path transform="matrix(1.00003,0,0,-1.00006,2.0964967,163.19083)" d="M14.13437 151.29769C14.13437 152.39815 13.24228 153.29024 12.14182 153.29024 11.04134 153.29024 10.14926 152.39815 10.14926 151.29769 10.14926 150.1972 11.04134 149.30513 12.14182 149.30513 13.24228 149.30513 14.13437 150.1972 14.13437 151.29769ZM12.14182 151.29769" fill="#1414cc"/>
<path transform="matrix(1.00003,0,0,-1.00006,2.0964967,163.19083)" stroke-width="1.99255" stroke-linecap="butt" stroke-miterlimit="10" stroke-linejoin="miter" fill="none" stroke="#1414cc" d="M14.13437 151.29769C14.13437 152.39815 13.24228 153.29024 12.14182 153.29024 11.04134 153.29024 10.14926 152.39815 10.14926 151.29769 10.14926 150.1972 11.04134 149.30513 12.14182 149.30513 13.24228 149.30513 14.13437 150.1972 14.13437 151.29769ZM12.14182 151.29769"/>
<path transform="matrix(1.00003,0,0,-1.00006,2.0964967,163.19083)" stroke-width="1.99255" stroke-linecap="butt" stroke-miterlimit="10" stroke-linejoin="miter" fill="none" stroke="#1414cc" d=""/>
<path transform="matrix(1.00003,0,0,-1.00006,2.0964967,163.19083)" d="M171.97803 100.86511C171.97803 101.96559 171.08596 102.85767 169.98548 102.85767 168.88501 102.85767 167.99292 101.96559 167.99292 100.86511 167.99292 99.76465 168.88501 98.87256 169.98548 98.87256 171.08596 98.87256 171.97803 99.76465 171.97803 100.86511ZM169.98548 100.86511" fill="#ffffff"/>
<path transform="matrix(1.00003,0,0,-1.00006,2.0964967,163.19083)" stroke-width=".99628" stroke-linecap="butt" stroke-miterlimit="10" stroke-linejoin="miter" fill="none" stroke="#1414cc" d="M171.97803 100.86511C171.97803 101.96559 171.08596 102.85767 169.98548 102.85767 168.88501 102.85767 167.99292 101.96559 167.99292 100.86511 167.99292 99.76465 168.88501 98.87256 169.98548 98.87256 171.08596 98.87256 171.97803 99.76465 171.97803 100.86511ZM169.98548 100.86511"/>
<path transform="matrix(1.00003,0,0,-1.00006,2.0964967,163.19083)" d="" fill="#ffffff"/>
<path transform="matrix(1.00003,0,0,-1.00006,2.0964967,163.19083)" stroke-width=".99628" stroke-linecap="butt" stroke-miterlimit="10" stroke-linejoin="miter" fill="none" stroke="#1414cc" d=""/>
<use data-text="t" xlink:href="#font_4_1" transform="matrix(9.962899,0,0,-9.963197,189.28813,78.95978)"/>
<use data-text="y" xlink:href="#font_4_2" transform="matrix(9.962899,0,0,-9.963197,102.77552,9.583603)"/>
</svg>
