<svg xmlns="http://www.w3.org/2000/svg" xmlns:xlink="http://www.w3.org/1999/xlink" xmlns:inkscape="http://www.inkscape.org/namespaces/inkscape" version="1.1" width="198" height="165" viewBox="0 0 198 165">
<defs>
<path id="font_1_1" d="M.6589966 .23046875C.6759949 .23046875 .69400027 .23046875 .69400027 .25045777 .69400027 .27046205 .6759949 .27046205 .6589966 .27046205H.117996219C.100997928 .27046205 .08299255 .27046205 .08299255 .25045777 .08299255 .23046875 .100997928 .23046875 .117996219 .23046875H.6589966Z"/>
<path id="font_2_3" d="M.13198853 .327713V.35173036C.13198853 .6047821 .2559967 .64100649 .30699159 .64100649 .33099366 .64100649 .37298585 .634964 .394989 .6007538 .37998963 .6007538 .33999635 .6007538 .33999635 .5557556 .33999635 .524765 .3639984 .5097656 .38598634 .5097656 .4019928 .5097656 .43199159 .51875308 .43199159 .5577545 .43199159 .6178589 .3880005 .6660156 .30499269 .6660156 .1769867 .6660156 .041992189 .5367584 .041992189 .31570436 .041992189 .048553468 .1579895-.022460938 .25099183-.022460938 .3619995-.022460938 .45700074 .07156372 .45700074 .2036438 .45700074 .33070375 .36799623 .4267578 .25698854 .4267578 .18899536 .4267578 .1519928 .37573243 .13198853 .327713M.25099183 .0055389406C.18798828 .0055389406 .1579895 .06556702 .1519928 .080566409 .13398743 .127594 .13398743 .2076416 .13398743 .22564698 .13398743 .30369569 .1659851 .40374757 .2559967 .40374757 .27198792 .40374757 .31799317 .40374757 .34899903 .34172059 .36698915 .30470277 .36698915 .2536621 .36698915 .20463562 .36698915 .15661621 .36698915 .10658264 .34999085 .0705719 .31999208 .010528564 .27398683 .0055389406 .25099183 .0055389406Z"/>
<path id="font_2_2" d="M.2939911 .16503906V.07800293C.2939911 .041992189 .2919922 .0309906 .21798706 .0309906H.19699097V0C.23799134 .0029907227 .2899933 .0029907227 .33198548 .0029907227 .37399293 .0029907227 .4269867 .0029907227 .46798707 0V.0309906H.44699098C.37298585 .0309906 .37098695 .041992189 .37098695 .07800293V.16503906H.47099305V.19602967H.37098695V.65075686C.37098695 .67074587 .37098695 .6767578 .35499574 .6767578 .34599305 .6767578 .34298707 .6767578 .33499146 .66474917L.027999878 .19602967V.16503906H.2939911M.2999878 .19602967H.055999757L.2999878 .5688019V.19602967Z"/>
<path id="font_2_1" d="M.1269989 .07699585 .23298645 .18003845C.3889923 .31811524 .44898988 .3721466 .44898988 .47216798 .44898988 .5860901 .35899354 .6660156 .23699951 .6660156 .12399292 .6660156 .049987794 .57411196 .049987794 .48516847 .049987794 .4291687 .099990848 .4291687 .102996829 .4291687 .11999512 .4291687 .15499878 .44117738 .15499878 .48217774 .15499878 .5081787 .13699341 .5341797 .101989749 .5341797 .09399414 .5341797 .09199524 .5341797 .08898926 .5331726 .11199951 .59806826 .1659851 .63500979 .22399903 .63500979 .31498719 .63500979 .35798646 .5541382 .35798646 .47216798 .35798646 .39215089 .30799867 .31311036 .25299073 .25108338L.06098938 .036987306C.049987794 .025985718 .049987794 .023986817 .049987794 0H.42099L.44898988 .17404175H.42399598C.4189911 .14402771 .4119873 .1000061 .4019928 .084991458 .394989 .07699585 .32899476 .07699585 .30699159 .07699585H.1269989Z"/>
<clipPath id="clip_3">
<path transform="matrix(1.00003,0,0,-1.00006,2.0964967,163.19083)" d="M0 .00015H194.26912V161.38437H0Z"/>
</clipPath>
<path id="font_4_1" d="M.33399964 .30233766C.33999635 .32835389 .36299134 .42037965 .43299867 .42037965 .43798829 .42037965 .46199037 .42037965 .48298646 .40734864 .45498658 .402359 .43499757 .37734986 .43499757 .35334779 .43499757 .33735658 .44599916 .31835938 .47299195 .31835938 .49499513 .31835938 .5269928 .3363495 .5269928 .37635804 .5269928 .42837525 .46798707 .4423828 .43399049 .4423828 .37599183 .4423828 .34098817 .38935853 .32899476 .36634828 .3039856 .43237306 .25 .4423828 .22099304 .4423828 .116989139 .4423828 .05999756 .3133545 .05999756 .28834535 .05999756 .27833558 .069992069 .27833558 .07199097 .27833558 .07998657 .27833558 .08299255 .28033448 .084991458 .28933717 .11898804 .39535523 .18499756 .42037965 .21899414 .42037965 .23799134 .42037965 .272995 .4113617 .272995 .35334779 .272995 .32235719 .2559967 .25532533 .21899414 .11528015 .20298767 .053268434 .16799927 .011245728 .12399292 .011245728 .117996219 .011245728 .09498596 .011245728 .07398987 .024276734 .09899902 .029266358 .12098694 .05027771 .12098694 .07827759 .12098694 .105270389 .09899902 .11328125 .083999637 .11328125 .053985597 .11328125 .0289917 .08728027 .0289917 .055267335 .0289917 .009246826 .07899475-.0107421879 .12298584-.0107421879 .18899536-.0107421879 .22499085 .059280397 .22799683 .0652771 .23999024 .028274537 .27598573-.0107421879 .33599855-.0107421879 .43899537-.0107421879 .49598695 .118270877 .49598695 .14328003 .49598695 .1532898 .4869995 .1532898 .48399354 .1532898 .47499085 .1532898 .47299195 .14929199 .47099305 .14228821 .43798829 .03527832 .36999513 .011245728 .33799745 .011245728 .29899598 .011245728 .2829895 .043273927 .2829895 .07727051 .2829895 .09927368 .2889862 .121276859 .2999878 .16529846L.33399964 .30233766Z"/>
<path id="font_4_2" d="M.48599244 .38136292C.48999024 .39537049 .48999024 .39736939 .48999024 .40437318 .48999024 .42237855 .47599793 .43138124 .46099855 .43138124 .45098878 .43138124 .43499757 .42536927 .42599488 .41036988 .42399598 .405365 .41600038 .37435914 .4119873 .35635377 .40499879 .33035279 .397995 .30334474 .3919983 .27633668L.34700013 .09628296C.34298707 .08126831 .2999878 .011245728 .23399353 .011245728 .18299866 .011245728 .17199707 .055267335 .17199707 .0922699 .17199707 .1382904 .18899536 .20030213 .22299195 .28833009 .23899842 .3293457 .24299622 .3403473 .24299622 .36035157 .24299622 .405365 .21099854 .4423828 .16099549 .4423828 .06599426 .4423828 .0289917 .29733277 .0289917 .28833009 .0289917 .27833558 .038986207 .27833558 .040985109 .27833558 .050994874 .27833558 .051986696 .28033448 .056991579 .29634095 .083999637 .3903656 .12399292 .42037965 .1579895 .42037965 .1659851 .42037965 .18299866 .42037965 .18299866 .3883667 .18299866 .36335755 .17298889 .3373413 .1659851 .31834413 .12599182 .21231079 .10798645 .1552887 .10798645 .10827637 .10798645 .019256592 .17098999-.0107421879 .22999573-.0107421879 .2689972-.0107421879 .30299378 .0062561037 .33099366 .03425598 .31799317-.017745972 .30599977-.06674194 .2659912-.11973572 .23999024-.15385437 .20199585-.18309021 .1559906-.18309021 .14199829-.18309021 .09700012-.18005371 .07998657-.14074707 .09599304-.14074707 .10899353-.14074707 .12298584-.1287384 .1329956-.11973572 .14299011-.10673523 .14299011-.08773804 .14299011-.056747438 .115997318-.052734376 .10598755-.052734376 .08299255-.052734376 .049987794-.068740848 .049987794-.11773682 .049987794-.16796875 .09399414-.20507813 .1559906-.20507813 .25898744-.20507813 .3619995-.11373901 .3899994-.00074768069L.48599244 .38136292Z"/>
</defs>
<path transform="matrix(1.00003,0,0,-1.00006,2.0964967,163.19083)" stroke-width=".3985" stroke-linecap="butt" stroke-miterlimit="10" stroke-linejoin="miter" fill="none" stroke="#404040" d="M0 .00015H194.26912V161.38437H0Z"/>
<path transform="matrix(1.00003,0,0,-1.00006,2.0964967,163.19083)" stroke-width=".3985" stroke-linecap="butt" stroke-miterlimit="10" stroke-linejoin="miter" fill="none" stroke="#bfbfbf" d="M12.14182 .00015V161.38437M36.42545 .00015V161.38437M60.70909 .00015V161.38437M84.99274 .00015V161.38437M109.27637 .00015V161.38437M133.56002 .00015V161.38437M157.84366 .00015V161.38437M182.12729 .00015V161.38437"/>
<path transform="matrix(1.00003,0,0,-1.00006,2.0964967,163.19083)" stroke-width=".3985" stroke-linecap="butt" stroke-miterlimit="10" stroke-linejoin="miter" fill="none" stroke="#bfbfbf" d="M24.28363 .00015V161.38437M48.56728 .00015V161.38437M72.8509 .00015V161.38437M121.4182 .00015V161.38437M145.70183 .00015V161.38437M169.98548 .00015V161.38437"/>
<path transform="matrix(1.00003,0,0,-1.00006,2.0964967,163.19083)" stroke-width=".3985" stroke-linecap="butt" stroke-miterlimit="10" stroke-linejoin="miter" fill="none" stroke="#bfbfbf" d="M0 10.08667H194.26912M0 30.2597H194.26912M0 50.43272H194.26912M0 70.60574H194.26912M0 90.77878H194.26912M0 110.9518H194.26912M0 131.12482H194.26912M0 151.29785H194.26912"/>
<path transform="matrix(1.00003,0,0,-1.00006,2.0964967,163.19083)" stroke-width=".3985" stroke-linecap="butt" stroke-miterlimit="10" stroke-linejoin="miter" fill="none" stroke="#bfbfbf" d="M0 20.17319H194.26912M0 40.3462H194.26912M0 60.51924H194.26912M0 100.86528H194.26912M0 121.03831H194.26912M0 141.21134H194.26912"/>
<path transform="matrix(1.00003,0,0,-1.00006,2.0964967,163.19083)" stroke-width=".19925" stroke-linecap="butt" stroke-miterlimit="10" stroke-linejoin="miter" fill="none" stroke="#7f807f" d="M12.14182 79.2748V82.10976M36.42545 79.2748V82.10976M60.70909 79.2748V82.10976M84.99274 79.2748V82.10976M109.27637 79.2748V82.10976M133.56002 79.2748V82.10976M157.84366 79.2748V82.10976M182.12729 79.2748V82.10976"/>
<path transform="matrix(1.00003,0,0,-1.00006,2.0964967,163.19083)" stroke-width=".19925" stroke-linecap="butt" stroke-miterlimit="10" stroke-linejoin="miter" fill="none" stroke="#7f807f" d="M24.28363 78.56627V82.81827M48.56728 78.56627V82.81827M72.8509 78.56627V82.81827M121.4182 78.56627V82.81827M145.70183 78.56627V82.81827M169.98548 78.56627V82.81827"/>
<path transform="matrix(1.00003,0,0,-1.00006,2.0964967,163.19083)" stroke-width=".19925" stroke-linecap="butt" stroke-miterlimit="10" stroke-linejoin="miter" fill="none" stroke="#7f807f" d="M95.7171 10.08667H98.552M95.7171 30.2597H98.552M95.7171 50.43272H98.552M95.7171 70.60574H98.552M95.7171 90.77878H98.552M95.7171 110.9518H98.552M95.7171 131.12482H98.552M95.7171 151.29785H98.552"/>
<path transform="matrix(1.00003,0,0,-1.00006,2.0964967,163.19083)" stroke-width=".19925" stroke-linecap="butt" stroke-miterlimit="10" stroke-linejoin="miter" fill="none" stroke="#7f807f" d="M95.0086 20.17319H99.26048M95.0086 40.3462H99.26048M95.0086 60.51924H99.26048M95.0086 100.86528H99.26048M95.0086 121.03831H99.26048M95.0086 141.21134H99.26048"/>
<path transform="matrix(1.00003,0,0,-1.00006,2.0964967,163.19083)" stroke-width=".3985" stroke-linecap="butt" stroke-miterlimit="10" stroke-linejoin="miter" fill="none" stroke="#000000" d="M0 80.69226H192.2766"/>
<path transform="matrix(1.00003,0,0,-1.00006,194.37888,82.49373)" d="M1.99252 0-1.19551 1.59401 0 0-1.19551-1.59401"/>
<path transform="matrix(1.00003,0,0,-1.00006,2.0964967,163.19083)" stroke-width=".3985" stroke-linecap="butt" stroke-miterlimit="10" stroke-linejoin="miter" fill="none" stroke="#000000" d="M97.13455 .00015V159.39185"/>
<path transform="matrix(0,-1.00006,-1.00003,-0,99.23396,3.7894288)" d="M1.99252 0-1.19551 1.59401 0 0-1.19551-1.59401"/>
<use data-text="&#x2212;" xlink:href="#font_1_1" transform="matrix(9.962899,0,0,-9.963197,20.016037,94.560718)"/>
<use data-text="6" xlink:href="#font_2_3" transform="matrix(9.962899,0,0,-9.963197,27.765267,94.560718)"/>
<use data-text="&#x2212;" xlink:href="#font_1_1" transform="matrix(9.962899,0,0,-9.963197,44.299764,94.560718)"/>
<use data-text="4" xlink:href="#font_2_2" transform="matrix(9.962899,0,0,-9.963197,52.048994,94.560718)"/>
<use data-text="&#x2212;" xlink:href="#font_1_1" transform="matrix(9.962899,0,0,-9.963197,68.584499,94.560718)"/>
<use data-text="2" xlink:href="#font_2_1" transform="matrix(9.962899,0,0,-9.963197,76.333728,94.560718)"/>
<use data-text="2" xlink:href="#font_2_1" transform="matrix(9.962899,0,0,-9.963197,121.02707,94.560718)"/>
<use data-text="4" xlink:href="#font_2_2" transform="matrix(9.962899,0,0,-9.963197,145.3118,94.560718)"/>
<use data-text="6" xlink:href="#font_2_3" transform="matrix(9.962899,0,0,-9.963197,169.59653,94.560718)"/>
<use data-text="&#x2212;" xlink:href="#font_1_1" transform="matrix(9.962899,0,0,-9.963197,80.857868,145.81179)"/>
<use data-text="6" xlink:href="#font_2_3" transform="matrix(9.962899,0,0,-9.963197,88.60709,145.81179)"/>
<use data-text="&#x2212;" xlink:href="#font_1_1" transform="matrix(9.962899,0,0,-9.963197,80.857868,125.63757)"/>
<use data-text="4" xlink:href="#font_2_2" transform="matrix(9.962899,0,0,-9.963197,88.60709,125.63757)"/>
<use data-text="&#x2212;" xlink:href="#font_1_1" transform="matrix(9.962899,0,0,-9.963197,80.857868,105.46336)"/>
<use data-text="2" xlink:href="#font_2_1" transform="matrix(9.962899,0,0,-9.963197,88.60709,105.46336)"/>
<use data-text="2" xlink:href="#font_2_1" transform="matrix(9.962899,0,0,-9.963197,88.6061,65.52997)"/>
<use data-text="4" xlink:href="#font_2_2" transform="matrix(9.962899,0,0,-9.963197,88.6061,45.35576)"/>
<use data-text="6" xlink:href="#font_2_3" transform="matrix(9.962899,0,0,-9.963197,88.6061,25.18155)"/>
<g clip-path="url(#clip_3)">
<path transform="matrix(1.00003,0,0,-1.00006,2.0964967,163.19083)" stroke-width="1.49442" stroke-linecap="butt" stroke-miterlimit="10" stroke-linejoin="miter" fill="none" stroke="#1414cc" d="M1.00006 57.71129 .15213 57.24167 .30429 57.32594 .45645 57.41019 .60858 57.49446 .76074 57.57872 .9129 57.663 1.06506 57.74727 1.2172 57.83153 1.36935 57.91577 1.52151 58.00005 1.67368 58.08432 1.8258 58.16856 1.97797 58.25284 2.13013 58.3371 2.28229 58.42136 2.43442 58.50563 2.58658 58.58989 2.73874 58.67416 2.89087 58.75842 3.04303 58.84268 3.19519 58.92696 3.34735 59.01122 3.49948 59.09547 3.65164 59.17975 3.8038 59.26399 3.95596 59.34827 4.1081 59.43254 4.26025 59.51678 4.41241 59.60104 4.56458 59.68532 4.7167 59.76959 4.86887 59.85385 5.02103 59.93811 5.17317 60.02237 5.32532 60.10664 5.47748 60.1909 5.62964 60.27516 5.78177 60.35944 5.93393 60.4437 6.08609 60.52795 6.23825 60.61221 6.39038 60.69649 6.54254 60.78075 6.6947 60.86502 6.84686 60.94926 6.999 61.03354 7.15115 61.11781 7.30331 61.20206 7.45546 61.28633 7.6076 61.37059 7.75977 61.45485 7.91193 61.53912 8.06407 61.62338 8.21622 61.70766 8.36838 61.79192 8.52054 61.87617 8.67267 61.96045 8.82483 62.04471 8.97699 62.12897 9.12915 62.21324 9.28128 62.29749 9.43344 62.38176 9.5856 62.46603 9.73775 62.5503 9.8899 62.63455 10.04205 62.71881 10.19421 62.80309 10.34636 62.88734 10.4985 62.97162 10.65067 63.05586 10.80283 63.14014 10.95496 63.2244 11.10712 63.30865 11.25928 63.39293 11.41144 63.47719 11.56357 63.56146 11.71573 63.64572 11.86789 63.72998 12.02003 63.81425 12.17218 63.89851 12.32434 63.98276 12.4765 64.06705 12.62865 64.1513 12.78079 64.23555 12.93295 64.31982 13.08511 64.40408 13.23726 64.48836 13.3894 64.57262 13.54156 64.65689 13.69373 64.74115 13.84586 64.82541 13.99802 64.90967 14.15018 64.99394 14.30232 65.0782 14.45447 65.16246 14.60663 65.24673 14.75879 65.331 14.91093 65.41527 15.06308 65.49953 15.21524 65.58379 15.3674 65.66805 15.51955 65.75232 15.67169 65.83658 15.82385 65.92084 15.97601 66.00511 16.12816 66.08936 16.2803 66.17363 16.43246 66.25789 16.58461 66.34218 16.73676 66.42642 16.88892 66.51068 17.04108 66.59496 17.19322 66.67921 17.34537 66.76347 17.49753 66.84775 17.64969 66.932 17.80183 67.01625 17.95398 67.10054 18.10614 67.1848 18.2583 67.26907 18.41045 67.35333 18.56259 67.43758 18.71475 67.52185 18.8669 67.60611 19.01906 67.69037 19.1712 67.77464 19.32336 67.8589 19.47551 67.94316 19.62766 68.02744 19.77982 68.1117 19.93198 68.19595 20.08412 68.28023 20.23627 68.36449 20.38843 68.44876 20.54059 68.53302 20.69273 68.61728 20.84488 68.70154 20.99704 68.78581 21.14919 68.87007 21.30135 68.95435 21.45349 69.0386 21.60565 69.12285 21.7578 69.20712 21.90994 69.29138 22.0621 69.37567 22.21426 69.45992 22.36641 69.54417 22.51855 69.62845 22.67072 69.7127 22.82288 69.79697 22.97502 69.88124 23.12717 69.9655 23.27933 70.04976 23.43147 70.13403 23.58363 70.21829 23.73578 70.30257 23.88794 70.38681 24.04008 70.47108 24.19225 70.55534 24.34439 70.6396 24.49655 70.72388 24.6487 70.80814 24.80084 70.8924 24.953 70.97665 25.10516 71.06094 25.25731 71.14519 25.40945 71.22946 25.56161 71.31372 25.71378 71.39798 25.86592 71.48225 26.01807 71.56651 26.17023 71.65077 26.32237 71.73503 26.47453 71.8193 26.62668 71.90356 26.77884 71.98784 26.93098 72.0721 27.08315 72.15637 27.23529 72.24062 27.38745 72.32489 27.5396 72.40916 27.69174 72.49341 27.8439 72.57767 27.99606 72.66194 28.14821 72.74622 28.30035 72.83046 28.45251 72.91473 28.60466 72.999 28.75682 73.08327 28.90897 73.16753 29.06113 73.25179 29.21327 73.33606 29.36543 73.4203 29.51758 73.50458 29.66974 73.58884 29.82188 73.67311 29.97404 73.75737 30.12619 73.84164 30.27835 73.92589 30.4305 74.01016 30.58264 74.09444 30.7348 74.17868 30.88695 74.26297 31.03911 74.34721 31.19125 74.43147 31.34341 74.51575 31.49556 74.6 31.64772 74.68427 31.79987 74.76854 31.95203 74.8528 32.10417 74.93707 32.25633 75.02133 32.40848 75.10559 32.56064 75.18987 32.71278 75.27411 32.86493 75.35838 33.01709 75.44266 33.16924 75.52692 33.3214 75.61116 33.47354 75.69543 33.6257 75.77971 33.77785 75.86397 33.93001 75.94824 34.08215 76.03249 34.23431 76.11676 34.38646 76.20102 34.53862 76.28528 34.69077 76.36955 34.84293 76.45381 34.99507 76.53807 35.14723 76.62234 35.29938 76.7066 35.45152 76.79088 35.60368 76.87514 35.75583 76.95938 35.90799 77.04367 36.06013 77.12793 36.2123 77.21217 36.36444 77.29645 36.5166 77.3807 36.66875 77.46497 36.8209 77.54924 36.97305 77.6335 37.12521 77.71776 37.27736 77.80203 37.42952 77.88629 37.58167 77.97057 37.73381 78.05482 37.88597 78.13907 38.03813 78.22336 38.19028 78.3076 38.34242 78.39188 38.49458 78.47615 38.64673 78.56041 38.79889 78.64465 38.95103 78.72893 39.1032 78.8132 39.25534 78.89746 39.4075 78.98174 39.55965 79.06598 39.7118 79.15025 39.86395 79.23451 40.0161 79.31879 40.16826 79.40305 40.32042 79.4873 40.47256 79.57156 40.62471 79.65584 40.77687 79.7401 40.92902 79.82437 41.08118 79.90863 41.23332 79.99287 41.38548 80.07716 41.53763 80.16142 41.68979 80.24568 41.84193 80.32994 41.9941 80.4142 42.14624 80.49846 42.29839 80.58273 42.45055 80.667 42.6027 80.75127 42.75485 80.83553 42.907 80.91978 43.05916 81.00406 43.21132 81.08832 43.36346 81.17258 43.51561 81.25685 43.66777 81.34111 43.81992 81.42537 43.97208 81.50963 44.12422 81.5939 44.27638 81.67816 44.42853 81.76244 44.58067 81.8467 44.73283 81.93097 44.885 82.01523 45.03714 82.09947 45.18929 82.18375 45.34145 82.268 45.4936 82.35228 45.64575 82.43654 45.7979 82.5208 45.95006 82.60507 46.10222 82.68933 46.25436 82.77359 46.40651 82.85786 46.55867 82.94212 46.71082 83.02638 46.86296 83.11066 47.01512 83.19492 47.16728 83.27917 47.31943 83.36343 47.47157 83.44771 47.62373 83.53197 47.7759 83.61624 47.92804 83.7005 48.08018 83.78476 48.23235 83.86903 48.3845 83.95328 48.53665 84.03757 48.6888 84.12181 48.84096 84.20607 48.99312 84.29034 49.14526 84.3746 49.29741 84.45888 49.44957 84.54314 49.60172 84.6274 49.75386 84.71167 49.90602 84.79593 50.05818 84.88019 50.21033 84.96446 50.36247 85.04872 50.51463 85.13298 50.6668 85.21724 50.81894 85.3015 50.97108 85.38577 51.12325 85.47003 51.2754 85.55429 51.42755 85.63857 51.5797 85.72282 51.73186 85.80708 51.884 85.89136 52.03615 85.97562 52.18831 86.05988 52.34047 86.14415 52.49261 86.22841 52.64476 86.31268 52.79692 86.39694 52.94908 86.4812 53.10123 86.56548 53.25337 86.64973 53.40553 86.734 53.5577 86.81827 53.70984 86.90251 53.86198 86.98677 54.01414 87.07104 54.1663 87.1553 54.31844 87.23956 54.4706 87.32384 54.62276 87.4081 54.7749 87.49237 54.92705 87.57663 55.07921 87.66089 55.23137 87.74516 55.38351 87.82942 55.53566 87.91368 55.68782 87.99796 55.83998 88.08221 55.99213 88.16647 56.14427 88.25075 56.29643 88.335 56.4486 88.41927 56.60072 88.50352 56.75288 88.58778 56.90504 88.67206 57.0572 88.75632 57.20934 88.84058 57.3615 88.92485 57.51366 89.00911 57.6658 89.09337 57.81795 89.17764 57.97011 89.2619 58.12227 89.34618 58.27441 89.43044 58.42656 89.5147 58.57872 89.59897 58.73088 89.68323 58.88301 89.76749 59.03517 89.85176 59.18733 89.93602 59.3395 90.02028 59.49162 90.10455 59.64378 90.1888 59.79594 90.27307 59.94809 90.35733 60.10023 90.44159 60.2524 90.52586 60.40456 90.61012 60.5567 90.69438 60.70885 90.77866"/>
<path transform="matrix(-.8747963,.48452906,.48451454,.87482246,3.0965868,105.47607)" stroke-width="1.19553" stroke-linecap="round" stroke-linejoin="round" fill="none" stroke="#1414cc" d="M-2.18182 2.9091C-2 1.81818 0 .18181 .54544 0 0-.18181-2-1.81818-2.18182-2.9091"/>
<path transform="matrix(1.00003,0,0,-1.00006,2.0964967,163.19083)" d="M60.70909 90.77878" fill="#1414cc"/>
<path transform="matrix(1.00003,0,0,-1.00006,2.0964967,163.19083)" stroke-width=".99628" stroke-linecap="butt" stroke-miterlimit="10" stroke-linejoin="miter" fill="none" stroke="#1414cc" d="M60.70909 90.77878"/>
<path transform="matrix(1.00003,0,0,-1.00006,2.0964967,163.19083)" d="M60.70909 40.3462" fill="#ffffff"/>
<path transform="matrix(1.00003,0,0,-1.00006,2.0964967,163.19083)" stroke-width=".99628" stroke-linecap="butt" stroke-miterlimit="10" stroke-linejoin="miter" fill="none" stroke="#1414cc" d="M60.70909 40.3462"/>
<path transform="matrix(1.00003,0,0,-1.00006,2.0964967,163.19083)" stroke-width="1.49442" stroke-linecap="butt" stroke-miterlimit="10" stroke-linejoin="miter" fill="none" stroke="#1414cc" d="M60.70909 40.3462H60.8308 60.95253 61.07425 61.19597 61.31769 61.4394 61.56113 61.68285 61.80457 61.92628 62.048 62.16972 62.29146 62.41318 62.53488 62.6566 62.77832 62.90005 63.02177 63.1435 63.26521 63.38693 63.50864 63.63037 63.75209 63.87381 63.99553 64.11725 64.23898 64.36069 64.4824 64.60413 64.72585 64.84758 64.9693 65.09102 65.21274 65.33444 65.45618 65.5779 65.69962 65.82133 65.94305 66.06477 66.1865 66.30821 66.42993 66.55165 66.67337 66.7951 66.91682 67.03853 67.16025 67.28197 67.4037 67.52542 67.64714 67.76886 67.89058 68.01228 68.13402 68.25574 68.37746 68.49918 68.6209 68.74263 68.86433 68.98605 69.10777 69.22949 69.35123 69.47295 69.59467 69.71638 69.83809 69.95982 70.08154 70.20326 70.32498 70.4467 70.56842 70.69014 70.81186 70.93358 71.0553 71.17702 71.29875 71.42047 71.54218 71.6639 71.78561 71.90735 72.02907 72.15079 72.2725 72.39423 72.51593 72.63766 72.75938 72.8811 73.00282 73.12454 73.24628 73.36798 73.4897 73.61142 73.73314 73.85487 73.9766 74.09831 74.22003 74.34174 74.46347 74.58519 74.70691 74.82863 74.95035 75.07207 75.19379 75.3155 75.43723 75.55894 75.68066 75.8024 75.92412 76.04584 76.16754 76.28926 76.411 76.53271 76.65443 76.77615 76.89787 77.01958 77.14131 77.26303 77.38475 77.50647 77.62819 77.74992 77.87163 77.99335 78.11507 78.23679 78.35852 78.48024 78.60196 78.72368 78.84538 78.96712 79.08884 79.21056 79.33228 79.454 79.57571 79.69743 79.81915 79.94087 80.06259 80.18431 80.30605 80.42776 80.54948 80.67119 80.79291 80.91464 81.03636 81.15808 81.2798 81.40152 81.52322 81.64496 81.76668 81.8884 82.01012 82.13184 82.25357 82.37527 82.497 82.61871 82.74043 82.86217 82.98389 83.1056 83.22733 83.34903 83.47076 83.59248 83.7142 83.83592 83.95764 84.07936 84.20108 84.3228 84.44452 84.56624 84.68796 84.8097 84.93141 85.05313 85.17484 85.29655 85.41829 85.54001 85.66173 85.78345 85.90517 86.02689 86.1486 86.27032 86.39204 86.51376 86.63548 86.75722 86.87894 87.00066 87.12236 87.24408 87.36581 87.48753 87.60925 87.73097 87.85269 87.97443 88.09615 88.21785 88.33957 88.46129 88.58301 88.70474 88.82646 88.94818 89.0699 89.1916 89.31334 89.43506 89.55678 89.6785 89.80022 89.92195 90.04366 90.16537 90.2871 90.40881 90.53053 90.65227 90.77399 90.8957 91.01743 91.13913 91.26086 91.38258 91.5043 91.62602 91.74774 91.86948 91.9912 92.1129 92.23462 92.35634 92.47807 92.5998 92.72151 92.84323 92.96495 93.08665 93.20839 93.33011 93.45183 93.57355 93.69527 93.817 93.93872 94.06044 94.18214 94.30386 94.4256 94.54732 94.66904 94.79076 94.91248 95.0342 95.15591 95.27763 95.39935 95.52107 95.64279 95.76453 95.88625 96.00795 96.12967 96.25139 96.37312 96.49484 96.61656 96.73828 96.86 96.98174 97.10345 97.22516 97.34688 97.4686 97.59032 97.71205 97.83377 97.95549 98.07721 98.19891 98.32065 98.44237 98.56409 98.6858 98.80753 98.92926 99.05098 99.17268 99.2944 99.41612 99.53786 99.65958 99.7813 99.90302 100.02473 100.14645 100.26817 100.3899 100.51161 100.63333 100.75505 100.87679 100.9985 101.12022 101.24193 101.36365 101.48538 101.6071 101.72882 101.85054 101.97226 102.09398 102.2157 102.33742 102.45914 102.58086 102.70258 102.82431 102.94603 103.06775 103.18947 103.31117 103.4329 103.55463 103.67635 103.79807 103.91978 104.0415 104.16322 104.28494 104.40666 104.52838 104.6501 104.77184 104.89355 105.01527 105.13698 105.2587 105.38043 105.50215 105.62387 105.74559 105.86731 105.98904 106.11076 106.23247 106.35419 106.4759 106.59763 106.71936 106.84108 106.9628 107.08452 107.20622 107.32796 107.44968 107.5714 107.69312 107.81483 107.93657 108.05829 108.18 108.30171 108.42343 108.54517 108.66689 108.7886 108.91032 109.03204 109.15376 109.27548"/>
<path transform="matrix(1.00003,0,0,-1.00006,2.0964967,163.19083)" d="M109.27637 40.3462" fill="#ffffff"/>
<path transform="matrix(1.00003,0,0,-1.00006,2.0964967,163.19083)" stroke-width=".99628" stroke-linecap="butt" stroke-miterlimit="10" stroke-linejoin="miter" fill="none" stroke="#1414cc" d="M109.27637 40.3462"/>
<path transform="matrix(1.00003,0,0,-1.00006,2.0964967,163.19083)" d="M121.4182 110.9518" fill="#1414cc"/>
<path transform="matrix(1.00003,0,0,-1.00006,2.0964967,163.19083)" stroke-width=".99628" stroke-linecap="butt" stroke-miterlimit="10" stroke-linejoin="miter" fill="none" stroke="#1414cc" d="M121.4182 110.9518"/>
<path transform="matrix(1.00003,0,0,-1.00006,2.0964967,163.19083)" stroke-width="1.49442" stroke-linecap="butt" stroke-miterlimit="10" stroke-linejoin="miter" fill="none" stroke="#1414cc" d="M121.4182 110.9518 121.58556 110.67372 121.75293 110.39565 121.9203 110.11757 122.08766 109.83951 122.25504 109.56143 122.42241 109.28336 122.58977 109.00528 122.75714 108.7272 122.92451 108.44913 123.09187 108.17105 123.25925 107.89297 123.42662 107.6149 123.59398 107.33682 123.76135 107.05876 123.92873 106.78069 124.09608 106.50261 124.26346 106.22453 124.43083 105.94646 124.59819 105.66838 124.76556 105.3903 124.93294 105.11223 125.1003 104.83415 125.26767 104.55608 125.43504 104.27802 125.6024 103.99994 125.76978 103.72186 125.93715 103.44379 126.1045 103.16571 126.27188 102.88763 126.43925 102.60956 126.60661 102.33148 126.77399 102.0534 126.94136 101.77534 127.10872 101.49727 127.2761 101.2192 127.44347 100.94112 127.61082 100.66304 127.7782 100.38496 127.94557 100.10689 128.11293 99.82881 128.2803 99.55074 128.44768 99.27266 128.61504 98.9946 128.78241 98.71652 128.94979 98.43845 129.11714 98.16037 129.28452 97.8823 129.45189 97.60422 129.61925 97.32614 129.78662 97.04807 129.954 96.76999 130.12136 96.49191 130.28873 96.21385 130.4561 95.93578 130.62346 95.6577 130.79084 95.37962 130.9582 95.10155 131.12557 94.82347 131.29294 94.5454 131.46031 94.26732 131.62767 93.98924 131.79505 93.71118 131.96242 93.4331 132.12978 93.15503 132.29715 92.87695 132.46453 92.59888 132.63188 92.3208 132.79926 92.04272 132.96663 91.76465 133.13399 91.48657 133.30136 91.2085 133.46874 90.93044 133.6361 90.65236 133.80347 90.37428 133.97084 90.0962 134.1382 89.81812 134.30558 89.54004 134.47295 89.26198 134.6403 88.9839 134.80768 88.70583 134.97507 88.42773 135.14243 88.14967 135.3098 87.87161 135.47718 87.59354 135.64453 87.31544 135.8119 87.03737 135.97928 86.7593 136.14664 86.48123 136.31401 86.20316 136.48139 85.92506 136.64875 85.647 136.81612 85.36893 136.98349 85.09087 137.15085 84.81279 137.31822 84.5347 137.4856 84.25662 137.65296 83.97855 137.82033 83.70049 137.9877 83.42241 138.15506 83.14432 138.32244 82.86626 138.4898 82.58817 138.65717 82.31012 138.82454 82.03204 138.99192 81.75395 139.15927 81.47588 139.32665 81.19778 139.49402 80.91974 139.66138 80.64166 139.82875 80.36359 139.99613 80.08551 140.16349 79.80742 140.33086 79.52937 140.49823 79.2513 140.66559 78.9732 140.83296 78.69513 141.00034 78.41704 141.1677 78.13899 141.33507 77.8609 141.50244 77.58284 141.6698 77.30476 141.83718 77.02667 142.00455 76.74863 142.1719 76.47054 142.33928 76.19246 142.50666 75.91438 142.67401 75.63629 142.84139 75.35825 143.00876 75.08015 143.17612 74.8021 143.34349 74.52402 143.51087 74.24593 143.67823 73.96788 143.8456 73.68979 144.01297 73.41171 144.18033 73.13362 144.3477 72.85555 144.51508 72.5775 144.68244 72.29942 144.84981 72.02135 145.01718 71.74326 145.18454 71.46518 145.35192 71.18713 145.51929 70.90904 145.68665 70.63097 145.85402 70.35287 146.0214 70.0748 146.18875 69.79675 146.35613 69.51868 146.5235 69.2406 146.69086 68.96251 146.85823 68.68443 147.0256 68.40639 147.19297 68.1283 147.36034 67.85022 147.52771 67.57213 147.69507 67.29405 147.86244 67.01599 148.02982 66.73793 148.19718 66.45985 148.36455 66.18176 148.53192 65.90369 148.69928 65.62563 148.86666 65.34755 149.03403 65.06947 149.20139 64.79138 149.36876 64.5133 149.53614 64.23526 149.70349 63.95718 149.87087 63.67911 150.03824 63.40102 150.2056 63.12294 150.37297 62.84488 150.54035 62.5668 150.7077 62.28871 150.87508 62.01064 151.04245 61.73256 151.20981 61.45451 151.37718 61.17644 151.54456 60.89835 151.71192 60.62027 151.87929 60.3422 152.04666 60.06413 152.21402 59.78606 152.3814 59.50797 152.54877 59.22989 152.71614 58.95181 152.88352 58.67377 153.05089 58.39569 153.21825 58.1176 153.38562 57.83952 153.553 57.56143 153.72035 57.28339 153.88773 57.00531 154.0551 56.72722 154.22246 56.44914 154.38983 56.17107 154.5572 55.89302 154.72457 55.61494 154.89194 55.33685 155.05931 55.05878 155.22667 54.78069 155.39405 54.50264 155.56142 54.22456 155.72878 53.94647 155.89615 53.6684 156.06352 53.39032 156.23088 53.11227 156.39826 52.83418 156.56563 52.5561 156.73299 52.27803 156.90036 51.99994 157.06774 51.7219 157.23509 51.4438 157.40247 51.16573 157.56984 50.88766 157.7372 50.60957 157.90457 50.33153 158.07195 50.05344 158.2393 49.77536 158.40668 49.49728 158.57405 49.2192 158.74141 48.94115 158.90879 48.66306 159.07616 48.38498 159.24352 48.1069 159.41089 47.82883 159.57826 47.55078 159.74562 47.27269 159.913 46.99461 160.08037 46.71652 160.24773 46.43845 160.4151 46.1604 160.58248 45.88231 160.74983 45.60423 160.9172 45.32616 161.08458 45.04808 161.25194 44.77003 161.41931 44.49194 161.58669 44.21387 161.75406 43.93578 161.92142 43.6577 162.08879 43.37964 162.25617 43.10156 162.42353 42.8235 162.5909 42.54541 162.75827 42.26733 162.92563 41.98927 163.093 41.7112 163.26038 41.43312 163.42774 41.15503 163.59511 40.87695 163.76248 40.59889 163.92984 40.32082 164.09722 40.04276 164.26459 39.76466 164.43195 39.48659 164.59932 39.20853 164.7667 38.93045 164.93405 38.65236 165.10143 38.37428 165.2688 38.0962 165.43616 37.81815 165.60353 37.54007 165.7709 37.262 165.93827 36.98392 166.10564 36.70584 166.27301 36.42778 166.44037 36.1497 166.60774 35.87161 166.77512 35.59354 166.94248 35.31546 167.10985 35.0374 167.27722 34.75934 167.44458 34.48125 167.61196 34.20317 167.77933 33.92508 167.94669 33.64703 168.11406 33.36896 168.28144 33.09087 168.44879 32.81279 168.61617 32.5347 168.78354 32.25665 168.9509 31.97859 169.11827 31.7005 169.28565 31.42242 169.453 31.14433 169.62038 30.86629 169.78775 30.58821 169.95511 30.31012 170.12248 30.03204 170.28986 29.75395 170.45723 29.4759 170.6246 29.19783 170.79198 28.91975 170.95934 28.64168 171.12671 28.36359 171.29409 28.08554 171.46144 27.80745 171.62882 27.52937 171.79619 27.2513 171.96355 26.9732 172.13092 26.69518 172.2983 26.41708 172.46566 26.139 172.63303 25.86093 172.8004 25.58284 172.96776 25.3048 173.13513 25.0267 173.3025 24.74863 173.46987 24.47054 173.63724 24.19246 173.80461 23.91443 173.97197 23.63634 174.13935 23.35826 174.30672 23.08017 174.47408 22.8021 174.64145 22.52405 174.80883 22.24596 174.97618 21.96788 175.14356 21.68979 175.31093 21.41173 175.47829 21.13368 175.64566 20.85559 175.81304 20.57751 175.9804 20.29942 176.14777 20.02135 176.31514 19.7433 176.4825 19.46521 176.64987 19.18713 176.81725 18.90904 176.9846 18.63098 177.15198 18.35292 177.31935 18.07484 177.48671 17.79677 177.65409 17.51868 177.82146 17.2406 177.98882 16.96254 178.15619 16.68446 178.32357 16.40639 178.49092 16.1283 178.6583 15.85023 178.82567 15.57217 178.99303 15.2941 179.1604 15.01602 179.32778 14.73793 179.49514 14.45985 179.6625 14.1818 179.82988 13.90372 179.99724 13.62563 180.16461 13.34756 180.33199 13.06949 180.49935 12.79143 180.66672 12.51335 180.83409 12.23526 181.00145 11.95718 181.16883 11.67911 181.3362 11.40105 181.50356 11.12297 181.67093 10.84488 181.8383 10.56682 182.00566 10.28874 182.17304 10.01068 182.34041 9.7326 182.50777 9.45451 182.67514 9.17644 182.84252 8.89836 183.00988 8.6203 183.17725 8.34222 183.34462 8.06413 183.51198 7.78607 183.67935 7.50798 183.84673 7.22993 184.01409 6.95186 184.18146 6.67377 184.34883 6.39569 184.51619 6.1176 184.68357 5.83955 184.85094 5.56146 185.0183 5.2834 185.18567 5.00533 185.35305 4.72723 185.5204 4.44919 185.68778 4.1711 185.85515 3.89302 186.0225 3.61494 186.18988 3.33685 186.35726 3.0588 186.52462 2.78072 186.69199 2.50266 186.85936 2.22456 187.02672 1.94649 187.19409 1.66844 187.36147 1.39037 187.52883 1.11227 187.6962 .83418 187.86357 .5561 188.03093 .27806 187.60875 .97946"/>
<path transform="matrix(.5157155,.8568014,.85677579,-.5157309,189.71088,162.2113)" stroke-width="1.19553" stroke-linecap="round" stroke-linejoin="round" fill="none" stroke="#1414cc" d="M-2.18182 2.9091C-2 1.81818 0 .18181 .54544 0 0-.18181-2-1.81818-2.18182-2.9091"/>
</g>
<path transform="matrix(1.00003,0,0,-1.00006,2.0964967,163.19083)" d="M62.70164 90.77878C62.70164 91.87924 61.80957 92.77133 60.70909 92.77133 59.60863 92.77133 58.71654 91.87924 58.71654 90.77878 58.71654 89.6783 59.60863 88.78622 60.70909 88.78622 61.80957 88.78622 62.70164 89.6783 62.70164 90.77878ZM60.70909 90.77878" fill="#1414cc"/>
<path transform="matrix(1.00003,0,0,-1.00006,2.0964967,163.19083)" stroke-width=".99628" stroke-linecap="butt" stroke-miterlimit="10" stroke-linejoin="miter" fill="none" stroke="#1414cc" d="M62.70164 90.77878C62.70164 91.87924 61.80957 92.77133 60.70909 92.77133 59.60863 92.77133 58.71654 91.87924 58.71654 90.77878 58.71654 89.6783 59.60863 88.78622 60.70909 88.78622 61.80957 88.78622 62.70164 89.6783 62.70164 90.77878ZM60.70909 90.77878"/>
<path transform="matrix(1.00003,0,0,-1.00006,2.0964967,163.19083)" d="" fill="#1414cc"/>
<path transform="matrix(1.00003,0,0,-1.00006,2.0964967,163.19083)" stroke-width=".99628" stroke-linecap="butt" stroke-miterlimit="10" stroke-linejoin="miter" fill="none" stroke="#1414cc" d=""/>
<path transform="matrix(1.00003,0,0,-1.00006,2.0964967,163.19083)" d="M62.70164 40.3462C62.70164 41.44669 61.80957 42.33876 60.70909 42.33876 59.60863 42.33876 58.71654 41.44669 58.71654 40.3462 58.71654 39.24574 59.60863 38.35365 60.70909 38.35365 61.80957 38.35365 62.70164 39.24574 62.70164 40.3462ZM60.70909 40.3462" fill="#ffffff"/>
<path transform="matrix(1.00003,0,0,-1.00006,2.0964967,163.19083)" stroke-width=".99628" stroke-linecap="butt" stroke-miterlimit="10" stroke-linejoin="miter" fill="none" stroke="#1414cc" d="M62.70164 40.3462C62.70164 41.44669 61.80957 42.33876 60.70909 42.33876 59.60863 42.33876 58.71654 41.44669 58.71654 40.3462 58.71654 39.24574 59.60863 38.35365 60.70909 38.35365 61.80957 38.35365 62.70164 39.24574 62.70164 40.3462ZM60.70909 40.3462"/>
<path transform="matrix(1.00003,0,0,-1.00006,2.0964967,163.19083)" d="" fill="#ffffff"/>
<path transform="matrix(1.00003,0,0,-1.00006,2.0964967,163.19083)" stroke-width=".99628" stroke-linecap="butt" stroke-miterlimit="10" stroke-linejoin="miter" fill="none" stroke="#1414cc" d=""/>
<path transform="matrix(1.00003,0,0,-1.00006,2.0964967,163.19083)" d="M111.26892 40.3462C111.26892 41.44669 110.37685 42.33876 109.27637 42.33876 108.1759 42.33876 107.28381 41.44669 107.28381 40.3462 107.28381 39.24574 108.1759 38.35365 109.27637 38.35365 110.37685 38.35365 111.26892 39.24574 111.26892 40.3462ZM109.27637 40.3462" fill="#ffffff"/>
<path transform="matrix(1.00003,0,0,-1.00006,2.0964967,163.19083)" stroke-width=".99628" stroke-linecap="butt" stroke-miterlimit="10" stroke-linejoin="miter" fill="none" stroke="#1414cc" d="M111.26892 40.3462C111.26892 41.44669 110.37685 42.33876 109.27637 42.33876 108.1759 42.33876 107.28381 41.44669 107.28381 40.3462 107.28381 39.24574 108.1759 38.35365 109.27637 38.35365 110.37685 38.35365 111.26892 39.24574 111.26892 40.3462ZM109.27637 40.3462"/>
<path transform="matrix(1.00003,0,0,-1.00006,2.0964967,163.19083)" d="" fill="#ffffff"/>
<path transform="matrix(1.00003,0,0,-1.00006,2.0964967,163.19083)" stroke-width=".99628" stroke-linecap="butt" stroke-miterlimit="10" stroke-linejoin="miter" fill="none" stroke="#1414cc" d=""/>
<path transform="matrix(1.00003,0,0,-1.00006,2.0964967,163.19083)" d="M123.41075 110.9518C123.41075 112.05228 122.51866 112.94435 121.4182 112.94435 120.31772 112.94435 119.42564 112.05228 119.42564 110.9518 119.42564 109.85133 120.31772 108.95924 121.4182 108.95924 122.51866 108.95924 123.41075 109.85133 123.41075 110.9518ZM121.4182 110.9518" fill="#1414cc"/>
<path transform="matrix(1.00003,0,0,-1.00006,2.0964967,163.19083)" stroke-width=".99628" stroke-linecap="butt" stroke-miterlimit="10" stroke-linejoin="miter" fill="none" stroke="#1414cc" d="M123.41075 110.9518C123.41075 112.05228 122.51866 112.94435 121.4182 112.94435 120.31772 112.94435 119.42564 112.05228 119.42564 110.9518 119.42564 109.85133 120.31772 108.95924 121.4182 108.95924 122.51866 108.95924 123.41075 109.85133 123.41075 110.9518ZM121.4182 110.9518"/>
<path transform="matrix(1.00003,0,0,-1.00006,2.0964967,163.19083)" d="" fill="#1414cc"/>
<path transform="matrix(1.00003,0,0,-1.00006,2.0964967,163.19083)" stroke-width=".99628" stroke-linecap="butt" stroke-miterlimit="10" stroke-linejoin="miter" fill="none" stroke="#1414cc" d=""/>
<use data-text="x" xlink:href="#font_4_1" transform="matrix(9.962899,0,0,-9.963197,187.19205,78.95978)"/>
<use data-text="y" xlink:href="#font_4_2" transform="matrix(9.962899,0,0,-9.963197,102.77552,9.583603)"/>
</svg>
