<svg xmlns="http://www.w3.org/2000/svg" xmlns:xlink="http://www.w3.org/1999/xlink" xmlns:inkscape="http://www.inkscape.org/namespaces/inkscape" version="1.1" width="198" height="165" viewBox="0 0 198 165">
<defs>
<path id="font_1_1" d="M.6589966 .23046875C.6759949 .23046875 .69400027 .23046875 .69400027 .25045777 .69400027 .27046205 .6759949 .27046205 .6589966 .27046205H.117996219C.100997928 .27046205 .08299255 .27046205 .08299255 .25045777 .08299255 .23046875 .100997928 .23046875 .117996219 .23046875H.6589966Z"/>
<path id="font_2_3" d="M.13198853 .327713V.35173036C.13198853 .6047821 .2559967 .64100649 .30699159 .64100649 .33099366 .64100649 .37298585 .634964 .394989 .6007538 .37998963 .6007538 .33999635 .6007538 .33999635 .5557556 .33999635 .524765 .3639984 .5097656 .38598634 .5097656 .4019928 .5097656 .43199159 .51875308 .43199159 .5577545 .43199159 .6178589 .3880005 .6660156 .30499269 .6660156 .1769867 .6660156 .041992189 .5367584 .041992189 .31570436 .041992189 .048553468 .1579895-.022460938 .25099183-.022460938 .3619995-.022460938 .45700074 .07156372 .45700074 .2036438 .45700074 .33070375 .36799623 .4267578 .25698854 .4267578 .18899536 .4267578 .1519928 .37573243 .13198853 .327713M.25099183 .0055389406C.18798828 .0055389406 .1579895 .06556702 .1519928 .080566409 .13398743 .127594 .13398743 .2076416 .13398743 .22564698 .13398743 .30369569 .1659851 .40374757 .2559967 .40374757 .27198792 .40374757 .31799317 .40374757 .34899903 .34172059 .36698915 .30470277 .36698915 .2536621 .36698915 .20463562 .36698915 .15661621 .36698915 .10658264 .34999085 .0705719 .31999208 .010528564 .27398683 .0055389406 .25099183 .0055389406Z"/>
<path id="font_2_2" d="M.2939911 .16503906V.07800293C.2939911 .041992189 .2919922 .0309906 .21798706 .0309906H.19699097V0C.23799134 .0029907227 .2899933 .0029907227 .33198548 .0029907227 .37399293 .0029907227 .4269867 .0029907227 .46798707 0V.0309906H.44699098C.37298585 .0309906 .37098695 .041992189 .37098695 .07800293V.16503906H.47099305V.19602967H.37098695V.65075686C.37098695 .67074587 .37098695 .6767578 .35499574 .6767578 .34599305 .6767578 .34298707 .6767578 .33499146 .66474917L.027999878 .19602967V.16503906H.2939911M.2999878 .19602967H.055999757L.2999878 .5688019V.19602967Z"/>
<path id="font_2_1" d="M.1269989 .07699585 .23298645 .18003845C.3889923 .31811524 .44898988 .3721466 .44898988 .47216798 .44898988 .5860901 .35899354 .6660156 .23699951 .6660156 .12399292 .6660156 .049987794 .57411196 .049987794 .48516847 .049987794 .4291687 .099990848 .4291687 .102996829 .4291687 .11999512 .4291687 .15499878 .44117738 .15499878 .48217774 .15499878 .5081787 .13699341 .5341797 .101989749 .5341797 .09399414 .5341797 .09199524 .5341797 .08898926 .5331726 .11199951 .59806826 .1659851 .63500979 .22399903 .63500979 .31498719 .63500979 .35798646 .5541382 .35798646 .47216798 .35798646 .39215089 .30799867 .31311036 .25299073 .25108338L.06098938 .036987306C.049987794 .025985718 .049987794 .023986817 .049987794 0H.42099L.44898988 .17404175H.42399598C.4189911 .14402771 .4119873 .1000061 .4019928 .084991458 .394989 .07699585 .32899476 .07699585 .30699159 .07699585H.1269989Z"/>
<clipPath id="clip_3">
<path transform="matrix(1.00003,0,0,-1.00006,2.0964967,163.19083)" d="M0 0H194.26912V161.3842H0Z"/>
</clipPath>
<path id="font_4_1" d="M.20599365 .3996582H.2999878C.31999208 .3996582 .32998658 .3996582 .32998658 .41966249 .32998658 .43066407 .31999208 .43066407 .3019867 .43066407H.21398926C.25 .5724945 .25498963 .59246829 .25498963 .59846499 .25498963 .61546328 .24299622 .62545779 .22599793 .62545779 .22299195 .62545779 .19499207 .62446597 .18598938 .58947756L.14698792 .43066407H.052993776C.032989503 .43066407 .022994996 .43066407 .022994996 .4116516 .022994996 .3996582 .0309906 .3996582 .050994874 .3996582H.13899231C.066986087 .11608887 .06298828 .099121097 .06298828 .08114624 .06298828 .02722168 .100997928-.0107421879 .15499878-.0107421879 .25698854-.0107421879 .31399537 .13505554 .31399537 .14305115 .31399537 .1530304 .30599977 .1530304 .3019867 .1530304 .29299928 .1530304 .2919922 .15003968 .2869873 .13905335 .24398804 .035217287 .19099427 .011245728 .15699768 .011245728 .13598633 .011245728 .12599182 .024230957 .12599182 .057174684 .12599182 .08114624 .12799073 .088134769 .13198853 .10510254L.20599365 .3996582Z"/>
<path id="font_4_2" d="M.48599244 .38136292C.48999024 .39537049 .48999024 .39736939 .48999024 .40437318 .48999024 .42237855 .47599793 .43138124 .46099855 .43138124 .45098878 .43138124 .43499757 .42536927 .42599488 .41036988 .42399598 .405365 .41600038 .37435914 .4119873 .35635377 .40499879 .33035279 .397995 .30334474 .3919983 .27633668L.34700013 .09628296C.34298707 .08126831 .2999878 .011245728 .23399353 .011245728 .18299866 .011245728 .17199707 .055267335 .17199707 .0922699 .17199707 .1382904 .18899536 .20030213 .22299195 .28833009 .23899842 .3293457 .24299622 .3403473 .24299622 .36035157 .24299622 .405365 .21099854 .4423828 .16099549 .4423828 .06599426 .4423828 .0289917 .29733277 .0289917 .28833009 .0289917 .27833558 .038986207 .27833558 .040985109 .27833558 .050994874 .27833558 .051986696 .28033448 .056991579 .29634095 .083999637 .3903656 .12399292 .42037965 .1579895 .42037965 .1659851 .42037965 .18299866 .42037965 .18299866 .3883667 .18299866 .36335755 .17298889 .3373413 .1659851 .31834413 .12599182 .21231079 .10798645 .1552887 .10798645 .10827637 .10798645 .019256592 .17098999-.0107421879 .22999573-.0107421879 .2689972-.0107421879 .30299378 .0062561037 .33099366 .03425598 .31799317-.017745972 .30599977-.06674194 .2659912-.11973572 .23999024-.15385437 .20199585-.18309021 .1559906-.18309021 .14199829-.18309021 .09700012-.18005371 .07998657-.14074707 .09599304-.14074707 .10899353-.14074707 .12298584-.1287384 .1329956-.11973572 .14299011-.10673523 .14299011-.08773804 .14299011-.056747438 .115997318-.052734376 .10598755-.052734376 .08299255-.052734376 .049987794-.068740848 .049987794-.11773682 .049987794-.16796875 .09399414-.20507813 .1559906-.20507813 .25898744-.20507813 .3619995-.11373901 .3899994-.00074768069L.48599244 .38136292Z"/>
</defs>
<path transform="matrix(1.00003,0,0,-1.00006,2.0964967,163.19083)" stroke-width=".3985" stroke-linecap="butt" stroke-miterlimit="10" stroke-linejoin="miter" fill="none" stroke="#404040" d="M0 0H194.26912V161.3842H0Z"/>
<path transform="matrix(1.00003,0,0,-1.00006,2.0964967,163.19083)" stroke-width=".3985" stroke-linecap="butt" stroke-miterlimit="10" stroke-linejoin="miter" fill="none" stroke="#bfbfbf" d="M12.14182 0V161.3842M36.42545 0V161.3842M60.70909 0V161.3842M84.99274 0V161.3842M109.27637 0V161.3842M133.56002 0V161.3842M157.84366 0V161.3842M182.12729 0V161.3842"/>
<path transform="matrix(1.00003,0,0,-1.00006,2.0964967,163.19083)" stroke-width=".3985" stroke-linecap="butt" stroke-miterlimit="10" stroke-linejoin="miter" fill="none" stroke="#bfbfbf" d="M24.28363 0V161.3842M48.56728 0V161.3842M72.8509 0V161.3842M121.4182 0V161.3842M145.70183 0V161.3842M169.98548 0V161.3842"/>
<path transform="matrix(1.00003,0,0,-1.00006,2.0964967,163.19083)" stroke-width=".3985" stroke-linecap="butt" stroke-miterlimit="10" stroke-linejoin="miter" fill="none" stroke="#bfbfbf" d="M0 10.0865H194.26912M0 30.25954H194.26912M0 50.43256H194.26912M0 70.60558H194.26912M0 90.77861H194.26912M0 110.95163H194.26912M0 131.12467H194.26912M0 151.29769H194.26912"/>
<path transform="matrix(1.00003,0,0,-1.00006,2.0964967,163.19083)" stroke-width=".3985" stroke-linecap="butt" stroke-miterlimit="10" stroke-linejoin="miter" fill="none" stroke="#bfbfbf" d="M0 20.17302H194.26912M0 40.34604H194.26912M0 60.51907H194.26912M0 100.86511H194.26912M0 121.03815H194.26912M0 141.21117H194.26912"/>
<path transform="matrix(1.00003,0,0,-1.00006,2.0964967,163.19083)" stroke-width=".19925" stroke-linecap="butt" stroke-miterlimit="10" stroke-linejoin="miter" fill="none" stroke="#7f807f" d="M12.14182 79.27461V82.10957M36.42545 79.27461V82.10957M60.70909 79.27461V82.10957M84.99274 79.27461V82.10957M109.27637 79.27461V82.10957M133.56002 79.27461V82.10957M157.84366 79.27461V82.10957M182.12729 79.27461V82.10957"/>
<path transform="matrix(1.00003,0,0,-1.00006,2.0964967,163.19083)" stroke-width=".19925" stroke-linecap="butt" stroke-miterlimit="10" stroke-linejoin="miter" fill="none" stroke="#7f807f" d="M24.28363 78.56609V82.81808M48.56728 78.56609V82.81808M72.8509 78.56609V82.81808M121.4182 78.56609V82.81808M145.70183 78.56609V82.81808M169.98548 78.56609V82.81808"/>
<path transform="matrix(1.00003,0,0,-1.00006,2.0964967,163.19083)" stroke-width=".19925" stroke-linecap="butt" stroke-miterlimit="10" stroke-linejoin="miter" fill="none" stroke="#7f807f" d="M95.7171 10.0865H98.552M95.7171 30.25954H98.552M95.7171 50.43256H98.552M95.7171 70.60558H98.552M95.7171 90.77861H98.552M95.7171 110.95163H98.552M95.7171 131.12467H98.552M95.7171 151.29769H98.552"/>
<path transform="matrix(1.00003,0,0,-1.00006,2.0964967,163.19083)" stroke-width=".19925" stroke-linecap="butt" stroke-miterlimit="10" stroke-linejoin="miter" fill="none" stroke="#7f807f" d="M95.0086 20.17302H99.26048M95.0086 40.34604H99.26048M95.0086 60.51907H99.26048M95.0086 100.86511H99.26048M95.0086 121.03815H99.26048M95.0086 141.21117H99.26048"/>
<path transform="matrix(1.00003,0,0,-1.00006,2.0964967,163.19083)" stroke-width=".3985" stroke-linecap="butt" stroke-miterlimit="10" stroke-linejoin="miter" fill="none" stroke="#000000" d="M0 80.6921H192.2766"/>
<path transform="matrix(1.00003,0,0,-1.00006,194.37888,82.49389)" d="M1.99252 0-1.19551 1.59401 0 0-1.19551-1.59401"/>
<path transform="matrix(1.00003,0,0,-1.00006,2.0964967,163.19083)" stroke-width=".3985" stroke-linecap="butt" stroke-miterlimit="10" stroke-linejoin="miter" fill="none" stroke="#000000" d="M97.13455 0V159.39168"/>
<path transform="matrix(0,-1.00006,-1.00003,-0,99.23396,3.7895966)" d="M1.99252 0-1.19551 1.59401 0 0-1.19551-1.59401"/>
<use data-text="&#x2212;" xlink:href="#font_1_1" transform="matrix(9.962899,0,0,-9.963197,20.016037,94.560718)"/>
<use data-text="6" xlink:href="#font_2_3" transform="matrix(9.962899,0,0,-9.963197,27.765267,94.560718)"/>
<use data-text="&#x2212;" xlink:href="#font_1_1" transform="matrix(9.962899,0,0,-9.963197,44.299764,94.560718)"/>
<use data-text="4" xlink:href="#font_2_2" transform="matrix(9.962899,0,0,-9.963197,52.048994,94.560718)"/>
<use data-text="&#x2212;" xlink:href="#font_1_1" transform="matrix(9.962899,0,0,-9.963197,68.584499,94.560718)"/>
<use data-text="2" xlink:href="#font_2_1" transform="matrix(9.962899,0,0,-9.963197,76.333728,94.560718)"/>
<use data-text="2" xlink:href="#font_2_1" transform="matrix(9.962899,0,0,-9.963197,121.02707,94.560718)"/>
<use data-text="4" xlink:href="#font_2_2" transform="matrix(9.962899,0,0,-9.963197,145.3118,94.560718)"/>
<use data-text="6" xlink:href="#font_2_3" transform="matrix(9.962899,0,0,-9.963197,169.59653,94.560718)"/>
<use data-text="&#x2212;" xlink:href="#font_1_1" transform="matrix(9.962899,0,0,-9.963197,80.857868,145.81179)"/>
<use data-text="6" xlink:href="#font_2_3" transform="matrix(9.962899,0,0,-9.963197,88.60709,145.81179)"/>
<use data-text="&#x2212;" xlink:href="#font_1_1" transform="matrix(9.962899,0,0,-9.963197,80.857868,125.63757)"/>
<use data-text="4" xlink:href="#font_2_2" transform="matrix(9.962899,0,0,-9.963197,88.60709,125.63757)"/>
<use data-text="&#x2212;" xlink:href="#font_1_1" transform="matrix(9.962899,0,0,-9.963197,80.857868,105.46336)"/>
<use data-text="2" xlink:href="#font_2_1" transform="matrix(9.962899,0,0,-9.963197,88.60709,105.46336)"/>
<use data-text="2" xlink:href="#font_2_1" transform="matrix(9.962899,0,0,-9.963197,88.6061,65.52997)"/>
<use data-text="4" xlink:href="#font_2_2" transform="matrix(9.962899,0,0,-9.963197,88.6061,45.35576)"/>
<use data-text="6" xlink:href="#font_2_3" transform="matrix(9.962899,0,0,-9.963197,88.6061,25.18155)"/>
<g clip-path="url(#clip_3)">
<path transform="matrix(1.00003,0,0,-1.00006,2.0964967,163.19083)" stroke-width="1.49442" stroke-linecap="butt" stroke-miterlimit="10" stroke-linejoin="miter" fill="none" stroke="#0000ff" d="M12.14182 30.25954 12.17253 30.28505 12.20328 30.3106 12.23401 30.33612 12.26474 30.36166 12.29547 30.38718 12.32622 30.41272 12.35695 30.43825 12.38768 30.46379 12.41841 30.4893 12.44916 30.51485 12.47989 30.54037 12.51062 30.56592 12.54135 30.59143 12.57208 30.61697 12.60283 30.6425 12.63354 30.66805 12.66429 30.69356 12.69502 30.7191 12.72575 30.74463 12.75648 30.77017 12.78723 30.79568 12.81796 30.82123 12.8487 30.84676 12.87943 30.8723 12.91017 30.89781 12.9409 30.92336 12.97163 30.94888 13.00237 30.97441 13.03311 30.99994 13.06384 31.02548 13.09456 31.05101 13.1253 31.07654 13.15604 31.10207 13.18677 31.12761 13.2175 31.15314 13.24825 31.17867 13.27898 31.2042 13.30971 31.22974 13.34044 31.25526 13.37119 31.28079 13.40192 31.30632 13.43265 31.33186 13.46338 31.35739 13.49413 31.38292 13.52486 31.40845 13.55559 31.43399 13.58632 31.45952 13.61707 31.48505 13.64778 31.51057 13.67851 31.53612 13.70926 31.56165 13.73999 31.58717 13.77072 31.6127 13.80145 31.63824 13.8322 31.66377 13.86293 31.6893 13.89366 31.71483 13.9244 31.74037 13.95514 31.7659 13.98587 31.79143 14.0166 31.81696 14.04733 31.8425 14.07808 31.86803 14.1088 31.89355 14.13954 31.91908 14.17027 31.94463 14.20102 31.97015 14.23174 31.99568 14.26247 32.02121 14.29321 32.04675 14.32394 32.07228 14.35468 32.09781 14.3854 32.12334 14.41615 32.14888 14.44688 32.17441 14.47762 32.19994 14.50835 32.22546 14.5391 32.251 14.56981 32.27654 14.60056 32.30206 14.63129 32.32759 14.66203 32.35313 14.69275 32.37866 14.7235 32.40419 14.75423 32.42972 14.78496 32.45526 14.81569 32.48079 14.84642 32.50632 14.87717 32.53185 14.9079 32.55739 14.93863 32.58292 14.96936 32.60844 15.0001 32.63397 15.03082 32.65952 15.06157 32.68504 15.0923 32.71057 15.12305 32.7361 15.15376 32.76164 15.18451 32.78717 15.21524 32.8127 15.24599 32.83823 15.2767 32.86377 15.30745 32.8893 15.33818 32.91483 15.36891 32.94035 15.39964 32.9659 15.43037 32.99142 15.46112 33.01695 15.49184 33.0425 15.52258 33.06802 15.55331 33.09355 15.58406 33.11908 15.61478 33.14462 15.64552 33.17015 15.67625 33.19568 15.707 33.2212 15.73772 33.24675 15.76846 33.27228 15.7992 33.2978 15.82994 33.32333 15.86066 33.34888 15.8914 33.3744 15.92213 33.39993 15.95285 33.42546 15.9836 33.451 16.01433 33.47653 16.04507 33.50206 16.07579 33.52759 16.10654 33.55313 16.13727 33.57866 16.16801 33.60419 16.19873 33.62971 16.22948 33.65526 16.26021 33.68079 16.29095 33.70631 16.32167 33.73184 16.35242 33.75739 16.38315 33.78291 16.41388 33.80844 16.44461 33.83397 16.47534 33.85951 16.50609 33.88504 16.5368 33.91057 16.56755 33.9361 16.59828 33.96164 16.62903 33.98717 16.65974 34.0127 16.69049 34.03822 16.72122 34.06377 16.75197 34.0893 16.78268 34.11482 16.81343 34.14035 16.84416 34.1659 16.8749 34.19142 16.90562 34.21695 16.93637 34.24248 16.9671 34.26802 16.99783 34.29355 17.02856 34.31908 17.0593 34.3446 17.09004 34.37015 17.12076 34.39568 17.1515 34.4212 17.18224 34.44673 17.21298 34.47227 17.2437 34.4978 17.27444 34.52333 17.30518 34.54886 17.33592 34.5744 17.36664 34.59993 17.39738 34.62546 17.42812 34.65099 17.45885 34.67653 17.48958 34.70206 17.52032 34.72758 17.55106 34.75311 17.58179 34.77866 17.61252 34.80418 17.64325 34.82971 17.674 34.85524 17.70471 34.88078 17.73546 34.90631 17.76619 34.93184 17.79694 34.95737 17.82765 34.98291 17.8584 35.00844 17.88913 35.03397 17.91986 35.0595 17.95059 35.08504 17.98134 35.11057 18.01207 35.1361 18.0428 35.16162 18.07353 35.18716 18.10428 35.21268 18.13501 35.23822 18.16573 35.26375 18.19647 35.28929 18.2272 35.3148 18.25795 35.34035 18.28867 35.36588 18.31941 35.39142 18.35014 35.41693 18.38087 35.44247 18.4116 35.468 18.44235 35.49355 18.47308 35.51906 18.50381 35.5446 18.53455 35.57013 18.56529 35.59567 18.59602 35.62119 18.62675 35.64673 18.65749 35.67226 18.68823 35.6978 18.71896 35.72331 18.74968 35.74886 18.78043 35.77438 18.81116 35.79993 18.84189 35.82545 18.87262 35.85098 18.90337 35.87653 18.9341 35.90205 18.96483 35.92758 18.99556 35.95311 19.0263 35.97865 19.05704 36.00418 19.08777 36.02971 19.1185 36.05524 19.14925 36.08078 19.17998 36.10631 19.21071 36.13184 19.24144 36.15736 19.27219 36.1829 19.3029 36.20844 19.33363 36.23396 19.36438 36.25949 19.39511 36.28503 19.42584 36.31056 19.45657 36.33609 19.48732 36.36162 19.51805 36.38716 19.54878 36.41269 19.57951 36.43822 19.61026 36.46375 19.64099 36.48929 19.67172 36.51482 19.70245 36.54034 19.7332 36.56587 19.76392 36.59142 19.79466 36.61694 19.8254 36.64247 19.85612 36.668 19.88686 36.69354 19.91759 36.71907 19.94833 36.7446 19.97906 36.77013 20.0098 36.79567 20.04053 36.8212 20.07127 36.84673 20.102 36.87225 20.13274 36.8978 20.16347 36.92332 20.19421 36.94885 20.22493 36.97438 20.25568 36.99992 20.2864 37.02545 20.31715 37.05098 20.34787 37.0765 20.37862 37.10205 20.40935 37.12758 20.44008 37.1531 20.47081 37.17863 20.50154 37.20418 20.53229 37.2297 20.56302 37.25523 20.59375 37.28076 20.62448 37.3063 20.65523 37.33182 20.68594 37.35736 20.71669 37.38289 20.74742 37.40843 20.77817 37.43394 20.80888 37.45949 20.83963 37.48502 20.87036 37.51056 20.90111 37.53607 20.93182 37.56161 20.96257 37.58714 20.9933 37.61269 21.02403 37.6382 21.05476 37.66374 21.0855 37.68927 21.11624 37.71481 21.14696 37.74033 21.1777 37.76587 21.20844 37.7914 21.23918 37.81694 21.2699 37.84245 21.30064 37.868 21.33138 37.89352 21.36212 37.91907 21.39284 37.94458 21.42358 37.97012 21.45432 37.99565 21.48506 38.0212 21.51578 38.0467 21.54652 38.07225 21.57726 38.09778 21.60797 38.12332 21.63872 38.14883 21.66945 38.17438 21.7002 38.1999 21.73091 38.22545 21.76166 38.25096 21.79239 38.2765 21.82314 38.30203 21.85385 38.32758 21.8846 38.35309 21.91533 38.37863 21.94608 38.40416 21.97679 38.4297 22.00754 38.45522 22.03827 38.48076 22.06902 38.50629 22.09973 38.53183 22.13046 38.55736 22.16121 38.58289 22.19193 38.60843 22.22267 38.63396 22.2534 38.65948 22.28415 38.68501 22.31487 38.71056 22.34561 38.73608 22.37634 38.76161 22.40709 38.78714 22.4378 38.81268 22.46855 38.83821 22.49928 38.86374 22.53003 38.88927 22.56075 38.91481 22.59149 38.94034 22.62222 38.96587 22.65295 38.9914 22.68369 39.01694 22.71442 39.04247 22.74516 39.068 22.77588 39.09352 22.80663 39.11906 22.83736 39.14459 22.8681 39.17012 22.89882 39.19565 22.92957 39.22119 22.9603 39.24672 22.99104 39.27225 23.02176 39.29778 23.0525 39.32332 23.08324 39.34885 23.11397 39.37437 23.1447 39.3999 23.17545 39.42545 23.20618 39.45096 23.23691 39.4765 23.26764 39.50203 23.29837 39.52757 23.32912 39.55309 23.35983 39.57863 23.39058 39.60416 23.42131 39.6297 23.45206 39.65521 23.48277 39.68076 23.51352 39.70628 23.54425 39.73183 23.57498 39.75734 23.60571 39.78288 23.63646 39.80841 23.66719 39.83395 23.69792 39.85947 23.72865 39.88501 23.7594 39.91054 23.79013 39.93608 23.82085 39.9616 23.8516 39.98714 23.88232 40.01266 23.91307 40.03821 23.94379 40.06372 23.97453 40.08926 24.00526 40.11479 24.036 40.14034 24.06673 40.16585 24.09747 40.19139 24.1282 40.21692 24.15894 40.24246 24.18967 40.26797 24.22041 40.29352 24.25114 40.31905 24.28188 40.34459 24.3126 40.3701 24.34335 40.39565 24.37408 40.42117 24.4048 40.44672"/>
<path transform="matrix(1.00003,0,0,-1.00006,2.0964967,163.19083)" stroke-width=".99628" stroke-linecap="butt" stroke-miterlimit="10" stroke-linejoin="miter" fill="none" stroke="#0000ff" d="M12.14182 30.25954"/>
<path transform="matrix(1.00003,0,0,-1.00006,2.0964967,163.19083)" stroke-width="1.49442" stroke-linecap="butt" stroke-miterlimit="10" stroke-linejoin="miter" fill="none" stroke="#0000ff" d="M24.16222 40.1443 24.22368 40.24643 24.28514 40.34856 24.34662 40.4507 24.40808 40.55284 24.46956 40.65492 24.53102 40.75706 24.5925 40.8592 24.65395 40.96133 24.71542 41.06346 24.77689 41.16557 24.83836 41.26772 24.89983 41.36983 24.9613 41.47197 25.02277 41.57411 25.08424 41.67621 25.1457 41.77832 25.20717 41.88046 25.26865 41.98259 25.33011 42.08473 25.39159 42.18683 25.45305 42.28896 25.51453 42.3911 25.57599 42.49323 25.63747 42.59537 25.69893 42.69746 25.76039 42.7996 25.82185 42.90173 25.88333 43.00386 25.9448 43.106 26.00627 43.2081 26.06773 43.31024 26.1292 43.41237 26.19067 43.51451 26.25214 43.61664 26.31361 43.71873 26.37508 43.82088 26.43655 43.923 26.49802 44.02513 26.5595 44.12727 26.62096 44.22939 26.68243 44.33151 26.7439 44.43364 26.80537 44.53578 26.86682 44.63791 26.9283 44.74002 26.98976 44.84215 27.05122 44.94427 27.1127 45.0464 27.17416 45.14854 27.23564 45.25066 27.2971 45.35278 27.35858 45.45491 27.42004 45.55705 27.48152 45.65918 27.54298 45.76128 27.60446 45.86342 27.66592 45.96556 27.7274 46.06769 27.78886 46.16982 27.85034 46.27193 27.9118 46.37405 27.97327 46.4762 28.03473 46.57832 28.09619 46.68045 28.15767 46.78256 28.21913 46.88469 28.28061 46.98683 28.34207 47.08896 28.40355 47.1911 28.46501 47.2932 28.52649 47.39532 28.58795 47.49747 28.64943 47.59961 28.71089 47.70172 28.77237 47.80383 28.83383 47.90598 28.8953 48.0081 28.95677 48.11023 29.01823 48.21237 29.07971 48.31447 29.14116 48.4166 29.20264 48.51874 29.2641 48.62088 29.32558 48.723 29.38704 48.8251 29.44852 48.92725 29.50998 49.02937 29.57146 49.1315 29.63292 49.23364 29.6944 49.33575 29.75586 49.43787 29.81734 49.54001 29.8788 49.64215 29.94026 49.74428 30.00174 49.84637 30.0632 49.94852 30.12468 50.05064 30.18614 50.15277 30.2476 50.2549 30.30907 50.35701 30.37054 50.45914 30.432 50.56126 30.49348 50.6634 30.55495 50.76553 30.61642 50.86765 30.67789 50.96977 30.73936 51.0719 30.80083 51.17404 30.86229 51.27618 30.92377 51.37828 30.98523 51.48041 31.0467 51.58255 31.10817 51.68468 31.16965 51.7868 31.23111 51.88892 31.29259 51.99106 31.35405 52.09319 31.41551 52.19531 31.47697 52.29744 31.53845 52.39955 31.59991 52.50168 31.66139 52.60382 31.72285 52.70595 31.78432 52.80807 31.8458 52.91019 31.90726 53.01233 31.96873 53.11446 32.0302 53.21658 32.09167 53.31873 32.15314 53.42082 32.21461 53.52295 32.27608 53.62509 32.33755 53.72722 32.39902 53.82936 32.4605 53.93146 32.52194 54.0336 32.58342 54.13573 32.64488 54.23785 32.70634 54.34 32.76782 54.4421 32.82928 54.54424 32.89076 54.64636 32.95222 54.7485 33.0137 54.85063 33.07516 54.95273 33.13664 55.05487 33.1981 55.157 33.25958 55.25914 33.32104 55.36127 33.38252 55.46336 33.44398 55.5655 33.50546 55.66765 33.56693 55.76978 33.62839 55.8719 33.68985 55.97401 33.75131 56.07614 33.81279 56.17827 33.87425 56.28041 33.93573 56.38254 33.9972 56.48463 34.05867 56.58678 34.12013 56.68892 34.18161 56.79105 34.24307 56.89317 34.30455 56.99529 34.36601 57.09741 34.42749 57.19954 34.48895 57.30168 34.55043 57.40382 34.6119 57.50592 34.67336 57.60805 34.73483 57.71019 34.79628 57.81232 34.85776 57.91444 34.91922 58.01656 34.9807 58.11868 35.04216 58.22083 35.10364 58.32295 35.1651 58.4251 35.22658 58.52718 35.28804 58.6293 35.34952 58.73145 35.41098 58.83357 35.47246 58.93571 35.53392 59.03781 35.59538 59.13994 35.65686 59.24208 35.71832 59.34422 35.7798 59.44635 35.84126 59.54845 35.90273 59.65059 35.96419 59.75272 36.02567 59.85484 36.08713 59.95699 36.1486 60.0591 36.21007 60.16122 36.27155 60.26335 36.33301 60.3655 36.39449 60.46762 36.45595 60.56972 36.51741 60.67186 36.57889 60.77399 36.64035 60.87613 36.70183 60.97826 36.76329 61.08035 36.82477 61.1825 36.88623 61.28462 36.94771 61.38676 37.00917 61.48889 37.07063 61.591 37.1321 61.69313 37.19357 61.79526 37.25504 61.8974 37.31651 61.99953 37.37798 62.10164 37.43944 62.20377 37.50092 62.30591 37.56238 62.40804 37.62386 62.51016 37.68532 62.61227 37.7468 62.7144 37.80826 62.81654 37.86974 62.91867 37.9312 63.0208 37.99268 63.12291 38.05414 63.22504 38.11562 63.32718 38.17706 63.4293 38.23854 63.53145 38.3 63.63354 38.36147 63.73567 38.42294 63.83781 38.4844 63.93994 38.54588 64.04208 38.60735 64.14418 38.66882 64.2463 38.73029 64.34845 38.79176 64.45058 38.85323 64.55272 38.9147 64.65482 38.97617 64.75696 39.03764 64.85909 39.0991 64.96121 39.16058 65.06335 39.22205 65.16545 39.28351 65.2676 39.34497 65.36972 39.40643 65.47185 39.46791 65.57399 39.52937 65.67609 39.59085 65.77823 39.65231 65.88036 39.71379 65.9825 39.77525 66.08463 39.83673 66.18672 39.8982 66.28886 39.95967 66.39099 40.02113 66.49313 40.08261 66.59526 40.14407 66.69736 40.20555 66.7995 40.26701 66.90161 40.32848 67.00375 40.38995 67.10588 40.4514 67.208 40.51288 67.31012 40.57434 67.41225 40.63582 67.51439 40.69728 67.61652 40.75876 67.71863 40.82022 67.82076 40.8817 67.9229 40.94316 68.02502 41.00464 68.12715 41.0661 68.22926 41.12758 68.33139 41.18904 68.43353 41.2505 68.53566 41.31198 68.63779 41.37344 68.7399 41.43492 68.84203 41.49638 68.94417 41.55785 69.0463 41.61931 69.14844 41.68079 69.25053 41.74225 69.35266 41.80373 69.4548 41.86519 69.55693 41.92667 69.65907 41.98813 69.76117 42.0496 69.8633 42.11107 69.96544 42.17253 70.06757 42.23401 70.16971 42.29547 70.2718 42.35695 70.37395 42.41841 70.47607 42.47989 70.5782 42.54135 70.68034 42.60283 70.78244 42.66429 70.88458 42.72575 70.98671 42.78722 71.08885 42.8487 71.19098 42.91016 71.29308 42.97163 71.39522 43.0331 71.49734 43.09456 71.59949 43.15604 71.70161 43.2175 71.80371 43.27898 71.90585 43.34044 72.00798 43.40192 72.11012 43.46338 72.21225 43.52486 72.31436 43.58632 72.41649 43.6478 72.51862 43.70926 72.62076 43.77074 72.72289 43.83218 72.825 43.89366 72.92712 43.95512 73.02925 44.0166 73.1314 44.07806 73.23352 44.13953 73.33563 44.201 73.43776 44.26247 73.5399 44.32394 73.64203 44.3854 73.74416 44.44688 73.84627 44.50835 73.9484 44.56982 74.05054 44.63129 74.15266 44.69276 74.25479 44.75423 74.3569 44.8157 74.45903 44.87717 74.56117 44.93863 74.6633 45.00009 74.76544 45.06155 74.86754 45.12303 74.96967 45.1845 75.07181 45.24597 75.17393 45.30743 75.27606 45.36891 75.37816 45.43037 75.48029 45.49185 75.58243 45.55331 75.68456 45.61479 75.7867 45.67625 75.8888 45.73773 75.99094 45.7992 76.09306 45.86067 76.19519 45.92213 76.29733 45.9836 76.39943 46.04507 76.50157 46.10652 76.6037 46.168 76.70584 46.22946 76.80797 46.29094 76.91006 46.3524 77.0122 46.41388 77.11433 46.47534 77.21648 46.53682 77.3186 46.59828 77.4207 46.65976 77.52284 46.72122 77.62497 46.7827 77.72711 46.84416 77.82924 46.90562 77.93135 46.9671 78.03348 47.02856 78.1356 47.09004 78.23775 47.1515 78.33987 47.21297 78.44199 47.27443 78.54411 47.3359 78.64624 47.39737 78.74838 47.45885 78.85051 47.52031 78.95262 47.58179 79.05475 47.64325 79.15689 47.70473 79.25902 47.76619 79.36115 47.82765 79.46326 47.88913 79.56538 47.95059 79.66753 48.01207 79.76965 48.07353 79.8718 48.13501 79.97389 48.19647 80.07602 48.25795 80.17816 48.31941 80.28029 48.38087 80.38243 48.44234 80.48453 48.50381 80.58665 48.56528 80.6888 48.62675 80.79092 48.68822 80.89307"/>
<path transform="matrix(1.00003,0,0,-1.00006,2.0964967,163.19083)" stroke-width="1.49442" stroke-linecap="butt" stroke-miterlimit="10" stroke-linejoin="miter" fill="none" stroke="#0000ff" d="M48.44586 80.59123 48.4775 80.61751 48.50914 80.6438 48.54079 80.67007 48.57243 80.69638 48.60408 80.72267 48.63573 80.74895 48.66736 80.77525 48.69902 80.80153 48.73067 80.82782 48.7623 80.85411 48.79395 80.8804 48.8256 80.90668 48.85725 80.93298 48.88889 80.95927 48.92053 80.98555 48.9522 81.01186 48.98383 81.03813 49.01547 81.06442 49.04712 81.0907 49.07877 81.117 49.11041 81.1433 49.14206 81.16957 49.17369 81.19588 49.20535 81.22215 49.237 81.24844 49.26865 81.27473 49.30028 81.30103 49.33194 81.3273 49.36359 81.3536 49.39522 81.3799 49.42686 81.40617 49.45853 81.43248 49.49016 81.45876 49.5218 81.48505 49.55345 81.51134 49.58511 81.53763 49.61674 81.56392 49.64839 81.5902 49.68004 81.6165 49.71169 81.64278 49.74333 81.66907 49.77498 81.69536 49.80661 81.72165 49.83827 81.74792 49.86992 81.77423 49.90155 81.80052 49.9332 81.8268 49.96486 81.8531 49.9965 81.87938 50.02814 81.90567 50.05978 81.93196 50.09145 81.95825 50.12308 81.98454 50.15472 82.01083 50.18637 82.03712 50.21802 82.0634 50.24966 82.08969 50.28131 82.11598 50.31294 82.14227 50.3446 82.16855 50.37625 82.19485 50.4079 82.22115 50.43953 82.24742 50.47119 82.27373 50.50284 82.3 50.53447 82.3263 50.56612 82.35258 50.59778 82.37888 50.62941 82.40515 50.66106 82.43146 50.6927 82.45775 50.72437 82.48402 50.756 82.51033 50.78764 82.5366 50.81929 82.5629 50.85094 82.58917 50.88258 82.61548 50.91423 82.64177 50.94586 82.66805 50.97752 82.69435 51.00917 82.72063 51.0408 82.74692 51.07245 82.77321 51.1041 82.7995 51.13576 82.82578 51.16739 82.85208 51.19904 82.87837 51.23068 82.90465 51.26233 82.93095 51.29398 82.95723 51.32562 82.98352 51.35725 83.00981 51.38892 83.0361 51.42056 83.0624 51.45221 83.08867 51.48384 83.11497 51.5155 83.14125 51.54715 83.16754 51.57878 83.19383 51.61043 83.22012 51.64209 83.2464 51.67372 83.2727 51.70537 83.299 51.73701 83.32527 51.76866 83.35158 51.80031 83.37785 51.83195 83.40414 51.8636 83.43044 51.89525 83.45673 51.9269 83.48302 51.95854 83.50931 51.99017 83.5356 52.02184 83.56187 52.05348 83.58817 52.08511 83.61446 52.11676 83.64075 52.14842 83.66702 52.18005 83.69333 52.2117 83.71962 52.24335 83.7459 52.27501 83.7722 52.30664 83.79848 52.33829 83.82477 52.36993 83.85106 52.40158 83.87735 52.43323 83.90364 52.46487 83.92993 52.4965 83.95622 52.52817 83.9825 52.55981 84.0088 52.59146 84.03508 52.6231 84.06137 52.65475 84.08765 52.6864 84.11395 52.71803 84.14024 52.74968 84.16652 52.78134 84.19283 52.81297 84.2191 52.84462 84.24539 52.87627 84.27168 52.90791 84.29797 52.93956 84.32425 52.9712 84.35056 53.00285 84.37685 53.0345 84.40312 53.06615 84.42943 53.0978 84.4557 53.12943 84.482 53.16109 84.50829 53.19273 84.53458 53.22437 84.56087 53.25601 84.58714 53.28767 84.61345 53.3193 84.63972 53.35095 84.66602 53.3826 84.6923 53.41426 84.7186 53.44589 84.74487 53.47754 84.77118 53.50919 84.79747 53.54083 84.82375 53.57248 84.85005 53.60413 84.87633 53.63576 84.90262 53.66742 84.92891 53.69907 84.9552 53.73071 84.98149 53.76234 85.00778 53.794 85.03407 53.82565 85.06035 53.85728 85.08664 53.88893 85.11293 53.9206 85.13922 53.95222 85.1655 53.98387 85.1918 54.01552 85.2181 54.04716 85.24437 54.07881 85.27068 54.11046 85.29695 54.1421 85.32324 54.17375 85.34953 54.2054 85.37582 54.23705 85.40211 54.26868 85.4284 54.30034 85.4547 54.33199 85.48097 54.36362 85.50728 54.39526 85.53355 54.42693 85.55984 54.45857 85.58612 54.4902 85.61243 54.52185 85.63872 54.55351 85.665 54.58514 85.6913 54.61679 85.71758 54.64844 85.74387 54.68008 85.77016 54.71173 85.79645 54.74338 85.82272 54.77501 85.84903 54.80667 85.87532 54.83832 85.9016 54.86996 85.9279 54.9016 85.95418 54.93326 85.98047 54.9649 86.00676 54.99654 86.03305 55.02818 86.05934 55.05984 86.08562 55.09148 86.11192 55.12312 86.1382 55.15477 86.16449 55.18642 86.19078 55.21806 86.21707 55.24971 86.24335 55.28136 86.26965 55.313 86.29594 55.34465 86.32222 55.3763 86.34853 55.40793 86.3748 55.43959 86.4011 55.47124 86.42738 55.50287 86.45367 55.53452 86.47997 55.56618 86.50626 55.59782 86.53255 55.62946 86.55882 55.6611 86.58511 55.69276 86.6114 55.7244 86.6377 55.75604 86.66397 55.78769 86.69028 55.81934 86.71657 55.85098 86.74284 55.88263 86.76915 55.91426 86.79543 55.94592 86.82172 55.97757 86.848 56.00922 86.8743 56.04085 86.90059 56.07251 86.92688 56.10416 86.95317 56.13579 86.97945 56.16743 87.00575 56.1991 87.03203 56.23073 87.05832 56.26237 87.0846 56.29402 87.1109 56.32567 87.13719 56.35732 87.16347 56.38896 87.18977 56.42061 87.21605 56.45226 87.24234 56.4839 87.26863 56.51555 87.29492 56.54718 87.32121 56.57884 87.3475 56.61049 87.3738 56.64212 87.40007 56.67377 87.42638 56.70543 87.45265 56.73708 87.47894 56.7687 87.50523 56.80035 87.53152 56.83202 87.55782 56.86365 87.58409 56.8953 87.6104 56.92694 87.63667 56.95859 87.66296 56.99023 87.68925 57.02188 87.71555 57.05351 87.74182 57.08517 87.76813 57.11682 87.79442 57.14847 87.8207 57.1801 87.847 57.21176 87.87328 57.24341 87.89957 57.27504 87.92586 57.30669 87.95215 57.33835 87.97844 57.36998 88.00473 57.40163 88.03102 57.43327 88.0573 57.46494 88.08359 57.49657 88.10988 57.52821 88.13617 57.55986 88.16245 57.5915 88.18875 57.62315 88.21504 57.6548 88.24132 57.68643 88.26762 57.7181 88.2939 57.74974 88.32019 57.78137 88.34648 57.81302 88.37277 57.84468 88.39906 57.87633 88.42535 57.90796 88.45164 57.9396 88.47792 57.97127 88.50423 58.0029 88.5305 58.03455 88.5568 58.0662 88.58307 58.09784 88.60938 58.12949 88.63567 58.16113 88.66194 58.19276 88.68825 58.22443 88.71452 58.25607 88.74081 58.28772 88.7671 58.31935 88.7934 58.35101 88.81969 58.38266 88.84598 58.41429 88.87227 58.44594 88.89854 58.4776 88.92485 58.50923 88.95113 58.54088 88.97742 58.57253 89.00371 58.60419 89.03 58.63582 89.05629 58.66747 89.08257 58.69911 89.10887 58.73076 89.13515 58.7624 89.16144 58.79405 89.18773 58.82568 89.21402 58.85735 89.2403 58.88899 89.2666 58.92062 89.2929 58.95227 89.31917 58.98393 89.34547 59.01558 89.37175 59.04721 89.39804 59.07886 89.42433 59.11052 89.45062 59.14215 89.47691 59.1738 89.5032 59.20544 89.5295 59.23709 89.55577 59.26874 89.58206 59.30038 89.60835 59.33202 89.63464 59.36368 89.66092 59.39532 89.68723 59.42697 89.71352 59.4586 89.73979 59.49026 89.7661 59.52191 89.79237 59.55354 89.81866 59.58519 89.84496 59.61685 89.87125 59.64848 89.89754 59.68013 89.92383 59.71178 89.95012 59.74344 89.9764 59.77507 90.0027 59.80672 90.02898 59.83836 90.05527 59.87001 90.08154 59.90166 90.10785 59.9333 90.13414 59.96494 90.16042 59.9966 90.18672 60.02824 90.213 60.05988 90.23929 60.09152 90.26558 60.12318 90.29187 60.15483 90.31816 60.18646 90.34445 60.21811 90.37074 60.24977 90.39702 60.2814 90.42332 60.31305 90.4496 60.3447 90.47589 60.37634 90.50218 60.40799 90.52847 60.43964 90.55476 60.47128 90.58104 60.50293 90.60735 60.53458 90.63362 60.56622 90.65991 60.59785 90.6862 60.62952 90.7125 60.66116 90.73877 60.6928 90.76508 60.72444 90.79137 60.7561 90.81764 60.78773 90.84395 60.81938 90.87022 60.85103 90.89651 60.88269 90.9228 60.91432 90.9491 60.94597 90.97539 60.97762 91.00168 61.00926 91.02797 61.04091 91.05424 61.07256 91.08054"/>
<path transform="matrix(1.00003,0,0,-1.00006,2.0964967,163.19083)" stroke-width="1.49442" stroke-linecap="butt" stroke-miterlimit="10" stroke-linejoin="miter" fill="none" stroke="#0000ff" d="M60.34483 90.9299 60.4069 90.90411 60.469 90.87831 60.53107 90.85255 60.59315 90.82675 60.65521 90.80096 60.7173 90.77519 60.77937 90.7494 60.84146 90.72362 60.90353 90.69783 60.9656 90.67206 61.0277 90.64626 61.08977 90.62047 61.15186 90.5947 61.21391 90.56891 61.276 90.5431 61.33809 90.51735 61.40016 90.49155 61.46225 90.46576 61.5243 90.43999 61.5864 90.4142 61.64847 90.38841 61.71056 90.36263 61.77263 90.33684 61.8347 90.31105 61.89679 90.28528 61.95886 90.25949 62.02095 90.2337 62.08302 90.20792 62.1451 90.18214 62.20717 90.15634 62.26926 90.13055 62.33134 90.10478 62.39342 90.079 62.45549 90.0532 62.51756 90.02742 62.57965 90.00163 62.64172 89.97585 62.70381 89.95007 62.76587 89.92429 62.82796 89.8985 62.89005 89.87271 62.95212 89.84692 63.0142 89.82114 63.07626 89.79536 63.13835 89.76958 63.20042 89.74379 63.26251 89.718 63.3246 89.69221 63.38666 89.66643 63.44875 89.64064 63.51082 89.61487 63.5729 89.58908 63.63498 89.5633 63.69705 89.5375 63.75912 89.51172 63.82121 89.48593 63.8833 89.46016 63.94537 89.43437 64.00745 89.40857 64.06952 89.38281 64.1316 89.35701 64.19368 89.33122 64.25577 89.30545 64.31784 89.27966 64.37991 89.25388 64.442 89.22809 64.50407 89.2023 64.56615 89.17651 64.62822 89.15073 64.6903 89.12495 64.75238 89.09917 64.81447 89.07336 64.87654 89.0476 64.93861 89.0218 65.0007 88.99602 65.06277 88.97025 65.12486 88.94446 65.18692 88.91867 65.24901 88.8929 65.3111 88.8671 65.37317 88.84131 65.43526 88.81554 65.49731 88.78975 65.5594 88.76396 65.62148 88.73816 65.68356 88.7124 65.74565 88.6866 65.80771 88.66081 65.8698 88.63504 65.93187 88.60925 65.99396 88.58345 66.05603 88.55768 66.1181 88.53189 66.18018 88.5061 66.24226 88.48033 66.30435 88.45454 66.36642 88.42876 66.4285 88.40297 66.49057 88.37718 66.55266 88.3514 66.61473 88.32562 66.67682 88.29984 66.73889 88.27405 66.80096 88.24825 66.86305 88.22247 66.92513 88.19669 66.98721 88.1709 67.04927 88.14513 67.11136 88.11934 67.17343 88.09355 67.23552 88.06776 67.2976 88.04198 67.35966 88.01619 67.42175 87.99042 67.48383 87.96463 67.54591 87.93884 67.60799 87.91306 67.67006 87.88727 67.73215 87.86148 67.79422 87.8357 67.85631 87.80992 67.91837 87.78412 67.98045 87.75835 68.04253 87.73256 68.10461 87.70677 68.16669 87.68098 68.22876 87.65521 68.29085 87.62943 68.35292 87.60362 68.41501 87.57785 68.47708 87.55206 68.53915 87.52628 68.60123 87.5005 68.66331 87.47472 68.7254 87.44891 68.78748 87.42316 68.84955 87.39735 68.91162 87.37157 68.97371 87.34578 69.03578 87.32 69.09787 87.29422 69.15993 87.26842 69.22202 87.24265 69.2841 87.21686 69.34618 87.19107 69.40826 87.1653 69.47032 87.13951 69.53241 87.11371 69.59448 87.08795 69.65657 87.06215 69.71866 87.03636 69.78072 87.01059 69.8428 86.9848 69.90488 86.95901 69.96696 86.93323 70.02904 86.90744 70.09111 86.88165 70.1532 86.85587 70.21527 86.8301 70.27736 86.8043 70.33943 86.7785 70.4015 86.75273 70.46358 86.72694 70.52567 86.70116 70.58774 86.67538 70.64983 86.6496 70.7119 86.62381 70.77397 86.59802 70.83606 86.57224 70.89813 86.54645 70.96022 86.52068 71.02228 86.49487 71.08437 86.4691 71.14645 86.44331 71.20853 86.41753 71.2706 86.39174 71.33267 86.36595 71.39476 86.34018 71.45683 86.31438 71.51892 86.28859 71.58098 86.26282 71.64307 86.23703 71.70515 86.21124 71.76723 86.18547 71.82932 86.15967 71.89137 86.1339 71.95346 86.10811 72.01553 86.08232 72.07762 86.05653 72.13971 86.03076 72.20177 86.00497 72.26385 85.97917 72.32593 85.95338 72.38802 85.92761 72.45009 85.90182 72.51216 85.87604 72.57423 85.85027 72.63632 85.82446 72.69841 85.79869 72.76048 85.7729 72.82256 85.74712 72.88463 85.72133 72.94672 85.69556 73.00879 85.66977 73.07088 85.64397 73.13295 85.6182 73.19502 85.5924 73.25711 85.56662 73.31918 85.54085 73.38127 85.51506 73.44333 85.48926 73.50542 85.46347 73.56749 85.4377 73.62958 85.41191 73.69167 85.38612 73.75372 85.36035 73.81581 85.33456 73.87788 85.30876 73.93997 85.28299 74.00204 85.2572 74.06412 85.23141 74.1262 85.20564 74.18828 85.17986 74.25037 85.15405 74.31244 85.12828 74.37451 85.1025 74.43658 85.0767 74.49867 85.05093 74.56076 85.02515 74.62282 84.99936 74.6849 84.97356 74.74698 84.94778 74.80907 84.922 74.87114 84.89621 74.93321 84.87042 74.99529 84.84465 75.05737 84.81885 75.11946 84.79308 75.18153 84.76729 75.2436 84.7415 75.30568 84.71573 75.36777 84.68993 75.42984 84.66415 75.49193 84.63837 75.554 84.61258 75.61607 84.58679 75.67816 84.56102 75.74023 84.53522 75.80232 84.50943 75.86438 84.48364 75.92647 84.45787 75.98854 84.43208 76.05063 84.4063 76.11272 84.38052 76.17477 84.35472 76.23686 84.32895 76.29893 84.30316 76.36102 84.27737 76.4231 84.25159 76.48517 84.22581 76.54726 84.20001 76.60933 84.17422 76.67142 84.14845 76.73349 84.12267 76.79556 84.09688 76.85764 84.07109 76.91972 84.04532 76.9818 84.01952 77.04388 83.99373 77.10596 83.96796 77.16803 83.94217 77.23012 83.91638 77.29219 83.89061 77.35428 83.8648 77.41634 83.83902 77.47842 83.81325 77.54051 83.78746 77.60258 83.76167 77.66467 83.7359 77.72673 83.71011 77.78882 83.68431 77.85089 83.65854 77.91298 83.63275 77.97504 83.60696 78.03712 83.58118 78.09921 83.5554 78.16129 83.5296 78.22337 83.50381 78.28543 83.47804 78.34752 83.45226 78.40959 83.42647 78.47168 83.40068 78.53377 83.37491 78.59583 83.3491 78.65791 83.32333 78.71999 83.29755 78.78207 83.27176 78.84415 83.24599 78.90622 83.22018 78.9683 83.1944 79.03038 83.16862 79.09247 83.14284 79.15454 83.11705 79.21661 83.09126 79.27869 83.06548 79.34077 83.0397 79.40285 83.0139 79.46494 82.98813 79.52701 82.96234 79.58908 82.93655 79.65117 82.91078 79.71324 82.88498 79.77533 82.85919 79.83739 82.83342 79.89948 82.80763 79.96156 82.78185 80.02364 82.75607 80.08572 82.73027 80.14778 82.7045 80.20987 82.67871 80.27194 82.65292 80.33403 82.62714 80.3961 82.60135 80.45818 82.57558 80.52026 82.54977 80.58234 82.52399 80.64442 82.49821 80.7065 82.47243 80.76857 82.44664 80.83064 82.42087 80.89273 82.39507 80.95482 82.36928 81.01689 82.3435 81.07896 82.31772 81.14104 82.29193 81.20313 82.26616 81.2652 82.24036 81.32727 82.21457 81.38934 82.18878 81.45143 82.16301 81.51352 82.13722 81.57559 82.11142 81.63766 82.08566 81.69974 82.05986 81.76183 82.03407 81.8239 82.0083 81.88599 81.98251 81.94806 81.95673 82.01013 81.93094 82.07222 81.90515 82.1343 81.87936 82.19638 81.85359 82.25844 81.8278 82.32053 81.80202 82.3826 81.77623 82.44469 81.75046 82.50677 81.72466 82.56883 81.69887 82.63092 81.6731 82.693 81.64731 82.75508 81.62152 82.81715 81.59573 82.87923 81.56995 82.94131 81.54416 83.00339 81.51839 83.06548 81.4926 83.12755 81.46681 83.18962 81.44102 83.2517 81.41525 83.31378 81.38945 83.37587 81.36368 83.43794 81.33789 83.50002 81.3121 83.56209 81.28633 83.62418 81.26053 83.68625 81.23474 83.74834 81.20895 83.8104 81.18318 83.87248 81.1574 83.93457 81.1316 83.99664 81.10582 84.05873 81.08003 84.12079 81.05424 84.18288 81.02847 84.24495 81.00269 84.30704 80.9769 84.36913 80.95113 84.43118 80.92532 84.49327 80.89954 84.55534 80.87376 84.61743 80.84798 84.67949 80.82217 84.74158 80.79642 84.80365 80.77061 84.86574 80.74483 84.92783 80.71904 84.98988 80.69327 85.05197 80.66748 85.11404 80.6417"/>
<path transform="matrix(1.00003,0,0,-1.00006,2.0964967,163.19083)" stroke-width="1.49442" stroke-linecap="butt" stroke-miterlimit="10" stroke-linejoin="miter" fill="none" stroke="#0000ff" d="M84.87132 81.09761 84.90204 80.99455 84.93277 80.8918 84.96352 80.78929 84.99423 80.68703 85.02498 80.58505 85.05571 80.48332 85.08646 80.38185 85.11717 80.28065 85.14792 80.1797 85.17865 80.07901 85.2094 79.97856 85.24011 79.87839 85.27086 79.77847 85.30159 79.67882 85.33234 79.57942 85.36305 79.48027 85.3938 79.3814 85.42453 79.28276 85.45526 79.1844 85.486 79.08627 85.51672 78.98843 85.54747 78.89084 85.5782 78.79352 85.60893 78.69644 85.63966 78.59964 85.67041 78.50307 85.70114 78.40677 85.73187 78.31073 85.7626 78.21495 85.79335 78.11943 85.82408 78.02415 85.85481 77.92915 85.88554 77.83441 85.91629 77.73991 85.94702 77.64569 85.97775 77.55171 86.00848 77.45801 86.03922 77.36455 86.06995 77.27136 86.10068 77.17842 86.13142 77.08574 86.16216 76.99332 86.1929 76.90115 86.22362 76.80925 86.25436 76.7176 86.2851 76.62622 86.31583 76.5351 86.34656 76.44421 86.3773 76.35362 86.40804 76.26326 86.43878 76.17316 86.4695 76.08333 86.50024 75.99376 86.53098 75.90443 86.5617 75.81537 86.59244 75.72656 86.62317 75.63803 86.65392 75.54974 86.68463 75.46172 86.71538 75.37396 86.74611 75.28644 86.77686 75.19919 86.80757 75.1122 86.83832 75.02547 86.86905 74.939 86.8998 74.85277 86.93051 74.76682 86.96126 74.68112 86.99199 74.59567 87.02274 74.5105 87.05345 74.42557 87.0842 74.34091 87.11493 74.2565 87.14566 74.17235 87.17639 74.08846 87.20712 74.00484 87.23787 73.92145 87.2686 73.83835 87.29933 73.7555 87.33006 73.67288 87.36081 73.59055 87.39154 73.50847 87.42227 73.42665 87.453 73.34508 87.48375 73.26378 87.51448 73.18274 87.54521 73.10196 87.57594 73.02142 87.60669 72.94115 87.63742 72.86115 87.66815 72.78137 87.69888 72.70189 87.72961 72.62265 87.76036 72.54369 87.79108 72.46495 87.82182 72.38649 87.85255 72.30829 87.8833 72.23035 87.91402 72.15266 87.94476 72.07524 87.9755 71.99806 88.00624 71.92116 88.03696 71.84451 88.0677 71.76811 88.09843 71.69197 88.12917 71.6161 88.1599 71.54048 88.19064 71.46513 88.22137 71.39003 88.25212 71.3152 88.28284 71.2406 88.31357 71.16628 88.34431 71.09221 88.37503 71.0184 88.40578 70.94485 88.43651 70.87157 88.46725 70.79854 88.49797 70.72577 88.52872 70.65326 88.55945 70.58098 88.5902 70.50899 88.62091 70.43726 88.65166 70.36577 88.68239 70.29456 88.71313 70.22359 88.74385 70.15288 88.7746 70.08243 88.80533 70.01225 88.83606 69.94232 88.86679 69.87265 88.89752 69.80324 88.92827 69.73409 88.959 69.66519 88.98973 69.59654 89.02046 69.52817 89.05121 69.46005 89.08194 69.3922 89.11267 69.32458 89.1434 69.25725 89.17415 69.19016 89.20488 69.1233 89.23561 69.05676 89.26634 68.99045 89.29709 68.9244 89.32782 68.8586 89.35855 68.79306 89.38928 68.72778 89.42001 68.66277 89.45076 68.598 89.48148 68.53351 89.51222 68.46927 89.54295 68.40527 89.5737 68.34155 89.60442 68.27808 89.63516 68.21489 89.6659 68.15193 89.69664 68.08925 89.72736 68.02681 89.7581 67.96463 89.78883 67.90271 89.81958 67.84105 89.8503 67.77965 89.88104 67.7185 89.91177 67.65762 89.94252 67.59702 89.97324 67.53665 90.00397 67.47655 90.03471 67.41669 90.06543 67.35712 90.09618 67.29778 90.1269 67.23871 90.15765 67.17989 90.18839 67.12134 90.21912 67.06303 90.24985 67.005 90.2806 66.94722 90.31131 66.8897 90.34206 66.83243 90.37279 66.77544 90.40353 66.71869 90.43427 66.6622 90.465 66.60597 90.49573 66.55 90.52646 66.4943 90.55719 66.43884 90.58792 66.38364 90.61867 66.3287 90.6494 66.27403 90.68013 66.21962 90.71086 66.16545 90.74161 66.11154 90.77234 66.0579 90.80307 66.00452 90.8338 65.95139 90.86455 65.89853 90.89528 65.84592 90.92601 65.79356 90.95674 65.74149 90.98749 65.68964 91.01822 65.63806 91.04895 65.58676 91.07968 65.53569 91.11041 65.48488 91.14116 65.43436 91.17188 65.38406 91.20262 65.33403 91.23335 65.28429 91.2641 65.23477 91.29482 65.18553 91.32556 65.13654 91.3563 65.0878 91.38704 65.03934 91.41776 64.9911 91.4485 64.94315 91.47923 64.89546 91.50998 64.848 91.5407 64.80084 91.57144 64.7539 91.60217 64.70726 91.63292 64.66084 91.66364 64.61472 91.69437 64.56882 91.72511 64.5232 91.75584 64.47781 91.78658 64.4327 91.8173 64.38785 91.84805 64.34325 91.87877 64.29892 91.90952 64.25484 91.94025 64.21101 91.971 64.16745 92.00172 64.12416 92.03246 64.0811 92.06319 64.03833 92.09393 63.99579 92.12465 63.95354 92.1554 63.91151 92.18613 63.86977 92.21686 63.82828 92.24759 63.78703 92.27832 63.74606 92.30907 63.70534 92.3398 63.66489 92.37053 63.62468 92.40126 63.58475 92.432 63.54507 92.46274 63.50563 92.49347 63.46648 92.5242 63.42755 92.55495 63.38892 92.58568 63.35052 92.61641 63.3124 92.64714 63.27452 92.67789 63.2369 92.70862 63.19954 92.73935 63.16245 92.77008 63.1256 92.80081 63.08902 92.83156 63.0527 92.86227 63.01663 92.89302 62.98083 92.92375 62.94528 92.9545 62.90999 92.98521 62.87497 93.01596 62.8402 93.04669 62.80568 93.07744 62.77142 93.10815 62.73743 93.1389 62.7037 93.16963 62.67021 93.20038 62.637 93.2311 62.60403 93.26184 62.57132 93.29257 62.53888 93.32332 62.5067 93.35403 62.47478 93.38477 62.44308 93.41551 62.41168 93.44624 62.38054 93.47697 62.34964 93.5077 62.319 93.53845 62.28862 93.56918 62.25851 93.59991 62.22865 93.63065 62.19904 93.66139 62.1697 93.69211 62.14063 93.72285 62.1118 93.75359 62.08324 93.78433 62.05492 93.81506 62.02686 93.8458 61.99907 93.87653 61.97154 93.90726 61.94427 93.93799 61.91725 93.96872 61.8905 93.99947 61.86398 94.0302 61.83775 94.06093 61.81177 94.09166 61.78604 94.1224 61.76059 94.15314 61.73538 94.18387 61.71043 94.2146 61.68575 94.24535 61.66132 94.27608 61.63713 94.30681 61.61322 94.33754 61.58955 94.36829 61.56616 94.39902 61.54303 94.42975 61.52014 94.46048 61.49753 94.49121 61.47517 94.52196 61.45306 94.55267 61.43121 94.58342 61.40964 94.61415 61.3883 94.6449 61.36723 94.67561 61.34642 94.70636 61.32587 94.73709 61.30557 94.76784 61.28554 94.79855 61.26576 94.8293 61.24625 94.86003 61.22697 94.89078 61.20798 94.9215 61.18924 94.95224 61.17075 94.98297 61.15253 95.01372 61.13455 95.04443 61.11684 95.07516 61.0994 95.10591 61.0822 95.13664 61.06526 95.16737 61.04858 95.1981 61.03217 95.22885 61.016 95.25958 61.0001 95.29031 60.98447 95.32104 60.96907 95.35179 60.95396 95.38252 60.9391 95.41325 60.92448 95.44398 60.91014 95.47473 60.89604 95.50546 60.88222 95.5362 60.86864 95.56693 60.85532 95.59766 60.84229 95.6284 60.82948 95.65912 60.81694 95.68987 60.80466 95.7206 60.79263 95.75134 60.78087 95.78206 60.76935 95.8128 60.75812 95.84354 60.74713 95.87427 60.73639 95.905 60.72592 95.93575 60.71571 95.96648 60.70576 95.99722 60.69606 96.02794 60.68663 96.05869 60.67744 96.08942 60.66853 96.12015 60.65987 96.15088 60.65146 96.18161 60.64331 96.21236 60.63544 96.24307 60.6278 96.27382 60.62044 96.30455 60.61333 96.3353 60.60648 96.36601 60.59988 96.39676 60.59354 96.42749 60.58746 96.45824 60.58165 96.48895 60.5761 96.5197 60.57079 96.55043 60.56575 96.58118 60.56096 96.6119 60.55644 96.64264 60.55219 96.67337 60.54817 96.70412 60.5444 96.73483 60.54092 96.76556 60.53769 96.79631 60.53471 96.82704 60.532 96.85777 60.52954 96.8885 60.52734 96.91925 60.5254 96.94998 60.52373 96.98071 60.5223 97.01144 60.52113 97.04219 60.52022 97.07292 60.51959 97.10365 60.5192 97.13438 60.51907"/>
<path transform="matrix(1.00003,0,0,-1.00006,2.0964967,163.19083)" stroke-width="1.49442" stroke-linecap="butt" stroke-miterlimit="10" stroke-linejoin="miter" fill="none" stroke="#0000ff" d="M97.13455 60.51907 97.16573 60.519 97.19693 60.5188 97.22812 60.51846 97.25932 60.51799 97.29051 60.5174 97.3217 60.51666 97.35289 60.5158 97.38408 60.5148 97.41527 60.51367 97.44647 60.5124 97.47766 60.51102 97.50885 60.50948 97.54005 60.50781 97.57124 60.50601 97.60243 60.50407 97.63362 60.50203 97.66481 60.49982 97.69601 60.4975 97.7272 60.49504 97.75839 60.49243 97.7896 60.4897 97.82077 60.48685 97.85196 60.48384 97.88316 60.48071 97.91435 60.47746 97.94554 60.47406 97.97675 60.47054 98.00793 60.46686 98.03912 60.46307 98.07031 60.45915 98.1015 60.45508 98.1327 60.45088 98.1639 60.44656 98.19508 60.44211 98.22629 60.43752 98.25746 60.43279 98.28865 60.42793 98.31985 60.42293 98.35104 60.4178 98.38225 60.41255 98.41344 60.40717 98.44463 60.40163 98.47581 60.39598 98.507 60.39018 98.5382 60.38426 98.5694 60.3782 98.60059 60.37202 98.63177 60.36569 98.66296 60.35924 98.69415 60.35263 98.72534 60.34592 98.75655 60.33907 98.78773 60.33206 98.81894 60.32495 98.85013 60.31769 98.8813 60.3103 98.9125 60.30278 98.9437 60.29514 98.97488 60.28732 99.00609 60.2794 99.03728 60.27136 99.06847 60.26317 99.09966 60.25485 99.13084 60.24638 99.16205 60.23782 99.19324 60.2291 99.22443 60.22025 99.25563 60.21124 99.2868 60.20213 99.318 60.19289 99.3492 60.18349 99.38039 60.17397 99.41158 60.16432 99.44278 60.15454 99.47397 60.1446 99.50516 60.13457 99.53635 60.12437 99.56754 60.11406 99.59874 60.1036 99.62993 60.09302 99.66112 60.08232 99.69232 60.07146 99.7235 60.06047 99.75468 60.04936 99.78589 60.0381 99.81708 60.02672 99.84827 60.01521 99.87947 60.00356 99.91064 59.99178 99.94185 59.97986 99.97304 59.96782 100.00423 59.95563 100.03543 59.94331 100.06662 59.93088 100.09781 59.91829 100.129 59.90558 100.16019 59.89272 100.19138 59.87975 100.22258 59.86662 100.25377 59.85338 100.28497 59.84 100.31615 59.82648 100.34734 59.81285 100.37854 59.79906 100.40973 59.78514 100.44092 59.7711 100.47212 59.75691 100.50331 59.74261 100.53448 59.72816 100.56569 59.7136 100.59688 59.69888 100.62807 59.68404 100.65927 59.66905 100.69046 59.65395 100.72165 59.6387 100.75284 59.62332 100.78403 59.60782 100.81523 59.59218 100.84642 59.5764 100.87761 59.56047 100.90881 59.54443 100.93999 59.52826 100.97118 59.51195 101.00238 59.4955 101.03357 59.47893 101.06477 59.46222 101.09596 59.44539 101.12714 59.42842 101.15834 59.4113 101.18953 59.39406 101.22072 59.37668 101.25192 59.35918 101.28311 59.34154 101.3143 59.32376 101.34549 59.30586 101.37668 59.28781 101.40788 59.26965 101.43907 59.25134 101.47026 59.23291 101.50146 59.21432 101.53265 59.19562 101.56383 59.17677 101.59503 59.1578 101.62622 59.13872 101.65741 59.11946 101.68861 59.1001 101.7198 59.0806 101.75098 59.06096 101.78218 59.0412 101.81337 59.02127 101.84457 59.00124 101.87576 58.98106 101.90695 58.96077 101.93816 58.94032 101.96933 58.91975 102.00052 58.89906 102.03172 58.87823 102.06291 58.85727 102.0941 58.83617 102.1253 58.81493 102.1565 58.79355 102.18768 58.77206 102.21887 58.75041 102.25006 58.72865 102.28127 58.70676 102.31245 58.68472 102.34364 58.66254 102.37483 58.64024 102.40602 58.61781 102.43721 58.59525 102.46841 58.57254 102.4996 58.54971 102.53079 58.52675 102.562 58.50365 102.59317 58.48042 102.62437 58.45706 102.65556 58.43355 102.68675 58.40991 102.71796 58.38615 102.74915 58.36226 102.78033 58.33823 102.81152 58.31407 102.84271 58.28978 102.8739 58.26534 102.9051 58.24078 102.9363 58.21608 102.9675 58.19125 102.99867 58.16629 103.02986 58.14119 103.06107 58.11595 103.09225 58.09059 103.12344 58.06511 103.15465 58.03947 103.18584 58.0137 103.21701 57.98782 103.24821 57.96179 103.2794 57.93562 103.31061 57.90933 103.3418 57.8829 103.37299 57.85635 103.40417 57.82965 103.43536 57.80283 103.46655 57.77586 103.49776 57.74876 103.52895 57.72154 103.56013 57.6942 103.59134 57.66669 103.62251 57.63907 103.6537 57.61131 103.6849 57.58342 103.7161 57.55539 103.7473 57.52722 103.77849 57.49893 103.80966 57.4705 103.84087 57.44196 103.87206 57.41327 103.90324 57.38445 103.93445 57.35548 103.96564 57.3264 103.99681 57.29718 104.02802 57.26782 104.0592 57.23833 104.09041 57.2087 104.1216 57.17896 104.15279 57.14906 104.18399 57.11903 104.21516 57.08888 104.24635 57.0586 104.27756 57.02818 104.30875 56.99762 104.33994 56.96693 104.37114 56.93611 104.40233 56.90517 104.4335 56.87407 104.4647 56.84285 104.4959 56.8115 104.5271 56.78 104.55829 56.74838 104.58948 56.71664 104.62067 56.68475 104.65186 56.65274 104.68304 56.62057 104.71425 56.58829 104.74544 56.55586 104.77663 56.52332 104.80783 56.49063 104.839 56.45781 104.87021 56.42487 104.9014 56.39178 104.93259 56.35858 104.96379 56.32521 104.99498 56.29173 105.02617 56.25812 105.05736 56.22437 105.08855 56.19049 105.11974 56.15646 105.15094 56.12231 105.18213 56.08804 105.21333 56.05362 105.2445 56.01907 105.2757 55.98439 105.3069 55.94957 105.33809 55.91463 105.36928 55.87955 105.40048 55.84433 105.43167 55.80898 105.46284 55.7735 105.49405 55.7379 105.52524 55.70213 105.55643 55.66626 105.58763 55.63025 105.61882 55.5941 105.65002 55.55783 105.6812 55.52141 105.71239 55.48486 105.74359 55.4482 105.77478 55.41138 105.80597 55.37444 105.83717 55.33736 105.86836 55.30014 105.89954 55.26279 105.93074 55.22531 105.96193 55.1877 105.99313 55.14996 106.02432 55.11209 106.05551 55.07407 106.0867 55.03593 106.11789 54.99765 106.14908 54.95924 106.18028 54.9207 106.21147 54.88202 106.24266 54.84322 106.27386 54.80428 106.30504 54.7652 106.33623 54.72598 106.36743 54.68665 106.39862 54.64717 106.42982 54.60756 106.46101 54.56783 106.49219 54.52795 106.52339 54.48795 106.55458 54.44781 106.58577 54.40752 106.61697 54.36711 106.64816 54.32658 106.67934 54.2859 106.71054 54.2451 106.74173 54.20416 106.77293 54.16309 106.80412 54.12187 106.83531 54.08055 106.86652 54.03908 106.89769 53.99747 106.92888 53.95573 106.96008 53.91386 106.99127 53.87186 107.02246 53.82973 107.05367 53.78745 107.08484 53.74506 107.11604 53.70251 107.14723 53.65985 107.17842 53.61703 107.20963 53.57411 107.24081 53.53104 107.272 53.48784 107.30319 53.44449 107.33438 53.40103 107.36557 53.35742 107.39677 53.31369 107.42796 53.26982 107.45915 53.22581 107.49036 53.18169 107.52153 53.13742 107.55273 53.093 107.58392 53.04848 107.61511 53.00381 107.64632 52.95901 107.6775 52.91408 107.70868 52.869 107.73988 52.8238 107.77107 52.77847 107.80226 52.73302 107.83347 52.68742 107.86465 52.6417 107.89586 52.59581 107.92703 52.54982 107.95822 52.5037 107.98943 52.45743 108.02061 52.41103 108.0518 52.3645 108.08301 52.31783 108.1142 52.27104 108.14537 52.2241 108.17657 52.17705 108.20776 52.12984 108.23895 52.08252 108.27016 52.03505 108.30135 51.98746 108.33253 51.93973 108.36372 51.89188 108.39491 51.84386 108.42612 51.79575 108.4573 51.74748 108.4885 51.69908 108.5197 51.65056 108.55087 51.6019 108.58206 51.55312 108.61327 51.50418 108.64445 51.45512 108.67566 51.40593 108.70685 51.3566 108.73804 51.30713 108.76923 51.25754 108.80042 51.20781 108.8316 51.15794 108.86281 51.10797 108.894 51.05785 108.92519 51.00758 108.95638 50.95718 108.98756 50.90666 109.01877 50.856 109.04996 50.80522 109.08115 50.75429 109.11235 50.70323 109.14354 50.65204 109.17471 50.60072 109.20592 50.54926 109.2371 50.49767 109.2683 50.44595 109.2995 50.39409 109.33069 50.3421 109.36186 50.28996 109.39307 50.23773 109.42426 50.18533 109.45546 50.13283 109.48665 50.08014 109.51784 50.02739 109.54904 49.97446 109.58022 49.92139"/>
<path transform="matrix(1.00003,0,0,-1.00006,2.0964967,163.19083)" stroke-width="1.49442" stroke-linecap="butt" stroke-miterlimit="10" stroke-linejoin="miter" fill="none" stroke="#0000ff" d="M108.97282 49.9219 109.00401 49.97498 109.0352 50.02788 109.0664 50.08069 109.09758 50.13332 109.12878 50.18584 109.15997 50.23827 109.19116 50.2905 109.22237 50.34262 109.25356 50.39459 109.28473 50.44646 109.31593 50.49818 109.34712 50.54976 109.37831 50.60123 109.40952 50.65254 109.4407 50.70374 109.4719 50.75479 109.50308 50.80573 109.53427 50.8565 109.56548 50.90717 109.59666 50.95767 109.62785 51.00807 109.65904 51.05833 109.69023 51.10844 109.72142 51.15845 109.75262 51.2083 109.78381 51.25803 109.81502 51.30762 109.84619 51.35709 109.87738 51.40639 109.90858 51.45558 109.93977 51.50464 109.97096 51.55357 110.00217 51.60236 110.03334 51.65103 110.06453 51.69955 110.09573 51.74796 110.12692 51.7962 110.15811 51.84433 110.18932 51.89232 110.22049 51.9402 110.2517 51.98792 110.28288 52.0355 110.31407 52.08298 110.34528 52.1303 110.37646 52.1775 110.40764 52.22456 110.43884 52.2715 110.47003 52.31828 110.50122 52.36494 110.53242 52.41147 110.56361 52.45787 110.5948 52.50414 110.62599 52.55026 110.65718 52.59627 110.68839 52.64212 110.71957 52.68787 110.75076 52.73344 110.78195 52.77892 110.81314 52.82425 110.84433 52.86945 110.87553 52.9145 110.90672 52.95944 110.93791 53.00424 110.96912 53.0489 111.00029 53.09343 111.0315 53.13783 111.06268 53.18211 111.09387 53.22624 111.12508 53.27023 111.15627 53.3141 111.18744 53.35785 111.21864 53.40144 111.24983 53.4449 111.28102 53.48825 111.31223 53.53143 111.34341 53.57451 111.3746 53.61745 111.40579 53.66023 111.43698 53.70291 111.46819 53.74545 111.49937 53.78784 111.53056 53.83012 111.56175 53.87227 111.59294 53.91426 111.62413 53.95613 111.65533 53.99786 111.68652 54.03947 111.71773 54.08093 111.7489 54.12227 111.78009 54.16348 111.8113 54.20454 111.84248 54.24548 111.87367 54.28629 111.90488 54.32697 111.93605 54.3675 111.96724 54.4079 111.99844 54.44817 112.02963 54.48833 112.06082 54.52832 112.09203 54.56819 112.1232 54.60793 112.1544 54.64755 112.1856 54.68701 112.21678 54.72635 112.24799 54.76556 112.27917 54.80464 112.31035 54.84358 112.34155 54.88239 112.37274 54.92107 112.40393 54.9596 112.43513 54.99802 112.46632 55.03627 112.49751 55.07442 112.5287 55.11244 112.55989 55.15031 112.5911 55.18805 112.62228 55.22566 112.65347 55.26314 112.68466 55.30049 112.71585 55.33769 112.74704 55.37477 112.77824 55.41171 112.80943 55.44852 112.84062 55.48521 112.87183 55.52174 112.903 55.55817 112.9342 55.59444 112.9654 55.63058 112.99658 55.6666 113.02779 55.70247 113.05898 55.73822 113.09015 55.77383 113.12135 55.80931 113.15254 55.84465 113.18373 55.87987 113.21494 55.91495 113.24612 55.94989 113.27731 55.9847 113.3085 56.0194 113.33969 56.05392 113.3709 56.08835 113.40208 56.12262 113.43327 56.15677 113.46446 56.1908 113.49565 56.22467 113.52684 56.25842 113.55804 56.29204 113.58923 56.32553 113.62044 56.35887 113.65161 56.39207 113.6828 56.42516 113.714 56.45811 113.7452 56.49094 113.77638 56.52362 113.80759 56.55617 113.83876 56.58858 113.86995 56.62086 113.90115 56.65303 113.93234 56.68504 113.96353 56.71692 113.99474 56.74867 114.02591 56.78029 114.05711 56.81178 114.0883 56.84312 114.11949 56.87434 114.1507 56.90544 114.18188 56.93639 114.21306 56.96721 114.24426 56.9979 114.27545 57.02846 114.30664 57.05887 114.33784 57.08916 114.36903 57.11931 114.40022 57.14932 114.43141 57.17921 114.4626 57.20897 114.4938 57.23859 114.525 57.26808 114.55618 57.29744 114.58739 57.32666 114.61856 57.35574 114.64975 57.38469 114.68095 57.41351 114.71214 57.44221 114.74333 57.47076 114.77454 57.49919 114.80571 57.52748 114.83691 57.55563 114.8681 57.58366 114.89929 57.61156 114.9305 57.63931 114.96169 57.66693 114.99286 57.69441 115.02406 57.72179 115.05525 57.74901 115.08644 57.7761 115.11765 57.80305 115.14883 57.82988 115.18002 57.85658 115.21121 57.88313 115.2424 57.90956 115.2736 57.93585 115.3048 57.96202 115.33598 57.98805 115.36717 58.01393 115.39836 58.0397 115.42955 58.06532 115.46075 58.0908 115.49194 58.11618 115.52315 58.1414 115.55432 58.1665 115.58551 58.19147 115.61671 58.2163 115.6479 58.241 115.6791 58.26555 115.7103 58.28998 115.74147 58.31429 115.77266 58.33844 115.80386 58.36247 115.83505 58.38637 115.86624 58.41013 115.89745 58.43375 115.92862 58.45726 115.95982 58.48062 115.99101 58.50385 116.0222 58.52695 116.0534 58.54991 116.0846 58.57274 116.11577 58.59544 116.14697 58.618 116.17816 58.64044 116.20935 58.66273 116.24055 58.6849 116.27174 58.70692 116.30293 58.72884 116.33412 58.75061 116.36531 58.77223 116.39651 58.79373 116.4277 58.81511 116.4589 58.83633 116.4901 58.85744 116.52127 58.8784 116.55246 58.89923 116.58366 58.91994 116.61485 58.9405 116.64604 58.96094 116.67725 58.98125 116.70842 59.0014 116.73962 59.02144 116.77081 59.04137 116.802 59.06113 116.8332 59.08076 116.8644 59.10027 116.89557 59.11963 116.92677 59.13887 116.95796 59.15797 116.98915 59.17694 117.02036 59.19579 117.05154 59.21448 117.08273 59.23306 117.11392 59.2515 117.14511 59.2698 117.17632 59.28796 117.2075 59.30602 117.2387 59.32391 117.26988 59.34169 117.30107 59.35933 117.33226 59.37683 117.36346 59.39421 117.39465 59.41145 117.42586 59.42856 117.45703 59.44553 117.48822 59.46236 117.51942 59.47906 117.55061 59.49564 117.5818 59.51208 117.613 59.5284 117.64418 59.54457 117.67537 59.56061 117.70657 59.57652 117.73776 59.5923 117.76895 59.60794 117.80016 59.62344 117.83133 59.63882 117.86253 59.65408 117.89372 59.66917 117.92491 59.68416 117.95612 59.699 117.9873 59.71371 118.01848 59.72829 118.04968 59.74274 118.08087 59.75703 118.11206 59.77122 118.14326 59.78526 118.17445 59.79918 118.20564 59.81296 118.23683 59.8266 118.26802 59.84012 118.29922 59.8535 118.33041 59.86673 118.3616 59.87985 118.3928 59.89282 118.42398 59.90567 118.45517 59.9184 118.48637 59.93097 118.51756 59.94342 118.54877 59.95573 118.57996 59.96791 118.61113 59.97997 118.64233 59.99188 118.67352 60.00365 118.70471 60.0153 118.73592 60.02681 118.7671 60.0382 118.79828 60.04945 118.82948 60.06056 118.86067 60.07155 118.89186 60.0824 118.92307 60.09311 118.95425 60.10368 118.98544 60.11415 119.01663 60.12445 119.04782 60.13464 119.07903 60.14468 119.11021 60.15462 119.1414 60.1644 119.17259 60.17404 119.20378 60.18356 119.23497 60.19296 119.26617 60.2022 119.29736 60.21132 119.32857 60.2203 119.35974 60.22917 119.39093 60.23788 119.42213 60.24646 119.45332 60.25491 119.48451 60.26323 119.51572 60.27142 119.54689 60.27948 119.57808 60.2874 119.60928 60.29518 119.64047 60.30284 119.67166 60.31036 119.70287 60.31775 119.73404 60.325 119.76524 60.33212 119.79643 60.33911 119.82762 60.34598 119.85883 60.35269 119.89001 60.35928 119.92119 60.36574 119.9524 60.37207 119.98358 60.37825 120.01477 60.38431 120.04597 60.39023 120.07716 60.39603 120.10835 60.40167 120.13954 60.4072 120.17073 60.4126 120.20193 60.41785 120.23312 60.42297 120.26431 60.42796 120.29552 60.43283 120.32669 60.43756 120.35788 60.44215 120.38908 60.4466 120.42027 60.45093 120.45148 60.45511 120.48267 60.45918 120.51384 60.4631 120.54504 60.46689 120.57623 60.47057 120.60742 60.47409 120.63863 60.47748 120.66982 60.48074 120.70099 60.48387 120.7322 60.48688 120.76338 60.48973 120.79457 60.49245 120.82578 60.49506 120.85696 60.49751 120.88815 60.49983 120.91934 60.50204 120.95053 60.50409 120.98174 60.50603 121.01292 60.50781 121.04411 60.50949 121.0753 60.51102 121.10649 60.5124 121.13768 60.51367 121.16888 60.51482 121.20007 60.5158 121.23128 60.51666 121.26245 60.5174 121.29364 60.518 121.32484 60.51846 121.35603 60.5188 121.38722 60.519 121.41843 60.51907"/>
<path transform="matrix(1.00003,0,0,-1.00006,2.0964967,163.19083)" stroke-width="1.49442" stroke-linecap="butt" stroke-miterlimit="10" stroke-linejoin="miter" fill="none" stroke="#0000ff" d="M121.4182 60.51907 121.44891 60.5192 121.47966 60.51958 121.51039 60.52022 121.54112 60.52112 121.57185 60.5223 121.6026 60.52373 121.63333 60.52539 121.66406 60.52734 121.6948 60.52953 121.72552 60.53198 121.75627 60.5347 121.78699 60.53767 121.81773 60.5409 121.84846 60.54439 121.87921 60.54816 121.90993 60.55215 121.94067 60.55643 121.9714 60.56093 122.00214 60.56572 122.03287 60.57077 122.06361 60.57607 122.09435 60.58162 122.12508 60.58743 122.1558 60.5935 122.18655 60.59985 122.21729 60.60643 122.24802 60.6133 122.27875 60.62039 122.30948 60.62776 122.34023 60.63539 122.37094 60.64326 122.40169 60.65141 122.43242 60.65982 122.46315 60.66847 122.49388 60.6774 122.52463 60.68658 122.55536 60.69601 122.58609 60.7057 122.61682 60.71567 122.64757 60.72588 122.6783 60.73633 122.70903 60.74707 122.73976 60.75806 122.77051 60.76929 122.80124 60.7808 122.83195 60.79257 122.8627 60.8046 122.89343 60.81686 122.92416 60.8294 122.9549 60.84221 122.98564 60.85526 123.01637 60.86856 123.0471 60.88214 123.07784 60.89597 123.10858 60.91006 123.13931 60.92441 123.17004 60.93901 123.20078 60.95387 123.23152 60.969 123.26225 60.98439 123.29298 61.00003 123.32372 61.01591 123.35446 61.03207 123.38518 61.0485 123.41591 61.06517 123.44666 61.0821 123.47739 61.0993 123.50812 61.11673 123.53885 61.13445 123.5696 61.15242 123.60033 61.17064 123.63106 61.18913 123.66179 61.20787 123.69254 61.22687 123.72327 61.24614 123.754 61.26564 123.78473 61.28542 123.81548 61.30545 123.84619 61.32574 123.87694 61.3463 123.90767 61.36711 123.93842 61.38818 123.96913 61.40952 123.99986 61.43109 124.03061 61.45294 124.06134 61.47505 124.09207 61.4974 124.1228 61.52003 124.15355 61.54291 124.18428 61.56602 124.21501 61.58943 124.24574 61.61308 124.27649 61.637 124.3072 61.66116 124.33795 61.6856 124.36868 61.71028 124.39943 61.73523 124.43015 61.76044 124.46089 61.78589 124.49162 61.81161 124.52235 61.8376 124.55309 61.86383 124.58382 61.89034 124.61456 61.9171 124.6453 61.94412 124.67603 61.97139 124.70676 61.99892 124.7375 62.0267 124.76822 62.05476 124.79897 62.08307 124.8297 62.11163 124.86044 62.14046 124.89116 62.16953 124.9219 62.19887 124.95264 62.22847 124.98338 62.25833 125.0141 62.28844 125.04485 62.31883 125.07558 62.34946 125.10631 62.38036 125.13704 62.4115 125.16777 62.4429 125.19852 62.47458 125.22923 62.5065 125.25998 62.5387 125.29071 62.57114 125.32146 62.60384 125.35217 62.6368 125.38292 62.67001 125.41365 62.70349 125.4444 62.73723 125.47511 62.77122 125.50586 62.80548 125.53659 62.83998 125.56734 62.87476 125.59805 62.90977 125.6288 62.94508 125.65953 62.98062 125.69025 63.01642 125.721 63.05247 125.75172 63.0888 125.78247 63.12538 125.81319 63.16222 125.84393 63.19931 125.87466 63.23666 125.90541 63.27429 125.93613 63.31216 125.96687 63.35028 125.9976 63.38869 126.02835 63.42732 126.05907 63.46623 126.08981 63.5054 126.12054 63.54483 126.15128 63.5845 126.182 63.62444 126.21275 63.66464 126.24348 63.7051 126.2742 63.7458 126.30495 63.78679 126.33568 63.82802 126.36642 63.8695 126.39714 63.91127 126.42789 63.95328 126.45862 63.99553 126.48936 64.03807 126.52008 64.08084 126.55083 64.12389 126.58156 64.16719 126.6123 64.21075 126.64302 64.25458 126.67377 64.29865 126.7045 64.34297 126.73523 64.38757 126.76596 64.43242 126.79669 64.47752 126.82744 64.5229 126.85815 64.56853 126.8889 64.61443 126.91963 64.66055 126.95038 64.70697 126.9811 64.75363 127.01184 64.80055 127.04257 64.84773 127.07332 64.89516 127.10403 64.94286 127.13478 64.9908 127.16551 65.03903 127.19624 65.0875 127.22697 65.13623 127.25772 65.18521 127.28845 65.23447 127.31918 65.28397 127.34991 65.33372 127.38065 65.38374 127.41139 65.43404 127.44211 65.48457 127.47285 65.53537 127.50359 65.58643 127.53433 65.63774 127.56505 65.6893 127.5958 65.74115 127.62653 65.79323 127.65726 65.84558 127.68799 65.8982 127.71873 65.95105 127.74947 66.00418 127.7802 66.05756 127.81093 66.1112 127.84167 66.1651 127.8724 66.21927 127.90314 66.27368 127.93387 66.32835 127.9646 66.38329 127.99535 66.43848 128.02606 66.49393 128.05681 66.54964 128.08754 66.6056 128.11827 66.66183 128.149 66.7183 128.17975 66.77505 128.21048 66.83208 128.24121 66.88933 128.27194 66.94684 128.30269 67.00462 128.33342 67.06265 128.36415 67.12096 128.39488 67.1795 128.42563 67.23831 128.45636 67.2974 128.48708 67.35672 128.51782 67.4163 128.54856 67.47615 128.57929 67.53625 128.61002 67.59662 128.64076 67.65723 128.6715 67.71812 128.70223 67.77927 128.73296 67.84067 128.7637 67.9023 128.79444 67.96422 128.82517 68.0264 128.8559 68.08882 128.88665 68.1515 128.91738 68.21446 128.9481 68.27766 128.97884 68.34113 129.00959 68.40485 129.0403 68.46884 129.07103 68.53308 129.10178 68.59758 129.1325 68.66232 129.16324 68.72734 129.19397 68.79262 129.22472 68.85815 129.25545 68.92395 129.28618 68.99 129.31691 69.0563 129.34766 69.12286 129.37839 69.1897 129.40912 69.25679 129.43985 69.32413 129.4706 69.39174 129.50131 69.45958 129.53206 69.5277 129.56279 69.59608 129.59354 69.66472 129.62425 69.73361 129.65499 69.80276 129.68573 69.87218 129.71646 69.94185 129.7472 70.01176 129.77793 70.08197 129.80867 70.15239 129.8394 70.2231 129.87014 70.29407 129.90087 70.36528 129.93161 70.43677 129.96233 70.5085 129.99308 70.58049 130.0238 70.65276 130.05455 70.72527 130.08527 70.79803 130.11602 70.87106 130.14675 70.94435 130.17748 71.0179 130.2082 71.0917 130.23894 71.16577 130.26969 71.2401 130.30042 71.31468 130.33115 71.38951 130.36188 71.46461 130.39263 71.53998 130.42334 71.61559 130.45409 71.69145 130.48482 71.7676 130.51557 71.84398 130.54628 71.92062 130.57703 71.99753 130.60776 72.0747 130.6385 72.15213 130.66922 72.22981 130.69997 72.30774 130.7307 72.38594 130.76143 72.4644 130.79216 72.54312 130.82289 72.62209 130.85364 72.70134 130.88436 72.78084 130.9151 72.86058 130.94583 72.94058 130.97658 73.02086 131.0073 73.10138 131.03804 73.18216 131.06877 73.2632 131.09952 73.34451 131.13024 73.42607 131.16098 73.5079 131.19171 73.58997 131.22246 73.6723 131.25318 73.7549 131.28392 73.83775 131.31465 73.92087 131.34539 74.00424 131.37612 74.08788 131.40685 74.17175 131.43759 74.25589 131.4683 74.3403 131.49906 74.42497 131.52979 74.50989 131.56053 74.59506 131.59125 74.6805 131.622 74.76619 131.65273 74.85216 131.68347 74.93837 131.71419 75.02484 131.74494 75.11157 131.77567 75.19856 131.80641 75.28581 131.83713 75.37332 131.86786 75.46107 131.8986 75.54912 131.92932 75.63739 131.96007 75.72592 131.9908 75.81474 132.02155 75.9038 132.05226 75.9931 132.08301 76.08267 132.11374 76.17252 132.14449 76.2626 132.1752 76.35295 132.20595 76.44357 132.23668 76.53442 132.26743 76.62555 132.29814 76.71695 132.32889 76.80858 132.35962 76.90048 132.39035 76.99265 132.42108 77.08505 132.45182 77.17773 132.48256 77.27068 132.51328 77.36386 132.54402 77.45732 132.57476 77.55103 132.6055 77.64499 132.63622 77.73923 132.66696 77.83371 132.6977 77.92845 132.72844 78.02347 132.75916 78.11871 132.7899 78.21425 132.82064 78.31001 132.85137 78.40607 132.8821 78.50235 132.91284 78.5989 132.94358 78.69572 132.9743 78.79279 133.00504 78.89012 133.03577 78.9877 133.06652 79.08557 133.09723 79.18365 133.12798 79.28203 133.1587 79.38065 133.18946 79.47954 133.22017 79.57867 133.25092 79.67807 133.28165 79.77773 133.31238 79.87766 133.34311 79.97781 133.37386 80.07825 133.40459 80.17894 133.43532 80.27989 133.46605 80.38109 133.4968 80.48256 133.52753 80.58427 133.55826 80.68626 133.58899 80.78848 133.61972 80.89099 133.65047 80.99374 133.68119 81.09677"/>
<path transform="matrix(1.00003,0,0,-1.00006,2.0964967,163.19083)" stroke-width="1.49442" stroke-linecap="butt" stroke-miterlimit="10" stroke-linejoin="miter" fill="none" stroke="#0000ff" d="M133.13504 80.70444 133.19759 80.70108 133.26012 80.69824 133.32265 80.69594 133.38518 80.69418 133.44773 80.69295 133.51024 80.69226 133.57279 80.6921 133.63532 80.69247 133.69785 80.69339 133.76038 80.69482 133.82292 80.69682 133.88545 80.69933 133.94799 80.7024 134.01053 80.70598 134.07305 80.7101 134.13559 80.71475 134.19812 80.71994 134.26065 80.72568 134.32318 80.73193 134.38573 80.73874 134.44826 80.74606 134.51079 80.75394 134.57334 80.76234 134.63587 80.77129 134.6984 80.78075 134.76093 80.79076 134.82347 80.8013 134.88599 80.8124 134.94853 80.824 135.01107 80.83615 135.0736 80.84883 135.13613 80.86205 135.19867 80.87581 135.26119 80.8901 135.32373 80.90492 135.38628 80.92027 135.44879 80.93617 135.51134 80.95259 135.57387 80.96956 135.63642 80.98708 135.69893 81.0051 135.76148 81.02368 135.824 81.04277 135.88654 81.06241 135.94907 81.08258 136.01161 81.1033 136.07415 81.12454 136.13668 81.14633 136.19922 81.16864 136.26174 81.1915 136.32428 81.21489 136.38681 81.2388 136.44934 81.26326 136.51187 81.28825 136.57442 81.31378 136.63694 81.33984 136.69948 81.36644 136.76203 81.39357 136.82456 81.42123 136.88709 81.44945 136.94962 81.47818 137.01216 81.50745 137.07468 81.53726 137.13722 81.56761 137.19976 81.59848 137.26229 81.62988 137.32482 81.66185 137.38736 81.69432 137.44989 81.72734 137.51242 81.7609 137.57497 81.79498 137.63748 81.82959 137.70003 81.86476 137.76256 81.90045 137.82509 81.93668 137.88762 81.97345 137.95017 82.01074 138.0127 82.04858 138.07523 82.08694 138.13777 82.12585 138.2003 82.16528 138.26284 82.20526 138.32537 82.24579 138.38791 82.28682 138.45043 82.3284 138.51297 82.37051 138.5755 82.41318 138.63803 82.45634 138.70056 82.50006 138.7631 82.54431 138.82563 82.58911 138.88817 82.63443 138.95072 82.6803 139.01325 82.7267 139.07578 82.77362 139.1383 82.8211 139.20085 82.8691 139.26337 82.91763 139.32592 82.9667 139.38845 83.01631 139.45098 83.06645 139.5135 83.11713 139.57605 83.16835 139.63858 83.2201 139.70111 83.27237 139.76366 83.32518 139.82617 83.37854 139.88872 83.43242 139.95125 83.48685 140.01378 83.5418 140.07631 83.5973 140.13886 83.65332 140.20139 83.70988 140.26392 83.76698 140.32646 83.82462 140.38899 83.88278 140.45153 83.94148 140.51406 84.00073 140.5766 84.06049 140.63912 84.1208 140.70166 84.18164 140.76419 84.24301 140.82672 84.30493 140.88925 84.36739 140.9518 84.43037 141.01433 84.4939 141.07686 84.55794 141.1394 84.62253 141.20192 84.68765 141.26447 84.75331 141.327 84.8195 141.38954 84.88625 141.45206 84.95349 141.5146 85.0213 141.57714 85.08965 141.63967 85.15851 141.70221 85.2279 141.76474 85.29785 141.82727 85.36833 141.8898 85.43933 141.95235 85.51088 142.01486 85.58296 142.07741 85.65558 142.13994 85.72874 142.20247 85.80241 142.265 85.87663 142.32755 85.95139 142.39006 86.02669 142.4526 86.10251 142.51515 86.17886 142.57769 86.25575 142.64022 86.33319 142.70275 86.41116 142.76529 86.48967 142.8278 86.56871 142.89035 86.64827 142.95288 86.7284 143.01541 86.80902 143.07794 86.8902 143.14049 86.97191 143.20302 87.05417 143.26555 87.13695 143.3281 87.22026 143.39061 87.30412 143.45316 87.3885 143.51569 87.47342 143.57822 87.55888 143.64075 87.64487 143.7033 87.7314 143.76583 87.81847 143.82836 87.90607 143.8909 87.9942 143.95343 88.08287 144.01596 88.17207 144.07849 88.26181 144.14104 88.35208 144.20355 88.4429 144.2661 88.53423 144.32863 88.62611 144.39116 88.71852 144.45369 88.8115 144.51624 88.90497 144.57877 88.999 144.6413 89.09354 144.70384 89.18863 144.76638 89.28426 144.8289 89.38042 144.89144 89.4771 144.95398 89.57434 145.0165 89.6721 145.07904 89.7704 145.14157 89.86923 145.2041 89.96861 145.26665 90.06853 145.32918 90.16896 145.39171 90.26993 145.45424 90.37143 145.51679 90.47348 145.5793 90.57607 145.64185 90.67918 145.70438 90.78285 145.7669 90.88702 145.82944 90.99174 145.89199 91.09702 145.95452 91.2028 146.01705 91.30913 146.07959 91.41597 146.14212 91.52339 146.20465 91.63132 146.26718 91.73976 146.32973 91.8488 146.39225 91.95833 146.45479 92.06837 146.51732 92.17902 146.57985 92.29015 146.64238 92.40181 146.70493 92.51405 146.76746 92.62679 146.82999 92.74005 146.89253 92.85385 146.95505 92.96825 147.0176 93.08311 147.08013 93.19853 147.14267 93.31453 147.20519 93.431 147.26773 93.548 147.33026 93.6656 147.39279 93.7837 147.45534 93.90233 147.51787 94.0215 147.5804 94.1412 147.64293 94.26144 147.70548 94.3822 147.76799 94.50354 147.83054 94.62538 147.89307 94.74776 147.9556 94.8707 148.01813 94.99413 148.08068 95.1181 148.1432 95.2426 148.20574 95.36769 148.26828 95.49326 148.33081 95.61937 148.39334 95.74606 148.45587 95.87326 148.51842 96.00098 148.58094 96.12927 148.64348 96.25807 148.70601 96.38737 148.76854 96.51724 148.83109 96.64767 148.89362 96.77861 148.95615 96.91006 149.01868 97.0421 149.08123 97.17464 149.14374 97.30772 149.20629 97.44135 149.26882 97.5755 149.33135 97.71016 149.39388 97.84538 149.45642 97.98117 149.51895 98.11745 149.58148 98.25426 149.64403 98.39165 149.70656 98.52954 149.76909 98.66797 149.83162 98.80698 149.89417 98.94644 149.95668 99.08647 150.01923 99.22705 150.08176 99.36816 150.14429 99.5098 150.20682 99.65196 150.26937 99.79472 150.3319 99.93796 150.39443 100.08171 150.45697 100.22603 150.51949 100.37091 150.58203 100.5163 150.64456 100.6622 150.7071 100.80869 150.76963 100.95567 150.83217 101.1032 150.8947 101.25128 150.95723 101.39986 151.01978 101.54898 151.0823 101.69864 151.14484 101.84889 151.20737 101.99962 151.26992 102.15088 151.33243 102.30272 151.39498 102.45505 151.4575 102.60793 151.52004 102.76137 151.58257 102.9153 151.64511 103.06976 151.70764 103.2248 151.77017 103.38036 151.83272 103.53644 151.89525 103.69307 151.95778 103.85025 152.02031 104.00793 152.08286 104.16614 152.14537 104.32495 152.20792 104.48424 152.27045 104.64406 152.33298 104.80443 152.39553 104.96535 152.45806 105.1268 152.52059 105.28874 152.58312 105.4513 152.64566 105.61432 152.70818 105.7779 152.77072 105.94206 152.83325 106.1067 152.8958 106.27187 152.95832 106.43758 153.02086 106.60387 153.08339 106.77063 153.14592 106.93794 153.20847 107.10585 153.271 107.27425 153.33353 107.44315 153.39606 107.61266 153.4586 107.78264 153.52112 107.95317 153.58367 108.1243 153.6462 108.29588 153.70873 108.468 153.77126 108.64067 153.8338 108.81392 153.89633 108.98766 153.95886 109.16191 154.02141 109.33678 154.08394 109.51213 154.14647 109.688 154.209 109.86444 154.27155 110.0414 154.33406 110.21889 154.3966 110.3969 154.45914 110.5755 154.52167 110.75456 154.58422 110.93419 154.64675 111.11441 154.70928 111.2951 154.7718 111.47633 154.83435 111.65814 154.89687 111.84042 154.95941 112.02327 155.02194 112.20663 155.08448 112.3906 155.147 112.57503 155.20955 112.75998 155.2721 112.94556 155.33461 113.13159 155.39716 113.31816 155.45969 113.50533 155.52222 113.69298 155.58475 113.88116 155.6473 114.06987 155.70981 114.25919 155.77236 114.44897 155.83489 114.6393 155.89742 114.8302 155.95996 115.02159 156.02249 115.21352 156.08502 115.40602 156.14756 115.59903 156.2101 115.79257 156.27262 115.98663 156.33516 116.18129 156.39769 116.37642 156.46024 116.5721 156.52275 116.76837 156.5853 116.96509 156.64783 117.16238 156.71036 117.36024 156.7729 117.5586 156.83544 117.75748 156.89797 117.9569 156.9605 118.15689 157.02304 118.35738 157.08556 118.55841 157.1481 118.76003 157.21063 118.96211 157.27317 119.16476 157.3357 119.36792 157.39824 119.57167 157.46077 119.77591 157.5233 119.98067 157.58585 120.18604 157.64838 120.39188 157.7109 120.59824 157.77344 120.80522 157.83599 121.01265 157.8985 121.22063 157.96105 121.42914 158.02358 121.63826 158.0861 121.84784"/>
<path transform="matrix(1.00003,0,0,-1.00006,2.0964967,163.19083)" stroke-width="1.49442" stroke-linecap="butt" stroke-miterlimit="10" stroke-linejoin="miter" fill="none" stroke="#0000ff" d="M157.4794 121.03815H157.51073 157.54209 157.57343 157.60477 157.63613 157.66745 157.69879 157.73015 157.76149 157.79283 157.82418 157.85552 157.88686 157.9182 157.94956 157.9809 158.01224 158.04358 158.07492 158.10626 158.13762 158.16896 158.2003 158.23165 158.26299 158.29433 158.32569 158.35703 158.38837 158.41971 158.45105 158.48239 158.51375 158.54509 158.57643 158.60778 158.63912 158.67046 158.70182 158.73316 158.7645 158.79584 158.82718 158.85852 158.88986 158.92122 158.95255 158.98389 159.01525 159.04659 159.07793 159.10929 159.14061 159.17195 159.20331 159.23465 159.26599 159.29735 159.32868 159.36002 159.39138 159.42272 159.45406 159.48542 159.51674 159.54808 159.57944 159.61078 159.64212 159.67348 159.7048 159.73615 159.7675 159.79885 159.83019 159.86154 159.89287 159.92421 159.95555 159.98691 160.01825 160.04959 160.08094 160.11228 160.14362 160.17498 160.20632 160.23766 160.269 160.30034 160.33168 160.36304 160.39438 160.4257 160.45706 160.4884 160.51975 160.5511 160.58245 160.61377 160.64513 160.67647 160.70781 160.73917 160.77051 160.80184 160.83319 160.86454 160.89588 160.92723 160.95858 160.9899 161.02124 161.0526 161.08394 161.11528 161.14664 161.17797 161.2093 161.24066 161.272 161.30335 161.3347 161.36603 161.39737 161.42873 161.46007 161.49141 161.52277 161.5541 161.58544 161.61679 161.64813 161.67948 161.71082 161.74216 161.7735 161.80486 161.8362 161.86754 161.89888 161.93022 161.96157 161.99292 162.02426 162.0556 162.08693 162.11829 162.14963 162.18097 162.21233 162.24367 162.275 162.30635 162.33769 162.36904 162.40039 162.43173 162.46306 162.49442 162.52576 162.5571 162.58846 162.6198 162.65113 162.68248 162.71382 162.74517 162.77652 162.80786 162.83919 162.87055 162.90189 162.93323 162.96459 162.99593 163.02725 163.05861 163.08995 163.12129 163.15264 163.18398 163.21532 163.24666 163.27802 163.30936 163.3407 163.37204 163.40338 163.43473 163.46608 163.49742 163.52877 163.5601 163.59145 163.62279 163.65415 163.68549 163.71683 163.74817 163.77951 163.81085 163.84221 163.87355 163.90489 163.93624 163.96758 163.99892 164.03028 164.06162 164.09296 164.1243 164.15564 164.18698 164.21833 164.24968 164.28102 164.31235 164.3437 164.37505 164.40639 164.43775 164.46909 164.50041 164.53177 164.56311 164.59445 164.62581 164.65714 164.68848 164.71984 164.75118 164.78252 164.81388 164.8452 164.87654 164.9079 164.93924 164.97058 165.00194 165.03327 165.0646 165.09597 165.1273 165.15865 165.19 165.22133 165.25267 165.28401 165.31537 165.34671 165.37805 165.4094 165.44074 165.47208 165.50344 165.53478 165.56612 165.59746 165.6288 165.66014 165.6915 165.72284 165.75418 165.78553 165.81687 165.8482 165.87957 165.9109 165.94223 165.97359 166.00493 166.03627 166.06763 166.09897 166.1303 166.16165 166.193 166.22434 166.25569 166.28704 166.31836 166.3497 166.38106 166.4124 166.44374 166.4751 166.50643 166.53777 166.56912 166.60047 166.6318 166.66316 166.69449 166.72583 166.75719 166.78853 166.81987 166.85123 166.88256 166.9139 166.94525 166.9766 167.00794 167.03929 167.07062 167.10196 167.13332 167.16466 167.196 167.22736 167.25868 167.29003 167.32138 167.35272 167.38407 167.41539 167.44675 167.47809 167.50943 167.54079 167.57213 167.60346 167.63481 167.66616 167.6975 167.72885 167.7602 167.79152 167.82288 167.85422 167.88556 167.91692 167.94826 167.97959 168.01094 168.04228 168.07363 168.10498 168.13632 168.16765 168.199 168.23035 168.26169 168.29305 168.32439 168.35572 168.38707 168.41841 168.44976 168.4811 168.51245 168.54378 168.57512 168.60648 168.63782 168.66916 168.70052 168.73184 168.76319 168.79454 168.82588 168.85723 168.88857 168.9199 168.95125 168.9826 169.01395 169.04529 169.07663 169.10797 169.13932 169.17067 169.20201 169.23336 169.2647 169.29604 169.32738 169.35874 169.39008 169.42142 169.45276 169.4841 169.51544 169.54679 169.57814 169.60948 169.64081 169.67217 169.7035 169.73485 169.7662 169.79755 169.82888 169.86023 169.89157 169.92292 169.95427 169.98561"/>
<path transform="matrix(1.00003,0,0,-1.00006,2.0964967,163.19083)" d="M169.98548 121.03815" fill="#ffffff"/>
<path transform="matrix(1.00003,0,0,-1.00006,2.0964967,163.19083)" stroke-width="1.49442" stroke-linecap="butt" stroke-miterlimit="10" stroke-linejoin="miter" fill="none" stroke="#0000ff" d="M169.98548 121.03815"/>
</g>
<path transform="matrix(1.00003,0,0,-1.00006,2.0964967,163.19083)" d="M14.13437 30.25954C14.13437 31.36 13.24228 32.25209 12.14182 32.25209 11.04134 32.25209 10.14926 31.36 10.14926 30.25954 10.14926 29.15906 11.04134 28.26698 12.14182 28.26698 13.24228 28.26698 14.13437 29.15906 14.13437 30.25954ZM12.14182 30.25954" fill="#0000ff"/>
<path transform="matrix(1.00003,0,0,-1.00006,2.0964967,163.19083)" stroke-width=".99628" stroke-linecap="butt" stroke-miterlimit="10" stroke-linejoin="miter" fill="none" stroke="#0000ff" d="M14.13437 30.25954C14.13437 31.36 13.24228 32.25209 12.14182 32.25209 11.04134 32.25209 10.14926 31.36 10.14926 30.25954 10.14926 29.15906 11.04134 28.26698 12.14182 28.26698 13.24228 28.26698 14.13437 29.15906 14.13437 30.25954ZM12.14182 30.25954"/>
<path transform="matrix(1.00003,0,0,-1.00006,2.0964967,163.19083)" stroke-width=".99628" stroke-linecap="butt" stroke-miterlimit="10" stroke-linejoin="miter" fill="none" stroke="#0000ff" d=""/>
<path transform="matrix(1.00003,0,0,-1.00006,2.0964967,163.19083)" d="M171.97803 121.03815C171.97803 122.13861 171.08596 123.0307 169.98548 123.0307 168.88501 123.0307 167.99292 122.13861 167.99292 121.03815 167.99292 119.93767 168.88501 119.0456 169.98548 119.0456 171.08596 119.0456 171.97803 119.93767 171.97803 121.03815ZM169.98548 121.03815" fill="#ffffff"/>
<path transform="matrix(1.00003,0,0,-1.00006,2.0964967,163.19083)" stroke-width="1.49442" stroke-linecap="butt" stroke-miterlimit="10" stroke-linejoin="miter" fill="none" stroke="#0000ff" d="M171.97803 121.03815C171.97803 122.13861 171.08596 123.0307 169.98548 123.0307 168.88501 123.0307 167.99292 122.13861 167.99292 121.03815 167.99292 119.93767 168.88501 119.0456 169.98548 119.0456 171.08596 119.0456 171.97803 119.93767 171.97803 121.03815ZM169.98548 121.03815"/>
<path transform="matrix(1.00003,0,0,-1.00006,2.0964967,163.19083)" d="" fill="#ffffff"/>
<path transform="matrix(1.00003,0,0,-1.00006,2.0964967,163.19083)" stroke-width="1.49442" stroke-linecap="butt" stroke-miterlimit="10" stroke-linejoin="miter" fill="none" stroke="#0000ff" d=""/>
<use data-text="t" xlink:href="#font_4_1" transform="matrix(9.962899,0,0,-9.963197,189.28813,78.95978)"/>
<use data-text="y" xlink:href="#font_4_2" transform="matrix(9.962899,0,0,-9.963197,102.77552,9.583603)"/>
</svg>
