<svg xmlns="http://www.w3.org/2000/svg" xmlns:xlink="http://www.w3.org/1999/xlink" xmlns:inkscape="http://www.inkscape.org/namespaces/inkscape" version="1.1" width="198" height="165" viewBox="0 0 198 165">
<defs>
<path id="font_1_1" d="M.6589966 .23046875C.6759949 .23046875 .69400027 .23046875 .69400027 .25045777 .69400027 .27046205 .6759949 .27046205 .6589966 .27046205H.117996219C.100997928 .27046205 .08299255 .27046205 .08299255 .25045777 .08299255 .23046875 .100997928 .23046875 .117996219 .23046875H.6589966Z"/>
<path id="font_2_2" d="M.2939911 .16503906V.07800293C.2939911 .041992189 .2919922 .0309906 .21798706 .0309906H.19699097V0C.23799134 .0029907227 .2899933 .0029907227 .33198548 .0029907227 .37399293 .0029907227 .4269867 .0029907227 .46798707 0V.0309906H.44699098C.37298585 .0309906 .37098695 .041992189 .37098695 .07800293V.16503906H.47099305V.19602967H.37098695V.65075686C.37098695 .67074587 .37098695 .6767578 .35499574 .6767578 .34599305 .6767578 .34298707 .6767578 .33499146 .66474917L.027999878 .19602967V.16503906H.2939911M.2999878 .19602967H.055999757L.2999878 .5688019V.19602967Z"/>
<path id="font_2_1" d="M.1269989 .07699585 .23298645 .18003845C.3889923 .31811524 .44898988 .3721466 .44898988 .47216798 .44898988 .5860901 .35899354 .6660156 .23699951 .6660156 .12399292 .6660156 .049987794 .57411196 .049987794 .48516847 .049987794 .4291687 .099990848 .4291687 .102996829 .4291687 .11999512 .4291687 .15499878 .44117738 .15499878 .48217774 .15499878 .5081787 .13699341 .5341797 .101989749 .5341797 .09399414 .5341797 .09199524 .5341797 .08898926 .5331726 .11199951 .59806826 .1659851 .63500979 .22399903 .63500979 .31498719 .63500979 .35798646 .5541382 .35798646 .47216798 .35798646 .39215089 .30799867 .31311036 .25299073 .25108338L.06098938 .036987306C.049987794 .025985718 .049987794 .023986817 .049987794 0H.42099L.44898988 .17404175H.42399598C.4189911 .14402771 .4119873 .1000061 .4019928 .084991458 .394989 .07699585 .32899476 .07699585 .30699159 .07699585H.1269989Z"/>
<clipPath id="clip_3">
<path transform="matrix(1,0,0,-1.00002,2.0960007,163.18994)" d="M0 0H194.26303V161.39028H0Z"/>
</clipPath>
<path id="font_4_1" d="M.33399964 .30233766C.33999635 .32835389 .36299134 .42037965 .43299867 .42037965 .43798829 .42037965 .46199037 .42037965 .48298646 .40734864 .45498658 .402359 .43499757 .37734986 .43499757 .35334779 .43499757 .33735658 .44599916 .31835938 .47299195 .31835938 .49499513 .31835938 .5269928 .3363495 .5269928 .37635804 .5269928 .42837525 .46798707 .4423828 .43399049 .4423828 .37599183 .4423828 .34098817 .38935853 .32899476 .36634828 .3039856 .43237306 .25 .4423828 .22099304 .4423828 .116989139 .4423828 .05999756 .3133545 .05999756 .28834535 .05999756 .27833558 .069992069 .27833558 .07199097 .27833558 .07998657 .27833558 .08299255 .28033448 .084991458 .28933717 .11898804 .39535523 .18499756 .42037965 .21899414 .42037965 .23799134 .42037965 .272995 .4113617 .272995 .35334779 .272995 .32235719 .2559967 .25532533 .21899414 .11528015 .20298767 .053268434 .16799927 .011245728 .12399292 .011245728 .117996219 .011245728 .09498596 .011245728 .07398987 .024276734 .09899902 .029266358 .12098694 .05027771 .12098694 .07827759 .12098694 .105270389 .09899902 .11328125 .083999637 .11328125 .053985597 .11328125 .0289917 .08728027 .0289917 .055267335 .0289917 .009246826 .07899475-.0107421879 .12298584-.0107421879 .18899536-.0107421879 .22499085 .059280397 .22799683 .0652771 .23999024 .028274537 .27598573-.0107421879 .33599855-.0107421879 .43899537-.0107421879 .49598695 .118270877 .49598695 .14328003 .49598695 .1532898 .4869995 .1532898 .48399354 .1532898 .47499085 .1532898 .47299195 .14929199 .47099305 .14228821 .43798829 .03527832 .36999513 .011245728 .33799745 .011245728 .29899598 .011245728 .2829895 .043273927 .2829895 .07727051 .2829895 .09927368 .2889862 .121276859 .2999878 .16529846L.33399964 .30233766Z"/>
<path id="font_4_2" d="M.48599244 .38136292C.48999024 .39537049 .48999024 .39736939 .48999024 .40437318 .48999024 .42237855 .47599793 .43138124 .46099855 .43138124 .45098878 .43138124 .43499757 .42536927 .42599488 .41036988 .42399598 .405365 .41600038 .37435914 .4119873 .35635377 .40499879 .33035279 .397995 .30334474 .3919983 .27633668L.34700013 .09628296C.34298707 .08126831 .2999878 .011245728 .23399353 .011245728 .18299866 .011245728 .17199707 .055267335 .17199707 .0922699 .17199707 .1382904 .18899536 .20030213 .22299195 .28833009 .23899842 .3293457 .24299622 .3403473 .24299622 .36035157 .24299622 .405365 .21099854 .4423828 .16099549 .4423828 .06599426 .4423828 .0289917 .29733277 .0289917 .28833009 .0289917 .27833558 .038986207 .27833558 .040985109 .27833558 .050994874 .27833558 .051986696 .28033448 .056991579 .29634095 .083999637 .3903656 .12399292 .42037965 .1579895 .42037965 .1659851 .42037965 .18299866 .42037965 .18299866 .3883667 .18299866 .36335755 .17298889 .3373413 .1659851 .31834413 .12599182 .21231079 .10798645 .1552887 .10798645 .10827637 .10798645 .019256592 .17098999-.0107421879 .22999573-.0107421879 .2689972-.0107421879 .30299378 .0062561037 .33099366 .03425598 .31799317-.017745972 .30599977-.06674194 .2659912-.11973572 .23999024-.15385437 .20199585-.18309021 .1559906-.18309021 .14199829-.18309021 .09700012-.18005371 .07998657-.14074707 .09599304-.14074707 .10899353-.14074707 .12298584-.1287384 .1329956-.11973572 .14299011-.10673523 .14299011-.08773804 .14299011-.056747438 .115997318-.052734376 .10598755-.052734376 .08299255-.052734376 .049987794-.068740848 .049987794-.11773682 .049987794-.16796875 .09399414-.20507813 .1559906-.20507813 .25898744-.20507813 .3619995-.11373901 .3899994-.00074768069L.48599244 .38136292Z"/>
</defs>
<path transform="matrix(1,0,0,-1.00002,2.0960007,163.18994)" stroke-width=".3985" stroke-linecap="butt" stroke-miterlimit="10" stroke-linejoin="miter" fill="none" stroke="#404040" d="M0 0H194.26303V161.39028H0Z"/>
<path transform="matrix(1,0,0,-1.00002,2.0960007,163.18994)" stroke-width=".3985" stroke-linecap="butt" stroke-miterlimit="10" stroke-linejoin="miter" fill="none" stroke="#bfbfbf" d="M16.18858 0V161.39028M48.56575 0V161.39028M80.94293 0V161.39028M113.3201 0V161.39028M145.69728 0V161.39028M178.07445 0V161.39028"/>
<path transform="matrix(1,0,0,-1.00002,2.0960007,163.18994)" stroke-width=".3985" stroke-linecap="butt" stroke-miterlimit="10" stroke-linejoin="miter" fill="none" stroke="#bfbfbf" d="M32.37717 0V161.39028M64.75433 0V161.39028M129.50868 0V161.39028M161.88587 0V161.39028"/>
<path transform="matrix(1,0,0,-1.00002,2.0960007,163.18994)" stroke-width=".3985" stroke-linecap="butt" stroke-miterlimit="10" stroke-linejoin="miter" fill="none" stroke="#bfbfbf" d="M0 13.44919H194.26303M0 40.34756H194.26303M0 67.24594H194.26303M0 94.14432H194.26303M0 121.04271H194.26303M0 147.94109H194.26303"/>
<path transform="matrix(1,0,0,-1.00002,2.0960007,163.18994)" stroke-width=".3985" stroke-linecap="butt" stroke-miterlimit="10" stroke-linejoin="miter" fill="none" stroke="#bfbfbf" d="M0 26.89838H194.26303M0 53.79675H194.26303M0 107.59352H194.26303M0 134.4919H194.26303"/>
<path transform="matrix(1,0,0,-1.00002,2.0960007,163.18994)" stroke-width=".19925" stroke-linecap="butt" stroke-miterlimit="10" stroke-linejoin="miter" fill="none" stroke="#7f807f" d="M16.18858 79.27774V82.11252M48.56575 79.27774V82.11252M80.94293 79.27774V82.11252M113.3201 79.27774V82.11252M145.69728 79.27774V82.11252M178.07445 79.27774V82.11252"/>
<path transform="matrix(1,0,0,-1.00002,2.0960007,163.18994)" stroke-width=".19925" stroke-linecap="butt" stroke-miterlimit="10" stroke-linejoin="miter" fill="none" stroke="#7f807f" d="M32.37717 78.56927V82.82098M64.75433 78.56927V82.82098M129.50868 78.56927V82.82098M161.88587 78.56927V82.82098"/>
<path transform="matrix(1,0,0,-1.00002,2.0960007,163.18994)" stroke-width=".19925" stroke-linecap="butt" stroke-miterlimit="10" stroke-linejoin="miter" fill="none" stroke="#7f807f" d="M95.71408 13.44919H98.54895M95.71408 40.34756H98.54895M95.71408 67.24594H98.54895M95.71408 94.14432H98.54895M95.71408 121.04271H98.54895M95.71408 147.94109H98.54895"/>
<path transform="matrix(1,0,0,-1.00002,2.0960007,163.18994)" stroke-width=".19925" stroke-linecap="butt" stroke-miterlimit="10" stroke-linejoin="miter" fill="none" stroke="#7f807f" d="M95.00558 26.89838H99.25743M95.00558 53.79675H99.25743M95.00558 107.59352H99.25743M95.00558 134.4919H99.25743"/>
<path transform="matrix(1,0,0,-1.00002,2.0960007,163.18994)" stroke-width=".3985" stroke-linecap="butt" stroke-miterlimit="10" stroke-linejoin="miter" fill="none" stroke="#000000" d="M0 80.69513H192.27051"/>
<path transform="matrix(1,0,0,-1.00002,194.36652,82.493198)" d="M1.99252 0-1.19551 1.59401 0 0-1.19551-1.59401"/>
<path transform="matrix(1,0,0,-1.00002,2.0960007,163.18994)" stroke-width=".3985" stroke-linecap="butt" stroke-miterlimit="10" stroke-linejoin="miter" fill="none" stroke="#000000" d="M97.13152 0V159.39775"/>
<path transform="matrix(0,-1.00002,-1,-0,99.22752,3.7890015)" d="M1.99252 0-1.19551 1.59401 0 0-1.19551-1.59401"/>
<use data-text="&#x2212;" xlink:href="#font_1_1" transform="matrix(9.9626,0,0,-9.962799,28.108002,94.55957)"/>
<use data-text="4" xlink:href="#font_2_2" transform="matrix(9.9626,0,0,-9.962799,35.857004,94.55957)"/>
<use data-text="&#x2212;" xlink:href="#font_1_1" transform="matrix(9.9626,0,0,-9.962799,60.485,94.55957)"/>
<use data-text="2" xlink:href="#font_2_1" transform="matrix(9.9626,0,0,-9.962799,68.234,94.55957)"/>
<use data-text="2" xlink:href="#font_2_1" transform="matrix(9.9626,0,0,-9.962799,129.114,94.55957)"/>
<use data-text="4" xlink:href="#font_2_2" transform="matrix(9.9626,0,0,-9.962799,161.491,94.55957)"/>
<use data-text="&#x2212;" xlink:href="#font_1_1" transform="matrix(9.9626,0,0,-9.962799,80.852,139.08646)"/>
<use data-text="4" xlink:href="#font_2_2" transform="matrix(9.9626,0,0,-9.962799,88.601,139.08646)"/>
<use data-text="&#x2212;" xlink:href="#font_1_1" transform="matrix(9.9626,0,0,-9.962799,80.852,112.18692)"/>
<use data-text="2" xlink:href="#font_2_1" transform="matrix(9.9626,0,0,-9.962799,88.601,112.18692)"/>
<use data-text="2" xlink:href="#font_2_1" transform="matrix(9.9626,0,0,-9.962799,88.6,58.804849)"/>
<use data-text="4" xlink:href="#font_2_2" transform="matrix(9.9626,0,0,-9.962799,88.6,31.90532)"/>
<g clip-path="url(#clip_3)">
<path transform="matrix(1,0,0,-1.00002,2.0960007,163.18994)" stroke-width="1.49442" stroke-linecap="butt" stroke-miterlimit="10" stroke-linejoin="miter" fill="none" stroke="#1414cc" d="M80.94293 107.59352 81.22693 109.37457 81.51094 110.11295 81.79495 110.67943 82.07895 111.15688 82.36296 111.57661 82.64697 111.95723 82.93098 112.30717 83.215 112.63264 83.49901 112.93796 83.783 113.22737 84.06702 113.50174 84.35103 113.76547 84.63504 114.0171 84.91905 114.2604 85.20305 114.49321 85.48708 114.7205 85.77107 114.93971 86.05508 115.15234 86.3391 115.35962 86.6231 115.56134 86.90712 115.7577 87.19112 115.95003 87.47513 116.13846 87.75914 116.32149 88.04315 116.50159 88.32716 116.6779 88.61118 116.85126 88.89517 117.02086 89.17918 117.1891 89.4632 117.35184 89.7472 117.51309 90.03122 117.67192 90.31522 117.82794 90.59924 117.98273 90.88324 118.13336 91.16725 118.28413 91.45126 118.4322 91.73526 118.57599 92.01929 118.72003 92.30328 118.86124 92.5873 119.00244 92.8713 119.13963 93.15532 119.27681 93.43932 119.41144 93.72334 119.5446 94.00734 119.67773 94.29135 119.80833 94.57536 119.93744 94.85936 120.0652 95.14339 120.19164 95.42738 120.31805 95.71141 120.44179 95.9954 120.56432 96.27942 120.68669 96.56343 120.80653 96.84743 120.92609 97.13144 121.04457 97.41545 121.16011 97.69946 121.27618 97.98347 121.39183 98.26749 121.50629 98.55148 121.61966 98.83551 121.73224 99.1195 121.84453 99.40352 121.95535 99.68753 122.0651 99.97153 122.17404 100.25555 122.28299 100.53955 122.3903 100.82358 122.4971 101.10757 122.6036 101.39157 122.70851 101.6756 122.81328 101.9596 122.91698 102.24362 123.02013 102.52762 123.12274 102.81163 123.22443 103.09564 123.3257 103.37965 123.42616 103.66365 123.52621 103.94766 123.62534 104.23167 123.72353 104.51569 123.82225 104.7997 123.9192 105.0837 124.01631 105.36772 124.11234 105.65172 124.20877 105.93575 124.30345 106.21974 124.398 106.50374 124.49214 106.78777 124.58562 107.07176 124.67882 107.35577 124.77136 107.63979 124.86362 107.9238 124.9548 108.20781 125.04652 108.49182 125.13676 108.77582 125.22633 109.05983 125.31726 109.34384 125.40588 109.62785 125.49504 109.91187 125.58275 110.19586 125.67165 110.47989 125.75879 110.76389 125.8462 111.0479 125.93282 111.33191 126.01822 111.6159 126.10417 111.89993 126.18956 112.18393 126.27496 112.46794 126.35916 112.75195 126.44484 113.03596 126.52782 113.31998 126.61215 113.60399 126.6962 113.88799 126.77878 114.172 126.86163 114.45601 126.9434 114.74 127.02556 115.02403 127.10695 115.30803 127.18777 115.59206 127.26888 115.87605 127.34929 116.16006 127.42905 116.44408 127.50867 116.72807 127.58894 117.0121 127.66777 117.2961 127.747 117.58011 127.8254 117.86412 127.9038 118.14813 127.98154 118.43213 128.05913 118.71616 128.13646 119.00015 128.21341 119.28416 128.2902 119.56818 128.36713 119.85217 128.44326 120.1362 128.5191 120.4202 128.5944 120.70422 128.67002 120.98822 128.74518 121.27222 128.82064 121.55624 128.89434 121.84024 128.9691 122.12425 129.04363 122.40826 129.11719 122.69228 129.19022 122.97629 129.26392 123.2603 129.33722 123.5443 129.40972 123.82831 129.48233 124.11232 129.55469 124.39633 129.62705 124.68034 129.69887 124.96434 129.77068 125.24837 129.8421 125.53236 129.91284 125.81638 129.98413 126.10039 130.0546 126.38438 130.12548 126.66841 130.19487 126.95241 130.26548 127.23642 130.33556 127.52043 130.40523 127.80444 130.47408 128.08846 130.54375 128.37247 130.61287 128.65647 130.6812 128.94048 130.75032 129.22449 130.8193 129.50849 130.88616 129.79251 130.95449 130.0765 131.02228 130.36054 131.09059 130.64453 131.1573 130.92855 131.22509 131.21256 131.29152 131.49655 131.35863 131.78058 131.42507 132.06458 131.49138 132.34859 131.55835 132.6326 131.62317 132.91661 131.69002 133.2006 131.7562 133.48464 131.82183 133.76863 131.88625 134.05265 131.95174 134.33666 132.01697 134.62065 132.08098 134.90468 132.14608 135.18868 132.21089 135.4727 132.27533 135.7567 132.33934 136.04071 132.40335 136.32472 132.46739 136.60872 132.5306 136.89273 132.59462 137.17675 132.65822 137.46076 132.7217 137.74477 132.7837 138.02878 132.84786 138.31278 132.91013 138.5968 132.97106 138.8808 133.0348 139.16481 133.09682 139.44882 133.15933 139.73282 133.2208 140.01685 133.28295 140.30084 133.34508 140.58486 133.40627 140.86887 133.46639 141.15287 133.52893 141.43689 133.58972 141.72089 133.6497 142.0049 133.71103 142.28891 133.77114 142.57292 133.83315 142.85694 133.8922 143.14095 133.95258 143.42494 134.01296 143.70896 134.07161 143.99297 134.13199 144.27696 134.1925 144.56099 134.25302 144.84499 134.31032 145.12902 134.37004 145.41301 134.42948 145.69702 134.48827 145.98104 134.54932 146.26503 134.60756 146.54906 134.66713 146.83306 134.72496 147.11707 134.78386 147.40108 134.84224 147.68509 134.90074 147.96909 134.9579 148.25312 135.01561 148.53711 135.0741 148.82112 135.13153 149.10514 135.18936 149.38913 135.24625 149.67316 135.30396 149.95716 135.3607 150.24118 135.418 150.52518 135.47556 150.80919 135.5319 151.0932 135.5888 151.3772 135.64475 151.66121 135.70204 151.94522 135.75772 152.22924 135.81449 152.51325 135.87042 152.79726 135.92652 153.08126 135.9826 153.36528 136.03855 153.64928 136.09423 153.93329 136.14965 154.2173 136.20545 154.5013 136.26087 154.78533 136.3156 155.06932 136.37102 155.35334 136.42642 155.63735 136.4813 155.92136 136.5363 156.20537 136.59145 156.48937 136.64551 156.77338 136.69944 157.05739 136.75458 157.3414 136.80825 157.62541 136.8627 157.90943 136.91732 158.19342 136.97177 158.47743 137.02558 158.76145 137.08005 159.04546 137.1329 159.32947 137.1871 159.61347 137.24037 159.89749 137.2939 160.18149 137.34729 160.4655 137.40067 160.74951 137.4534 161.03351 137.5064 161.31754 137.55953 161.60153 137.6129 161.88555 137.66497 162.16956 137.71755 162.45357 137.7704 162.73758 137.82299 163.02159 137.87598 163.30559 137.92815 163.5896 137.9794 163.87361 138.03185 164.15761 138.08484 164.44164 138.13636 164.72563 138.18827 165.00966 138.24045 165.29366 138.29155 165.57767 138.34348 165.86168 138.39472 166.14568 138.44594 166.4297 138.49773 166.7137 138.5491 166.99771 138.60062 167.28173 138.65132 167.56574 138.70256 167.84973 138.75447 168.13376 138.8037 168.41776 138.8548 168.70177 138.90538 168.98578 138.95635 169.26978 139.00624 169.5538 139.05789 169.8378 139.10752 170.12183 139.15741 170.40583 139.20867 170.68984 139.25827 170.97385 139.30817 171.25785 139.35848 171.54186 139.40756 171.82587 139.45815 172.10988 139.5083 172.39389 139.55672 172.6779 139.60715 172.9619 139.65665 173.24593 139.70615 173.52993 139.75537 173.81394 139.80432 174.09795 139.85341 174.38195 139.90264 174.66597 139.95146 174.94997 140.00055 175.23398 140.05017 175.51799 140.09845 175.802 140.14768 176.08602 140.1957 176.37001 140.24411 176.65402 140.29387 176.93804 140.34188 177.22205 140.38962 177.50606 140.43791 177.79007 140.48619 178.07407 140.53394 178.35808 140.58316 178.64209 140.63063 178.92609 140.67879 179.21012 140.7264 179.49411 140.77468 179.77814 140.8239 180.06214 140.8703 180.34615 140.91751 180.63016 140.9651 180.91416 141.01287 181.19818 141.05953 181.48218 141.10768 181.76619 141.15529 182.0502 141.2013 182.33422 141.24958 182.61821 141.2961 182.90224 141.34477 183.18624 141.39025 183.47025 141.43692 183.75426 141.48506 184.03826 141.53107 184.32228 141.57747 184.60628 141.62508 184.8903 141.6704 185.1743 141.71747 185.45832 141.7636 185.74233 141.8096 186.02632 141.85721 186.31034 141.90334 186.59435 141.94933 186.87836 141.99492 187.16237 142.04186 187.44638 142.08719 187.73038 142.13344 188.0144 142.1785 188.2984 142.22409 188.58242 142.2709 188.86643 142.31542 189.15042 142.36075 189.43445 142.4078 189.71845 142.45233 190.00246 142.49913 190.28647 142.54405 190.57048 142.5883 190.85449 142.63498 191.13849 142.67977 191.4225 142.72507 191.70652 142.7708 191.99053 142.81491 192.27454 142.8601 192.55855 142.90515 192.84255 142.94995 193.12657 142.99555 193.41057 143.04019 193.69457 143.08324 193.97859 143.12897 193.1337 142.99417"/>
<path transform="matrix(.98747,-.15755317,-.15755,-.98748978,195.22968,20.192902)" stroke-width="1.19553" stroke-linecap="round" stroke-linejoin="round" fill="none" stroke="#1414cc" d="M-2.18182 2.9091C-2 1.81818 0 .18181 .54544 0 0-.18181-2-1.81818-2.18182-2.9091"/>
<path transform="matrix(1,0,0,-1.00002,2.0960007,163.18994)" stroke-width="1.49442" stroke-linecap="butt" stroke-miterlimit="10" stroke-linejoin="miter" fill="none" stroke="#1414cc" d="M80.94293 107.59352 81.02406 107.11743 81.10521 106.9203 81.18636 106.76895 81.2675 106.6411 81.34863 106.5288 81.42978 106.42726 81.51094 106.33379 81.59209 106.24696 81.67323 106.16486 81.75436 106.08821 81.83551 106.01424 81.91666 105.94429 81.9978 105.87706 82.07895 105.81183 82.16011 105.74995 82.24124 105.68869 82.32239 105.63019 82.40353 105.57364 82.48468 105.51782 82.56581 105.46404 82.64696 105.41165 82.7281 105.3604 82.80927 105.31004 82.89041 105.26088 82.97156 105.21246 83.05269 105.16539 83.13383 105.11972 83.21498 105.07394 83.29613 105.0295 83.37727 104.98578 83.45842 104.94281 83.53957 104.8997 83.62071 104.85808 83.70186 104.817 83.783 104.77657 83.86415 104.73697 83.94528 104.69722 84.02643 104.65822 84.10759 104.61989 84.18874 104.58223 84.26987 104.54457 84.35101 104.50752 84.43216 104.4712 84.5133 104.43489 84.59445 104.39932 84.6756 104.36429 84.75674 104.32932 84.83789 104.2943 84.91904 104.26006 85.00018 104.22636 85.08133 104.19273 85.16246 104.1598 85.2436 104.12685 85.32475 104.09457 85.40591 104.06229 85.48706 104.03 85.5682 103.9984 85.64934 103.9668 85.73048 103.93579 85.81163 103.90494 85.89278 103.87466 85.9739 103.84435 86.05507 103.81409 86.13622 103.78383 86.21736 103.7543 86.29851 103.72533 86.37965 103.69566 86.46078 103.66675 86.54193 103.63783 86.62308 103.60959 86.70424 103.5814 86.78539 103.55304 86.86652 103.5256 86.94766 103.49722 87.02881 103.46973 87.10995 103.44275 87.1911 103.41525 87.27223 103.38828 87.3534 103.36139 87.43454 103.33449 87.51569 103.30765 87.59683 103.28137 87.67796 103.2552 87.75911 103.2295 87.84026 103.20335 87.92142 103.1778 88.00256 103.15225 88.08371 103.12663 88.16484 103.10107 88.24599 103.07626 88.32713 103.05132 88.40828 103.0265 88.48943 103.00154 88.57057 102.97673 88.65172 102.95245 88.73286 102.92758 88.81401 102.90404 88.89516 102.87984 88.97629 102.85562 89.05743 102.83142 89.13858 102.80782 89.21974 102.78435 89.30089 102.76074 89.38202 102.73721 89.46317 102.71436 89.54431 102.69087 89.62546 102.66794 89.7066 102.64508 89.78775 102.62221 89.8689 102.59929 89.95004 102.57642 90.03119 102.5543 90.11234 102.53136 90.19348 102.50925 90.27461 102.48698 90.35576 102.4648 90.4369 102.4426 90.51807 102.42108 90.59921 102.3989 90.68034 102.37737 90.76149 102.35585 90.84264 102.33427 90.92378 102.31282 91.00493 102.29129 91.08606 102.2697 91.16722 102.2482 91.24837 102.22736 91.32951 102.20576 91.41066 102.18498 91.49179 102.16414 91.57294 102.14328 91.65408 102.1225 91.73523 102.10226 91.81639 102.08144 91.89752 102.06065 91.97867 102.0404 92.05981 102.02017 92.14096 101.99998 92.2221 101.97916 92.30324 101.95964 92.38438 101.93878 92.46555 101.9193 92.54669 101.89912 92.62784 101.87895 92.70898 101.85945 92.79012 101.83995 92.87126 101.82043 92.95241 101.80093 93.03355 101.78143 93.11472 101.76195 93.19585 101.74245 93.277 101.72293 93.35814 101.70404 93.43929 101.68454 93.52043 101.66577 93.60156 101.64621 93.68271 101.62746 93.76387 101.60855 93.84502 101.58978 93.92616 101.5703 94.0073 101.55139 94.08844 101.53262 94.16959 101.51375 94.25073 101.49557 94.3319 101.47682 94.41304 101.45859 94.49417 101.4397 94.57532 101.42154 94.65646 101.40338 94.73761 101.38461 94.81876 101.36633 94.89989 101.34818 94.98105 101.33015 95.0622 101.3126 95.14334 101.29443 95.22449 101.27629 95.30562 101.25813 95.38676 101.24065 95.46791 101.22249 95.54906 101.20494 95.63022 101.18752 95.71135 101.16937 95.7925 101.15181 95.87364 101.13434 95.95479 101.11691 96.03593 101.09937 96.11708 101.08194 96.19821 101.0644 96.27937 101.04692 96.36052 101.0301 96.44167 101.01254 96.52281 100.99513 96.60394 100.97833 96.68509 100.96144 96.76624 100.94403 96.84738 100.92722 96.92854 100.91032 97.00967 100.89293 97.09082 100.87611 97.17197 100.86052 97.25311 100.84377 97.33426 100.82697 97.4154 100.81035 97.49654 100.79346 97.5777 100.77698 97.65884 100.76038 97.73999 100.74384 97.82114 100.7273 97.90227 100.71088 97.98341 100.69434 98.06456 100.67807 98.1457 100.66165 98.22687 100.64531 98.308 100.62898 98.38914 100.6129 98.47029 100.59656 98.55144 100.58043 98.63258 100.56415 98.71371 100.54808 98.79486 100.532 98.87602 100.51614 98.95717 100.50014 99.03831 100.48427 99.11946 100.46799 99.20059 100.4522 99.28174 100.43637 99.36288 100.42072 99.44403 100.40477 99.52519 100.38925 99.60632 100.37344 99.68747 100.35771 99.76862 100.34206 99.84976 100.3263 99.93091 100.31076 100.01204 100.29544 100.09319 100.27971 100.17435 100.26445 100.2555 100.24876 100.33664 100.23337 100.41777 100.21805 100.49892 100.20265 100.58006 100.18736 100.66121 100.1721 100.74237 100.1569 100.82352 100.14172 100.90465 100.12645 100.9858 100.11125 101.06694 100.09619 101.14809 100.08105 101.22923 100.06613 101.31036 100.05101 101.39153 100.036 101.47267 100.02094 101.55382 100.00609 101.63496 99.99121 101.7161 99.97609 101.79724 99.96136 101.87839 99.94643 101.95953 99.93178 102.0407 99.91692 102.12183 99.90231 102.20297 99.88753 102.28412 99.87286 102.36526 99.85814 102.44641 99.84341 102.52756 99.82889 102.60869 99.81444 102.68985 99.79984 102.771 99.78525 102.85214 99.77092 102.93327 99.75633 103.01442 99.74174 103.09557 99.72742 103.17671 99.71303 103.25786 99.69864 103.33902 99.68437 103.42015 99.67004 103.5013 99.65587 103.58244 99.64146 103.66359 99.62715 103.74474 99.61288 103.82587 99.5989 103.90701 99.5845 103.98817 99.57059 104.06932 99.55655 104.15047 99.54248 104.2316 99.5285 104.31274 99.51437 104.39389 99.5002 104.47504 99.48613 104.55618 99.47229 104.63733 99.45836 104.71848 99.44464 104.79962 99.43066 104.88077 99.41666 104.96191 99.40297 105.04305 99.38896 105.12419 99.3751 105.20534 99.36125 105.2865 99.34781 105.36765 99.33409 105.44879 99.32031 105.52992 99.3068 105.61107 99.29274 105.69221 99.27943 105.77336 99.26563 105.8545 99.2521 105.93565 99.23854 106.0168 99.22502 106.09795 99.21143 106.1791 99.19792 106.26024 99.18446 106.34137 99.171 106.42252 99.15752 106.50366 99.14418 106.58482 99.13074 106.66597 99.11734 106.7471 99.10425 106.82825 99.09093 106.9094 99.07727 106.99054 99.06404 107.07169 99.05086 107.15283 99.03748 107.23398 99.02435 107.31512 99.01105 107.39627 98.99828 107.47742 98.98488 107.55855 98.97122 107.6397 98.95845 107.72084 98.94528 107.802 98.93216 107.88315 98.91925 107.9643 98.9062 108.04543 98.89322 108.12657 98.88025 108.20772 98.867 108.28886 98.85422 108.37001 98.84117 108.45116 98.82832 108.5323 98.81541 108.61345 98.80244 108.6946 98.78987 108.77574 98.7769 108.85689 98.76398 108.93802 98.75085 109.01917 98.73836 109.10033 98.72557 109.18147 98.71248 109.2626 98.69997 109.34375 98.68732 109.4249 98.67455 109.50604 98.6617 109.58719 98.64899 109.66833 98.63641 109.74948 98.62369 109.83063 98.61113 109.91177 98.59875 109.99292 98.58618 110.07407 98.57353 110.1552 98.56084 110.23634 98.54825 110.31749 98.53568 110.39865 98.52324 110.4798 98.51086 110.56094 98.49849 110.64207 98.48625 110.72322 98.4738 110.80437 98.46077 110.88551 98.4486 110.96664 98.43622 111.0478 98.42384 111.12895 98.4118 111.2101 98.3995 111.29124 98.38733 111.37239 98.37529 111.45352 98.36217 111.53467 98.34995 111.61581 98.33818 111.69698 98.32573 111.77812 98.31363 111.85925 98.30165 111.9404 98.28935 112.02155 98.27731 112.10269 98.26468 112.18384 98.25278 112.26497 98.2408 112.34613 98.22856 112.42728 98.21646 112.50842 98.20436 112.58957 98.19266 112.6707 98.18062 112.75185 98.16785 112.833 98.156 112.91414 98.1441 112.9953 98.1322 113.07645 98.12044 113.15758 98.10854 113.23872 98.09683 113.31987 98.08458"/>
<path transform="matrix(1,0,0,-1.00002,2.0960007,163.18994)" stroke-width="1.49442" stroke-linecap="butt" stroke-miterlimit="10" stroke-linejoin="miter" fill="none" stroke="#1414cc" d="M113.3201 98.08566 113.40123 98.07295 113.48238 98.06139 113.5635 98.04942 113.64467 98.03787 113.72581 98.02542 113.80695 98.01385 113.88809 98.00201 113.96924 97.98932 114.05037 97.9772 114.13152 97.9651 114.21266 97.9534 114.29381 97.9411 114.37495 97.92944 114.4561 97.91707 114.53723 97.90524 114.61838 97.89235 114.69952 97.88023 114.78065 97.86833 114.8618 97.85608 114.94296 97.84392 115.0241 97.8318 115.10524 97.81958 115.18639 97.80746 115.26752 97.79462 115.34866 97.78253 115.42981 97.77042 115.51094 97.7579 115.5921 97.7458 115.67325 97.73349 115.75438 97.72125 115.83553 97.70915 115.91667 97.69606 115.9978 97.68394 116.07895 97.67145 116.16011 97.6588 116.24124 97.64629 116.32239 97.63405 116.40353 97.62175 116.48466 97.60916 116.56581 97.59633 116.64696 97.58348 116.72809 97.57097 116.80925 97.55852 116.8904 97.5463 116.97153 97.53351 117.05267 97.52074 117.13382 97.50836 117.21495 97.49532 117.2961 97.4824 117.37724 97.46983 117.45839 97.45699 117.53954 97.44427 117.62068 97.4317 117.70181 97.41872 117.78296 97.40608 117.8641 97.39357 117.94524 97.38013 118.02638 97.36728 118.10754 97.35443 118.18867 97.34186 118.26982 97.32863 118.35097 97.31598 118.4321 97.30293 118.51324 97.29008 118.59439 97.27663 118.67552 97.26366 118.75668 97.25075 118.83781 97.2377 118.91896 97.22458 119.0001 97.21153 119.08124 97.19843 119.16238 97.18518 119.24353 97.17172 119.32466 97.15869 119.40582 97.14563 119.48697 97.1324 119.5681 97.119 119.64925 97.10603 119.7304 97.09258 119.81152 97.07948 119.89267 97.06581 119.97382 97.0525 120.05496 97.03905 120.13611 97.02568 120.21725 97.01236 120.29839 96.99904 120.37953 96.9854 120.46068 96.97202 120.54181 96.95842 120.62297 96.94498 120.70412 96.9314 120.78525 96.91774 120.8664 96.90424 120.94754 96.89058 121.02867 96.87712 121.10982 96.86346 121.19096 96.84956 121.27211 96.83589 121.35326 96.82205 121.4344 96.80861 121.51553 96.79475 121.59668 96.78078 121.67783 96.76724 121.75896 96.75325 121.8401 96.7392 121.92126 96.72534 122.0024 96.71144 122.08354 96.69777 122.16469 96.68378 122.24582 96.66968 122.32697 96.65569 122.40811 96.64157 122.48924 96.6275 122.5704 96.61333 122.65155 96.59947 122.73268 96.58536 122.81383 96.57115 122.89497 96.55698 122.9761 96.54298 123.05725 96.5286 123.1384 96.51399 123.21954 96.49982 123.30069 96.48549 123.38184 96.4713 123.46297 96.45683 123.54411 96.44244 123.62526 96.42812 123.70639 96.41374 123.78754 96.39906 123.8687 96.38461 123.94983 96.37015 124.03098 96.35556 124.11212 96.34097 124.19325 96.32645 124.2744 96.31172 124.35553 96.29706 124.43668 96.28241 124.51784 96.26773 124.59897 96.25294 124.68011 96.2383 124.76126 96.22342 124.84239 96.20863 124.92354 96.19377 125.00468 96.17897 125.08582 96.16391 125.16698 96.14891 125.24812 96.13412 125.32925 96.11893 125.4104 96.10399 125.49155 96.08887 125.57268 96.074 125.65382 96.05882 125.73499 96.04353 125.81612 96.02835 125.89726 96.01329 125.97841 95.99776 126.05954 95.98248 126.14069 95.96722 126.22183 95.95189 126.30296 95.93661 126.38412 95.92122 126.46527 95.90562 126.5464 95.89017 126.62755 95.87463 126.7087 95.85915 126.78983 95.84363 126.87097 95.82796 126.95212 95.81235 127.03326 95.79655 127.11441 95.78088 127.19556 95.76527 127.27669 95.74933 127.35783 95.73354 127.43898 95.71773 127.52011 95.70187 127.60126 95.68587 127.68242 95.66994 127.76355 95.65393 127.8447 95.63792 127.92584 95.62192 128.00698 95.60571 128.08812 95.5895 128.16927 95.57336 128.2504 95.55714 128.33156 95.54094 128.4127 95.52473 128.49384 95.50839 128.57498 95.49199 128.65613 95.47559 128.73726 95.45905 128.8184 95.44263 128.89955 95.42616 128.9807 95.40962 129.06185 95.39308 129.14299 95.3764 129.22412 95.35965 129.30527 95.34305 129.38642 95.32617 129.46755 95.30956 129.54869 95.29375 129.62985 95.27695 129.71099 95.26013 129.79213 95.24338 129.87326 95.22585 129.9544 95.20903 130.03556 95.19154 130.11669 95.17473 130.19785 95.1573 130.27899 95.14049 130.36013 95.12296 130.44127 95.10547 130.52242 95.0879 130.60355 95.0705 130.6847 95.0537 130.76584 95.03552 130.84699 95.01804 130.92813 95.00049 131.00928 94.98308 131.09041 94.9649 131.17156 94.94737 131.2527 94.92921 131.33383 94.91173 131.41498 94.89357 131.49614 94.87541 131.57727 94.85786 131.65842 94.8397 131.73957 94.82169 131.8207 94.80353 131.90184 94.78523 131.98299 94.76648 132.06412 94.74832 132.14528 94.73016 132.22643 94.71193 132.30756 94.69304 132.3887 94.67488 132.46985 94.65613 132.55098 94.63724 132.63213 94.61847 132.71327 94.59958 132.79442 94.58081 132.87557 94.56131 132.95671 94.54242 133.03784 94.52365 133.11899 94.50407 133.20014 94.48532 133.28127 94.46643 133.36241 94.44691 133.44358 94.42741 133.5247 94.40866 133.60585 94.38843 133.687 94.36891 133.76813 94.35008 133.84928 94.32991 133.93042 94.31042 134.01155 94.29025 134.09272 94.27074 134.17386 94.25056 134.25499 94.23106 134.33614 94.21082 134.41728 94.19072 134.49842 94.17055 134.57956 94.1503 134.6607 94.12946 134.74185 94.1092 134.823 94.08844 134.90415 94.06833 134.98528 94.04735 135.06642 94.02657 135.14757 94.00572 135.2287 93.98486 135.30986 93.96411 135.39099 93.94312 135.47214 93.92166 135.55329 93.90076 135.63442 93.87929 135.71556 93.85779 135.7967 93.8362 135.87784 93.81467 135.959 93.7925 136.04015 93.77097 136.12128 93.74937 136.20243 93.72726 136.28357 93.70506 136.3647 93.68286 136.44585 93.66061 136.527 93.63849 136.60814 93.6163 136.68929 93.59343 136.77043 93.57057 136.85157 93.54825 136.93271 93.52551 137.01386 93.50192 137.09499 93.47897 137.17613 93.45612 137.2573 93.43266 137.33843 93.40912 137.41957 93.38551 137.50072 93.36205 137.58185 93.33844 137.663 93.31497 137.74414 93.29076 137.82527 93.26648 137.90644 93.24228 137.98758 93.21806 138.06871 93.19312 138.14986 93.16891 138.231 93.14409 138.31214 93.11916 138.39328 93.09435 138.47443 93.06879 138.55558 93.04384 138.63672 93.01828 138.71787 92.99272 138.799 92.9665 138.88014 92.94095 138.96129 92.91466 139.04242 92.8885 139.12357 92.8622 139.20473 92.83604 139.28586 92.80908 139.367 92.78157 139.44815 92.7553 139.52928 92.7277 139.61043 92.70013 139.69158 92.67325 139.77272 92.645 139.85387 92.61684 139.93502 92.58919 140.01615 92.56027 140.09729 92.53203 140.17844 92.50311 140.25957 92.47418 140.34072 92.44522 140.42188 92.41556 140.503 92.38603 140.58415 92.35645 140.6653 92.32619 140.74643 92.29593 140.82758 92.26494 140.9087 92.23405 140.98986 92.20306 141.07102 92.17146 141.15215 92.13985 141.23329 92.10825 141.31444 92.07597 141.39557 92.04301 141.47672 92.01067 141.55786 91.97711 141.63899 91.94409 141.72016 91.9098 141.8013 91.87556 141.88243 91.84116 141.96358 91.8063 142.04473 91.77129 142.12586 91.73557 142.207 91.69925 142.28815 91.66293 142.3693 91.62596 142.45044 91.58829 142.53159 91.54997 142.61272 91.51164 142.69387 91.47331 142.77501 91.43362 142.85614 91.39389 142.93729 91.3536 143.01845 91.31253 143.09958 91.27016 143.18073 91.2278 143.26187 91.18481 143.343 91.14098 143.42415 91.09666 143.5053 91.05087 143.58643 91.00514 143.66759 90.95801 143.74874 90.90959 143.82987 90.86057 143.91101 90.81006 143.99216 90.75896 144.07329 90.7065 144.15444 90.65265 144.23558 90.59682 144.31673 90.5404 144.39788 90.48183 144.47902 90.42123 144.56015 90.35878 144.6413 90.29355 144.72245 90.22623 144.80358 90.1563 144.88474 90.08293 144.96588 90.0056 145.04701 89.92422 145.12816 89.8368 145.2093 89.74394 145.29044 89.64233 145.37158 89.5301 145.45273 89.40294 145.53388 89.25165 145.61502 89.05568 145.69617 88.632"/>
<path transform="matrix(1,0,0,-1.00002,2.0960007,163.18994)" stroke-width="1.49442" stroke-linecap="butt" stroke-miterlimit="10" stroke-linejoin="miter" fill="none" stroke="#1414cc" d="M97.13152 76.92963 97.25322 76.94415 97.37494 76.95908 97.49666 76.97334 97.6184 76.98805 97.7401 77.00279 97.86182 77.01746 97.98354 77.0325 98.10526 77.0469 98.22697 77.06183 98.3487 77.07655 98.47041 77.09148 98.59213 77.10628 98.71385 77.12108 98.83556 77.13606 98.95729 77.15073 99.07901 77.16573 99.20073 77.18025 99.32243 77.19557 99.44415 77.21045 99.56589 77.22543 99.6876 77.24036 99.80931 77.2555 99.93103 77.2705 100.05275 77.28534 100.17448 77.30035 100.29619 77.31561 100.41791 77.33061 100.53963 77.34581 100.66135 77.36093 100.78308 77.37607 100.90479 77.39146 101.0265 77.40654 101.14822 77.4218 101.26994 77.43678 101.39165 77.45207 101.51338 77.46745 101.6351 77.48245 101.75682 77.49825 101.87854 77.51366 102.00024 77.52885 102.12198 77.54431 102.2437 77.55959 102.36542 77.57518 102.48712 77.59052 102.60884 77.60585 102.73058 77.62158 102.8523 77.63712 102.974 77.65265 103.09572 77.66826 103.21744 77.68385 103.33917 77.69931 103.46088 77.71506 103.5826 77.73079 103.70432 77.74644 103.82603 77.7622 103.94775 77.778 104.06947 77.79367 104.1912 77.80934 104.31291 77.82506 104.43463 77.84073 104.55634 77.85693 104.67807 77.87254 104.79979 77.88855 104.92151 77.9047 105.04321 77.92029 105.16493 77.93616 105.28667 77.95209 105.40839 77.96844 105.5301 77.9841 105.65181 78.00052 105.77353 78.01665 105.89525 78.03265 106.01698 78.04886 106.13869 78.06474 106.2604 78.08095 106.38213 78.09729 106.50385 78.11356 106.62558 78.12984 106.74728 78.1461 106.869 78.16245 106.99072 78.17879 107.11243 78.19493 107.23416 78.21147 107.35588 78.22801 107.4776 78.24443 107.59932 78.26076 107.72102 78.27722 107.84276 78.2939 107.96448 78.3103 108.0862 78.32692 108.2079 78.34354 108.32962 78.36008 108.45134 78.37689 108.57307 78.3935 108.6948 78.41003 108.8165 78.42679 108.93822 78.44374 109.05994 78.46042 109.18167 78.47722 109.30338 78.49417 109.4251 78.51091 109.54681 78.52779 109.66853 78.545 109.79025 78.56169 109.91197 78.57863 110.03369 78.59576 110.15541 78.61299 110.27713 78.63014 110.39885 78.6471 110.52057 78.66425 110.64229 78.68132 110.764 78.69846 110.88571 78.7158 111.00743 78.73303 111.12917 78.75038 111.25089 78.76752 111.37259 78.785 111.49431 78.80241 111.61603 78.81964 111.73776 78.83711 111.85948 78.85454 111.98119 78.87209 112.1029 78.88945 112.22462 78.90706 112.34636 78.92474 112.46806 78.9423 112.58978 78.96004 112.7115 78.9778 112.83322 78.99562 112.95493 79.0133 113.07666 79.03107 113.19838 79.04883 113.3201 79.06703 113.44182 79.08533 113.56352 79.10327 113.68526 79.1209 113.80698 79.13884 113.9287 79.15681 114.0504 79.17549 114.17212 79.19353 114.29385 79.21162 114.41556 79.22949 114.53728 79.24753 114.659 79.26628 114.78072 79.28438 114.90244 79.30266 115.02415 79.32103 115.14587 79.33897 115.2676 79.35808 115.3893 79.37608 115.51102 79.39465 115.63275 79.41315 115.75447 79.43144 115.87617 79.45 115.9979 79.4691 116.11961 79.48753 116.24133 79.50641 116.36305 79.52472 116.48477 79.54367 116.60649 79.56271 116.7282 79.58174 116.84993 79.6003 116.97165 79.61926 117.09337 79.63835 117.21507 79.65738 117.33679 79.67656 117.45853 79.69531 117.58025 79.71481 117.70195 79.73372 117.82367 79.753 117.94539 79.7727 118.06711 79.79189 118.18883 79.81084 118.31055 79.83047 118.43227 79.84984 118.55397 79.86935 118.67569 79.88905 118.79742 79.90836 118.91914 79.92812 119.04085 79.94762 119.16257 79.96765 119.28429 79.98744 119.40602 80.0072 119.52773 80.02684 119.64944 80.04694 119.77116 80.06677 119.89288 80.08708 120.0146 80.10706 120.13632 80.12703 120.25804 80.14702 120.37976 80.16733 120.50146 80.18756 120.62318 80.20787 120.74492 80.22832 120.86662 80.24849 120.98834 80.26892 121.11006 80.28964 121.23178 80.31007 121.3535 80.33066 121.47522 80.35124 121.59694 80.3718 121.71866 80.39252 121.84036 80.4135 121.9621 80.4342 122.08382 80.45506 122.20554 80.47597 122.32724 80.49722 122.44896 80.51834 122.57068 80.53952 122.69241 80.56042 122.81412 80.58176 122.93584 80.60301 123.05756 80.62433 123.17926 80.6459 123.301 80.66722 123.42271 80.68867 123.54443 80.71027 123.66614 80.73196 123.78786 80.75377 123.90959 80.77542 124.03131 80.79713 124.15302 80.81914 124.27473 80.84099 124.39645 80.8629 124.51819 80.88496 124.6399 80.90721 124.76161 80.92928 124.88333 80.95154 125.00505 80.97392 125.12675 80.9964 125.24849 81.01884 125.37021 81.04118 125.49191 81.0639 125.61363 81.08662 125.73535 81.1093 125.85709 81.13202 125.97879 81.15497 126.10051 81.17795 126.22223 81.20088 126.34395 81.22401 126.46567 81.24709 126.58739 81.27028 126.7091 81.29362 126.83083 81.31708 126.95253 81.34056 127.07426 81.36415 127.19598 81.38763 127.3177 81.41144 127.4394 81.43497 127.56113 81.45897 127.68285 81.48297 127.80457 81.50699 127.92628 81.53093 128.048 81.55515 128.16973 81.57942 128.29143 81.60362 128.41316 81.62816 128.53488 81.65271 128.6566 81.67719 128.7783 81.70193 128.90003 81.72668 129.02176 81.75151 129.14348 81.77632 129.26519 81.80138 129.3869 81.8266 129.50862 81.85176 129.63033 81.87576 129.75206 81.90132 129.87378 81.92688 129.9955 81.95242 130.1172 81.97798 130.23892 82.00421 130.36066 82.02975 130.48238 82.05591 130.60408 82.08221 130.7258 82.1085 130.84752 82.13466 130.96926 82.16089 131.09096 82.18779 131.21268 82.21408 131.3344 82.24098 131.45612 82.2678 131.57784 82.29485 131.69956 82.32234 131.82128 82.34917 131.94298 82.3768 132.0647 82.40439 132.18642 82.43202 132.30815 82.45966 132.42986 82.48709 132.55158 82.51547 132.6733 82.54366 132.79502 82.57263 132.91674 82.60081 133.03845 82.62973 133.16017 82.65797 133.28189 82.68689 133.4036 82.71587 133.52533 82.74478 133.64705 82.7737 133.76877 82.80328 133.89048 82.8322 134.01219 82.86246 134.13393 82.89212 134.25563 82.92238 134.37735 82.9519 134.49907 82.98216 134.62079 83.0131 134.7425 83.04349 134.86423 83.07436 134.98595 83.10536 135.10767 83.13696 135.22937 83.16783 135.35109 83.19943 135.47283 83.23103 135.59455 83.26338 135.71625 83.29565 135.83797 83.32727 135.95969 83.36023 136.08142 83.39256 136.20313 83.42545 136.32485 83.45914 136.44657 83.49208 136.56827 83.52571 136.68999 83.55927 136.81172 83.59363 136.93344 83.62793 137.05515 83.66223 137.17687 83.69658 137.29859 83.73216 137.42032 83.7672 137.54203 83.80276 137.66374 83.83847 137.78546 83.87411 137.90718 83.91043 138.0289 83.94748 138.15062 83.9844 138.27234 84.02145 138.39406 84.0591 138.51576 84.09676 138.6375 84.1351 138.75922 84.17342 138.88092 84.21175 139.00264 84.2515 139.12436 84.2905 139.24608 84.33078 139.3678 84.37112 139.48952 84.41154 139.61124 84.45256 139.73296 84.49426 139.85466 84.53589 139.9764 84.57831 140.09812 84.62068 140.21984 84.66438 140.34154 84.70816 140.46326 84.75188 140.58499 84.79694 140.70671 84.84198 140.82842 84.88777 140.95014 84.93411 141.07186 84.98126 141.19358 85.02893 141.31529 85.07741 141.43701 85.12582 141.55873 85.17558 141.68044 85.22609 141.80216 85.27713 141.92389 85.32896 142.04561 85.38217 142.16732 85.4359 142.28903 85.49037 142.41075 85.54625 142.53249 85.60274 142.65419 85.66057 142.77591 85.71907 142.89763 85.77959 143.01935 85.84093 143.14107 85.90414 143.26279 85.96788 143.3845 86.03453 143.50621 86.10184 143.62793 86.17184 143.74967 86.24371 143.87139 86.31769 143.99309 86.39449 144.1148 86.47377 144.23653 86.55649 144.35825 86.64195 144.47997 86.73207 144.60169 86.82689 144.7234 86.92714 144.84513 87.0334 144.96683 87.14772 145.08856 87.27292 145.21028 87.41011 145.33199 87.5662 145.4537 87.75179 145.57543 87.993 145.69716 88.5582"/>
<path transform="matrix(1,0,0,-1.00002,2.0960007,163.18994)" stroke-width="1.49442" stroke-linecap="butt" stroke-miterlimit="10" stroke-linejoin="miter" fill="none" stroke="#1414cc" d="M48.56575 65.28235 48.68745 65.86537 48.80919 66.10692 48.93091 66.29192 49.05261 66.4486 49.17433 66.58578 49.29605 66.71098 49.41777 66.8253 49.53949 66.93156 49.66121 67.03183 49.78293 67.1259 49.90465 67.21614 50.02635 67.30222 50.14809 67.38493 50.2698 67.46422 50.39153 67.54102 50.51323 67.61499 50.63495 67.68686 50.75668 67.75612 50.87839 67.82419 51.0001 67.89008 51.12183 67.95457 51.24355 68.01778 51.36526 68.07912 51.48698 68.13889 51.6087 68.19814 51.73042 68.25597 51.85213 68.31245 51.97385 68.36833 52.09558 68.4228 52.2173 68.47653 52.339 68.52972 52.46072 68.58157 52.58244 68.63261 52.70418 68.6831 52.82588 68.73221 52.9476 68.7813 53.06932 68.82977 53.19102 68.87746 53.31276 68.92459 53.43448 68.97093 53.5562 69.01671 53.6779 69.06177 53.79962 69.10683 53.92136 69.15054 54.04308 69.19432 54.16478 69.23802 54.2865 69.2804 54.40822 69.32283 54.52994 69.36444 54.65166 69.40614 54.77338 69.44716 54.8951 69.48758 55.01682 69.52792 55.13852 69.56819 55.26025 69.60721 55.38197 69.64635 55.50368 69.68529 55.6254 69.7236 55.74712 69.76195 55.86885 69.7996 55.99055 69.83727 56.11227 69.8743 56.234 69.91122 56.35571 69.94827 56.47743 69.98459 56.59915 70.02023 56.72087 70.05594 56.84259 70.0915 56.9643 70.12656 57.08601 70.16151 57.20775 70.19649 57.32947 70.23077 57.45117 70.26508 57.57289 70.29944 57.69461 70.333 57.81633 70.36662 57.93805 70.39957 58.05977 70.43326 58.18149 70.46616 58.30319 70.49849 58.42493 70.53084 58.54665 70.56305 58.66837 70.59532 58.79007 70.62767 58.91179 70.65927 59.03351 70.69087 59.15524 70.72174 59.27695 70.75334 59.39867 70.78436 59.52039 70.81522 59.6421 70.84561 59.76382 70.87587 59.88554 70.90681 60.00726 70.93706 60.12897 70.96658 60.25069 70.99625 60.37242 71.02582 60.49414 71.05542 60.61584 71.085 60.73756 71.11392 60.85928 71.14284 60.98102 71.17183 61.10272 71.20074 61.22444 71.22899 61.34616 71.2579 61.46788 71.28607 61.58958 71.31506 61.71132 71.34323 61.83304 71.37161 61.95476 71.39905 62.07646 71.42668 62.19818 71.45432 62.31992 71.48189 62.44162 71.50954 62.56334 71.53636 62.68506 71.56326 62.80678 71.5909 62.9285 71.61772 63.05022 71.64462 63.17194 71.67091 63.29366 71.69781 63.41536 71.72404 63.5371 71.7502 63.65881 71.7765 63.78053 71.80278 63.90224 71.82895 64.02396 71.85449 64.14568 71.88072 64.2674 71.90628 64.38911 71.93184 64.51083 71.95738 64.63255 71.98294 64.75426 72.00789 64.87599 72.0321 64.99771 72.05725 65.11943 72.0824 65.24113 72.10721 65.36285 72.13203 65.48459 72.15677 65.60631 72.18152 65.72801 72.206 65.84973 72.23055 65.97145 72.25488 66.09317 72.27928 66.21489 72.30356 66.33661 72.32779 66.45833 72.35172 66.58003 72.37573 66.70175 72.39973 66.82349 72.42368 66.9452 72.44727 67.06691 72.47107 67.18863 72.49455 67.31035 72.51814 67.43208 72.54155 67.55379 72.56508 67.6755 72.58842 67.79723 72.61162 67.91895 72.63469 68.04066 72.65782 68.16238 72.68076 68.2841 72.70374 68.40582 72.72655 68.52753 72.7494 68.64925 72.77208 68.77098 72.7948 68.89268 72.81754 69.0144 72.83986 69.13612 72.86232 69.25784 72.88464 69.37956 72.90718 69.50128 72.92943 69.623 72.95149 69.74472 72.97374 69.86642 72.99567 69.98816 73.01773 70.10988 73.03957 70.2316 73.06157 70.3533 73.0833 70.47502 73.10493 70.59676 73.12674 70.71848 73.14845 70.84018 73.17003 70.9619 73.19148 71.08362 73.2128 71.20532 73.23439 71.32706 73.25569 71.44878 73.27695 71.5705 73.29828 71.6922 73.31918 71.81392 73.34058 71.93565 73.36148 72.05737 73.38274 72.17908 73.40358 72.3008 73.42429 72.42252 73.4452 72.54425 73.46619 72.66595 73.48691 72.78767 73.50761 72.9094 73.52806 73.03111 73.54865 73.15283 73.56908 73.27455 73.58998 73.39627 73.61021 73.51797 73.6304 73.6397 73.65085 73.76141 73.6711 73.88315 73.69139 74.00485 73.7117 74.12657 73.73167 74.24829 73.75185 74.37001 73.77162 74.49173 73.79193 74.61345 73.81183 74.73517 73.83173 74.85689 73.8515 74.97859 73.87128 75.10033 73.89105 75.22205 73.91109 75.34377 73.93059 75.46547 73.95035 75.58719 73.96965 75.70891 73.98923 75.83063 74.00887 75.95235 74.02823 76.07407 74.04752 76.19579 74.06697 76.31749 74.086 76.43922 74.1057 76.56094 74.12498 76.68266 74.14423 76.80437 74.16339 76.92609 74.18214 77.04782 74.20132 77.16954 74.22069 77.29124 74.23944 77.41296 74.2584 77.53468 74.27696 77.6564 74.29573 77.77812 74.31503 77.89984 74.33398 78.02156 74.3523 78.14326 74.37105 78.26498 74.38962 78.38672 74.4087 78.50844 74.42726 78.63014 74.44576 78.75186 74.46405 78.87358 74.48262 78.99532 74.50063 79.11702 74.51973 79.23874 74.53767 79.36046 74.55605 79.48218 74.57433 79.6039 74.59248 79.72562 74.61118 79.84734 74.62921 79.96904 74.6473 80.09076 74.66518 80.2125 74.68321 80.33421 74.70189 80.45592 74.71986 80.57764 74.73767 80.69936 74.75543 80.82108 74.77339 80.9428 74.79167 81.06451 74.80989 81.18623 74.82764 81.30795 74.8454 81.42966 74.8631 81.55139 74.8809 81.67311 74.89867 81.79483 74.91641 81.91653 74.93396 82.03825 74.95164 82.15999 74.96907 82.28171 74.98662 82.40343 75.00417 82.52513 75.02159 82.64685 75.03908 82.76857 75.05629 82.8903 75.0737 83.01201 75.09119 83.13373 75.10834 83.25545 75.12567 83.37717 75.1429 83.49889 75.16025 83.6206 75.1774 83.74232 75.19446 83.86404 75.21161 83.98576 75.22856 84.10748 75.24571 84.2292 75.26294 84.35092 75.28009 84.47264 75.29688 84.59435 75.3137 84.71608 75.33092 84.8378 75.3478 84.95952 75.36453 85.08122 75.38148 85.20294 75.3983 85.32466 75.41496 85.4464 75.43192 85.5681 75.44867 85.68982 75.46521 85.81154 75.48181 85.93326 75.49863 86.055 75.51517 86.1767 75.53178 86.29842 75.5484 86.42014 75.5648 86.54185 75.58148 86.66357 75.59796 86.7853 75.61429 86.90701 75.6307 87.02873 75.64725 87.15045 75.66379 87.27217 75.67993 87.39389 75.69627 87.51561 75.71262 87.63733 75.72888 87.75903 75.74516 87.88075 75.76143 88.00249 75.77763 88.1242 75.79398 88.24591 75.80984 88.36763 75.82605 88.48935 75.84206 88.61108 75.85818 88.73279 75.8746 88.8545 75.89026 88.97623 75.90627 89.09795 75.92255 89.21968 75.93842 89.34138 75.9544 89.4631 75.97017 89.58482 75.98618 89.70654 76.00177 89.82825 76.01797 89.94998 76.03343 90.0717 76.04936 90.19342 76.06503 90.31514 76.0807 90.43684 76.09651 90.55858 76.11226 90.6803 76.12791 90.80202 76.14365 90.92372 76.15904 91.04544 76.17485 91.16718 76.19046 91.2889 76.20605 91.4106 76.22159 91.53232 76.23712 91.65404 76.25285 91.77577 76.2682 91.89749 76.2834 92.0192 76.29912 92.14091 76.31439 92.26263 76.33005 92.38435 76.34505 92.50607 76.36046 92.62779 76.37625 92.74951 76.39125 92.87123 76.40665 92.99294 76.42192 93.11467 76.4369 93.23639 76.45216 93.35811 76.46724 93.47981 76.48264 93.60153 76.49777 93.72327 76.51291 93.84499 76.5279 93.9667 76.54309 94.08841 76.55835 94.21013 76.57336 94.33186 76.58821 94.45358 76.60321 94.57529 76.61835 94.697 76.63327 94.81873 76.64825 94.94044 76.66313 95.06218 76.67845 95.18388 76.69298 95.3056 76.70798 95.42732 76.72264 95.54903 76.73764 95.67076 76.75243 95.79248 76.76709 95.9142 76.78217 96.03592 76.79688 96.15762 76.81174 96.27936 76.8262 96.40108 76.84125 96.5228 76.85593 96.6445 76.87065 96.76622 76.8853 96.88794 76.89963 97.00967 76.91455 97.1314 76.9291"/>
<path transform="matrix(1,0,0,-1.00002,2.0960007,163.18994)" stroke-width="1.49442" stroke-linecap="butt" stroke-miterlimit="10" stroke-linejoin="miter" fill="none" stroke="#1414cc" d="M48.56575 65.28235 48.93132 63.26202 49.29688 62.42386 49.66245 61.7822 50.028 61.23993 50.39357 60.76248 50.75912 60.33063 51.12468 59.93523 51.49025 59.5651 51.8558 59.21811 52.22137 58.88982 52.58693 58.57767 52.9525 58.28058 53.31805 57.99397 53.68362 57.71947 54.04918 57.45451 54.41475 57.19751 54.7803 56.9487 55.14587 56.70647 55.51143 56.47112 55.877 56.24248 56.24255 56.01895 56.60812 55.80107 56.97368 55.58871 57.33923 55.37878 57.7048 55.17555 58.07036 54.9753 58.43593 54.77881 58.80148 54.58635 59.16705 54.39671 59.53261 54.21098 59.89818 54.0282 60.26373 53.84785 60.6293 53.67168 60.99486 53.4967 61.36043 53.32333 61.72598 53.15375 62.09155 52.98683 62.4571 52.82155 62.82266 52.65881 63.18823 52.49849 63.55379 52.33844 63.91936 52.18243 64.28491 52.02777 64.65048 51.87445 65.01604 51.72476 65.3816 51.57535 65.74716 51.4274 66.11273 51.28067 66.47829 51.1357 66.84387 50.99191 67.20943 50.84949 67.575 50.70854 67.94055 50.56946 68.30612 50.43109 68.67168 50.29443 69.03723 50.15875 69.4028 50.02452 69.76836 49.89137 70.13393 49.75902 70.49948 49.62764 70.86505 49.49867 71.2306 49.36954 71.59618 49.24191 71.96173 49.11469 72.3273 48.9888 72.69286 48.86452 73.05843 48.74025 73.42398 48.61719 73.78955 48.49573 74.1551 48.37402 74.52068 48.25352 74.88623 48.13437 75.25179 48.01576 75.61736 47.89848 75.98291 47.78091 76.34848 47.66432 76.71404 47.5492 77.0796 47.43446 77.44516 47.32014 77.81073 47.20691 78.17628 47.09409 78.54185 46.98218 78.90741 46.87161 79.27298 46.76094 79.63853 46.65187 80.0041 46.54225 80.36966 46.43279 80.73521 46.32613 81.10078 46.21652 81.46634 46.11026 81.83191 46.00375 82.19746 45.89842 82.56305 45.79314 82.9286 45.6889 83.29417 45.58495 83.65973 45.48125 84.0253 45.3785 84.39085 45.276 84.75642 45.1742 85.12198 45.07333 85.48755 44.97205 85.8531 44.87173 86.21867 44.77206 86.58423 44.67227 86.94978 44.57384 87.31535 44.47551 87.68091 44.37733 88.04648 44.27997 88.41203 44.18326 88.7776 44.08644 89.14316 43.98987 89.50873 43.89464 89.87428 43.7993 90.23985 43.70488 90.60541 43.61006 90.97098 43.51674 91.33653 43.42311 91.7021 43.32925 92.06766 43.23656 92.43323 43.14406 92.79878 43.05246 93.16434 42.961 93.5299 42.86899 93.89548 42.77837 94.26105 42.68759 94.6266 42.59787 94.99217 42.50804 95.35773 42.419 95.7233 42.32904 96.08885 42.24025 96.45442 42.15164 96.81998 42.06421 97.18555 41.97612 97.5511 41.88869 97.91667 41.80127 98.28223 41.71425 98.64778 41.62804 99.01335 41.54265 99.3789 41.45671 99.74448 41.3709 100.11003 41.2851 100.4756 41.20023 100.84116 41.11684 101.20673 41.03185 101.57228 40.94753 101.93785 40.86386 102.3034 40.78035 102.66898 40.69736 103.03453 40.61465 103.4001 40.53181 103.76567 40.44923 104.13124 40.36679 104.4968 40.28516 104.86235 40.20406 105.22792 40.12321 105.59348 40.04199 105.95905 39.96089 106.3246 39.88005 106.69017 39.80125 107.05573 39.72015 107.4213 39.64134 107.78685 39.56078 108.15242 39.48169 108.51797 39.40247 108.88354 39.32472 109.2491 39.24594 109.61467 39.16713 109.98022 39.08992 110.3458 39.01097 110.71135 38.93498 111.0769 38.85739 111.44247 38.77979 111.80803 38.70232 112.1736 38.62593 112.53915 38.5486 112.90474 38.4745 113.2703 38.39809 113.63586 38.31993 114.00142 38.2441 114.36699 38.16891 114.73254 38.09361 115.09811 38.01842 115.46367 37.94379 115.82924 37.86954 116.1948 37.79517 116.56035 37.72093 116.92592 37.64682 117.29147 37.57338 117.65704 37.49942 118.0226 37.42598 118.38817 37.35295 118.75372 37.28006 119.1193 37.2069 119.48485 37.13414 119.85042 37.06139 120.21597 36.98955 120.58154 36.91707 120.9471 36.84566 121.31267 36.77425 121.67822 36.70215 122.0438 36.6306 122.40935 36.56026 122.7749 36.48816 123.14047 36.4177 123.50603 36.34723 123.8716 36.27637 124.23715 36.20615 124.60272 36.13622 124.96828 36.06602 125.33385 35.99713 125.6994 35.92708 126.06497 35.85768 126.43053 35.78773 126.7961 35.71863 127.16165 35.64973 127.52722 35.58063 127.89278 35.51231 128.25835 35.44276 128.6239 35.3754 128.98946 35.30692 129.35503 35.23915 129.72058 35.17096 130.08615 35.10371 130.4517 35.0358 130.81728 34.96828 131.18285 34.90103 131.54842 34.83406 131.91397 34.7675 132.27954 34.69983 132.6451 34.63367 133.01067 34.5667 133.37622 34.50064 133.74179 34.43394 134.10735 34.36763 134.4729 34.30202 134.83847 34.23679 135.20403 34.17021 135.5696 34.10472 135.93515 34.03894 136.30072 33.97385 136.66628 33.90875 137.03185 33.84474 137.3974 33.77965 137.76297 33.7144 138.12853 33.65 138.4941 33.58557 138.85965 33.52129 139.22522 33.45688 139.59078 33.39297 139.95635 33.32883 140.3219 33.26442 140.68746 33.20201 141.05303 33.1384 141.41858 33.07504 141.78415 33.01115 142.1497 32.94821 142.51528 32.8854 142.88083 32.82153 143.2464 32.75859 143.61196 32.69592 143.97753 32.63446 144.34308 32.5707 144.70865 32.50938 145.0742 32.44751 145.43978 32.38483 145.80533 32.32324 146.1709 32.26057 146.53646 32.1987 146.90201 32.13777 147.26758 32.07578 147.63314 32.01363 147.9987 31.95258 148.36426 31.89165 148.72983 31.83154 149.09539 31.76993 149.46097 31.70888 149.82653 31.64795 150.1921 31.58795 150.55765 31.52702 150.92322 31.4661 151.28878 31.40614 151.65435 31.34521 152.0199 31.28603 152.38545 31.22577 152.75102 31.16713 153.11658 31.10606 153.48215 31.04759 153.8477 30.98744 154.21327 30.92761 154.57883 30.8683 154.9444 30.80858 155.30995 30.75061 155.67552 30.69035 156.04108 30.63066 156.40665 30.57216 156.7722 30.51512 157.13777 30.45634 157.50333 30.39745 157.8689 30.33879 158.23445 30.28017 158.6 30.22098 158.96558 30.1633 159.33113 30.10504 159.6967 30.04723 160.06226 29.98792 160.42783 29.93062 160.79338 29.87563 161.15895 29.8167 161.5245 29.75967 161.89008 29.7024 162.25563 29.6451 162.6212 29.58727 162.98676 29.52902 163.35233 29.47362 163.71788 29.4151 164.08345 29.35863 164.449 29.30173 164.81456 29.2466 165.18013 29.18985 165.54569 29.13214 165.91126 29.07672 166.27681 29.02065 166.64238 28.96443 167.00794 28.9066 167.3735 28.8512 167.73908 28.79578 168.10465 28.7397 168.4702 28.68307 168.83577 28.62834 169.20133 28.57292 169.5669 28.5167 169.93245 28.46089 170.298 28.40683 170.66358 28.3506 171.02913 28.2948 171.3947 28.24019 171.76026 28.18437 172.12583 28.12923 172.49138 28.07436 172.85695 28.02245 173.2225 27.9669 173.58808 27.9123 173.95363 27.85756 174.3192 27.80188 174.68476 27.7481 175.05033 27.69226 175.41588 27.63806 175.78145 27.58401 176.147 27.5294 176.51256 27.4748 176.87813 27.4241 177.24369 27.3711 177.60926 27.31516 177.97481 27.26259 178.34038 27.20502 178.70594 27.15135 179.0715 27.09863 179.43706 27.04497 179.80263 26.99089 180.16819 26.9379 180.53376 26.88518 180.8993 26.83206 181.26488 26.77934 181.63043 26.72595 181.996 26.67296 182.36156 26.62064 182.72711 26.5667 183.09268 26.51398 183.45824 26.46182 183.8238 26.40881 184.18936 26.35649 184.55493 26.30418 184.92049 26.25185 185.28606 26.19913 185.65163 26.1479 186.0172 26.09572 186.38275 26.04312 186.74832 25.99162 187.11388 25.93916 187.47945 25.88779 187.845 25.83534 188.21057 25.78357 188.57613 25.73206 188.94168 25.6812 189.30725 25.6301 189.6728 25.57738 190.03838 25.5256 190.40393 25.47488 190.7695 25.4238 191.13506 25.37254 191.50063 25.32185 191.86618 25.27008 192.23175 25.21965 192.5973 25.16826 192.96288 25.11702 193.32843 25.06671 193.694 25.016 194.05956 24.96477 193.29286 25.07162"/>
<path transform="matrix(.9904,.13805278,.13805,-.99041989,195.38886,138.11782)" stroke-width="1.19553" stroke-linecap="round" stroke-linejoin="round" fill="none" stroke="#1414cc" d="M-2.18182 2.9091C-2 1.81818 0 .18181 .54544 0 0-.18181-2-1.81818-2.18182-2.9091"/>
<path transform="matrix(1,0,0,-1.00002,2.0960007,163.18994)" stroke-width="1.49442" stroke-linecap="butt" stroke-miterlimit="10" stroke-linejoin="miter" fill="none" stroke="#1414cc" d="M80.94293 107.32452V107.8625"/>
<path transform="matrix(1,0,0,-1.00002,2.0960007,163.18994)" stroke-width="1.49442" stroke-linecap="butt" stroke-miterlimit="10" stroke-linejoin="miter" fill="none" stroke="#1414cc" d="M145.69728 88.30737V88.84534"/>
<path transform="matrix(1,0,0,-1.00002,2.0960007,163.18994)" stroke-width="1.49442" stroke-linecap="butt" stroke-miterlimit="10" stroke-linejoin="miter" fill="none" stroke="#1414cc" d="M48.56575 65.01337V65.55133"/>
</g>
<use data-text="x" xlink:href="#font_4_1" transform="matrix(9.9626,0,0,-9.962799,187.18302,78.95825)"/>
<use data-text="y" xlink:href="#font_4_2" transform="matrix(9.9626,0,0,-9.962799,102.763,9.572861)"/>
</svg>
