<svg xmlns="http://www.w3.org/2000/svg" xmlns:xlink="http://www.w3.org/1999/xlink" xmlns:inkscape="http://www.inkscape.org/namespaces/inkscape" version="1.1" width="201" height="165" viewBox="0 0 201 165">
<defs>
<path id="font_1_1" d="M.6589966 .23046875C.6759949 .23046875 .69400027 .23046875 .69400027 .25045777 .69400027 .27046205 .6759949 .27046205 .6589966 .27046205H.117996219C.100997928 .27046205 .08299255 .27046205 .08299255 .25045777 .08299255 .23046875 .100997928 .23046875 .117996219 .23046875H.6589966Z"/>
<path id="font_2_2" d="M.2939911 .16503906V.07800293C.2939911 .041992189 .2919922 .0309906 .21798706 .0309906H.19699097V0C.23799134 .0029907227 .2899933 .0029907227 .33198548 .0029907227 .37399293 .0029907227 .4269867 .0029907227 .46798707 0V.0309906H.44699098C.37298585 .0309906 .37098695 .041992189 .37098695 .07800293V.16503906H.47099305V.19602967H.37098695V.65075686C.37098695 .67074587 .37098695 .6767578 .35499574 .6767578 .34599305 .6767578 .34298707 .6767578 .33499146 .66474917L.027999878 .19602967V.16503906H.2939911M.2999878 .19602967H.055999757L.2999878 .5688019V.19602967Z"/>
<path id="font_2_1" d="M.1269989 .07699585 .23298645 .18003845C.3889923 .31811524 .44898988 .3721466 .44898988 .47216798 .44898988 .5860901 .35899354 .6660156 .23699951 .6660156 .12399292 .6660156 .049987794 .57411196 .049987794 .48516847 .049987794 .4291687 .099990848 .4291687 .102996829 .4291687 .11999512 .4291687 .15499878 .44117738 .15499878 .48217774 .15499878 .5081787 .13699341 .5341797 .101989749 .5341797 .09399414 .5341797 .09199524 .5341797 .08898926 .5331726 .11199951 .59806826 .1659851 .63500979 .22399903 .63500979 .31498719 .63500979 .35798646 .5541382 .35798646 .47216798 .35798646 .39215089 .30799867 .31311036 .25299073 .25108338L.06098938 .036987306C.049987794 .025985718 .049987794 .023986817 .049987794 0H.42099L.44898988 .17404175H.42399598C.4189911 .14402771 .4119873 .1000061 .4019928 .084991458 .394989 .07699585 .32899476 .07699585 .30699159 .07699585H.1269989Z"/>
<clipPath id="clip_3">
<path transform="matrix(1.00002,0,0,-1.00002,-14.092659,163.18994)" d="M16.18858 0H210.45162V161.39028H16.18858Z"/>
</clipPath>
</defs>
<path transform="matrix(1.00002,0,0,-1.00002,-14.092659,163.18994)" stroke-width=".3985" stroke-linecap="butt" stroke-miterlimit="10" stroke-linejoin="miter" fill="none" stroke="#404040" d="M16.18858 0H210.45162V161.39028H16.18858Z"/>
<path transform="matrix(1.00002,0,0,-1.00002,-14.092659,163.18994)" stroke-width=".3985" stroke-linecap="butt" stroke-miterlimit="10" stroke-linejoin="miter" fill="none" stroke="#bfbfbf" d="M32.37717 0V161.39028M64.75433 0V161.39028M97.13152 0V161.39028M129.50868 0V161.39028M161.88587 0V161.39028M194.26303 0V161.39028"/>
<path transform="matrix(1.00002,0,0,-1.00002,-14.092659,163.18994)" stroke-width=".3985" stroke-linecap="butt" stroke-miterlimit="10" stroke-linejoin="miter" fill="none" stroke="#bfbfbf" d="M48.56575 0V161.39028M80.94293 0V161.39028M145.69728 0V161.39028M178.07445 0V161.39028"/>
<path transform="matrix(1.00002,0,0,-1.00002,-14.092659,163.18994)" stroke-width=".3985" stroke-linecap="butt" stroke-miterlimit="10" stroke-linejoin="miter" fill="none" stroke="#bfbfbf" d="M16.18858 13.44919H210.45162M16.18858 40.34756H210.45162M16.18858 67.24594H210.45162M16.18858 94.14432H210.45162M16.18858 121.04271H210.45162M16.18858 147.94109H210.45162"/>
<path transform="matrix(1.00002,0,0,-1.00002,-14.092659,163.18994)" stroke-width=".3985" stroke-linecap="butt" stroke-miterlimit="10" stroke-linejoin="miter" fill="none" stroke="#bfbfbf" d="M16.18858 26.89838H210.45162M16.18858 53.79675H210.45162M16.18858 107.59352H210.45162M16.18858 134.4919H210.45162"/>
<path transform="matrix(1.00002,0,0,-1.00002,-14.092659,163.18994)" stroke-width=".19925" stroke-linecap="butt" stroke-miterlimit="10" stroke-linejoin="miter" fill="none" stroke="#7f807f" d="M32.37717 79.27774V82.11252M64.75433 79.27774V82.11252M97.13152 79.27774V82.11252M129.50868 79.27774V82.11252M161.88587 79.27774V82.11252M194.26303 79.27774V82.11252"/>
<path transform="matrix(1.00002,0,0,-1.00002,-14.092659,163.18994)" stroke-width=".19925" stroke-linecap="butt" stroke-miterlimit="10" stroke-linejoin="miter" fill="none" stroke="#7f807f" d="M48.56575 78.56927V82.82098M80.94293 78.56927V82.82098M145.69728 78.56927V82.82098M178.07445 78.56927V82.82098"/>
<path transform="matrix(1.00002,0,0,-1.00002,-14.092659,163.18994)" stroke-width=".19925" stroke-linecap="butt" stroke-miterlimit="10" stroke-linejoin="miter" fill="none" stroke="#7f807f" d="M111.90266 13.44919H114.73753M111.90266 40.34756H114.73753M111.90266 67.24594H114.73753M111.90266 94.14432H114.73753M111.90266 121.04271H114.73753M111.90266 147.94109H114.73753"/>
<path transform="matrix(1.00002,0,0,-1.00002,-14.092659,163.18994)" stroke-width=".19925" stroke-linecap="butt" stroke-miterlimit="10" stroke-linejoin="miter" fill="none" stroke="#7f807f" d="M111.19417 26.89838H115.44601M111.19417 53.79675H115.44601M111.19417 107.59352H115.44601M111.19417 134.4919H115.44601"/>
<path transform="matrix(1.00002,0,0,-1.00002,-14.092659,163.18994)" stroke-width=".3985" stroke-linecap="butt" stroke-miterlimit="10" stroke-linejoin="miter" fill="none" stroke="#000000" d="M16.18858 80.69513H208.45909"/>
<path transform="matrix(1.00002,0,0,-1.00002,194.3706,82.493198)" d="M1.99252 0-1.19551 1.59401 0 0-1.19551-1.59401"/>
<path transform="matrix(1.00002,0,0,-1.00002,-14.092659,163.18994)" stroke-width=".3985" stroke-linecap="butt" stroke-miterlimit="10" stroke-linejoin="miter" fill="none" stroke="#000000" d="M113.3201 0V159.39775"/>
<path transform="matrix(0,-1.00002,-1.00002,-0,99.229709,3.7890015)" d="M1.99252 0-1.19551 1.59401 0 0-1.19551-1.59401"/>
<use data-text="&#x2212;" xlink:href="#font_1_1" transform="matrix(9.962799,0,0,-9.962799,28.109189,94.55957)"/>
<use data-text="4" xlink:href="#font_2_2" transform="matrix(9.962799,0,0,-9.962799,35.85834,94.55957)"/>
<use data-text="&#x2212;" xlink:href="#font_1_1" transform="matrix(9.962799,0,0,-9.962799,60.48684,94.55957)"/>
<use data-text="2" xlink:href="#font_2_1" transform="matrix(9.962799,0,0,-9.962799,68.23599,94.55957)"/>
<use data-text="2" xlink:href="#font_2_1" transform="matrix(9.962799,0,0,-9.962799,129.11722,94.55957)"/>
<use data-text="4" xlink:href="#font_2_2" transform="matrix(9.962799,0,0,-9.962799,161.49485,94.55957)"/>
<use data-text="&#x2212;" xlink:href="#font_1_1" transform="matrix(9.962799,0,0,-9.962799,80.85324,139.08646)"/>
<use data-text="4" xlink:href="#font_2_2" transform="matrix(9.962799,0,0,-9.962799,88.602397,139.08646)"/>
<use data-text="&#x2212;" xlink:href="#font_1_1" transform="matrix(9.962799,0,0,-9.962799,80.85324,112.18692)"/>
<use data-text="2" xlink:href="#font_2_1" transform="matrix(9.962799,0,0,-9.962799,88.602397,112.18692)"/>
<use data-text="2" xlink:href="#font_2_1" transform="matrix(9.962799,0,0,-9.962799,88.6024,58.804849)"/>
<use data-text="4" xlink:href="#font_2_2" transform="matrix(9.962799,0,0,-9.962799,88.6024,31.90532)"/>
<g clip-path="url(#clip_3)">
<path transform="matrix(1.00002,0,0,-1.00002,-14.092659,163.18994)" stroke-width=".3985" stroke-linecap="butt" stroke-miterlimit="10" stroke-linejoin="miter" fill="none" stroke="#000000" d="M0 0 .04095 .03403 .08194 .06807 .12291 .10211 .1639 .13615 .20486 .17021 .24585 .20424 .28682 .23828 .3278 .27234 .36879 .30637 .40976 .34042 .45074 .37447 .49171 .40851 .5327 .44255 .57367 .4766 .61465 .51064 .65562 .54468 .69661 .57874 .7376 .61276 .77856 .64682 .81955 .68086 .86052 .71489 .9015 .74895 .94247 .78299 .98346 .81703 1.02444 .85107 1.06541 .88513 1.1064 .91916 1.14735 .9532 1.18834 .98726 1.22931 1.02129 1.2703 1.05534 1.31126 1.08939 1.35225 1.12341 1.39323 1.15747 1.4342 1.19151 1.47519 1.22556 1.51616 1.2596 1.55714 1.29366 1.59811 1.32768 1.6391 1.36172 1.68007 1.39578 1.72105 1.42981 1.76204 1.46387 1.80301 1.49791 1.844 1.53195 1.88496 1.566 1.92595 1.60004 1.96692 1.63408 2.0079 1.66812 2.04889 1.70218 2.08986 1.7362 2.13084 1.77026 2.17181 1.8043 2.2128 1.83833 2.25377 1.87239 2.29474 1.90643 2.33571 1.94048 2.3767 1.97452 2.41768 2.00858 2.45865 2.0426 2.49963 2.07664 2.5406 2.1107 2.58159 2.14473 2.62256 2.17879 2.66354 2.21283 2.70453 2.24686 2.7455 2.28091 2.78648 2.31496 2.82745 2.349 2.86844 2.38304 2.90941 2.4171 2.9504 2.45113 2.99136 2.48517 3.03235 2.51923 3.07333 2.55325 3.1143 2.58731 3.15529 2.62134 3.19626 2.6554 3.23724 2.68944 3.27821 2.72346 3.3192 2.75752 3.36017 2.79156 3.40115 2.8256 3.44212 2.85965 3.4831 2.8937 3.52408 2.92773 3.56505 2.96178 3.60603 2.99583 3.647 3.02986 3.68799 3.06392 3.72897 3.09796 3.76994 3.13199 3.81093 3.16605 3.8519 3.20009 3.89288 3.23413 3.93385 3.26817 3.97484 3.30223 4.01581 3.33626 4.0568 3.3703 4.09778 3.40436 4.13875 3.43839 4.17973 3.47244 4.2207 3.50648 4.26169 3.54053 4.30266 3.57457 4.34364 3.60861 4.38461 3.64265 4.4256 3.6767 4.46658 3.71075 4.50755 3.74478 4.54854 3.77884 4.5895 3.81288 4.63048 3.84691 4.67145 3.88097 4.71243 3.91501 4.75342 3.94905 4.79439 3.9831 4.83537 4.01715 4.87634 4.05118 4.91733 4.08522 4.9583 4.11928 4.99928 4.1533 5.04025 4.18736 5.08124 4.2214 5.12222 4.25543 5.1632 4.28949 5.20418 4.32353 5.24515 4.35757 5.28613 4.39162 5.3271 4.42567 5.36809 4.4597 5.40907 4.49374 5.45004 4.5278 5.49103 4.56183 5.532 4.59589 5.57298 4.62993 5.61395 4.66397 5.65494 4.69801 5.6959 4.73206 5.73688 4.7661 5.77786 4.80014 5.81883 4.8342 5.85982 4.86823 5.90079 4.90228 5.94177 4.93633 5.98274 4.97035 6.02373 5.00441 6.0647 5.03845 6.10568 5.0725 6.14667 5.10654 6.18764 5.1406 6.22862 5.17462 6.26959 5.20866 6.31058 5.2427 6.35155 5.27675 6.39253 5.3108 6.43352 5.34483 6.47449 5.37888 6.51547 5.41293 6.55644 5.44696 6.59743 5.48102 6.6384 5.51506 6.67938 5.5491 6.72035 5.58315 6.76134 5.61719 6.80232 5.65123 6.84328 5.68527 6.88426 5.71933 6.92523 5.75336 6.96622 5.78741 7.00719 5.82146 7.04817 5.85548 7.08914 5.88954 7.13013 5.92358 7.17111 5.95763 7.21208 5.99167 7.25307 6.02573 7.29404 6.05975 7.33502 6.0938 7.37599 6.12785 7.41698 6.16188 7.45796 6.19594 7.49893 6.22998 7.53992 6.264 7.58089 6.29807 7.62187 6.3321 7.66284 6.36615 7.70383 6.40019 7.7448 6.43425 7.78578 6.46828 7.82677 6.50232 7.86774 6.53638 7.90872 6.5704 7.94969 6.60446 7.99066 6.6385 8.03163 6.67255 8.07262 6.70659 8.1136 6.74063 8.15457 6.77467 8.19556 6.80872 8.23653 6.84277 8.27751 6.8768 8.31848 6.91086 8.35947 6.9449 8.40044 6.97893 8.44142 7.01299 8.4824 7.04703 8.52338 7.08107 8.56436 7.11511 8.60533 7.14917 8.64632 7.1832 8.68729 7.21724 8.72827 7.2513 8.76924 7.28532 8.81023 7.31938 8.85121 7.35342 8.89218 7.38745 8.93317 7.42151 8.97414 7.45555 9.01512 7.4896 9.05609 7.52364 9.09708 7.5577 9.13805 7.59172 9.17902 7.62576 9.22 7.65982 9.26097 7.69385 9.30196 7.7279 9.34293 7.76195 9.38391 7.79599 9.42488 7.83003 9.46587 7.86406 9.50685 7.89812 9.54782 7.93216 9.5888 7.9662 9.62978 8.00024 9.67076 8.0343 9.71173 8.06833 9.75272 8.10237 9.79369 8.13643 9.83467 8.17046 9.87566 8.20451 9.91663 8.23856 9.95761 8.2726 9.99858 8.30664 10.03957 8.34068 10.08054 8.37473 10.12152 8.40877 10.1625 8.44283 10.20348 8.47685 10.24446 8.5109 10.28542 8.54495 10.3264 8.57898 10.36737 8.61304 10.40836 8.64708 10.44933 8.68112 10.49031 8.71516 10.5313 8.7492 10.57227 8.78325 10.61325 8.81729 10.65422 8.85135 10.6952 8.88538 10.73618 8.91943 10.77716 8.95348 10.81815 8.9875 10.85912 9.02156 10.9001 9.0556 10.94107 9.08965 10.98206 9.12369 11.02303 9.15775 11.06401 9.19177 11.10498 9.22581 11.14597 9.25987 11.18695 9.2939 11.22792 9.32796 11.2689 9.362 11.30988 9.39603 11.35086 9.43008 11.39183 9.46413 11.4328 9.49817 11.47377 9.53221 11.51476 9.56627 11.55574 9.6003 11.59671 9.63434 11.6377 9.6684 11.67867 9.70242 11.71965 9.73648 11.76062 9.77052 11.8016 9.80457 11.84259 9.83861 11.88356 9.87265 11.92455 9.9067 11.96552 9.94073 12.0065 9.9748 12.04747 10.00882 12.08846 10.04288 12.12943 10.07692 12.17041 10.11095 12.2114 10.145 12.25237 10.17905 12.29335 10.21309 12.33432 10.24713 12.3753 10.28119 12.41628 10.31522 12.45726 10.34926 12.49823 10.38332 12.5392 10.41734 12.58018 10.4514 12.62115 10.48543 12.66214 10.51947 12.70311 10.55353 12.7441 10.58755 12.78506 10.62161 12.82605 10.65565 12.86703 10.6897 12.908 10.72374 12.94899 10.75778 12.98996 10.79182 13.03094 10.82587 13.07191 10.85992 13.1129 10.89395 13.15387 10.92801 13.19485 10.96205 13.23584 10.99608 13.27681 11.03014 13.3178 11.06418 13.35876 11.09822 13.39975 11.13226 13.44072 11.16632 13.4817 11.20035 13.52269 11.23439 13.56366 11.26845 13.60464 11.30247 13.64561 11.33653 13.68658 11.37057 13.72755 11.4046 13.76854 11.43866 13.80951 11.4727 13.8505 11.50674 13.89148 11.54079 13.93245 11.57484 13.97343 11.60887 14.0144 11.64291 14.05539 11.67697 14.09636 11.711 14.13734 11.74506 14.17831 11.7791 14.2193 11.81314 14.26028 11.84718 14.30125 11.88123 14.34224 11.91527 14.38321 11.94931 14.4242 11.98337 14.46516 12.0174 14.50615 12.05145 14.54713 12.0855 14.5881 12.11952 14.62909 12.15358 14.67006 12.18762 14.71104 12.22166 14.75201 12.2557 14.793 12.28976 14.83395 12.32379 14.87494 12.35783 14.91592 12.39189 14.9569 12.42592 14.99788 12.45998 15.03885 12.49402 15.07983 12.52805 15.1208 12.5621 15.16179 12.59615 15.20276 12.63019 15.24374 12.66423 15.28473 12.69829 15.3257 12.73232 15.36668 12.76636 15.40765 12.80042 15.44864 12.83444 15.48961 12.8685 15.5306 12.90254 15.57158 12.93658 15.61255 12.97063 15.65353 13.00467 15.6945 13.03871 15.73549 13.07275 15.77646 13.1068 15.81744 13.14084 15.85841 13.1749 15.8994 13.20892 15.94038 13.24297 15.98134 13.27702 16.02232 13.31105 16.0633 13.34511 16.10428 13.37915 16.14525 13.4132 16.18623 13.44724 16.22722 13.48128 16.26819 13.51532 16.30917 13.54936 16.35014 13.58342"/>
<path transform="matrix(1.00002,0,0,-1.00002,-14.092659,163.18994)" d="M0 0" fill="#ffffff"/>
<path transform="matrix(1.00002,0,0,-1.00002,-14.092659,163.18994)" stroke-width=".99628" stroke-linecap="butt" stroke-miterlimit="10" stroke-linejoin="miter" fill="none" stroke="#000000" d="M0 0"/>
<path transform="matrix(1.00002,0,0,-1.00002,-14.092659,163.18994)" stroke-width=".3985" stroke-linecap="butt" stroke-miterlimit="10" stroke-linejoin="miter" fill="none" stroke="#000000" d="M16.02669 13.18019 16.10864 13.31636 16.1906 13.45255 16.27255 13.58871 16.3545 13.72491 16.43646 13.86104 16.51842 13.99722 16.60037 14.13342 16.68233 14.2696 16.7643 14.40578 16.84625 14.54192 16.9282 14.67812 17.01016 14.81427 17.0921 14.95047 17.17406 15.08665 17.25601 15.2228 17.33797 15.35898 17.41994 15.49516 17.50189 15.63135 17.58385 15.76753 17.6658 15.90367 17.74776 16.03986 17.82971 16.17604 17.91167 16.31221 17.99362 16.4484 18.07559 16.58455 18.15755 16.72072 18.23949 16.8569 18.32144 16.9931 18.4034 17.12927 18.48535 17.26541 18.5673 17.4016 18.64926 17.53778 18.73123 17.67397 18.81319 17.81015 18.89514 17.94629 18.9771 18.08247 19.05905 18.21867 19.141 18.35483 19.22296 18.49103 19.3049 18.62717 19.38686 18.76335 19.46883 18.89954 19.55078 19.0357 19.63274 19.1719 19.71469 19.30804 19.79665 19.44421 19.8786 19.5804 19.96056 19.71658 20.04251 19.85277 20.12448 19.9889 20.20644 20.12509 20.28839 20.26126 20.37035 20.39746 20.45229 20.53365 20.53424 20.66977 20.6162 20.80597 20.69815 20.94215 20.78012 21.07834 20.86208 21.21451 20.94403 21.35065 21.02599 21.48685 21.10794 21.62303 21.1899 21.7592 21.27185 21.89539 21.3538 22.03154 21.43578 22.1677 21.51773 22.3039 21.59967 22.44008 21.68163 22.57626 21.76358 22.7124 21.84554 22.84859 21.92749 22.98477 22.00945 23.12096 22.0914 23.25714 22.17337 23.39328 22.25533 23.52946 22.33728 23.66565 22.41924 23.80182 22.50119 23.93802 22.58315 24.07414 22.6651 24.21033 22.74704 24.34653 22.82901 24.4827 22.91096 24.61888 22.99292 24.75502 23.07487 24.8912 23.15683 25.02739 23.23878 25.16357 23.32074 25.29974 23.4027 25.4359 23.48466 25.57208 23.56662 25.70825 23.64857 25.84445 23.73053 25.98064 23.81248 26.11676 23.89442 26.25296 23.97638 26.38913 24.05833 26.52533 24.1403 26.6615 24.22226 26.79764 24.30421 26.93382 24.38617 27.07 24.46812 27.20619 24.55008 27.34238 24.63203 27.47853 24.71399 27.61469 24.79594 27.75089 24.87791 27.88707 24.95987 28.02325 25.04181 28.1594 25.12376 28.29558 25.20572 28.43176 25.28767 28.56795 25.36963 28.70413 25.45158 28.84027 25.53355 28.97646 25.61551 29.11264 25.69746 29.24881 25.77942 29.385 25.86137 29.52112 25.94333 29.65732 26.02528 29.7935 26.10724 29.92967 26.1892 30.06587 26.27115 30.20201 26.3531 30.3382 26.43506 30.47437 26.51701 30.61057 26.59897 30.74673 26.68092 30.88289 26.76288 31.01907 26.84485 31.15524 26.9268 31.29144 27.00876 31.42763 27.09071 31.56375 27.17267 31.69995 27.25462 31.83612 27.33656 31.9723 27.41852 32.10849 27.50047 32.24463 27.58244 32.38081 27.6644 32.517 27.74635 32.65317 27.82831 32.78937 27.91026 32.9255 27.99222 33.06168 28.07417 33.19788 28.15613 33.33406 28.2381 33.47023 28.32005 33.60638 28.40201 33.74257 28.48395 33.87875 28.5659 34.01492 28.64786 34.15111 28.72981 34.28725 28.81177 34.42343 28.89374 34.55962 28.9757 34.6958 29.05765 34.83199 29.1396 34.96811 29.22156 35.10431 29.30351 35.2405 29.38547 35.37668 29.46742 35.51285 29.5494 35.649 29.63133 35.78519 29.71329 35.92136 29.79524 36.05756 29.8772 36.19373 29.95915 36.32988 30.0411 36.46606 30.12306 36.60223 30.20502 36.73843 30.28699 36.87459 30.36894 37.01074 30.4509 37.14694 30.53285 37.28311 30.6148 37.4193 30.69675 37.55548 30.7787 37.6916 30.86066 37.82779 30.94263 37.96399 31.02458 38.10016 31.10654 38.23636 31.18849 38.3725 31.27045 38.50867 31.3524 38.64487 31.43436 38.78105 31.51631 38.91724 31.59828 39.05338 31.68024 39.18956 31.76219 39.32573 31.84413 39.46191 31.92609 39.5981 32.00804 39.73424 32.09 39.87042 32.17195 40.0066 32.25392 40.14279 32.33588 40.27898 32.41783 40.41512 32.49979 40.5513 32.58174 40.68748 32.6637 40.82365 32.74565 40.95984 32.8276 41.096 32.90956 41.23216 32.99152 41.36835 33.07347 41.50455 33.15543 41.64072 33.23738 41.77686 33.31934 41.91304 33.40129 42.04922 33.48325 42.18541 33.5652 42.32158 33.64717 42.45773 33.72913 42.59392 33.81108 42.73009 33.89304 42.86629 33.97499 43.00247 34.05695 43.1386 34.13889 43.2748 34.22084 43.41098 34.30281 43.54715 34.38477 43.68333 34.46672 43.81949 34.54868 43.95566 34.63063 44.09184 34.71259 44.22804 34.79454 44.36421 34.8765 44.50035 34.95847 44.63654 35.04042 44.77272 35.12238 44.9089 35.20433 45.04507 35.28627 45.18123 35.36823 45.31741 35.45018 45.45358 35.53214 45.58978 35.61409 45.72597 35.69606 45.86209 35.77802 45.99829 35.85997 46.13448 35.94193 46.27065 36.02388 46.40683 36.10583 46.54298 36.18779 46.67915 36.26974 46.81534 36.35172 46.95154 36.43365 47.0877 36.51561 47.22385 36.59756 47.36003 36.67952 47.49622 36.76147 47.6324 36.84343 47.76857 36.92538 47.90472 37.00735 48.04091 37.08931 48.17708 37.17126 48.31326 37.25322 48.44946 37.33517 48.58559 37.41713 48.72177 37.49908 48.85797 37.58102 48.99414 37.663 49.13033 37.74495 49.26648 37.8269 49.40265 37.90886 49.53883 37.99081 49.675 38.07277 49.8112 38.15472 49.94734 38.23668 50.08351 38.31863 50.21971 38.4006 50.3559 38.48256 50.49207 38.56451 50.62822 38.64647 50.7644 38.72841 50.90057 38.81036 51.03676 38.89232 51.17296 38.97427 51.30908 39.05624 51.44527 39.1382 51.58147 39.22015 51.71764 39.30211 51.85382 39.38406 51.98997 39.46602 52.12614 39.54797 52.26233 39.62993 52.3985 39.7119 52.5347 39.79385 52.67084 39.8758 52.807 39.95775 52.9432 40.0397 53.07939 40.12166 53.21556 40.20361 53.35172 40.28557 53.4879 40.36754 53.62407 40.4495 53.76025 40.53145 53.89645 40.6134 54.03258 40.69536 54.16876 40.77731 54.30496 40.85927 54.44113 40.94122 54.57732 41.02316 54.71347 41.10513 54.84964 41.18709 54.98582 41.26904 55.122 41.351 55.25818 41.43295 55.39433 41.51491 55.5305 41.59686 55.66669 41.67882 55.80289 41.76079 55.93906 41.84274 56.07521 41.9247 56.2114 42.00665 56.34756 42.08861 56.48375 42.17055 56.61993 42.2525 56.75607 42.33446 56.89226 42.41643 57.02844 42.49838 57.16463 42.58034 57.30081 42.6623 57.43695 42.74425 57.57314 42.8262 57.70932 42.90816 57.84549 42.99011 57.98167 43.07208 58.11783 43.15404 58.254 43.23598 58.39018 43.31793 58.52638 43.39989 58.66255 43.48184 58.79869 43.5638 58.93489 43.64575 59.07106 43.7277 59.20724 43.80968 59.34343 43.89163 59.47957 43.97359 59.61575 44.05554 59.75194 44.1375 59.88812 44.21945 60.0243 44.3014 60.16043 44.38335 60.29663 44.46532 60.43282 44.54727 60.56898 44.62923 60.70517 44.71118 60.84132 44.79314 60.9775 44.87509 61.11368 44.95705 61.24988 45.039 61.38605 45.12097 61.52219 45.20293 61.65839 45.28488 61.79456 45.36684 61.93074 45.44879 62.06693 45.53073 62.20306 45.61269 62.33925 45.69464 62.47543 45.77661 62.61162 45.85857 62.7478 45.94052 62.88393 46.02248 63.02013 46.10443 63.15631 46.18639 63.29248 46.26834 63.42867 46.3503 63.56482 46.43225 63.70099 46.51422 63.83717 46.59618 63.97336 46.67812 64.10954 46.76007 64.24568 46.84203 64.38187 46.92398 64.51805 47.00594 64.65424 47.08789 64.79042 47.16986 64.92656 47.25182 65.06274 47.33377 65.19893 47.41573 65.3351 47.49768 65.4713 47.57964 65.60742 47.66159 65.7436 47.74355 65.8798 47.8255 66.01598 47.90746 66.15216 47.98941 66.28831 48.07137 66.42448 48.15332 66.56067 48.23528 66.69685 48.31723 66.83304 48.39919 66.96918 48.48116 67.10536 48.56311 67.24155 48.64507 67.37773 48.72702 67.51392"/>
<path transform="matrix(1.00002,0,0,-1.00002,-14.092659,163.18994)" stroke-width=".3985" stroke-linecap="butt" stroke-miterlimit="10" stroke-linejoin="miter" fill="none" stroke="#000000" d="M48.40387 67.11145 48.44525 67.14583 48.48663 67.18019 48.528 67.21458 48.56938 67.24895 48.61076 67.28334 48.65215 67.31772 48.69353 67.35208 48.73491 67.38647 48.77629 67.42084 48.81766 67.45523 48.85904 67.4896 48.90042 67.52399 48.9418 67.55836 48.98318 67.59273 49.02457 67.62712 49.06595 67.66148 49.10733 67.69588 49.1487 67.73026 49.19008 67.76463 49.23146 67.79901 49.27284 67.83337 49.31424 67.86777 49.35562 67.90213 49.397 67.93652 49.43837 67.9709 49.47975 68.00528 49.52113 68.03966 49.56252 68.07402 49.6039 68.10841 49.64528 68.14279 49.68666 68.17717 49.72804 68.21155 49.76941 68.24593 49.81079 68.2803 49.85217 68.31467 49.89355 68.34906 49.93494 68.38344 49.97632 68.41782 50.0177 68.4522 50.05907 68.48657 50.10045 68.52095 50.14183 68.55531 50.18323 68.5897 50.22461 68.62408 50.26599 68.65846 50.30737 68.69284 50.34874 68.72722 50.39012 68.7616 50.4315 68.79597 50.47289 68.83035 50.51427 68.86473 50.55565 68.89911 50.59703 68.93349 50.63841 68.96786 50.67978 69.00224 50.72116 69.03662 50.76254 69.071 50.80392 69.10538 50.8453 69.13976 50.88669 69.17413 50.92807 69.20853 50.96944 69.24289 51.01082 69.27727 51.0522 69.31165 51.0936 69.34602 51.13498 69.3804 51.17636 69.41478 51.21774 69.44917 51.25912 69.48354 51.30049 69.51791 51.34187 69.55229 51.38326 69.58667 51.42464 69.62105 51.46602 69.65543 51.5074 69.68982 51.54878 69.72418 51.59015 69.75856 51.63153 69.79294 51.67291 69.82732 51.7143 69.86171 51.75568 69.89607 51.79706 69.93047 51.83844 69.96483 51.87982 69.9992 51.92119 70.03358 51.96259 70.06796 52.00397 70.10236 52.04535 70.13672 52.08673 70.17111 52.12811 70.20547 52.1695 70.23985 52.21086 70.27425 52.25224 70.30861 52.29362 70.343 52.335 70.37737 52.37639 70.41176 52.41777 70.44612 52.45915 70.4805 52.50052 70.5149 52.5419 70.54926 52.58328 70.58365 52.62466 70.61801 52.66605 70.6524 52.70743 70.68677 52.74881 70.72115 52.79019 70.75554 52.83156 70.7899 52.87296 70.8243 52.91434 70.85866 52.95572 70.89305 52.9971 70.92743 53.03848 70.96179 53.07986 70.99619 53.12123 71.03055 53.16261 71.06494 53.204 71.0993 53.24538 71.1337 53.28676 71.16808 53.32814 71.20244 53.36952 71.23683 53.4109 71.2712 53.45227 71.30559 53.49365 71.33995 53.53503 71.37434 53.57642 71.40872 53.6178 71.44308 53.65918 71.47748 53.70056 71.51184 53.74194 71.54623 53.78333 71.58061 53.8247 71.61499 53.86609 71.64937 53.90747 71.68373 53.94885 71.71812 53.99023 71.75249 54.03162 71.78688 54.07298 71.82126 54.11436 71.85564 54.15575 71.89001 54.19713 71.92438 54.23851 71.95877 54.27989 71.99315 54.32127 72.02753 54.36264 72.0619 54.40402 72.09628 54.4454 72.13066 54.48679 72.16502 54.52817 72.19942 54.56955 72.2338 54.61093 72.26817 54.65231 72.30255 54.6937 72.33693 54.73508 72.3713 54.77646 72.40567 54.81784 72.44006 54.85922 72.47444 54.9006 72.50882 54.94199 72.5432 54.98335 72.57758 55.02473 72.61195 55.06612 72.64633 55.1075 72.68071 55.14888 72.71509 55.19026 72.74947 55.23164 72.78384 55.27301 72.81822 55.31439 72.8526 55.35577 72.88698 55.39716 72.92136 55.43854 72.95573 55.47992 72.99011 55.52132 73.02449 55.5627 73.05888 55.60406 73.09325 55.64545 73.12762 55.68683 73.162 55.72821 73.19638 55.76959 73.23076 55.81097 73.26514 55.85236 73.29953 55.89372 73.3339 55.9351 73.36827 55.97649 73.40265 56.01787 73.43703 56.05925 73.4714 56.10063 73.50578 56.14201 73.54018 56.1834 73.57454 56.22476 73.60892 56.26614 73.6433 56.30753 73.67767 56.3489 73.71207 56.39029 73.74643 56.43169 73.78082 56.47307 73.81519 56.51443 73.84956 56.55582 73.88394 56.5972 73.91832 56.63858 73.95271 56.67996 73.98708 56.72134 74.02147 56.76273 74.05583 56.80411 74.09021 56.84547 74.1246 56.88686 74.15897 56.92824 74.19336 56.96962 74.22772 57.011 74.26212 57.05238 74.29648 57.09377 74.33086 57.13513 74.36525 57.17651 74.39961 57.2179 74.434 57.25928 74.46837 57.30067 74.50276 57.34206 74.53712 57.38344 74.5715 57.4248 74.6059 57.46619 74.64026 57.50757 74.67465 57.54895 74.70901 57.59033 74.74341 57.63171 74.77779 57.6731 74.81215 57.71448 74.84654 57.75584 74.8809 57.79723 74.9153 57.83861 74.94966 57.87999 74.98405 57.92137 75.01843 57.96275 75.0528 58.00414 75.08719 58.0455 75.12155 58.08688 75.15594 58.12827 75.1903 58.16966 75.2247 58.21104 75.25908 58.25243 75.29344 58.29381 75.32784 58.33519 75.3622 58.37656 75.39659 58.41794 75.43097 58.45932 75.46533 58.5007 75.49973 58.54208 75.53409 58.58347 75.56848 58.62485 75.60284 58.66621 75.63724 58.7076 75.67162 58.74898 75.70598 58.79036 75.74037 58.83174 75.77473 58.87312 75.80913 58.9145 75.8435 58.95589 75.87788 58.99725 75.91226 59.03864 75.94662 59.08003 75.98102 59.12141 76.01538 59.1628 76.04977 59.20418 76.08415 59.24556 76.11853 59.28693 76.15291 59.32831 76.18727 59.36969 76.22166 59.41107 76.25603 59.45245 76.29042 59.49384 76.3248 59.53522 76.35918 59.57658 76.39355 59.61797 76.42792 59.65935 76.46231 59.70073 76.49669 59.74211 76.53107 59.7835 76.56544 59.82487 76.59982 59.86626 76.6342 59.90762 76.66856 59.94902 76.70296 59.9904 76.73734 60.03178 76.77171 60.07317 76.80609 60.11455 76.84047 60.15593 76.87485 60.1973 76.90923 60.23868 76.9436 60.28006 76.97798 60.32144 77.01236 60.36282 77.04674 60.4042 77.08112 60.44559 77.1155 60.48697 77.14987 60.52834 77.18425 60.56972 77.21863 60.6111 77.253 60.65248 77.28738 60.69386 77.32176 60.73524 77.35614 60.77663 77.39052 60.818 77.4249 60.85939 77.45927 60.90077 77.49365 60.94215 77.52803 60.98354 77.56242 61.02492 77.59679 61.0663 77.63116 61.10768 77.66554 61.14905 77.69992 61.19043 77.7343 61.23181 77.76868 61.2732 77.80307 61.31458 77.83743 61.35596 77.87181 61.39734 77.90619 61.4387 77.94057 61.48009 77.97496 61.52147 78.00932 61.56285 78.04372 61.60423 78.07808 61.64561 78.11246 61.687 78.14684 61.72838 78.18121 61.76976 78.2156 61.81114 78.24997 61.85252 78.28436 61.8939 78.31873 61.93529 78.3531 61.97667 78.38748 62.01805 78.42186 62.05942 78.45625 62.1008 78.49062 62.14218 78.52501 62.18356 78.55937 62.22495 78.59375 62.26633 78.62814 62.30771 78.6625 62.34908 78.6969 62.39046 78.73126 62.43184 78.76566 62.47322 78.80002 62.5146 78.8344 62.55598 78.86879 62.59737 78.90315 62.63876 78.93755 62.68013 78.97191 62.72151 79.0063 62.7629 79.04068 62.80428 79.07504 62.84566 79.10944 62.88704 79.1438 62.92842 79.17819 62.96979 79.21255 63.01117 79.24695 63.05255 79.28133 63.09393 79.31569 63.13531 79.35008 63.1767 79.38445 63.21808 79.41884 63.25946 79.4532 63.30083 79.4876 63.34221 79.52197 63.38359 79.55634 63.42497 79.59073 63.46635 79.62509 63.50775 79.65948 63.54913 79.69386 63.5905 79.72824 63.63188 79.76262 63.67326 79.79698 63.71465 79.83138 63.75603 79.86574 63.79741 79.90013 63.83879 79.93451 63.88016 79.96889 63.92154 80.00327 63.96292 80.03763 64.0043 80.07202 64.04568 80.10638 64.08707 80.14078 64.12845 80.17516 64.16983 80.20953 64.2112 80.24391 64.25258 80.27827 64.29396 80.31267 64.33534 80.34705 64.37672 80.38142 64.41812 80.4158 64.4595 80.45018 64.50087 80.48456 64.54225 80.51892 64.58363 80.55331 64.62502 80.58769 64.6664 80.62207 64.70778 80.65645 64.74916 80.69083 64.79054 80.7252 64.83191 80.75958 64.87329 80.79396 64.91467 80.82834"/>
<path transform="matrix(1.00002,0,0,-1.00002,-14.092659,163.18994)" stroke-width=".3985" stroke-linecap="butt" stroke-miterlimit="10" stroke-linejoin="miter" fill="none" stroke="#000000" d="M64.59245 80.76237 64.67441 80.72833 64.75636 80.69429 64.83832 80.66025 64.92027 80.62619 65.00223 80.59216 65.08418 80.55812 65.16614 80.52406 65.24808 80.49002 65.33005 80.45598 65.412 80.42194 65.49396 80.3879 65.57591 80.35385 65.65787 80.3198 65.73982 80.28577 65.82178 80.25172 65.90373 80.21767 65.9857 80.18364 66.06766 80.14958 66.14961 80.11554 66.23157 80.08151 66.31352 80.04745 66.39546 80.01341 66.47742 79.97937 66.55937 79.94533 66.64134 79.91129 66.7233 79.87724 66.80525 79.8432 66.8872 79.80914 66.96916 79.7751 67.05112 79.74107 67.13307 79.70702 67.21503 79.67297 67.297 79.63893 67.37895 79.60487 67.4609 79.57085 67.54285 79.5368 67.6248 79.50275 67.70676 79.46872 67.78871 79.43466 67.87067 79.40062 67.95262 79.3666 68.03459 79.33253 68.11655 79.2985 68.1985 79.26445 68.28046 79.23041 68.36241 79.19637 68.44437 79.16232 68.52632 79.12828 68.60828 79.09422 68.69023 79.0602 68.77219 79.02615 68.85414 78.9921 68.9361 78.95805 69.01805 78.92401 69.1 78.88997 69.18196 78.85593 69.26392 78.82188 69.34589 78.78783 69.42784 78.7538 69.5098 78.71976 69.59175 78.6857 69.6737 78.65167 69.75566 78.61761 69.8376 78.58357 69.91956 78.54955 70.00153 78.51549 70.08348 78.48145 70.16544 78.4474 70.24739 78.41335 70.32935 78.37932 70.4113 78.34528 70.49326 78.31122 70.57521 78.27718 70.65717 78.24313 70.73914 78.20909 70.82109 78.17506 70.90305 78.141 70.98499 78.10696 71.06694 78.07292 71.1489 78.03888 71.23085 78.00484 71.3128 77.9708 71.39478 77.93675 71.47673 77.9027 71.55869 77.86867 71.64064 77.83463 71.7226 77.80057 71.80455 77.76654 71.8865 77.73248 71.96846 77.69844 72.05042 77.66441 72.13237 77.63036 72.21432 77.5963 72.29628 77.56227 72.37823 77.52823 72.46019 77.49417 72.54214 77.46014 72.6241 77.42609 72.70607 77.39204 72.78802 77.35802 72.86998 77.32396 72.95193 77.28992 73.03389 77.25587 73.11584 77.22183 73.19778 77.18779 73.27974 77.15375 73.3617 77.1197 73.44366 77.08565 73.52562 77.05162 73.60757 77.01758 73.68953 76.98352 73.77148 76.9495 73.85344 76.91544 73.9354 76.88138 74.01735 76.84737 74.09932 76.81331 74.18127 76.77925 74.26323 76.74522 74.34517 76.71117 74.42712 76.67712 74.50908 76.6431 74.59103 76.60904 74.67299 76.575 74.75496 76.54095 74.83691 76.50691 74.91887 76.47287 75.00082 76.43883 75.08278 76.40479 75.16473 76.37073 75.24669 76.3367 75.32864 76.30266 75.41061 76.2686 75.49255 76.23456 75.57451 76.20052 75.65646 76.16647 75.73842 76.13243 75.82037 76.09839 75.90233 76.06433 75.98428 76.0303 76.06624 75.99626 76.14821 75.9622 76.23016 75.92818 76.31212 75.89412 76.39407 75.86008 76.47603 75.82605 76.55798 75.79199 76.63992 75.75795 76.72188 75.7239 76.80385 75.68987 76.8858 75.65582 76.96776 75.62178 77.04971 75.58774 77.13167 75.5537 77.21362 75.51964 77.29558 75.48561 77.37753 75.45157 77.4595 75.41751 77.54146 75.38347 77.62341 75.34943 77.70537 75.31538 77.78731 75.28134 77.86926 75.2473 77.95122 75.21326 78.03317 75.1792 78.11514 75.14517 78.1971 75.11113 78.27905 75.07707 78.36101 75.04305 78.44296 75.00899 78.52492 74.97495 78.60687 74.94092 78.68883 74.90686 78.77078 74.87282 78.85275 74.83878 78.9347 74.80473 79.01665 74.77069 79.0986 74.73665 79.18056 74.70259 79.26251 74.66855 79.34447 74.63452 79.42642 74.60046 79.50839 74.56642 79.59035 74.53238 79.6723 74.49834 79.75426 74.4643 79.83621 74.43025 79.91817 74.39621 80.00012 74.36215 80.08206 74.32813 80.16403 74.29408 80.24599 74.26003 80.32794 74.226 80.4099 74.19194 80.49185 74.15788 80.5738 74.12387 80.65576 74.08981 80.73772 74.05576 80.81969 74.02173 80.90164 73.98767 80.9836 73.95363 81.06555 73.9196 81.1475 73.88554 81.22945 73.8515 81.3114 73.81746 81.39336 73.78342 81.47531 73.74937 81.55728 73.71533 81.63924 73.68129 81.72119 73.64723 81.80315 73.6132 81.8851 73.57916 81.96706 73.5451 82.04901 73.51108 82.13097 73.47702 82.21294 73.44298 82.29489 73.40895 82.37683 73.3749 82.45879 73.34084 82.54074 73.30681 82.6227 73.27277 82.70465 73.23871 82.7866 73.20468 82.86858 73.17062 82.95053 73.13658 83.03249 73.10255 83.11444 73.0685 83.1964 73.03445 83.27835 73.00041 83.3603 72.96637 83.44226 72.93234 83.52422 72.89828 83.60617 72.86424 83.68813 72.8302 83.77008 72.79616 83.85204 72.76212 83.93399 72.72807 84.01595 72.69403 84.0979 72.65997 84.17986 72.62593 84.26183 72.5919 84.34378 72.55785 84.42574 72.5238 84.50769 72.48976 84.58963 72.4557 84.67159 72.42168 84.75354 72.38763 84.8355 72.35358 84.91747 72.31955 84.99942 72.28549 85.08138 72.25145 85.16333 72.21742 85.24529 72.18336 85.32724 72.14932 85.4092 72.11528 85.49115 72.08124 85.57312 72.0472 85.65508 72.01315 85.73701 71.97911 85.81897 71.94505 85.90092 71.91103 85.98288 71.87698 86.06483 71.84293 86.14679 71.80888 86.22876 71.77484 86.31071 71.7408 86.39267 71.70676 86.47462 71.67271 86.55658 71.63866 86.63853 71.60463 86.72049 71.57059 86.80244 71.53653 86.88438 71.5025 86.96635 71.46844 87.04831 71.4344 87.13026 71.40038 87.21222 71.36632 87.29417 71.33228 87.37613 71.29823 87.45808 71.26418 87.54004 71.23015 87.62201 71.1961 87.70396 71.16205 87.78592 71.128 87.86787 71.09396 87.94983 71.05992 88.03177 71.02588 88.11372 70.99184 88.19568 70.9578 88.27765 70.92374 88.3596 70.88971 88.44156 70.85567 88.52351 70.82161 88.60547 70.78758 88.68742 70.75352 88.76938 70.71948 88.85133 70.68546 88.9333 70.6514 89.01526 70.61736 89.09721 70.58331 89.17915 70.54927 89.26111 70.51523 89.34306 70.48119 89.42502 70.44713 89.50697 70.41309 89.58893 70.37906 89.6709 70.345 89.75285 70.31097 89.83481 70.27692 89.91676 70.24287 89.99872 70.20885 90.08067 70.17479 90.16263 70.14075 90.24458 70.1067 90.32654 70.07266 90.4085 70.03862 90.49045 70.00458 90.5724 69.97054 90.65436 69.93648 90.73631 69.90245 90.81827 69.86841 90.90022 69.83435 90.9822 69.80032 91.06415 69.76627 91.1461 69.73221 91.22806 69.6982 91.31001 69.66414 91.39197 69.63008 91.4739 69.59605 91.55586 69.562 91.63783 69.52795 91.71979 69.49393 91.80174 69.45987 91.8837 69.42583 91.96565 69.39178 92.0476 69.35774 92.12956 69.3237 92.21152 69.28966 92.29347 69.25562 92.37544 69.22156 92.4574 69.18753 92.53935 69.15349 92.62129 69.11943 92.70325 69.08539 92.7852 69.05135 92.86716 69.0173 92.94911 68.98326 93.03108 68.94922 93.11304 68.91516 93.19499 68.88113 93.27695 68.84709 93.3589 68.81303 93.44086 68.779 93.52281 68.74495 93.60477 68.7109 93.68674 68.67688 93.76868 68.64282 93.85063 68.60878 93.93259 68.57474 94.01454 68.5407 94.0965 68.50665 94.17845 68.47261 94.2604 68.43857 94.34238 68.40451 94.42433 68.37047 94.50629 68.33644 94.58824 68.30238 94.6702 68.26834 94.75215 68.2343 94.8341 68.20024 94.91605 68.16621 94.998 68.13217 95.07997 68.09811 95.16193 68.06409 95.24388 68.03003 95.32584 67.99599 95.40779 67.96196 95.48975 67.9279 95.5717 67.89386 95.65366 67.85982 95.73563 67.82578 95.81758 67.79173 95.89954 67.75769 95.98148 67.72365 96.06343 67.6896 96.14539 67.65556 96.22734 67.62152 96.3093 67.58748 96.39127 67.55342 96.47322 67.51938 96.55518 67.48535 96.63713 67.4513 96.71909 67.41725 96.80104 67.38321 96.883 67.34917 96.96495 67.31512 97.04692 67.28108 97.12886 67.24704 97.21082 67.21298 97.29277 67.17896"/>
<path transform="matrix(1.00002,0,0,-1.00002,-14.092659,163.18994)" stroke-width=".3985" stroke-linecap="butt" stroke-miterlimit="10" stroke-linejoin="miter" fill="none" stroke="#000000" d="M96.96962 67.78665 97.01059 67.64923 97.05157 67.51222 97.09254 67.37555 97.13353 67.23921 97.1745 67.10321 97.21548 66.96758 97.25645 66.83228 97.29744 66.69734 97.33842 66.56271 97.3794 66.42847 97.42038 66.29454 97.46135 66.16096 97.50233 66.02774 97.54332 65.89485 97.58429 65.76233 97.62527 65.63013 97.66624 65.49828 97.70723 65.36676 97.7482 65.23563 97.78918 65.1048 97.83017 64.97432 97.87114 64.8442 97.91212 64.71442 97.9531 64.58498 97.99408 64.45587 98.03505 64.32713 98.07603 64.19873 98.117 64.07068 98.15797 63.94296 98.19896 63.81558 98.23993 63.68855 98.28091 63.56189 98.32188 63.43555 98.36287 63.30956 98.40385 63.18393 98.44482 63.05862 98.48581 62.93365 98.52678 62.80907 98.56776 62.68478 98.60873 62.56088 98.64972 62.43729 98.6907 62.31406 98.73167 62.19116 98.77266 62.06862 98.81363 61.94643 98.85461 61.82457 98.89558 61.70308 98.93657 61.5819 98.97755 61.46109 99.01852 61.3406 99.05951 61.22047 99.10048 61.1007 99.14146 60.98125 99.18245 60.86217 99.22342 60.74341 99.26439 60.625 99.30536 60.50694 99.34634 60.38922 99.38731 60.27185 99.4283 60.15483 99.46928 60.03813 99.51025 59.9218 99.55124 59.8058 99.59221 59.69016 99.6332 59.57486 99.67416 59.4599 99.71515 59.34528 99.75613 59.23102 99.7971 59.1171 99.83809 59.00351 99.87906 58.89027 99.92004 58.77737 99.96103 58.66483 100.002 58.55263 100.04298 58.44078 100.08395 58.32925 100.12494 58.2181 100.16591 58.10727 100.2069 57.99678 100.24788 57.88664 100.28885 57.77686 100.32983 57.66742 100.3708 57.55833 100.41177 57.44955 100.45274 57.34116 100.49373 57.2331 100.53471 57.12538 100.57568 57.018 100.61667 56.91096 100.65764 56.80428 100.69862 56.69794 100.73961 56.59193 100.78058 56.48628 100.82156 56.38098 100.86253 56.27602 100.90352 56.1714 100.94449 56.06712 100.98547 55.9632 101.02644 55.85962 101.06743 55.75638 101.10841 55.65347 101.14938 55.55092 101.19037 55.44872 101.23134 55.34685 101.27232 55.24535 101.31331 55.14417 101.35428 55.04335 101.39526 54.94286 101.43623 54.84273 101.47722 54.74294 101.51819 54.6435 101.55916 54.54439 101.60014 54.44562 101.64111 54.34721 101.6821 54.24913 101.72307 54.15141 101.76405 54.05405 101.80502 53.957 101.84601 53.8603 101.887 53.76396 101.92796 53.66797 101.96895 53.57231 102.00992 53.47699 102.0509 53.38203 102.09189 53.28741 102.13286 53.19313 102.17384 53.0992 102.21481 53.00562 102.2558 52.91237 102.29677 52.81946 102.33775 52.72691 102.37874 52.6347 102.41971 52.54285 102.4607 52.45132 102.50166 52.36015 102.54265 52.26932 102.58362 52.17883 102.6246 52.08868 102.66557 51.99889 102.70654 51.90944 102.74753 51.82033 102.7885 51.73157 102.82948 51.64314 102.87047 51.55508 102.91144 51.46736 102.95242 51.37997 102.9934 51.29292 103.03438 51.20624 103.07535 51.1199 103.11633 51.03389 103.15732 50.94823 103.19829 50.86292 103.23927 50.77794 103.28024 50.69331 103.32123 50.60904 103.3622 50.52509 103.40318 50.44151 103.44417 50.35826 103.48514 50.27534 103.52612 50.1928 103.5671 50.11058 103.60808 50.02872 103.64905 49.94719 103.69003 49.86601 103.73102 49.78519 103.77199 49.70468 103.81296 49.62456 103.85393 49.54474 103.89491 49.4653 103.93588 49.38618 103.97687 49.30742 104.01785 49.229 104.05882 49.15092 104.09981 49.07318 104.14078 48.9958 104.18176 48.91876 104.22273 48.84206 104.26372 48.7657 104.3047 48.68971 104.34567 48.61403 104.38666 48.53871 104.42763 48.46375 104.46861 48.3891 104.5096 48.31483 104.55057 48.24089 104.59155 48.1673 104.63252 48.09406 104.67351 48.02115 104.71448 47.94858 104.75546 47.87636 104.79645 47.80449 104.83742 47.73296 104.8784 47.66179 104.91937 47.59094 104.96034 47.52045 105.00131 47.45029 105.0423 47.3805 105.08328 47.31104 105.12425 47.24191 105.16524 47.17314 105.2062 47.10472 105.2472 47.03665 105.28818 46.9689 105.32915 46.90152 105.37013 46.83447 105.4111 46.76778 105.45209 46.70142 105.49306 46.6354 105.53404 46.56973 105.57503 46.50441 105.616 46.43944 105.65698 46.3748 105.69795 46.31052 105.73894 46.24657 105.7799 46.18298 105.82089 46.11972 105.86188 46.05681 105.90285 45.99425 105.94383 45.93202 105.9848 45.87015 106.02579 45.80861 106.06676 45.74742 106.10773 45.68658 106.14871 45.62608 106.18968 45.56595 106.23067 45.50613 106.27164 45.44667 106.31262 45.38756 106.35359 45.32878 106.39458 45.27036 106.43556 45.21227 106.47653 45.15454 106.51752 45.09714 106.55849 45.04008 106.59947 44.98338 106.64046 44.92702 106.68143 44.871 106.72241 44.81534 106.76338 44.76001 106.80437 44.70503 106.84535 44.65039 106.88632 44.59608 106.9273 44.54216 106.96828 44.48856 107.00926 44.43529 107.05023 44.38239 107.09122 44.32982 107.13219 44.27757 107.17317 44.22571 107.21414 44.17418 107.25511 44.12297 107.2961 44.07214 107.33707 44.02164 107.37805 43.97147 107.41904 43.92168 107.46 43.87221 107.50099 43.82309 107.54196 43.7743 107.58295 43.72588 107.62392 43.67778 107.6649 43.63004 107.70589 43.58264 107.74686 43.53558 107.78784 43.48889 107.82881 43.44252 107.8698 43.3965 107.91077 43.35081 107.95175 43.30548 107.99274 43.2605 108.0337 43.21587 108.07469 43.17157 108.11566 43.12761 108.15665 43.08401 108.19762 43.04074 108.2386 42.99783 108.27959 42.95526 108.32056 42.91304 108.36153 42.87115 108.4025 42.8296 108.44348 42.78842 108.48447 42.74756 108.52544 42.70706 108.56642 42.6669 108.60739 42.62709 108.64838 42.58762 108.68935 42.5485 108.73033 42.5097 108.77132 42.47128 108.81229 42.43318 108.85327 42.39543 108.89424 42.35805 108.93523 42.32098 108.9762 42.28427 109.01718 42.2479 109.05817 42.21187 109.09914 42.1762 109.14012 42.14087 109.18109 42.10588 109.22208 42.07124 109.26306 42.03693 109.30403 42.00298 109.34502 41.96938 109.38599 41.93611 109.42697 41.90318 109.46794 41.8706 109.50891 41.83838 109.54988 41.8065 109.59087 41.77495 109.63185 41.74376 109.67282 41.7129 109.7138 41.68239 109.75478 41.65222 109.79576 41.62242 109.83675 41.59294 109.87772 41.56381 109.9187 41.53502 109.95967 41.50658 110.00066 41.47849 110.04163 41.45074 110.08261 41.42332 110.1236 41.39627 110.16457 41.36957 110.20555 41.34319 110.24652 41.31715 110.2875 41.29147 110.32848 41.26614 110.36946 41.24115 110.41045 41.21649 110.45142 41.1922 110.4924 41.16824 110.53337 41.14462 110.57436 41.12135 110.61533 41.09843 110.6563 41.07585 110.69728 41.05362 110.73825 41.03172 110.77924 41.01018 110.8202 40.98898 110.86119 40.96812 110.90218 40.94762 110.94315 40.92744 110.98413 40.90762 111.0251 40.88815 111.06609 40.869 111.10706 40.85022 111.14804 40.83177 111.18903 40.81369 111.23 40.79593 111.27098 40.77852 111.31195 40.76146 111.35294 40.74474 111.39392 40.72836 111.43489 40.71234 111.47588 40.69664 111.51685 40.6813 111.55783 40.6663 111.5988 40.65166 111.63979 40.63734 111.68076 40.62338 111.72174 40.60977 111.76271 40.5965 111.80368 40.58357 111.84467 40.57098 111.88564 40.55875 111.92662 40.54684 111.9676 40.53531 112.00858 40.52411 112.04956 40.51323 112.09053 40.50273 112.13152 40.49255 112.1725 40.48273 112.21347 40.47325 112.25446 40.46411 112.29543 40.45532 112.33641 40.44688 112.37738 40.43878 112.41837 40.431 112.45935 40.4236 112.50032 40.41653 112.5413 40.4098 112.58228 40.40343 112.62326 40.3974 112.66423 40.39171 112.70522 40.38635 112.7462 40.38136 112.78717 40.37671 112.82816 40.37239 112.86913 40.36844 112.9101 40.3648 112.95107 40.36153 112.99205 40.3586 113.03304 40.35602 113.074 40.35376 113.11499 40.35187 113.15596 40.35031 113.19695 40.34912 113.23793 40.34825 113.2789 40.34773 113.31989 40.34756"/>
<path transform="matrix(1.00002,0,0,-1.00002,-14.092659,163.18994)" stroke-width=".3985" stroke-linecap="butt" stroke-miterlimit="10" stroke-linejoin="miter" fill="none" stroke="#000000" d="M113.3201 40.34756 113.36107 40.34747 113.40205 40.34721 113.44302 40.34679 113.48401 40.34618 113.52498 40.3454 113.56596 40.34447 113.60695 40.34334 113.64792 40.34204 113.6889 40.34058 113.72987 40.33894 113.77086 40.33713 113.81183 40.33514 113.85281 40.333 113.8938 40.33066 113.93477 40.32817 113.97574 40.32549 114.01671 40.32265 114.0577 40.31964 114.09866 40.31645 114.13965 40.31308 114.18063 40.30956 114.2216 40.30585 114.26259 40.30197 114.30356 40.29791 114.34454 40.2937 114.38553 40.2893 114.4265 40.28473 114.46748 40.27998 114.50845 40.27509 114.54944 40.27 114.59042 40.26474 114.6314 40.25932 114.67238 40.25371 114.71335 40.24794 114.75433 40.24199 114.7953 40.23587 114.83629 40.22958 114.87727 40.22311 114.91824 40.21649 114.95923 40.20969 115.0002 40.2027 115.04118 40.19554 115.08215 40.18822 115.12312 40.18073 115.16411 40.17307 115.20508 40.16522 115.24606 40.1572 115.28703 40.14902 115.32802 40.14066 115.369 40.13213 115.40997 40.12341 115.45096 40.11453 115.49193 40.10548 115.53291 40.09627 115.57388 40.08688 115.61487 40.07732 115.65584 40.06757 115.69682 40.05766 115.73781 40.04758 115.77878 40.03732 115.81976 40.02689 115.86073 40.0163 115.90172 40.00554 115.9427 39.99458 115.98367 39.98346 116.02466 39.97218 116.06563 39.96072 116.10661 39.94907 116.14758 39.93727 116.18857 39.9253 116.22955 39.91315 116.27051 39.90082 116.3115 39.88832 116.35246 39.87566 116.39345 39.86282 116.43442 39.84981 116.4754 39.83662 116.51639 39.82326 116.55736 39.80974 116.59834 39.79604 116.63931 39.78215 116.6803 39.76811 116.72127 39.75389 116.76225 39.7395 116.80324 39.72493 116.84421 39.7102 116.8852 39.6953 116.92616 39.6802 116.96715 39.66496 117.00813 39.64954 117.0491 39.63394 117.09009 39.61818 117.13106 39.60222 117.17204 39.5861 117.21301 39.56982 117.254 39.55336 117.29498 39.53673 117.33595 39.51993 117.37692 39.50296 117.4179 39.48581 117.45888 39.46848 117.49985 39.45099 117.54083 39.43333 117.58182 39.41548 117.62279 39.39748 117.66377 39.37929 117.70474 39.36095 117.74573 39.3424 117.78671 39.32372 117.82768 39.30484 117.86867 39.2858 117.90964 39.26659 117.95062 39.24718 117.9916 39.22762 118.03258 39.20789 118.07355 39.18799 118.11453 39.16791 118.15552 39.14766 118.19649 39.12723 118.23747 39.10663 118.27844 39.08586 118.31943 39.06493 118.36041 39.04381 118.40138 39.02252 118.44237 39.00107 118.48334 38.97945 118.5243 38.95763 118.56529 38.93567 118.60626 38.91351 118.64725 38.8912 118.68822 38.8687 118.7292 38.84604 118.77017 38.8232 118.81116 38.8002 118.85213 38.77702 118.89311 38.75366 118.9341 38.73013 118.97507 38.70644 119.01605 38.68257 119.05702 38.65852 119.098 38.63431 119.13899 38.60991 119.17996 38.58536 119.22095 38.56064 119.26192 38.53574 119.3029 38.51065 119.34387 38.4854 119.38486 38.45998 119.42584 38.43437 119.46681 38.40862 119.5078 38.38268 119.54877 38.35657 119.58975 38.33028 119.63072 38.30382 119.67169 38.27719 119.71268 38.2504 119.75365 38.22342 119.79463 38.19629 119.8356 38.16895 119.87659 38.14146 119.91757 38.11382 119.95854 38.08598 119.99953 38.05797 120.0405 38.0298 120.08148 38.00143 120.12245 37.9729 120.16344 37.94423 120.20442 37.91536 120.24539 37.8863 120.28638 37.8571 120.32735 37.82771 120.36833 37.79814 120.4093 37.76843 120.45029 37.73853 120.49127 37.70844 120.53224 37.67819 120.57323 37.64777 120.6142 37.61719 120.65518 37.58641 120.69615 37.55548 120.73714 37.52437 120.77812 37.49309 120.81908 37.46164 120.86006 37.43001 120.90103 37.39821 120.94202 37.36624 120.98299 37.33409 121.02397 37.30179 121.06496 37.2693 121.10593 37.23663 121.14691 37.2038 121.18788 37.17079 121.22887 37.13762 121.26985 37.10426 121.31082 37.07074 121.3518 37.03705 121.39278 37.00319 121.43376 36.96915 121.47473 36.93494 121.51572 36.90054 121.5567 36.866 121.59767 36.83127 121.63866 36.79637 121.67963 36.76129 121.72061 36.72604 121.76158 36.69063 121.80257 36.65503 121.84355 36.61928 121.88452 36.58334 121.92549 36.54724 121.96646 36.51096 122.00745 36.47449 122.04842 36.43787 122.0894 36.40108 122.13039 36.3641 122.17136 36.32698 122.21234 36.28966 122.25331 36.25217 122.2943 36.21451 122.33528 36.17667 122.37625 36.13867 122.41724 36.1005 122.4582 36.06215 122.49919 36.02364 122.54016 35.98494 122.58115 35.94608 122.62212 35.90703 122.6631 35.86783 122.70409 35.82845 122.74506 35.78888 122.78604 35.74916 122.82701 35.70926 122.868 35.6692 122.90898 35.62895 122.94995 35.58853 122.99094 35.54794 123.0319 35.50719 123.07288 35.46625 123.11386 35.42514 123.15483 35.38387 123.19582 35.34242 123.23679 35.3008 123.27777 35.259 123.31874 35.21703 123.35973 35.1749 123.4007 35.13258 123.44168 35.0901 123.48267 35.04744 123.52364 35.00461 123.56462 34.96161 123.60559 34.91844 123.64658 34.87509 123.68756 34.83157 123.72853 34.78789 123.76952 34.74402 123.81049 34.69998 123.85147 34.65578 123.89246 34.61139 123.93343 34.56685 123.97441 34.52213 124.01538 34.47722 124.05637 34.43216 124.09734 34.38692 124.13832 34.34149 124.17929 34.2959 124.22026 34.25014 124.26125 34.20421 124.30222 34.15811 124.3432 34.11183 124.38417 34.06538 124.42516 34.01877 124.46614 33.97197 124.50711 33.925 124.5481 33.87787 124.58907 33.83057 124.63005 33.78308 124.67102 33.73541 124.712 33.68759 124.75299 33.6396 124.79396 33.59143 124.83495 33.54308 124.87592 33.49455 124.9169 33.44588 124.95787 33.397 124.99886 33.34798 125.03984 33.29877 125.08081 33.24939 125.1218 33.19983 125.16277 33.15013 125.20375 33.10022 125.24474 33.05016 125.2857 32.99991 125.32669 32.94951 125.36765 32.89893 125.40863 32.84818 125.4496 32.79723 125.49059 32.74614 125.53157 32.69485 125.57254 32.64342 125.61353 32.59178 125.6545 32.54 125.69548 32.48804 125.73645 32.43591 125.77744 32.38359 125.81842 32.33112 125.85939 32.27846 125.90038 32.22563 125.94135 32.17264 125.98233 32.11946 126.0233 32.06612 126.06429 32.0126 126.10527 31.95891 126.14624 31.90508 126.18723 31.85103 126.2282 31.79683 126.26918 31.74245 126.31015 31.68791 126.35114 31.63318 126.39212 31.5783 126.43309 31.52322 126.47408 31.46799 126.51503 31.41257 126.55602 31.357 126.597 31.30122 126.63797 31.2453 126.67896 31.18921 126.71992 31.13293 126.76091 31.07648 126.80188 31.01987 126.84286 30.96307 126.88385 30.90611 126.92482 30.84898 126.9658 30.79167 127.00677 30.73419 127.04776 30.67654 127.08873 30.61873 127.12971 30.56073 127.1707 30.50256 127.21167 30.44421 127.25266 30.38571 127.29362 30.32703 127.33461 30.26816 127.37558 30.20914 127.41656 30.14993 127.45755 30.09056 127.49852 30.03102 127.5395 29.97128 127.58047 29.9114 127.62144 29.85133 127.66243 29.79109 127.7034 29.73068 127.74438 29.6701 127.78535 29.60936 127.82634 29.54843 127.86731 29.48734 127.9083 29.42607 127.94926 29.36462 127.99025 29.30301 128.03124 29.24121 128.0722 29.17926 128.11319 29.11713 128.15416 29.05482 128.19515 28.99234 128.23613 28.92969 128.2771 28.86688 128.31809 28.80388 128.35906 28.74072 128.40004 28.67737 128.44103 28.61386 128.482 28.55017 128.52298 28.48633 128.56395 28.4223 128.60494 28.3581 128.6459 28.29372 128.68689 28.22917 128.72786 28.16446 128.76883 28.09958 128.80982 28.03452 128.85079 27.96927 128.89177 27.90387 128.93274 27.83829 128.97373 27.77254 129.01471 27.70662 129.05568 27.64052 129.09667 27.57425 129.13764 27.50781 129.17862 27.4412 129.2196 27.3744 129.26058 27.30745 129.30156 27.24031 129.34253 27.17302 129.38352 27.10553 129.42449 27.0379 129.46547 26.97006 129.50644 26.90208 129.54743 26.83394 129.58841 26.76558 129.62938 26.69708 129.67037 26.6284"/>
<path transform="matrix(1.00002,0,0,-1.00002,-14.092659,163.18994)" stroke-width=".3985" stroke-linecap="butt" stroke-miterlimit="10" stroke-linejoin="miter" fill="none" stroke="#000000" d="M129.3468 26.628 129.38777 26.69672 129.42876 26.76521 129.46973 26.83356 129.51071 26.90173 129.55168 26.96973 129.59267 27.03755 129.63364 27.1052 129.67462 27.17267 129.7156 27.23997 129.75658 27.3071 129.79756 27.37405 129.83853 27.44084 129.8795 27.50746 129.92047 27.5739 129.96146 27.64017 130.00243 27.70627 130.04341 27.7722 130.0844 27.83795 130.12537 27.90353 130.16635 27.96893 130.20732 28.03418 130.2483 28.09923 130.28928 28.16412 130.33026 28.22884 130.37125 28.29338 130.41222 28.35776 130.4532 28.42197 130.49417 28.486 130.53516 28.54984 130.57613 28.61353 130.61711 28.67703 130.65808 28.74039 130.69907 28.80354 130.74005 28.86655 130.78102 28.92935 130.822 28.992 130.86298 29.05449 130.90396 29.11679 130.94493 29.17892 130.9859 29.24089 131.02687 29.30267 131.06786 29.36429 131.10884 29.42574 131.14981 29.48701 131.1908 29.54811 131.23177 29.60904 131.27275 29.66978 131.31372 29.73036 131.3547 29.79077 131.39569 29.85101 131.43666 29.91107 131.47765 29.97096 131.51862 30.0307 131.5596 30.09024 131.60057 30.14961 131.64156 30.20882 131.68253 30.26785 131.72351 30.3267 131.7645 30.38539 131.80547 30.4439 131.84645 30.50224 131.88742 30.56041 131.9284 30.61841 131.96938 30.67624 132.01036 30.73389 132.05135 30.79137 132.09232 30.84866 132.13329 30.9058 132.17426 30.96277 132.21524 31.01955 132.25621 31.07619 132.2972 31.13263 132.33817 31.18889 132.37915 31.245 132.42014 31.30093 132.4611 31.35669 132.50209 31.41226 132.54306 31.46768 132.58405 31.52292 132.62502 31.57799 132.666 31.63287 132.70697 31.68759 132.74796 31.74214 132.78894 31.79652 132.82991 31.85072 132.8709 31.90477 132.91187 31.95862 132.95285 32.0123 132.99382 32.06583 133.0348 32.11916 133.07579 32.17233 133.11676 32.22533 133.15775 32.27815 133.19872 32.33081 133.2397 32.38329 133.28066 32.43561 133.32164 32.48775 133.36261 32.5397 133.4036 32.59149 133.44458 32.64313 133.48555 32.69456 133.52654 32.74585 133.5675 32.79694 133.60849 32.84789 133.64946 32.89862 133.69045 32.94922 133.73142 32.99962 133.7724 33.04987 133.81339 33.09995 133.85436 33.14984 133.89534 33.19957 133.93631 33.2491 133.9773 33.29848 134.01827 33.34769 134.05925 33.39673 134.10024 33.44559 134.1412 33.49428 134.18219 33.54279 134.22316 33.59116 134.26415 33.63931 134.30512 33.68732 134.3461 33.73514 134.38707 33.7828 134.42804 33.83028 134.46903 33.87758 134.51 33.92473 134.55098 33.9717 134.59195 34.0185 134.63294 34.06512 134.6739 34.11156 134.71489 34.15784 134.75588 34.20395 134.79685 34.24988 134.83783 34.29564 134.8788 34.34122 134.91979 34.38664 134.96076 34.43188 135.00174 34.47696 135.04271 34.52185 135.0837 34.56657 135.12468 34.61113 135.16565 34.65552 135.20664 34.69972 135.2476 34.74374 135.28859 34.78763 135.32956 34.83131 135.37055 34.87483 135.41152 34.91818 135.4525 34.96135 135.49349 35.00436 135.53446 35.04718 135.57543 35.08984 135.6164 35.13232 135.65738 35.17464 135.69835 35.21677 135.73934 35.25874 135.78032 35.30054 135.82129 35.34216 135.86228 35.38362 135.90325 35.4249 135.94423 35.46599 135.9852 35.50693 136.02619 35.54768 136.06716 35.58829 136.10814 35.62871 136.14913 35.66895 136.1901 35.70901 136.23108 35.74892 136.27205 35.78864 136.31304 35.8282 136.354 35.86758 136.39499 35.90678 136.43596 35.94583 136.47695 35.9847 136.51793 36.02339 136.5589 36.06192 136.59989 36.10027 136.64086 36.13844 136.68183 36.17644 136.7228 36.21428 136.76378 36.25194 136.80477 36.28943 136.84574 36.32674 136.88672 36.36389 136.92769 36.40085 136.96868 36.43764 137.00965 36.47427 137.05063 36.51073 137.0916 36.54701 137.13259 36.58311 137.17357 36.61905 137.21454 36.65482 137.25553 36.69041 137.2965 36.72583 137.33748 36.76106 137.37845 36.79614 137.41944 36.83104 137.46042 36.86578 137.50139 36.90033 137.54238 36.93472 137.58335 36.96892 137.62433 37.00298 137.6653 37.03683 137.70629 37.07053 137.74726 37.10405 137.78824 37.1374 137.82921 37.17058 137.87018 37.2036 137.91117 37.23642 137.95214 37.26909 137.99312 37.30157 138.03409 37.3339 138.07508 37.36603 138.11605 37.39801 138.15703 37.4298 138.19802 37.46144 138.23899 37.49289 138.27997 37.52417 138.32094 37.55528 138.36193 37.58621 138.4029 37.61699 138.44388 37.64757 138.48487 37.67801 138.52584 37.70824 138.56682 37.73833 138.60779 37.76823 138.64878 37.79796 138.68975 37.82751 138.73073 37.8569 138.7717 37.88612 138.81269 37.91516 138.85367 37.94403 138.89464 37.97273 138.93563 38.00125 138.97658 38.02962 139.01757 38.05779 139.05854 38.0858 139.09952 38.11363 139.14049 38.14128 139.18148 38.1688 139.22246 38.1961 139.26343 38.22324 139.30442 38.25023 139.34539 38.27702 139.38637 38.30365 139.42734 38.33011 139.46833 38.3564 139.50931 38.3825 139.55028 38.40845 139.59127 38.43422 139.63224 38.45981 139.67322 38.48523 139.71419 38.51048 139.75518 38.53557 139.79615 38.56047 139.83713 38.5852 139.87812 38.60976 139.91909 38.63416 139.96007 38.65837 140.00104 38.6824 140.04203 38.70628 140.083 38.72998 140.12397 38.7535 140.16495 38.77687 140.20592 38.80003 140.2469 38.82304 140.28787 38.84589 140.32886 38.86855 140.36983 38.89105 140.41082 38.91336 140.45178 38.93552 140.49277 38.95749 140.53376 38.9793 140.57472 39.00093 140.6157 39.02237 140.65668 39.04367 140.69766 39.06479 140.73863 39.08572 140.77962 39.10649 140.82059 39.12709 140.86157 39.14752 140.90256 39.16777 140.94353 39.18785 140.98451 39.20775 141.02548 39.2275 141.06647 39.24704 141.10744 39.26645 141.14842 39.28566 141.1894 39.3047 141.23038 39.32358 141.27135 39.34229 141.31232 39.36081 141.3533 39.37917 141.39427 39.39735 141.43526 39.41536 141.47623 39.4332 141.51721 39.45088 141.5582 39.46835 141.59917 39.48569 141.64015 39.50284 141.68112 39.51982 141.7221 39.53662 141.76308 39.55324 141.80406 39.5697 141.84503 39.586 141.88602 39.60211 141.927 39.61807 141.96797 39.63383 142.00896 39.64943 142.04993 39.66486 142.09091 39.6801 142.13188 39.69519 142.17287 39.7101 142.21385 39.72484 142.25482 39.73941 142.2958 39.75378 142.33678 39.76802 142.37776 39.78206 142.41872 39.79594 142.4597 39.80965 142.50067 39.82317 142.54166 39.83653 142.58264 39.84972 142.62361 39.86273 142.6646 39.87556 142.70557 39.88823 142.74655 39.90073 142.78752 39.91306 142.8285 39.9252 142.86949 39.93718 142.91046 39.949 142.95145 39.96065 142.99242 39.97209 143.0334 39.98338 143.07437 39.99449 143.11536 40.00546 143.15633 40.01622 143.19731 40.02681 143.2383 40.03725 143.27927 40.0475 143.32025 40.05759 143.36122 40.06749 143.4022 40.07724 143.44318 40.0868 143.48416 40.09619 143.52512 40.10542 143.5661 40.11447 143.60709 40.12335 143.64806 40.13206 143.68904 40.1406 143.73001 40.14896 143.771 40.15715 143.81197 40.16516 143.85295 40.173 143.89394 40.18066 143.9349 40.18817 143.97589 40.1955 144.01686 40.20264 144.05785 40.20963 144.09882 40.21643 144.1398 40.22307 144.18077 40.22954 144.22176 40.23582 144.26274 40.24196 144.30371 40.2479 144.3447 40.25368 144.38567 40.25928 144.42665 40.2647 144.46762 40.26996 144.5086 40.27505 144.54958 40.27995 144.59056 40.2847 144.63155 40.28926 144.6725 40.29367 144.71349 40.29788 144.75446 40.30194 144.79544 40.30582 144.83641 40.30952 144.8774 40.31305 144.91838 40.31644 144.95935 40.31961 145.00034 40.32263 145.0413 40.32547 145.08229 40.32816 145.12326 40.33064 145.16425 40.33296 145.20522 40.33513 145.2462 40.33711 145.28719 40.33893 145.32816 40.34058 145.36914 40.34203 145.41011 40.34332 145.4511 40.34445 145.49207 40.34538 145.53305 40.34618 145.57404 40.34677 145.615 40.34721 145.65599 40.34747 145.69696 40.34756"/>
<path transform="matrix(1.00002,0,0,-1.00002,-14.092659,163.18994)" stroke-width=".3985" stroke-linecap="butt" stroke-miterlimit="10" stroke-linejoin="miter" fill="none" stroke="#000000" d="M145.69728 40.34756 145.73824 40.34773 145.77922 40.34825 145.82019 40.3491 145.86118 40.35031 145.90215 40.35187 145.94313 40.35376 145.9841 40.356 146.02509 40.35858 146.06607 40.36151 146.10704 40.36479 146.14803 40.36841 146.189 40.37238 146.22998 40.37668 146.27095 40.38135 146.31194 40.38632 146.3529 40.39168 146.39389 40.39737 146.43488 40.4034 146.47585 40.40977 146.51683 40.41649 146.5578 40.42355 146.59879 40.43097 146.63976 40.43874 146.68074 40.44684 146.72173 40.45528 146.7627 40.46405 146.80368 40.47319 146.84465 40.48268 146.88562 40.4925 146.92659 40.50267 146.96758 40.51318 147.00855 40.52405 147.04953 40.53525 147.09052 40.54678 147.13149 40.55867 147.17247 40.5709 147.21344 40.5835 147.25443 40.59642 147.2954 40.6097 147.33638 40.6233 147.37735 40.63727 147.41834 40.65157 147.45932 40.66623 147.50029 40.68121 147.54128 40.69655 147.58225 40.71225 147.62323 40.72827 147.6642 40.74464 147.70519 40.76137 147.74617 40.77843 147.78714 40.79584 147.82813 40.81358 147.8691 40.83168 147.91008 40.85013 147.95105 40.86891 147.99202 40.88805 148.03299 40.90752 148.07398 40.92734 148.11496 40.9475 148.15593 40.968 148.19692 40.98886 148.23789 41.01007 148.27887 41.0316 148.31984 41.0535 148.36083 41.07573 148.40181 41.0983 148.44278 41.12122 148.48377 41.1445 148.52474 41.1681 148.56572 41.19206 148.60669 41.21635 148.64768 41.24101 148.68865 41.26599 148.72963 41.29134 148.77062 41.317 148.81159 41.34303 148.85257 41.36942 148.89354 41.39612 148.93453 41.42317 148.9755 41.45059 149.01648 41.47833 149.05745 41.50642 149.09844 41.53487 149.1394 41.56364 149.18038 41.59277 149.22136 41.62225 149.26233 41.65205 149.30332 41.68222 149.34429 41.71274 149.38527 41.74358 149.42626 41.77477 149.46723 41.80632 149.50821 41.8382 149.54918 41.87042 149.59017 41.903 149.63114 41.93591 149.67212 41.96918 149.71309 42.00279 149.75408 42.03674 149.79506 42.07104 149.83603 42.10567 149.87702 42.14067 149.91799 42.176 149.95897 42.21167 149.99994 42.2477 150.04093 42.28407 150.0819 42.32077 150.12288 42.35783 150.16387 42.39522 150.20484 42.43297 150.24582 42.47105 150.28678 42.50949 150.32776 42.54826 150.36873 42.58739 150.40972 42.62686 150.4507 42.66667 150.49167 42.70683 150.53266 42.74733 150.57363 42.78818 150.61461 42.82936 150.65558 42.87091 150.69657 42.9128 150.73754 42.955 150.77852 42.99759 150.8195 43.0405 150.86048 43.08376 150.90146 43.12735 150.94243 43.1713 150.98342 43.21559 151.02439 43.26025 151.06537 43.30524 151.10636 43.35054 151.14733 43.39622 151.18831 43.44225 151.22928 43.4886 151.27027 43.53531 151.31124 43.58237 151.35222 43.62975 151.39319 43.67749 151.43416 43.72559 151.47515 43.77402 151.51612 43.82278 151.5571 43.8719 151.59807 43.92137 151.63906 43.97116 151.68003 44.02133 151.72101 44.07182 151.76198 44.12267 151.80297 44.17386 151.84395 44.22539 151.88492 44.27725 151.9259 44.3295 151.96688 44.38205 152.00786 44.43497 152.04883 44.48822 152.08982 44.54182 152.1308 44.59576 152.17177 44.65005 152.21276 44.7047 152.25373 44.75966 152.29471 44.81499 152.33568 44.87067 152.37667 44.92667 152.41764 44.98303 152.45862 45.03973 152.4996 45.09679 152.54058 45.15417 152.58155 45.21191 152.62252 45.26999 152.6635 45.32841 152.70447 45.38719 152.74546 45.4463 152.78643 45.50577 152.82741 45.56557 152.8684 45.62572 152.90937 45.6862 152.95035 45.74706 152.99132 45.80824 153.0323 45.86975 153.07328 45.93163 153.11426 45.99385 153.15525 46.05643 153.19622 46.11932 153.2372 46.18257 153.27817 46.24617 153.31916 46.31012 153.36013 46.3744 153.40111 46.43903 153.44208 46.504 153.48307 46.56932 153.52405 46.635 153.56502 46.701 153.606 46.76736 153.64698 46.83405 153.68795 46.9011 153.72891 46.96848 153.7699 47.03622 153.81089 47.1043 153.85186 47.17271 153.89284 47.24149 153.9338 47.31061 153.9748 47.38007 154.01576 47.44984 154.05675 47.51999 154.09772 47.59048 154.1387 47.66133 154.17969 47.7325 154.22066 47.80403 154.26165 47.8759 154.30261 47.9481 154.3436 48.02068 154.38457 48.09358 154.42555 48.16682 154.46652 48.24042 154.5075 48.31435 154.5485 48.38864 154.58946 48.46326 154.63045 48.53824 154.67142 48.61354 154.7124 48.68921 154.75337 48.76521 154.79436 48.84157 154.83533 48.91826 154.8763 48.9953 154.91728 49.07268 154.95825 49.1504 154.99924 49.22849 155.0402 49.30692 155.08119 49.38567 155.12216 49.46478 155.16315 49.54424 155.20413 49.62402 155.2451 49.70416 155.28609 49.78465 155.32706 49.8655 155.36804 49.94666 155.40901 50.02818 155.45 50.11005 155.49097 50.19226 155.53195 50.27481 155.57294 50.35771 155.6139 50.44095 155.65489 50.52454 155.69586 50.60847 155.73685 50.69275 155.77782 50.77739 155.8188 50.86235 155.85979 50.94766 155.90076 51.03333 155.94174 51.11932 155.9827 51.20567 156.02368 51.29234 156.06465 51.3794 156.10564 51.46678 156.1466 51.55449 156.18759 51.64256 156.22858 51.73099 156.26955 51.81973 156.31053 51.90884 156.3515 51.99829 156.39249 52.08809 156.43346 52.17822 156.47444 52.2687 156.51543 52.35953 156.5564 52.45071 156.59738 52.54222 156.63835 52.6341 156.67934 52.72629 156.7203 52.81885 156.76129 52.91174 156.80226 53.00497 156.84325 53.09856 156.88423 53.19249 156.9252 53.28677 156.96619 53.3814 157.00716 53.47636 157.04814 53.57166 157.08911 53.66731 157.13008 53.7633 157.17105 53.85966 157.21204 53.95634 157.25302 54.05338 157.29399 54.15074 157.33498 54.24846 157.37595 54.34653 157.41693 54.44495 157.4579 54.5437 157.49889 54.6428 157.53987 54.74225 157.58084 54.84204 157.62183 54.94218 157.6628 55.04265 157.70378 55.14348 157.74475 55.24464 157.78574 55.34616 157.8267 55.44801 157.86769 55.55022 157.90868 55.65276 157.94965 55.75565 157.99063 55.85889 158.0316 55.96248 158.07259 56.06639 158.11356 56.17067 158.15454 56.27528 158.19551 56.38023 158.2365 56.48555 158.27747 56.5912 158.31844 56.69719 158.35942 56.80354 158.40039 56.91022 158.44138 57.01724 158.48235 57.12462 158.52333 57.23235 158.56432 57.3404 158.60529 57.4488 158.64627 57.55756 158.68724 57.66664 158.72823 57.7761 158.7692 57.88588 158.81018 57.99602 158.85115 58.10649 158.89214 58.2173 158.93312 58.32846 158.97409 58.43999 159.01508 58.55182 159.05605 58.66403 159.09703 58.77657 159.138 58.88947 159.17899 59.00269 159.21997 59.11627 159.26094 59.2302 159.30193 59.34445 159.3429 59.45908 159.38388 59.57402 159.42484 59.68933 159.46582 59.80498 159.50679 59.92096 159.54778 60.03731 159.58876 60.15398 159.62973 60.271 159.67072 60.38838 159.71169 60.50609 159.75267 60.62415 159.79364 60.74255 159.83463 60.8613 159.8756 60.9804 159.91658 61.09982 159.95757 61.2196 159.99854 61.33974 160.03952 61.4602 160.08049 61.58102 160.12148 61.70218 160.16245 61.82368 160.20343 61.94554 160.24442 62.06773 160.28539 62.19028 160.32637 62.31316 160.36734 62.43639 160.40833 62.55997 160.4493 62.68387 160.49028 62.80814 160.53124 62.93275 160.57222 63.05771 160.6132 63.183 160.65418 63.30864 160.69516 63.43463 160.73613 63.56096 160.77712 63.68764 160.81809 63.81467 160.85907 63.94202 160.90004 64.06973 160.94103 64.19778 160.98201 64.32619 161.02298 64.45494 161.06397 64.58401 161.10494 64.71344 161.14592 64.84323 161.18689 64.97336 161.22788 65.10382 161.26886 65.23463 161.30983 65.3658 161.35082 65.49728 161.39179 65.62914 161.43277 65.76134 161.47374 65.89386 161.51473 66.02675 161.5557 66.15997 161.59668 66.29353 161.63767 66.42746 161.67862 66.56172 161.7196 66.69632 161.76058 66.83127 161.80156 66.96657 161.84253 67.10219 161.88352 67.23817 161.9245 67.3745 161.96547 67.51115 162.00646 67.64816 162.04743 67.78554"/>
<path transform="matrix(1.00002,0,0,-1.00002,-14.092659,163.18994)" stroke-width=".3985" stroke-linecap="butt" stroke-miterlimit="10" stroke-linejoin="miter" fill="none" stroke="#000000" d="M161.72397 67.24728 161.80593 67.24626 161.88788 67.24594 161.96984 67.24629 162.05179 67.24734 162.13375 67.24908 162.2157 67.25153 162.29766 67.25464 162.37961 67.25844 162.46158 67.26294 162.54354 67.26814 162.62549 67.274 162.70745 67.28058 162.78939 67.28783 162.87134 67.29578 162.9533 67.30441 163.03525 67.31374 163.11722 67.32375 163.19918 67.33444 163.28113 67.34584 163.36309 67.35793 163.44504 67.3707 163.527 67.38416 163.60895 67.3983 163.6909 67.41315 163.77288 67.42867 163.85483 67.44489 163.93677 67.46179 164.01873 67.47939 164.10068 67.49768 164.18264 67.51666 164.26459 67.53632 164.34654 67.55667 164.42852 67.57771 164.51047 67.59946 164.59243 67.62187 164.67438 67.64497 164.75634 67.6688 164.83829 67.69328 164.92024 67.71844 165.0022 67.74432 165.08414 67.77089 165.1661 67.79813 165.24806 67.82607 165.33002 67.85469 165.41197 67.88402 165.49393 67.91402 165.57588 67.94472 165.65784 67.97609 165.73979 68.00816 165.82176 68.04092 165.90372 68.07439 165.98567 68.10854 166.06763 68.14336 166.14957 68.17888 166.23152 68.21509 166.31348 68.252 166.39543 68.28958 166.4774 68.32785 166.55936 68.36684 166.64131 68.40648 166.72327 68.44682 166.80522 68.48787 166.88718 68.52959 166.96913 68.57199 167.05109 68.61511 167.13306 68.6589 167.21501 68.70338 167.29695 68.74855 167.3789 68.79442 167.46086 68.84097 167.54282 68.88821 167.62477 68.93614 167.70673 68.98476 167.78868 69.03407 167.87065 69.08406 167.9526 69.13477 168.03456 69.18613 168.11652 69.23819 168.19847 69.29095 168.28043 69.34439 168.36238 69.39853 168.44432 69.45337 168.52629 69.50887 168.60825 69.56506 168.6902 69.62196 168.77216 69.67953 168.85411 69.73782 168.93607 69.79677 169.01802 69.85643 169.09998 69.91676 169.18195 69.9778 169.2639 70.0395 169.34586 70.10193 169.42781 70.16501 169.50977 70.2288 169.5917 70.29327 169.67366 70.35844 169.75562 70.4243 169.83759 70.49083 169.91954 70.55807 170.0015 70.62599 170.08345 70.69461 170.1654 70.76392 170.24736 70.8339 170.32932 70.90457 170.41127 70.97595 170.49323 71.048 170.5752 71.12074 170.65715 71.19418 170.73909 71.26831 170.82105 71.34314 170.903 71.41864 170.98496 71.49484 171.06691 71.57172 171.14887 71.64929 171.23084 71.72755 171.31279 71.8065 171.39475 71.88615 171.4767 71.96648 171.55866 72.0475 171.64061 72.12921 171.72257 72.21161 171.80452 72.29471 171.88648 72.37848 171.96843 72.46294 172.05039 72.54811 172.13234 72.63396 172.2143 72.72047 172.29625 72.80771 172.3782 72.89561 172.46016 72.98424 172.54213 73.07352 172.62409 73.1635 172.70604 73.25418 172.788 73.34554 172.86995 73.43759 172.9519 73.53033 173.03385 73.62375 173.1158 73.71788 173.19776 73.81268 173.27973 73.90819 173.36168 74.00436 173.44364 74.10124 173.52559 74.1988 173.60755 74.29706 173.6895 74.39601 173.77146 74.49565 173.85341 74.59598 173.93538 74.69698 174.01734 74.79868 174.09929 74.90108 174.18123 75.00417 174.26319 75.10794 174.34514 75.21239 174.4271 75.31754 174.50905 75.42337 174.59102 75.5299 174.67298 75.63712 174.75493 75.74504 174.83689 75.85362 174.91884 75.9629 175.0008 76.07288 175.08275 76.18355 175.1647 76.2949 175.24668 76.40695 175.32862 76.51968 175.41057 76.6331 175.49253 76.74721 175.57448 76.86201 175.65644 76.97751 175.73839 77.09369 175.82035 77.21056 175.9023 77.32811 175.98427 77.44637 176.06623 77.5653 176.14818 77.68494 176.23014 77.80524 176.31209 77.92624 176.39405 78.04794 176.47599 78.17033 176.55794 78.29341 176.63991 78.41716 176.72187 78.54163 176.80382 78.66676 176.88578 78.79259 176.96773 78.91911 177.04969 79.04633 177.13164 79.17422 177.2136 79.30281 177.29557 79.4321 177.37752 79.56206 177.45948 79.69272 177.54143 79.82407 177.62337 79.95609 177.70532 80.08882 177.78728 80.22223 177.86923 80.35634 177.9512 80.49113 178.03316 80.62662 178.11511 80.76277 178.19707 80.89963 178.27902 81.03722 178.36098 81.17545 178.44293 81.31439 178.52489 81.45395 178.60684 81.59428 178.6888 81.7353 178.77075 81.87698 178.8527 82.01938 178.93466 82.1624 179.01662 82.30618 179.09857 82.45062 179.18053 82.59576 179.26248 82.74161 179.34445 82.88806 179.4264 83.0353 179.50836 83.1832 179.59032 83.33177 179.67227 83.48106 179.75423 83.63098 179.83617 83.78163 179.91812 83.93297 180.00009 84.08502 180.08205 84.23775 180.164 84.39113 180.24596 84.54523 180.32791 84.70001 180.40987 84.8555 180.49182 85.01167 180.57378 85.1685 180.65575 85.32603 180.7377 85.48428 180.81966 85.64322 180.90161 85.80284 180.98355 85.9631 181.0655 86.12411 181.14746 86.28578 181.22942 86.44817 181.31137 86.61124 181.39334 86.77495 181.4753 86.93939 181.55725 87.10454 181.6392 87.27037 181.72116 87.43687 181.80312 87.60402 181.88507 87.77191 181.96703 87.9405 182.049 88.10979 182.13094 88.27975 182.21289 88.45035 182.29485 88.62169 182.3768 88.79372 182.45876 88.96645 182.54071 89.13985 182.62267 89.31387 182.70464 89.4887 182.78659 89.66415 182.86855 89.84035 182.9505 90.01718 183.03246 90.19469 183.11441 90.37291 183.19637 90.55185 183.2783 90.73145 183.36028 90.91176 183.44223 91.0927 183.52419 91.27437 183.60614 91.45676 183.6881 91.63982 183.77005 91.82356 183.852 92.00797 183.93396 92.19307 184.01592 92.3789 184.09789 92.5654 184.17984 92.75261 184.2618 92.94044 184.34375 93.12901 184.42569 93.3183 184.50765 93.50824 184.5896 93.6989 184.67156 93.89015 184.75353 94.08218 184.83548 94.27489 184.91744 94.46829 184.99939 94.6624 185.08135 94.85712 185.1633 95.0526 185.24526 95.24876 185.32721 95.44562 185.40918 95.64314 185.49114 95.84131 185.57308 96.04022 185.65503 96.23984 185.73699 96.44014 185.81894 96.64113 185.9009 96.84274 185.98285 97.0451 186.06482 97.24815 186.14678 97.4519 186.22873 97.65634 186.31069 97.86139 186.39264 98.06721 186.4746 98.27371 186.55655 98.4809 186.6385 98.68878 186.72045 98.8973 186.80242 99.10655 186.88437 99.31653 186.96633 99.52715 187.04828 99.73846 187.13024 99.95042 187.21219 100.16315 187.29415 100.37653 187.3761 100.59062 187.45807 100.80539 187.54003 101.02078 187.62198 101.23694 187.70394 101.4538 187.78589 101.67134 187.86783 101.88956 187.94979 102.10841 188.03174 102.32799 188.11371 102.5483 188.19567 102.76927 188.27762 102.99095 188.35958 103.21324 188.44153 103.43628 188.52349 103.66002 188.60544 103.88445 188.6874 104.10957 188.76937 104.33533 188.85132 104.5618 188.93328 104.78899 189.01522 105.01688 189.09717 105.24542 189.17913 105.47461 189.26108 105.70454 189.34304 105.9352 189.42499 106.16652 189.50696 106.39851 189.58892 106.63115 189.67087 106.86455 189.75283 107.09863 189.83478 107.33339 189.91674 107.56886 189.99869 107.80493 190.08063 108.04176 190.1626 108.2793 190.24456 108.51752 190.3265 108.75642 190.40847 108.99594 190.49042 109.23622 190.57238 109.4772 190.65433 109.71887 190.73628 109.96121 190.81826 110.2042 190.9002 110.44792 190.98217 110.69235 191.06412 110.93747 191.14608 111.18324 191.22801 111.42967 191.30997 111.67685 191.39192 111.92473 191.47389 112.17328 191.55585 112.42252 191.6378 112.67238 191.71976 112.923 191.80171 113.17432 191.88367 113.42633 191.96562 113.67903 192.04758 113.93233 192.12953 114.18642 192.2115 114.44118 192.29346 114.69662 192.3754 114.95276 192.45735 115.2095 192.5393 115.46704 192.62126 115.72525 192.70322 115.98415 192.78517 116.24374 192.86714 116.50394 192.9491 116.7649 193.03105 117.02655 193.113 117.28891 193.19496 117.55196 193.27692 117.8156 193.35887 118.08 193.44083 118.34512 193.52278 118.6109 193.60474 118.8774 193.68669 119.1445 193.76865 119.41234 193.8506 119.68088 193.93256 119.95013 194.01451 120.22006 194.09647 120.4906 194.17844 120.76192 194.26039 121.03392 194.34235 121.30661 194.4243 121.57997"/>
<path transform="matrix(1.00002,0,0,-1.00002,-14.092659,163.18994)" stroke-width=".3985" stroke-linecap="butt" stroke-miterlimit="10" stroke-linejoin="miter" fill="none" stroke="#000000" d="M194.10115 121.04271H194.14212 194.1831 194.22408 194.26506 194.30603 194.34702 194.38799 194.42897 194.46996 194.51091 194.5519 194.59287 194.63385 194.67482 194.7158 194.75678 194.79776 194.83875 194.87972 194.9207 194.96167 195.00266 195.04363 195.08461 195.1256 195.16657 195.20755 195.24852 195.2895 195.33048 195.37146 195.41243 195.45342 195.4944 195.53537 195.57636 195.61733 195.6583 195.69927 195.74025 195.78122 195.8222 195.86319 195.90416 195.94515 195.98612 196.0271 196.06807 196.10906 196.15004 196.19101 196.232 196.27297 196.31395 196.35492 196.3959 196.43688 196.47786 196.51885 196.55982 196.6008 196.64177 196.68276 196.72373 196.7647 196.80568 196.84665 196.88764 196.9286 196.96959 197.01056 197.05155 197.09252 197.1335 197.17449 197.21546 197.25644 197.29741 197.3384 197.37937 197.42035 197.46132 197.5023 197.54329 197.58426 197.62525 197.66622 197.7072 197.74817 197.78916 197.83014 197.87111 197.91208 197.95305 197.99404 198.035 198.07599 198.11696 198.15795 198.19893 198.2399 198.28089 198.32186 198.36284 198.40381 198.4448 198.48577 198.52675 198.56774 198.6087 198.64969 198.69066 198.73165 198.77262 198.8136 198.85459 198.89556 198.93654 198.97751 199.0185 199.05945 199.10044 199.1414 199.18239 199.22338 199.26435 199.30533 199.3463 199.38729 199.42826 199.46924 199.51023 199.5512 199.59218 199.63315 199.67414 199.7151 199.75609 199.79706 199.83805 199.87903 199.92 199.96099 200.00196 200.04294 200.08391 200.1249 200.16587 200.20684 200.24782 200.28879 200.32978 200.37075 200.41173 200.4527 200.49369 200.53467 200.57564 200.61663 200.6576 200.69858 200.73955 200.78054 200.8215 200.86249 200.90348 200.94445 200.98543 201.0264 201.06739 201.10836 201.14934 201.1903 201.2313 201.27228 201.31325 201.35422 201.39519 201.43618 201.47714 201.51813 201.55912 201.60009 201.64107 201.68204 201.72303 201.76399 201.80498 201.84595 201.88694 201.92792 201.96889 202.00988 202.05084 202.09183 202.1328 202.17378 202.21477 202.25574 202.29673 202.33769 202.37868 202.41965 202.46062 202.50159 202.54257 202.58356 202.62453 202.66551 202.70648 202.74747 202.78844 202.82942 202.87039 202.91138 202.95236 202.99333 203.03432 203.07529 203.11627 203.15724 203.19823 203.23921 203.28018 203.32117 203.36214 203.40312 203.44409 203.48508 203.52605 203.56703 203.608 203.64897 203.68996 203.73093 203.77191 203.81288 203.85387 203.89484 203.93582 203.9768 204.01778 204.05876 204.09973 204.14072 204.18169 204.22267 204.26366 204.30463 204.34561 204.38658 204.42757 204.46854 204.50952 204.55049 204.59148 204.63246 204.67343 204.71442 204.75537 204.79636 204.83733 204.87831 204.9193 204.96027 205.00125 205.04222 205.0832 205.12418 205.16516 205.20613 205.24712 205.2881 205.32907 205.37006 205.41103 205.45201 205.49298 205.53397 205.57494 205.61592 205.6569 205.69788 205.73886 205.77983 205.82082 205.86179 205.90276 205.94374 205.98471 206.0257 206.06667 206.10765 206.14862 206.1896 206.23058 206.27156 206.31255 206.35352 206.3945 206.43547 206.47646 206.51743 206.55841 206.59938 206.64037 206.68135 206.72232 206.7633 206.80428 206.84526 206.88623 206.92722 206.9682 207.00917 207.05014 207.09111 207.1321 207.17307 207.21405 207.25502 207.296 207.33699 207.37796 207.41895 207.45992 207.5009 207.54187 207.58286 207.62384 207.66481 207.7058 207.74677 207.78775 207.82872 207.8697 207.91068 207.95166 207.99265 208.03362 208.0746 208.11557 208.15654 208.19751 208.2385 208.27947 208.32045 208.36144 208.4024 208.44339 208.48436 208.52535 208.56632 208.6073 208.64829 208.68926 208.73024 208.77121 208.8122 208.85317 208.89415 208.93512 208.9761 209.01709 209.05806 209.09905 209.14002 209.181 209.22197 209.26296 209.30391 209.3449 209.38588 209.42685 209.46784 209.5088 209.54979 209.59076 209.63175 209.67273 209.7137 209.75469 209.79566 209.83664 209.87761 209.9186 209.95957 210.00055 210.04154 210.0825 210.12349 210.16446 210.20545 210.24642 210.2874 210.32839 210.36936 210.41034 210.4513"/>
<path transform="matrix(1.00002,0,0,-1.00002,-14.092659,163.18994)" stroke-width="1.49442" stroke-linecap="butt" stroke-miterlimit="10" stroke-linejoin="miter" fill="none" stroke="#000000" d="M210.45162 121.04271"/>
</g>
<path transform="matrix(1.00002,0,0,-1.00002,-14.092659,163.18994)" d="" fill="#ffffff"/>
<path transform="matrix(1.00002,0,0,-1.00002,-14.092659,163.18994)" stroke-width=".99628" stroke-linecap="butt" stroke-miterlimit="10" stroke-linejoin="miter" fill="none" stroke="#000000" d=""/>
<path transform="matrix(1.00002,0,0,-1.00002,-14.092659,163.18994)" d="M212.44417 121.04271C212.44417 122.14317 211.5521 123.03526 210.45162 123.03526 209.35115 123.03526 208.45906 122.14317 208.45906 121.04271 208.45906 119.94223 209.35115 119.05016 210.45162 119.05016 211.5521 119.05016 212.44417 119.94223 212.44417 121.04271ZM210.45162 121.04271"/>
<path transform="matrix(1.00002,0,0,-1.00002,-14.092659,163.18994)" stroke-width="1.49442" stroke-linecap="butt" stroke-miterlimit="10" stroke-linejoin="miter" fill="none" stroke="#000000" d="M212.44417 121.04271C212.44417 122.14317 211.5521 123.03526 210.45162 123.03526 209.35115 123.03526 208.45906 122.14317 208.45906 121.04271 208.45906 119.94223 209.35115 119.05016 210.45162 119.05016 211.5521 119.05016 212.44417 119.94223 212.44417 121.04271ZM210.45162 121.04271"/>
<path transform="matrix(1.00002,0,0,-1.00002,-14.092659,163.18994)" stroke-width="1.49442" stroke-linecap="butt" stroke-miterlimit="10" stroke-linejoin="miter" fill="none" stroke="#000000" d=""/>
</svg>
