<svg xmlns="http://www.w3.org/2000/svg" xmlns:xlink="http://www.w3.org/1999/xlink" xmlns:inkscape="http://www.inkscape.org/namespaces/inkscape" version="1.1" width="198" height="165" viewBox="0 0 198 165">
<defs>
<path id="font_1_1" d="M.6589966 .23046875C.6759949 .23046875 .69400027 .23046875 .69400027 .25045777 .69400027 .27046205 .6759949 .27046205 .6589966 .27046205H.117996219C.100997928 .27046205 .08299255 .27046205 .08299255 .25045777 .08299255 .23046875 .100997928 .23046875 .117996219 .23046875H.6589966Z"/>
<path id="font_2_3" d="M.13198853 .327713V.35173036C.13198853 .6047821 .2559967 .64100649 .30699159 .64100649 .33099366 .64100649 .37298585 .634964 .394989 .6007538 .37998963 .6007538 .33999635 .6007538 .33999635 .5557556 .33999635 .524765 .3639984 .5097656 .38598634 .5097656 .4019928 .5097656 .43199159 .51875308 .43199159 .5577545 .43199159 .6178589 .3880005 .6660156 .30499269 .6660156 .1769867 .6660156 .041992189 .5367584 .041992189 .31570436 .041992189 .048553468 .1579895-.022460938 .25099183-.022460938 .3619995-.022460938 .45700074 .07156372 .45700074 .2036438 .45700074 .33070375 .36799623 .4267578 .25698854 .4267578 .18899536 .4267578 .1519928 .37573243 .13198853 .327713M.25099183 .0055389406C.18798828 .0055389406 .1579895 .06556702 .1519928 .080566409 .13398743 .127594 .13398743 .2076416 .13398743 .22564698 .13398743 .30369569 .1659851 .40374757 .2559967 .40374757 .27198792 .40374757 .31799317 .40374757 .34899903 .34172059 .36698915 .30470277 .36698915 .2536621 .36698915 .20463562 .36698915 .15661621 .36698915 .10658264 .34999085 .0705719 .31999208 .010528564 .27398683 .0055389406 .25099183 .0055389406Z"/>
<path id="font_2_2" d="M.2939911 .16503906V.07800293C.2939911 .041992189 .2919922 .0309906 .21798706 .0309906H.19699097V0C.23799134 .0029907227 .2899933 .0029907227 .33198548 .0029907227 .37399293 .0029907227 .4269867 .0029907227 .46798707 0V.0309906H.44699098C.37298585 .0309906 .37098695 .041992189 .37098695 .07800293V.16503906H.47099305V.19602967H.37098695V.65075686C.37098695 .67074587 .37098695 .6767578 .35499574 .6767578 .34599305 .6767578 .34298707 .6767578 .33499146 .66474917L.027999878 .19602967V.16503906H.2939911M.2999878 .19602967H.055999757L.2999878 .5688019V.19602967Z"/>
<path id="font_2_1" d="M.1269989 .07699585 .23298645 .18003845C.3889923 .31811524 .44898988 .3721466 .44898988 .47216798 .44898988 .5860901 .35899354 .6660156 .23699951 .6660156 .12399292 .6660156 .049987794 .57411196 .049987794 .48516847 .049987794 .4291687 .099990848 .4291687 .102996829 .4291687 .11999512 .4291687 .15499878 .44117738 .15499878 .48217774 .15499878 .5081787 .13699341 .5341797 .101989749 .5341797 .09399414 .5341797 .09199524 .5341797 .08898926 .5331726 .11199951 .59806826 .1659851 .63500979 .22399903 .63500979 .31498719 .63500979 .35798646 .5541382 .35798646 .47216798 .35798646 .39215089 .30799867 .31311036 .25299073 .25108338L.06098938 .036987306C.049987794 .025985718 .049987794 .023986817 .049987794 0H.42099L.44898988 .17404175H.42399598C.4189911 .14402771 .4119873 .1000061 .4019928 .084991458 .394989 .07699585 .32899476 .07699585 .30699159 .07699585H.1269989Z"/>
<clipPath id="clip_3">
<path transform="matrix(1.00003,0,0,-1.00006,2.0964967,163.19083)" d="M0 0H194.26912V161.3842H0Z"/>
</clipPath>
<path id="font_4_1" d="M.33399964 .30233766C.33999635 .32835389 .36299134 .42037965 .43299867 .42037965 .43798829 .42037965 .46199037 .42037965 .48298646 .40734864 .45498658 .402359 .43499757 .37734986 .43499757 .35334779 .43499757 .33735658 .44599916 .31835938 .47299195 .31835938 .49499513 .31835938 .5269928 .3363495 .5269928 .37635804 .5269928 .42837525 .46798707 .4423828 .43399049 .4423828 .37599183 .4423828 .34098817 .38935853 .32899476 .36634828 .3039856 .43237306 .25 .4423828 .22099304 .4423828 .116989139 .4423828 .05999756 .3133545 .05999756 .28834535 .05999756 .27833558 .069992069 .27833558 .07199097 .27833558 .07998657 .27833558 .08299255 .28033448 .084991458 .28933717 .11898804 .39535523 .18499756 .42037965 .21899414 .42037965 .23799134 .42037965 .272995 .4113617 .272995 .35334779 .272995 .32235719 .2559967 .25532533 .21899414 .11528015 .20298767 .053268434 .16799927 .011245728 .12399292 .011245728 .117996219 .011245728 .09498596 .011245728 .07398987 .024276734 .09899902 .029266358 .12098694 .05027771 .12098694 .07827759 .12098694 .105270389 .09899902 .11328125 .083999637 .11328125 .053985597 .11328125 .0289917 .08728027 .0289917 .055267335 .0289917 .009246826 .07899475-.0107421879 .12298584-.0107421879 .18899536-.0107421879 .22499085 .059280397 .22799683 .0652771 .23999024 .028274537 .27598573-.0107421879 .33599855-.0107421879 .43899537-.0107421879 .49598695 .118270877 .49598695 .14328003 .49598695 .1532898 .4869995 .1532898 .48399354 .1532898 .47499085 .1532898 .47299195 .14929199 .47099305 .14228821 .43798829 .03527832 .36999513 .011245728 .33799745 .011245728 .29899598 .011245728 .2829895 .043273927 .2829895 .07727051 .2829895 .09927368 .2889862 .121276859 .2999878 .16529846L.33399964 .30233766Z"/>
<path id="font_4_2" d="M.48599244 .38136292C.48999024 .39537049 .48999024 .39736939 .48999024 .40437318 .48999024 .42237855 .47599793 .43138124 .46099855 .43138124 .45098878 .43138124 .43499757 .42536927 .42599488 .41036988 .42399598 .405365 .41600038 .37435914 .4119873 .35635377 .40499879 .33035279 .397995 .30334474 .3919983 .27633668L.34700013 .09628296C.34298707 .08126831 .2999878 .011245728 .23399353 .011245728 .18299866 .011245728 .17199707 .055267335 .17199707 .0922699 .17199707 .1382904 .18899536 .20030213 .22299195 .28833009 .23899842 .3293457 .24299622 .3403473 .24299622 .36035157 .24299622 .405365 .21099854 .4423828 .16099549 .4423828 .06599426 .4423828 .0289917 .29733277 .0289917 .28833009 .0289917 .27833558 .038986207 .27833558 .040985109 .27833558 .050994874 .27833558 .051986696 .28033448 .056991579 .29634095 .083999637 .3903656 .12399292 .42037965 .1579895 .42037965 .1659851 .42037965 .18299866 .42037965 .18299866 .3883667 .18299866 .36335755 .17298889 .3373413 .1659851 .31834413 .12599182 .21231079 .10798645 .1552887 .10798645 .10827637 .10798645 .019256592 .17098999-.0107421879 .22999573-.0107421879 .2689972-.0107421879 .30299378 .0062561037 .33099366 .03425598 .31799317-.017745972 .30599977-.06674194 .2659912-.11973572 .23999024-.15385437 .20199585-.18309021 .1559906-.18309021 .14199829-.18309021 .09700012-.18005371 .07998657-.14074707 .09599304-.14074707 .10899353-.14074707 .12298584-.1287384 .1329956-.11973572 .14299011-.10673523 .14299011-.08773804 .14299011-.056747438 .115997318-.052734376 .10598755-.052734376 .08299255-.052734376 .049987794-.068740848 .049987794-.11773682 .049987794-.16796875 .09399414-.20507813 .1559906-.20507813 .25898744-.20507813 .3619995-.11373901 .3899994-.00074768069L.48599244 .38136292Z"/>
</defs>
<path transform="matrix(1.00003,0,0,-1.00006,2.0964967,163.19083)" stroke-width=".3985" stroke-linecap="butt" stroke-miterlimit="10" stroke-linejoin="miter" fill="none" stroke="#404040" d="M0 0H194.26912V161.3842H0Z"/>
<path transform="matrix(1.00003,0,0,-1.00006,2.0964967,163.19083)" stroke-width=".3985" stroke-linecap="butt" stroke-miterlimit="10" stroke-linejoin="miter" fill="none" stroke="#bfbfbf" d="M12.14182 0V161.3842M36.42545 0V161.3842M60.70909 0V161.3842M84.99274 0V161.3842M109.27637 0V161.3842M133.56002 0V161.3842M157.84366 0V161.3842M182.12729 0V161.3842"/>
<path transform="matrix(1.00003,0,0,-1.00006,2.0964967,163.19083)" stroke-width=".3985" stroke-linecap="butt" stroke-miterlimit="10" stroke-linejoin="miter" fill="none" stroke="#bfbfbf" d="M24.28363 0V161.3842M48.56728 0V161.3842M72.8509 0V161.3842M121.4182 0V161.3842M145.70183 0V161.3842M169.98548 0V161.3842"/>
<path transform="matrix(1.00003,0,0,-1.00006,2.0964967,163.19083)" stroke-width=".3985" stroke-linecap="butt" stroke-miterlimit="10" stroke-linejoin="miter" fill="none" stroke="#bfbfbf" d="M0 10.0865H194.26912M0 30.25954H194.26912M0 50.43256H194.26912M0 70.60558H194.26912M0 90.77861H194.26912M0 110.95163H194.26912M0 131.12467H194.26912M0 151.29769H194.26912"/>
<path transform="matrix(1.00003,0,0,-1.00006,2.0964967,163.19083)" stroke-width=".3985" stroke-linecap="butt" stroke-miterlimit="10" stroke-linejoin="miter" fill="none" stroke="#bfbfbf" d="M0 20.17302H194.26912M0 40.34604H194.26912M0 60.51907H194.26912M0 100.86511H194.26912M0 121.03815H194.26912M0 141.21117H194.26912"/>
<path transform="matrix(1.00003,0,0,-1.00006,2.0964967,163.19083)" stroke-width=".19925" stroke-linecap="butt" stroke-miterlimit="10" stroke-linejoin="miter" fill="none" stroke="#7f807f" d="M12.14182 79.27461V82.10957M36.42545 79.27461V82.10957M60.70909 79.27461V82.10957M84.99274 79.27461V82.10957M109.27637 79.27461V82.10957M133.56002 79.27461V82.10957M157.84366 79.27461V82.10957M182.12729 79.27461V82.10957"/>
<path transform="matrix(1.00003,0,0,-1.00006,2.0964967,163.19083)" stroke-width=".19925" stroke-linecap="butt" stroke-miterlimit="10" stroke-linejoin="miter" fill="none" stroke="#7f807f" d="M24.28363 78.56609V82.81808M48.56728 78.56609V82.81808M72.8509 78.56609V82.81808M121.4182 78.56609V82.81808M145.70183 78.56609V82.81808M169.98548 78.56609V82.81808"/>
<path transform="matrix(1.00003,0,0,-1.00006,2.0964967,163.19083)" stroke-width=".19925" stroke-linecap="butt" stroke-miterlimit="10" stroke-linejoin="miter" fill="none" stroke="#7f807f" d="M95.7171 10.0865H98.552M95.7171 30.25954H98.552M95.7171 50.43256H98.552M95.7171 70.60558H98.552M95.7171 90.77861H98.552M95.7171 110.95163H98.552M95.7171 131.12467H98.552M95.7171 151.29769H98.552"/>
<path transform="matrix(1.00003,0,0,-1.00006,2.0964967,163.19083)" stroke-width=".19925" stroke-linecap="butt" stroke-miterlimit="10" stroke-linejoin="miter" fill="none" stroke="#7f807f" d="M95.0086 20.17302H99.26048M95.0086 40.34604H99.26048M95.0086 60.51907H99.26048M95.0086 100.86511H99.26048M95.0086 121.03815H99.26048M95.0086 141.21117H99.26048"/>
<path transform="matrix(1.00003,0,0,-1.00006,2.0964967,163.19083)" stroke-width=".3985" stroke-linecap="butt" stroke-miterlimit="10" stroke-linejoin="miter" fill="none" stroke="#000000" d="M0 80.6921H192.2766"/>
<path transform="matrix(1.00003,0,0,-1.00006,194.37888,82.49389)" d="M1.99252 0-1.19551 1.59401 0 0-1.19551-1.59401"/>
<path transform="matrix(1.00003,0,0,-1.00006,2.0964967,163.19083)" stroke-width=".3985" stroke-linecap="butt" stroke-miterlimit="10" stroke-linejoin="miter" fill="none" stroke="#000000" d="M97.13455 0V159.39168"/>
<path transform="matrix(0,-1.00006,-1.00003,-0,99.23396,3.7895966)" d="M1.99252 0-1.19551 1.59401 0 0-1.19551-1.59401"/>
<use data-text="&#x2212;" xlink:href="#font_1_1" transform="matrix(9.962899,0,0,-9.963197,20.016037,94.560718)"/>
<use data-text="6" xlink:href="#font_2_3" transform="matrix(9.962899,0,0,-9.963197,27.765267,94.560718)"/>
<use data-text="&#x2212;" xlink:href="#font_1_1" transform="matrix(9.962899,0,0,-9.963197,44.299764,94.560718)"/>
<use data-text="4" xlink:href="#font_2_2" transform="matrix(9.962899,0,0,-9.963197,52.048994,94.560718)"/>
<use data-text="&#x2212;" xlink:href="#font_1_1" transform="matrix(9.962899,0,0,-9.963197,68.584499,94.560718)"/>
<use data-text="2" xlink:href="#font_2_1" transform="matrix(9.962899,0,0,-9.963197,76.333728,94.560718)"/>
<use data-text="2" xlink:href="#font_2_1" transform="matrix(9.962899,0,0,-9.963197,121.02707,94.560718)"/>
<use data-text="4" xlink:href="#font_2_2" transform="matrix(9.962899,0,0,-9.963197,145.3118,94.560718)"/>
<use data-text="6" xlink:href="#font_2_3" transform="matrix(9.962899,0,0,-9.963197,169.59653,94.560718)"/>
<use data-text="&#x2212;" xlink:href="#font_1_1" transform="matrix(9.962899,0,0,-9.963197,80.857868,145.81179)"/>
<use data-text="6" xlink:href="#font_2_3" transform="matrix(9.962899,0,0,-9.963197,88.60709,145.81179)"/>
<use data-text="&#x2212;" xlink:href="#font_1_1" transform="matrix(9.962899,0,0,-9.963197,80.857868,125.63757)"/>
<use data-text="4" xlink:href="#font_2_2" transform="matrix(9.962899,0,0,-9.963197,88.60709,125.63757)"/>
<use data-text="&#x2212;" xlink:href="#font_1_1" transform="matrix(9.962899,0,0,-9.963197,80.857868,105.46336)"/>
<use data-text="2" xlink:href="#font_2_1" transform="matrix(9.962899,0,0,-9.963197,88.60709,105.46336)"/>
<use data-text="2" xlink:href="#font_2_1" transform="matrix(9.962899,0,0,-9.963197,88.6061,65.52997)"/>
<use data-text="4" xlink:href="#font_2_2" transform="matrix(9.962899,0,0,-9.963197,88.6061,45.35576)"/>
<use data-text="6" xlink:href="#font_2_3" transform="matrix(9.962899,0,0,-9.963197,88.6061,25.18155)"/>
<g clip-path="url(#clip_3)">
<path transform="matrix(1.00003,0,0,-1.00006,2.0964967,163.19083)" stroke-width="1.49442" stroke-linecap="butt" stroke-miterlimit="10" stroke-linejoin="miter" fill="none" stroke="#1414cc" d="M12.14182 20.17302 12.17253 20.19855 12.20328 20.22408 12.23401 20.2496 12.26474 20.27515 12.29547 20.30067 12.32622 20.3262 12.35695 20.35173 12.38768 20.37727 12.41841 20.4028 12.44916 20.42833 12.47989 20.45386 12.51062 20.4794 12.54135 20.50493 12.57208 20.53046 12.60283 20.55598 12.63354 20.58153 12.66429 20.60706 12.69502 20.63258 12.72575 20.65811 12.75648 20.68365 12.78723 20.70918 12.81796 20.73471 12.8487 20.76024 12.87943 20.78578 12.91017 20.81131 12.9409 20.83684 12.97163 20.86237 13.00237 20.88791 13.03311 20.91344 13.06384 20.93896 13.09456 20.9645 13.1253 20.99004 13.15604 21.01556 13.18677 21.04109 13.2175 21.06662 13.24825 21.09216 13.27898 21.11769 13.30971 21.14322 13.34044 21.16875 13.37119 21.19429 13.40192 21.21982 13.43265 21.24535 13.46338 21.27087 13.49413 21.29642 13.52486 21.32195 13.55559 21.34747 13.58632 21.373 13.61707 21.39854 13.64778 21.42406 13.67851 21.4496 13.70926 21.47513 13.73999 21.50067 13.77072 21.52618 13.80145 21.55173 13.8322 21.57726 13.86293 21.6028 13.89366 21.62831 13.9244 21.65385 13.95514 21.67938 13.98587 21.70493 14.0166 21.73044 14.04733 21.75598 14.07808 21.78151 14.1088 21.80705 14.13954 21.83257 14.17027 21.85811 14.20102 21.88364 14.23174 21.90918 14.26247 21.9347 14.29321 21.96024 14.32394 21.98576 14.35468 22.0113 14.3854 22.03682 14.41615 22.06236 14.44688 22.08789 14.47762 22.11343 14.50835 22.13895 14.5391 22.16449 14.56981 22.19002 14.60056 22.21556 14.63129 22.24107 14.66203 22.26662 14.69275 22.29214 14.7235 22.31769 14.75423 22.3432 14.78496 22.36874 14.81569 22.39427 14.84642 22.41982 14.87717 22.44533 14.9079 22.47087 14.93863 22.4964 14.96936 22.52194 15.0001 22.54745 15.03082 22.573 15.06157 22.59853 15.0923 22.62407 15.12305 22.64958 15.15376 22.67513 15.18451 22.70065 15.21524 22.7262 15.24599 22.75171 15.2767 22.77725 15.30745 22.80278 15.33818 22.82832 15.36891 22.85384 15.39964 22.87938 15.43037 22.9049 15.46112 22.93045 15.49184 22.95598 15.52258 22.9815 15.55331 23.00705 15.58406 23.03258 15.61478 23.0581 15.64552 23.08363 15.67625 23.10918 15.707 23.1347 15.73772 23.16023 15.76846 23.18576 15.7992 23.2113 15.82994 23.23683 15.86066 23.26236 15.8914 23.28789 15.92213 23.31343 15.95285 23.33896 15.9836 23.36449 16.01433 23.39001 16.04507 23.41556 16.07579 23.44109 16.10654 23.46661 16.13727 23.49214 16.16801 23.51768 16.19873 23.5432 16.22948 23.56874 16.26021 23.59427 16.29095 23.61981 16.32167 23.64532 16.35242 23.67087 16.38315 23.6964 16.41388 23.72194 16.44461 23.74745 16.47534 23.773 16.50609 23.79852 16.5368 23.82407 16.56755 23.84958 16.59828 23.87512 16.62903 23.90065 16.65974 23.9262 16.69049 23.9517 16.72122 23.97725 16.75197 24.00278 16.78268 24.02832 16.81343 24.05383 16.84416 24.07938 16.8749 24.1049 16.90562 24.13045 16.93637 24.15596 16.9671 24.1815 16.99783 24.20703 17.02856 24.23257 17.0593 24.25809 17.09004 24.28363 17.12076 24.30916 17.1515 24.3347 17.18224 24.36021 17.21298 24.38576 17.2437 24.41129 17.27444 24.43683 17.30518 24.46234 17.33592 24.48788 17.36664 24.51341 17.39738 24.53896 17.42812 24.56447 17.45885 24.59001 17.48958 24.61554 17.52032 24.64108 17.55106 24.6666 17.58179 24.69214 17.61252 24.71767 17.64325 24.74321 17.674 24.76872 17.70471 24.79427 17.73546 24.8198 17.76619 24.84534 17.79694 24.87085 17.82765 24.8964 17.8584 24.92192 17.88913 24.94746 17.91986 24.97298 17.95059 24.99852 17.98134 25.02405 18.01207 25.04959 18.0428 25.0751 18.07353 25.10065 18.10428 25.12617 18.13501 25.15172 18.16573 25.17723 18.19647 25.20277 18.2272 25.2283 18.25795 25.25385 18.28867 25.27936 18.31941 25.3049 18.35014 25.33043 18.38087 25.35597 18.4116 25.38148 18.44235 25.40703 18.47308 25.43256 18.50381 25.4581 18.53455 25.48361 18.56529 25.50916 18.59602 25.53468 18.62675 25.56021 18.65749 25.58574 18.68823 25.61128 18.71896 25.63681 18.74968 25.66234 18.78043 25.68787 18.81116 25.71341 18.84189 25.73895 18.87262 25.76447 18.90337 25.79001 18.9341 25.81554 18.96483 25.84108 18.99556 25.8666 19.0263 25.89214 19.05704 25.91766 19.08777 25.9432 19.1185 25.96872 19.14925 25.99426 19.17998 26.01979 19.21071 26.04533 19.24144 26.07085 19.27219 26.09639 19.3029 26.12192 19.33363 26.14746 19.36438 26.17297 19.39511 26.19852 19.42584 26.22404 19.45657 26.24959 19.48732 26.2751 19.51805 26.30064 19.54878 26.32617 19.57951 26.35172 19.61026 26.37723 19.64099 26.40277 19.67172 26.4283 19.70245 26.45384 19.7332 26.47935 19.76392 26.5049 19.79466 26.53043 19.8254 26.55597 19.85612 26.58148 19.88686 26.60703 19.91759 26.63255 19.94833 26.6581 19.97906 26.68361 20.0098 26.70915 20.04053 26.73468 20.07127 26.76022 20.102 26.78574 20.13274 26.81128 20.16347 26.8368 20.19421 26.86235 20.22493 26.88786 20.25568 26.9134 20.2864 26.93893 20.31715 26.96448 20.34787 26.98999 20.37862 27.01553 20.40935 27.04106 20.44008 27.0666 20.47081 27.09212 20.50154 27.11766 20.53229 27.14319 20.56302 27.16873 20.59375 27.19424 20.62448 27.21979 20.65523 27.24532 20.68594 27.27086 20.71669 27.29637 20.74742 27.32191 20.77817 27.34744 20.80888 27.37299 20.83963 27.3985 20.87036 27.42404 20.90111 27.44957 20.93182 27.47511 20.96257 27.50063 20.9933 27.52617 21.02403 27.5517 21.05476 27.57724 21.0855 27.60275 21.11624 27.6283 21.14696 27.65382 21.1777 27.67935 21.20844 27.70488 21.23918 27.73042 21.2699 27.75595 21.30064 27.78148 21.33138 27.807 21.36212 27.83255 21.39284 27.85808 21.42358 27.8836 21.45432 27.90913 21.48506 27.93468 21.51578 27.9602 21.54652 27.98573 21.57726 28.01126 21.60797 28.0368 21.63872 28.06233 21.66945 28.08786 21.7002 28.11339 21.73091 28.13893 21.76166 28.16446 21.79239 28.18999 21.82314 28.21552 21.85385 28.24106 21.8846 28.26659 21.91533 28.29211 21.94608 28.31764 21.97679 28.34319 22.00754 28.36871 22.03827 28.39424 22.06902 28.41977 22.09973 28.44531 22.13046 28.47086 22.16121 28.49637 22.19193 28.52191 22.22267 28.54744 22.2534 28.57298 22.28415 28.5985 22.31487 28.62404 22.34561 28.64957 22.37634 28.67511 22.40709 28.70062 22.4378 28.72617 22.46855 28.7517 22.49928 28.77724 22.53003 28.80275 22.56075 28.8283 22.59149 28.85382 22.62222 28.87936 22.65295 28.90488 22.68369 28.93042 22.71442 28.95595 22.74516 28.98149 22.77588 29.007 22.80663 29.03255 22.83736 29.05807 22.8681 29.08362 22.89882 29.10913 22.92957 29.13467 22.9603 29.1602 22.99104 29.18575 23.02176 29.21126 23.0525 29.2368 23.08324 29.26233 23.11397 29.28787 23.1447 29.31339 23.17545 29.33893 23.20618 29.36446 23.23691 29.39 23.26764 29.41551 23.29837 29.44106 23.32912 29.46658 23.35983 29.49213 23.39058 29.51764 23.42131 29.54318 23.45206 29.56871 23.48277 29.59425 23.51352 29.61977 23.54425 29.64531 23.57498 29.67084 23.60571 29.69638 23.63646 29.7219 23.66719 29.74744 23.69792 29.77296 23.72865 29.7985 23.7594 29.82402 23.79013 29.84956 23.82085 29.87509 23.8516 29.90062 23.88232 29.92615 23.91307 29.95169 23.94379 29.97722 23.97453 30.00275 24.00526 30.02827 24.036 30.05382 24.06673 30.07935 24.09747 30.10487 24.1282 30.1304 24.15894 30.15594 24.18967 30.18147 24.22041 30.207 24.25114 30.23253 24.28188 30.25807 24.3126 30.2836 24.34335 30.30913 24.37408 30.33466 24.4048 30.3602"/>
<path transform="matrix(1.00003,0,0,-1.00006,2.0964967,163.19083)" d="M12.14182 20.17302" fill="#ffffff"/>
<path transform="matrix(1.00003,0,0,-1.00006,2.0964967,163.19083)" stroke-width=".99628" stroke-linecap="butt" stroke-miterlimit="10" stroke-linejoin="miter" fill="none" stroke="#1414cc" d="M12.14182 20.17302"/>
<path transform="matrix(1.00003,0,0,-1.00006,2.0964967,163.19083)" stroke-width="1.49442" stroke-linecap="butt" stroke-miterlimit="10" stroke-linejoin="miter" fill="none" stroke="#1414cc" d="M24.16222 30.05779 24.22368 30.15991 24.28514 30.26204 24.34662 30.36418 24.40808 30.46632 24.46956 30.5684 24.53102 30.67055 24.5925 30.77269 24.65395 30.87482 24.71542 30.97694 24.77689 31.07906 24.83836 31.1812 24.89983 31.28331 24.9613 31.38545 25.02277 31.4876 25.08424 31.58969 25.1457 31.69182 25.20717 31.79396 25.26865 31.89609 25.33011 31.99823 25.39159 32.10033 25.45305 32.20245 25.51453 32.3046 25.57599 32.40672 25.63747 32.50887 25.69893 32.61096 25.76039 32.7131 25.82185 32.81523 25.88333 32.91736 25.9448 33.0195 26.00627 33.1216 26.06773 33.22374 26.1292 33.32587 26.19067 33.42801 26.25214 33.53014 26.31361 33.63223 26.37508 33.73438 26.43655 33.8365 26.49802 33.93863 26.5595 34.04077 26.62096 34.14288 26.68243 34.245 26.7439 34.34712 26.80537 34.44926 26.86682 34.55139 26.9283 34.6535 26.98976 34.75563 27.05122 34.85776 27.1127 34.95988 27.17416 35.06203 27.23564 35.16414 27.2971 35.26627 27.35858 35.3684 27.42004 35.47054 27.48152 35.57266 27.54298 35.67476 27.60446 35.7769 27.66592 35.87904 27.7274 35.98117 27.78886 36.0833 27.85034 36.18541 27.9118 36.28754 27.97327 36.38968 28.03473 36.4918 28.09619 36.59393 28.15767 36.69604 28.21913 36.79817 28.28061 36.90031 28.34207 37.00244 28.40355 37.10458 28.46501 37.20668 28.52649 37.3088 28.58795 37.41095 28.64943 37.51309 28.71089 37.6152 28.77237 37.71732 28.83383 37.81946 28.8953 37.92159 28.95677 38.02371 29.01823 38.12585 29.07971 38.22795 29.14116 38.33008 29.20264 38.43222 29.2641 38.53436 29.32558 38.63649 29.38704 38.73859 29.44852 38.84073 29.50998 38.94286 29.57146 39.04498 29.63292 39.14713 29.6944 39.24924 29.75586 39.35135 29.81734 39.45349 29.8788 39.55563 29.94026 39.65776 30.00174 39.75986 30.0632 39.862 30.12468 39.96413 30.18614 40.06627 30.2476 40.1684 30.30907 40.27051 30.37054 40.37263 30.432 40.47476 30.49348 40.5769 30.55495 40.67903 30.61642 40.78114 30.67789 40.88327 30.73936 40.9854 30.80083 41.08754 30.86229 41.18968 30.92377 41.29178 30.98523 41.3939 31.0467 41.49605 31.10817 41.59818 31.16965 41.7003 31.23111 41.80241 31.29259 41.90456 31.35405 42.00668 31.41551 42.10881 31.47697 42.21094 31.53845 42.31305 31.59991 42.41518 31.66139 42.51732 31.72285 42.61943 31.78432 42.72156 31.8458 42.82367 31.90726 42.92581 31.96873 43.02794 32.0302 43.13007 32.09167 43.23221 32.15314 43.3343 32.21461 43.43643 32.27608 43.53857 32.33755 43.6407 32.39902 43.74284 32.4605 43.84494 32.52194 43.94708 32.58342 44.04921 32.64488 44.15134 32.70634 44.25348 32.76782 44.35558 32.82928 44.45772 32.89076 44.55984 32.95222 44.66199 33.0137 44.76411 33.07516 44.86621 33.13664 44.96835 33.1981 45.07048 33.25958 45.17262 33.32104 45.27475 33.38252 45.37685 33.44398 45.47899 33.50546 45.58113 33.56693 45.68326 33.62839 45.78539 33.68985 45.8875 33.75131 45.98962 33.81279 46.09175 33.87425 46.1939 33.93573 46.29602 33.9972 46.39812 34.05867 46.50026 34.12013 46.6024 34.18161 46.70453 34.24307 46.80666 34.30455 46.90877 34.36601 47.0109 34.42749 47.11302 34.48895 47.21516 34.55043 47.3173 34.6119 47.4194 34.67336 47.52153 34.73483 47.62367 34.79628 47.7258 34.85776 47.82793 34.91922 47.93004 34.9807 48.03217 35.04216 48.13431 35.10364 48.23643 35.1651 48.33858 35.22658 48.44067 35.28804 48.5428 35.34952 48.64494 35.41098 48.74707 35.47246 48.84921 35.53392 48.95131 35.59538 49.05344 35.65686 49.15558 35.71832 49.25772 35.7798 49.35985 35.84126 49.46194 35.90273 49.56409 35.96419 49.66621 36.02567 49.76834 36.08713 49.87048 36.1486 49.9726 36.21007 50.07472 36.27155 50.17685 36.33301 50.27899 36.39449 50.38112 36.45595 50.48322 36.51741 50.58536 36.57889 50.68748 36.64035 50.78963 36.70183 50.89175 36.76329 50.99385 36.82477 51.09598 36.88623 51.1981 36.94771 51.30025 37.00917 51.40237 37.07063 51.50449 37.1321 51.60661 37.19357 51.70874 37.25504 51.81088 37.31651 51.91301 37.37798 52.01512 37.43944 52.11725 37.50092 52.21939 37.56238 52.32152 37.62386 52.42365 37.68532 52.52576 37.7468 52.62788 37.80826 52.73003 37.86974 52.83215 37.9312 52.93428 37.99268 53.03639 38.05414 53.13852 38.11562 53.24066 38.17706 53.34279 38.23854 53.44493 38.3 53.54703 38.36147 53.64915 38.42294 53.7513 38.4844 53.85342 38.54588 53.95557 38.60735 54.05766 38.66882 54.15979 38.73029 54.26193 38.79176 54.36406 38.85323 54.4662 38.9147 54.5683 38.97617 54.67044 39.03764 54.77257 39.0991 54.8747 39.16058 54.97684 39.22205 55.07893 39.28351 55.18108 39.34497 55.2832 39.40643 55.38533 39.46791 55.48747 39.52937 55.58957 39.59085 55.69171 39.65231 55.79384 39.71379 55.89598 39.77525 55.99811 39.83673 56.1002 39.8982 56.20235 39.95967 56.30447 40.02113 56.40662 40.08261 56.50874 40.14407 56.61084 40.20555 56.71298 40.26701 56.81511 40.32848 56.91725 40.38995 57.01938 40.4514 57.12149 40.51288 57.22362 40.57434 57.32574 40.63582 57.42789 40.69728 57.53001 40.75876 57.63213 40.82022 57.73425 40.8817 57.8364 40.94316 57.93852 41.00464 58.04065 41.0661 58.14276 41.12758 58.24489 41.18904 58.34703 41.2505 58.44916 41.31198 58.55128 41.37344 58.6534 41.43492 58.75552 41.49638 58.85767 41.55785 58.9598 41.61931 59.06194 41.68079 59.16403 41.74225 59.26616 41.80373 59.36829 41.86519 59.47041 41.92667 59.57256 41.98813 59.67465 42.0496 59.77678 42.11107 59.87892 42.17253 59.98105 42.23401 60.08319 42.29547 60.18529 42.35695 60.28743 42.41841 60.38956 42.47989 60.49168 42.54135 60.59383 42.60283 60.69592 42.66429 60.79807 42.72575 60.90019 42.78722 61.00233 42.8487 61.10446 42.91016 61.20656 42.97163 61.3087 43.0331 61.41083 43.09456 61.51297 43.15604 61.6151 43.2175 61.7172 43.27898 61.81934 43.34044 61.92146 43.40192 62.0236 43.46338 62.12573 43.52486 62.22784 43.58632 62.32997 43.6478 62.4321 43.70926 62.53424 43.77074 62.63637 43.83218 62.73848 43.89366 62.8406 43.95512 62.94273 44.0166 63.04488 44.07806 63.147 44.13953 63.24911 44.201 63.35124 44.26247 63.45338 44.32394 63.55551 44.3854 63.65764 44.44688 63.75975 44.50835 63.86188 44.56982 63.96402 44.63129 64.06615 44.69276 64.16827 44.75423 64.27039 44.8157 64.37251 44.87717 64.47466 44.93863 64.57678 45.00009 64.67892 45.06155 64.78102 45.12303 64.88315 45.1845 64.98529 45.24597 65.08742 45.30743 65.18956 45.36891 65.29166 45.43037 65.39378 45.49185 65.49593 45.55331 65.59805 45.61479 65.7002 45.67625 65.80229 45.73773 65.90443 45.7992 66.00656 45.86067 66.10869 45.92213 66.21083 45.9836 66.31293 46.04507 66.41507 46.10652 66.5172 46.168 66.61934 46.22946 66.72147 46.29094 66.82356 46.3524 66.9257 46.41388 67.02783 46.47534 67.12997 46.53682 67.2321 46.59828 67.3342 46.65976 67.43634 46.72122 67.53847 46.7827 67.64061 46.84416 67.74274 46.90562 67.84483 46.9671 67.94696 47.02856 68.04909 47.09004 68.15123 47.1515 68.25336 47.21297 68.35547 47.27443 68.4576 47.3359 68.55972 47.39737 68.66187 47.45885 68.76399 47.52031 68.8661 47.58179 68.96823 47.64325 69.07037 47.70473 69.1725 47.76619 69.27463 47.82765 69.37674 47.88913 69.47887 47.95059 69.58101 48.01207 69.68314 48.07353 69.78528 48.13501 69.88737 48.19647 69.9895 48.25795 70.09164 48.31941 70.19377 48.38087 70.29591 48.44234 70.39801 48.50381 70.50014 48.56528 70.60228 48.62675 70.7044 48.68822 70.80655"/>
<path transform="matrix(1.00003,0,0,-1.00006,2.0964967,163.19083)" stroke-width="1.49442" stroke-linecap="butt" stroke-miterlimit="10" stroke-linejoin="miter" fill="none" stroke="#1414cc" d="M48.44586 70.50471 48.47688 70.5305 48.50792 70.55627 48.53896 70.58206 48.56999 70.60785 48.60103 70.63362 48.63206 70.65941 48.6631 70.6852 48.69414 70.71098 48.72517 70.73676 48.75621 70.76254 48.78725 70.78833 48.81828 70.8141 48.84932 70.83989 48.88036 70.86568 48.91139 70.89145 48.94243 70.91724 48.97346 70.94302 49.0045 70.9688 49.03554 70.99458 49.06657 71.02037 49.09761 71.04614 49.12865 71.07193 49.15968 71.09772 49.19072 71.1235 49.22176 71.14928 49.25279 71.17506 49.28383 71.20085 49.31487 71.22662 49.3459 71.25241 49.37694 71.2782 49.40797 71.30397 49.43901 71.32976 49.47005 71.35555 49.50108 71.38132 49.5321 71.4071 49.56316 71.43289 49.5942 71.45866 49.62523 71.48445 49.65627 71.51024 49.68729 71.53601 49.71834 71.5618 49.74937 71.58759 49.78041 71.61337 49.81145 71.63914 49.84247 71.66493 49.87352 71.69072 49.90456 71.71649 49.9356 71.74228 49.96663 71.76807 49.99765 71.79384 50.0287 71.81963 50.05974 71.84541 50.09077 71.87119 50.12181 71.89697 50.15283 71.92276 50.18388 71.94853 50.21492 71.97432 50.24596 72.0001 50.277 72.0259 50.30801 72.05167 50.33907 72.07745 50.3701 72.10324 50.40114 72.12901 50.43217 72.1548 50.4632 72.18059 50.49425 72.20636 50.52528 72.23215 50.55632 72.25793 50.58736 72.2837 50.61838 72.3095 50.64943 72.33528 50.68047 72.36105 50.7115 72.38684 50.74254 72.41263 50.77356 72.4384 50.80461 72.46419 50.83565 72.48997 50.86668 72.51576 50.89772 72.54153 50.92874 72.56732 50.9598 72.59311 50.99083 72.61888 51.02187 72.64467 51.0529 72.67046 51.08392 72.69623 51.11497 72.72202 51.14601 72.7478 51.17705 72.77357 51.20808 72.79936 51.2391 72.82515 51.27016 72.85092 51.3012 72.87671 51.33223 72.9025 51.36327 72.92827 51.39429 72.95406 51.42534 72.97984 51.45638 73.00563 51.48741 73.0314 51.51845 73.05719 51.54947 73.08298 51.58052 73.10875 51.61156 73.13454 51.6426 73.16032 51.67363 73.1861 51.70465 73.21188 51.7357 73.23767 51.76674 73.26344 51.79778 73.28923 51.82881 73.31502 51.85983 73.34079 51.89088 73.36658 51.92192 73.39236 51.95296 73.41815 51.984 73.44392 52.01501 73.46971 52.04607 73.4955 52.0771 73.52127 52.10814 73.54706 52.13918 73.57285 52.1702 73.59862 52.20125 73.6244 52.23228 73.65019 52.26332 73.67596 52.29436 73.70175 52.32538 73.72754 52.35643 73.75331 52.38747 73.7791 52.4185 73.80489 52.44954 73.83066 52.48056 73.85645 52.51161 73.88223 52.54265 73.90802 52.57368 73.93379 52.60472 73.95958 52.63574 73.98537 52.6668 74.01114 52.69783 74.03693 52.72887 74.06271 52.7599 74.08849 52.79092 74.11427 52.82198 74.14006 52.85301 74.16585 52.88405 74.19164 52.91508 74.21742 52.9461 74.2432 52.97716 74.26898 53.0082 74.29477 53.03923 74.32056 53.07027 74.34633 53.10129 74.37212 53.13234 74.3979 53.16338 74.42368 53.19441 74.44946 53.22545 74.47525 53.25647 74.50102 53.28752 74.52681 53.31856 74.5526 53.3496 74.57837 53.38063 74.60416 53.41165 74.62994 53.4427 74.65572 53.47374 74.6815 53.50478 74.70729 53.53581 74.73306 53.56683 74.75885 53.59789 74.78464 53.62892 74.81042 53.65996 74.8362 53.691 74.86198 53.72202 74.88777 53.75307 74.91354 53.7841 74.93933 53.81514 74.96512 53.84618 74.99089 53.8772 75.01668 53.90825 75.04247 53.93929 75.06824 53.97032 75.09402 54.00136 75.11981 54.03238 75.14558 54.06343 75.17137 54.09445 75.19716 54.1255 75.22295 54.15654 75.24872 54.18756 75.2745 54.21861 75.3003 54.24963 75.32607 54.28069 75.35185 54.31172 75.37764 54.34274 75.40341 54.3738 75.4292 54.40482 75.45499 54.43587 75.48076 54.4669 75.50655 54.49792 75.53233 54.52898 75.5581 54.56 75.5839 54.59105 75.60968 54.62209 75.63545 54.6531 75.66124 54.68416 75.68703 54.71518 75.71281 54.74622 75.73859 54.77727 75.76437 54.80829 75.79016 54.83934 75.81593 54.87036 75.84172 54.9014 75.86751 54.93245 75.89328 54.96347 75.91907 54.99452 75.94485 55.02554 75.97063 55.05658 75.99641 55.08763 76.0222 55.11865 76.04797 55.1497 76.07376 55.18073 76.09955 55.21176 76.12534 55.24281 76.15111 55.27383 76.1769 55.30489 76.20268 55.3359 76.22845 55.36694 76.25424 55.398 76.28003 55.42902 76.3058 55.46007 76.33159 55.49109 76.35738 55.52213 76.38315 55.55318 76.40894 55.5842 76.43472 55.61525 76.4605 55.64627 76.48628 55.6773 76.51207 55.70836 76.53784 55.73938 76.56363 55.77043 76.58942 55.80145 76.6152 55.83249 76.64098 55.86354 76.66676 55.89456 76.69255 55.92561 76.71832 55.95663 76.74411 55.98767 76.7699 56.01872 76.79567 56.04974 76.82146 56.0808 76.84724 56.11182 76.87302 56.14285 76.8988 56.1739 76.92459 56.20493 76.95036 56.23598 76.97615 56.267 77.00194 56.29803 77.02771 56.32909 77.0535 56.3601 77.07928 56.39116 77.10507 56.42218 77.13084 56.45322 77.15663 56.48427 77.18242 56.51529 77.20819 56.54634 77.23398 56.57736 77.25977 56.6084 77.28554 56.63945 77.31133 56.67047 77.33711 56.70152 77.36288 56.73254 77.38867 56.76358 77.41446 56.79463 77.44023 56.82565 77.46602 56.8567 77.4918 56.88773 77.5176 56.91876 77.54337 56.94981 77.56915 56.98083 77.59494 57.01189 77.62071 57.04291 77.6465 57.07394 77.67229 57.105 77.69806 57.13602 77.72385 57.16707 77.74963 57.19809 77.7754 57.22913 77.80121 57.26018 77.827 57.2912 77.85277 57.32225 77.87856 57.35327 77.90434 57.38431 77.93011 57.41536 77.9559 57.44638 77.98169 57.47743 78.00748 57.50845 78.03325 57.53949 78.05904 57.57054 78.08482 57.60156 78.1106 57.63261 78.13638 57.66364 78.16217 57.69467 78.18794 57.72572 78.21373 57.75674 78.23952 57.7878 78.26529 57.81882 78.29108 57.84985 78.31686 57.8809 78.34264 57.91193 78.36842 57.94298 78.39421 57.974 78.42 58.00504 78.44577 58.03609 78.47156 58.06711 78.49734 58.09816 78.52312 58.12918 78.5489 58.16022 78.57469 58.19127 78.60046 58.22229 78.62625 58.25334 78.65204 58.28436 78.67781 58.3154 78.7036 58.34645 78.72939 58.37747 78.75516 58.40852 78.78094 58.43954 78.80673 58.47058 78.8325 58.50163 78.85829 58.53265 78.88408 58.5637 78.90987 58.59473 78.93564 58.62576 78.96143 58.65681 78.98721 58.68784 79.01299 58.71889 79.03877 58.74991 79.06456 58.78094 79.09033 58.812 79.11612 58.84302 79.1419 58.87407 79.16768 58.90509 79.19347 58.93613 79.21925 58.96718 79.24503 58.9982 79.27081 59.02925 79.2966 59.06027 79.32239 59.09131 79.34816 59.12236 79.37395 59.15338 79.39973 59.18443 79.4255 59.21545 79.4513 59.24649 79.47708 59.27754 79.50285 59.30856 79.52864 59.33961 79.55443 59.37064 79.5802 59.40167 79.60599 59.43272 79.63177 59.46375 79.65755 59.4948 79.68333 59.52582 79.70912 59.55685 79.7349 59.58789 79.76068 59.61893 79.78647 59.64998 79.81226 59.681 79.83803 59.71204 79.86382 59.74307 79.8896 59.77411 79.91537 59.80516 79.94116 59.83618 79.96695 59.86722 79.99272 59.89825 80.01851 59.92929 80.0443 59.96034 80.07007 59.99136 80.09586 60.0224 80.12164 60.05344 80.14742 60.08447 80.1732 60.11551 80.19899 60.14655 80.22478 60.17758 80.25055 60.20862 80.27634 60.23965 80.30212 60.27069 80.3279 60.30173 80.35368 60.33276 80.37947 60.3638 80.40524 60.39484 80.43103 60.42587 80.45682 60.45691 80.48259 60.48795 80.50838 60.51898 80.53416 60.55002 80.55994 60.58105 80.58572 60.61209 80.61151 60.64313 80.63728 60.67416 80.66307 60.7052 80.68886 60.73624 80.71465 60.76727 80.74042 60.79831 80.7662 60.82935 80.79199"/>
<path transform="matrix(1.00003,0,0,-1.00006,2.0964967,163.19083)" stroke-width="1.49442" stroke-linecap="butt" stroke-miterlimit="10" stroke-linejoin="miter" fill="none" stroke="#1414cc" d="M60.58768 80.74252 60.64914 80.717 60.7106 80.69145 60.77208 80.66591 60.83354 80.6404 60.89502 80.61487 60.95648 80.58932 61.01794 80.56378 61.0794 80.53827 61.14088 80.51273 61.20235 80.4872 61.26382 80.46167 61.32529 80.43614 61.38676 80.4106 61.44823 80.38507 61.5097 80.35954 61.57117 80.33401 61.63263 80.30847 61.6941 80.28294 61.75557 80.25742 61.81705 80.23189 61.87851 80.20636 61.93999 80.18082 62.00145 80.15529 62.06293 80.12976 62.12439 80.10423 62.18585 80.07869 62.24731 80.05316 62.30879 80.02763 62.37025 80.00209 62.43173 79.97656 62.4932 79.95103 62.55466 79.9255 62.61613 79.89996 62.6776 79.87444 62.73907 79.84892 62.80054 79.82338 62.86201 79.79784 62.92348 79.77231 62.98495 79.74678 63.04642 79.72125 63.1079 79.69571 63.16936 79.67018 63.23083 79.64465 63.29228 79.61913 63.35376 79.59358 63.41522 79.56805 63.47668 79.54253 63.53816 79.517 63.59962 79.49146 63.6611 79.46593 63.72256 79.4404 63.78404 79.41487 63.8455 79.38933 63.90698 79.3638 63.96844 79.33827 64.02992 79.31274 64.09138 79.2872 64.15286 79.26167 64.21432 79.23615 64.2758 79.21062 64.33727 79.18507 64.39871 79.15955 64.46019 79.13402 64.52165 79.10849 64.58313 79.08295 64.64459 79.05742 64.70607 79.03189 64.76753 79.00636 64.82901 78.98082 64.89047 78.95529 64.95195 78.92976 65.01341 78.90424 65.07489 78.8787 65.13635 78.85315 65.19783 78.82764 65.2593 78.80211 65.32076 78.77657 65.38223 78.75104 65.4437 78.72551 65.50517 78.69998 65.56662 78.67444 65.6281 78.64891 65.68956 78.62338 65.75104 78.59784 65.8125 78.57231 65.87398 78.54678 65.93544 78.52126 65.99692 78.49571 66.05838 78.47018 66.11986 78.44466 66.18132 78.41913 66.2428 78.3936 66.30426 78.36806 66.36572 78.34251 66.4272 78.317 66.48866 78.29147 66.55014 78.26593 66.6116 78.24039 66.67307 78.21487 66.73453 78.18935 66.796 78.1638 66.85747 78.13829 66.91895 78.11275 66.98041 78.0872 67.04189 78.06168 67.10335 78.03616 67.16483 78.01062 67.22629 77.98508 67.28775 77.95955 67.34923 77.93404 67.41069 77.9085 67.47217 77.88295 67.53363 77.85742 67.59511 77.8319 67.65657 77.80637 67.71805 77.78084 67.7795 77.7553 67.84097 77.72977 67.90244 77.70424 67.96391 77.67871 68.02538 77.65317 68.08685 77.62764 68.14832 77.60211 68.20978 77.57657 68.27126 77.55104 68.33272 77.52553 68.3942 77.49998 68.45566 77.47444 68.51714 77.44891 68.5786 77.4234 68.64008 77.39786 68.70154 77.37231 68.76302 77.34679 68.82448 77.32126 68.88596 77.29573 68.9474 77.27019 69.00888 77.24466 69.07034 77.21913 69.1318 77.1936 69.19328 77.16808 69.25475 77.14253 69.31622 77.117 69.37769 77.09148 69.43916 77.06593 69.50063 77.0404 69.5621 77.01488 69.62357 76.98935 69.68504 76.9638 69.7465 76.93828 69.80798 76.91277 69.86945 76.88722 69.93092 76.86168 69.99239 76.83615 70.05383 76.81062 70.11531 76.7851 70.17677 76.75955 70.23825 76.73402 70.29971 76.7085 70.36119 76.68297 70.42265 76.65742 70.48413 76.6319 70.5456 76.60637 70.60707 76.58084 70.66853 76.5553 70.73001 76.52977 70.79147 76.50424 70.85295 76.47871 70.91441 76.45317 70.97589 76.42764 71.03735 76.40211 71.09882 76.37659 71.1603 76.35104 71.22174 76.32552 71.28322 76.29999 71.34468 76.27446 71.40616 76.24892 71.46762 76.22339 71.5291 76.19786 71.59056 76.17232 71.65204 76.14679 71.7135 76.12126 71.77498 76.09573 71.83644 76.0702 71.89792 76.04466 71.95938 76.01915 72.02084 75.9936 72.08232 75.96808 72.14378 75.94254 72.20526 75.917 72.26672 75.89148 72.32819 75.86595 72.38965 75.84041 72.45113 75.8149 72.51259 75.78935 72.57407 75.76382 72.63553 75.73828 72.697 75.71277 72.75847 75.68723 72.81995 75.66168 72.88141 75.63615 72.94287 75.61064 73.00435 75.5851 73.06581 75.55956 73.12729 75.53403 73.18875 75.50851 73.25023 75.48297 73.31169 75.45744 73.37317 75.4319 73.43462 75.40637 73.4961 75.38084 73.55756 75.35532 73.61903 75.32977 73.6805 75.30424 73.74197 75.27872 73.80344 75.25319 73.8649 75.22765 73.92638 75.20212 73.98784 75.17659 74.04932 75.15105 74.11078 75.12552 74.17226 75.1 74.23372 75.07446 74.2952 75.04892 74.35666 75.02339 74.41814 74.99788 74.4796 74.97234 74.54108 74.9468 74.60252 74.92126 74.664 74.89574 74.72546 74.87021 74.78693 74.84468 74.8484 74.81914 74.90987 74.79361 74.97134 74.76808 75.0328 74.74255 75.09428 74.71701 75.15575 74.69148 75.21722 74.66595 75.27869 74.64041 75.34016 74.61488 75.40163 74.58936 75.4631 74.56383 75.52457 74.53828 75.58604 74.51276 75.6475 74.48724 75.70897 74.4617 75.77043 74.43616 75.8319 74.41063 75.89337 74.3851 75.95483 74.35957 76.01631 74.33403 76.07777 74.3085 76.13925 74.28297 76.20071 74.25745 76.26219 74.23192 76.32365 74.20638 76.38513 74.18085 76.4466 74.15532 76.50807 74.12978 76.56953 74.10425 76.63101 74.07872 76.69247 74.05319 76.75394 74.02765 76.8154 74.00214 76.87686 73.9766 76.93834 73.95107 76.9998 73.92552 77.06128 73.90001 77.12274 73.87447 77.18422 73.84894 77.24568 73.8234 77.30716 73.79788 77.36862 73.77234 77.4301 73.74681 77.49156 73.72127 77.55304 73.69576 77.6145 73.67021 77.67596 73.64468 77.73744 73.61914 77.7989 73.59363 77.86038 73.56808 77.92184 73.54256 77.9833 73.51701 78.04477 73.49149 78.10625 73.46596 78.16771 73.44043 78.22919 73.41489 78.29065 73.38937 78.35213 73.36383 78.41359 73.3383 78.47507 73.31276 78.53653 73.28725 78.59799 73.2617 78.65947 73.23616 78.72093 73.21063 78.78241 73.18512 78.84387 73.15958 78.90535 73.13405 78.96681 73.1085 79.02829 73.083 79.08974 73.05745 79.15121 73.03192 79.21268 73.00638 79.27415 72.98085 79.33562 72.95532 79.3971 72.9298 79.45856 72.90425 79.52002 72.87872 79.5815 72.8532 79.64296 72.82767 79.70444 72.80212 79.7659 72.77661 79.82738 72.75107 79.88884 72.72552 79.95032 72.7 80.01178 72.67448 80.07326 72.64894 80.13472 72.6234 80.1962 72.59787 80.25764 72.57236 80.31912 72.54681 80.38058 72.52129 80.44206 72.49574 80.50352 72.47021 80.56499 72.44469 80.62646 72.41916 80.68793 72.39362 80.7494 72.36809 80.81087 72.34256 80.87234 72.31703 80.9338 72.29149 80.99529 72.26596 81.05675 72.24043 81.11823 72.21489 81.17969 72.18936 81.24117 72.16385 81.30263 72.1383 81.36409 72.11276 81.42555 72.08723 81.48701 72.06172 81.5485 72.03618 81.60995 72.01064 81.67143 71.9851 81.7329 71.95958 81.79437 71.93405 81.85583 71.90852 81.91731 71.883 81.97878 71.85745 82.04025 71.83192 82.10172 71.8064 82.1632 71.78087 82.22466 71.75533 82.28613 71.7298 82.3476 71.70425 82.40906 71.67874 82.47052 71.6532 82.53198 71.62767 82.59346 71.60213 82.65492 71.57661 82.7164 71.55109 82.77786 71.52554 82.83934 71.5 82.9008 71.47449 82.96228 71.44894 83.02374 71.42342 83.08522 71.39787 83.14668 71.37236 83.20816 71.34682 83.26962 71.32129 83.33109 71.29575 83.39256 71.27023 83.45403 71.24469 83.5155 71.21916 83.57697 71.19362 83.63843 71.1681 83.69989 71.14256 83.76137 71.11703 83.82283 71.09149 83.88431 71.06598 83.94577 71.04044 84.00725 71.01491 84.06871 70.98936 84.13019 70.96385 84.19165 70.93831 84.25311 70.91278 84.31459 70.88724 84.37605 70.86172 84.43753 70.83618 84.499 70.81064 84.56047 70.78511 84.62193 70.7596 84.68341 70.73405 84.74486 70.70853 84.80634 70.68298 84.8678 70.65747 84.92928 70.63193 84.99074 70.6064 85.05222 70.58086 85.11368 70.55534"/>
<path transform="matrix(1.00003,0,0,-1.00006,2.0964967,163.19083)" stroke-width="1.49442" stroke-linecap="butt" stroke-miterlimit="10" stroke-linejoin="miter" fill="none" stroke="#1414cc" d="M84.87132 71.0111 84.90204 70.90804 84.93277 70.80528 84.96352 70.70279 84.99423 70.60052 85.02498 70.49855 85.05571 70.3968 85.08646 70.29533 85.11717 70.19414 85.14792 70.09319 85.17865 69.99251 85.2094 69.89204 85.24011 69.79189 85.27086 69.69196 85.30159 69.59232 85.33234 69.4929 85.36305 69.39375 85.3938 69.29488 85.42453 69.19626 85.45526 69.0979 85.486 68.99977 85.51672 68.90193 85.54747 68.80434 85.5782 68.707 85.60893 68.60992 85.63966 68.51312 85.67041 68.41655 85.70114 68.32025 85.73187 68.22423 85.7626 68.12843 85.79335 68.03291 85.82408 67.93765 85.85481 67.84264 85.88554 67.7479 85.91629 67.6534 85.94702 67.55917 85.97775 67.4652 86.00848 67.37149 86.03922 67.27803 86.06995 67.18484 86.10068 67.0919 86.13142 66.99924 86.16216 66.9068 86.1929 66.81465 86.22362 66.72273 86.25436 66.6311 86.2851 66.5397 86.31583 66.44858 86.34656 66.35771 86.3773 66.2671 86.40804 66.17674 86.43878 66.08664 86.4695 65.99681 86.50024 65.90724 86.53098 65.81792 86.5617 65.72887 86.59244 65.64005 86.62317 65.55151 86.65392 65.46324 86.68463 65.3752 86.71538 65.28745 86.74611 65.19992 86.77686 65.11269 86.80757 65.02568 86.83832 64.93895 86.86905 64.85248 86.8998 64.76625 86.93051 64.68031 86.96126 64.59462 86.99199 64.50916 87.02274 64.42398 87.05345 64.33905 87.0842 64.2544 87.11493 64.17 87.14566 64.08583 87.17639 64.00195 87.20712 63.91832 87.23787 63.83495 87.2686 63.75183 87.29933 63.66898 87.33006 63.58636 87.36081 63.50404 87.39154 63.42197 87.42227 63.34015 87.453 63.25858 87.48375 63.17728 87.51448 63.09622 87.54521 63.01544 87.57594 62.9349 87.60669 62.85464 87.63742 62.77463 87.66815 62.69487 87.69888 62.61537 87.72961 62.53615 87.76036 62.45717 87.79108 62.37843 87.82182 62.29997 87.85255 62.22179 87.8833 62.14384 87.91402 62.06616 87.94476 61.98874 87.9755 61.91156 88.00624 61.83464 88.03696 61.758 88.0677 61.6816 88.09843 61.60547 88.12917 61.52959 88.1599 61.45398 88.19064 61.37862 88.22137 61.30353 88.25212 61.22868 88.28284 61.15408 88.31357 61.07976 88.34431 61.00569 88.37503 60.9319 88.40578 60.85835 88.43651 60.78506 88.46725 60.71202 88.49797 60.63925 88.52872 60.56674 88.55945 60.49448 88.5902 60.42247 88.62091 60.35074 88.65166 60.27925 88.68239 60.20804 88.71313 60.13707 88.74385 60.06638 88.7746 59.99593 88.80533 59.92574 88.83606 59.8558 88.86679 59.78613 88.89752 59.71672 88.92827 59.64757 88.959 59.57867 88.98973 59.51004 89.02046 59.44167 89.05121 59.37354 89.08194 59.30568 89.11267 59.23807 89.1434 59.17073 89.17415 59.10364 89.20488 59.0368 89.23561 58.97025 89.26634 58.90393 89.29709 58.83788 89.32782 58.7721 89.35855 58.70656 89.38928 58.64128 89.42001 58.57625 89.45076 58.51149 89.48148 58.44699 89.51222 58.38275 89.54295 58.31877 89.5737 58.25504 89.60442 58.19157 89.63516 58.12837 89.6659 58.06543 89.69664 58.00273 89.72736 57.94029 89.7581 57.87811 89.78883 57.81621 89.81958 57.75455 89.8503 57.69315 89.88104 57.632 89.91177 57.57112 89.94252 57.5105 89.97324 57.45013 90.00397 57.39003 90.03471 57.33018 90.06543 57.2706 90.09618 57.21127 90.1269 57.15219 90.15765 57.09338 90.18839 57.03482 90.21912 56.97652 90.24985 56.91849 90.2806 56.86072 90.31131 56.80319 90.34206 56.74593 90.37279 56.68893 90.40353 56.63219 90.43427 56.57568 90.465 56.51945 90.49573 56.46349 90.52646 56.40779 90.55719 56.35233 90.58792 56.29713 90.61867 56.24219 90.6494 56.18753 90.68013 56.1331 90.71086 56.07893 90.74161 56.02502 90.77234 55.97139 90.80307 55.91801 90.8338 55.86488 90.86455 55.81201 90.89528 55.7594 90.92601 55.70705 90.95674 55.65497 90.98749 55.60313 91.01822 55.55154 91.04895 55.50024 91.07968 55.44917 91.11041 55.39838 91.14116 55.34784 91.17188 55.29755 91.20262 55.24753 91.23335 55.19777 91.2641 55.14825 91.29482 55.09901 91.32556 55.05002 91.3563 55.00128 91.38704 54.95282 91.41776 54.9046 91.4485 54.85663 91.47923 54.80894 91.50998 54.7615 91.5407 54.71432 91.57144 54.6674 91.60217 54.62074 91.63292 54.57434 91.66364 54.5282 91.69437 54.4823 91.72511 54.43668 91.75584 54.3913 91.78658 54.34618 91.8173 54.30133 91.84805 54.25673 91.87877 54.2124 91.90952 54.16832 91.94025 54.12451 91.971 54.08093 92.00172 54.03764 92.03246 53.9946 92.06319 53.95181 92.09393 53.90927 92.12465 53.86702 92.1554 53.825 92.18613 53.78325 92.21686 53.74178 92.24759 53.70053 92.27832 53.65956 92.30907 53.61884 92.3398 53.57838 92.37053 53.53816 92.40126 53.49823 92.432 53.45856 92.46274 53.41913 92.49347 53.37996 92.5242 53.34105 92.55495 53.3024 92.58568 53.26402 92.61641 53.22588 92.64714 53.188 92.67789 53.15038 92.70862 53.11302 92.73935 53.07594 92.77008 53.0391 92.80081 53.00252 92.83156 52.96619 92.86227 52.93011 92.89302 52.89432 92.92375 52.85878 92.9545 52.82347 92.98521 52.78845 93.01596 52.75368 93.04669 52.71916 93.07744 52.6849 93.10815 52.65092 93.1389 52.61719 93.16963 52.5837 93.20038 52.55048 93.2311 52.51752 93.26184 52.4848 93.29257 52.45236 93.32332 52.42018 93.35403 52.38826 93.38477 52.35658 93.41551 52.32516 93.44624 52.29402 93.47697 52.26314 93.5077 52.23248 93.53845 52.20212 93.56918 52.172 93.59991 52.14214 93.63065 52.11253 93.66139 52.08319 93.69211 52.05411 93.72285 52.02528 93.75359 51.99672 93.78433 51.9684 93.81506 51.94035 93.8458 51.91255 93.87653 51.88503 93.90726 51.85776 93.93799 51.83075 93.96872 51.80399 93.99947 51.77748 94.0302 51.75124 94.06093 51.72525 94.09166 51.69954 94.1224 51.67407 94.15314 51.64886 94.18387 51.62392 94.2146 51.59923 94.24535 51.5748 94.27608 51.55061 94.30681 51.5267 94.33754 51.50305 94.36829 51.47966 94.39902 51.45651 94.42975 51.43364 94.46048 51.41101 94.49121 51.38866 94.52196 51.36655 94.55267 51.34471 94.58342 51.32312 94.61415 51.30179 94.6449 51.28072 94.67561 51.2599 94.70636 51.23935 94.73709 51.21906 94.76784 51.19902 94.79855 51.17924 94.8293 51.15973 94.86003 51.14047 94.89078 51.12146 94.9215 51.10272 94.95224 51.08423 94.98297 51.06601 95.01372 51.04803 95.04443 51.03033 95.07516 51.01288 95.10591 50.99568 95.13664 50.97874 95.16737 50.96207 95.1981 50.94565 95.22885 50.92949 95.25958 50.91359 95.29031 50.89795 95.32104 50.88257 95.35179 50.86745 95.38252 50.85258 95.41325 50.83798 95.44398 50.82362 95.47473 50.80954 95.50546 50.7957 95.5362 50.78212 95.56693 50.76881 95.59766 50.75577 95.6284 50.74297 95.65912 50.73042 95.68987 50.71814 95.7206 50.70612 95.75134 50.69435 95.78206 50.68285 95.8128 50.6716 95.84354 50.66061 95.87427 50.64989 95.905 50.6394 95.93575 50.62921 95.96648 50.61925 95.99722 50.60956 96.02794 50.60011 96.05869 50.59093 96.08942 50.58202 96.12015 50.57335 96.15088 50.56496 96.18161 50.55681 96.21236 50.54892 96.24307 50.54129 96.27382 50.53392 96.30455 50.52681 96.3353 50.51997 96.36601 50.51337 96.39676 50.50703 96.42749 50.50095 96.45824 50.49515 96.48895 50.48958 96.5197 50.48427 96.55043 50.47925 96.58118 50.47446 96.6119 50.46992 96.64264 50.46567 96.67337 50.46165 96.70412 50.4579 96.73483 50.45442 96.76556 50.45117 96.79631 50.4482 96.82704 50.4455 96.85777 50.44302 96.8885 50.44083 96.91925 50.43889 96.94998 50.43721 96.98071 50.43578 97.01144 50.43462 97.04219 50.43372 97.07292 50.43307 97.10365 50.43268 97.13438 50.43256"/>
<path transform="matrix(1.00003,0,0,-1.00006,2.0964967,163.19083)" stroke-width="1.49442" stroke-linecap="butt" stroke-miterlimit="10" stroke-linejoin="miter" fill="none" stroke="#1414cc" d="M97.13455 50.43256 97.16528 50.43248 97.19601 50.4323 97.22676 50.43196 97.25749 50.43152 97.28821 50.43092 97.31895 50.43024 97.34969 50.42938 97.38042 50.4284 97.41115 50.4273 97.4419 50.42609 97.47263 50.42473 97.50336 50.42323 97.53409 50.42163 97.56483 50.41988 97.59557 50.41801 97.6263 50.416 97.65703 50.41388 97.68777 50.4116 97.7185 50.40923 97.74924 50.4067 97.77997 50.40405 97.8107 50.40128 97.84145 50.39836 97.87216 50.39532 97.90291 50.39215 97.93364 50.38887 97.96439 50.38544 97.9951 50.38188 98.02585 50.37819 98.05658 50.37437 98.08733 50.37044 98.11804 50.36636 98.14879 50.36217 98.17952 50.35783 98.21027 50.35338 98.24098 50.34879 98.27173 50.34407 98.30246 50.33923 98.3332 50.33424 98.36392 50.32913 98.39465 50.32391 98.4254 50.31854 98.45613 50.31305 98.48686 50.30743 98.5176 50.30168 98.54834 50.29579 98.57907 50.28978 98.6098 50.28363 98.64053 50.27737 98.67128 50.27098 98.70201 50.26445 98.73274 50.2578 98.76347 50.25099 98.79422 50.2441 98.82495 50.23705 98.85568 50.22987 98.88641 50.22256 98.91716 50.21513 98.94789 50.20758 98.9786 50.19989 99.00935 50.19206 99.04008 50.18411 99.07083 50.17604 99.10155 50.16783 99.1323 50.1595 99.16302 50.15103 99.19377 50.14243 99.22449 50.1337 99.25523 50.12485 99.28596 50.11588 99.31671 50.10675 99.34743 50.09752 99.37817 50.08813 99.4089 50.07864 99.43965 50.06902 99.47037 50.05925 99.5011 50.04936 99.53185 50.03934 99.56258 50.0292 99.5933 50.01892 99.62404 50.00851 99.65479 49.99797 99.6855 49.98732 99.71625 49.97653 99.74698 49.9656 99.77773 49.95456 99.80844 49.94337 99.83919 49.93207 99.86992 49.92062 99.90067 49.90906 99.93138 49.89735 99.96213 49.88553 99.99286 49.87358 100.0236 49.8615 100.05432 49.84927 100.08505 49.83693 100.1158 49.82446 100.14653 49.81184 100.17726 49.79912 100.208 49.78625 100.23874 49.77325 100.26947 49.76015 100.3002 49.7469 100.33093 49.73352 100.36168 49.72 100.39241 49.70638 100.42314 49.69261 100.45387 49.67873 100.48462 49.66469 100.51535 49.65053 100.54608 49.63626 100.57681 49.62186 100.60756 49.6073 100.63829 49.59264 100.669 49.57782 100.69975 49.5629 100.73048 49.54785 100.76123 49.53265 100.79195 49.51733 100.8227 49.50189 100.85342 49.48631 100.88417 49.47061 100.91489 49.45477 100.94563 49.43881 100.97636 49.42271 101.00711 49.4065 101.03783 49.39014 101.06857 49.37366 101.0993 49.35706 101.13005 49.34032 101.16077 49.32346 101.19151 49.30646 101.22224 49.28932 101.25298 49.27206 101.2837 49.25468 101.31444 49.23718 101.34518 49.21953 101.37592 49.20175 101.40665 49.18385 101.43738 49.16582 101.46812 49.14766 101.49886 49.12936 101.52959 49.11096 101.56032 49.09239 101.59106 49.07373 101.62178 49.05492 101.65253 49.03598 101.68326 49.01692 101.714 48.99771 101.74474 48.9784 101.77545 48.95894 101.8062 48.93936 101.83693 48.91965 101.86766 48.8998 101.89839 48.87984 101.92914 48.85974 101.95987 48.83951 101.99062 48.81915 102.02133 48.79866 102.05208 48.77805 102.08281 48.7573 102.11354 48.73642 102.14427 48.71542 102.17502 48.69429 102.20575 48.67303 102.23648 48.65163 102.26721 48.6301 102.29796 48.60846 102.32869 48.58669 102.3594 48.56476 102.39015 48.54274 102.42088 48.52055 102.45163 48.49828 102.48235 48.47585 102.51309 48.4533 102.54382 48.4306 102.57457 48.40779 102.60529 48.38484 102.63603 48.36177 102.66676 48.33858 102.69751 48.31525 102.72823 48.29178 102.75897 48.26819 102.7897 48.24448 102.82045 48.22063 102.85117 48.19666 102.88191 48.17253 102.91264 48.1483 102.94337 48.12393 102.9741 48.09944 103.00484 48.07481 103.03558 48.05006 103.06631 48.02519 103.09705 48.00018 103.12778 47.97504 103.15852 47.94977 103.18924 47.92436 103.21999 47.89885 103.25072 47.87318 103.28146 47.84738 103.3122 47.82147 103.34293 47.79543 103.37366 47.76926 103.4044 47.74295 103.43512 47.71652 103.46585 47.68996 103.4966 47.66325 103.52733 47.63644 103.55807 47.60948 103.58879 47.58241 103.61954 47.5552 103.65027 47.52786 103.681 47.5004 103.71173 47.47281 103.74248 47.44508 103.77321 47.41722 103.80394 47.38924 103.83467 47.36111 103.86542 47.33287 103.89615 47.3045 103.92688 47.276 103.95761 47.24738 103.98836 47.21861 104.01909 47.18973 104.0498 47.1607 104.08055 47.13156 104.11128 47.1023 104.14203 47.07288 104.17274 47.04333 104.20349 47.01367 104.23422 46.98389 104.26497 46.95396 104.29568 46.9239 104.32643 46.89374 104.35716 46.86342 104.38791 46.83298 104.41862 46.80241 104.44937 46.77171 104.4801 46.74088 104.51085 46.70993 104.54156 46.67883 104.57231 46.64761 104.60304 46.61627 104.63377 46.5848 104.6645 46.55319 104.69524 46.52147 104.72598 46.48961 104.75671 46.4576 104.78745 46.42549 104.81818 46.39323 104.84892 46.36086 104.87965 46.32835 104.91039 46.29572 104.94112 46.26294 104.97186 46.23006 105.0026 46.19702 105.03333 46.16386 105.06406 46.1306 105.0948 46.09718 105.12553 46.06363 105.15625 46.02995 105.187 45.99615 105.21773 45.96223 105.24847 45.92816 105.27919 45.89398 105.30994 45.85966 105.34067 45.82521 105.37141 45.79063 105.40213 45.75592 105.43288 45.7211 105.46361 45.68613 105.49434 45.65105 105.52507 45.61583 105.55582 45.58046 105.58655 45.54498 105.61728 45.50938 105.64801 45.47363 105.67876 45.43776 105.70949 45.40176 105.7402 45.36565 105.77095 45.32939 105.80168 45.293 105.83243 45.25648 105.86314 45.21985 105.89389 45.18307 105.92462 45.14616 105.95537 45.10913 105.98608 45.07198 106.01683 45.03467 106.04756 44.99725 106.07831 44.9597 106.10902 44.92203 106.13977 44.88422 106.1705 44.84628 106.20125 44.80821 106.23196 44.77002 106.26271 44.73169 106.29344 44.69325 106.32417 44.65466 106.3549 44.61595 106.38564 44.5771 106.41638 44.53813 106.44711 44.49902 106.47784 44.45981 106.50858 44.42044 106.53932 44.38095 106.57005 44.34134 106.60078 44.30159 106.63152 44.2617 106.66226 44.22171 106.693 44.18158 106.72372 44.14131 106.75446 44.10092 106.7852 44.0604 106.81593 44.01974 106.84665 43.97897 106.8774 43.93806 106.90813 43.89702 106.93887 43.85585 106.96959 43.81454 107.00034 43.77312 107.03107 43.73157 107.06181 43.68987 107.09253 43.64807 107.12328 43.60612 107.154 43.56404 107.18474 43.52184 107.21547 43.4795 107.24622 43.43704 107.27695 43.39445 107.3077 43.35173 107.33841 43.3089 107.36916 43.26591 107.39989 43.22281 107.4306 43.17957 107.46135 43.1362 107.49208 43.09271 107.52283 43.04907 107.55356 43.00533 107.58429 42.96144 107.61502 42.91743 107.64577 42.87329 107.67648 42.82903 107.70723 42.78462 107.73796 42.7401 107.7687 42.69543 107.79942 42.65065 107.83017 42.60573 107.8609 42.56068 107.89165 42.5155 107.92236 42.4702 107.95311 42.42476 107.98384 42.3792 108.01457 42.33351 108.0453 42.28769 108.07603 42.24173 108.10678 42.19565 108.13751 42.14944 108.16824 42.1031 108.19897 42.05664 108.22972 42.01004 108.26045 41.96332 108.29118 41.91646 108.32191 41.86948 108.35266 41.82237 108.38339 41.77512 108.41412 41.72775 108.44485 41.68025 108.4756 41.6326 108.50633 41.58485 108.53705 41.53696 108.5678 41.48894 108.59853 41.44078 108.62927 41.39252 108.65999 41.3441 108.69073 41.29558 108.72147 41.2469 108.75221 41.19812 108.78293 41.14919 108.81367 41.10014 108.8444 41.05095 108.87515 41.00165 108.90587 40.9522 108.93661 40.90262 108.96735 40.85292 108.99808 40.80309 109.02881 40.75314 109.05956 40.70305 109.09029 40.65283 109.12102 40.60248 109.15175 40.55202 109.18248 40.5014 109.21323 40.45068 109.24394 40.39981 109.27469 40.34883 109.30542 40.2977 109.33617 40.24646 109.36688 40.19508 109.39763 40.14357"/>
<path transform="matrix(1.00003,0,0,-1.00006,2.0964967,163.19083)" stroke-width="1.49442" stroke-linecap="butt" stroke-miterlimit="10" stroke-linejoin="miter" fill="none" stroke="#1414cc" d="M109.15495 40.14328 109.18568 40.1948 109.21642 40.24619 109.24716 40.29742 109.27788 40.34857 109.30862 40.39955 109.33936 40.45042 109.37009 40.50114 109.40082 40.55176 109.43155 40.60223 109.4623 40.65257 109.49303 40.70279 109.52376 40.75288 109.55449 40.80283 109.58524 40.85266 109.61597 40.90237 109.6467 40.95193 109.67743 41.00139 109.70818 41.05069 109.73889 41.09988 109.76964 41.14894 109.80037 41.19786 109.83112 41.24666 109.86183 41.29532 109.89258 41.34386 109.92331 41.39226 109.95404 41.44054 109.98477 41.48868 110.0155 41.53671 110.04625 41.5846 110.07698 41.63235 110.10771 41.68 110.13844 41.7275 110.16919 41.77486 110.1999 41.82211 110.23065 41.86922 110.26138 41.91621 110.29213 41.96306 110.32285 42.0098 110.35359 42.05638 110.38432 42.10286 110.41507 42.1492 110.44579 42.1954 110.47652 42.24149 110.50726 42.28745 110.538 42.33327 110.56873 42.37895 110.59946 42.42451 110.6302 42.46996 110.66092 42.51526 110.69167 42.56044 110.7224 42.60548 110.75314 42.6504 110.78386 42.69519 110.8146 42.73985 110.84534 42.78438 110.87608 42.82878 110.9068 42.87305 110.93755 42.9172 110.96828 42.96121 110.99902 43.00508 111.02974 43.04884 111.06047 43.09247 111.09122 43.13597 111.12193 43.17932 111.15268 43.22256 111.18341 43.26567 111.21416 43.30865 111.24487 43.3515 111.27562 43.39423 111.30635 43.43681 111.3371 43.47928 111.36781 43.52162 111.39856 43.56381 111.42929 43.60588 111.46004 43.64784 111.49075 43.68964 111.5215 43.73132 111.55223 43.77289 111.58296 43.81432 111.6137 43.85562 111.64442 43.89679 111.67517 43.93784 111.70589 43.97874 111.73663 44.01952 111.76736 44.06017 111.79811 44.1007 111.82883 44.14108 111.85957 44.18135 111.8903 44.22148 111.92105 44.26149 111.95177 44.30138 111.98251 44.34111 112.01324 44.38072 112.04398 44.42021 112.0747 44.45958 112.10545 44.49881 112.13618 44.53792 112.1669 44.57687 112.19765 44.61574 112.22838 44.65443 112.25912 44.69302 112.28984 44.73148 112.32059 44.7698 112.35132 44.80798 112.38206 44.84607 112.41278 44.884 112.44353 44.92181 112.47426 44.95949 112.50499 44.99704 112.53572 45.03445 112.56647 45.07175 112.5972 45.10892 112.62793 45.14595 112.65866 45.18286 112.6894 45.21964 112.72014 45.25627 112.75085 45.29279 112.7816 45.32918 112.81233 45.36543 112.84308 45.40155 112.8738 45.43755 112.90454 45.47343 112.93527 45.50917 112.966 45.54477 112.99673 45.58026 113.02748 45.61562 113.05821 45.65083 113.08894 45.68593 113.11967 45.7209 113.15042 45.75572 113.18115 45.79044 113.21188 45.82501 113.24261 45.85947 113.27336 45.89378 113.3041 45.92796 113.33481 45.96204 113.36555 45.99597 113.39629 46.02975 113.42702 46.06343 113.45775 46.09698 113.4885 46.1304 113.51923 46.16367 113.54996 46.19682 113.58069 46.22986 113.61143 46.26274 113.64217 46.29552 113.6729 46.32816 113.70363 46.36066 113.73438 46.39304 113.7651 46.4253 113.79584 46.45743 113.82657 46.48941 113.8573 46.52127 113.88803 46.55301 113.91876 46.58461 113.94951 46.61609 113.98024 46.64743 114.01097 46.67863 114.0417 46.70973 114.07245 46.74069 114.10318 46.77153 114.13391 46.80222 114.16464 46.8328 114.19539 46.86324 114.22612 46.89354 114.25685 46.92372 114.28758 46.95378 114.31833 46.9837 114.34906 47.01349 114.37979 47.04317 114.41052 47.0727 114.44125 47.10211 114.47198 47.13138 114.50272 47.16052 114.53346 47.18954 114.5642 47.21843 114.59492 47.2472 114.62566 47.27583 114.6564 47.30434 114.68713 47.3327 114.71786 47.36095 114.7486 47.38905 114.77934 47.41705 114.81007 47.44492 114.8408 47.47263 114.87154 47.50023 114.90228 47.5277 114.933 47.55504 114.96375 47.58224 114.99448 47.60931 115.0252 47.63628 115.05594 47.66309 115.08667 47.68979 115.11742 47.71635 115.14815 47.74278 115.17888 47.76909 115.20961 47.79527 115.24036 47.8213 115.27109 47.84723 115.30182 47.87302 115.33255 47.89868 115.3633 47.9242 115.39401 47.9496 115.42476 47.97487 115.45549 48.00002 115.48624 48.02504 115.51695 48.04991 115.5477 48.07466 115.57843 48.09929 115.60916 48.12378 115.6399 48.14815 115.67062 48.1724 115.70137 48.1965 115.7321 48.22047 115.76283 48.24432 115.79356 48.26804 115.82431 48.29163 115.85503 48.3151 115.88577 48.33842 115.9165 48.36162 115.94725 48.3847 115.97797 48.40764 116.00871 48.43045 116.03944 48.45314 116.07019 48.4757 116.1009 48.49812 116.13164 48.52042 116.16238 48.54259 116.19312 48.56462 116.22385 48.58653 116.25458 48.60832 116.28532 48.62996 116.31604 48.65149 116.34679 48.67288 116.37752 48.69415 116.40826 48.71529 116.43898 48.73628 116.46973 48.75716 116.50046 48.77791 116.5312 48.79852 116.56192 48.81902 116.59267 48.83937 116.6234 48.8596 116.65414 48.8797 116.68486 48.89967 116.71559 48.91953 116.74634 48.93924 116.77705 48.95882 116.8078 48.97827 116.83853 48.99759 116.86928 49.0168 116.9 49.03586 116.93074 49.0548 116.96147 49.07361 116.99222 49.09227 117.02293 49.11084 117.05368 49.12924 117.08441 49.14754 117.11516 49.1657 117.14587 49.18373 117.17662 49.20163 117.20735 49.2194 117.23808 49.23706 117.26881 49.25456 117.29955 49.27196 117.33029 49.28922 117.36101 49.30634 117.39175 49.32335 117.42249 49.3402 117.45323 49.35693 117.48395 49.37355 117.5147 49.39003 117.54543 49.40639 117.57617 49.4226 117.60689 49.4387 117.63763 49.45467 117.66837 49.4705 117.6991 49.48622 117.72983 49.50179 117.76057 49.51723 117.7913 49.53255 117.82202 49.54774 117.85277 49.5628 117.8835 49.57773 117.91425 49.59253 117.94496 49.60721 117.97571 49.62175 118.00644 49.63615 118.03719 49.65045 118.0679 49.6646 118.09865 49.67862 118.12938 49.69252 118.16011 49.70628 118.19084 49.71992 118.22159 49.73343 118.25232 49.74681 118.28305 49.76006 118.31378 49.77318 118.34453 49.78616 118.37526 49.79903 118.40598 49.81177 118.43672 49.82437 118.46745 49.83684 118.4982 49.8492 118.52892 49.8614 118.55966 49.87349 118.5904 49.88545 118.62112 49.89728 118.65186 49.90897 118.6826 49.92053 118.71333 49.93199 118.74406 49.9433 118.7748 49.95447 118.80554 49.96553 118.83627 49.97646 118.867 49.98724 118.89774 49.99791 118.92848 50.00845 118.95921 50.01884 118.98993 50.02913 119.02068 50.03928 119.0514 50.0493 119.08215 50.05917 119.11287 50.06894 119.14362 50.07858 119.17435 50.08807 119.20508 50.09744 119.23581 50.10669 119.26656 50.11581 119.29729 50.12479 119.32802 50.13364 119.35875 50.14236 119.3895 50.15097 119.42023 50.15944 119.45096 50.16777 119.48169 50.17598 119.51242 50.18407 119.54317 50.19202 119.57388 50.19983 119.60463 50.20752 119.63536 50.21509 119.66609 50.2225 119.69682 50.22983 119.72757 50.237 119.7583 50.24403 119.78903 50.25095 119.81976 50.25775 119.85051 50.2644 119.88124 50.27094 119.91197 50.27733 119.9427 50.28358 119.97345 50.28973 120.00418 50.29575 120.03491 50.30164 120.06564 50.30739 120.09637 50.313 120.1271 50.31851 120.15784 50.32387 120.18858 50.3291 120.21931 50.33421 120.25005 50.33919 120.28078 50.34404 120.31152 50.34875 120.34225 50.35333 120.37299 50.3578 120.40372 50.36214 120.43446 50.36633 120.4652 50.3704 120.49593 50.37434 120.52666 50.37816 120.5574 50.38185 120.58812 50.38542 120.61887 50.38884 120.6496 50.39214 120.68033 50.3953 120.71106 50.39833 120.74179 50.40126 120.77254 50.40402 120.80327 50.40668 120.834 50.40921 120.86473 50.41159 120.89548 50.41386 120.92621 50.41599 120.95694 50.418 120.98767 50.41986 121.01842 50.42162 121.04913 50.42323 121.07988 50.42471 121.11061 50.42609 121.14136 50.4273 121.17207 50.4284 121.2028 50.42938 121.23355 50.43022 121.26428 50.43092 121.29501 50.4315 121.32574 50.43196 121.35649 50.43228 121.38722 50.43248 121.41795 50.43256"/>
<path transform="matrix(1.00003,0,0,-1.00006,2.0964967,163.19083)" stroke-width="1.49442" stroke-linecap="butt" stroke-miterlimit="10" stroke-linejoin="miter" fill="none" stroke="#1414cc" d="M121.4182 50.43256 121.44891 50.43268 121.47966 50.43306 121.51039 50.43372 121.54112 50.4346 121.57185 50.43578 121.6026 50.43721 121.63333 50.43887 121.66406 50.44083 121.6948 50.44301 121.72552 50.44548 121.75627 50.44818 121.78699 50.45116 121.81773 50.45439 121.84846 50.45789 121.87921 50.46164 121.90993 50.46564 121.94067 50.46991 121.9714 50.47443 122.00214 50.47922 122.03287 50.48425 122.06361 50.48955 122.09435 50.49512 122.12508 50.50092 122.1558 50.507 122.18655 50.51334 122.21729 50.51993 122.24802 50.52678 122.27875 50.53387 122.30948 50.54124 122.34023 50.54887 122.37094 50.55676 122.40169 50.56491 122.43242 50.5733 122.46315 50.58195 122.49388 50.59088 122.52463 50.60007 122.55536 50.60951 122.58609 50.61919 122.61682 50.62915 122.64757 50.63936 122.6783 50.64983 122.70903 50.66055 122.73976 50.67154 122.77051 50.68279 122.80124 50.69429 122.83195 50.70605 122.8627 50.71808 122.89343 50.73035 122.92416 50.74289 122.9549 50.75569 122.98564 50.76875 123.01637 50.78204 123.0471 50.79562 123.07784 50.80946 123.10858 50.82355 123.13931 50.8379 123.17004 50.8525 123.20078 50.86736 123.23152 50.88249 123.26225 50.89787 123.29298 50.91351 123.32372 50.9294 123.35446 50.94556 123.38518 50.96198 123.41591 50.97865 123.44666 50.99559 123.47739 51.01279 123.50812 51.03023 123.53885 51.04793 123.5696 51.0659 123.60033 51.08412 123.63106 51.10262 123.66179 51.12135 123.69254 51.14037 123.72327 51.15962 123.754 51.17912 123.78473 51.1989 123.81548 51.21893 123.84619 51.23923 123.87694 51.25978 123.90767 51.2806 123.93842 51.30167 123.96913 51.323 123.99986 51.34459 124.03061 51.36642 124.06134 51.38853 124.09207 51.41089 124.1228 51.43352 124.15355 51.45639 124.18428 51.47952 124.21501 51.50291 124.24574 51.52657 124.27649 51.55048 124.3072 51.57465 124.33795 51.59908 124.36868 51.62376 124.39943 51.64871 124.43015 51.67392 124.46089 51.69939 124.49162 51.7251 124.52235 51.75108 124.55309 51.77733 124.58382 51.80382 124.61456 51.8306 124.6453 51.8576 124.67603 51.88487 124.70676 51.91241 124.7375 51.9402 124.76822 51.96825 124.79897 51.99655 124.8297 52.02512 124.86044 52.05394 124.89116 52.08302 124.9219 52.11237 124.95264 52.14195 124.98338 52.17181 125.0141 52.20193 125.04485 52.23232 125.07558 52.26295 125.10631 52.29384 125.13704 52.32498 125.16777 52.3564 125.19852 52.38806 125.22923 52.41998 125.25998 52.45218 125.29071 52.48462 125.32146 52.51732 125.35217 52.55028 125.38292 52.5835 125.41365 52.61697 125.4444 52.65073 125.47511 52.68471 125.50586 52.71896 125.53659 52.75348 125.56734 52.78824 125.59805 52.82326 125.6288 52.85857 125.65953 52.8941 125.69025 52.9299 125.721 52.96597 125.75172 53.0023 125.78247 53.03888 125.81319 53.07571 125.84393 53.11281 125.87466 53.15015 125.90541 53.18777 125.93613 53.22565 125.96687 53.26378 125.9976 53.30217 126.02835 53.34082 126.05907 53.37971 126.08981 53.4189 126.12054 53.45831 126.15128 53.49799 126.182 53.53792 126.21275 53.57814 126.24348 53.61859 126.2742 53.6593 126.30495 53.70029 126.33568 53.74152 126.36642 53.78299 126.39714 53.82475 126.42789 53.86676 126.45862 53.90903 126.48936 53.95155 126.52008 53.99434 126.55083 54.03737 126.58156 54.08067 126.6123 54.12424 126.64302 54.16806 126.67377 54.21213 126.7045 54.25645 126.73523 54.30107 126.76596 54.34592 126.79669 54.391 126.82744 54.43639 126.85815 54.48201 126.8889 54.52791 126.91963 54.57405 126.95038 54.62045 126.9811 54.66711 127.01184 54.71404 127.04257 54.76122 127.07332 54.80864 127.10403 54.85635 127.13478 54.9043 127.16551 54.95251 127.19624 55.00098 127.22697 55.04971 127.25772 55.0987 127.28845 55.14795 127.31918 55.19745 127.34991 55.24722 127.38065 55.29724 127.41139 55.34752 127.44211 55.39806 127.47285 55.44885 127.50359 55.49991 127.53433 55.55122 127.56505 55.6028 127.5958 55.65463 127.62653 55.70671 127.65726 55.75906 127.68799 55.81169 127.71873 55.86455 127.74947 55.91768 127.7802 55.97105 127.81093 56.02469 127.84167 56.07858 127.8724 56.13275 127.90314 56.18718 127.93387 56.24184 127.9646 56.29678 127.99535 56.35196 128.02606 56.40742 128.05681 56.46312 128.08754 56.51909 128.11827 56.57533 128.149 56.6318 128.17975 56.68855 128.21048 56.74556 128.24121 56.80281 128.27194 56.86034 128.30269 56.91812 128.33342 56.97614 128.36415 57.03444 128.39488 57.093 128.42563 57.1518 128.45636 57.21088 128.48708 57.2702 128.51782 57.3298 128.54856 57.38963 128.57929 57.44974 128.61002 57.51012 128.64076 57.57072 128.6715 57.6316 128.70223 57.69275 128.73296 57.75415 128.7637 57.8158 128.79444 57.87772 128.82517 57.93988 128.8559 58.0023 128.88665 58.065 128.91738 58.12794 128.9481 58.19116 128.97884 58.25461 129.00959 58.31834 129.0403 58.38232 129.07103 58.44656 129.10178 58.51106 129.1325 58.57582 129.16324 58.64084 129.19397 58.70612 129.22472 58.77165 129.25545 58.83745 129.28618 58.90349 129.31691 58.96979 129.34766 59.03636 129.37839 59.10318 129.40912 59.17027 129.43985 59.23763 129.4706 59.30522 129.50131 59.37306 129.53206 59.4412 129.56279 59.50957 129.59354 59.5782 129.62425 59.6471 129.65499 59.71625 129.68573 59.78566 129.71646 59.85533 129.7472 59.92525 129.77793 59.99545 129.80867 60.06589 129.8394 60.13658 129.87014 60.20755 129.90087 60.27878 129.93161 60.35025 129.96233 60.42198 129.99308 60.49399 130.0238 60.56624 130.05455 60.63875 130.08527 60.71153 130.11602 60.78456 130.14675 60.85785 130.17748 60.9314 130.2082 61.0052 130.23894 61.07925 130.26969 61.15358 130.30042 61.22816 130.33115 61.30301 130.36188 61.3781 130.39263 61.45346 130.42334 61.52907 130.45409 61.60495 130.48482 61.68108 130.51557 61.75746 130.54628 61.83412 130.57703 61.91103 130.60776 61.98819 130.6385 62.06561 130.66922 62.1433 130.69997 62.22124 130.7307 62.29944 130.76143 62.37788 130.79216 62.4566 130.82289 62.53558 130.85364 62.61482 130.88436 62.69432 130.9151 62.77406 130.94583 62.85408 130.97658 62.93434 131.0073 63.01486 131.03804 63.09566 131.06877 63.1767 131.09952 63.258 131.13024 63.33955 131.16098 63.42139 131.19171 63.50346 131.22246 63.5858 131.25318 63.66838 131.28392 63.75124 131.31465 63.83437 131.34539 63.91772 131.37612 64.00136 131.40685 64.08524 131.43759 64.16939 131.4683 64.25378 131.49906 64.33846 131.52979 64.42337 131.56053 64.50856 131.59125 64.594 131.622 64.67969 131.65273 64.76566 131.68347 64.85187 131.71419 64.93832 131.74494 65.02505 131.77567 65.11206 131.80641 65.1993 131.83713 65.2868 131.86786 65.37456 131.8986 65.4626 131.92932 65.55087 131.96007 65.63942 131.9908 65.72823 132.02155 65.81728 132.05226 65.90659 132.08301 65.99615 132.11374 66.086 132.14449 66.17609 132.1752 66.26643 132.20595 66.35706 132.23668 66.44792 132.26743 66.53903 132.29814 66.63043 132.32889 66.72206 132.35962 66.81396 132.39035 66.90613 132.42108 66.99855 132.45182 67.09122 132.48256 67.18416 132.51328 67.27734 132.54402 67.37082 132.57476 67.46452 132.6055 67.55849 132.63622 67.65273 132.66696 67.7472 132.6977 67.84193 132.72844 67.93695 132.75916 68.03221 132.7899 68.12773 132.82064 68.22351 132.85137 68.31955 132.8821 68.41585 132.91284 68.51239 132.94358 68.6092 132.9743 68.70628 133.00504 68.80362 133.03577 68.9012 133.06652 68.99905 133.09723 69.09715 133.12798 69.19553 133.1587 69.29414 133.18946 69.39302 133.22017 69.49216 133.25092 69.59157 133.28165 69.69121 133.31238 69.79114 133.34311 69.8913 133.37386 69.99174 133.40459 70.09242 133.43532 70.19337 133.46605 70.29459 133.4968 70.39606 133.52753 70.49777 133.55826 70.59976 133.58899 70.70198 133.61972 70.80449 133.65047 70.90723 133.68119 71.01025"/>
<path transform="matrix(1.00003,0,0,-1.00006,2.0964967,163.19083)" stroke-width="1.49442" stroke-linecap="butt" stroke-miterlimit="10" stroke-linejoin="miter" fill="none" stroke="#1414cc" d="M133.4386 70.60658 133.50006 70.60582 133.56153 70.60558 133.623 70.60583 133.68447 70.60663 133.74594 70.60794 133.80739 70.60976 133.86887 70.6121 133.93033 70.61496 133.9918 70.61833 134.05327 70.62222 134.11475 70.62662 134.17621 70.63155 134.23769 70.637 134.29915 70.64294 134.36063 70.64943 134.42209 70.65642 134.48355 70.66393 134.54503 70.67195 134.60649 70.6805 134.66797 70.68956 134.72943 70.69913 134.79091 70.70923 134.85237 70.71983 134.91385 70.73099 134.9753 70.74261 135.03678 70.75479 135.09824 70.76747 135.15972 70.78065 135.22118 70.79437 135.28266 70.80861 135.34412 70.82335 135.40558 70.83861 135.46706 70.8544 135.52852 70.8707 135.59 70.88751 135.65146 70.90485 135.71294 70.9227 135.7744 70.94106 135.83588 70.95996 135.89734 70.97935 135.95882 70.99927 136.02028 71.0197 136.08174 71.04066 136.1432 71.06213 136.20468 71.0841 136.26615 71.10661 136.3276 71.12964 136.38909 71.15317 136.45055 71.17722 136.51203 71.2018 136.57349 71.22688 136.63497 71.25249 136.69643 71.27863 136.7579 71.30525 136.81937 71.33241 136.88085 71.36009 136.9423 71.38828 137.00379 71.41699 137.06525 71.4462 137.12673 71.47595 137.18817 71.50621 137.24964 71.53699 137.31111 71.56828 137.37258 71.60008 137.43405 71.63242 137.49552 71.66527 137.55699 71.69862 137.61846 71.7325 137.67993 71.76689 137.7414 71.8018 137.80287 71.83723 137.86434 71.87318 137.92581 71.90964 137.98728 71.94662 138.04875 71.98413 138.11022 72.02213 138.17168 72.06067 138.23316 72.0997 138.29462 72.13928 138.35608 72.17937 138.41754 72.21996 138.47902 72.26108 138.54048 72.30272 138.60196 72.34485 138.66342 72.38753 138.7249 72.43071 138.78636 72.47441 138.84784 72.51863 138.9093 72.56337 138.97078 72.60863 139.03224 72.65439 139.09372 72.70067 139.15518 72.74748 139.21665 72.7948 139.27812 72.84264 139.33959 72.89099 139.40106 72.93987 139.46251 72.98926 139.52399 73.03915 139.58545 73.08958 139.64693 73.14053 139.70839 73.19197 139.76987 73.24394 139.83133 73.29643 139.8928 73.34944 139.95427 73.40297 140.01575 73.45702 140.07721 73.51158 140.13867 73.56665 140.20015 73.62225 140.26161 73.67836 140.32309 73.73499 140.38455 73.79213 140.44603 73.8498 140.50749 73.90797 140.56896 73.96666 140.63042 74.02588 140.6919 74.0856 140.75336 74.14584 140.81484 74.2066 140.8763 74.26788 140.93778 74.32968 140.99924 74.392 141.0607 74.45483 141.12218 74.51817 141.18364 74.58203 141.24512 74.64644 141.30658 74.71133 141.36806 74.77675 141.42952 74.84268 141.491 74.90912 141.55246 74.97609 141.61394 75.04358 141.6754 75.11159 141.73686 75.1801 141.79833 75.24913 141.8598 75.3187 141.92127 75.38876 141.98273 75.45935 142.0442 75.53044 142.10567 75.60208 142.16715 75.67421 142.2286 75.74686 142.29009 75.82002 142.35155 75.89372 142.41303 75.96793 142.47449 76.04266 142.53597 76.11789 142.59743 76.19365 142.6589 76.26993 142.72037 76.34671 142.78185 76.42401 142.84329 76.50185 142.90476 76.58018 142.96623 76.65906 143.0277 76.73842 143.08917 76.81831 143.15064 76.89873 143.21212 76.97964 143.27358 77.0611 143.33506 77.14305 143.39652 77.22554 143.458 77.30853 143.51946 77.39204 143.58094 77.47607 143.6424 77.56062 143.70388 77.64568 143.76534 77.73126 143.82682 77.81737 143.88828 77.90398 143.94974 77.99112 144.0112 78.07875 144.07266 78.16692 144.13414 78.25562 144.1956 78.3448 144.25708 78.43452 144.31855 78.52477 144.38002 78.61551 144.44149 78.70677 144.50296 78.79857 144.56443 78.89085 144.6259 78.98367 144.68737 79.07703 144.74884 79.17087 144.8103 79.26524 144.87177 79.36012 144.93325 79.45554 144.9947 79.55144 145.05619 79.64789 145.11763 79.74484 145.17911 79.84232 145.24057 79.9403 145.30205 80.0388 145.36351 80.13783 145.42499 80.23737 145.48645 80.33743 145.54793 80.438 145.60939 80.53911 145.67087 80.64072 145.73233 80.74281 145.7938 80.84544 145.85527 80.94864 145.91674 81.0523 145.97821 81.15651 146.03968 81.2612 146.10115 81.36644 146.16262 81.47218 146.22408 81.57845 146.28554 81.68524 146.34702 81.79251 146.40848 81.90033 146.46996 82.00867 146.53142 82.11751 146.5929 82.22688 146.65436 82.33673 146.71582 82.44714 146.7773 82.55806 146.83876 82.6695 146.90024 82.78146 146.9617 82.89389 147.02318 83.00688 147.08464 83.12038 147.14612 83.2344 147.20758 83.34895 147.26906 83.46397 147.33052 83.57956 147.39199 83.69563 147.45345 83.81226 147.51493 83.92937 147.57639 84.04698 147.63785 84.16513 147.69933 84.28381 147.76079 84.40302 147.82227 84.52274 147.88373 84.64291 147.9452 84.76367 148.00667 84.88492 148.06815 85.0067 148.12961 85.129 148.19109 85.25177 148.25255 85.3751 148.31403 85.49896 148.37549 85.62332 148.43697 85.74821 148.49842 85.87357 148.55989 85.99948 148.62136 86.12592 148.68282 86.25287 148.7443 86.38034 148.80576 86.50829 148.86724 86.63678 148.9287 86.76581 148.99018 86.89534 149.05164 87.02539 149.11312 87.15591 149.17458 87.28702 149.23606 87.41861 149.29752 87.55074 149.359 87.68338 149.42046 87.81648 149.48194 87.95015 149.5434 88.08435 149.60485 88.21906 149.66632 88.35426 149.72779 88.48997 149.78926 88.62622 149.85073 88.763 149.9122 88.9003 149.97367 89.0381 150.03514 89.17638 150.0966 89.31523 150.15808 89.45459 150.21955 89.59447 150.28102 89.73485 150.34249 89.87573 150.40396 90.01715 150.46543 90.1591 150.52689 90.30157 150.58837 90.44455 150.64983 90.58798 150.7113 90.732 150.77275 90.87654 150.83423 91.02158 150.89569 91.16714 150.95717 91.31319 151.01863 91.45978 151.08011 91.6069 151.14157 91.75453 151.20305 91.90268 151.26451 92.0513 151.32599 92.20049 151.38745 92.35019 151.44892 92.5004 151.51039 92.65114 151.57186 92.80234 151.63333 92.9541 151.6948 93.1064 151.75627 93.25919 151.81774 93.41252 151.8792 93.5663 151.94066 93.72066 152.00214 93.87553 152.0636 94.03091 152.12508 94.18683 152.18654 94.3432 152.24802 94.50014 152.30948 94.65761 152.37094 94.81557 152.43242 94.97404 152.49388 95.13303 152.55536 95.29254 152.61682 95.45258 152.6783 95.61314 152.73976 95.77422 152.80124 95.93576 152.8627 96.09787 152.92418 96.26051 152.98564 96.42365 153.0471 96.5873 153.10857 96.75145 153.17005 96.91614 153.2315 97.08134 153.29299 97.24709 153.35445 97.41333 153.41591 97.58003 153.47739 97.7473 153.53885 97.91512 153.60033 98.08344 153.66179 98.25226 153.72327 98.42157 153.78473 98.59142 153.8462 98.76181 153.90767 98.93271 153.96915 99.10411 154.03061 99.276 154.09209 99.44844 154.15354 99.62143 154.21501 99.79492 154.27648 99.9689 154.33794 100.14337 154.39942 100.3184 154.46088 100.49396 154.52236 100.67003 154.58382 100.84663 154.6453 101.02367 154.70676 101.2013 154.76824 101.37943 154.8297 101.5581 154.89118 101.73726 154.95264 101.9169 155.01412 102.0971 155.07558 102.27783 155.13706 102.45908 155.19852 102.64084 155.25997 102.82306 155.32144 103.00584 155.3829 103.18915 155.44438 103.37297 155.50585 103.55731 155.56732 103.74213 155.62879 103.92749 155.69026 104.1134 155.75173 104.2998 155.8132 104.48672 155.87467 104.67412 155.93614 104.86209 155.9976 105.05055 156.05908 105.23956 156.12055 105.4291 156.182 105.61905 156.24349 105.8096 156.30495 106.00067 156.36643 106.19226 156.42787 106.38435 156.48935 106.5769 156.55081 106.77003 156.61229 106.96368 156.67375 107.15785 156.73523 107.35255 156.79669 107.54768 156.85817 107.7434 156.91963 107.93964 156.98111 108.1364 157.04257 108.33366 157.10404 108.53139 157.16551 108.72968 157.22698 108.92853 157.28845 109.12785 157.34992 109.32771 157.41139 109.52803 157.47286 109.72891 157.53432 109.9303 157.59578 110.13223 157.65726 110.33467 157.71872 110.53757 157.7802 110.74106 157.84166 110.94504 157.90314 111.14955 157.9646 111.35457"/>
<path transform="matrix(1.00003,0,0,-1.00006,2.0964967,163.19083)" stroke-width="1.49442" stroke-linecap="butt" stroke-miterlimit="10" stroke-linejoin="miter" fill="none" stroke="#1414cc" d="M157.72223 110.95163H157.75296 157.78369 157.81444 157.84516 157.8759 157.90663 157.93738 157.9681 157.99884 158.02957 158.06032 158.09104 158.12178 158.15251 158.18326 158.21398 158.2447 158.27545 158.30617 158.33692 158.36765 158.39839 158.42911 158.45986 158.49059 158.52133 158.55205 158.5828 158.61353 158.64427 158.67499 158.70574 158.73647 158.7672 158.79793 158.82866 158.8594 158.89012 158.92087 158.9516 158.98235 159.01306 159.04381 159.07454 159.10529 159.136 159.16675 159.19748 159.22821 159.25894 159.28969 159.32042 159.35115 159.38188 159.41262 159.44336 159.47408 159.50482 159.53556 159.5663 159.59702 159.62776 159.6585 159.68923 159.71996 159.7507 159.78144 159.81217 159.8429 159.87364 159.90438 159.93509 159.96584 159.99657 160.02732 160.05803 160.08878 160.1195 160.15024 160.18097 160.21172 160.24245 160.27318 160.30391 160.33466 160.36539 160.39612 160.42685 160.4576 160.48833 160.51905 160.54979 160.58052 160.61125 160.64199 160.67273 160.70346 160.73419 160.76493 160.79567 160.8264 160.85713 160.88787 160.91861 160.94934 160.98007 161.0108 161.04155 161.07227 161.103 161.13375 161.16448 161.1952 161.22594 161.25669 161.28742 161.31815 161.34888 161.37963 161.41036 161.44109 161.47182 161.50257 161.53328 161.56403 161.59476 161.6255 161.65622 161.68695 161.7177 161.74843 161.77916 161.80989 161.84064 161.87137 161.9021 161.93283 161.96358 161.9943 162.02504 162.05577 162.08652 162.11724 162.14798 162.17871 162.20944 162.24018 162.2709 162.30165 162.33238 162.36312 162.39385 162.42459 162.4553 162.48606 162.51679 162.54753 162.57825 162.609 162.63973 162.67047 162.70119 162.73194 162.76267 162.7934 162.82413 162.85486 162.8856 162.91634 162.94707 162.9778 163.00855 163.03926 163.07 163.10074 163.13149 163.1622 163.19295 163.22368 163.25443 163.28514 163.31589 163.34662 163.37735 163.40808 163.43881 163.46956 163.50028 163.53102 163.56175 163.5925 163.62322 163.65396 163.6847 163.71544 163.74616 163.7769 163.80764 163.83838 163.8691 163.89983 163.93058 163.96129 163.99204 164.02277 164.05352 164.08423 164.11498 164.1457 164.17646 164.20717 164.23792 164.26865 164.2994 164.33011 164.36086 164.39159 164.42232 164.45305 164.48378 164.51453 164.54524 164.57599 164.60672 164.63747 164.66819 164.69893 164.72966 164.7604 164.79113 164.82187 164.8526 164.88333 164.91407 164.94481 164.97554 165.00627 165.037 165.06774 165.09848 165.1292 165.15995 165.19068 165.22142 165.25214 165.28289 165.31362 165.34435 165.37508 165.40583 165.43656 165.46729 165.49802 165.52877 165.5595 165.59021 165.62096 165.65169 165.68244 165.71315 165.7439 165.77463 165.80536 165.83609 165.86684 165.89757 165.9283 165.95903 165.98978 166.02051 166.05124 166.08197 166.11272 166.14345 166.17417 166.20491 166.23564 166.26638 166.2971 166.32785 166.35858 166.38932 166.42005 166.45079 166.48152 166.51226 166.54299 166.57373 166.60446 166.6352 166.66593 166.69667 166.72739 166.75812 166.78887 166.8196 166.85033 166.88106 166.9118 166.94254 166.97327 167.004 167.03475 167.06548 167.0962 167.12694 167.15769 167.1884 167.21915 167.24988 167.28061 167.31134 167.34207 167.37282 167.40355 167.43428 167.46501 167.49576 167.52649 167.55722 167.58795 167.6187 167.64943 167.68016 167.71089 167.74164 167.77236 167.8031 167.83383 167.86457 167.8953 167.92603 167.95677 167.9875 168.01824 168.04897 168.07971 168.11045 168.14118 168.1719 168.20265 168.23337 168.26412 168.29485 168.32559 168.35631 168.38706 168.41779 168.44852 168.47925 168.50998 168.54073 168.57146 168.60219 168.63292 168.66367 168.69438 168.72513 168.75586 168.7866 168.81732 168.84807 168.8788 168.90955 168.94026 168.971 169.00174 169.03247 169.0632 169.09394 169.12468 169.1554 169.18614 169.21688 169.24762 169.27834 169.30908 169.33982 169.37056 169.40128 169.43202 169.46276 169.4935 169.52422 169.55495 169.5857 169.61641 169.64716 169.67789 169.70864 169.73935 169.7701 169.80083 169.83158 169.86229 169.89304 169.92377 169.95452 169.98523"/>
<path transform="matrix(1.00003,0,0,-1.00006,2.0964967,163.19083)" stroke-width="1.49442" stroke-linecap="butt" stroke-miterlimit="10" stroke-linejoin="miter" fill="none" stroke="#1414cc" d="M169.98548 110.95163"/>
</g>
<path transform="matrix(1.00003,0,0,-1.00006,2.0964967,163.19083)" d="M14.13437 20.17302C14.13437 21.27348 13.24228 22.16557 12.14182 22.16557 11.04134 22.16557 10.14926 21.27348 10.14926 20.17302 10.14926 19.07254 11.04134 18.18047 12.14182 18.18047 13.24228 18.18047 14.13437 19.07254 14.13437 20.17302ZM12.14182 20.17302" fill="#ffffff"/>
<path transform="matrix(1.00003,0,0,-1.00006,2.0964967,163.19083)" stroke-width=".99628" stroke-linecap="butt" stroke-miterlimit="10" stroke-linejoin="miter" fill="none" stroke="#1414cc" d="M14.13437 20.17302C14.13437 21.27348 13.24228 22.16557 12.14182 22.16557 11.04134 22.16557 10.14926 21.27348 10.14926 20.17302 10.14926 19.07254 11.04134 18.18047 12.14182 18.18047 13.24228 18.18047 14.13437 19.07254 14.13437 20.17302ZM12.14182 20.17302"/>
<path transform="matrix(1.00003,0,0,-1.00006,2.0964967,163.19083)" d="" fill="#ffffff"/>
<path transform="matrix(1.00003,0,0,-1.00006,2.0964967,163.19083)" stroke-width=".99628" stroke-linecap="butt" stroke-miterlimit="10" stroke-linejoin="miter" fill="none" stroke="#1414cc" d=""/>
<path transform="matrix(1.00003,0,0,-1.00006,2.0964967,163.19083)" d="M171.97803 110.95163C171.97803 112.05211 171.08596 112.94418 169.98548 112.94418 168.88501 112.94418 167.99292 112.05211 167.99292 110.95163 167.99292 109.85117 168.88501 108.95908 169.98548 108.95908 171.08596 108.95908 171.97803 109.85117 171.97803 110.95163ZM169.98548 110.95163" fill="#1414cc"/>
<path transform="matrix(1.00003,0,0,-1.00006,2.0964967,163.19083)" stroke-width="1.49442" stroke-linecap="butt" stroke-miterlimit="10" stroke-linejoin="miter" fill="none" stroke="#1414cc" d="M171.97803 110.95163C171.97803 112.05211 171.08596 112.94418 169.98548 112.94418 168.88501 112.94418 167.99292 112.05211 167.99292 110.95163 167.99292 109.85117 168.88501 108.95908 169.98548 108.95908 171.08596 108.95908 171.97803 109.85117 171.97803 110.95163ZM169.98548 110.95163"/>
<path transform="matrix(1.00003,0,0,-1.00006,2.0964967,163.19083)" stroke-width="1.49442" stroke-linecap="butt" stroke-miterlimit="10" stroke-linejoin="miter" fill="none" stroke="#1414cc" d=""/>
<use data-text="x" xlink:href="#font_4_1" transform="matrix(9.962899,0,0,-9.963197,187.19205,78.95978)"/>
<use data-text="y" xlink:href="#font_4_2" transform="matrix(9.962899,0,0,-9.963197,102.77552,9.583603)"/>
</svg>
