<svg xmlns="http://www.w3.org/2000/svg" xmlns:xlink="http://www.w3.org/1999/xlink" xmlns:inkscape="http://www.inkscape.org/namespaces/inkscape" version="1.1" width="198" height="165" viewBox="0 0 198 165">
<defs>
<path id="font_1_1" d="M.6589966 .23046875C.6759949 .23046875 .69400027 .23046875 .69400027 .25045777 .69400027 .27046205 .6759949 .27046205 .6589966 .27046205H.117996219C.100997928 .27046205 .08299255 .27046205 .08299255 .25045777 .08299255 .23046875 .100997928 .23046875 .117996219 .23046875H.6589966Z"/>
<path id="font_2_2" d="M.2939911 .16503906V.07800293C.2939911 .041992189 .2919922 .0309906 .21798706 .0309906H.19699097V0C.23799134 .0029907227 .2899933 .0029907227 .33198548 .0029907227 .37399293 .0029907227 .4269867 .0029907227 .46798707 0V.0309906H.44699098C.37298585 .0309906 .37098695 .041992189 .37098695 .07800293V.16503906H.47099305V.19602967H.37098695V.65075686C.37098695 .67074587 .37098695 .6767578 .35499574 .6767578 .34599305 .6767578 .34298707 .6767578 .33499146 .66474917L.027999878 .19602967V.16503906H.2939911M.2999878 .19602967H.055999757L.2999878 .5688019V.19602967Z"/>
<path id="font_2_1" d="M.1269989 .07699585 .23298645 .18003845C.3889923 .31811524 .44898988 .3721466 .44898988 .47216798 .44898988 .5860901 .35899354 .6660156 .23699951 .6660156 .12399292 .6660156 .049987794 .57411196 .049987794 .48516847 .049987794 .4291687 .099990848 .4291687 .102996829 .4291687 .11999512 .4291687 .15499878 .44117738 .15499878 .48217774 .15499878 .5081787 .13699341 .5341797 .101989749 .5341797 .09399414 .5341797 .09199524 .5341797 .08898926 .5331726 .11199951 .59806826 .1659851 .63500979 .22399903 .63500979 .31498719 .63500979 .35798646 .5541382 .35798646 .47216798 .35798646 .39215089 .30799867 .31311036 .25299073 .25108338L.06098938 .036987306C.049987794 .025985718 .049987794 .023986817 .049987794 0H.42099L.44898988 .17404175H.42399598C.4189911 .14402771 .4119873 .1000061 .4019928 .084991458 .394989 .07699585 .32899476 .07699585 .30699159 .07699585H.1269989Z"/>
<clipPath id="clip_3">
<path transform="matrix(1,0,0,-1.00002,2.0960007,163.18994)" d="M0 0H194.26303V161.39028H0Z"/>
</clipPath>
<path id="font_4_1" d="M.33399964 .30233766C.33999635 .32835389 .36299134 .42037965 .43299867 .42037965 .43798829 .42037965 .46199037 .42037965 .48298646 .40734864 .45498658 .402359 .43499757 .37734986 .43499757 .35334779 .43499757 .33735658 .44599916 .31835938 .47299195 .31835938 .49499513 .31835938 .5269928 .3363495 .5269928 .37635804 .5269928 .42837525 .46798707 .4423828 .43399049 .4423828 .37599183 .4423828 .34098817 .38935853 .32899476 .36634828 .3039856 .43237306 .25 .4423828 .22099304 .4423828 .116989139 .4423828 .05999756 .3133545 .05999756 .28834535 .05999756 .27833558 .069992069 .27833558 .07199097 .27833558 .07998657 .27833558 .08299255 .28033448 .084991458 .28933717 .11898804 .39535523 .18499756 .42037965 .21899414 .42037965 .23799134 .42037965 .272995 .4113617 .272995 .35334779 .272995 .32235719 .2559967 .25532533 .21899414 .11528015 .20298767 .053268434 .16799927 .011245728 .12399292 .011245728 .117996219 .011245728 .09498596 .011245728 .07398987 .024276734 .09899902 .029266358 .12098694 .05027771 .12098694 .07827759 .12098694 .105270389 .09899902 .11328125 .083999637 .11328125 .053985597 .11328125 .0289917 .08728027 .0289917 .055267335 .0289917 .009246826 .07899475-.0107421879 .12298584-.0107421879 .18899536-.0107421879 .22499085 .059280397 .22799683 .0652771 .23999024 .028274537 .27598573-.0107421879 .33599855-.0107421879 .43899537-.0107421879 .49598695 .118270877 .49598695 .14328003 .49598695 .1532898 .4869995 .1532898 .48399354 .1532898 .47499085 .1532898 .47299195 .14929199 .47099305 .14228821 .43798829 .03527832 .36999513 .011245728 .33799745 .011245728 .29899598 .011245728 .2829895 .043273927 .2829895 .07727051 .2829895 .09927368 .2889862 .121276859 .2999878 .16529846L.33399964 .30233766Z"/>
<path id="font_4_2" d="M.48599244 .38136292C.48999024 .39537049 .48999024 .39736939 .48999024 .40437318 .48999024 .42237855 .47599793 .43138124 .46099855 .43138124 .45098878 .43138124 .43499757 .42536927 .42599488 .41036988 .42399598 .405365 .41600038 .37435914 .4119873 .35635377 .40499879 .33035279 .397995 .30334474 .3919983 .27633668L.34700013 .09628296C.34298707 .08126831 .2999878 .011245728 .23399353 .011245728 .18299866 .011245728 .17199707 .055267335 .17199707 .0922699 .17199707 .1382904 .18899536 .20030213 .22299195 .28833009 .23899842 .3293457 .24299622 .3403473 .24299622 .36035157 .24299622 .405365 .21099854 .4423828 .16099549 .4423828 .06599426 .4423828 .0289917 .29733277 .0289917 .28833009 .0289917 .27833558 .038986207 .27833558 .040985109 .27833558 .050994874 .27833558 .051986696 .28033448 .056991579 .29634095 .083999637 .3903656 .12399292 .42037965 .1579895 .42037965 .1659851 .42037965 .18299866 .42037965 .18299866 .3883667 .18299866 .36335755 .17298889 .3373413 .1659851 .31834413 .12599182 .21231079 .10798645 .1552887 .10798645 .10827637 .10798645 .019256592 .17098999-.0107421879 .22999573-.0107421879 .2689972-.0107421879 .30299378 .0062561037 .33099366 .03425598 .31799317-.017745972 .30599977-.06674194 .2659912-.11973572 .23999024-.15385437 .20199585-.18309021 .1559906-.18309021 .14199829-.18309021 .09700012-.18005371 .07998657-.14074707 .09599304-.14074707 .10899353-.14074707 .12298584-.1287384 .1329956-.11973572 .14299011-.10673523 .14299011-.08773804 .14299011-.056747438 .115997318-.052734376 .10598755-.052734376 .08299255-.052734376 .049987794-.068740848 .049987794-.11773682 .049987794-.16796875 .09399414-.20507813 .1559906-.20507813 .25898744-.20507813 .3619995-.11373901 .3899994-.00074768069L.48599244 .38136292Z"/>
</defs>
<path transform="matrix(1,0,0,-1.00002,2.0960007,163.18994)" stroke-width=".3985" stroke-linecap="butt" stroke-miterlimit="10" stroke-linejoin="miter" fill="none" stroke="#404040" d="M0 0H194.26303V161.39028H0Z"/>
<path transform="matrix(1,0,0,-1.00002,2.0960007,163.18994)" stroke-width=".3985" stroke-linecap="butt" stroke-miterlimit="10" stroke-linejoin="miter" fill="none" stroke="#bfbfbf" d="M16.18858 0V161.39028M48.56575 0V161.39028M80.94293 0V161.39028M113.3201 0V161.39028M145.69728 0V161.39028M178.07445 0V161.39028"/>
<path transform="matrix(1,0,0,-1.00002,2.0960007,163.18994)" stroke-width=".3985" stroke-linecap="butt" stroke-miterlimit="10" stroke-linejoin="miter" fill="none" stroke="#bfbfbf" d="M32.37717 0V161.39028M64.75433 0V161.39028M129.50868 0V161.39028M161.88587 0V161.39028"/>
<path transform="matrix(1,0,0,-1.00002,2.0960007,163.18994)" stroke-width=".3985" stroke-linecap="butt" stroke-miterlimit="10" stroke-linejoin="miter" fill="none" stroke="#bfbfbf" d="M0 13.44919H194.26303M0 40.34756H194.26303M0 67.24594H194.26303M0 94.14432H194.26303M0 121.04271H194.26303M0 147.94109H194.26303"/>
<path transform="matrix(1,0,0,-1.00002,2.0960007,163.18994)" stroke-width=".3985" stroke-linecap="butt" stroke-miterlimit="10" stroke-linejoin="miter" fill="none" stroke="#bfbfbf" d="M0 26.89838H194.26303M0 53.79675H194.26303M0 107.59352H194.26303M0 134.4919H194.26303"/>
<path transform="matrix(1,0,0,-1.00002,2.0960007,163.18994)" stroke-width=".19925" stroke-linecap="butt" stroke-miterlimit="10" stroke-linejoin="miter" fill="none" stroke="#7f807f" d="M16.18858 79.27774V82.11252M48.56575 79.27774V82.11252M80.94293 79.27774V82.11252M113.3201 79.27774V82.11252M145.69728 79.27774V82.11252M178.07445 79.27774V82.11252"/>
<path transform="matrix(1,0,0,-1.00002,2.0960007,163.18994)" stroke-width=".19925" stroke-linecap="butt" stroke-miterlimit="10" stroke-linejoin="miter" fill="none" stroke="#7f807f" d="M32.37717 78.56927V82.82098M64.75433 78.56927V82.82098M129.50868 78.56927V82.82098M161.88587 78.56927V82.82098"/>
<path transform="matrix(1,0,0,-1.00002,2.0960007,163.18994)" stroke-width=".19925" stroke-linecap="butt" stroke-miterlimit="10" stroke-linejoin="miter" fill="none" stroke="#7f807f" d="M95.71408 13.44919H98.54895M95.71408 40.34756H98.54895M95.71408 67.24594H98.54895M95.71408 94.14432H98.54895M95.71408 121.04271H98.54895M95.71408 147.94109H98.54895"/>
<path transform="matrix(1,0,0,-1.00002,2.0960007,163.18994)" stroke-width=".19925" stroke-linecap="butt" stroke-miterlimit="10" stroke-linejoin="miter" fill="none" stroke="#7f807f" d="M95.00558 26.89838H99.25743M95.00558 53.79675H99.25743M95.00558 107.59352H99.25743M95.00558 134.4919H99.25743"/>
<path transform="matrix(1,0,0,-1.00002,2.0960007,163.18994)" stroke-width=".3985" stroke-linecap="butt" stroke-miterlimit="10" stroke-linejoin="miter" fill="none" stroke="#000000" d="M0 80.69513H192.27051"/>
<path transform="matrix(1,0,0,-1.00002,194.36652,82.493198)" d="M1.99252 0-1.19551 1.59401 0 0-1.19551-1.59401"/>
<path transform="matrix(1,0,0,-1.00002,2.0960007,163.18994)" stroke-width=".3985" stroke-linecap="butt" stroke-miterlimit="10" stroke-linejoin="miter" fill="none" stroke="#000000" d="M97.13152 0V159.39775"/>
<path transform="matrix(0,-1.00002,-1,-0,99.22752,3.7890015)" d="M1.99252 0-1.19551 1.59401 0 0-1.19551-1.59401"/>
<use data-text="&#x2212;" xlink:href="#font_1_1" transform="matrix(9.9626,0,0,-9.962799,28.108002,94.55957)"/>
<use data-text="4" xlink:href="#font_2_2" transform="matrix(9.9626,0,0,-9.962799,35.857004,94.55957)"/>
<use data-text="&#x2212;" xlink:href="#font_1_1" transform="matrix(9.9626,0,0,-9.962799,60.485,94.55957)"/>
<use data-text="2" xlink:href="#font_2_1" transform="matrix(9.9626,0,0,-9.962799,68.234,94.55957)"/>
<use data-text="2" xlink:href="#font_2_1" transform="matrix(9.9626,0,0,-9.962799,129.114,94.55957)"/>
<use data-text="4" xlink:href="#font_2_2" transform="matrix(9.9626,0,0,-9.962799,161.491,94.55957)"/>
<use data-text="&#x2212;" xlink:href="#font_1_1" transform="matrix(9.9626,0,0,-9.962799,80.852,139.08646)"/>
<use data-text="4" xlink:href="#font_2_2" transform="matrix(9.9626,0,0,-9.962799,88.601,139.08646)"/>
<use data-text="&#x2212;" xlink:href="#font_1_1" transform="matrix(9.9626,0,0,-9.962799,80.852,112.18692)"/>
<use data-text="2" xlink:href="#font_2_1" transform="matrix(9.9626,0,0,-9.962799,88.601,112.18692)"/>
<use data-text="2" xlink:href="#font_2_1" transform="matrix(9.9626,0,0,-9.962799,88.6,58.804849)"/>
<use data-text="4" xlink:href="#font_2_2" transform="matrix(9.9626,0,0,-9.962799,88.6,31.90532)"/>
<g clip-path="url(#clip_3)">
<path transform="matrix(1,0,0,-1.00002,2.0960007,163.18994)" stroke-width="1.49442" stroke-linecap="butt" stroke-miterlimit="10" stroke-linejoin="miter" fill="none" stroke="#1414cc" d="M19.13142 160.27358 19.7714 154.50646 20.53741 147.91828 21.30344 141.63768 22.06944 135.65689 22.83546 129.96854 23.60147 124.565 24.36751 119.43904 25.13351 114.58331 25.89952 109.99059 26.66554 105.65369 27.43155 101.56563 28.19759 97.7194 28.9636 94.10814 29.7296 90.72496 30.49562 87.5632 31.26164 84.6162 32.02766 81.87737 32.79367 79.34021 33.55968 76.99834 34.32571 74.84543 35.09172 72.8752 35.85774 71.08153 36.62375 69.45828 37.38976 67.99953 38.15579 66.69926 38.9218 65.5517 39.6878 64.55106 40.45383 63.69165 41.21985 62.96788 41.98587 62.37425 42.75188 61.9053 43.51788 61.5557 44.2839 61.32011 45.04993 61.19344 45.81595 61.17047 46.58195 61.24625 47.34796 61.41573 48.114 61.67416 48.88 62.01665 49.64603 62.43854 50.41203 62.93518 51.17804 63.50206 51.94408 64.13467 52.71008 64.82864 53.4761 65.57968 54.24211 66.38353 55.00813 67.2361 55.77415 68.13327 56.54016 69.0711 57.30618 70.04567 58.07219 71.05316 58.83821 72.08986 59.60423 73.15207 60.37024 74.23624 61.13626 75.33885 61.90228 76.45651 62.66829 77.5859 63.43431 78.72372 64.20032 79.86684 64.96632 81.01216 65.73236 82.15663 66.49837 83.29738 67.26439 84.43152 68.0304 85.5563 68.79642 86.66904 69.56244 87.7671 70.32845 88.848 71.09447 89.90926 71.86047 90.94853 72.6265 91.96356 73.39252 92.95207 74.15852 93.91203 74.92455 94.84135 75.69057 95.73807 76.45657 96.60031 77.2226 97.4263 77.9886 98.21432 78.75462 98.9627 79.52065 99.66992 80.28665 100.3345 81.05267 100.95506 81.81868 101.53029 82.58472 102.05888 83.35072 102.5398 84.11673 102.97191 84.88275 103.35423 85.64877 103.68588 86.41478 103.96602 87.1808 104.19385 87.94681 104.3688 88.71284 104.49023 89.47885 104.55766 90.24486 104.57068 91.01088 104.52888 91.7769 104.43208 92.54292 104.28006 93.30893 104.07275 94.07494 103.81012 94.84097 103.49222 95.60698 103.11922 96.373 102.6913 97.139 102.20883 97.90503 101.67216 98.67105 101.08176 99.43706 100.4382 100.2031 99.74208 100.9691 98.99416 101.7351 98.19516 102.50113 97.34601 103.26715 96.44765 104.03317 95.50111 104.79918 94.50749 105.56519 93.46805 106.3312 92.38399 107.09723 91.25671 107.86325 90.08765 108.62926 88.8783 109.39528 87.6303 110.1613 86.34532 110.9273 85.0251 111.69331 83.67151 112.45935 82.28648 113.22536 80.872 113.99138 79.43016 114.75739 77.96312 115.52339 76.47316 116.28943 74.96257 117.05544 73.43379 117.82146 71.8893 118.58746 70.33165 119.35349 68.76352 120.1195 67.18765 120.88551 65.60686 121.65154 64.024 122.41754 62.44211 123.18356 60.86417 123.94958 59.2934 124.71559 57.73296 125.48161 56.1862 126.24763 54.65645 127.01364 53.14722 127.77966 51.662 128.54567 50.20447 129.3117 48.77826 130.07772 47.38731 130.84372 46.03531 131.60974 44.72627 132.37575 43.46426 133.14179 42.25334 133.90779 41.09772 134.6738 40.00168 135.43982 38.96954 136.20584 38.00577 136.97185 37.11491 137.73787 36.30145 138.50388 35.5702 139.2699 34.92578 140.03592 34.37314 140.80193 33.91713 141.56795 33.56279 142.33396 33.31516 143.09999 33.17944 143.866 33.1609 144.632 33.26477 145.39803 33.4965 146.16403 33.86162 146.93007 34.36563 147.69608 35.01425 148.46208 35.81305 149.2281 36.76807 149.99413 37.885 150.76015 39.16995 151.52616 40.62886 152.29216 42.26796 153.05818 44.09337 153.8242 46.11145 154.59023 48.32852 155.35623 50.75116 156.12224 53.38574 156.88828 56.239 157.65428 59.31755 158.42029 62.62827 159.18631 66.17793 159.95232 69.97351 160.71836 74.02203 161.48436 78.3306 162.25037 82.90639 163.01639 87.75667 163.78241 92.88878 164.54843 98.31015 165.31444 104.02832 166.08045 110.05083 166.84647 116.38538 167.61249 123.03967 168.37851 130.02165 169.14452 137.33905 169.91053 145.00005 170.67656 153.0126 171.33844 160.24652"/>
<path transform="matrix(-.11026,-.9938899,-.99387,.11026221,21.22744,2.9131776)" stroke-width="1.19553" stroke-linecap="round" stroke-linejoin="round" fill="none" stroke="#1414cc" d="M-2.18182 2.9091C-2 1.81818 0 .18181 .54544 0 0-.18181-2-1.81818-2.18182-2.9091"/>
<path transform="matrix(.0911,-.99581,-.99579,-.091101828,173.43445,2.9402314)" stroke-width="1.19553" stroke-linecap="round" stroke-linejoin="round" fill="none" stroke="#1414cc" d="M-2.18182 2.9091C-2 1.81818 0 .18181 .54544 0 0-.18181-2-1.81818-2.18182-2.9091"/>
</g>
<use data-text="x" xlink:href="#font_4_1" transform="matrix(9.9626,0,0,-9.962799,187.18302,78.95825)"/>
<use data-text="y" xlink:href="#font_4_2" transform="matrix(9.9626,0,0,-9.962799,102.763,9.572861)"/>
</svg>
